<svg width="39" height="10" viewBox="0 0 39 10" fill="none" xmlns="http://www.w3.org/2000/svg">
<path d="M0.730469 5.25378L1.16406 0.999878H5.53516V2.00183H2.08398L1.82617 4.328C2.24414 4.08191 2.71875 3.95886 3.25 3.95886C4.02734 3.95886 4.64453 4.21667 5.10156 4.7323C5.55859 5.24402 5.78711 5.93738 5.78711 6.81238C5.78711 7.69128 5.54883 8.38464 5.07227 8.89246C4.59961 9.39636 3.9375 9.64832 3.08594 9.64832C2.33203 9.64832 1.7168 9.43933 1.24023 9.02136C0.763672 8.60339 0.492188 8.02527 0.425781 7.28699H1.45117C1.51758 7.77527 1.69141 8.14441 1.97266 8.39441C2.25391 8.6405 2.625 8.76355 3.08594 8.76355C3.58984 8.76355 3.98438 8.59167 4.26953 8.24792C4.55859 7.90417 4.70312 7.42957 4.70312 6.8241C4.70312 6.25378 4.54688 5.79675 4.23438 5.453C3.92578 5.10535 3.51367 4.93152 2.99805 4.93152C2.52539 4.93152 2.1543 5.03503 1.88477 5.24207L1.59766 5.47644L0.730469 5.25378ZM11.125 5.78113C10.8984 6.05066 10.627 6.26746 10.3105 6.43152C9.99805 6.59558 9.6543 6.67761 9.2793 6.67761C8.78711 6.67761 8.35742 6.55652 7.99023 6.31433C7.62695 6.07214 7.3457 5.7323 7.14648 5.2948C6.94727 4.85339 6.84766 4.36707 6.84766 3.83582C6.84766 3.2655 6.95508 2.75183 7.16992 2.2948C7.38867 1.83777 7.69727 1.48816 8.0957 1.24597C8.49414 1.00378 8.95898 0.88269 9.49023 0.88269C10.334 0.88269 10.998 1.1991 11.4824 1.83191C11.9707 2.46082 12.2148 3.32019 12.2148 4.41003V4.72644C12.2148 6.3866 11.8867 7.59949 11.2305 8.36511C10.5742 9.12683 9.58398 9.51746 8.25977 9.53699H8.04883V8.62292H8.27734C9.17188 8.6073 9.85938 8.37488 10.3398 7.92566C10.8203 7.47253 11.082 6.75769 11.125 5.78113ZM9.45508 5.78113C9.81836 5.78113 10.1523 5.6698 10.457 5.44714C10.7656 5.22449 10.9902 4.9491 11.1309 4.62097V4.18738C11.1309 3.47644 10.9766 2.89832 10.668 2.453C10.3594 2.00769 9.96875 1.78503 9.49609 1.78503C9.01953 1.78503 8.63672 1.96863 8.34766 2.33582C8.05859 2.6991 7.91406 3.17957 7.91406 3.77722C7.91406 4.35925 8.05273 4.83972 8.33008 5.21863C8.61133 5.59363 8.98633 5.78113 9.45508 5.78113ZM15.2852 4.73816H16.0996C16.6113 4.73035 17.0137 4.59558 17.3066 4.33386C17.5996 4.07214 17.7461 3.71863 17.7461 3.27332C17.7461 2.27332 17.248 1.77332 16.252 1.77332C15.7832 1.77332 15.4082 1.90808 15.127 2.17761C14.8496 2.44324 14.7109 2.79675 14.7109 3.23816H13.627C13.627 2.56238 13.873 2.00183 14.3652 1.55652C14.8613 1.1073 15.4902 0.88269 16.252 0.88269C17.0566 0.88269 17.6875 1.09558 18.1445 1.52136C18.6016 1.94714 18.8301 2.53894 18.8301 3.29675C18.8301 3.66785 18.709 4.02722 18.4668 4.37488C18.2285 4.72253 17.9023 4.9823 17.4883 5.15417C17.957 5.30261 18.3184 5.54871 18.5723 5.89246C18.8301 6.23621 18.959 6.65613 18.959 7.15222C18.959 7.91785 18.709 8.52527 18.209 8.97449C17.709 9.42371 17.0586 9.64832 16.2578 9.64832C15.457 9.64832 14.8047 9.43152 14.3008 8.99792C13.8008 8.56433 13.5508 7.99207 13.5508 7.28113H14.6406C14.6406 7.73035 14.7871 8.08972 15.0801 8.35925C15.373 8.62878 15.7656 8.76355 16.2578 8.76355C16.7812 8.76355 17.1816 8.62683 17.459 8.35339C17.7363 8.07996 17.875 7.68738 17.875 7.17566C17.875 6.67957 17.7227 6.29871 17.418 6.03308C17.1133 5.76746 16.6738 5.63074 16.0996 5.62292H15.2852V4.73816ZM24.7012 0.994019V1.91394H24.502C23.6582 1.92957 22.9863 2.17957 22.4863 2.66394C21.9863 3.14832 21.6973 3.82996 21.6191 4.70886C22.0684 4.19324 22.6816 3.93542 23.459 3.93542C24.2012 3.93542 24.793 4.19714 25.2344 4.72058C25.6797 5.24402 25.9023 5.9198 25.9023 6.74792C25.9023 7.62683 25.6621 8.32996 25.1816 8.8573C24.7051 9.38464 24.0645 9.64832 23.2598 9.64832C22.4434 9.64832 21.7812 9.33582 21.2734 8.71082C20.7656 8.08191 20.5117 7.27332 20.5117 6.28503V5.86902C20.5117 4.29871 20.8457 3.09949 21.5137 2.27136C22.1855 1.43933 23.1836 1.01355 24.5078 0.994019H24.7012ZM23.2773 4.83777C22.9062 4.83777 22.5645 4.9491 22.252 5.17175C21.9395 5.39441 21.7227 5.67371 21.6016 6.00964V6.40808C21.6016 7.11121 21.7598 7.67761 22.0762 8.1073C22.3926 8.53699 22.7871 8.75183 23.2598 8.75183C23.748 8.75183 24.1309 8.57214 24.4082 8.21277C24.6895 7.85339 24.8301 7.38269 24.8301 6.80066C24.8301 6.21472 24.6875 5.74207 24.4023 5.38269C24.1211 5.01941 23.7461 4.83777 23.2773 4.83777ZM31.2109 9.53113C31.1484 9.40613 31.0977 9.18347 31.0586 8.86316C30.5547 9.3866 29.9531 9.64832 29.2539 9.64832C28.6289 9.64832 28.1152 9.47253 27.7129 9.12097C27.3145 8.7655 27.1152 8.31628 27.1152 7.77332C27.1152 7.11316 27.3652 6.60144 27.8652 6.23816C28.3691 5.87097 29.0762 5.68738 29.9863 5.68738H31.041V5.18933C31.041 4.81042 30.9277 4.50964 30.7012 4.28699C30.4746 4.06042 30.1406 3.94714 29.6992 3.94714C29.3125 3.94714 28.9883 4.0448 28.7266 4.24011C28.4648 4.43542 28.334 4.67175 28.334 4.9491H27.2441C27.2441 4.63269 27.3555 4.328 27.5781 4.03503C27.8047 3.73816 28.1094 3.50378 28.4922 3.33191C28.8789 3.16003 29.3027 3.0741 29.7637 3.0741C30.4941 3.0741 31.0664 3.25769 31.4805 3.62488C31.8945 3.98816 32.1094 4.49011 32.125 5.13074V8.04871C32.125 8.63074 32.1992 9.09363 32.3477 9.43738V9.53113H31.2109ZM29.4121 8.70496C29.752 8.70496 30.0742 8.61707 30.3789 8.44128C30.6836 8.2655 30.9043 8.03699 31.041 7.75574V6.45496H30.1914C28.8633 6.45496 28.1992 6.84363 28.1992 7.62097C28.1992 7.96082 28.3125 8.22644 28.5391 8.41785C28.7656 8.60925 29.0566 8.70496 29.4121 8.70496ZM35.2891 4.73816H36.1035C36.6152 4.73035 37.0176 4.59558 37.3105 4.33386C37.6035 4.07214 37.75 3.71863 37.75 3.27332C37.75 2.27332 37.252 1.77332 36.2559 1.77332C35.7871 1.77332 35.4121 1.90808 35.1309 2.17761C34.8535 2.44324 34.7148 2.79675 34.7148 3.23816H33.6309C33.6309 2.56238 33.877 2.00183 34.3691 1.55652C34.8652 1.1073 35.4941 0.88269 36.2559 0.88269C37.0605 0.88269 37.6914 1.09558 38.1484 1.52136C38.6055 1.94714 38.834 2.53894 38.834 3.29675C38.834 3.66785 38.7129 4.02722 38.4707 4.37488C38.2324 4.72253 37.9062 4.9823 37.4922 5.15417C37.9609 5.30261 38.3223 5.54871 38.5762 5.89246C38.834 6.23621 38.9629 6.65613 38.9629 7.15222C38.9629 7.91785 38.7129 8.52527 38.2129 8.97449C37.7129 9.42371 37.0625 9.64832 36.2617 9.64832C35.4609 9.64832 34.8086 9.43152 34.3047 8.99792C33.8047 8.56433 33.5547 7.99207 33.5547 7.28113H34.6445C34.6445 7.73035 34.791 8.08972 35.084 8.35925C35.377 8.62878 35.7695 8.76355 36.2617 8.76355C36.7852 8.76355 37.1855 8.62683 37.4629 8.35339C37.7402 8.07996 37.8789 7.68738 37.8789 7.17566C37.8789 6.67957 37.7266 6.29871 37.4219 6.03308C37.1172 5.76746 36.6777 5.63074 36.1035 5.62292H35.2891V4.73816Z" fill="black"/>
</svg>
