<svg width="41" height="10" viewBox="0 0 41 10" fill="none" xmlns="http://www.w3.org/2000/svg">
<path d="M6.74023 1.60925L3.20703 9.53113H2.07031L5.5918 1.8905H0.974609V0.999878H6.74023V1.60925ZM9.54688 4.73816H10.3613C10.873 4.73035 11.2754 4.59558 11.5684 4.33386C11.8613 4.07214 12.0078 3.71863 12.0078 3.27332C12.0078 2.27332 11.5098 1.77332 10.5137 1.77332C10.0449 1.77332 9.66992 1.90808 9.38867 2.17761C9.11133 2.44324 8.97266 2.79675 8.97266 3.23816H7.88867C7.88867 2.56238 8.13477 2.00183 8.62695 1.55652C9.12305 1.1073 9.75195 0.88269 10.5137 0.88269C11.3184 0.88269 11.9492 1.09558 12.4062 1.52136C12.8633 1.94714 13.0918 2.53894 13.0918 3.29675C13.0918 3.66785 12.9707 4.02722 12.7285 4.37488C12.4902 4.72253 12.1641 4.9823 11.75 5.15417C12.2188 5.30261 12.5801 5.54871 12.834 5.89246C13.0918 6.23621 13.2207 6.65613 13.2207 7.15222C13.2207 7.91785 12.9707 8.52527 12.4707 8.97449C11.9707 9.42371 11.3203 9.64832 10.5195 9.64832C9.71875 9.64832 9.06641 9.43152 8.5625 8.99792C8.0625 8.56433 7.8125 7.99207 7.8125 7.28113H8.90234C8.90234 7.73035 9.04883 8.08972 9.3418 8.35925C9.63477 8.62878 10.0273 8.76355 10.5195 8.76355C11.043 8.76355 11.4434 8.62683 11.7207 8.35339C11.998 8.07996 12.1367 7.68738 12.1367 7.17566C12.1367 6.67957 11.9844 6.29871 11.6797 6.03308C11.375 5.76746 10.9355 5.63074 10.3613 5.62292H9.54688V4.73816ZM19.2852 6.66589H20.4688V7.55066H19.2852V9.53113H18.1953V7.55066H14.3105V6.91199L18.1309 0.999878H19.2852V6.66589ZM15.541 6.66589H18.1953V2.4823L18.0664 2.71667L15.541 6.66589ZM21.2949 6.30847C21.2949 5.33582 21.5254 4.55457 21.9863 3.96472C22.4473 3.37097 23.0508 3.0741 23.7969 3.0741C24.5391 3.0741 25.127 3.328 25.5605 3.83582V0.531128H26.6445V9.53113H25.6484L25.5957 8.85144C25.1621 9.38269 24.5586 9.64832 23.7852 9.64832C23.0508 9.64832 22.4512 9.34753 21.9863 8.74597C21.5254 8.14441 21.2949 7.35925 21.2949 6.3905V6.30847ZM22.3789 6.43152C22.3789 7.15027 22.5273 7.71277 22.8242 8.11902C23.1211 8.52527 23.5312 8.72839 24.0547 8.72839C24.7422 8.72839 25.2441 8.4198 25.5605 7.80261V4.8905C25.2363 4.29285 24.7383 3.99402 24.0664 3.99402C23.5352 3.99402 23.1211 4.1991 22.8242 4.60925C22.5273 5.01941 22.3789 5.62683 22.3789 6.43152ZM30.875 8.76355C31.2617 8.76355 31.5996 8.64636 31.8887 8.41199C32.1777 8.17761 32.3379 7.88464 32.3691 7.53308H33.3945C33.375 7.89636 33.25 8.24207 33.0195 8.57019C32.7891 8.89832 32.4805 9.16003 32.0938 9.35535C31.7109 9.55066 31.3047 9.64832 30.875 9.64832C30.0117 9.64832 29.3242 9.36121 28.8125 8.78699C28.3047 8.20886 28.0508 7.4198 28.0508 6.4198V6.23816C28.0508 5.62097 28.1641 5.07214 28.3906 4.59167C28.6172 4.11121 28.9414 3.73816 29.3633 3.47253C29.7891 3.20691 30.291 3.0741 30.8691 3.0741C31.5801 3.0741 32.1699 3.28699 32.6387 3.71277C33.1113 4.13855 33.3633 4.69128 33.3945 5.37097H32.3691C32.3379 4.96082 32.1816 4.62488 31.9004 4.36316C31.623 4.09753 31.2793 3.96472 30.8691 3.96472C30.3184 3.96472 29.8906 4.16394 29.5859 4.56238C29.2852 4.95691 29.1348 5.52917 29.1348 6.27917V6.48425C29.1348 7.21472 29.2852 7.77722 29.5859 8.17175C29.8867 8.56628 30.3164 8.76355 30.875 8.76355ZM40.0918 9.53113H34.502V8.75183L37.4551 5.47058C37.8926 4.97449 38.1934 4.57214 38.3574 4.26355C38.5254 3.95105 38.6094 3.62878 38.6094 3.29675C38.6094 2.85144 38.4746 2.48621 38.2051 2.20105C37.9355 1.91589 37.5762 1.77332 37.127 1.77332C36.5879 1.77332 36.168 1.92761 35.8672 2.23621C35.5703 2.54089 35.4219 2.96667 35.4219 3.51355H34.3379C34.3379 2.72839 34.5898 2.09363 35.0938 1.60925C35.6016 1.12488 36.2793 0.88269 37.127 0.88269C37.9199 0.88269 38.5469 1.09167 39.0078 1.50964C39.4688 1.92371 39.6992 2.47644 39.6992 3.16785C39.6992 4.00769 39.1641 5.00769 38.0938 6.16785L35.8086 8.64636H40.0918V9.53113Z" fill="black"/>
</svg>
