<svg width="40" height="10" viewBox="0 0 40 10" fill="none" xmlns="http://www.w3.org/2000/svg">
<path d="M5.40625 3.22644C5.40625 3.65222 5.29297 4.03113 5.06641 4.36316C4.84375 4.69519 4.54102 4.95496 4.1582 5.14246C4.60352 5.33386 4.95508 5.61316 5.21289 5.98035C5.47461 6.34753 5.60547 6.76355 5.60547 7.22839C5.60547 7.96667 5.35547 8.55457 4.85547 8.99207C4.35938 9.42957 3.70508 9.64832 2.89258 9.64832C2.07227 9.64832 1.41406 9.42957 0.917969 8.99207C0.425781 8.55066 0.179688 7.96277 0.179688 7.22839C0.179688 6.76746 0.304688 6.35144 0.554688 5.98035C0.808594 5.60925 1.1582 5.328 1.60352 5.1366C1.22461 4.9491 0.925781 4.68933 0.707031 4.3573C0.488281 4.02527 0.378906 3.64832 0.378906 3.22644C0.378906 2.50769 0.609375 1.93738 1.07031 1.5155C1.53125 1.09363 2.13867 0.88269 2.89258 0.88269C3.64258 0.88269 4.24805 1.09363 4.70898 1.5155C5.17383 1.93738 5.40625 2.50769 5.40625 3.22644ZM4.52148 7.20496C4.52148 6.72839 4.36914 6.33972 4.06445 6.03894C3.76367 5.73816 3.36914 5.58777 2.88086 5.58777C2.39258 5.58777 2 5.73621 1.70312 6.03308C1.41016 6.32996 1.26367 6.72058 1.26367 7.20496C1.26367 7.68933 1.40625 8.07019 1.69141 8.34753C1.98047 8.62488 2.38086 8.76355 2.89258 8.76355C3.40039 8.76355 3.79883 8.62488 4.08789 8.34753C4.37695 8.06628 4.52148 7.68542 4.52148 7.20496ZM2.89258 1.77332C2.4668 1.77332 2.12109 1.90613 1.85547 2.17175C1.59375 2.43347 1.46289 2.79089 1.46289 3.24402C1.46289 3.67761 1.5918 4.02917 1.84961 4.29871C2.11133 4.56433 2.45898 4.69714 2.89258 4.69714C3.32617 4.69714 3.67188 4.56433 3.92969 4.29871C4.19141 4.02917 4.32227 3.67761 4.32227 3.24402C4.32227 2.81042 4.1875 2.45691 3.91797 2.18347C3.64844 1.91003 3.30664 1.77332 2.89258 1.77332ZM11.125 5.78113C10.8984 6.05066 10.627 6.26746 10.3105 6.43152C9.99805 6.59558 9.6543 6.67761 9.2793 6.67761C8.78711 6.67761 8.35742 6.55652 7.99023 6.31433C7.62695 6.07214 7.3457 5.7323 7.14648 5.2948C6.94727 4.85339 6.84766 4.36707 6.84766 3.83582C6.84766 3.2655 6.95508 2.75183 7.16992 2.2948C7.38867 1.83777 7.69727 1.48816 8.0957 1.24597C8.49414 1.00378 8.95898 0.88269 9.49023 0.88269C10.334 0.88269 10.998 1.1991 11.4824 1.83191C11.9707 2.46082 12.2148 3.32019 12.2148 4.41003V4.72644C12.2148 6.3866 11.8867 7.59949 11.2305 8.36511C10.5742 9.12683 9.58398 9.51746 8.25977 9.53699H8.04883V8.62292H8.27734C9.17188 8.6073 9.85938 8.37488 10.3398 7.92566C10.8203 7.47253 11.082 6.75769 11.125 5.78113ZM9.45508 5.78113C9.81836 5.78113 10.1523 5.6698 10.457 5.44714C10.7656 5.22449 10.9902 4.9491 11.1309 4.62097V4.18738C11.1309 3.47644 10.9766 2.89832 10.668 2.453C10.3594 2.00769 9.96875 1.78503 9.49609 1.78503C9.01953 1.78503 8.63672 1.96863 8.34766 2.33582C8.05859 2.6991 7.91406 3.17957 7.91406 3.77722C7.91406 4.35925 8.05273 4.83972 8.33008 5.21863C8.61133 5.59363 8.98633 5.78113 9.45508 5.78113ZM17.9629 0.994019V1.91394H17.7637C16.9199 1.92957 16.248 2.17957 15.748 2.66394C15.248 3.14832 14.959 3.82996 14.8809 4.70886C15.3301 4.19324 15.9434 3.93542 16.7207 3.93542C17.4629 3.93542 18.0547 4.19714 18.4961 4.72058C18.9414 5.24402 19.1641 5.9198 19.1641 6.74792C19.1641 7.62683 18.9238 8.32996 18.4434 8.8573C17.9668 9.38464 17.3262 9.64832 16.5215 9.64832C15.7051 9.64832 15.043 9.33582 14.5352 8.71082C14.0273 8.08191 13.7734 7.27332 13.7734 6.28503V5.86902C13.7734 4.29871 14.1074 3.09949 14.7754 2.27136C15.4473 1.43933 16.4453 1.01355 17.7695 0.994019H17.9629ZM16.5391 4.83777C16.168 4.83777 15.8262 4.9491 15.5137 5.17175C15.2012 5.39441 14.9844 5.67371 14.8633 6.00964V6.40808C14.8633 7.11121 15.0215 7.67761 15.3379 8.1073C15.6543 8.53699 16.0488 8.75183 16.5215 8.75183C17.0098 8.75183 17.3926 8.57214 17.6699 8.21277C17.9512 7.85339 18.0918 7.38269 18.0918 6.80066C18.0918 6.21472 17.9492 5.74207 17.6641 5.38269C17.3828 5.01941 17.0078 4.83777 16.5391 4.83777ZM26.0371 9.53113H20.4473V8.75183L23.4004 5.47058C23.8379 4.97449 24.1387 4.57214 24.3027 4.26355C24.4707 3.95105 24.5547 3.62878 24.5547 3.29675C24.5547 2.85144 24.4199 2.48621 24.1504 2.20105C23.8809 1.91589 23.5215 1.77332 23.0723 1.77332C22.5332 1.77332 22.1133 1.92761 21.8125 2.23621C21.5156 2.54089 21.3672 2.96667 21.3672 3.51355H20.2832C20.2832 2.72839 20.5352 2.09363 21.0391 1.60925C21.5469 1.12488 22.2246 0.88269 23.0723 0.88269C23.8652 0.88269 24.4922 1.09167 24.9531 1.50964C25.4141 1.92371 25.6445 2.47644 25.6445 3.16785C25.6445 4.00769 25.1094 5.00769 24.0391 6.16785L21.7539 8.64636H26.0371V9.53113ZM27.0332 6.30847C27.0332 5.33582 27.2637 4.55457 27.7246 3.96472C28.1855 3.37097 28.7891 3.0741 29.5352 3.0741C30.2773 3.0741 30.8652 3.328 31.2988 3.83582V0.531128H32.3828V9.53113H31.3867L31.334 8.85144C30.9004 9.38269 30.2969 9.64832 29.5234 9.64832C28.7891 9.64832 28.1895 9.34753 27.7246 8.74597C27.2637 8.14441 27.0332 7.35925 27.0332 6.3905V6.30847ZM28.1172 6.43152C28.1172 7.15027 28.2656 7.71277 28.5625 8.11902C28.8594 8.52527 29.2695 8.72839 29.793 8.72839C30.4805 8.72839 30.9824 8.4198 31.2988 7.80261V4.8905C30.9746 4.29285 30.4766 3.99402 29.8047 3.99402C29.2734 3.99402 28.8594 4.1991 28.5625 4.60925C28.2656 5.01941 28.1172 5.62683 28.1172 6.43152ZM38.1133 5.78113C37.8867 6.05066 37.6152 6.26746 37.2988 6.43152C36.9863 6.59558 36.6426 6.67761 36.2676 6.67761C35.7754 6.67761 35.3457 6.55652 34.9785 6.31433C34.6152 6.07214 34.334 5.7323 34.1348 5.2948C33.9355 4.85339 33.8359 4.36707 33.8359 3.83582C33.8359 3.2655 33.9434 2.75183 34.1582 2.2948C34.377 1.83777 34.6855 1.48816 35.084 1.24597C35.4824 1.00378 35.9473 0.88269 36.4785 0.88269C37.3223 0.88269 37.9863 1.1991 38.4707 1.83191C38.959 2.46082 39.2031 3.32019 39.2031 4.41003V4.72644C39.2031 6.3866 38.875 7.59949 38.2188 8.36511C37.5625 9.12683 36.5723 9.51746 35.248 9.53699H35.0371V8.62292H35.2656C36.1602 8.6073 36.8477 8.37488 37.3281 7.92566C37.8086 7.47253 38.0703 6.75769 38.1133 5.78113ZM36.4434 5.78113C36.8066 5.78113 37.1406 5.6698 37.4453 5.44714C37.7539 5.22449 37.9785 4.9491 38.1191 4.62097V4.18738C38.1191 3.47644 37.9648 2.89832 37.6562 2.453C37.3477 2.00769 36.957 1.78503 36.4844 1.78503C36.0078 1.78503 35.625 1.96863 35.3359 2.33582C35.0469 2.6991 34.9023 3.17957 34.9023 3.77722C34.9023 4.35925 35.041 4.83972 35.3184 5.21863C35.5996 5.59363 35.9746 5.78113 36.4434 5.78113Z" fill="black"/>
</svg>
