<svg width="38" height="11" viewBox="0 0 38 11" fill="none" xmlns="http://www.w3.org/2000/svg">
<path d="M4.96777 6.36194C4.74121 6.63147 4.46973 6.84827 4.15332 7.01233C3.84082 7.17639 3.49707 7.25842 3.12207 7.25842C2.62988 7.25842 2.2002 7.13733 1.83301 6.89514C1.46973 6.65295 1.18848 6.31311 0.989258 5.87561C0.790039 5.4342 0.69043 4.94788 0.69043 4.41663C0.69043 3.84631 0.797852 3.33264 1.0127 2.87561C1.23145 2.41858 1.54004 2.06897 1.93848 1.82678C2.33691 1.58459 2.80176 1.4635 3.33301 1.4635C4.17676 1.4635 4.84082 1.77991 5.3252 2.41272C5.81348 3.04163 6.05762 3.901 6.05762 4.99084V5.30725C6.05762 6.96741 5.72949 8.1803 5.07324 8.94592C4.41699 9.70764 3.42676 10.0983 2.10254 10.1178H1.8916V9.20374H2.12012C3.01465 9.18811 3.70215 8.95569 4.18262 8.50647C4.66309 8.05334 4.9248 7.3385 4.96777 6.36194ZM3.29785 6.36194C3.66113 6.36194 3.99512 6.25061 4.2998 6.02795C4.6084 5.8053 4.83301 5.52991 4.97363 5.20178V4.76819C4.97363 4.05725 4.81934 3.47913 4.51074 3.03381C4.20215 2.5885 3.81152 2.36584 3.33887 2.36584C2.8623 2.36584 2.47949 2.54944 2.19043 2.91663C1.90137 3.27991 1.75684 3.76038 1.75684 4.35803C1.75684 4.94006 1.89551 5.42053 2.17285 5.79944C2.4541 6.17444 2.8291 6.36194 3.29785 6.36194ZM13.0303 7.01233C13.0303 7.98108 12.8076 8.76038 12.3623 9.35022C11.917 9.93616 11.3193 10.2291 10.5693 10.2291C9.76855 10.2291 9.14941 9.94592 8.71191 9.37952L8.65918 10.1119H7.66309V1.11194H8.74707V4.46936C9.18457 3.92639 9.78809 3.65491 10.5576 3.65491C11.3271 3.65491 11.9307 3.94592 12.3682 4.52795C12.8096 5.10999 13.0303 5.90686 13.0303 6.91858V7.01233ZM11.9463 6.88928C11.9463 6.151 11.8037 5.58069 11.5186 5.17834C11.2334 4.776 10.8232 4.57483 10.2881 4.57483C9.57324 4.57483 9.05957 4.90686 8.74707 5.57092V8.31311C9.0791 8.97717 9.59668 9.3092 10.2998 9.3092C10.8193 9.3092 11.2236 9.10803 11.5127 8.70569C11.8018 8.30334 11.9463 7.69788 11.9463 6.88928ZM18.4443 6.36194C18.2178 6.63147 17.9463 6.84827 17.6299 7.01233C17.3174 7.17639 16.9736 7.25842 16.5986 7.25842C16.1064 7.25842 15.6768 7.13733 15.3096 6.89514C14.9463 6.65295 14.665 6.31311 14.4658 5.87561C14.2666 5.4342 14.167 4.94788 14.167 4.41663C14.167 3.84631 14.2744 3.33264 14.4893 2.87561C14.708 2.41858 15.0166 2.06897 15.415 1.82678C15.8135 1.58459 16.2783 1.4635 16.8096 1.4635C17.6533 1.4635 18.3174 1.77991 18.8018 2.41272C19.29 3.04163 19.5342 3.901 19.5342 4.99084V5.30725C19.5342 6.96741 19.2061 8.1803 18.5498 8.94592C17.8936 9.70764 16.9033 10.0983 15.5791 10.1178H15.3682V9.20374H15.5967C16.4912 9.18811 17.1787 8.95569 17.6592 8.50647C18.1396 8.05334 18.4014 7.3385 18.4443 6.36194ZM16.7744 6.36194C17.1377 6.36194 17.4717 6.25061 17.7764 6.02795C18.085 5.8053 18.3096 5.52991 18.4502 5.20178V4.76819C18.4502 4.05725 18.2959 3.47913 17.9873 3.03381C17.6787 2.5885 17.2881 2.36584 16.8154 2.36584C16.3389 2.36584 15.9561 2.54944 15.667 2.91663C15.3779 3.27991 15.2334 3.76038 15.2334 4.35803C15.2334 4.94006 15.3721 5.42053 15.6494 5.79944C15.9307 6.17444 16.3057 6.36194 16.7744 6.36194ZM26.3779 6.47327C26.3779 7.7428 26.1611 8.68616 25.7275 9.30334C25.2939 9.92053 24.6162 10.2291 23.6943 10.2291C22.7842 10.2291 22.1104 9.92834 21.6729 9.32678C21.2354 8.72131 21.0088 7.81897 20.9932 6.61975V5.17249C20.9932 3.91858 21.21 2.98694 21.6436 2.37756C22.0771 1.76819 22.7568 1.4635 23.6826 1.4635C24.6006 1.4635 25.2764 1.75842 25.71 2.34827C26.1436 2.9342 26.3662 3.84045 26.3779 5.06702V6.47327ZM25.2939 4.99084C25.2939 4.07288 25.165 3.40491 24.9072 2.98694C24.6494 2.56506 24.2412 2.35413 23.6826 2.35413C23.1279 2.35413 22.7236 2.56311 22.4697 2.98108C22.2158 3.39905 22.085 4.04163 22.0771 4.90881V6.64319C22.0771 7.56506 22.21 8.2467 22.4756 8.68811C22.7451 9.12561 23.1514 9.34436 23.6943 9.34436C24.2295 9.34436 24.626 9.13733 24.8838 8.72327C25.1455 8.3092 25.2822 7.65686 25.2939 6.76624V4.99084ZM30.5088 10.2291C29.6494 10.2291 28.9502 9.94788 28.4111 9.38538C27.8721 8.81897 27.6025 8.06311 27.6025 7.1178V6.91858C27.6025 6.28967 27.7217 5.72913 27.96 5.23694C28.2021 4.74084 28.5381 4.35413 28.9678 4.07678C29.4014 3.79553 29.8701 3.65491 30.374 3.65491C31.1982 3.65491 31.8389 3.92639 32.2959 4.46936C32.7529 5.01233 32.9814 5.78967 32.9814 6.80139V7.25256H28.6865C28.7021 7.87756 28.8838 8.38342 29.2314 8.77014C29.583 9.15295 30.0283 9.34436 30.5674 9.34436C30.9502 9.34436 31.2744 9.26624 31.54 9.10999C31.8057 8.95374 32.0381 8.7467 32.2373 8.48889L32.8994 9.00452C32.3682 9.82092 31.5713 10.2291 30.5088 10.2291ZM30.374 4.54553C29.9365 4.54553 29.5693 4.70569 29.2725 5.026C28.9756 5.34241 28.792 5.78772 28.7217 6.36194H31.8975V6.27991C31.8662 5.72913 31.7178 5.30334 31.4521 5.00256C31.1865 4.69788 30.8271 4.54553 30.374 4.54553ZM34.7744 10.1119V4.60999H33.7725V3.77209H34.7744V3.1217C34.7744 2.44202 34.9561 1.91663 35.3193 1.54553C35.6826 1.17444 36.1963 0.988892 36.8604 0.988892C37.1104 0.988892 37.3584 1.02209 37.6045 1.0885L37.5459 1.96741C37.3623 1.93225 37.167 1.91467 36.96 1.91467C36.6084 1.91467 36.3369 2.01819 36.1455 2.22522C35.9541 2.42834 35.8584 2.72131 35.8584 3.10413V3.77209H37.2119V4.60999H35.8584V10.1119H34.7744Z" fill="black"/>
</svg>
