<svg width="512" height="512" viewBox="0 0 512 512" fill="none" xmlns="http://www.w3.org/2000/svg">
<path d="M162.451 440.841C192.208 454.3 205.251 507.661 205.251 507.661L423.016 507.062C418.934 498.587 414.295 490.392 409.131 482.53C405.023 474.122 401.578 465.406 398.83 456.461C393.73 439.204 390.199 421.522 388.278 403.63C385.05 376.139 389.195 348.284 400.288 322.925C410.068 300.622 427.051 282.954 439.999 262.535C452.835 242.597 459.747 219.426 459.932 195.714C460.419 171.699 457.473 147.737 451.185 124.555C442.957 96.4703 425.791 71.8367 402.293 54.3935C359.268 20.6536 315.374 1.78772 259.801 4.61673C231.987 6.55303 204.352 10.5208 177.117 16.4882C147.456 22.4586 116.05 33.5491 94.7632 56.025C80.242 71.5421 69.0232 89.8464 61.7869 109.828C58.3951 119.768 55.6358 129.913 53.5255 140.201C49.9726 151.42 45.6851 162.392 40.6907 173.047C39.2214 176.285 38.5802 179.836 38.825 183.383C40.4912 195.393 58.5066 200.557 58.6541 212.94C58.4611 215.676 57.6193 218.326 56.1983 220.672C45.6369 242.982 32.6766 264.076 17.5466 283.579C13.9713 287.961 6.71651 296.596 7.61902 302.792C8.26119 307.191 13.5374 310.845 16.7916 313.266C23.734 318.421 37.8704 321.944 39.632 331.247C40.5439 335.984 39.9711 340.888 37.9919 345.288C33.193 355.415 27.8734 360.813 31.6483 363.989C35.4232 367.165 45.5331 374.793 45.5331 374.793C45.5331 374.793 35.9265 387.063 41.2461 390.83C47.8414 395.516 56.2417 397.677 58.4806 406.45C59.1471 413.402 58.4514 420.418 56.4326 427.103C55.7548 433.646 56.6105 440.257 58.9318 446.412C62.091 458.696 74.3735 466.305 86.7794 463.664C112.398 457.431 137.659 449.812 162.451 440.841Z" fill="#3C3378"/>
<path d="M87.6476 147.239C85.3547 146.744 83.3597 145.342 82.1172 143.353C80.8747 141.363 80.4906 138.955 81.0524 136.678C82.4168 130.655 84.1263 124.715 86.1724 118.888C92.2079 102.177 101.566 86.8624 113.682 73.8668C127.757 59.0102 150.867 48.2495 182.359 41.984C187.013 41.1635 191.468 44.218 192.38 48.855C193.293 53.492 190.327 58.0065 185.709 59.0102C157.818 64.5554 137.815 73.5718 126.247 85.7904C115.76 97.0704 107.661 110.353 102.435 124.841C100.617 130.058 99.0991 135.375 97.8876 140.765C96.7945 145.343 92.2517 148.215 87.6476 147.239Z" fill="#F5EFCA"/>
<path d="M76.9651 186.576C81.7578 186.576 85.643 182.691 85.643 177.898C85.643 173.106 81.7578 169.22 76.9651 169.22C72.1724 169.22 68.2871 173.106 68.2871 177.898C68.2871 182.691 72.1724 186.576 76.9651 186.576Z" fill="#F5EFCA"/>
<path d="M442.576 203.932V316.746C442.576 326.331 434.805 334.102 425.22 334.102H312.406V286.373C303.456 293.086 290.869 291.891 283.34 283.615C275.812 275.339 275.812 262.695 283.34 254.419C290.869 246.143 303.456 244.948 312.406 251.661V203.932H360.135C353.422 194.982 354.617 182.395 362.893 174.867C371.169 167.338 383.813 167.338 392.089 174.867C400.365 182.395 401.56 194.982 394.847 203.932H442.576Z" fill="#776DB4"/>
<path d="M277.695 269.017C277.695 277.235 282.338 284.747 289.688 288.422C297.037 292.097 305.833 291.303 312.407 286.373V334.102H199.593C190.008 334.102 182.237 326.331 182.237 316.746V203.932H229.966C223.253 194.982 224.448 182.395 232.724 174.867C241 167.338 253.644 167.338 261.92 174.867C270.196 182.395 271.391 194.982 264.678 203.932H312.407V251.661C305.833 246.731 297.037 245.938 289.688 249.613C282.338 253.287 277.695 260.8 277.695 269.017Z" fill="#CDACF1"/>
<path d="M346.563 143.829C344.886 150.961 339.723 156.765 332.834 159.26C325.946 161.756 318.263 160.606 312.407 156.203V203.932H264.678C271.391 194.982 270.196 182.395 261.92 174.866C253.644 167.338 241 167.338 232.724 174.866C224.448 182.395 223.253 194.982 229.966 203.932H182.237V91.1186C182.237 81.5332 190.008 73.7627 199.593 73.7627H312.407V121.492C319.711 115.994 329.677 115.665 337.327 120.668C344.978 125.672 348.671 134.934 346.563 143.829Z" fill="#776DB4"/>
<path d="M512 21.695V134.509H464.271C470.984 125.558 469.789 112.971 461.513 105.443C453.237 97.9147 440.593 97.9147 432.317 105.443C424.04 112.971 422.846 125.558 429.559 134.509H390.508C385.715 134.509 381.83 130.623 381.83 125.831V86.7798C390.78 93.4925 403.368 92.2983 410.896 84.022C418.424 75.7457 418.424 63.102 410.896 54.8257C403.368 46.5495 390.78 45.3552 381.83 52.0679V4.33911H494.644C504.229 4.33911 512 12.1096 512 21.695Z" fill="#CDACF1"/>
</svg>
