<svg width="285" height="285" viewBox="0 0 285 285" fill="none" xmlns="http://www.w3.org/2000/svg">
<path d="M142.574 276.382C215.46 276.382 274.546 242.269 274.546 200.19C274.546 158.11 215.46 123.998 142.574 123.998C69.6879 123.998 10.602 158.11 10.602 200.19C10.602 242.269 69.6879 276.382 142.574 276.382Z" fill="#F5F5F5"/>
<path d="M152.589 253.958C173.964 253.958 191.292 243.954 191.292 231.614C191.292 219.274 173.964 209.27 152.589 209.27C131.214 209.27 113.886 219.274 113.886 231.614C113.886 243.954 131.214 253.958 152.589 253.958Z" fill="#E0E0E0"/>
<path d="M220.117 215.181C240.799 215.181 257.566 205.501 257.566 193.561C257.566 181.62 240.799 171.94 220.117 171.94C199.434 171.94 182.668 181.62 182.668 193.561C182.668 205.501 199.434 215.181 220.117 215.181Z" fill="#E0E0E0"/>
<path d="M65.0484 223.987C85.7309 223.987 102.497 214.308 102.497 202.367C102.497 190.427 85.7309 180.747 65.0484 180.747C44.3659 180.747 27.5994 190.427 27.5994 202.367C27.5994 214.308 44.3659 223.987 65.0484 223.987Z" fill="#E0E0E0"/>
<path d="M230.536 205.018C230.736 205.838 231.152 208.164 235.467 208.192C239.782 208.221 242.273 206.482 243.139 204.288C244.006 202.093 243.527 200.469 243.458 198.588C243.39 196.707 244.826 195.464 245.168 194.433C245.641 192.916 244.387 190.813 244.387 190.813L230.536 205.018Z" fill="#263238"/>
<path d="M189.132 190.631C189.017 190.971 188.975 191.331 189.007 191.688C189.04 192.045 189.146 192.392 189.32 192.706C189.628 193.133 192.512 195.259 196.086 194.843C198.721 194.612 201.261 193.748 203.49 192.324C205.588 191.11 207.035 190.939 209.162 190.961C211.288 190.984 212.741 190.597 212.923 190.061C213.237 189.126 213.265 188.527 212.815 188.533L189.132 190.631Z" fill="#263238"/>
<path d="M239.634 155.177C239.111 150.628 237.614 146.246 235.245 142.329C235.245 142.329 233.364 111.475 231.716 95.2641L199.796 95.0361C199.796 95.0361 200.452 137.056 200.936 143.23C201.295 147.915 204.311 177.43 204.316 177.498L204.744 182.423C207.235 183.7 209.207 183.523 211.35 182.007L211.835 177.658C211.835 177.658 214.559 158.984 214.776 154.521C214.985 150.717 214.59 146.904 213.607 143.224L217.626 122.305C217.626 122.305 220.618 137.125 222.306 145.43C224.238 154.943 235.615 186.122 235.621 186.133L236.339 188.721C236.157 191.571 242.957 189.667 242.9 187.444C242.877 187.444 240.842 164.833 239.634 155.177Z" fill="#9E6767"/>
<path d="M221.023 145.829C219.313 137.53 217.603 122.305 217.603 122.305L215.015 143.566C206.243 147.288 200.241 143.611 200.241 143.611C198.805 127.84 199.791 95.0361 199.791 95.0361L231.711 95.2641C233.358 111.475 236.271 142.004 236.271 142.004C236.271 142.004 233.768 147.208 221.023 145.829Z" fill="#37474F"/>
<path d="M217.603 122.305L215.511 112.33C215.511 112.33 210.689 111.19 207.258 108.403C207.258 108.403 208.5 111.589 213.773 114.057L215.916 123.405L215.198 142.095L217.603 122.305Z" fill="#263238"/>
<path d="M236.316 188.721L236.077 187.866C235.792 188.146 235.837 188.391 235.82 189.16C235.82 189.759 235.82 190.346 235.729 191.149C235.62 192.2 235.42 193.24 235.131 194.256C234.561 196.616 233.922 197.562 232.235 200.469C231.836 201.159 230.873 202.304 230.588 203.051C230.303 203.798 230.206 205.16 231.089 205.69C233.603 207.201 237.496 206.83 239.981 205.69C240.908 205.276 241.696 204.605 242.251 203.756C242.807 202.907 243.107 201.917 243.116 200.902C243.116 200.298 243.002 199.699 242.98 199.101C243.006 197.717 243.366 196.36 244.028 195.145C244.415 194.447 244.727 193.709 244.957 192.945C245.299 191.548 244.65 190.135 244.114 188.881C243.652 187.792 243.111 186.344 242.74 186.51C242.74 186.646 242.877 187.456 242.877 187.456C242.489 188.026 241.281 188.744 239.845 189.012C238.91 189.177 236.413 189.439 236.316 188.721Z" fill="#37474F"/>
<path d="M204.476 179.624C204.145 179.624 203.809 179.875 203.222 180.724C202.411 181.896 201.365 182.886 200.15 183.631C197.961 185.142 194.518 186.664 190.984 187.957C189.052 188.664 188.676 190.049 189.303 191.298C190.294 192.301 193.669 194.649 199.255 193.008C202.715 191.982 203.946 190.215 206.42 189.918C208.164 189.707 211.196 190.209 212.986 188.778C213.556 187.433 213.117 186.076 212.952 184.218C212.787 182.36 212.211 179.345 211.612 179.459L211.504 180.451C211.014 182.617 206.026 182.793 204.624 181.368L204.476 179.624Z" fill="#37474F"/>
<path d="M198.103 84.6051C196.616 87.4551 196.627 87.9054 192.54 91.3539C190.414 93.1494 180.194 101.249 179.111 102.059C177.777 102.989 176.553 104.067 175.463 105.273C174.541 106.349 173.503 107.32 172.368 108.169C170.658 109.434 168.378 110.306 166.206 109.172C165.848 108.91 165.444 108.716 165.015 108.602C164.536 108.545 164.052 108.813 163.573 108.71C162.849 108.557 162.547 107.639 161.863 107.297L161.789 107.263C161.215 107.103 160.601 107.175 160.079 107.462L157.092 108.653L155.61 109.241C155.302 109.36 154.886 109.697 154.538 109.611C154.444 109.577 154.36 109.521 154.293 109.448C154.225 109.374 154.176 109.286 154.151 109.189C154.091 108.889 154.11 108.58 154.205 108.289C154.3 107.999 154.468 107.737 154.692 107.531C155.741 106.505 156.983 105.699 158.346 105.159C159.916 104.399 161.439 103.544 162.906 102.6C163.271 102.366 165.186 101.05 164.53 100.719C163.513 100.449 162.47 100.286 161.418 100.235C160.636 100.28 159.859 100.091 159.184 99.693C158.374 99.0831 158.169 98.1996 159.104 98.1084C159.406 98.0799 159.674 98.1084 159.885 98.1084C160.945 98.04 163.031 98.0058 164.092 97.9545C164.616 97.926 165.146 97.9146 165.676 97.926C165.95 97.926 166.246 97.926 166.497 97.9545C166.747 98.0105 167.005 98.0278 167.261 98.0058C168.048 98.1109 168.844 98.1453 169.638 98.1084C170.781 97.9744 171.838 97.432 172.613 96.5808L186.247 82.3821C186.247 82.3821 195.938 58.1115 197.87 55.2843C200.8 50.9979 205.28 49.9662 209.464 50.331L208.05 64.41C208.05 64.41 202.35 76.38 198.103 84.6051Z" fill="#9E6767"/>
<path d="M210.33 50.3025C206.676 49.5273 202.755 50.4507 200.435 52.0125C198.115 53.5743 196.872 55.2501 193.281 63.9825C189.69 72.7149 188.197 77.1894 188.197 77.1894C188.197 77.1894 193.925 83.1858 200.435 82.536C200.435 82.536 209.258 64.1421 209.481 63.9825C209.703 63.8229 210.33 50.3025 210.33 50.3025Z" fill="#F0F0F0"/>
<path d="M168.042 102.361C167.671 101.722 166.947 101.853 166.474 102.036C165.422 102.561 164.412 103.167 163.453 103.848C162.855 104.316 162.547 105.364 162.558 106.487C162.023 104.207 162.946 103.603 163.767 103.067C164.588 102.532 165.699 101.694 166.759 101.437C167.041 101.355 167.342 101.366 167.618 101.468C167.893 101.571 168.128 101.76 168.287 102.007C168.556 101.986 168.826 102.043 169.063 102.171C169.301 102.3 169.496 102.494 169.626 102.731C170.615 103.034 171.497 103.614 172.169 104.401C172.037 104.196 171.855 104.028 171.641 103.913C171.427 103.797 171.186 103.738 170.943 103.74C170.788 103.494 170.566 103.298 170.304 103.172C170.042 103.047 169.75 102.999 169.461 103.033C169.326 102.785 169.116 102.587 168.861 102.466C168.606 102.345 168.319 102.308 168.042 102.361Z" fill="#874C4C"/>
<path d="M229.14 52.0296C231.95 52.5312 232.133 53.922 232.748 56.7036C233.05 58.083 233.734 61.0527 233.461 63.5436L231.374 79.9938L232.093 98.9463C227.573 103.86 209.515 105.433 199.654 98.2338C199.614 83.1858 199.973 74.0601 199.973 62.9508C199.973 53.751 204.972 50.274 210.803 50.2968L220.738 51.1404L229.14 52.0296Z" fill="#9C33B0"/>
<path d="M221.2 31.3899C221.489 30.5007 221.781 29.6077 222.078 28.7109C222.281 28.135 222.454 27.549 222.596 26.9553C222.802 25.9521 223.417 24.2022 224.626 24.0483C224.879 24.021 225.134 24.064 225.365 24.1726C225.595 24.2812 225.791 24.4512 225.931 24.6639C226.21 25.1028 226.21 25.6728 226.455 26.1345C226.78 26.5891 227.164 26.9992 227.595 27.3543C227.969 27.8063 228.241 28.3336 228.392 28.9002C228.544 29.4667 228.571 30.0593 228.473 30.6375C228.273 31.7928 227.904 32.9125 227.379 33.9606L224.985 39.3927C224.688 40.071 224.255 40.698 223.97 41.3706C223.685 42.0432 223.668 42.9495 223.32 43.6962C222.961 44.3905 222.349 44.9207 221.61 45.1782L221.2 31.3899Z" fill="#263238"/>
<path d="M199.261 25.137C198.927 25.6424 198.744 26.2323 198.732 26.8379C198.721 27.4435 198.883 28.0397 199.198 28.557C199.58 29.0814 200.178 29.4975 200.304 30.1359C200.315 30.6874 200.224 31.2363 200.036 31.7547C199.962 32.4025 200.106 33.0563 200.446 33.6128C200.786 34.1693 201.301 34.5966 201.911 34.827C202.529 35.0324 203.187 35.0837 203.829 34.9764C204.47 34.8691 205.076 34.6065 205.593 34.2114C206.619 33.3979 207.365 32.2837 207.725 31.0251C208.062 30.0706 208.186 29.0538 208.088 28.0463C207.989 27.0387 207.671 26.0651 207.155 25.194C206.713 24.518 206.116 23.9579 205.413 23.5612C204.709 23.1644 203.921 22.9424 203.114 22.914C202.329 22.894 201.554 23.0909 200.874 23.4832C200.194 23.8754 199.636 24.4477 199.261 25.137Z" fill="#263238"/>
<path d="M221.542 36.252C222.112 36.5541 222.824 35.4882 223.463 34.7643C224.101 34.0404 226.239 33.0144 227.407 35.2545C228.576 37.4946 226.655 40.6923 224.962 41.2908C222.049 42.3282 221.542 40.4529 221.542 40.4529L221.73 51.0891C221.73 51.0891 219.974 55.8828 214.776 56.7891C209.578 57.6954 210.495 53.3691 212.131 51.1689L212 47.4639C210.693 47.6442 209.374 47.7109 208.056 47.6634C205.878 47.4069 204.681 46.8369 203.707 44.0553C202.401 40.356 202.076 35.3343 202.139 27.9243C204.305 22.2699 212.73 21.2667 217.951 24.282C223.172 27.2973 221.542 36.252 221.542 36.252Z" fill="#9E6767"/>
<path d="M207.811 27.6165C208.218 28.2182 208.79 28.6902 209.458 28.9762C210.126 29.2622 210.862 29.3501 211.578 29.2296C213.015 29.013 214.645 28.3119 215.186 26.9838C215.263 27.2566 215.364 27.5218 215.488 27.7761C215.619 28.0441 215.774 28.2997 215.95 28.5399C216.306 29.0214 216.744 29.4363 217.244 29.7654C218.162 30.3639 219.307 30.1872 219.524 31.4754C219.678 32.4957 219.672 33.5673 219.746 34.599C219.755 35.0768 219.839 35.5502 219.997 36.0012C220.076 36.2278 220.207 36.4328 220.379 36.6C220.551 36.7672 220.76 36.892 220.989 36.9645C221.164 37.0161 221.35 37.0161 221.525 36.9645C222.368 36.6852 222.933 35.2944 223.474 34.7643C223.845 34.3995 223.765 33.5559 223.765 33.0885C223.74 32.1347 223.66 31.1831 223.525 30.2385C223.411 29.3322 223.286 28.4259 223.115 27.5253C222.944 26.6247 223.309 26.334 223.799 25.7298C224.848 24.4302 225.287 22.686 224.301 21.2097C223.984 20.7446 223.559 20.363 223.063 20.097C222.567 19.8311 222.014 19.6888 221.451 19.6821C220.675 19.6821 219.906 19.9386 219.136 19.8531C217.506 19.665 216.463 18.0633 215.055 17.214C214.46 16.8592 213.796 16.6368 213.108 16.562C212.419 16.4873 211.722 16.5619 211.065 16.7808C210.609 16.9296 210.188 17.1701 209.828 17.4876C209.412 17.8294 208.961 18.1273 208.483 18.3768C207.733 18.8342 206.889 19.1149 206.015 19.1976C205.425 19.2526 204.835 19.0949 204.351 18.753C204.116 18.5764 203.936 18.3355 203.835 18.0593C203.734 17.7832 203.715 17.4836 203.781 17.1969C202.707 17.7503 201.879 18.6857 201.461 19.8189C201.264 20.3861 201.249 21.0004 201.418 21.5765C201.586 22.1526 201.93 22.6619 202.401 23.0337C201.981 23.2222 201.613 23.5119 201.332 23.8769C201.05 24.2419 200.864 24.6709 200.788 25.1256C200.651 26.0376 201.284 26.79 201.7 27.6108C202.116 28.4316 203.439 28.8021 204.402 28.8534C205.651 28.873 206.864 28.4328 207.811 27.6165Z" fill="#263238"/>
<path d="M211.983 47.4582C211.983 47.4582 215.791 46.4721 217.444 45.5088C218.555 44.8647 219.724 42.6588 219.957 41.9463C219.957 41.9463 219.786 44.5056 218.487 45.7881C216.372 47.88 212.04 48.7407 212.04 48.7407L211.983 47.4582Z" fill="#874C4C"/>
<path d="M212.536 35.1063C212.537 35.236 212.565 35.3642 212.616 35.4833C212.667 35.6025 212.742 35.7102 212.835 35.8003C212.928 35.8905 213.039 35.9612 213.16 36.0084C213.28 36.0556 213.409 36.0783 213.539 36.0753C213.741 36.0763 213.938 36.017 214.105 35.9049C214.273 35.7929 214.403 35.6333 214.478 35.4467C214.554 35.2601 214.573 35.0551 214.531 34.858C214.49 34.6608 214.39 34.4807 214.245 34.3408C214.1 34.2008 213.917 34.1074 213.718 34.0727C213.52 34.0379 213.315 34.0633 213.132 34.1457C212.948 34.228 212.793 34.3635 212.687 34.5347C212.58 34.706 212.528 34.905 212.536 35.1063Z" fill="#263238"/>
<path d="M211.63 33.2253L213.91 32.0226C213.74 31.7207 213.46 31.4963 213.128 31.3964C212.797 31.2965 212.439 31.3289 212.131 31.4868C211.981 31.5648 211.848 31.6726 211.741 31.8035C211.634 31.9345 211.554 32.0858 211.507 32.2484C211.46 32.4111 211.447 32.5815 211.468 32.7494C211.489 32.9174 211.544 33.0793 211.63 33.2253Z" fill="#263238"/>
<path d="M213.59 40.6524L209.68 42.5163C209.805 42.7816 209.981 43.0194 210.198 43.2157C210.416 43.4121 210.67 43.563 210.947 43.6596C211.223 43.7563 211.517 43.7967 211.809 43.7785C212.102 43.7603 212.387 43.6839 212.65 43.5537C212.907 43.4305 213.137 43.2563 213.325 43.0417C213.513 42.827 213.655 42.5763 213.743 42.3049C213.831 42.0335 213.863 41.7471 213.837 41.463C213.81 41.1789 213.727 40.9031 213.59 40.6524Z" fill="#874C4C"/>
<path d="M212.65 43.5537C212.946 43.4174 213.204 43.2113 213.402 42.9532C213.601 42.695 213.734 42.3925 213.79 42.0717C213.559 41.9822 213.313 41.9415 213.066 41.952C212.598 41.9716 212.154 42.1665 211.822 42.498C211.491 42.8295 211.296 43.2734 211.276 43.7418C211.743 43.8232 212.223 43.7575 212.65 43.5537Z" fill="#F28F8F"/>
<path d="M204.391 32.3703L206.545 33.3963C206.62 33.2596 206.666 33.109 206.68 32.954C206.694 32.7989 206.676 32.6426 206.627 32.4946C206.579 32.3467 206.5 32.2103 206.397 32.0938C206.294 31.9773 206.168 31.8832 206.027 31.8174C205.735 31.6824 205.403 31.6645 205.098 31.7674C204.794 31.8703 204.541 32.0861 204.391 32.3703Z" fill="#263238"/>
<path d="M204.06 35.4597C204.076 35.6486 204.146 35.8287 204.264 35.9778C204.381 36.1269 204.539 36.2384 204.719 36.2984C204.898 36.3585 205.092 36.3645 205.275 36.3158C205.458 36.267 205.623 36.1656 205.749 36.0241C205.875 35.8826 205.957 35.7073 205.984 35.5197C206.012 35.3322 205.984 35.1407 205.903 34.969C205.823 34.7973 205.694 34.6529 205.533 34.5537C205.371 34.4545 205.184 34.4049 204.995 34.4109C204.865 34.4182 204.737 34.4511 204.619 34.5078C204.502 34.5645 204.397 34.6438 204.31 34.7412C204.223 34.8387 204.156 34.9523 204.113 35.0756C204.07 35.1989 204.052 35.3294 204.06 35.4597Z" fill="#263238"/>
<path d="M208.911 33.3963L209.293 40.3104L206.021 39.7575L208.911 33.3963Z" fill="#874C4C"/>
<path d="M235.53 97.7322C235.564 101.865 235.775 103.877 234.914 105.712C234.459 106.623 233.91 107.484 233.278 108.283C232.058 110.027 231.728 111.059 230.73 112.757C229.944 114.091 229.123 114.57 229.345 114.884C229.568 115.197 230.531 115.83 231.716 115.14C232.414 114.677 233.042 114.117 233.58 113.476C233.295 115.528 232.719 117.53 231.87 119.421C230.115 123.029 231.05 124.437 236.043 123.308C239.172 122.601 241.589 118.811 243.247 111.526C243.903 108.642 244.348 100.782 244.387 98.0571C244.49 91.0746 244.564 83.7729 244.273 81.5271C243.464 75.423 241.947 69.4338 239.753 63.6804C236.658 55.7802 235.564 54.4179 230.497 52.9872C230.497 52.9872 226.991 56.9259 228.49 65.1795C229.317 69.6996 234.703 83.5506 234.703 83.5506C234.703 83.5506 235.496 93.5997 235.53 97.7322Z" fill="#9E6767"/>
<path d="M233.158 81.1965L227.527 65.8065C227.527 65.8065 225.885 57.1197 229.146 52.0125C229.146 52.0125 233.466 51.9498 235.883 54.1329C238.3 56.316 240.187 61.9989 241.76 67.8129C242.792 71.6604 243.686 75.2913 244.296 78.4776C240.967 80.997 237.53 82.08 233.158 81.1965Z" fill="#F0F0F0"/>
<path d="M125.611 230.93C127.013 233.78 128.176 238.841 135.723 243.51C141.833 247.289 149.403 248.281 154.367 248.805C154.367 248.805 144.945 239.115 140.283 235.615C135.62 232.115 125.611 230.93 125.611 230.93Z" fill="#37474F"/>
<path d="M122.18 224.654C124.631 232.372 133.431 239.394 143.378 244.222C149.078 246.992 155.057 249.922 160.7 249.62C165.118 249.386 168.623 247.95 169.153 243.35C176.255 244.752 184.629 242.364 182.098 234.099C178.513 222.38 158.352 215.107 154.128 208.728L120.128 211.795C120.418 218.236 120.772 220.242 122.18 224.654Z" fill="#455A64"/>
<path d="M169.153 243.39C168.076 237.017 163.151 234.133 158.186 230.075C154.145 226.775 146.593 221.827 146.593 221.827C149.783 220.811 152.626 218.923 154.801 216.378C154.238 218.537 153.021 220.47 151.318 221.912C151.318 221.912 163.259 230.833 167.21 236.55C168.65 238.527 169.339 240.951 169.153 243.39Z" fill="#37474F"/>
<path d="M134.269 144.392C134.269 144.392 140.186 137.233 150.229 141.457C157.685 144.586 159.121 153.661 154.721 158.392C155.881 158.82 156.89 159.58 157.621 160.578C158.353 161.575 158.775 162.765 158.836 164C158.969 165.275 158.754 166.562 158.214 167.724C157.674 168.886 156.829 169.88 155.77 170.601C155.77 170.601 160.791 173.252 160.159 178.011C159.458 183.289 156.015 186.983 143.059 186.709C131.317 186.458 124.676 179.978 122.943 170.607C120.772 158.768 125.4 144.25 134.269 144.392Z" fill="#263238"/>
<path d="M154.749 175.737C156.573 178.684 159.919 191.959 159.72 202.094L150.811 195.943L145.173 171.861C149.779 171.861 152.76 172.556 154.749 175.737Z" fill="#B16668"/>
<path d="M145.173 171.861C148.303 171.861 150.925 171.787 153.233 173.599C154.476 174.568 155.844 176.193 157.32 181.75C158.62 186.641 159.646 194.205 159.646 194.205C159.646 194.205 155.701 196.148 148.662 194.934L145.173 171.861Z" fill="#455A64"/>
<path d="M126.939 172.493C123.696 173.063 119.244 182.753 119.261 198.463C119.261 207.936 119.831 214.953 119.831 214.953C130.553 220.653 153.917 214.787 154.356 208.751C154.003 206.99 150.571 200.731 150.708 193.224C155.137 189.856 153.723 184.748 152.623 182.252C150.001 176.284 146.775 172.265 145.213 171.866L136.202 170.601C136.202 170.601 128.888 172.14 126.939 172.493Z" fill="#9C33B0"/>
<path opacity="0.15" d="M151.318 199.226L119.278 201.21C119.33 205.308 119.472 208.797 119.603 211.236C121.403 211.825 123.299 212.066 125.189 211.949C130.724 211.613 139.285 207.474 139.285 207.474C139.285 207.474 148.08 208.147 153.911 207.383C152.815 204.744 151.947 202.015 151.318 199.226Z" fill="black"/>
<path d="M126.472 172.881C122.18 173.035 118.286 175.862 117.352 182.166C116.16 190.26 116.782 201.176 117.426 204.83C118.11 208.728 118.566 210.239 125.799 209.219C131.157 208.466 141.759 204.596 147.567 201.74L148.069 199.996L126.05 200.976L126.62 185.894C126.62 185.894 128.199 176.045 126.472 172.881Z" fill="#B16668"/>
<path d="M126.939 172.493C123.986 172.807 120.019 173.633 118.389 176.597C116.759 179.561 116.343 182.953 116.172 191.041C116.172 191.4 116.172 194.353 116.172 194.353C116.987 195.154 117.958 195.78 119.025 196.189C120.092 196.599 121.231 196.785 122.373 196.736C126.363 196.633 126.363 195.464 126.363 195.464L127.384 183.836C127.384 183.836 129.02 174.99 126.939 172.493Z" fill="#455A64"/>
<path d="M148.08 199.996L140.876 201.136C139.798 201.598 138.622 201.78 137.456 201.666C135.21 201.387 133.203 201.096 131.402 200.765L126.056 200.999L126.107 199.631C120.555 198.206 117.99 196.622 116.673 195.322C116.793 198.007 116.958 200.543 117.135 202.436C120.202 204.453 123.77 205.097 127.247 205.548C130.433 206.009 133.65 206.217 136.868 206.169C140.514 204.9 144.086 203.429 147.567 201.763L148.069 200.019L148.08 199.996Z" fill="#9A4A4D"/>
<path d="M121.9 194.399C121.98 194.587 122.083 194.809 121.963 194.969C121.908 195.025 121.841 195.069 121.767 195.096C121.693 195.124 121.614 195.135 121.535 195.128C119.825 195.179 117.243 193.561 116.172 192.398V190.409C113.994 190.186 114.787 196.337 116.115 199.124C117.443 201.911 120.977 203.524 126.244 204.55C132.28 205.73 146.239 206.004 150.805 205.833C158.215 205.548 159.515 205.097 159.72 202.082L150.811 195.932C146.146 196.605 141.448 197.02 136.737 197.174C134.172 197.237 130.695 197.573 128.535 196.952C127.612 196.69 127.059 195.863 126.386 195.162C125.714 194.461 125.201 193.92 124.42 193.236C123.486 192.375 122.498 191.575 121.461 190.842C121.401 190.82 121.336 190.812 121.272 190.819C121.207 190.825 121.146 190.846 121.091 190.88C121.036 190.914 120.99 190.96 120.955 191.015C120.92 191.069 120.899 191.131 120.891 191.195C120.748 191.813 120.823 192.461 121.102 193.031C121.484 193.72 121.803 194.176 121.9 194.399Z" fill="#B16668"/>
<path d="M157.086 199.648C155.542 196.394 152.053 195.926 150.816 195.943L150.771 195.214C151.543 195.293 152.32 195.333 153.096 195.333C154.095 195.614 154.997 196.165 155.701 196.927C156.405 197.689 156.885 198.631 157.086 199.648Z" fill="#9A4A4D"/>
<path d="M149.682 147.795C150.389 148.223 152.498 152.167 151.392 160.575C150.463 167.512 148.257 169.125 147.094 169.575C145.931 170.025 143.857 169.877 141.617 169.13L141.411 172.049C141.411 172.049 143.013 173.588 142.705 175.497C142.397 177.407 138.59 177.344 135.751 175.589C132.383 173.519 132.029 171.741 132.029 171.741L132.502 163.904C132.049 164.1 131.554 164.175 131.063 164.122C130.572 164.069 130.104 163.89 129.704 163.601C127.327 162.062 127.275 157.901 129.253 156.898C132.628 155.188 133.545 159.492 133.545 159.492C135.21 160.29 136.618 156.072 139.736 154.544C143.366 152.76 147.482 152.692 149.682 147.795Z" fill="#B16668"/>
<path d="M139.565 155.61L141.748 154.664C141.867 154.962 141.867 155.296 141.747 155.594C141.627 155.892 141.397 156.133 141.104 156.266C140.96 156.33 140.805 156.364 140.648 156.365C140.491 156.367 140.335 156.335 140.191 156.274C140.046 156.212 139.916 156.122 139.808 156.007C139.701 155.893 139.618 155.758 139.565 155.61Z" fill="#263238"/>
<path d="M149.078 154.544L151.056 155.901C150.975 156.035 150.867 156.151 150.739 156.242C150.611 156.333 150.466 156.396 150.312 156.429C150.159 156.461 150 156.461 149.847 156.429C149.693 156.397 149.548 156.333 149.42 156.243C149.156 156.057 148.974 155.778 148.91 155.462C148.847 155.146 148.907 154.817 149.078 154.544Z" fill="#263238"/>
<path d="M144.871 156.75L144.484 163.208L147.847 162.895L144.871 156.75Z" fill="#9A4A4D"/>
<path d="M141.36 164.548C141.419 164.513 141.482 164.487 141.548 164.468C141.716 164.419 141.892 164.398 142.067 164.405C142.416 164.423 142.755 164.523 143.059 164.696C143.313 164.835 143.533 165.03 143.703 165.266C143.868 165.488 144.056 165.836 143.925 166.109C143.925 166.166 143.822 166.252 143.754 166.212C143.686 166.172 143.583 165.99 143.515 165.87C143.449 165.758 143.373 165.653 143.287 165.557C143.126 165.369 142.933 165.213 142.717 165.095C142.527 165.003 142.326 164.94 142.118 164.907C142.02 164.895 141.92 164.895 141.822 164.907C141.68 164.927 141.536 164.927 141.394 164.907C141.346 164.902 141.3 164.882 141.263 164.85C141.245 164.833 141.231 164.811 141.224 164.787C141.217 164.763 141.217 164.737 141.223 164.713C141.25 164.644 141.298 164.586 141.36 164.548Z" fill="#9A4A4D"/>
<path d="M143.07 159.423C143.055 159.451 143.034 159.475 143.007 159.492C142.939 159.526 142.859 159.492 142.791 159.526C142.722 159.56 142.614 159.765 142.483 159.839C142.352 159.914 142.073 159.76 141.873 159.839C141.793 159.839 141.731 159.931 141.651 159.953C141.571 159.976 141.36 159.896 141.212 159.902C141.064 159.908 140.967 160.039 140.881 160.113C139.868 160.974 139.143 162.123 138.801 163.408C138.546 164.277 138.44 165.182 138.487 166.087C138.519 166.637 138.655 167.177 138.886 167.677C138.965 167.844 139.06 168.003 139.171 168.15C139.22 168.223 139.275 168.292 139.337 168.355C139.417 168.419 139.487 168.494 139.547 168.578C139.584 168.627 139.611 168.683 139.626 168.743C139.64 168.802 139.643 168.864 139.633 168.925C139.624 168.986 139.595 169.043 139.55 169.086C139.506 169.129 139.449 169.157 139.388 169.165C139.297 169.165 139.188 169.165 139.177 169.045C139.168 168.986 139.168 168.927 139.177 168.868C139.19 168.739 139.168 168.61 139.114 168.492C139.027 168.338 138.928 168.191 138.818 168.053C138.707 167.906 138.614 167.748 138.539 167.58C138.434 167.336 138.354 167.082 138.299 166.822V166.719C138.167 166.03 138.144 165.324 138.231 164.627C138.369 163.674 138.664 162.749 139.103 161.891C139.369 161.393 139.686 160.923 140.049 160.489C140.293 160.202 140.579 159.954 140.898 159.754C140.864 159.756 140.83 159.75 140.798 159.737C140.766 159.725 140.737 159.705 140.713 159.68C140.689 159.655 140.671 159.626 140.66 159.593C140.648 159.561 140.644 159.526 140.648 159.492C140.654 159.438 140.673 159.387 140.702 159.342C140.732 159.298 140.771 159.26 140.817 159.232C140.864 159.205 140.915 159.188 140.969 159.184C141.022 159.179 141.076 159.187 141.126 159.207C141.235 159.241 141.326 159.304 141.428 159.326C141.554 159.358 141.685 159.358 141.81 159.326C142.004 159.275 142.181 159.178 142.38 159.121C142.473 159.087 142.571 159.073 142.67 159.08C142.768 159.087 142.864 159.115 142.95 159.161C143.012 159.202 143.058 159.262 143.081 159.332C143.084 159.363 143.08 159.394 143.07 159.423Z" fill="#E6E6E6"/>
<path d="M148.451 159.059C148.345 159.062 148.241 159.084 148.143 159.121C148.047 159.166 147.972 159.246 147.932 159.344C147.917 159.375 147.908 159.409 147.908 159.444C147.908 159.479 147.915 159.514 147.93 159.546C147.945 159.578 147.966 159.606 147.993 159.628C148.02 159.65 148.052 159.666 148.086 159.674C148.154 159.674 148.234 159.674 148.28 159.725C148.325 159.777 148.314 159.822 148.331 159.874C148.349 159.91 148.375 159.941 148.408 159.964C148.441 159.987 148.479 160.001 148.519 160.005C148.6 160.012 148.681 159.996 148.753 159.959C148.829 159.92 148.913 159.899 148.998 159.896C149.106 159.896 149.18 160.005 149.283 160.039C149.333 160.055 149.387 160.056 149.438 160.042C149.488 160.028 149.534 159.999 149.568 159.959C149.593 159.925 149.62 159.893 149.648 159.862C149.745 159.782 149.904 159.828 149.996 159.743C150.087 159.657 150.024 159.509 149.956 159.429C149.876 159.33 149.772 159.253 149.654 159.207C149.558 159.169 149.459 159.142 149.357 159.127C149.266 159.127 149.18 159.127 149.089 159.087C148.878 159.055 148.664 159.045 148.451 159.059Z" fill="#E6E6E6"/>
<path d="M142.808 158.688C142.848 159.258 142.42 159.423 141.884 159.463C141.349 159.503 140.91 159.389 140.864 158.836C140.851 158.707 140.863 158.576 140.901 158.451C140.938 158.326 141 158.21 141.083 158.109C141.166 158.009 141.267 157.925 141.382 157.864C141.498 157.803 141.624 157.765 141.753 157.753C142.017 157.739 142.275 157.829 142.472 158.004C142.67 158.179 142.79 158.425 142.808 158.688Z" fill="#263238"/>
<path d="M150.024 159.03C149.961 159.6 149.511 159.657 148.975 159.6C148.439 159.543 148.029 159.372 148.086 158.819C148.115 158.562 148.244 158.327 148.446 158.166C148.648 158.004 148.906 157.93 149.163 157.958C149.42 157.987 149.655 158.117 149.817 158.319C149.978 158.521 150.053 158.779 150.024 159.036V159.03Z" fill="#263238"/>
<path d="M141.599 169.13C137.507 167.939 134.873 166.463 134.269 164.57C134.397 165.718 134.902 166.79 135.706 167.62C137.011 168.891 141.514 170.504 141.514 170.504L141.599 169.13Z" fill="#9A4A4D"/>
<path d="M149.768 156.254C149.106 156.256 148.463 156.471 147.932 156.866C147.402 157.261 147.012 157.816 146.821 158.449C146.497 158.255 146.126 158.154 145.749 158.158C145.285 158.162 144.832 158.295 144.438 158.54C144.307 157.872 143.959 157.266 143.448 156.816C142.937 156.367 142.292 156.098 141.613 156.053C140.934 156.007 140.259 156.187 139.693 156.565C139.126 156.942 138.701 157.496 138.482 158.141L136.133 157.833L132.479 157.354C132.648 157.549 132.799 157.759 132.93 157.981L135.7 158.34L138.345 158.688C138.285 159.103 138.31 159.525 138.419 159.929C138.528 160.334 138.717 160.712 138.977 161.041C139.236 161.37 139.56 161.642 139.928 161.842C140.296 162.042 140.7 162.165 141.117 162.204C141.534 162.243 141.955 162.196 142.353 162.067C142.752 161.938 143.12 161.73 143.435 161.454C143.751 161.179 144.007 160.842 144.188 160.464C144.369 160.087 144.472 159.676 144.489 159.258C144.652 159.087 144.849 158.952 145.067 158.861C145.284 158.769 145.519 158.724 145.755 158.728C145.928 158.721 146.1 158.749 146.262 158.81C146.424 158.872 146.571 158.966 146.695 159.087C146.695 159.173 146.667 159.252 146.667 159.332C146.666 159.946 146.847 160.546 147.187 161.056C147.527 161.567 148.01 161.965 148.577 162.201C149.143 162.437 149.767 162.499 150.369 162.38C150.971 162.261 151.524 161.966 151.958 161.532C152.392 161.099 152.688 160.547 152.808 159.945C152.928 159.343 152.867 158.719 152.633 158.153C152.398 157.586 152.001 157.101 151.491 156.76C150.981 156.419 150.381 156.237 149.768 156.237V156.254ZM141.4 161.658C140.903 161.658 140.416 161.51 140.003 161.234C139.589 160.957 139.267 160.564 139.077 160.105C138.887 159.645 138.837 159.139 138.935 158.652C139.032 158.164 139.272 157.716 139.624 157.365C139.977 157.013 140.425 156.774 140.913 156.678C141.401 156.582 141.907 156.632 142.366 156.823C142.825 157.014 143.217 157.338 143.493 157.752C143.768 158.166 143.915 158.652 143.914 159.15C143.912 159.815 143.647 160.453 143.175 160.923C142.704 161.394 142.066 161.658 141.4 161.658ZM149.768 161.863C149.27 161.863 148.784 161.715 148.371 161.439C147.958 161.163 147.635 160.77 147.445 160.311C147.255 159.852 147.205 159.346 147.302 158.859C147.399 158.371 147.639 157.923 147.99 157.572C148.342 157.22 148.79 156.981 149.277 156.884C149.765 156.787 150.27 156.837 150.729 157.027C151.189 157.217 151.581 157.539 151.858 157.953C152.134 158.366 152.281 158.852 152.281 159.349C152.283 159.681 152.22 160.009 152.095 160.316C151.969 160.623 151.785 160.903 151.551 161.138C151.317 161.373 151.04 161.56 150.733 161.687C150.427 161.814 150.099 161.88 149.768 161.88V161.863Z" fill="#37474F"/>
<path d="M174.01 169.051C173.856 168.696 173.629 168.377 173.344 168.115C173.06 167.852 172.723 167.653 172.357 167.529C171.359 167.187 170.219 167.717 169.461 168.515C169.14 168.86 168.791 169.178 168.418 169.467L167.597 170.094L169.011 172.02L167.175 172.693L167.46 174.277L166.736 172.567L167.951 171.621L166.742 169.974L168.811 167.859C168.739 167.4 168.552 166.966 168.266 166.598C167.981 166.23 167.608 165.941 167.181 165.756C166.814 165.631 166.424 165.585 166.038 165.623C165.651 165.66 165.277 165.779 164.941 165.973C164.355 166.306 163.912 166.844 163.698 167.483C163.003 169.541 164.531 171.325 165.676 173.217L166.907 175.013L169.051 174.352C171.108 173.542 173.4 173.052 174.095 170.989C174.302 170.354 174.272 169.665 174.01 169.051Z" fill="#9C33B0"/>
<path opacity="0.3" d="M174.01 169.051C173.856 168.696 173.629 168.377 173.344 168.115C173.06 167.852 172.723 167.653 172.357 167.529C171.359 167.187 170.219 167.717 169.461 168.515C169.14 168.86 168.791 169.178 168.418 169.467L167.597 170.094L169.011 172.02L167.175 172.693L167.46 174.277L166.736 172.567L167.951 171.621L166.742 169.974L168.811 167.859C168.739 167.4 168.552 166.966 168.266 166.598C167.981 166.23 167.608 165.941 167.181 165.756C166.814 165.631 166.424 165.585 166.038 165.623C165.651 165.66 165.277 165.779 164.941 165.973C164.355 166.306 163.912 166.844 163.698 167.483C163.003 169.541 164.531 171.325 165.676 173.217L166.907 175.013L169.051 174.352C171.108 173.542 173.4 173.052 174.095 170.989C174.302 170.354 174.272 169.665 174.01 169.051Z" fill="black"/>
<path d="M116.029 164.696C115.735 164.635 115.431 164.635 115.137 164.697C114.842 164.759 114.564 164.881 114.319 165.055C114.001 165.338 113.767 165.703 113.643 166.11C113.519 166.518 113.511 166.951 113.618 167.363C113.69 167.728 113.734 168.098 113.749 168.469V169.039L115.71 169.29L115.362 170.84L116.343 171.308L114.838 171.114L114.884 169.78H113.27L112.871 167.5C112.576 167.333 112.243 167.243 111.903 167.239C111.564 167.235 111.229 167.317 110.929 167.478C110.63 167.638 110.376 167.872 110.192 168.157C110.007 168.442 109.897 168.769 109.873 169.108C109.819 169.637 109.959 170.167 110.267 170.601C111.264 171.992 113.117 171.838 114.827 171.98L116.537 172.02L117.107 170.345C117.534 168.635 118.275 166.959 117.278 165.562C116.981 165.131 116.537 164.823 116.029 164.696Z" fill="#9C33B0"/>
<path d="M162.632 153.615C162.381 154.416 162.373 155.274 162.61 156.08C162.846 156.886 163.316 157.604 163.96 158.142C164.604 158.681 165.394 159.017 166.229 159.107C167.064 159.197 167.907 159.038 168.651 158.649C169.395 158.26 170.008 157.659 170.411 156.922C170.813 156.185 170.989 155.345 170.914 154.509C170.84 153.672 170.519 152.877 169.993 152.223C169.466 151.568 168.757 151.085 167.956 150.833C167.424 150.666 166.864 150.606 166.308 150.655C165.753 150.705 165.212 150.863 164.718 151.121C164.224 151.38 163.785 151.733 163.427 152.161C163.069 152.589 162.799 153.083 162.632 153.615Z" fill="#9C33B0"/>
<path d="M167.728 157.32C167.683 157.307 167.643 157.281 167.613 157.246C167.583 157.21 167.563 157.167 167.557 157.121C167.473 156.838 167.318 156.582 167.107 156.378C166.895 156.173 166.634 156.026 166.349 155.952C166.072 155.849 165.773 155.82 165.481 155.867C165.19 155.914 164.915 156.035 164.684 156.22C164.662 156.243 164.635 156.261 164.605 156.273C164.575 156.286 164.543 156.292 164.511 156.292C164.478 156.292 164.446 156.286 164.416 156.273C164.387 156.261 164.359 156.243 164.337 156.22C164.29 156.173 164.264 156.109 164.264 156.043C164.264 155.977 164.29 155.914 164.337 155.867C164.629 155.613 164.983 155.443 165.363 155.373C165.742 155.303 166.134 155.335 166.497 155.468C166.87 155.569 167.209 155.768 167.481 156.043C167.752 156.318 167.946 156.661 168.042 157.035C168.05 157.1 168.034 157.165 167.996 157.218C167.957 157.271 167.901 157.308 167.837 157.32C167.801 157.328 167.764 157.328 167.728 157.32Z" fill="#455A64"/>
<path d="M168.247 154.316C168.219 154.377 168.204 154.443 168.204 154.51C168.203 154.577 168.217 154.643 168.244 154.705C168.271 154.766 168.311 154.821 168.361 154.865C168.411 154.91 168.47 154.944 168.533 154.964C168.597 154.985 168.665 154.991 168.731 154.983C168.798 154.976 168.862 154.954 168.919 154.92C168.977 154.885 169.026 154.839 169.065 154.784C169.103 154.729 169.129 154.667 169.142 154.601C169.189 154.475 169.186 154.336 169.133 154.213C169.08 154.09 168.981 153.992 168.857 153.94C168.726 153.909 168.588 153.931 168.474 154.002C168.36 154.072 168.278 154.185 168.247 154.316Z" fill="#455A64"/>
<path d="M164.838 153.33C164.79 153.455 164.792 153.594 164.846 153.717C164.899 153.839 164.999 153.936 165.123 153.986C165.243 153.984 165.359 153.944 165.455 153.872C165.551 153.801 165.622 153.701 165.658 153.587C165.694 153.473 165.693 153.35 165.655 153.237C165.618 153.123 165.545 153.024 165.448 152.954C165.317 152.923 165.18 152.945 165.065 153.016C164.951 153.086 164.869 153.199 164.838 153.33Z" fill="#455A64"/>
<path d="M118.56 137.21C118.799 138.311 119.358 139.317 120.168 140.1C120.978 140.883 122.001 141.408 123.11 141.61C124.218 141.812 125.361 141.681 126.395 141.233C127.429 140.786 128.307 140.042 128.918 139.096C129.529 138.15 129.847 137.044 129.83 135.918C129.813 134.791 129.463 133.695 128.824 132.768C128.185 131.84 127.285 131.123 126.238 130.706C125.192 130.29 124.045 130.193 122.943 130.427C122.209 130.584 121.514 130.883 120.896 131.309C120.278 131.735 119.75 132.279 119.343 132.909C118.936 133.539 118.657 134.243 118.523 134.981C118.388 135.72 118.401 136.477 118.56 137.21Z" fill="#9C33B0"/>
<path d="M126.973 138.185C126.913 138.198 126.85 138.195 126.792 138.174C126.734 138.154 126.682 138.119 126.643 138.071C126.356 137.798 126.005 137.602 125.622 137.502C125.239 137.402 124.837 137.402 124.454 137.501C124.062 137.564 123.694 137.728 123.385 137.977C123.076 138.226 122.837 138.551 122.693 138.92C122.671 139.006 122.616 139.079 122.54 139.124C122.464 139.169 122.373 139.182 122.288 139.16C122.202 139.138 122.129 139.083 122.084 139.007C122.039 138.931 122.026 138.841 122.048 138.755C122.225 138.264 122.529 137.828 122.93 137.494C123.331 137.159 123.813 136.937 124.328 136.851C124.833 136.722 125.362 136.729 125.863 136.871C126.363 137.013 126.817 137.286 127.178 137.661C127.233 137.73 127.258 137.818 127.248 137.905C127.238 137.992 127.195 138.072 127.127 138.128C127.082 138.161 127.029 138.181 126.973 138.185Z" fill="#455A64"/>
<path d="M125.577 134.309C125.619 134.424 125.693 134.525 125.79 134.599C125.888 134.673 126.005 134.717 126.127 134.727C126.249 134.736 126.371 134.71 126.479 134.652C126.587 134.594 126.675 134.507 126.735 134.399C126.794 134.292 126.821 134.17 126.813 134.048C126.805 133.926 126.762 133.809 126.69 133.71C126.617 133.612 126.517 133.537 126.403 133.493C126.288 133.45 126.164 133.44 126.044 133.466C125.871 133.516 125.724 133.633 125.636 133.791C125.549 133.949 125.527 134.135 125.577 134.309Z" fill="#455A64"/>
<path d="M120.92 135.386C120.964 135.498 121.04 135.595 121.137 135.666C121.234 135.737 121.35 135.779 121.47 135.787C121.59 135.795 121.71 135.769 121.816 135.712C121.922 135.655 122.009 135.569 122.068 135.464C122.128 135.36 122.156 135.24 122.151 135.12C122.145 135 122.105 134.884 122.037 134.785C121.968 134.686 121.872 134.609 121.762 134.562C121.651 134.515 121.529 134.501 121.41 134.52C121.319 134.541 121.234 134.582 121.159 134.638C121.084 134.694 121.022 134.765 120.976 134.846C120.93 134.927 120.901 135.017 120.891 135.11C120.882 135.203 120.891 135.297 120.92 135.386Z" fill="#455A64"/>
<path d="M103.689 145.316L109.269 150.879L111.372 149.483L113.099 153.575L114.809 152.144L117.779 156.579L115.761 148.263L113.909 149.91L112.512 144.381L109.662 146.422L108.101 141.446L103.689 145.316Z" fill="#9C33B0"/>
<path d="M111.749 159.674L113.128 157.337L118.292 158.671L112.216 154.464L110.973 156.266L106.254 153.056L104.834 157.28L111.749 159.674Z" fill="#9C33B0"/>
<g opacity="0.3">
<path opacity="0.3" d="M103.689 145.316L109.269 150.879L111.372 149.483L113.099 153.575L114.809 152.144L117.779 156.579L115.761 148.263L113.909 149.91L112.512 144.381L109.662 146.422L108.101 141.446L103.689 145.316Z" fill="black"/>
<path opacity="0.3" d="M111.749 159.674L113.128 157.337L118.292 158.671L112.216 154.464L110.973 156.266L106.254 153.056L104.834 157.28L111.749 159.674Z" fill="black"/>
</g>
<path d="M173.343 129.612L168.298 135.66L166.075 134.469L164.73 138.704L162.9 137.438L160.347 142.124L161.595 133.654L163.59 135.13L164.474 129.493L167.5 131.265L168.595 126.164L173.343 129.612Z" fill="#9C33B0"/>
<path d="M166.64 144.649L165.049 142.449L160.028 144.256L165.693 139.502L167.096 141.183L171.502 137.552L173.303 141.634L166.64 144.649Z" fill="#9C33B0"/>
<g opacity="0.3">
<path opacity="0.3" d="M173.343 129.612L168.298 135.66L166.075 134.469L164.73 138.704L162.9 137.438L160.347 142.124L161.595 133.654L163.59 135.13L164.474 129.493L167.5 131.265L168.595 126.164L173.343 129.612Z" fill="black"/>
<path opacity="0.3" d="M166.64 144.649L165.049 142.449L160.028 144.256L165.693 139.502L167.096 141.183L171.502 137.552L173.303 141.634L166.64 144.649Z" fill="black"/>
</g>
<path d="M45.8793 190.317C45.8793 190.317 45.03 166.771 46.3638 157.827C47.5038 150.138 49.0086 146.65 49.248 144.905C49.248 144.905 50.6445 126.791 50.958 111.412C51.1176 104.002 51.8643 98.7525 56.0196 89.9973L81.453 96.0792C81.9375 99.9894 84.018 126.472 84.1833 149.591C84.3258 169.837 83.5449 187.553 83.5449 187.553L83.505 188.613C83.505 189.799 83.7444 190.625 84.4854 192.535C85.4107 194.989 86.7506 197.266 88.4469 199.266C88.977 199.836 92.6649 203.148 93.1437 203.826C94.7226 205.707 91.3995 206.722 88.9428 206.363C86.355 205.987 82.3365 204.955 81.2136 203.365C80.4612 202.304 79.9311 198.611 79.1616 197.533C76.5624 193.908 75.4965 192.346 75.4908 191.195C75.4908 189.12 76.2033 188.305 76.4712 187.137C76.3002 184.68 71.25 164.462 71.25 157.32C71.25 153.9 71.5293 149.237 71.5293 149.237L67.6875 125.628C66.0345 131.493 63.0363 142.437 62.0331 148.029C60.8076 154.869 56.6865 174.768 54.1386 183.808C53.181 187.228 52.7136 188.721 52.4286 190.95C52.4286 190.95 52.3431 191.742 52.3431 191.754C52.2747 192.768 51.7104 203.587 51.2829 205.867C50.3937 210.626 46.1529 209.977 45.5259 206.112C44.9559 202.823 45.8223 192.666 45.8508 191.423L45.8793 190.317Z" fill="#FFA8A7"/>
<path d="M80.8032 87.9225L80.7576 89.8206C83.7615 99.0318 85.0269 118.52 84.8673 132.36C84.6564 151.107 84.0465 171.12 84.0465 171.12C84.0465 171.12 82.2852 172.351 78.4263 172.482C74.5674 172.613 73.2564 171.308 73.2564 171.308C73.2564 171.308 70.9764 163.601 70.68 158.198C70.4788 155.268 70.5131 152.327 70.7826 149.403L67.5963 126.745C67.5963 126.745 63.27 148.166 62.7 150.856C62.13 153.547 57.2565 172.847 57.2565 172.847C57.2565 172.847 54.15 174.99 50.4735 174.454C46.797 173.918 45.2922 172.14 45.2922 172.14C45.2922 172.14 45.1953 162.279 45.9705 156.835C46.7457 151.392 48.5754 147.231 48.8661 143.668C49.1568 140.106 48.1935 124.391 48.2961 116.656C48.3588 111.378 48.0567 107.627 48.7863 103.78C50.2569 96.0051 53.295 92.0721 54.5661 89.0397L54.7143 87.438C58.9665 90.7839 73.2735 92.7618 80.8032 87.9225Z" fill="#9C33B0"/>
<path d="M45.885 190.317C44.688 190.317 45.4176 194.963 45.0756 197.938C44.7108 201.13 43.6392 203.45 43.3086 206.061C42.9324 209.053 43.1832 210.307 44.232 212.775C45.0414 214.702 49.2024 217.37 50.8269 214.651C52.4514 211.932 52.8276 208.814 52.6794 205.833C52.5255 202.755 52.3659 200.498 52.3317 198.155C52.2975 196.091 53.9391 191.263 52.3944 190.95L52.3089 191.754C51.7389 192.859 46.4208 193.566 45.8166 191.423L45.885 190.317Z" fill="#37474F"/>
<path d="M75.24 193.714C74.8581 195.202 75.1887 199.295 75.1887 199.295C75.1887 199.295 75.8157 200.714 78.1128 201.677L79.2072 195.977L75.24 193.714Z" fill="#263238"/>
<path d="M78.0957 201.677L83.1915 200.07L84.4683 195.578L78.7341 198.4L78.0957 201.677Z" fill="black"/>
<path d="M83.5221 188.596L83.562 187.536C84.246 187.878 85.7052 193.447 87.7116 197.277C89.547 200.771 93.2349 202.755 94.4205 204.282C96.0108 206.323 92.8473 208.894 87.8313 207.765C85.3404 207.195 81.5613 205.559 80.5752 203.866C79.5891 202.173 79.2585 199.072 78.432 197.824C77.6055 196.576 75.6333 195.128 75.2286 193.715C74.9114 192.434 74.9291 191.093 75.2799 189.821C75.6903 188.545 76.0494 186.971 76.4883 187.142V188.117C76.8189 188.807 78.0216 189.622 80.5638 189.787C81.7836 189.861 82.9578 189.69 83.5221 188.596Z" fill="#37474F"/>
<path opacity="0.15" d="M57.6954 89.0055C53.9733 96.8829 51.1176 103.974 50.8554 116.559C50.7984 119.278 50.7699 121.951 50.7471 124.539C50.6502 133.579 50.5704 141.388 49.2879 145.185C49.0143 146 48.7179 146.821 48.3987 147.681C47.9997 148.77 47.5779 149.921 47.1561 151.198C46.6492 153.052 46.2533 154.934 45.9705 156.835C45.8451 157.708 45.7425 158.694 45.6627 159.737C46.3966 155.691 47.521 151.726 49.02 147.898C49.3392 147.026 49.6413 146.188 49.9206 145.384C51.2316 141.485 51.3114 133.631 51.4083 124.539C51.4083 121.957 51.4596 119.29 51.5166 116.559C51.7788 104.065 54.6231 97.0311 58.3224 89.1993C58.0887 89.148 57.8892 89.0796 57.6954 89.0055Z" fill="black"/>
<path opacity="0.15" d="M67.5963 126.768L70.6173 112.632C70.6173 112.632 75.6276 111.384 77.9874 108.363C77.9874 108.363 77.5827 112.068 72.4299 114.171L69.312 127.509L69.8136 142.517L67.5963 126.768Z" fill="black"/>
<path d="M45.3264 166.582C44.6994 166.919 44.7564 167.797 44.7564 169.7C44.6841 170.948 44.7606 172.199 44.9844 173.428C45.144 173.861 46.2555 175.343 50.6844 175.828C55.1133 176.312 56.8404 174.859 57.1995 174.169C57.7941 172.545 58.3002 170.889 58.7157 169.21C58.9551 168.201 58.5105 168.07 58.5105 168.07L58.2198 169.21C58.2198 169.21 56.3559 170.698 51.7674 170.47C47.1789 170.242 45.3834 167.928 45.3834 167.928L45.3264 166.582Z" fill="#9C33B0"/>
<path opacity="0.6" d="M45.3264 166.582C44.6994 166.919 44.7564 167.797 44.7564 169.7C44.6841 170.948 44.7606 172.199 44.9844 173.428C45.144 173.861 46.2555 175.343 50.6844 175.828C55.1133 176.312 56.8404 174.859 57.1995 174.169C57.7941 172.545 58.3002 170.889 58.7157 169.21C58.9551 168.201 58.5105 168.07 58.5105 168.07L58.2198 169.21C58.2198 169.21 56.3559 170.698 51.7674 170.47C47.1789 170.242 45.3834 167.928 45.3834 167.928L45.3264 166.582Z" fill="white"/>
<path d="M72.4242 168.23C71.991 168.372 72.0309 168.88 72.2019 169.894C72.3729 170.909 72.9486 173.189 73.0911 173.884C73.2336 174.58 75.8499 176.044 79.7031 175.594C83.5563 175.144 84.2631 174.175 84.4056 173.166C84.5481 172.157 84.6792 169.524 84.6849 168.817C84.6906 168.11 84.5994 168.008 84.1434 167.848L84.075 168.988C84.075 168.988 83.2998 170.396 78.9963 170.55C74.6928 170.704 72.6579 169.153 72.6579 169.153L72.4242 168.23Z" fill="#9C33B0"/>
<path opacity="0.6" d="M72.4242 168.23C71.991 168.372 72.0309 168.88 72.2019 169.894C72.3729 170.909 72.9486 173.189 73.0911 173.884C73.2336 174.58 75.8499 176.044 79.7031 175.594C83.5563 175.144 84.2631 174.175 84.4056 173.166C84.5481 172.157 84.6792 169.524 84.6849 168.817C84.6906 168.11 84.5994 168.008 84.1434 167.848L84.075 168.988C84.075 168.988 83.2998 170.396 78.9963 170.55C74.6928 170.704 72.6579 169.153 72.6579 169.153L72.4242 168.23Z" fill="white"/>
<path d="M77.0469 58.7385C79.9425 58.7385 81.111 59.2458 82.6215 60.1122C84.132 60.9786 85.0839 62.3238 85.9788 63.4296C88.4583 66.5019 93.8505 74.9208 97.3161 79.8057C97.3161 79.8057 101.785 79.1274 104.903 78.375C107.69 77.7024 105.877 87.495 100.77 88.7946C95.2185 90.174 94.6086 89.9745 91.8213 87.1929C88.8915 84.2688 83.3226 77.5029 80.9913 74.7783L77.0469 58.7385Z" fill="#FFA8A7"/>
<path d="M97.3161 79.8C95.4522 80.2389 93.6453 82.7298 93.6453 82.7298C93.6453 82.7298 94.3236 79.6917 96.8715 79.173L97.3161 79.8Z" fill="#F28F8F"/>
<path d="M115.71 74.2539L115.168 73.5585C115.083 73.4732 114.978 73.4096 114.863 73.3729C114.748 73.3362 114.626 73.3275 114.507 73.3476L107.023 73.8606C106.642 73.9077 106.275 74.037 105.948 74.2398C105.621 74.4425 105.342 74.7137 105.131 75.0348L97.0824 88.749C96.996 88.8575 96.9444 88.9895 96.9343 89.1278C96.9241 89.2661 96.9558 89.4042 97.0254 89.5242L97.5954 90.2424C97.6803 90.3303 97.7855 90.3961 97.9018 90.4338C98.0181 90.4716 98.1419 90.4802 98.2623 90.459L105.746 89.946C106.128 89.8996 106.495 89.7706 106.822 89.5678C107.149 89.365 107.428 89.0933 107.639 88.7718C109.218 86.0757 114.108 77.7537 115.687 75.0576C115.875 74.7156 115.87 74.4306 115.71 74.2539Z" fill="#455A64"/>
<path d="M106.721 74.8239C106.298 75.0318 105.938 75.3486 105.678 75.7416L97.6296 89.4558C97.5479 89.5616 97.4976 89.6883 97.4845 89.8214C97.4714 89.9544 97.496 90.0885 97.5555 90.2082L97.0254 89.5356C96.9532 89.4178 96.9193 89.2805 96.9285 89.1427C96.9377 89.0048 96.9895 88.8732 97.0767 88.7661L105.131 75.0462C105.37 74.6764 105.702 74.3758 106.094 74.1741L106.721 74.8239Z" fill="#263238"/>
<path d="M97.6296 89.49L105.684 75.7701C105.896 75.4498 106.175 75.1792 106.502 74.9765C106.828 74.7739 107.195 74.6441 107.576 74.5959L115.06 74.0829C115.75 74.0373 116.029 74.4819 115.676 75.0861C114.097 77.7822 109.206 86.1042 107.627 88.8003C107.416 89.1219 107.138 89.3935 106.811 89.5963C106.484 89.7991 106.117 89.9282 105.735 89.9745L98.2509 90.4875C97.5555 90.5046 97.2819 90.06 97.6296 89.49Z" fill="#37474F"/>
<path d="M114.798 72.1449C114.722 72.1449 114.65 72.1149 114.596 72.0614C114.543 72.008 114.513 71.9355 114.513 71.8599V68.4399C114.514 68.3647 114.545 68.2931 114.598 68.24C114.651 68.1868 114.723 68.1563 114.798 68.1549C114.874 68.1549 114.946 68.1849 114.999 68.2384C115.053 68.2918 115.083 68.3643 115.083 68.4399V71.8599C115.083 71.9355 115.053 72.008 114.999 72.0614C114.946 72.1149 114.874 72.1449 114.798 72.1449Z" fill="#E0E0E0"/>
<path d="M116.212 72.504C116.161 72.505 116.112 72.4911 116.069 72.4641C116.004 72.4259 115.957 72.3643 115.937 72.2921C115.917 72.2198 115.925 72.1426 115.961 72.0765L117.671 69.1125C117.687 69.0761 117.711 69.0437 117.741 69.0171C117.771 68.9906 117.806 68.9706 117.844 68.9584C117.882 68.9463 117.922 68.9422 117.961 68.9465C118.001 68.9508 118.039 68.9634 118.074 68.9835C118.108 69.0035 118.138 69.0306 118.161 69.0629C118.185 69.0952 118.201 69.1321 118.209 69.1711C118.218 69.2101 118.218 69.2504 118.209 69.2894C118.201 69.3284 118.184 69.3652 118.161 69.3975L116.451 72.3615C116.427 72.4037 116.392 72.439 116.35 72.464C116.308 72.4889 116.26 72.5027 116.212 72.504Z" fill="#E0E0E0"/>
<path d="M117.249 73.53C117.187 73.5294 117.127 73.5084 117.077 73.4703C117.028 73.4322 116.993 73.3791 116.977 73.319C116.961 73.2589 116.964 73.1952 116.988 73.1376C117.011 73.08 117.053 73.0316 117.106 72.9999L120.07 71.2899C120.137 71.2542 120.216 71.2455 120.289 71.2656C120.362 71.2858 120.425 71.3332 120.464 71.3982C120.501 71.464 120.51 71.5417 120.49 71.6144C120.469 71.687 120.421 71.7487 120.355 71.7858L117.391 73.4958C117.348 73.5208 117.299 73.5327 117.249 73.53Z" fill="#E0E0E0"/>
<path d="M121.068 74.9208H117.648C117.572 74.9208 117.5 74.8907 117.446 74.8373C117.393 74.7838 117.363 74.7114 117.363 74.6358C117.363 74.5602 117.393 74.4877 117.446 74.4342C117.5 74.3808 117.572 74.3508 117.648 74.3508H121.068C121.144 74.3508 121.216 74.3808 121.27 74.4342C121.323 74.4877 121.353 74.5602 121.353 74.6358C121.353 74.7114 121.323 74.7838 121.27 74.8373C121.216 74.8907 121.144 74.9208 121.068 74.9208Z" fill="#E0E0E0"/>
<path d="M120.27 78.0387C120.22 78.0397 120.17 78.0258 120.127 77.9988L117.163 76.2888C117.127 76.2724 117.095 76.2485 117.068 76.2187C117.042 76.189 117.022 76.154 117.009 76.116C116.997 76.078 116.993 76.0379 116.998 75.9982C117.002 75.9586 117.014 75.9203 117.034 75.8858C117.055 75.8514 117.082 75.8215 117.114 75.7981C117.146 75.7747 117.183 75.7584 117.222 75.7502C117.261 75.742 117.301 75.742 117.34 75.7504C117.379 75.7587 117.416 75.7751 117.448 75.7986L120.412 77.5086C120.466 77.5403 120.508 77.5887 120.531 77.6463C120.555 77.7039 120.558 77.7676 120.542 77.8277C120.526 77.8878 120.491 77.9409 120.442 77.979C120.392 78.0171 120.332 78.0381 120.27 78.0387Z" fill="#E0E0E0"/>
<path d="M117.99 80.3358C117.94 80.3353 117.89 80.322 117.846 80.2971C117.802 80.2721 117.765 80.2364 117.739 80.1933L116.029 77.2293C115.992 77.1626 115.983 77.084 116.003 77.0104C116.023 76.9368 116.071 76.8742 116.137 76.836C116.203 76.799 116.281 76.7897 116.354 76.81C116.426 76.8303 116.488 76.8786 116.525 76.9443L118.235 79.9083C118.272 79.9734 118.283 80.0506 118.263 80.1232C118.244 80.1957 118.197 80.2578 118.132 80.2959C118.089 80.3196 118.04 80.3332 117.99 80.3358Z" fill="#E0E0E0"/>
<path d="M113.863 78.147C115.334 78.0957 115.807 79.7772 115.049 82.3251C114.291 84.873 111.572 89.262 107.901 87.0618C106.47 86.2011 106.014 83.3511 107.901 82.6158C109.472 82.064 110.988 81.3695 112.432 80.541L113.863 78.147Z" fill="#FFA8A7"/>
<path d="M63.3042 58.6758L55.8942 59.4396C57.1311 67.317 53.2437 75.1944 53.2437 75.1944C53.067 80.2275 52.5255 86.07 54.72 87.21C54.735 87.8705 54.8191 88.5277 54.9708 89.1708C60.5112 92.0208 72.8346 93.7707 80.2674 89.7921L80.8374 87.6204C82.7013 86.4234 82.2909 81.168 82.6329 77.3604C87.5235 70.7085 80.8773 62.1813 77.0754 58.7043L72.3672 58.653L63.3042 58.6758Z" fill="#455A64"/>
<path d="M80.7576 89.8206L80.8089 87.6375C73.2792 92.4768 58.9836 90.5787 54.7143 87.2271L54.549 89.034C54.549 89.034 56.4813 92.454 67.2714 92.8872C78.0615 93.3204 80.7576 89.8206 80.7576 89.8206Z" fill="#37474F"/>
<path d="M75.1374 28.0326C74.7689 28.0422 74.4012 27.9921 74.0487 27.8844C72.6612 27.4266 71.2276 27.1227 69.7737 26.9781C67.3156 26.7149 64.8301 27.0413 62.5233 27.93C60.5824 28.7074 58.8473 29.9226 57.4532 31.4808C56.0592 33.039 55.0438 34.8981 54.4863 36.9132C53.238 41.5587 54.8511 45.8964 57.5187 49.3392C58.9266 51.1518 61.4745 52.896 62.4948 53.6142L63.4524 52.5597C65.0899 53.3833 66.9105 53.7756 68.742 53.6997C70.509 53.6541 72.276 53.8821 73.9404 53.1297C74.8874 52.7244 75.7349 52.1178 76.424 51.352C77.113 50.5862 77.627 49.6796 77.9304 48.6951C78.0585 48.0271 78.2651 47.3766 78.546 46.7571C78.9752 46.1376 79.505 45.5944 80.1135 45.1497C82.2211 43.2942 83.5976 40.7475 83.9952 37.9677C84.1582 37.1415 84.0851 36.2861 83.7843 35.4996C83.6251 35.1122 83.3503 34.7833 82.9974 34.5579C82.6444 34.3324 82.2305 34.2214 81.8121 34.2399C82.3389 33.3486 82.7072 32.3728 82.9008 31.3557C82.9937 30.8452 82.9533 30.3194 82.7836 29.8292C82.6138 29.3389 82.3204 28.9007 81.9318 28.557C81.1687 28.0823 80.2743 27.8628 79.3782 27.93H79.1616C78.261 27.93 77.3547 27.93 76.4598 27.93C76.0095 27.9756 75.5706 28.0269 75.1374 28.0326Z" fill="#263238"/>
<path d="M76.8987 33.1854C78.5517 34.0746 80.9343 36.9018 80.8317 45.4176C80.7519 52.4685 78.5004 54.72 77.349 55.29C76.1976 55.86 74.442 55.7574 72.219 55.4781L72.0651 58.4991C75.5193 63.84 76.1007 66.9864 71.1303 66.5133C64.8261 65.9433 62.5803 60.5796 62.5803 60.0153L62.4207 50.5533C61.8293 50.8313 61.1639 50.9104 60.5238 50.7789C59.8837 50.6474 59.3034 50.3123 58.8696 49.8237C57.2565 47.9655 56.7492 45.2124 58.1058 43.719C59.4624 42.2256 61.7424 42.7614 62.8539 44.289C62.8539 44.289 65.8521 44.6481 69.7851 41.0514C74.0145 37.1868 74.0145 34.5021 76.8987 33.1854Z" fill="#FFA8A7"/>
<path d="M62.8767 44.2605L62.8311 47.6805C63.4726 47.6881 64.091 47.4409 64.5505 46.9932C65.0099 46.5454 65.2731 45.9337 65.2821 45.2922L65.3391 41.2224L62.8767 44.2605Z" fill="#263238"/>
<path d="M79.1559 40.47L77.2977 41.7126C77.2107 41.5957 77.1484 41.4624 77.1147 41.3206C77.081 41.1789 77.0766 41.0318 77.1017 40.8883C77.1267 40.7448 77.1808 40.6079 77.2606 40.486C77.3403 40.3641 77.4441 40.2597 77.5656 40.1793C77.8178 40.0162 78.1228 39.9555 78.4183 40.0095C78.7138 40.0635 78.9776 40.2282 79.1559 40.47Z" fill="#263238"/>
<path d="M72.276 41.8551L70.1784 41.0913C70.2213 40.9526 70.292 40.8241 70.3861 40.7136C70.4803 40.603 70.5959 40.5128 70.7259 40.4483C70.856 40.3838 70.9978 40.3464 71.1427 40.3383C71.2877 40.3303 71.4328 40.3518 71.5692 40.4016C71.8516 40.5061 72.0827 40.7156 72.2144 40.9864C72.3461 41.2572 72.3681 41.5684 72.276 41.8551Z" fill="#263238"/>
<path d="M71.7801 49.8807L74.9493 50.5077C74.9194 50.7163 74.8471 50.9167 74.7369 51.0964C74.6267 51.2761 74.4809 51.4313 74.3084 51.5525C74.1359 51.6737 73.9405 51.7584 73.7341 51.8012C73.5276 51.844 73.3147 51.8441 73.1082 51.8016C72.6846 51.7094 72.3117 51.4598 72.0652 51.1031C71.8186 50.7465 71.7167 50.3096 71.7801 49.8807Z" fill="#B16668"/>
<path d="M72.4356 50.4564C72.2266 50.4575 72.0196 50.4981 71.8257 50.5761C71.9034 50.8799 72.0648 51.1558 72.2915 51.3724C72.5182 51.5891 72.8012 51.7378 73.1082 51.8016C73.4126 51.8616 73.7281 51.8298 74.0145 51.7104C73.932 51.3536 73.7309 51.0353 73.4441 50.8076C73.1573 50.5798 72.8018 50.456 72.4356 50.4564Z" fill="#F28F8F"/>
<path d="M74.5218 42.2427L74.955 48.1536L77.8278 47.2644L74.5218 42.2427Z" fill="#F28F8F"/>
<path d="M72.2304 55.4667C69.8991 55.2558 65.0769 54.0759 64.2504 52.2177C64.583 53.1625 65.2004 53.9809 66.0174 54.5604C67.488 55.7004 72.1335 57.1311 72.1335 57.1311L72.2304 55.4667Z" fill="#F28F8F"/>
<path d="M72.1107 44.3232C72.1118 44.5151 72.0559 44.703 71.9501 44.8631C71.8444 45.0232 71.6934 45.1483 71.5165 45.2225C71.3395 45.2967 71.1445 45.3167 70.9562 45.28C70.7678 45.2432 70.5946 45.1514 70.4585 45.0161C70.3224 44.8808 70.2296 44.7082 70.1917 44.52C70.1539 44.3319 70.1727 44.1368 70.2459 43.9594C70.3191 43.782 70.4433 43.6303 70.6027 43.5236C70.7622 43.4169 70.9498 43.3599 71.1417 43.3599C71.3977 43.3599 71.6433 43.4612 71.8249 43.6417C72.0064 43.8222 72.1092 44.0672 72.1107 44.3232Z" fill="#263238"/>
<path d="M79.4352 43.5651C79.4352 43.7567 79.3783 43.9441 79.2719 44.1034C79.1654 44.2628 79.014 44.387 78.837 44.4603C78.6599 44.5337 78.4651 44.5528 78.2771 44.5155C78.0892 44.4781 77.9165 44.3858 77.781 44.2503C77.6455 44.1147 77.5532 43.9421 77.5158 43.7541C77.4784 43.5661 77.4976 43.3713 77.5709 43.1943C77.6443 43.0172 77.7685 42.8658 77.9278 42.7594C78.0872 42.6529 78.2745 42.5961 78.4662 42.5961C78.7232 42.5961 78.9696 42.6982 79.1513 42.8799C79.3331 43.0616 79.4352 43.3081 79.4352 43.5651Z" fill="#263238"/>
<path d="M59.28 29.7825C55.9398 32.1024 53.6541 35.0835 53.01 42.8925C52.5084 48.8604 53.865 52.7022 55.3185 54.2925C56.772 55.8828 62.9565 59.7303 65.7723 57.3876C65.2362 57.2103 64.7424 56.9245 64.3217 56.5479C63.901 56.1713 63.5624 55.7121 63.327 55.1988C62.8348 53.9023 62.5482 52.5368 62.4777 51.1518C62.4777 51.1518 59.6277 51.1917 58.4877 49.9377C57.3477 48.6837 56.1051 43.32 56.3502 40.6923C56.6409 37.62 59.28 29.7825 59.28 29.7825Z" fill="#263238"/>
<path d="M75.1374 28.0326C71.421 28.1352 67.8927 30.0219 64.2561 35.2146C62.5461 37.6428 61.9761 41.5416 61.7766 43.2801C61.2586 42.9755 60.6674 42.8179 60.0666 42.8241C59.1489 33.2025 64.8717 28.1409 67.9953 26.8983C72.5268 26.22 75.1374 28.0326 75.1374 28.0326Z" fill="#9C33B0"/>
<path d="M47.0706 100.212C46.6488 104.014 46.2612 105.843 46.8825 107.622C47.2217 108.5 47.6455 109.344 48.1479 110.141C49.1112 111.851 49.2879 112.843 50.0802 114.502C50.6502 115.807 51.3855 116.32 51.1575 116.588C50.857 116.867 50.4619 117.022 50.0517 117.022C49.6414 117.022 49.2464 116.867 48.9459 116.588C48.3474 116.094 47.8217 115.518 47.3841 114.878C47.4536 116.795 47.7952 118.693 48.3987 120.515C49.6755 124.003 48.6837 125.212 44.1921 123.701C41.3763 122.755 39.5067 119.033 38.6631 112.165C38.1807 107.978 38.0567 103.758 38.2926 99.5504C38.6346 92.91 39.0336 87.4836 39.5124 85.4316C39.9912 83.3796 42.75 75.4053 46.3638 68.4C49.9776 61.3946 51.0948 60.2603 55.8999 59.4167C56.9523 61.6334 57.4903 64.0592 57.4735 66.5129C57.4567 68.9667 56.8857 71.3849 55.803 73.587C53.2152 78.7626 48.8832 88.6692 48.8832 88.6692C48.8832 88.6692 47.4867 96.4098 47.0706 100.212Z" fill="#FFA8A7"/>
<path d="M118.418 260.49L139.302 248.429C139.53 248.292 139.53 248.081 139.302 247.95L112.005 232.258C111.876 232.193 111.733 232.159 111.589 232.159C111.444 232.159 111.302 232.193 111.173 232.258L90.3336 244.273C90.2826 244.289 90.238 244.321 90.2063 244.364C90.1746 244.407 90.1576 244.459 90.1576 244.513C90.1576 244.566 90.1746 244.618 90.2063 244.661C90.238 244.705 90.2826 244.736 90.3336 244.752L117.585 260.49C117.714 260.555 117.857 260.588 118.001 260.588C118.146 260.588 118.288 260.555 118.418 260.49Z" fill="#E0E0E0"/>
<path d="M119.324 256.836L118.754 256.506C118.909 256.45 119.077 256.438 119.238 256.472C119.381 256.54 119.324 256.836 119.324 256.836Z" fill="black"/>
<path d="M119.7 256.5C119.634 256.429 119.554 256.371 119.464 256.332C119.375 256.293 119.279 256.273 119.181 256.273C119.084 256.273 118.988 256.293 118.898 256.332C118.809 256.371 118.729 256.429 118.663 256.5C118.093 257.019 118.093 257.532 117.842 257.52C117.591 257.509 117.608 253.388 117.608 253.388L119.831 255.457L119.7 256.5Z" fill="black"/>
<path d="M96.4497 241.48H96.4155L96.7689 241.275L112.096 232.429L134.423 246.878C134.794 247.089 134.856 247.397 134.571 247.562L134.047 247.864L119.7 256.118L119.597 256.044L96.4497 241.48Z" fill="#455A64"/>
<path d="M117.813 251.41L118.919 251.182V255.622C118.252 255.907 117.825 256.192 117.779 256.762L117.813 251.41Z" fill="#9C33B0"/>
<path d="M119.409 255.685L133.602 247.488C133.732 247.404 133.84 247.291 133.917 247.157C133.994 247.023 134.039 246.873 134.047 246.719V242.336L119.7 250.68C119.649 250.856 119.562 251.02 119.444 251.16C119.327 251.301 119.181 251.415 119.016 251.495C118.509 251.695 118.896 251.889 118.896 251.889V255.622C119.358 255.571 119.409 255.685 119.409 255.685Z" fill="#EBEBEB"/>
<path d="M118.104 251.256C118.252 251.17 118.366 251.17 118.366 251.256V251.37C118.366 251.524 118.6 251.518 118.891 251.37C119.181 251.222 119.415 250.942 119.415 250.8V250.663C119.415 250.583 119.615 250.407 119.86 250.264L96.7689 237.034L96.4155 237.245C96.3645 237.296 96.3323 237.362 96.3243 237.433V237.57C96.3243 237.73 96.0906 237.986 95.7999 238.14C95.5092 238.294 95.2755 238.317 95.2755 238.14V238.003C95.2755 237.924 95.1615 237.929 95.0133 238.003L118.104 251.256Z" fill="#37474F"/>
<path d="M96.4497 237.245H96.4155L96.7689 237.034L112.096 228.188L134.423 241.081C134.794 241.298 134.856 241.606 134.571 241.771L134.047 242.073L119.7 250.68L96.4497 237.245Z" fill="#455A64"/>
<path d="M95.2755 237.884L118.343 251.205L117.534 251.837L94.5402 238.556C94.5979 238.386 94.7051 238.238 94.848 238.129L95.2755 237.884Z" fill="#455A64"/>
<path d="M94.62 244.53L94.5801 244.501C94.563 244.482 94.5478 244.461 94.5345 244.439V244.405C94.5102 244.363 94.4892 244.319 94.4718 244.273C94.4718 244.228 94.4718 244.177 94.4262 244.125L94.392 243.949C94.392 243.914 94.392 243.88 94.392 243.846C94.392 243.812 94.392 243.789 94.392 243.76C94.392 243.732 94.392 243.629 94.392 243.561V239.748C94.3921 239.357 94.4656 238.971 94.6086 238.608L117.602 251.889L117.699 257.857L94.62 244.53Z" fill="#455A64"/>
<path opacity="0.1" d="M117.534 251.837C117.534 251.837 99.4251 243.39 97.7778 242.581C96.6891 242.068 96.1533 243.151 96.4155 244.262C96.6587 245.001 97.0637 245.677 97.6011 246.24L94.6371 244.53L94.5972 244.501C94.5802 244.482 94.5649 244.461 94.5516 244.439V244.405C94.5273 244.363 94.5064 244.319 94.4889 244.273C94.4889 244.228 94.4889 244.177 94.4433 244.125L94.4091 243.949C94.4091 243.914 94.4091 243.88 94.4091 243.846C94.4091 243.812 94.4091 243.789 94.4091 243.76C94.4091 243.732 94.4091 243.629 94.4091 243.561V239.748C94.4092 239.357 94.4827 238.971 94.6257 238.608L117.534 251.837Z" fill="black"/>
<path d="M117.323 253H117.836C117.824 252.605 117.91 252.213 118.087 251.86C118.207 251.955 118.356 252.005 118.509 252.003C118.736 251.991 118.956 251.92 119.147 251.797C119.381 251.668 119.585 251.492 119.746 251.279C119.745 251.264 119.745 251.248 119.746 251.233C119.837 251.102 119.89 250.948 119.9 250.789L133.494 242.945L133.95 242.677L134.52 242.335C134.57 242.312 134.613 242.275 134.645 242.229C134.676 242.183 134.694 242.129 134.697 242.073V241.469C134.695 241.526 134.677 241.582 134.646 241.63C134.615 241.678 134.571 241.717 134.52 241.743L132.964 242.638L119.86 250.23C119.615 250.372 119.415 250.549 119.415 250.629V250.8C119.402 250.892 119.36 250.978 119.295 251.045C119.183 251.182 119.045 251.296 118.891 251.381C118.6 251.552 118.366 251.558 118.366 251.381V251.245C118.366 251.165 118.252 251.165 118.104 251.245L117.842 251.398C117.557 251.575 117.323 252.288 117.323 253Z" fill="#37474F"/>
<path d="M117.836 253V256.808C117.836 256.865 117.836 256.916 117.836 256.967V257.098C117.887 256.89 117.983 256.696 118.117 256.528C118.25 256.361 118.419 256.225 118.611 256.129C118.8 256.012 119.016 255.945 119.238 255.936C119.408 255.933 119.573 255.994 119.7 256.107L119.746 256.078L119.837 256.027L132.981 248.434L133.733 248.001L133.95 247.876L134.588 247.505C134.63 247.479 134.664 247.443 134.688 247.4C134.712 247.357 134.724 247.309 134.725 247.26V247.864C134.724 247.91 134.711 247.955 134.688 247.995C134.665 248.035 134.633 248.068 134.594 248.092L134.36 248.229L134.218 248.315L133.961 248.463L133.808 248.548L133.694 248.617L133.505 248.731L123.08 254.79L119.746 256.711C119.512 256.853 119.318 256.899 119.301 256.831V256.671C119.301 256.5 119.067 256.5 118.777 256.671C118.67 256.717 118.576 256.789 118.505 256.881C118.433 256.972 118.385 257.081 118.366 257.195V257.361C118.369 257.396 118.363 257.432 118.351 257.466C118.338 257.499 118.318 257.53 118.292 257.554L118.212 257.6L118.047 257.691L117.842 257.811C117.806 257.841 117.76 257.858 117.714 257.858C117.667 257.858 117.621 257.841 117.585 257.811C117.567 257.793 117.552 257.771 117.54 257.748C117.539 257.737 117.539 257.725 117.54 257.714C117.514 257.676 117.495 257.633 117.483 257.589C117.464 257.54 117.449 257.491 117.437 257.44C117.422 257.382 117.411 257.323 117.403 257.264C117.397 257.228 117.397 257.191 117.403 257.155C117.403 257.127 117.403 257.104 117.403 257.07C117.403 257.036 117.403 256.939 117.403 256.87V253.063L117.836 253Z" fill="#37474F"/>
<path opacity="0.1" d="M94.5402 238.556L116.394 251.176L132.924 241.64C132.978 241.622 133.026 241.587 133.059 241.54C133.092 241.494 133.11 241.438 133.11 241.381C133.11 241.323 133.092 241.268 133.059 241.221C133.026 241.174 132.978 241.14 132.924 241.121L111.298 228.638L96.786 237.017L96.4269 237.228C96.3794 237.28 96.3495 237.346 96.3414 237.416V237.553C96.3414 237.713 96.1077 237.969 95.817 238.123H95.7714L95.2926 237.844L95.0646 237.975C95.0646 237.975 95.0646 237.975 95.0304 237.975L94.8594 238.072C94.7025 238.194 94.5903 238.364 94.5402 238.556Z" fill="black"/>
<path d="M131.67 241.731L131.009 241.384L131.579 241.241C131.641 241.304 131.683 241.385 131.7 241.472C131.716 241.56 131.706 241.65 131.67 241.731Z" fill="#9C33B0"/>
<path opacity="0.5" d="M131.67 241.731L131.009 241.384L131.579 241.241C131.641 241.304 131.683 241.385 131.7 241.472C131.716 241.56 131.706 241.65 131.67 241.731Z" fill="black"/>
<path d="M114.268 250.504C114.474 250.611 114.703 250.666 114.935 250.666C115.167 250.666 115.396 250.611 115.602 250.504L130.616 241.84L108.14 229.072L107.616 228.769L92.6079 237.228C92.5267 237.255 92.456 237.306 92.4059 237.375C92.3557 237.444 92.3287 237.528 92.3287 237.613C92.3287 237.698 92.3557 237.782 92.4059 237.851C92.456 237.92 92.5267 237.971 92.6079 237.998L114.268 250.504Z" fill="#9C33B0"/>
<path d="M119.905 234.344L125.138 237.354L128.558 235.399L132.496 237.679V240.306C132.496 240.654 132.109 241.144 131.972 241.064C131.713 241.127 131.46 241.217 131.22 241.332C130.824 241.553 130.458 241.823 130.131 242.136L118.07 235.41L119.905 234.344Z" fill="#9C33B0"/>
<path opacity="0.15" d="M119.905 234.344L125.138 237.354L128.558 235.399L132.496 237.679V240.306C132.496 240.654 132.109 241.144 131.972 241.064C131.713 241.127 131.46 241.217 131.22 241.332C130.824 241.553 130.458 241.823 130.131 242.136L118.07 235.41L119.905 234.344Z" fill="black"/>
<path d="M130.308 237.992V240.842L130.353 240.814C130.546 240.695 130.766 240.626 130.992 240.614C131.139 240.599 131.288 240.633 131.414 240.711V237.348L130.308 237.992Z" fill="#37474F"/>
<path d="M129.572 241.828C129.584 241.651 129.649 241.482 129.761 241.344C129.817 241.258 129.884 241.18 129.96 241.11L130.023 241.047L130.108 240.979L130.177 240.928L130.325 240.825V237.975L129.59 238.397V241.817L129.572 241.828Z" fill="#E0E0E0"/>
<path opacity="0.4" d="M132.468 240.306C132.468 240.654 132.08 241.144 131.944 241.064L131.414 240.722V238.551L131.944 237.639L132.229 237.542L132.468 237.679V240.306Z" fill="black"/>
<path d="M114.935 246.867V250.127C115.09 250.132 115.243 250.094 115.379 250.019L117.027 249.073L129.567 241.828V238.408L114.935 246.867Z" fill="#EBEBEB"/>
<path d="M92.9841 234.629V237.12C92.9933 237.274 93.0382 237.424 93.1154 237.557C93.1926 237.691 93.2998 237.805 93.4287 237.889L112.86 249.09L114.507 250.036C114.643 250.112 114.797 250.149 114.952 250.144V247.255L92.9841 234.629Z" fill="#F5F5F5"/>
<path d="M108.14 224.836L130.616 237.815V238.117C130.616 238.283 130.849 238.345 131.14 238.174C131.431 238.003 131.664 237.804 131.664 237.513V237.228L108.796 224.01L108.699 223.953C108.677 223.997 108.665 224.046 108.665 224.095V224.232C108.665 224.403 108.431 224.671 108.14 224.836Z" fill="#9C33B0"/>
<path opacity="0.1" d="M108.14 224.836L130.616 237.815V238.117C130.616 238.283 130.849 238.345 131.14 238.174C131.431 238.003 131.664 237.804 131.664 237.513V237.228L108.796 224.01L108.699 223.953C108.677 223.997 108.665 224.046 108.665 224.095V224.232C108.665 224.403 108.431 224.671 108.14 224.836Z" fill="black"/>
<path d="M115.602 246.485L130.285 238.009C130.467 237.907 130.638 237.832 130.712 237.867L130.616 237.815L108.14 224.837L107.878 224.688C107.76 224.652 107.635 224.642 107.513 224.66C107.391 224.678 107.274 224.722 107.171 224.791L92.6079 233.204C92.5267 233.231 92.456 233.282 92.4059 233.351C92.3557 233.42 92.3287 233.503 92.3287 233.589C92.3287 233.674 92.3557 233.757 92.4059 233.827C92.456 233.896 92.5267 233.947 92.6079 233.974L114.268 246.479C114.474 246.586 114.702 246.642 114.934 246.643C115.166 246.644 115.395 246.59 115.602 246.485Z" fill="#9C33B0"/>
<path d="M108.699 223.953L108.796 224.01L131.67 237.228C131.68 237.204 131.695 237.182 131.716 237.166L131.795 237.12L131.961 237.029L132.16 236.909C132.197 236.878 132.243 236.862 132.291 236.862C132.339 236.862 132.386 236.878 132.422 236.909C132.452 236.938 132.477 236.97 132.497 237.006C132.519 237.046 132.538 237.088 132.554 237.131C132.572 237.18 132.587 237.229 132.599 237.28L132.633 237.456C132.636 237.492 132.636 237.529 132.633 237.565C132.633 237.593 132.633 237.616 132.633 237.65C132.633 237.684 132.633 237.781 132.633 237.85V237.205C132.609 236.994 132.536 236.791 132.42 236.612C132.304 236.433 132.149 236.283 131.966 236.174L110.306 223.668C110.128 223.563 109.927 223.501 109.721 223.486C109.514 223.472 109.307 223.504 109.115 223.582L108.842 223.742L108.722 223.81C108.699 223.854 108.691 223.904 108.699 223.953Z" fill="#9C33B0"/>
<path d="M115.602 250.504L116.508 249.979L130.103 242.136C130.113 241.958 130.177 241.787 130.285 241.646C130.439 241.437 130.632 241.26 130.855 241.127C131.048 241.003 131.27 240.933 131.499 240.922C131.652 240.919 131.801 240.97 131.921 241.064C132.098 240.711 132.184 240.319 132.172 239.924H132.685C132.685 240.637 132.451 241.349 132.16 241.515L131.904 241.669C131.756 241.748 131.642 241.754 131.642 241.669V241.532C131.642 241.378 131.408 241.384 131.117 241.532C130.826 241.68 130.593 241.959 130.593 242.102V242.239C130.593 242.318 130.393 242.495 130.148 242.638L117.004 250.23L115.579 251.051C115.373 251.157 115.144 251.212 114.912 251.21V250.612C115.147 250.637 115.385 250.6 115.602 250.504Z" fill="#9C33B0"/>
<path opacity="0.3" d="M115.602 250.504L116.508 249.979L130.103 242.136C130.113 241.958 130.177 241.787 130.285 241.646C130.439 241.437 130.632 241.26 130.855 241.127C131.048 241.003 131.27 240.933 131.499 240.922C131.652 240.919 131.801 240.97 131.921 241.064C132.098 240.711 132.184 240.319 132.172 239.924H132.685C132.685 240.637 132.451 241.349 132.16 241.515L131.904 241.669C131.756 241.748 131.642 241.754 131.642 241.669V241.532C131.642 241.378 131.408 241.384 131.117 241.532C130.826 241.68 130.593 241.959 130.593 242.102V242.239C130.593 242.318 130.393 242.495 130.148 242.638L117.004 250.23L115.579 251.051C115.373 251.157 115.144 251.212 114.912 251.21V250.612C115.147 250.637 115.385 250.6 115.602 250.504Z" fill="black"/>
<path d="M115.596 246.485L116.502 245.955L126.945 239.93L130.279 238.009C130.513 237.867 130.707 237.821 130.718 237.889V238.049C130.718 238.22 130.952 238.22 131.237 238.049C131.345 238.004 131.44 237.932 131.513 237.841C131.586 237.749 131.634 237.64 131.653 237.525V237.359C131.65 237.324 131.656 237.288 131.668 237.254C131.681 237.221 131.701 237.19 131.727 237.166L131.807 237.12L131.972 237.029L132.172 236.909C132.208 236.878 132.255 236.862 132.303 236.862C132.351 236.862 132.397 236.878 132.434 236.909C132.454 236.927 132.471 236.948 132.485 236.972V237.006C132.508 237.046 132.527 237.088 132.542 237.131C132.561 237.18 132.576 237.229 132.588 237.28L132.622 237.456C132.625 237.492 132.625 237.529 132.622 237.565C132.622 237.593 132.622 237.616 132.622 237.65C132.622 237.684 132.622 237.781 132.622 237.85V239.89H132.109V237.85C132.109 237.793 132.109 237.741 132.109 237.69V237.559C132.057 237.767 131.961 237.961 131.828 238.128C131.694 238.296 131.525 238.432 131.334 238.528C131.145 238.645 130.929 238.712 130.707 238.722C130.537 238.725 130.372 238.663 130.245 238.551L130.199 238.579L130.108 238.63L117.027 246.24L115.602 247.061C115.399 247.166 115.174 247.219 114.946 247.215V246.645C115.173 246.646 115.396 246.591 115.596 246.485Z" fill="#9C33B0"/>
<path opacity="0.3" d="M115.596 246.485L116.502 245.955L126.945 239.93L130.279 238.009C130.513 237.867 130.707 237.821 130.718 237.889V238.049C130.718 238.22 130.952 238.22 131.237 238.049C131.345 238.004 131.44 237.932 131.513 237.841C131.586 237.749 131.634 237.64 131.653 237.525V237.359C131.65 237.324 131.656 237.288 131.668 237.254C131.681 237.221 131.701 237.19 131.727 237.166L131.807 237.12L131.972 237.029L132.172 236.909C132.208 236.878 132.255 236.862 132.303 236.862C132.351 236.862 132.397 236.878 132.434 236.909C132.454 236.927 132.471 236.948 132.485 236.972V237.006C132.508 237.046 132.527 237.088 132.542 237.131C132.561 237.18 132.576 237.229 132.588 237.28L132.622 237.456C132.625 237.492 132.625 237.529 132.622 237.565C132.622 237.593 132.622 237.616 132.622 237.65C132.622 237.684 132.622 237.781 132.622 237.85V239.89H132.109V237.85C132.109 237.793 132.109 237.741 132.109 237.69V237.559C132.057 237.767 131.961 237.961 131.828 238.128C131.694 238.296 131.525 238.432 131.334 238.528C131.145 238.645 130.929 238.712 130.707 238.722C130.537 238.725 130.372 238.663 130.245 238.551L130.199 238.579L130.108 238.63L117.027 246.24L115.602 247.061C115.399 247.166 115.174 247.219 114.946 247.215V246.645C115.173 246.646 115.396 246.591 115.596 246.485Z" fill="black"/>
<path d="M92.34 233.58V234.184C92.3468 234.266 92.3751 234.345 92.4222 234.412C92.4693 234.479 92.5334 234.532 92.6079 234.566L112.86 246.24L114.285 247.061C114.491 247.167 114.72 247.222 114.952 247.22V246.65C114.72 246.656 114.49 246.601 114.285 246.491L113.379 245.966L92.625 233.996C92.5414 233.963 92.4696 233.906 92.4188 233.832C92.368 233.758 92.3406 233.67 92.34 233.58Z" fill="#9C33B0"/>
<path opacity="0.2" d="M92.34 233.58V234.184C92.3468 234.266 92.3751 234.345 92.4222 234.412C92.4693 234.479 92.5334 234.532 92.6079 234.566L112.86 246.24L114.285 247.061C114.491 247.167 114.72 247.222 114.952 247.22V246.65C114.72 246.656 114.49 246.601 114.285 246.491L113.379 245.966L92.625 233.996C92.5414 233.963 92.4696 233.906 92.4188 233.832C92.368 233.758 92.3406 233.67 92.34 233.58Z" fill="black"/>
<path d="M92.34 237.604V238.209C92.3479 238.29 92.3767 238.368 92.4236 238.435C92.4706 238.502 92.5341 238.555 92.6079 238.591L112.843 250.276L114.268 251.096C114.474 251.203 114.703 251.258 114.935 251.256V250.657C114.702 250.663 114.473 250.608 114.268 250.498L113.362 249.979L92.6079 238.009C92.5301 237.973 92.4638 237.916 92.4165 237.845C92.3692 237.773 92.3427 237.69 92.34 237.604Z" fill="#9C33B0"/>
<path opacity="0.2" d="M92.34 237.604V238.209C92.3479 238.29 92.3767 238.368 92.4236 238.435C92.4706 238.502 92.5341 238.555 92.6079 238.591L112.843 250.276L114.268 251.096C114.474 251.203 114.703 251.258 114.935 251.256V250.657C114.702 250.663 114.473 250.608 114.268 250.498L113.362 249.979L92.6079 238.009C92.5301 237.973 92.4638 237.916 92.4165 237.845C92.3692 237.773 92.3427 237.69 92.34 237.604Z" fill="black"/>
<path d="M113.379 25.08L97.7037 34.1145C97.5212 34.2328 97.3693 34.3926 97.2603 34.5808C97.1513 34.769 97.0884 34.9803 97.0767 35.1975V53.181C97.0884 53.3974 97.1514 53.6079 97.2604 53.7952C97.3694 53.9825 97.5213 54.1412 97.7037 54.2583L99.9495 55.518C100.144 55.6149 100.359 55.6653 100.576 55.6653C100.794 55.6653 101.009 55.6149 101.203 55.518L116.884 46.4892C117.066 46.3702 117.218 46.2103 117.326 46.0222C117.435 45.8341 117.499 45.6232 117.511 45.4062V27.417C117.499 27.2 117.436 26.989 117.326 26.8015C117.216 26.6141 117.062 26.4558 116.878 26.3397L114.633 25.08C114.438 24.9831 114.223 24.9327 114.006 24.9327C113.788 24.9327 113.574 24.9831 113.379 25.08Z" fill="#9C33B0"/>
<path d="M100.582 55.1475V37.1754C100.594 36.9581 100.656 36.7465 100.764 36.5574C100.872 36.3684 101.022 36.2072 101.204 36.0867L116.884 27.0579C117.226 26.8584 117.511 27.018 117.511 27.417V45.3948C117.499 45.6118 117.435 45.8227 117.326 46.0108C117.218 46.1989 117.066 46.3588 116.884 46.4778L101.204 55.5066C100.89 55.7061 100.582 55.5465 100.582 55.1475Z" fill="#9C33B0"/>
<path opacity="0.2" d="M101.203 55.5066C101.008 55.6022 100.794 55.6519 100.576 55.6519C100.359 55.6519 100.145 55.6022 99.9495 55.5066L97.7037 54.2469C97.5216 54.1295 97.3699 53.9707 97.261 53.7834C97.152 53.5962 97.0889 53.3859 97.0767 53.1696V35.2032C97.0874 34.9768 97.1561 34.757 97.2762 34.5648L100.765 36.5598C100.649 36.745 100.584 36.9573 100.576 37.1754V55.1475C100.582 55.5123 100.839 55.7232 101.203 55.5066Z" fill="black"/>
<path opacity="0.4" d="M117.5 27.303C117.448 26.9895 117.192 26.8755 116.878 27.0579L101.209 36.0867C101.023 36.2033 100.869 36.3663 100.765 36.5598L97.2705 34.5648C97.3767 34.3836 97.5253 34.2311 97.7037 34.1202L113.379 25.08C113.574 24.983 113.79 24.9326 114.009 24.9326C114.227 24.9326 114.443 24.983 114.638 25.08L116.878 26.3397C117.045 26.4469 117.186 26.5883 117.293 26.7544C117.4 26.9205 117.471 27.1075 117.5 27.303Z" fill="white"/>
<path d="M97.0767 41.3649L92.0379 46.4949C91.9827 46.555 91.9411 46.6262 91.9159 46.7038C91.8906 46.7814 91.8823 46.8634 91.8915 46.9445C91.9007 47.0255 91.9271 47.1037 91.9691 47.1736C92.0111 47.2435 92.0676 47.3037 92.1348 47.3499C92.2374 47.4183 95.6232 49.3563 95.6232 49.3563L100.582 43.3884L97.0767 41.3649Z" fill="#9C33B0"/>
<path opacity="0.1" d="M97.0767 41.3649L92.0379 46.4949C91.9827 46.555 91.9411 46.6262 91.9159 46.7038C91.8906 46.7814 91.8823 46.8634 91.8915 46.9445C91.9007 47.0255 91.9271 47.1037 91.9691 47.1736C92.0111 47.2435 92.0676 47.3037 92.1348 47.3499C92.2374 47.4183 95.6232 49.3563 95.6232 49.3563L100.582 43.3884L97.0767 41.3649Z" fill="black"/>
<path d="M100.582 43.3827L95.5434 48.5127C95.4718 48.5982 95.4268 48.7029 95.4141 48.8137C95.4014 48.9245 95.4215 49.0365 95.4718 49.1361C95.5222 49.2356 95.6006 49.3181 95.6974 49.3735C95.7943 49.4288 95.9052 49.4546 96.0165 49.4475L100.576 48.792C101.067 48.7863 101.067 43.3827 100.582 43.3827Z" fill="#9C33B0"/>
<path d="M114.399 36.48C114.401 36.3735 114.376 36.2682 114.325 36.1743C114.275 36.0803 114.201 36.001 114.112 35.9437C114.022 35.8865 113.919 35.8533 113.812 35.8474C113.706 35.8415 113.6 35.863 113.504 35.91C113.587 35.6072 113.632 35.2949 113.635 34.9809C113.635 34.4109 113.151 34.0974 112.455 34.5021L107.126 37.5687V44.5341C107.698 45.1595 108.233 45.8181 108.727 46.5063C108.796 47.339 108.796 48.1759 108.727 49.0086C108.727 49.2651 109.6 48.8889 110.152 47.9769C110.292 47.7584 110.398 47.5201 110.466 47.2701C110.617 46.7886 110.724 46.2945 110.785 45.7938C110.872 45.1752 110.836 44.5455 110.677 43.9413L113.897 42.0774C114.157 41.9248 114.371 41.7066 114.519 41.4447C114.722 41.1183 114.84 40.7458 114.861 40.3617C114.861 39.7347 114.513 39.5865 114.342 39.5751C114.727 39.2145 114.954 38.7169 114.975 38.19C114.975 37.6998 114.678 37.3464 114.188 37.5117C114.335 37.188 114.407 36.8354 114.399 36.48Z" fill="#FAFAFA"/>
<path d="M104.031 46.2156V38.7087C104.035 38.6182 104.062 38.5302 104.107 38.4518C104.153 38.3735 104.217 38.3072 104.293 38.2584L106.088 37.221C106.231 37.1355 106.351 37.221 106.351 37.3692V44.8647C106.346 44.9552 106.32 45.0433 106.274 45.1216C106.228 45.1999 106.165 45.2662 106.088 45.315L104.31 46.3638C104.15 46.4493 104.031 46.3809 104.031 46.2156Z" fill="#FAFAFA"/>
<path d="M258.033 37.2837C258.033 30.9225 254.163 23.5239 249.386 20.7537C247.198 19.4883 245.185 19.3971 243.686 20.3091L239.97 22.5207L241.64 26.0319C241.64 26.2941 241.612 26.5563 241.612 26.8356C241.612 32.946 245.18 40.0026 249.694 42.9951L251.336 46.4493L255.018 44.3061C256.853 43.263 258.033 40.8006 258.033 37.2837Z" fill="#9C33B0"/>
<path opacity="0.15" d="M258.033 37.2837C258.033 30.9225 254.163 23.5239 249.386 20.7537C247.198 19.4883 245.185 19.3971 243.686 20.3091L239.97 22.5207L241.64 26.0319C241.64 26.2941 241.612 26.5563 241.612 26.8356C241.612 32.946 245.18 40.0026 249.694 42.9951L251.336 46.4493L255.018 44.3061C256.853 43.263 258.033 40.8006 258.033 37.2837Z" fill="black"/>
<path d="M236.977 29.4804C236.977 35.8587 240.853 43.2687 245.636 46.0104C250.418 48.7521 254.3 45.8451 254.3 39.4611C254.3 33.0771 250.424 25.6728 245.636 22.9311C240.848 20.1894 236.977 23.0964 236.977 29.4804Z" fill="#9C33B0"/>
<path d="M251.552 38.6403C251.629 40.1245 251.188 41.5893 250.304 42.7842C249.221 44.0895 247.534 44.403 245.641 43.3086C243.749 42.2142 242.056 39.9342 240.967 37.3863C240.191 35.6258 239.769 33.7296 239.725 31.806L251.552 38.6403Z" fill="#455A64"/>
<path d="M250.304 42.7842C249.221 44.0895 247.534 44.403 245.642 43.3086C243.749 42.2142 242.056 39.9342 240.967 37.3863C242.182 36.5142 243.818 36.5028 245.642 37.5459C247.466 38.589 249.09 40.4985 250.304 42.7842Z" fill="#F28F8F"/>
<path d="M251.131 35.91C251.003 35.9106 250.88 35.8615 250.789 35.7732L247.705 32.8548C247.636 32.7881 247.587 32.703 247.565 32.6095C247.543 32.516 247.548 32.4181 247.58 32.3275C247.611 32.2368 247.669 32.1572 247.744 32.0981C247.82 32.039 247.911 32.0029 248.007 31.9941L250.384 31.7832C250.452 31.773 250.521 31.7768 250.587 31.7944C250.653 31.812 250.715 31.843 250.769 31.8854C250.823 31.9279 250.868 31.981 250.9 32.0413C250.933 32.1017 250.952 32.1681 250.958 32.2364C250.964 32.3047 250.956 32.3735 250.934 32.4385C250.912 32.5035 250.877 32.5634 250.832 32.6144C250.786 32.6654 250.73 32.7065 250.668 32.7351C250.605 32.7637 250.538 32.7792 250.469 32.7807L249.198 32.8947L251.478 35.0436C251.572 35.1376 251.624 35.2646 251.624 35.397C251.624 35.5294 251.572 35.6564 251.478 35.7504C251.434 35.799 251.38 35.8381 251.321 35.8655C251.261 35.8929 251.196 35.9081 251.131 35.91Z" fill="#455A64"/>
<path d="M243.333 30.2784H243.23L240.152 29.64C240.029 29.6068 239.922 29.5274 239.855 29.4182C239.788 29.309 239.765 29.1782 239.791 29.0528C239.818 28.9273 239.891 28.8166 239.996 28.7435C240.102 28.6704 240.231 28.6404 240.358 28.6596L242.068 29.0187L240.563 27.1491C240.489 27.0448 240.457 26.9162 240.475 26.7895C240.493 26.6627 240.558 26.5476 240.658 26.4675C240.757 26.3874 240.884 26.3484 241.012 26.3586C241.139 26.3687 241.258 26.4272 241.344 26.5221L243.721 29.4804C243.778 29.5544 243.814 29.6429 243.823 29.7361C243.833 29.8292 243.817 29.9232 243.776 30.0074C243.735 30.0917 243.671 30.1628 243.592 30.2127C243.513 30.2626 243.421 30.2893 243.327 30.2898L243.333 30.2784Z" fill="#455A64"/>
<path d="M239.218 38.2299C238.951 39.0057 238.518 39.7138 237.949 40.3045C237.38 40.8953 236.688 41.3545 235.923 41.6499C235.834 41.6856 235.758 41.7479 235.706 41.8282C235.653 41.9085 235.627 42.0029 235.63 42.0988C235.633 42.1946 235.666 42.2871 235.723 42.3639C235.781 42.4406 235.86 42.4978 235.952 42.5277C237.043 42.8859 238.209 42.9565 239.337 42.7329C240.464 42.5092 241.514 41.9988 242.387 41.2509L239.218 38.2299Z" fill="#9C33B0"/>
<path d="M112.82 108.42C112.83 108.168 112.761 107.92 112.622 107.71C112.482 107.5 112.281 107.34 112.045 107.251C112.202 107.053 112.315 106.824 112.375 106.579C112.507 106.094 112.085 105.467 111.304 105.268L105.347 103.74L103.848 109.577C103.848 109.577 104.954 112.085 105.017 112.467C105.079 112.849 104.549 114.285 104.481 114.559C104.413 114.832 105.376 115.129 106.123 114.798C106.304 114.721 106.462 114.599 106.584 114.445C106.844 114.146 107.059 113.812 107.223 113.453C107.447 112.936 107.547 112.374 107.513 111.811L111.116 112.735C111.365 112.806 111.632 112.786 111.868 112.678C112.005 112.618 112.127 112.528 112.225 112.416C112.324 112.304 112.397 112.171 112.438 112.028C112.483 111.836 112.474 111.636 112.412 111.449C112.351 111.262 112.24 111.096 112.09 110.968C112.301 110.976 112.508 110.913 112.678 110.789C112.847 110.665 112.97 110.487 113.025 110.284C113.072 110.045 113.035 109.797 112.92 109.583C112.804 109.369 112.618 109.201 112.393 109.109C112.615 108.94 112.767 108.694 112.82 108.42Z" fill="#F0F0F0"/>
<path d="M100.417 108.602L102.03 102.332C102.055 102.261 102.106 102.203 102.173 102.169C102.24 102.135 102.317 102.128 102.389 102.15L104.401 102.663C104.475 102.677 104.541 102.719 104.583 102.781C104.626 102.843 104.643 102.919 104.629 102.993L103.022 109.263C102.997 109.334 102.946 109.392 102.878 109.425C102.811 109.458 102.734 109.464 102.663 109.44L100.645 108.933C100.608 108.927 100.573 108.913 100.541 108.893C100.509 108.873 100.482 108.847 100.461 108.816C100.44 108.785 100.425 108.75 100.417 108.713C100.41 108.677 100.41 108.639 100.417 108.602Z" fill="#F0F0F0"/>
<path d="M36.6909 54.8568C36.74 54.6128 36.7114 54.3595 36.6092 54.1325C36.507 53.9056 36.3362 53.7163 36.1209 53.5914C36.3022 53.4151 36.4457 53.2037 36.5427 52.9701C36.7422 52.5084 36.4116 51.8301 35.6649 51.5166L29.9649 49.1568L27.6507 54.72C27.6507 54.72 28.386 57.3591 28.3917 57.7467C28.3974 58.1343 27.6735 59.4567 27.5652 59.7417C27.4569 60.0267 28.3689 60.4371 29.1555 60.2148C29.3445 60.1607 29.5183 60.0631 29.6628 59.9298C29.9612 59.6724 30.2204 59.3728 30.4323 59.0406C30.733 58.5627 30.9129 58.0189 30.9567 57.456L34.3767 58.881C34.6142 58.991 34.8835 59.0112 35.1348 58.938C35.2781 58.8947 35.4106 58.8215 35.5236 58.7232C35.6366 58.625 35.7275 58.5039 35.7903 58.368C35.8623 58.1845 35.8823 57.9848 35.8481 57.7907C35.8139 57.5966 35.7268 57.4157 35.5965 57.2679C35.8069 57.3044 36.0234 57.2677 36.2101 57.164C36.3968 57.0603 36.5423 56.8958 36.6225 56.6979C36.7041 56.4687 36.7026 56.2181 36.6182 55.9899C36.5338 55.7618 36.3719 55.5705 36.1608 55.4496C36.4029 55.322 36.5911 55.1116 36.6909 54.8568Z" fill="#F0F0F0"/>
<path d="M24.3903 53.2665L26.8926 47.2701C26.9279 47.204 26.9872 47.1541 27.0584 47.1308C27.1295 47.1074 27.207 47.1124 27.2745 47.1447L29.1897 47.937C29.2604 47.9616 29.3186 48.0131 29.3517 48.0803C29.3848 48.1475 29.39 48.225 29.3664 48.2961L26.8755 54.2868C26.8598 54.3204 26.8374 54.3504 26.8096 54.3751C26.7819 54.3997 26.7495 54.4185 26.7143 54.4302C26.6791 54.4419 26.6419 54.4464 26.605 54.4433C26.568 54.4402 26.5321 54.4296 26.4993 54.4122L24.5727 53.6199C24.5374 53.6089 24.5046 53.591 24.4763 53.5672C24.4479 53.5434 24.4246 53.5142 24.4076 53.4813C24.3906 53.4485 24.3804 53.4125 24.3774 53.3756C24.3744 53.3388 24.3788 53.3017 24.3903 53.2665Z" fill="#F0F0F0"/>
<path d="M163.054 72.0651C163.004 71.821 163.032 71.5674 163.135 71.3403C163.237 71.1131 163.408 70.924 163.624 70.7997C163.445 70.6219 163.301 70.4109 163.202 70.1784C163.003 69.711 163.333 69.0384 164.08 68.7249C164.827 68.4114 169.78 66.3594 169.78 66.3594L172.1 71.9226C172.1 71.9226 171.365 74.5617 171.359 74.9436C171.353 75.3255 172.077 76.6821 172.186 76.9386C172.294 77.1951 171.382 77.6397 170.595 77.4117C170.408 77.3574 170.234 77.262 170.088 77.1324C169.791 76.8702 169.53 76.5692 169.313 76.2375C169.014 75.7613 168.836 75.2193 168.794 74.6586L165.374 76.0836C165.136 76.1917 164.867 76.2099 164.616 76.1349C164.472 76.0926 164.339 76.0198 164.226 75.9214C164.113 75.823 164.022 75.7015 163.961 75.5649C163.889 75.3815 163.869 75.1817 163.903 74.9876C163.937 74.7935 164.024 74.6126 164.154 74.4648C163.944 74.5013 163.727 74.4646 163.541 74.3609C163.354 74.2572 163.208 74.0927 163.128 73.8948C163.047 73.6656 163.048 73.415 163.133 73.1869C163.217 72.9587 163.379 72.7674 163.59 72.6465C163.348 72.5228 163.158 72.3166 163.054 72.0651Z" fill="#F0F0F0"/>
<path d="M175.355 70.4691L172.853 64.4727C172.817 64.4066 172.758 64.3567 172.687 64.3334C172.616 64.31 172.538 64.315 172.471 64.3473L170.555 65.1453C170.521 65.1569 170.488 65.1752 170.461 65.1993C170.433 65.2233 170.41 65.2526 170.394 65.2854C170.377 65.3182 170.368 65.3539 170.365 65.3905C170.362 65.4271 170.367 65.4639 170.379 65.4987L172.87 71.4951C172.904 71.5608 172.962 71.6106 173.032 71.634C173.103 71.6574 173.179 71.6525 173.246 71.6205L175.172 70.8282C175.244 70.8047 175.304 70.7537 175.338 70.6864C175.372 70.6191 175.378 70.5409 175.355 70.4691Z" fill="#F0F0F0"/>
<path d="M261.094 85.1751C261.199 84.9471 261.374 84.7581 261.593 84.6353C261.812 84.5124 262.065 84.462 262.314 84.4911C262.263 84.2429 262.263 83.9869 262.314 83.7387C262.422 83.2428 263.084 82.878 263.87 83.0604L269.867 84.4113L268.544 90.288C268.544 90.288 266.412 91.998 266.184 92.3286C265.956 92.6592 265.768 94.164 265.711 94.4376C265.654 94.7112 264.651 94.5402 264.138 93.8676C264.013 93.7178 263.927 93.5397 263.887 93.3489C263.796 92.9646 263.757 92.5695 263.773 92.1747C263.805 91.6127 263.974 91.067 264.263 90.5844L260.638 89.7579C260.38 89.7116 260.149 89.5715 259.988 89.3646C259.895 89.2494 259.828 89.1153 259.792 88.9716C259.755 88.828 259.75 88.6781 259.778 88.5324C259.824 88.3409 259.923 88.1659 260.062 88.0271C260.202 87.8882 260.378 87.7908 260.57 87.7458C260.378 87.6563 260.222 87.5044 260.128 87.3149C260.034 87.1255 260.007 86.9096 260.051 86.7027C260.119 86.4692 260.266 86.2665 260.466 86.1293C260.667 85.9921 260.909 85.9288 261.151 85.9503C261.042 85.7066 261.022 85.4322 261.094 85.1751Z" fill="#F0F0F0"/>
<path d="M272.05 90.9948L273.475 84.6564C273.486 84.5824 273.468 84.5069 273.424 84.4461C273.381 84.3853 273.315 84.3441 273.241 84.3315L271.217 83.8755C271.182 83.8642 271.145 83.8601 271.108 83.8635C271.072 83.8669 271.036 83.8777 271.003 83.8953C270.971 83.9129 270.942 83.9369 270.919 83.9658C270.896 83.9947 270.879 84.028 270.87 84.0636L269.433 90.3906C269.428 90.4269 269.429 90.464 269.438 90.4997C269.447 90.5354 269.462 90.5691 269.484 90.5987C269.506 90.6284 269.533 90.6535 269.564 90.6725C269.596 90.6916 269.631 90.7043 269.667 90.7098L271.696 91.1772C271.731 91.1887 271.768 91.1931 271.805 91.1901C271.842 91.1872 271.878 91.1769 271.911 91.1599C271.944 91.1429 271.973 91.1196 271.997 91.0913C272.021 91.0629 272.039 91.0301 272.05 90.9948Z" fill="#F0F0F0"/>
<path d="M71.1291 229.41C72.6802 237.438 70.5904 247.632 70.5904 247.632L72.319 246.644C73.5622 235.39 71.1291 229.41 71.1291 229.41Z" fill="#77B033"/>
<path opacity="0.15" d="M71.1291 229.41C72.6802 237.438 70.5904 247.632 70.5904 247.632L72.319 246.644C73.5622 235.39 71.1291 229.41 71.1291 229.41Z" fill="black"/>
<path opacity="0.15" d="M71.4843 247.046V247.129L72.3368 246.644C73.58 235.396 71.1528 229.41 71.1528 229.41C72.473 233.3 72.3664 242.671 71.4843 247.046Z" fill="black"/>
<path d="M70.5904 247.632C70.5904 247.632 69.8978 240.356 67.1686 234.087C64.4395 227.818 61 225 61 225C61 225 65.2151 226.936 68.6546 233.679C70.7001 237.656 72.1179 241.925 72.8578 246.336L70.5904 247.632Z" fill="#77B033"/>
<path opacity="0.1" d="M71.7803 246.951L72.8578 246.359C72.1179 241.949 70.7001 237.679 68.6546 233.702C65.2151 226.96 61 225.024 61 225.024C65.1085 227.658 70.5667 236.355 71.7803 246.951Z" fill="black"/>
<path d="M70.5904 247.632C70.5904 247.632 69.4064 241.653 61.9886 236.651C61.9886 236.651 69.0038 239.374 72.319 246.644L70.5904 247.632Z" fill="#77B033"/>
<path opacity="0.1" d="M71.4843 247.046V247.105L72.2953 246.643C68.9802 239.374 61.965 236.651 61.965 236.651C65.4459 238.652 69.6254 242.055 71.4843 247.046Z" fill="black"/>
<path d="M211.52 228.398C211.717 239.589 217.329 252.682 217.329 252.682L214.769 251.833C209.979 237.085 211.52 228.398 211.52 228.398Z" fill="#77B033"/>
<path opacity="0.15" d="M211.52 228.398C211.717 239.589 217.329 252.682 217.329 252.682L214.769 251.833C209.979 237.085 211.52 228.398 211.52 228.398Z" fill="black"/>
<path opacity="0.15" d="M215.984 252.143L216.007 252.254L214.745 251.838C209.957 237.098 211.489 228.404 211.489 228.404C210.833 233.983 213.595 246.52 215.984 252.143Z" fill="black"/>
<path d="M217.329 252.682C217.329 252.682 216.209 242.736 218.06 233.577C219.911 224.419 223.666 219.693 223.666 219.693C223.666 219.693 218.64 223.45 215.983 233.439C214.393 239.335 213.715 245.451 213.971 251.569L217.329 252.682Z" fill="#77B033"/>
<path opacity="0.1" d="M215.567 252.097L213.978 251.6C213.721 245.483 214.4 239.367 215.989 233.471C218.647 223.482 223.673 219.725 223.673 219.725C218.983 224.389 214.206 237.554 215.567 252.097Z" fill="black"/>
<path d="M217.329 252.682C217.329 252.682 217.22 244.339 225.619 235.587C225.619 235.587 217.114 241.172 214.769 251.833L217.329 252.682Z" fill="#77B033"/>
<path opacity="0.1" d="M215.984 252.143L216.001 252.222L214.8 251.826C217.146 241.165 225.65 235.581 225.65 235.581C221.612 239.223 217.043 244.939 215.984 252.143Z" fill="black"/>
<path d="M253.312 156.508C252.135 162.892 253.721 171 253.721 171L252.409 170.214C251.465 161.263 253.312 156.508 253.312 156.508Z" fill="#77B033"/>
<path opacity="0.15" d="M253.312 156.508C252.135 162.892 253.721 171 253.721 171L252.409 170.214C251.465 161.263 253.312 156.508 253.312 156.508Z" fill="black"/>
<path opacity="0.15" d="M253.042 170.534V170.6L252.395 170.214C251.452 161.268 253.294 156.508 253.294 156.508C252.292 159.601 252.373 167.054 253.042 170.534Z" fill="black"/>
<path d="M253.721 171C253.721 171 254.247 165.213 256.318 160.227C258.389 155.241 261 153 261 153C261 153 257.801 154.54 255.19 159.902C253.638 163.065 252.562 166.461 252 169.969L253.721 171Z" fill="#77B033"/>
<path opacity="0.1" d="M252.818 170.459L252 169.988C252.562 166.48 253.638 163.084 255.19 159.921C257.801 154.558 261 153.019 261 153.019C257.882 155.114 253.739 162.031 252.818 170.459Z" fill="black"/>
<path d="M253.721 171C253.721 171 254.62 166.245 260.25 162.266C260.25 162.266 254.925 164.432 252.409 170.214L253.721 171Z" fill="#77B033"/>
<path opacity="0.1" d="M253.042 170.534V170.581L252.427 170.214C254.943 164.432 260.268 162.266 260.268 162.266C257.626 163.857 254.453 166.565 253.042 170.534Z" fill="black"/>
<path d="M183.02 137.533C182.105 142.144 183.338 148 183.338 148L182.318 147.432C181.584 140.968 183.02 137.533 183.02 137.533Z" fill="#77B033"/>
<path opacity="0.15" d="M183.02 137.533C182.105 142.144 183.338 148 183.338 148L182.318 147.432C181.584 140.968 183.02 137.533 183.02 137.533Z" fill="black"/>
<path opacity="0.15" d="M182.811 147.663V147.711L182.308 147.432C181.574 140.971 183.006 137.533 183.006 137.533C182.227 139.767 182.29 145.15 182.811 147.663Z" fill="black"/>
<path d="M183.338 148C183.338 148 183.747 143.821 185.358 140.22C186.97 136.619 189 135 189 135C189 135 186.512 136.112 184.481 139.985C183.274 142.269 182.437 144.722 182 147.255L183.338 148Z" fill="#77B033"/>
<path opacity="0.1" d="M182.636 147.609L182 147.269C182.437 144.735 183.274 142.283 184.481 139.999C186.512 136.126 189 135.014 189 135.014C186.575 136.527 183.352 141.522 182.636 147.609Z" fill="black"/>
<path d="M183.339 148C183.339 148 184.037 144.566 188.416 141.692C188.416 141.692 184.275 143.256 182.318 147.432L183.339 148Z" fill="#77B033"/>
<path opacity="0.1" d="M182.811 147.663V147.697L182.332 147.432C184.289 143.256 188.43 141.692 188.43 141.692C186.375 142.841 183.908 144.797 182.811 147.663Z" fill="black"/>
<path d="M96.8338 141.313C97.8802 147.343 96.4703 155 96.4703 155L97.6366 154.257C98.4753 145.804 96.8338 141.313 96.8338 141.313Z" fill="#77B033"/>
<path opacity="0.15" d="M96.8338 141.313C97.8802 147.343 96.4703 155 96.4703 155L97.6366 154.257C98.4753 145.804 96.8338 141.313 96.8338 141.313Z" fill="black"/>
<path opacity="0.15" d="M97.0734 154.56V154.622L97.6485 154.257C98.4873 145.809 96.8497 141.313 96.8497 141.313C97.7404 144.234 97.6685 151.274 97.0734 154.56Z" fill="black"/>
<path d="M96.4703 155C96.4703 155 96.003 149.535 94.1618 144.826C92.3205 140.117 90 138 90 138C90 138 92.8437 139.454 95.1643 144.519C96.5443 147.506 97.5009 150.713 98 154.026L96.4703 155Z" fill="#77B033"/>
<path opacity="0.1" d="M97.2731 154.489L98 154.044C97.5009 150.731 96.5443 147.524 95.1643 144.537C92.8437 139.472 90 138.018 90 138.018C92.7718 139.997 96.4543 146.529 97.2731 154.489Z" fill="black"/>
<path d="M96.4703 155C96.4703 155 95.6715 150.509 90.667 146.751C90.667 146.751 95.3999 148.797 97.6365 154.257L96.4703 155Z" fill="#77B033"/>
<path opacity="0.1" d="M97.0734 154.56V154.604L97.6205 154.257C95.3839 148.797 90.651 146.751 90.651 146.751C92.9995 148.254 95.8193 150.811 97.0734 154.56Z" fill="black"/>
</svg>
