<?xml version="1.0"?>
<svg xmlns="http://www.w3.org/2000/svg" xmlns:xlink="http://www.w3.org/1999/xlink" xmlns:svgjs="http://svgjs.com/svgjs" version="1.1" width="512" height="512" x="0" y="0" viewBox="0 0 58.001 58" style="enable-background:new 0 0 512 512" xml:space="preserve" class=""><g><g xmlns="http://www.w3.org/2000/svg"><path d="m12 40h-3v-2h-4v2h-3v2h10z" fill="#5a0f68" data-original="#000000" style="" class=""/><path d="m44 11.575c3.734 3.227 6.353 7.624 7.425 12.425h2.067c-1.228-6.014-4.714-11.473-9.683-15.136.116.696.191 1.407.191 2.136z" fill="#5a0f68" data-original="#000000" style="" class=""/><path d="m14 11.573v-.573c0-.729.075-1.44.191-2.137-5.042 3.711-8.452 9.048-9.684 15.137h2.066c1.074-4.861 3.649-9.184 7.427-12.427z" fill="#5a0f68" data-original="#000000" style="" class=""/><path d="m15.659 50.012.295-.812c.123-.338.265-.664.413-.987-1.787-1.177-3.404-2.596-4.797-4.213h-2.564c1.788 2.379 3.995 4.424 6.504 6.036.051-.005.098-.021.149-.024z" fill="#5a0f68" data-original="#000000" style="" class=""/><path d="m41.763 48.111c.287.613.535 1.249.731 1.912 4.461-2.87 7.906-7.089 9.814-12.023h-2.155c-1.748 4.102-4.67 7.621-8.39 10.111z" fill="#5a0f68" data-original="#000000" style="" class=""/><path d="m25.525 36.619 2.147-1.073-3.067-1.227z" fill="#5a0f68" data-original="#000000" style="" class=""/><path d="m22.55 34.568c-1.767.909-3.066 2.611-3.402 4.625l-.148.89v4.245c2.588-2.697 6.208-4.328 10.089-4.328 3.812 0 7.347 1.561 9.911 4.139v-4.056l-.148-.89c-.336-2.015-1.635-3.716-3.402-4.625l-1.925 4.813-4.525-2.263-4.525 2.263z" fill="#5a0f68" data-original="#000000" style="" class=""/><path d="m42 18h1c.551 0 1-.448 1-1s-.449-1-1-1h-1z" fill="#5a0f68" data-original="#000000" style="" class=""/><path d="m40 13.829c0-1.058-.827-1.936-1.882-1.997l-9.712-.571c-1.722-.101-3.348-.712-4.693-1.71l-4.415 1.655c-.777.291-1.298 1.044-1.298 1.873v5.921c0 6.065 4.935 11 11 11s11-4.935 11-11zm-17 5.171c-1.105 0-2-.895-2-2s.895-2 2-2 2 .895 2 2-.895 2-2 2zm5.171 7h-2.171v-2h2.171c1.557 0 3.021-.606 4.122-1.707l1.414 1.414c-1.479 1.479-3.445 2.293-5.536 2.293zm6.829-7c-1.105 0-2-.895-2-2s.895-2 2-2 2 .895 2 2-.895 2-2 2z" fill="#5a0f68" data-original="#000000" style="" class=""/><path d="m15 18h1v-2h-1c-.551 0-1 .448-1 1s.449 1 1 1z" fill="#5a0f68" data-original="#000000" style="" class=""/><path d="m29 32c-1.197 0-2.351-.176-3.452-.48l-.301.901 3.753 1.502 3.753-1.501-.301-.901c-1.101.303-2.255.479-3.452.479z" fill="#5a0f68" data-original="#000000" style="" class=""/><path d="m42 52-1.026.042-.331-1.218c-1.417-5.195-6.168-8.824-11.554-8.824-5.017 0-9.54 3.168-11.255 7.884l-.789 2.169-.745-.045c-.004 0-.123-.008-.183-.008h-.117c-1.654 0-3 1.346-3 3s1.346 3 3 3h26c1.654 0 3-1.346 3-3s-1.346-3-3-3zm-16 0h-2v-2h2zm4 0h-2v-2h2zm4 0h-2v-2h2z" fill="#5a0f68" data-original="#000000" style="" class=""/><path d="m33.395 34.319-3.067 1.227 2.147 1.073z" fill="#5a0f68" data-original="#000000" style="" class=""/><path d="m18.595 9.333 3.518-1.318c-.387-.48-.726-1.005-1.007-1.567l1.789-.895c1.074 2.148 3.231 3.571 5.628 3.712l9.712.571c2.111.123 3.765 1.877 3.765 3.993v-2.829c0-6.065-4.935-11-11-11h-4c-6.065 0-11 4.935-11 11v2.079c0-1.658 1.043-3.163 2.595-3.746z" fill="#5a0f68" data-original="#000000" style="" class=""/><path d="m0 34h14.001v2h-14.001z" fill="#5a0f68" data-original="#000000" style="" class=""/><path d="m0 26h14v6h-14z" fill="#5a0f68" data-original="#000000" style="" class=""/><path d="m58.001 35.483-.001-9.069-4.232 4.232z" fill="#5a0f68" data-original="#000000" style="" class=""/><path d="m51 30.586 4.586-4.586h-9.172z" fill="#5a0f68" data-original="#000000" style="" class=""/><path d="m44 35.482 4.232-4.836-4.232-4.232z" fill="#5a0f68" data-original="#000000" style="" class=""/><path d="m51 33.414-1.352-1.351-3.445 3.937h9.594l-3.445-3.937z" fill="#5a0f68" data-original="#000000" style="" class=""/></g></g></svg>
