<svg width="512" height="512" viewBox="0 0 512 512" fill="none" xmlns="http://www.w3.org/2000/svg">
<path d="M105.93 353.102H79.4473V335.447H44.1376V353.102H17.6553V370.757H105.93V353.102Z" fill="#331056"/>
<path d="M388.407 102.182C421.368 130.668 444.487 169.482 453.95 211.863H472.197C461.357 158.775 430.584 110.586 386.721 78.2507C387.745 84.3946 388.407 90.6709 388.407 97.1061V102.182Z" fill="#331056"/>
<path d="M123.584 102.164V97.1062C123.584 90.671 124.246 84.3947 125.27 78.2419C80.7621 111.001 50.6606 158.113 39.7852 211.863H58.0226C67.5033 168.953 90.2339 130.792 123.584 102.164Z" fill="#331056"/>
<path d="M138.229 441.482L140.833 434.314C141.919 431.33 143.172 428.453 144.479 425.601C128.704 415.212 114.43 402.685 102.134 388.411H79.5C95.2835 409.412 114.766 427.464 136.914 441.694C137.364 441.65 137.779 441.509 138.229 441.482Z" fill="#331056"/>
<path d="M368.66 424.701C371.194 430.112 373.383 435.727 375.113 441.579C414.492 416.244 444.903 379.001 461.745 335.447H442.722C427.292 371.657 401.498 402.721 368.66 424.701Z" fill="#331056"/>
<path d="M225.32 323.256L244.273 313.784L217.199 302.953L225.32 323.256Z" fill="#331056"/>
<path d="M199.059 305.151C183.461 313.175 171.994 328.2 169.028 345.978L167.722 353.834V391.307C190.567 367.499 222.522 353.102 256.782 353.102C290.432 353.102 321.637 366.881 344.27 389.638V353.834L342.964 345.978C339.998 328.191 328.531 313.175 312.933 305.151L295.94 347.638L255.996 327.661L216.052 347.638L199.059 305.151Z" fill="#331056"/>
<path d="M370.752 158.898H379.579C384.443 158.898 388.407 154.943 388.407 150.071C388.407 145.198 384.443 141.243 379.579 141.243H370.752V158.898Z" fill="#331056"/>
<path d="M353.097 122.079C353.097 112.74 345.797 104.989 336.484 104.451L250.752 99.4101C235.551 98.5185 221.198 93.125 209.325 84.3152L170.352 98.9246C163.493 101.493 158.894 108.14 158.894 115.458V167.726C158.894 221.264 202.457 264.827 255.995 264.827C309.534 264.827 353.097 221.264 353.097 167.726V122.079ZM203.031 167.726C193.276 167.726 185.376 159.825 185.376 150.071C185.376 140.316 193.276 132.416 203.031 132.416C212.785 132.416 220.686 140.316 220.686 150.071C220.686 159.825 212.785 167.726 203.031 167.726ZM248.677 229.518H229.513V211.863H248.677C262.422 211.863 275.345 206.513 285.064 196.794L297.546 209.276C284.49 222.332 267.136 229.518 248.677 229.518ZM308.96 167.726C299.206 167.726 291.305 159.825 291.305 150.071C291.305 140.316 299.206 132.416 308.96 132.416C318.714 132.416 326.615 140.316 326.615 150.071C326.615 159.825 318.714 167.726 308.96 167.726Z" fill="#331056"/>
<path d="M132.411 158.898H141.239V141.243H132.411C127.548 141.243 123.584 145.198 123.584 150.071C123.584 154.943 127.548 158.898 132.411 158.898Z" fill="#331056"/>
<path d="M255.996 282.482C245.429 282.482 235.242 280.929 225.523 278.245L222.866 286.199L255.996 299.457L289.125 286.207L286.468 278.254C276.749 280.929 266.562 282.482 255.996 282.482Z" fill="#331056"/>
<path d="M370.752 459.031L361.695 459.402L358.774 448.65C346.265 402.791 304.326 370.757 256.781 370.757C212.494 370.757 172.568 398.722 157.429 440.352L150.464 459.499L143.887 459.102C143.852 459.102 142.802 459.031 142.272 459.031H141.239C126.639 459.031 114.757 470.913 114.757 485.513C114.757 500.114 126.639 511.996 141.239 511.996H370.752C385.353 511.996 397.235 500.114 397.235 485.513C397.235 470.913 385.353 459.031 370.752 459.031ZM229.513 459.031H211.859V441.376H229.513V459.031ZM264.823 459.031H247.168V441.376H264.823V459.031ZM300.133 459.031H282.478V441.376H300.133V459.031Z" fill="#331056"/>
<path d="M294.793 302.953L267.719 313.784L286.671 323.256L294.793 302.953Z" fill="#331056"/>
<path d="M164.146 82.3908L195.201 70.7563C191.785 66.5191 188.793 61.8847 186.312 56.9237L202.104 49.0231C211.585 67.9845 230.626 80.5459 251.785 81.7906L337.517 86.831C356.152 87.9168 370.753 103.4 370.753 122.079V97.1062C370.753 43.5678 327.189 0.00439453 273.651 0.00439453H238.341C184.803 0.00439453 141.239 43.5678 141.239 97.1062V115.458C141.239 100.823 150.446 87.5372 164.146 82.3908Z" fill="#331056"/>
<path d="M0 300.137H123.593V317.792H0V300.137Z" fill="#331056"/>
<path d="M0 229.518H123.584V282.482H0V229.518Z" fill="#331056"/>
<path d="M512 313.228L511.991 233.172L474.634 270.53L512 313.228Z" fill="#331056"/>
<path d="M450.199 270L490.682 229.518H409.717L450.199 270Z" fill="#331056"/>
<path d="M388.407 313.219L425.765 270.53L388.407 233.172V313.219Z" fill="#331056"/>
<path d="M450.199 294.964L438.264 283.038L407.854 317.792H492.544L462.133 283.038L450.199 294.964Z" fill="#331056"/>
</svg>
