<svg width="76" height="54" viewBox="0 0 76 54" fill="none" xmlns="http://www.w3.org/2000/svg">
<path d="M75.6 46.8V7.2C75.6 3.548 72.652 0.599998 69 0.599998H7.35598C3.70398 0.599998 0.755981 3.548 0.755981 7.2V46.8C0.755981 50.452 3.70398 53.4 7.35598 53.4H69C72.652 53.4 75.6 50.452 75.6 46.8ZM69.836 6.716C71.288 8.168 70.496 9.664 69.704 10.412L51.84 26.78L69 44.644C69.528 45.26 69.88 46.228 69.264 46.888C68.692 47.592 67.372 47.548 66.8 47.108L47.572 30.696L38.156 39.276L28.784 30.696L9.55598 47.108C8.98398 47.548 7.66398 47.592 7.09198 46.888C6.47598 46.228 6.82798 45.26 7.35598 44.644L24.516 26.78L6.65198 10.412C5.85998 9.664 5.06798 8.168 6.51998 6.716C7.97198 5.264 9.46798 5.968 10.7 7.024L38.156 29.2L65.656 7.024C66.888 5.968 68.384 5.264 69.836 6.716V6.716Z" fill="#5A0F68"/>
</svg>
