<svg width="76" height="54" viewBox="0 0 76 54" fill="none" xmlns="http://www.w3.org/2000/svg">
<path d="M75.5999 46.8001V7.2001C75.5999 3.5481 72.6519 0.600098 68.9999 0.600098H7.35586C3.70386 0.600098 0.755859 3.5481 0.755859 7.2001V46.8001C0.755859 50.4521 3.70386 53.4001 7.35586 53.4001H68.9999C72.6519 53.4001 75.5999 50.4521 75.5999 46.8001ZM69.8359 6.7161C71.2879 8.1681 70.4959 9.6641 69.7039 10.4121L51.8399 26.7801L68.9999 44.6441C69.5279 45.2601 69.8799 46.2281 69.2639 46.8881C68.6919 47.5921 67.3719 47.5481 66.7999 47.1081L47.5719 30.6961L38.1559 39.2761L28.7839 30.6961L9.55586 47.1081C8.98386 47.5481 7.66386 47.5921 7.09186 46.8881C6.47586 46.2281 6.82786 45.2601 7.35586 44.6441L24.5159 26.7801L6.65186 10.4121C5.85986 9.6641 5.06786 8.1681 6.51986 6.7161C7.97186 5.2641 9.46786 5.9681 10.6999 7.0241L38.1559 29.2001L65.6559 7.0241C66.8879 5.9681 68.3839 5.2641 69.8359 6.7161Z" fill="#3C3378"/>
</svg>
