<svg width="93" height="92" viewBox="0 0 93 92" fill="none" xmlns="http://www.w3.org/2000/svg">
<path d="M46.3203 92C37.2224 92 28.3287 89.3022 20.7641 84.2476C13.1994 79.1931 7.30351 72.0089 3.82188 63.6035C0.340252 55.1981 -0.570713 45.949 1.20421 37.0259C2.97913 28.1027 7.36019 19.9063 13.7934 13.4731C20.2266 7.0399 28.423 2.65882 37.3462 0.883898C46.2693 -0.891022 55.5184 0.0199311 63.9238 3.50156C72.3292 6.98319 79.5134 12.8791 84.5679 20.4438C89.6225 28.0085 92.3203 36.9021 92.3203 46C92.3045 58.1951 87.4529 69.8862 78.8297 78.5094C70.2065 87.1326 58.5154 91.9841 46.3203 92V92ZM46.3203 1.00002C37.4202 1.00002 28.7199 3.63922 21.3197 8.58389C13.9194 13.5286 8.15169 20.5566 4.74574 28.7793C1.3398 37.0019 0.448646 46.0499 2.18498 54.7791C3.92132 63.5082 8.20717 71.5265 14.5005 77.8198C20.7939 84.1132 28.8121 88.399 37.5413 90.1354C46.2704 91.8717 55.3184 90.9806 63.5411 87.5746C71.7638 84.1687 78.7918 78.4009 83.7365 71.0007C88.6811 63.6005 91.3203 54.9002 91.3203 46C91.3071 34.0693 86.5618 22.6311 78.1255 14.1948C69.6892 5.75856 58.251 1.01326 46.3203 1.00002Z" fill="#263238"/>
<path d="M46.3203 87C38.2113 87 30.2844 84.5954 23.5419 80.0903C16.7995 75.5851 11.5445 69.1818 8.44127 61.69C5.33807 54.1983 4.52614 45.9545 6.10814 38.0013C7.69013 30.0481 11.595 22.7426 17.329 17.0086C23.0629 11.2747 30.3684 7.36982 38.3216 5.78782C46.2748 4.20583 54.5186 5.01776 62.0104 8.12096C69.5021 11.2241 75.9054 16.4792 80.4106 23.2216C84.9157 29.9641 87.3203 37.891 87.3203 46C87.3203 56.8739 83.0007 67.3024 75.3117 74.9914C67.6227 82.6804 57.1942 87 46.3203 87ZM46.3203 6.00002C38.4091 6.00002 30.6755 8.34598 24.0975 12.7412C17.5195 17.1365 12.3927 23.3836 9.36516 30.6927C6.33765 38.0017 5.5455 46.0444 7.08891 53.8036C8.63232 61.5629 12.442 68.6902 18.0361 74.2843C23.6302 79.8784 30.7575 83.688 38.5167 85.2314C46.2759 86.7748 54.3186 85.9827 61.6277 82.9552C68.9367 79.9277 75.1839 74.8008 79.5791 68.2228C83.9744 61.6449 86.3203 53.9113 86.3203 46C86.3203 35.3914 82.1061 25.2172 74.6046 17.7157C67.1031 10.2143 56.929 6.00002 46.3203 6.00002V6.00002Z" fill="#263238"/>
<path d="M46.3203 48.5C47.701 48.5 48.8203 47.3807 48.8203 46C48.8203 44.6193 47.701 43.5 46.3203 43.5C44.9396 43.5 43.8203 44.6193 43.8203 46C43.8203 47.3807 44.9396 48.5 46.3203 48.5Z" fill="#263238"/>
<path d="M46.3203 49C45.727 49 45.1469 48.824 44.6536 48.4944C44.1602 48.1648 43.7757 47.6962 43.5487 47.148C43.3216 46.5999 43.2622 45.9967 43.378 45.4147C43.4937 44.8328 43.7794 44.2982 44.199 43.8787C44.6186 43.4591 45.1531 43.1734 45.735 43.0576C46.317 42.9419 46.9202 43.0013 47.4684 43.2284C48.0165 43.4554 48.4851 43.8399 48.8147 44.3333C49.1444 44.8266 49.3203 45.4067 49.3203 46C49.3203 46.7956 49.0042 47.5587 48.4416 48.1213C47.879 48.6839 47.116 49 46.3203 49ZM46.3203 44C45.9247 44 45.5381 44.1173 45.2092 44.3371C44.8803 44.5568 44.6239 44.8692 44.4726 45.2346C44.3212 45.6001 44.2816 46.0022 44.3587 46.3902C44.4359 46.7781 44.6264 47.1345 44.9061 47.4142C45.1858 47.6939 45.5422 47.8844 45.9301 47.9616C46.3181 48.0387 46.7202 47.9991 47.0857 47.8478C47.4511 47.6964 47.7635 47.44 47.9832 47.1111C48.203 46.7822 48.3203 46.3956 48.3203 46C48.3203 45.4696 48.1096 44.9609 47.7345 44.5858C47.3595 44.2107 46.8507 44 46.3203 44Z" fill="#263238"/>
<path d="M53.5406 61.6701L46.0905 46.6701L17.5005 60.6401L17.0605 59.7401L46.5506 45.3301L54.4305 61.2201L53.5406 61.6701Z" fill="#263238"/>
</svg>
