<svg width="161" height="219" viewBox="0 0 161 219" fill="none" xmlns="http://www.w3.org/2000/svg">
<path d="M160.43 218.53H1.43018C1.29757 218.53 1.17039 218.477 1.07662 218.383C0.982854 218.29 0.930176 218.163 0.930176 218.03V1.42993C0.930176 1.29732 0.982854 1.17015 1.07662 1.07638C1.17039 0.98261 1.29757 0.929932 1.43018 0.929932H160.43C160.563 0.929932 160.69 0.98261 160.784 1.07638C160.877 1.17015 160.93 1.29732 160.93 1.42993V218C160.934 218.068 160.924 218.136 160.901 218.201C160.878 218.265 160.842 218.323 160.795 218.373C160.748 218.423 160.691 218.462 160.629 218.489C160.566 218.516 160.498 218.53 160.43 218.53ZM1.91018 217.53H159.91V1.92993H1.91018V217.53Z" fill="#776DB4"/>
<path d="M149.66 209.41H12.1802C12.0484 209.407 11.9227 209.354 11.8295 209.261C11.7362 209.167 11.6827 209.042 11.6802 208.91V10.5598C11.6802 10.4272 11.7329 10.3 11.8266 10.2063C11.9204 10.1125 12.0476 10.0598 12.1802 10.0598H149.66C149.793 10.0598 149.92 10.1125 150.014 10.2063C150.108 10.3 150.16 10.4272 150.16 10.5598V208.91C150.16 209.042 150.108 209.17 150.014 209.263C149.92 209.357 149.793 209.41 149.66 209.41ZM12.6602 208.41H149.16V11.0598H12.6802L12.6602 208.41Z" fill="#776DB4"/>
<path d="M150.16 209.41H11.6802V175.59L12.0902 175.52C13.7882 175.2 15.4596 174.752 17.0902 174.18C27.2702 170.54 30.4502 155.92 33.8202 140.43C35.6802 131.87 37.6002 123.02 40.8202 115.04C45.2202 104.04 60.0102 107.69 77.1302 111.91C96.3002 116.64 118.03 121.99 128.86 106.91C141.55 89.2899 131.77 69.0399 123.86 52.7699C119.16 43.0499 115.1 34.6599 117.33 29.3099C122.91 15.9299 146.99 21.4399 149.72 22.1199L150.1 22.2099L150.16 209.41ZM12.6802 208.41H149.16V22.9999C145.16 22.0699 123.37 17.5599 118.31 29.7099C116.26 34.6299 120.22 42.8399 124.82 52.3499C132.82 68.8599 142.72 89.3499 129.68 107.5C118.45 123.1 96.3802 117.66 76.9002 112.87C60.2302 108.76 45.8302 105.21 41.7602 115.4C38.6002 123.29 36.6802 132.1 34.8302 140.63C31.4102 156.39 28.1702 171.28 17.4702 175.1C15.9079 175.651 14.3068 176.086 12.6802 176.4V208.41Z" fill="#776DB4"/>
<path d="M47.1801 89.9998C40.4001 89.9998 34.0401 88.2498 29.5601 84.7298C26.2201 82.1098 24.4901 79.3298 24.2801 76.2398C23.8101 69.3998 30.8401 62.1498 39.7301 52.9698C45.4381 47.2925 50.7821 41.2605 55.7301 34.9098C58.4801 31.2398 59.5001 27.6498 58.7301 24.2398C57.7301 19.5398 53.4101 15.0698 45.9201 10.9498L44.3201 10.0598H82.9501L82.7201 10.7198C79.7201 19.2798 79.8401 31.7198 82.9701 51.1598C86.1001 70.5998 74.9701 80.3698 68.0201 84.4598C61.6802 88.1039 54.4926 90.0146 47.1801 89.9998V89.9998ZM48.1001 10.9998C54.8501 14.9998 58.7701 19.3798 59.7701 23.9998C60.5701 27.6998 59.4801 31.5598 56.5501 35.4798C51.5654 41.8613 46.1883 47.9264 40.4501 53.6398C31.7301 62.6398 24.8401 69.7498 25.2801 76.1498C25.4701 78.9298 27.0701 81.4698 30.1801 83.9198C38.9801 90.8298 55.3501 90.6598 67.4601 83.5198C74.1701 79.5198 84.9801 70.1198 81.9401 51.2498C78.8601 32.1598 78.7201 19.6898 81.5001 10.9898L48.1001 10.9998Z" fill="#776DB4"/>
<path d="M75.0004 178.58C70.7204 178.58 66.5365 177.311 62.9778 174.933C59.4191 172.555 56.6455 169.175 55.0076 165.221C53.3697 161.267 52.9412 156.916 53.7762 152.718C54.6112 148.52 56.6722 144.664 59.6986 141.638C62.725 138.612 66.5809 136.551 70.7786 135.716C74.9764 134.881 79.3274 135.309 83.2816 136.947C87.2358 138.585 90.6155 141.359 92.9934 144.917C95.3712 148.476 96.6404 152.66 96.6404 156.94C96.6324 162.677 94.35 168.176 90.2934 172.233C86.2368 176.289 80.7372 178.572 75.0004 178.58ZM75.0004 136.3C70.9182 136.3 66.9276 137.51 63.5334 139.778C60.1392 142.046 57.4937 145.27 55.9315 149.041C54.3693 152.813 53.9606 156.963 54.757 160.966C55.5534 164.97 57.5191 168.648 60.4057 171.534C63.2922 174.421 66.9699 176.387 70.9737 177.183C74.9775 177.98 79.1275 177.571 82.8989 176.009C86.6704 174.447 89.8939 171.801 92.1619 168.407C94.4299 165.013 95.6404 161.022 95.6404 156.94C95.6351 151.467 93.4588 146.221 89.5892 142.351C85.7196 138.481 80.4728 136.305 75.0004 136.3V136.3Z" fill="#776DB4"/>
<path d="M133.32 146.58C131.526 146.58 129.773 146.048 128.281 145.051C126.789 144.055 125.627 142.638 124.94 140.981C124.254 139.324 124.074 137.5 124.424 135.74C124.774 133.981 125.638 132.365 126.907 131.096C128.175 129.828 129.791 128.964 131.551 128.614C133.31 128.264 135.134 128.444 136.791 129.13C138.448 129.817 139.865 130.979 140.861 132.471C141.858 133.962 142.39 135.716 142.39 137.51C142.387 139.915 141.431 142.22 139.731 143.92C138.03 145.621 135.725 146.577 133.32 146.58ZM133.32 129.44C131.724 129.44 130.164 129.913 128.837 130.8C127.509 131.687 126.475 132.947 125.864 134.422C125.254 135.896 125.094 137.519 125.405 139.084C125.716 140.65 126.485 142.088 127.614 143.216C128.742 144.345 130.18 145.114 131.746 145.425C133.311 145.736 134.934 145.576 136.408 144.966C137.883 144.355 139.143 143.321 140.03 141.993C140.917 140.666 141.39 139.106 141.39 137.51C141.387 135.37 140.536 133.319 139.023 131.807C137.511 130.294 135.459 129.443 133.32 129.44Z" fill="#776DB4"/>
<path d="M51.58 74.5999C50.1239 74.6019 48.6999 74.1719 47.4882 73.3644C46.2766 72.5568 45.3317 71.4081 44.7731 70.0634C44.2145 68.7187 44.0673 67.2385 44.3502 65.8102C44.633 64.3818 45.3332 63.0694 46.3621 62.0391C47.391 61.0088 48.7024 60.3068 50.1304 60.022C51.5584 59.7372 53.0387 59.8824 54.3842 60.4392C55.7296 60.9959 56.8797 61.9393 57.6889 63.1498C58.4981 64.3604 58.93 65.7838 58.93 67.2399C58.9273 69.1893 58.1524 71.0583 56.7749 72.4377C55.3974 73.8172 53.5294 74.5946 51.58 74.5999V74.5999ZM51.58 60.8799C50.3217 60.8779 49.091 61.2492 48.0438 61.9469C46.9966 62.6445 46.1799 63.6371 45.697 64.7991C45.2141 65.961 45.0867 67.2401 45.331 68.4745C45.5752 69.7089 46.1802 70.8431 47.0692 71.7335C47.9583 72.624 49.0915 73.2307 50.3255 73.4769C51.5595 73.7231 52.8388 73.5978 54.0015 73.1167C55.1642 72.6356 56.1581 71.8205 56.8574 70.7743C57.5567 69.7282 57.93 68.4982 57.93 67.2399C57.93 65.5548 57.2613 63.9387 56.0707 62.7462C54.8801 61.5538 53.265 60.8825 51.58 60.8799Z" fill="#776DB4"/>
</svg>
