<svg width="512" height="513" viewBox="0 0 512 513" fill="none" xmlns="http://www.w3.org/2000/svg">
<path d="M359.285 165.567H152.714L256 254.098L359.285 165.567Z" fill="#331056"/>
<path d="M256 275.281C253.817 275.281 251.705 274.5 250.049 273.076L137.143 176.299V348.424H374.857V176.299L261.951 273.076C260.294 274.5 258.183 275.281 256 275.281Z" fill="#331056"/>
<path d="M256 0.995605C114.616 0.995605 0 115.612 0 256.996C0 398.38 114.616 512.996 256 512.996C397.384 512.996 512 398.38 512 256.996C511.839 115.679 397.317 1.15632 256 0.995605ZM393.143 357.567C393.143 362.616 389.049 366.71 384 366.71H128C122.951 366.71 118.857 362.616 118.857 357.567V156.424C118.857 151.375 122.951 147.281 128 147.281H384C389.049 147.281 393.143 151.375 393.143 156.424V357.567Z" fill="#331056"/>
</svg>
