<svg width="366" height="366" viewBox="0 0 366 366" fill="none" xmlns="http://www.w3.org/2000/svg">
<path d="M366 279.917H0V280.1H366V279.917Z" fill="#EBEBEB"/>
<path d="M329.327 291.695H305.083V291.878H329.327V291.695Z" fill="#EBEBEB"/>
<path d="M242.453 293.686H236.092V293.869H242.453V293.686Z" fill="#EBEBEB"/>
<path d="M304.351 284.902H290.304V285.085H304.351V284.902Z" fill="#EBEBEB"/>
<path d="M70.0158 286.131H38.4008V286.314H70.0158V286.131Z" fill="#EBEBEB"/>
<path d="M81.1714 286.131H76.5378V286.314H81.1714V286.131Z" fill="#EBEBEB"/>
<path d="M164.81 289.221H96.2361V289.404H164.81V289.221Z" fill="#EBEBEB"/>
<path d="M72.2557 188.915C73.8807 128.056 123.884 79.056 185.123 79.056C246.362 79.056 296.387 128.056 297.99 188.915H322.197C320.565 114.712 259.706 54.8488 185.123 54.8488C110.539 54.8488 49.7028 114.712 48.0485 188.915H72.2557Z" fill="#F5F5F5"/>
<path d="M72.2558 188.915C73.8808 128.056 123.884 79.056 185.123 79.056C246.362 79.056 296.387 128.056 297.99 188.915H316.151C314.518 118.05 256.368 60.9024 185.123 60.9024C113.877 60.9024 55.7272 118.05 54.0948 188.915H72.2558Z" fill="#EBEBEB"/>
<path d="M72.2557 188.915C73.8808 128.056 123.884 79.056 185.123 79.056C246.362 79.056 296.387 128.056 297.99 188.915H310.097C308.465 121.38 253.038 66.956 185.123 66.956C117.208 66.956 61.7735 121.38 60.1484 188.915H72.2557Z" fill="#FAFAFA"/>
<path d="M72.2557 188.915C73.8807 128.056 123.884 79.056 185.123 79.056C246.362 79.056 296.387 128.056 297.99 188.915H304.043C303.237 157.91 290.353 128.446 268.138 106.801C245.924 85.1574 216.135 73.0447 185.119 73.0447C154.104 73.0447 124.314 85.1574 102.1 106.801C79.8851 128.446 67.0015 157.91 66.1947 188.915H72.2557Z" fill="#E0E0E0"/>
<path d="M324.276 269.888V279.917H41.724V269.888C41.7023 269.488 41.7615 269.087 41.8982 268.71C42.0349 268.332 42.2462 267.986 42.5194 267.693C42.7927 267.399 43.1224 267.163 43.4888 267C43.8552 266.836 44.2508 266.748 44.652 266.741H321.348C321.749 266.748 322.145 266.836 322.511 267C322.878 267.163 323.207 267.399 323.481 267.693C323.754 267.986 323.965 268.332 324.102 268.71C324.238 269.087 324.298 269.488 324.276 269.888Z" fill="#EBEBEB"/>
<path d="M75.396 266.741H57.828V279.917H75.396V266.741Z" fill="#F5F5F5"/>
<path d="M108.336 266.741H91.5V279.917H108.336V266.741Z" fill="#F5F5F5"/>
<path d="M142.008 266.741H124.44V279.917H142.008V266.741Z" fill="#F5F5F5"/>
<path d="M174.948 266.741H158.112V279.917H174.948V266.741Z" fill="#F5F5F5"/>
<path d="M207.888 266.741H191.052V279.917H207.888V266.741Z" fill="#F5F5F5"/>
<path d="M241.56 266.741H223.992V279.917H241.56V266.741Z" fill="#F5F5F5"/>
<path d="M274.5 266.741H257.664V279.917H274.5V266.741Z" fill="#F5F5F5"/>
<path d="M308.172 266.741H290.604V279.917H308.172V266.741Z" fill="#F5F5F5"/>
<path d="M53.5312 268.571C53.5312 268.571 50.0908 257.056 57.0448 254.765C63.9988 252.474 68.1273 247.087 67.893 240.996C67.6588 234.906 74.9788 228.977 80.4688 234.679C85.9588 240.382 85.2268 230.287 92.5468 227.842C99.8668 225.397 106.074 231.341 104.068 236.78C102.063 242.219 109.288 245.623 117.976 240.996C126.665 236.37 136.137 244.781 134.307 251.369C132.477 257.957 133.978 258.689 139.431 256.493C144.885 254.297 154.694 260.519 151.261 268.571C147.827 276.623 53.5312 268.571 53.5312 268.571Z" fill="#77B033"/>
<path d="M237.483 269.669C233.823 266.009 237.117 259.787 240.777 259.055C244.437 258.323 248.097 251.889 248.294 247.782C248.492 243.675 255.051 231.078 265.299 238.859C275.547 246.64 272.436 240.008 279.851 237.82C287.266 235.631 291.936 241.926 288.686 246.647C288.686 246.647 296.131 244.781 299.198 251.735C302.265 258.689 299.198 263.008 299.198 263.008C299.198 263.008 313.208 262.598 311.949 271.257C310.69 279.917 237.483 269.669 237.483 269.669Z" fill="#77B033"/>
<path d="M88.96 183.834C88.9636 182.827 88.7307 181.833 88.28 180.933C87.8293 180.032 87.1735 179.25 86.3652 178.649C85.557 178.048 84.619 177.645 83.6266 177.472C82.6343 177.3 81.6154 177.363 80.6518 177.656C80.9676 175.504 80.7647 173.306 80.0601 171.248C79.3554 169.189 78.1694 167.328 76.6007 165.82C75.0319 164.313 73.1258 163.201 71.0409 162.578C68.9559 161.956 66.7524 161.84 64.6137 162.24C63.2679 160.023 61.2371 158.304 58.828 157.343C56.4189 156.382 53.7624 156.231 51.2599 156.913C48.7574 157.595 46.5449 159.073 44.9566 161.124C43.3684 163.174 42.4906 165.686 42.4561 168.279H42.2584C39.3386 168.279 36.5383 169.439 34.4737 171.504C32.4091 173.569 31.2491 176.369 31.2491 179.289C31.2491 182.209 32.4091 185.009 34.4737 187.074C36.5383 189.138 39.3386 190.298 42.2584 190.298H82.7161C84.3932 190.245 85.9835 189.54 87.1493 188.333C88.3151 187.126 88.9647 185.512 88.96 183.834Z" fill="#E0E0E0"/>
<path d="M332.936 185.694C332.94 184.687 332.708 183.693 332.259 182.792C331.809 181.891 331.154 181.109 330.346 180.508C329.538 179.906 328.601 179.504 327.609 179.331C326.617 179.159 325.598 179.222 324.635 179.516C324.725 178.858 324.772 178.196 324.774 177.532C324.774 175.524 324.331 173.541 323.478 171.723C322.624 169.905 321.381 168.298 319.835 167.016C318.29 165.733 316.481 164.807 314.538 164.303C312.594 163.799 310.563 163.73 308.589 164.1C307.242 161.886 305.212 160.17 302.804 159.211C300.396 158.252 297.742 158.103 295.242 158.784C292.741 159.466 290.531 160.942 288.943 162.99C287.355 165.039 286.476 167.547 286.439 170.139H286.212C283.292 170.139 280.492 171.299 278.427 173.363C276.363 175.428 275.203 178.228 275.203 181.148C275.203 184.068 276.363 186.868 278.427 188.933C280.492 190.997 283.292 192.157 286.212 192.157H326.648C328.333 192.117 329.936 191.418 331.111 190.209C332.287 189.001 332.942 187.38 332.936 185.694Z" fill="#E0E0E0"/>
<path d="M320.213 116.447C320.213 115.354 319.779 114.305 319.006 113.532C318.234 112.76 317.185 112.325 316.092 112.325C315.693 112.325 315.297 112.382 314.914 112.494C314.973 112.077 315.002 111.656 315.002 111.235C315.005 110.086 314.783 108.949 314.346 107.887C313.909 106.825 313.267 105.859 312.456 105.046C311.646 104.233 310.683 103.587 309.622 103.147C308.561 102.707 307.424 102.48 306.276 102.48C305.736 102.481 305.197 102.53 304.666 102.626C303.805 101.213 302.509 100.117 300.971 99.5054C299.434 98.8934 297.739 98.7979 296.143 99.2333C294.547 99.6688 293.135 100.612 292.121 101.919C291.108 103.227 290.547 104.829 290.524 106.484H290.399C288.574 106.543 286.843 107.31 285.572 108.622C284.302 109.934 283.591 111.689 283.591 113.515C283.591 115.341 284.302 117.096 285.572 118.408C286.843 119.72 288.574 120.487 290.399 120.546H316.224C317.29 120.512 318.302 120.065 319.046 119.301C319.79 118.537 320.208 117.513 320.213 116.447Z" fill="#E0E0E0"/>
<path d="M228.274 62.952C228.274 61.8648 227.842 60.8222 227.074 60.0534C226.305 59.2847 225.262 58.8528 224.175 58.8528C223.776 58.851 223.378 58.9103 222.997 59.0285C223.058 58.6091 223.09 58.186 223.092 57.7621C223.082 55.4641 222.162 53.2634 220.534 51.6418C218.905 50.0203 216.701 49.1099 214.403 49.1099C213.865 49.1101 213.329 49.1591 212.8 49.2563C211.944 47.8484 210.653 46.7572 209.122 46.1475C207.591 45.5379 205.904 45.4429 204.314 45.8768C202.725 46.3108 201.32 47.2502 200.311 48.5531C199.303 49.856 198.745 51.4517 198.723 53.0993H198.599C196.743 53.0993 194.963 53.8366 193.651 55.1489C192.338 56.4613 191.601 58.2412 191.601 60.0972C191.601 61.9532 192.338 63.7331 193.651 65.0455C194.963 66.3578 196.743 67.0951 198.599 67.0951H224.292C225.367 67.0645 226.386 66.6131 227.131 65.8382C227.876 65.0632 228.286 64.0268 228.274 62.952Z" fill="#E0E0E0"/>
<path d="M99.7496 99.552C99.7496 98.4648 99.3177 97.4222 98.549 96.6534C97.7802 95.8847 96.7376 95.4528 95.6504 95.4528C95.2515 95.4523 94.8547 95.509 94.4719 95.6212C94.531 95.2041 94.5604 94.7834 94.5597 94.3621C94.5645 93.219 94.3435 92.0861 93.9094 91.0286C93.4753 89.9711 92.8366 89.0097 92.03 88.1997C91.2233 87.3896 90.2646 86.7469 89.209 86.3083C88.1533 85.8698 87.0214 85.644 85.8782 85.644C85.3405 85.6442 84.804 85.6932 84.2751 85.7904C83.4195 84.383 82.1293 83.292 80.5993 82.6822C79.0692 82.0724 77.3823 81.9768 75.7932 82.4098C74.204 82.8428 72.7988 83.781 71.7897 85.0828C70.7805 86.3845 70.2221 87.9791 70.1988 89.6261H70.0743C68.2184 89.6261 66.4384 90.3634 65.1261 91.6757C63.8137 92.9881 63.0764 94.768 63.0764 96.624C63.0764 98.48 63.8137 100.26 65.1261 101.572C66.4384 102.885 68.2184 103.622 70.0743 103.622H95.7602C96.8226 103.592 97.8319 103.151 98.5759 102.392C99.3198 101.633 99.7406 100.615 99.7496 99.552Z" fill="#E0E0E0"/>
<path d="M183 312.974C261.384 312.974 324.927 309.264 324.927 304.688C324.927 300.111 261.384 296.401 183 296.401C104.616 296.401 41.0725 300.111 41.0725 304.688C41.0725 309.264 104.616 312.974 183 312.974Z" fill="#F5F5F5"/>
<path d="M239.108 129.359L236.692 126.065C236.765 125.672 236.741 125.267 236.624 124.885C236.507 124.502 236.299 124.154 236.019 123.869C235.052 122.771 228.779 123.349 227.813 123.444C226.847 123.54 225.251 127.39 226.195 128.51C227.14 129.63 233.171 129.82 233.728 129.337L235.631 131.987L239.108 129.359Z" fill="#9F5B53"/>
<path d="M275.444 121.183C275.254 118.547 276.908 117.523 279.016 118.423C281.125 119.323 282.947 116.227 285.758 116.959C288.569 117.691 287.705 120.495 289.155 121.183C290.604 121.871 292.236 121.044 292.866 124.572C293.495 128.1 291.182 126.27 292.2 129.359C293.217 132.448 296.248 133.319 293.664 135.947C291.08 138.575 289.323 139.607 291.351 141.803C293.378 143.999 291.182 146.107 290.253 146.832C289.323 147.557 294.286 151.751 292.888 155.513C291.49 159.276 279.829 162.753 272.633 160.008C265.438 157.263 263.44 153.105 263.849 148.376C264.259 143.648 267.751 142.396 267.509 140.917C267.268 139.439 264.969 138.143 266.272 135.969C267.575 133.795 271.191 133.605 270.035 131.526C268.878 129.447 269.025 127.134 270.328 126.116C271.631 125.099 272.846 125.384 272.604 123.298C272.363 121.212 275.444 121.183 275.444 121.183Z" fill="#263238"/>
<path d="M269.142 143.992C269.142 143.992 252.621 144.138 249.531 140.332C246.442 136.525 238.632 127.449 238.632 127.449L234.24 130.186C234.24 130.186 241.926 147.352 246.75 151.121C251.574 154.891 265.936 155.667 265.936 155.667L269.142 143.992Z" fill="#9C33B0"/>
<path opacity="0.3" d="M269.142 143.992C269.142 143.992 252.621 144.138 249.531 140.332C246.442 136.525 238.632 127.449 238.632 127.449L234.24 130.186C234.24 130.186 241.926 147.352 246.75 151.121C251.574 154.891 265.936 155.667 265.936 155.667L269.142 143.992Z" fill="white"/>
<path d="M240.945 295.45L245.337 296.226L247.138 290.238L248.777 284.748L243.719 282.977L242.248 289.579L240.945 295.45Z" fill="#E4897B"/>
<path d="M246.325 296.109C246.399 295.618 240.389 294.952 240.389 294.952C240.389 294.952 236.07 298.026 232.373 298.231C228.677 298.436 230.28 300.925 234.255 301.628L244.078 303.363C246.896 303.861 245.557 301.145 246.325 296.109Z" fill="#9C33B0"/>
<path d="M236.495 295.684C236.42 295.592 236.376 295.479 236.37 295.361C236.363 295.242 236.394 295.125 236.458 295.025C236.496 294.944 236.549 294.872 236.616 294.813C236.683 294.754 236.761 294.709 236.846 294.681C237.299 294.582 237.771 294.613 238.207 294.769C237.768 294.425 237.402 294.037 237.439 293.722C237.439 293.517 237.622 293.371 237.915 293.29C238.045 293.252 238.182 293.243 238.316 293.263C238.45 293.283 238.578 293.333 238.691 293.408C239.423 293.883 239.693 295.355 239.701 295.421C239.708 295.444 239.708 295.47 239.701 295.494V295.53C239.698 295.54 239.693 295.548 239.687 295.556C239.681 295.564 239.673 295.57 239.664 295.574H239.613C238.909 295.776 238.185 295.894 237.453 295.926C237.286 295.952 237.114 295.944 236.949 295.903C236.784 295.861 236.63 295.787 236.495 295.684ZM236.956 294.952C236.911 294.965 236.87 294.988 236.834 295.018C236.799 295.048 236.771 295.086 236.751 295.128C236.648 295.347 236.714 295.428 236.751 295.45C236.985 295.728 238.134 295.596 239.079 295.377C238.42 295.142 237.424 294.806 236.956 294.996V294.952ZM238.002 293.569C237.915 293.569 237.761 293.649 237.754 293.73C237.754 294 238.486 294.615 239.313 295.106C239.212 294.544 238.932 294.031 238.515 293.642C238.417 293.578 238.302 293.545 238.185 293.547C238.123 293.556 238.061 293.573 238.002 293.598V293.569Z" fill="#263238"/>
<path opacity="0.2" d="M242.226 289.718L247.116 290.362L248.77 284.807L243.712 283.006L242.226 289.718Z" fill="black"/>
<path d="M270.247 297.331H274.705L275.437 291.124L276.096 285.429L270.803 284.565L270.511 291.321L270.247 297.331Z" fill="#E4897B"/>
<path d="M275.657 297.046C275.657 296.555 269.61 296.936 269.61 296.936C269.61 296.936 265.899 300.713 262.29 301.562C258.682 302.411 260.695 304.578 264.728 304.578H274.705C277.567 304.578 275.781 302.133 275.657 297.046Z" fill="#9C33B0"/>
<path d="M265.899 298.334C265.813 298.255 265.753 298.152 265.727 298.038C265.701 297.924 265.71 297.806 265.753 297.697C265.775 297.61 265.815 297.529 265.87 297.458C265.926 297.387 265.995 297.329 266.075 297.287C266.504 297.113 266.973 297.062 267.429 297.141C266.938 296.877 266.514 296.555 266.492 296.24C266.492 296.035 266.616 295.86 266.887 295.735C267.01 295.677 267.143 295.647 267.279 295.647C267.414 295.647 267.548 295.677 267.67 295.735C268.49 296.072 268.995 297.485 269.017 297.543C269.026 297.563 269.031 297.584 269.031 297.606C269.031 297.627 269.026 297.648 269.017 297.668L268.966 297.712C268.179 298.096 267.333 298.344 266.463 298.444C266.268 298.478 266.067 298.439 265.899 298.334ZM266.236 297.558C266.152 297.604 266.089 297.68 266.06 297.77C266.001 298.012 266.06 298.07 266.104 298.092C266.389 298.327 267.495 297.99 268.38 297.617C267.685 297.398 266.942 297.378 266.236 297.558ZM267.026 296.021C266.946 296.057 266.807 296.138 266.807 296.218C266.807 296.497 267.692 296.95 268.585 297.302C268.385 296.77 268.021 296.317 267.546 296.006C267.47 295.972 267.388 295.954 267.304 295.955C267.208 295.956 267.113 295.978 267.026 296.021Z" fill="#263238"/>
<path opacity="0.2" d="M270.511 291.46L275.437 291.248L276.096 285.487L270.803 284.602L270.511 291.46Z" fill="black"/>
<path d="M241.809 286.212L249.026 287.486C256.302 269.339 261.47 254.202 265.13 241.633C267.099 234.855 268.629 228.831 269.815 223.48L269.486 243.244V288.101H276.806C294.623 203.108 281.996 183.681 281.996 183.681L260.672 180.021C259.83 183.957 259.233 187.942 258.886 191.952L257.927 199.009L249.612 242.058L241.809 286.212Z" fill="#263238"/>
<path opacity="0.2" d="M241.809 286.212L249.026 287.486C256.302 269.339 261.47 254.202 265.13 241.633C267.099 234.855 268.629 228.831 269.815 223.48L269.486 243.244V288.101H276.806C294.623 203.108 281.996 183.681 281.996 183.681L260.672 180.021C259.83 183.957 259.233 187.942 258.886 191.952L257.927 199.009L249.612 242.058L241.809 286.212Z" fill="white"/>
<path d="M250.154 286.615L241.209 283.65L241.326 287.449L248.726 289.813L250.154 286.615Z" fill="#263238"/>
<path d="M277.779 287.025L268.454 285.663L269.23 289.389L276.93 290.428L277.779 287.025Z" fill="#263238"/>
<path d="M282.018 180.497V183.681L260.27 182.012V178.249L282.018 180.497Z" fill="#263238"/>
<path d="M264.986 182.613L269.739 183.039L270.062 179.43L265.309 179.004L264.986 182.613Z" fill="white"/>
<path d="M274.433 184.657L275.515 184.713L275.795 179.222L274.713 179.167L274.433 184.657Z" fill="#263238"/>
<path opacity="0.2" d="M274.433 184.657L275.515 184.713L275.795 179.222L274.713 179.167L274.433 184.657Z" fill="white"/>
<path d="M261.136 183.202L262.218 183.257L262.498 177.767L261.416 177.712L261.136 183.202Z" fill="#263238"/>
<path opacity="0.2" d="M261.136 183.202L262.218 183.257L262.498 177.767L261.416 177.712L261.136 183.202Z" fill="white"/>
<path d="M292.866 149.862C292.207 151.202 291.607 152.476 291.051 153.676C290.575 154.686 290.136 155.645 289.718 156.56L288.986 158.112C288.811 158.507 288.635 158.903 288.474 159.283C287.896 160.593 287.383 161.816 286.922 162.943C286.651 163.617 286.402 164.268 286.19 164.898L285.868 165.761C285.37 167.086 284.953 168.316 284.587 169.48C284.272 170.49 283.994 171.456 283.738 172.408C283.401 173.689 283.116 174.933 282.852 176.2C282.647 177.173 282.457 178.161 282.267 179.186C282.179 179.618 282.098 180.057 282.018 180.504L260.27 178.242C260.343 177.02 260.424 175.834 260.511 174.677C260.585 173.652 260.658 172.657 260.738 171.691C260.856 170.314 260.973 168.997 261.09 167.73C261.192 166.706 261.295 165.717 261.397 164.766C261.544 163.375 261.697 162.065 261.851 160.82C261.975 159.781 262.107 158.8 262.232 157.892C262.429 156.428 262.627 155.147 262.81 153.969C262.993 152.79 263.154 151.905 263.308 151.041C263.508 149.958 263.683 149.057 263.835 148.34C264.794 143.948 265.496 143.853 265.496 143.853C265.496 143.853 270.386 143.955 274.58 144.482H274.69C277.525 144.92 280.329 145.536 283.086 146.327C283.445 146.422 283.818 146.524 284.148 146.634C287.128 147.497 290.042 148.576 292.866 149.862Z" fill="#9C33B0"/>
<path opacity="0.6" d="M292.866 149.862C292.207 151.202 291.607 152.476 291.051 153.676C290.575 154.686 290.136 155.645 289.718 156.56L288.986 158.112C288.811 158.507 288.635 158.903 288.474 159.283C287.896 160.593 287.383 161.816 286.922 162.943C286.651 163.617 286.402 164.268 286.19 164.898L285.868 165.761C285.37 167.086 284.953 168.316 284.587 169.48C284.272 170.49 283.994 171.456 283.738 172.408C283.401 173.689 283.116 174.933 282.852 176.2C282.647 177.173 282.457 178.161 282.267 179.186C282.179 179.618 282.098 180.057 282.018 180.504L260.27 178.242C260.343 177.02 260.424 175.834 260.511 174.677C260.585 173.652 260.658 172.657 260.738 171.691C260.856 170.314 260.973 168.997 261.09 167.73C261.192 166.706 261.295 165.717 261.397 164.766C261.544 163.375 261.697 162.065 261.851 160.82C261.975 159.781 262.107 158.8 262.232 157.892C262.429 156.428 262.627 155.147 262.81 153.969C262.993 152.79 263.154 151.905 263.308 151.041C263.508 149.958 263.683 149.057 263.835 148.34C264.794 143.948 265.496 143.853 265.496 143.853C265.496 143.853 270.386 143.955 274.58 144.482H274.69C277.525 144.92 280.329 145.536 283.086 146.327C283.445 146.422 283.818 146.524 284.148 146.634C287.128 147.497 290.042 148.576 292.866 149.862Z" fill="white"/>
<path opacity="0.2" d="M265.145 241.655C267.114 234.877 268.644 228.852 269.83 223.502C269.726 217.168 269.264 210.846 268.446 204.565C268.446 204.565 265.328 228.984 265.145 241.655Z" fill="black"/>
<path d="M276.572 144.387C274.002 144.014 272.421 145.478 273.607 147.937C274.793 150.397 275.188 150.763 279.229 150.038C283.269 149.313 287.969 146.056 276.572 144.387Z" fill="#9C33B0"/>
<path d="M289.718 156.56L288.986 158.112C288.811 158.507 288.635 158.903 288.474 159.283C282.018 157.768 269.918 155.023 262.781 153.954C262.956 152.864 263.125 151.89 263.278 151.026C272.197 152.328 281.026 154.176 289.718 156.56Z" fill="#9C33B0"/>
<path d="M286.944 162.965C286.673 163.639 286.424 164.29 286.212 164.92L285.89 165.783C279.302 164.253 268.549 161.853 261.873 160.828C261.997 159.788 262.129 158.807 262.254 157.9C270.571 159.129 278.814 160.82 286.944 162.965Z" fill="#9C33B0"/>
<path d="M284.587 169.502C284.272 170.512 283.994 171.478 283.738 172.43C277.274 170.966 267.495 168.77 261.09 167.752C261.192 166.728 261.295 165.739 261.397 164.788C269.203 165.959 276.943 167.532 284.587 169.502Z" fill="#9C33B0"/>
<path d="M282.852 176.207C282.647 177.181 282.457 178.169 282.266 179.194C276.023 177.73 266.836 175.717 260.511 174.684C260.585 173.66 260.658 172.664 260.738 171.698C266.082 172.525 274.368 173.989 282.852 176.207Z" fill="#9C33B0"/>
<g opacity="0.3">
<path opacity="0.3" d="M276.572 144.387C274.002 144.014 272.421 145.478 273.607 147.937C274.793 150.397 275.188 150.763 279.229 150.038C283.269 149.313 287.969 146.056 276.572 144.387Z" fill="white"/>
<path opacity="0.3" d="M289.718 156.56L288.986 158.112C288.811 158.507 288.635 158.903 288.474 159.283C282.018 157.768 269.918 155.023 262.781 153.954C262.956 152.864 263.125 151.89 263.278 151.026C272.197 152.328 281.026 154.176 289.718 156.56Z" fill="white"/>
<path opacity="0.3" d="M286.944 162.965C286.673 163.639 286.424 164.29 286.212 164.92L285.89 165.783C279.302 164.253 268.549 161.853 261.873 160.828C261.997 159.788 262.129 158.807 262.254 157.9C270.571 159.129 278.814 160.82 286.944 162.965Z" fill="white"/>
<path opacity="0.3" d="M284.587 169.502C284.272 170.512 283.994 171.478 283.738 172.43C277.274 170.966 267.495 168.77 261.09 167.752C261.192 166.728 261.295 165.739 261.397 164.788C269.203 165.959 276.944 167.532 284.587 169.502Z" fill="white"/>
<path opacity="0.3" d="M282.852 176.207C282.647 177.181 282.457 178.169 282.266 179.194C276.023 177.73 266.836 175.717 260.511 174.684C260.585 173.66 260.658 172.664 260.738 171.698C266.082 172.525 274.368 173.989 282.852 176.207Z" fill="white"/>
</g>
<path d="M275.803 149.445C281.205 149.394 283.072 147.308 283.072 147.308C280.07 143.721 283.533 138.524 283.533 138.524L276.981 138.963C277.022 139.873 277 140.786 276.916 141.693C276.498 145.587 274.72 145.419 274.72 145.419C273.365 147.396 275.803 149.445 275.803 149.445Z" fill="#9F5B53"/>
<path opacity="0.2" d="M276.981 138.97C277.022 139.881 277 140.793 276.916 141.701C281.242 142.213 283.504 138.531 283.504 138.531L276.981 138.97Z" fill="black"/>
<path d="M282.64 121.512C277.106 120.553 274.815 123.203 273.409 128.832C271.667 135.874 272.363 141.21 279.551 140.895C289.301 140.427 291.834 123.078 282.64 121.512Z" fill="#9F5B53"/>
<path d="M277.047 129.11C276.458 129.858 275.782 130.534 275.034 131.123C275.157 131.38 275.347 131.597 275.584 131.754C275.822 131.91 276.097 131.998 276.381 132.009L277.047 129.11Z" fill="#892B29"/>
<path d="M280.51 129.249C280.422 129.703 280.59 130.113 280.89 130.179C281.19 130.245 281.513 129.915 281.622 129.447C281.732 128.978 281.542 128.583 281.242 128.525C280.942 128.466 280.598 128.832 280.51 129.249Z" fill="#263238"/>
<path d="M281.337 128.583L280.429 128.005C280.429 128.005 280.759 128.927 281.337 128.583Z" fill="#263238"/>
<path d="M274.903 128.041C274.807 128.488 274.983 128.905 275.283 128.964C275.583 129.022 275.906 128.708 276.015 128.232C276.125 127.756 275.935 127.368 275.635 127.302C275.335 127.236 274.99 127.588 274.903 128.041Z" fill="#263238"/>
<path d="M275.73 127.368L274.822 126.782C274.822 126.782 275.151 127.719 275.73 127.368Z" fill="#263238"/>
<path d="M281.227 125.436C281.674 125.459 282.11 125.585 282.501 125.803C282.891 126.021 283.227 126.326 283.482 126.695" stroke="#263238" stroke-width="0.72468" stroke-linecap="round" stroke-linejoin="round"/>
<path d="M277.252 124.506C276.89 124.344 276.496 124.265 276.099 124.277C275.702 124.288 275.313 124.389 274.961 124.572" stroke="#263238" stroke-width="0.72468" stroke-linecap="round" stroke-linejoin="round"/>
<path d="M276.813 134.322C276.966 134.992 277.069 135.672 277.121 136.357H277.487C279.126 136.474 279.924 135.991 280.312 135.413C280.594 134.958 280.708 134.42 280.634 133.89C279.59 134.268 278.476 134.415 277.369 134.322C277.025 134.344 276.813 134.322 276.813 134.322Z" fill="#263238"/>
<path d="M277.369 134.351L277.479 134.951C279.024 135.061 280.122 134.951 280.641 134.49C280.666 134.301 280.666 134.109 280.641 133.919C279.595 134.298 278.478 134.446 277.369 134.351Z" fill="white"/>
<path d="M277.487 136.386C279.126 136.503 279.924 136.02 280.312 135.442C279.689 135.408 279.064 135.485 278.467 135.669C278.073 135.798 277.729 136.049 277.487 136.386Z" fill="#DE5753"/>
<path d="M287.068 131.855C287.068 131.855 285.268 126.863 286.271 123.415C286.271 123.415 276.088 117.032 273.607 128.063C273.607 128.063 274.258 117.998 283.811 119.433C293.364 120.868 290.897 134.805 285.275 138.07C285.26 138.07 288.174 134.981 287.068 131.855Z" fill="#263238"/>
<path d="M285.956 132.865C286.121 132.234 286.53 131.694 287.092 131.364C287.655 131.033 288.325 130.939 288.957 131.101C290.641 131.592 290.846 135.252 286.432 135.354C285.795 135.369 285.553 134.688 285.956 132.865Z" fill="#9F5B53"/>
<path d="M295.091 169.509L288.503 167.482C288.503 167.482 288.65 166.113 287.91 165.783C287.171 165.454 277.735 164.488 277.487 165.359C277.238 166.23 277.75 171.654 279.229 172.415C280.707 173.177 287.178 173.469 287.369 173.147C287.559 172.825 287.91 172.415 287.91 172.415L294.674 174.501L295.091 169.509Z" fill="#9F5B53"/>
<path d="M292.866 149.862C298.085 152.234 309.475 172.906 307.74 177.627C306.005 182.349 291.717 174.86 291.717 174.86L292.866 167.774L296.131 168.594C296.131 168.594 292.046 161.896 288.503 159.283C288.537 157.463 288.95 155.67 289.718 154.02C290.551 152.483 291.613 151.081 292.866 149.862Z" fill="#9C33B0"/>
<path opacity="0.3" d="M292.866 149.862C298.085 152.234 309.475 172.906 307.74 177.627C306.005 182.349 291.717 174.86 291.717 174.86L292.866 167.774L296.131 168.594C296.131 168.594 292.046 161.896 288.503 159.283C288.537 157.463 288.95 155.67 289.718 154.02C290.551 152.483 291.613 151.081 292.866 149.862Z" fill="white"/>
<path d="M134.827 100.789L137.96 81.984C136.276 80.315 140.156 70.7698 140.156 69.7376C140.156 68.7055 146.056 73.1122 146.158 74.0564C146.261 75.0007 144.694 81.7205 142.93 82.6867L142.008 102.765C142.008 102.765 138.275 104.347 134.827 100.789Z" fill="#E4897B"/>
<path d="M106.528 115.832C106.528 115.832 126.006 114.983 129.747 112.274C133.488 109.566 136.071 86.3321 136.071 86.3321L145.587 87.2691C145.587 87.2691 143.047 113.013 138.063 119.477C133.078 125.941 113.46 129.037 113.46 129.037L106.528 115.832Z" fill="#263238"/>
<path opacity="0.2" d="M145.602 87.2691C145.602 87.2691 143.062 113.013 138.077 119.477C135.596 122.683 129.462 125.077 123.942 126.665C120.494 127.646 116.995 128.438 113.46 129.037L109.683 121.827L106.535 115.832C106.535 115.832 126.014 114.983 129.754 112.274C133.495 109.566 136.079 86.3321 136.079 86.3321L145.602 87.2691Z" fill="white"/>
<path opacity="0.2" d="M123.942 126.636C120.494 127.626 116.995 128.428 113.46 129.037L109.683 121.827C113.46 122.156 121.424 123.24 123.942 126.636Z" fill="black"/>
<path d="M62.1175 139.08L52.0525 122.859C52.9748 120.663 54.3217 113.218 53.8898 112.274C53.4579 111.33 46.4088 109.229 46.116 110.115C45.2449 112.472 45.706 125.194 47.7337 125.414L56.2615 143.648C56.2615 143.648 60.2802 143.692 62.1175 139.08Z" fill="#E4897B"/>
<path d="M109.983 299.124L115.927 299.754L117.039 286.944L111.103 286.314L109.983 299.124Z" fill="#E4897B"/>
<path d="M80.3516 298.693H86.1051L86.5809 285.363H80.82L80.3516 298.693Z" fill="#E4897B"/>
<path d="M86.903 298.026H79.9124C79.7976 298.026 79.6861 298.065 79.5967 298.137C79.5074 298.209 79.4456 298.309 79.422 298.422L78.2874 303.546C78.242 303.766 78.2858 303.995 78.4093 304.183C78.5329 304.371 78.7259 304.503 78.9462 304.549C79.007 304.556 79.0684 304.556 79.1292 304.549C81.3911 304.512 83.0381 304.373 85.8782 304.373C87.6277 304.373 92.9054 304.556 95.321 304.556C97.7366 304.556 98.0514 302.17 97.0632 301.95C92.6273 300.984 89.2894 299.644 87.8693 298.371C87.6032 298.136 87.2573 298.013 86.903 298.026Z" fill="#263238"/>
<path d="M87.2983 298.824C87.2715 298.817 87.2474 298.802 87.2291 298.781C87.2109 298.761 87.1993 298.735 87.1958 298.707C87.1924 298.681 87.1969 298.655 87.2086 298.631C87.2203 298.608 87.2388 298.588 87.2617 298.575C87.4666 298.444 89.3259 297.302 89.9628 297.631C90.035 297.664 90.0959 297.718 90.1376 297.786C90.1792 297.854 90.1999 297.932 90.197 298.012C90.2181 298.148 90.2028 298.288 90.1527 298.416C90.1026 298.545 90.0194 298.658 89.9115 298.744C89.587 298.964 89.1972 299.067 88.8062 299.037C88.2974 299.02 87.7918 298.949 87.2983 298.824ZM87.6936 298.634C88.3651 298.861 89.0976 298.824 89.7432 298.532C89.8121 298.472 89.8649 298.395 89.8969 298.31C89.9288 298.224 89.9389 298.132 89.9262 298.041C89.9262 297.931 89.8749 297.88 89.8383 297.88C89.7852 297.849 89.7236 297.836 89.6626 297.843C88.9599 297.984 88.2912 298.26 87.6936 298.656V298.634Z" fill="#9C33B0"/>
<path d="M87.2617 298.854C87.242 298.839 87.2258 298.821 87.2144 298.799C87.203 298.777 87.1966 298.754 87.1958 298.729C87.1958 298.649 87.3422 296.994 88.0083 296.453C88.0866 296.384 88.1788 296.333 88.2785 296.302C88.3782 296.272 88.4833 296.263 88.5866 296.277C88.6908 296.274 88.7926 296.308 88.8733 296.374C88.954 296.44 89.0082 296.533 89.0258 296.636C89.1429 297.243 87.9937 298.51 87.4008 298.832H87.3349C87.3134 298.846 87.2878 298.854 87.2617 298.854ZM88.184 296.614C87.7812 297.132 87.544 297.759 87.5032 298.414C88.0962 297.968 88.8282 297.009 88.755 296.636C88.755 296.599 88.755 296.497 88.5573 296.497H88.4914C88.3785 296.499 88.2699 296.54 88.184 296.614Z" fill="#9C33B0"/>
<path d="M116.549 297.843H109.558C109.444 297.843 109.332 297.882 109.243 297.954C109.153 298.026 109.092 298.126 109.068 298.239L107.933 303.363C107.888 303.583 107.932 303.812 108.055 304C108.179 304.188 108.372 304.32 108.592 304.366C108.653 304.373 108.714 304.373 108.775 304.366C111.037 304.329 112.684 304.19 115.524 304.19C117.274 304.19 122.551 304.373 124.967 304.373C127.383 304.373 127.697 301.987 126.709 301.767C122.273 300.801 118.935 299.461 117.515 298.188C117.249 297.953 116.903 297.83 116.549 297.843Z" fill="#263238"/>
<path d="M116.944 298.656C116.917 298.649 116.893 298.634 116.875 298.613C116.857 298.592 116.845 298.566 116.842 298.539C116.838 298.513 116.843 298.486 116.855 298.463C116.866 298.439 116.885 298.42 116.908 298.407C117.113 298.275 118.972 297.133 119.609 297.463C119.681 297.496 119.742 297.55 119.784 297.618C119.825 297.685 119.846 297.764 119.843 297.843C119.864 297.98 119.849 298.119 119.799 298.248C119.749 298.376 119.665 298.489 119.558 298.575C119.233 298.796 118.843 298.899 118.452 298.868C117.943 298.852 117.438 298.781 116.944 298.656ZM117.34 298.466C118.011 298.692 118.744 298.656 119.389 298.363C119.458 298.303 119.511 298.227 119.543 298.141C119.575 298.056 119.585 297.963 119.572 297.873C119.572 297.763 119.521 297.712 119.484 297.712C119.431 297.681 119.37 297.668 119.309 297.675C118.609 297.805 117.94 298.068 117.34 298.451V298.466Z" fill="#9C33B0"/>
<path d="M116.908 298.656C116.888 298.642 116.872 298.623 116.86 298.601C116.849 298.58 116.843 298.556 116.842 298.532C116.842 298.451 116.988 296.797 117.654 296.255C117.733 296.186 117.825 296.135 117.924 296.105C118.024 296.074 118.129 296.066 118.233 296.079C118.337 296.076 118.439 296.111 118.519 296.177C118.6 296.242 118.654 296.335 118.672 296.438C118.789 297.046 117.64 298.312 117.047 298.634H116.981C116.959 298.649 116.934 298.657 116.908 298.656ZM117.852 296.46C117.449 296.978 117.212 297.606 117.171 298.261C117.764 297.814 118.496 296.855 118.423 296.482C118.423 296.445 118.423 296.343 118.225 296.343H118.159C118.046 296.345 117.938 296.387 117.852 296.46Z" fill="#9C33B0"/>
<path opacity="0.2" d="M111.103 286.314L117.039 286.944L116.461 293.547L110.517 292.924L111.103 286.314Z" fill="black"/>
<path opacity="0.2" d="M80.8201 285.37H86.5809L86.332 292.244H80.5712L80.8201 285.37Z" fill="black"/>
<path d="M83.199 168.441H113.738C116.666 184.296 125.736 240.418 119.213 290.414L108.87 289.14C108.87 289.14 109.829 222.762 100.701 198.226C99.6544 211.358 98.4027 225.31 97.3193 232.769C94.6622 251.069 88.9745 291.058 88.9745 291.058H78.4484C78.4484 291.058 80.6004 252.782 81.596 234.796C82.7159 215.259 83.1551 172.452 83.199 168.441Z" fill="#9C33B0"/>
<path d="M120.392 292.822L107.597 290.919L107.992 287.376L121.3 289.125L120.392 292.822Z" fill="#9C33B0"/>
<path d="M90.2409 291.138H77.8262V287.427L90.7094 287.186L90.2409 291.138Z" fill="#9C33B0"/>
<path opacity="0.2" d="M100.701 198.218C102.202 202.508 103.343 206.915 104.112 211.394C104.969 199.682 101.55 187.311 101.55 187.311L100.701 198.218Z" fill="black"/>
<path d="M77.9067 118.306C79.5979 124.518 80.8213 130.848 81.5667 137.243C81.8083 139.204 82.0059 141.13 82.167 142.996C82.3793 145.368 82.5257 147.652 82.6428 149.818C82.7892 152.563 82.8331 155.806 82.8258 158.998C82.8258 166.318 82.5183 173.382 82.5183 173.382C88.3743 174.846 105.298 173.872 114.543 173.199C115.632 164.358 115.917 155.438 115.392 146.546C115.087 140.675 114.442 134.826 113.46 129.03C112.963 125.935 112.274 122.874 111.396 119.865C111.056 118.798 110.417 117.852 109.556 117.137C108.694 116.422 107.646 115.969 106.535 115.832C105.415 115.693 104.12 115.554 102.758 115.473C102.231 115.473 101.704 115.422 101.17 115.414C96.8028 115.464 92.4426 115.767 88.1108 116.322C87.291 116.417 86.4565 116.542 85.6513 116.673C83.0428 117.081 80.4577 117.626 77.9067 118.306Z" fill="#263238"/>
<path opacity="0.7" d="M114.543 173.206C105.298 173.879 88.3743 174.853 82.5183 173.389C82.5183 173.389 82.8111 166.34 82.8258 159.005C82.8258 155.814 82.7892 152.571 82.6428 149.826C82.5256 147.63 82.3792 145.375 82.167 143.004C82.0059 141.137 81.8083 139.212 81.5667 137.25C81.5082 136.723 81.4423 136.189 81.3691 135.662C81.1568 133.971 80.9006 132.287 80.6371 130.611V130.567L83.4846 126.468L89.1429 118.313C89.1429 118.313 98.5564 122.12 102.465 116.688C106.348 119.589 109.885 122.927 113.006 126.636C113.16 127.368 113.306 128.202 113.453 129.044C114.437 134.841 115.085 140.69 115.392 146.561C115.916 155.45 115.632 164.368 114.543 173.206Z" fill="white"/>
<path d="M92.8103 127.91C97.7777 127.778 102.749 127.927 107.699 128.356C108.275 128.423 108.806 128.699 109.191 129.133C109.576 129.566 109.787 130.126 109.785 130.706C109.786 131.017 109.726 131.325 109.607 131.612C109.489 131.899 109.315 132.16 109.095 132.38C108.875 132.6 108.614 132.774 108.327 132.892C108.04 133.011 107.732 133.071 107.421 133.07H92.8761C92.27 133.071 91.6868 132.839 91.2468 132.422C90.8068 132.006 90.5437 131.436 90.5118 130.83V130.398C90.494 130.083 90.5399 129.767 90.6467 129.47C90.7535 129.172 90.9191 128.899 91.1335 128.667C91.348 128.435 91.6069 128.248 91.895 128.118C92.183 127.988 92.4943 127.917 92.8103 127.91Z" fill="#263238"/>
<path opacity="0.2" d="M77.9067 118.306C79.5979 124.518 80.8213 130.848 81.5667 137.243C81.8083 139.204 82.0059 141.13 82.167 142.996C82.3793 145.368 82.5257 147.652 82.6428 149.818C82.7892 152.563 82.8331 155.806 82.8258 158.998C82.8258 166.318 82.5183 173.382 82.5183 173.382C88.3743 174.846 105.298 173.872 114.543 173.199C115.632 164.358 115.917 155.438 115.392 146.546C115.087 140.675 114.442 134.826 113.46 129.03C112.963 125.935 112.274 122.874 111.396 119.865C111.056 118.798 110.417 117.852 109.556 117.137C108.694 116.422 107.646 115.969 106.535 115.832C105.415 115.693 104.12 115.554 102.758 115.473C102.231 115.473 101.704 115.422 101.17 115.414C96.8028 115.464 92.4426 115.767 88.1108 116.322C87.291 116.417 86.4565 116.542 85.6513 116.673C83.0428 117.081 80.4577 117.626 77.9067 118.306Z" fill="white"/>
<path d="M103.695 89.9555C103.695 89.9555 105.503 96.3019 101.719 99.8668C97.9342 103.432 96.0383 88.7916 96.0383 88.7916L103.695 89.9555Z" fill="#263238"/>
<path d="M88.0962 116.286C90.8997 118.833 97.7732 117.889 97.7732 117.889C97.7732 117.889 102.055 116.717 101.155 115.378C98.6297 114.961 97.4072 113.782 96.9022 112.274C96.6256 111.339 96.5385 110.359 96.6459 109.39C96.6879 108.85 96.7587 108.312 96.8582 107.78L88.367 101.492C89.4797 105.642 90.8412 113.277 88.0962 116.286Z" fill="#E4897B"/>
<path opacity="0.2" d="M90.3287 105.489C90.6655 110.613 94.8525 111.989 96.9167 112.274C96.6401 111.339 96.5531 110.359 96.6605 109.39L90.3287 105.489Z" fill="black"/>
<path d="M90.4167 107.692C91.4602 108.873 92.8626 109.679 94.4085 109.986C95.9544 110.292 97.5583 110.083 98.9738 109.39C100.818 108.527 102.267 106.997 103.029 105.108C103.132 104.852 103.227 104.581 103.307 104.303C104.771 99.2299 104.295 90.7387 98.8054 88.2499C96.928 87.3843 94.7837 87.2998 92.8441 88.0149C90.9044 88.7301 89.3282 90.1865 88.4622 92.0636C87.9392 93.1719 87.6883 94.3891 87.7302 95.6138C87.84 101.316 87.6497 104.676 90.4167 107.692Z" fill="#E4897B"/>
<path d="M96.3238 97.5536C96.2726 98.0148 96.5361 98.4028 96.8435 98.4101C97.151 98.4174 97.4072 98.0514 97.4291 97.5902C97.4511 97.1291 97.2095 96.7411 96.9094 96.7338C96.6093 96.7265 96.3458 97.0852 96.3238 97.5536Z" fill="#263238"/>
<path d="M101.572 97.7586C101.521 98.2198 101.785 98.6077 102.085 98.6224C102.385 98.637 102.648 98.2637 102.67 97.8025C102.692 97.3414 102.451 96.9534 102.151 96.9388C101.851 96.9241 101.587 97.356 101.572 97.7586Z" fill="#263238"/>
<path d="M99.896 97.927C100.39 99.3677 101.082 100.733 101.953 101.982C101.624 102.195 101.253 102.335 100.865 102.39C100.477 102.446 100.081 102.416 99.7057 102.304L99.896 97.927Z" fill="#DE5753"/>
<path d="M94.7647 95.7895C94.8142 95.8006 94.8659 95.7976 94.9138 95.7808C94.9617 95.764 95.0039 95.734 95.0355 95.6944C95.2461 95.4254 95.5166 95.2092 95.8254 95.0631C96.1341 94.9169 96.4728 94.8448 96.8143 94.8526C96.8499 94.8566 96.886 94.8536 96.9204 94.8436C96.9548 94.8336 96.9869 94.8169 97.0148 94.7944C97.0427 94.772 97.0659 94.7442 97.083 94.7127C97.1001 94.6812 97.1108 94.6466 97.1144 94.611C97.1207 94.5395 97.099 94.4683 97.054 94.4124C97.009 94.3564 96.9441 94.3201 96.8729 94.3109C96.4414 94.2918 96.0117 94.3762 95.6195 94.5571C95.2273 94.7379 94.884 95.0099 94.6183 95.3503C94.5682 95.401 94.5402 95.4694 94.5402 95.5406C94.5402 95.6119 94.5682 95.6803 94.6183 95.731C94.6632 95.7592 94.7128 95.779 94.7647 95.7895Z" fill="#263238"/>
<path d="M103.893 96.0457C103.945 96.0636 104.002 96.0636 104.054 96.0457C104.087 96.0329 104.117 96.0135 104.143 95.9887C104.168 95.9638 104.188 95.9341 104.202 95.9013C104.216 95.8685 104.223 95.8332 104.222 95.7976C104.222 95.7621 104.214 95.7269 104.2 95.6944C104.036 95.2936 103.779 94.9382 103.449 94.6579C103.119 94.3777 102.726 94.1808 102.304 94.084C102.233 94.0752 102.161 94.0936 102.102 94.1357C102.044 94.1778 102.004 94.2404 101.99 94.3109C101.981 94.3814 102 94.4526 102.042 94.5097C102.084 94.5669 102.147 94.6057 102.217 94.6183C102.545 94.7073 102.848 94.8713 103.102 95.0974C103.356 95.3235 103.554 95.6056 103.681 95.9213C103.704 95.9573 103.735 95.9874 103.772 96.009C103.809 96.0306 103.85 96.0432 103.893 96.0457Z" fill="#263238"/>
<path d="M94.8818 85.5122C94.201 85.5122 93.5203 85.5122 92.8395 85.5635C90.8712 85.6373 88.9677 86.2863 87.3641 87.4301C83.7773 90.2336 85.2121 96.0384 86.2076 99.7936C87.5325 104.786 89.8676 106.828 89.8676 106.828C88.345 104.566 88.0961 99.8009 88.8647 99.574C89.6333 99.347 89.6919 100.269 89.6919 100.269C91.3023 98.9444 92.4735 95.6578 91.6463 93.5569C91.0168 91.9392 92.7224 90.4606 94.3987 91.0462L94.9037 91.2145L95.687 91.4634L94.8818 85.5122Z" fill="#263238"/>
<path d="M85.073 100.189C85.6524 101.502 86.7292 102.531 88.0669 103.051C89.8456 103.724 90.907 102.18 90.563 100.408C90.2409 98.8346 88.938 96.5435 87.0787 96.6386C85.2194 96.7338 84.3776 98.5638 85.073 100.189Z" fill="#E4897B"/>
<path d="M98.9078 103.439C98.5484 104.022 98.2328 104.632 97.9635 105.262C97.8391 105.262 97.722 105.21 97.6049 105.174C96.0164 104.757 95.4089 104.039 95.2332 103.373C95.1558 103.043 95.1558 102.7 95.2332 102.37C95.269 102.181 95.3331 101.998 95.4235 101.829C96.2837 102.52 97.2821 103.019 98.3515 103.293C98.6955 103.388 98.9078 103.439 98.9078 103.439Z" fill="#263238"/>
<path d="M98.3661 103.285L98.0733 103.82C96.6093 103.424 95.5772 102.948 95.2258 102.356C95.2616 102.166 95.3258 101.984 95.4162 101.814C96.2821 102.511 97.2884 103.013 98.3661 103.285Z" fill="white"/>
<path d="M97.6048 105.174C96.0164 104.757 95.4088 104.039 95.2332 103.373C95.8356 103.543 96.4032 103.818 96.9094 104.186C97.2417 104.431 97.4856 104.778 97.6048 105.174Z" fill="#DE5753"/>
<path d="M85.2926 95.7749C85.2926 95.7749 84.3923 92.2906 84.5607 90.2849C84.729 88.2792 89.0185 83.9311 93.696 83.5139C98.3735 83.0966 99.552 83.5139 101.016 85.095C102.48 86.6761 103.519 90.8998 103.519 90.8998C103.519 90.8998 94.3475 88.733 85.2926 95.7749Z" fill="#9C33B0"/>
<path d="M85.2926 95.7749C85.2926 95.7749 93.8643 86.376 102.429 85.644C110.993 84.912 112.216 87.4594 104.068 92.232C104.068 92.232 99.0249 88.0303 85.2926 95.7749Z" fill="#9C33B0"/>
<path opacity="0.2" d="M85.2926 95.7749C85.2926 95.7749 93.8643 86.376 102.429 85.644C110.993 84.912 112.216 87.4594 104.068 92.232C104.068 92.232 99.0249 88.0303 85.2926 95.7749Z" fill="black"/>
<path opacity="0.2" d="M81.3691 135.662C81.1568 133.971 80.9006 132.287 80.6371 130.611V130.567C80.886 130.15 82.9282 126.731 83.1332 124.286C83.3053 125.008 83.4227 125.743 83.4846 126.482C83.7042 128.832 83.6017 132.594 81.3691 135.662Z" fill="black"/>
<path d="M81.0031 133.019C79.6197 137.953 71.37 148.501 64.8113 149.401C52.9749 151.026 47.4775 130.113 47.4775 130.113L55.6833 124.572C55.6833 124.572 59.8191 133.919 61.9565 135.354C64.599 137.133 73.3025 121.834 77.9068 118.306C77.9068 118.306 84.8169 119.455 81.0031 133.019Z" fill="#263238"/>
<path opacity="0.2" d="M81.0031 133.019C79.6197 137.953 71.37 148.501 64.8113 149.401C52.9749 151.026 47.4775 130.113 47.4775 130.113L55.6833 124.572C55.6833 124.572 59.8191 133.919 61.9565 135.354C64.599 137.133 73.3025 121.834 77.9068 118.306C77.9068 118.306 84.8169 119.455 81.0031 133.019Z" fill="white"/>
<path d="M199.624 125.904L204.696 122.376C205.262 121.328 205.942 120.346 206.724 119.448C207.734 118.394 210.918 116.739 211.789 116.842C212.661 116.944 216.672 119.836 215.098 121.358C213.524 122.881 209.681 124.799 209.037 124.564L208.393 124.33L202.032 129.454L199.624 125.904Z" fill="#EEC1BB"/>
<path d="M206.724 126.79C206.724 126.79 192.736 139.08 187.392 141.752C184.771 143.069 178.608 145.192 173.074 146.993C167.364 148.845 162.277 150.367 162.277 150.367L161.391 148.72L156.333 139.314C156.333 139.314 182.758 135.654 185.079 134.681C187.399 133.707 203.24 122.361 203.24 122.361L206.724 126.79Z" fill="#263238"/>
<path opacity="0.2" d="M173.096 146.993C167.386 148.845 162.299 150.367 162.299 150.367L161.413 148.72V144.387C161.413 144.387 169.502 144.643 173.096 146.993Z" fill="black"/>
<path d="M122.771 189.442L119.287 194.566C119.121 195.74 118.832 196.893 118.423 198.006C117.845 199.353 115.458 202.025 114.609 202.237C113.76 202.449 108.973 201.168 109.91 199.192C110.847 197.215 113.753 194.068 114.441 194.068H115.122L119.257 187.033L122.771 189.442Z" fill="#EEC1BB"/>
<path d="M147.198 110.979C151.121 110.927 159.137 117.83 159.137 117.83C159.137 117.83 161.508 128.078 163.726 130.179L162.028 130.911L160.608 128.759L161.413 131.87C161.413 131.87 154.32 135.039 148.472 135.347C142.623 135.654 139.922 134.476 139.922 134.476L140.507 131.87L139.373 134.11L136.972 133.092C138.093 129.157 138.896 125.137 139.373 121.073C139.922 115.356 147.198 110.979 147.198 110.979Z" fill="#263238"/>
<path d="M156.179 270.437C151.751 276.001 147.776 281.044 144.306 284.726C140.844 288.452 139.058 290.765 139.058 290.765L135.625 288.796C135.625 288.796 138.794 283.782 143.091 276.864C146.751 271.008 151.224 263.762 155.286 257.049C160.549 248.382 165.11 240.608 166.318 237.827C167.174 235.85 164.854 228.26 162.277 221.101C159.664 213.817 156.794 206.966 156.794 206.966L166.164 191.125C166.164 191.125 169.97 201.673 173.352 212.8C175.548 220.12 177.605 227.623 178.286 232.63C179.23 239.62 167.159 256.617 156.179 270.437Z" fill="#EEC1BB"/>
<path opacity="0.2" d="M156.209 270.437C151.817 276.001 147.535 281.044 144.372 284.726C143.918 282.464 143.465 279.785 143.099 276.864C146.759 271.008 151.231 263.762 155.294 257.049C155.205 261.53 155.512 266.01 156.209 270.437Z" fill="black"/>
<path opacity="0.2" d="M173.338 212.8L162.277 221.101C159.664 213.817 156.794 206.966 156.794 206.966L166.164 191.125C166.164 191.125 169.956 201.673 173.338 212.8Z" fill="black"/>
<path d="M154.02 298.854L150.06 299.388C150.06 299.388 144.336 271.228 144.511 247.987C142.389 240.298 140.731 232.488 139.548 224.6C138.143 215.084 137.455 204.484 139.307 196.579L153.178 202.823L153.464 223.626L153.698 240.967L154.02 298.854Z" fill="#EEC1BB"/>
<path opacity="0.2" d="M153.434 223.611L139.526 224.585C138.121 215.069 137.433 204.47 139.285 196.564L153.156 202.808L153.434 223.611Z" fill="black"/>
<path d="M135.852 286.607C136.262 286.307 139.717 291.482 139.717 291.482C139.717 291.482 138.948 296.877 140.507 300.354C142.067 303.831 139.043 303.531 136.518 300.237L130.296 292.068C128.51 289.748 131.621 289.689 135.852 286.607Z" fill="#263238"/>
<path d="M140.888 295.384C140.105 295.201 139.592 292.968 139.497 292.522V292.456C139.497 292.456 139.497 292.456 139.497 292.405V292.361H139.548C139.622 292.361 141.086 291.878 141.869 292.361C141.99 292.429 142.094 292.522 142.175 292.635C142.256 292.747 142.311 292.876 142.337 293.012C142.403 293.32 142.337 293.532 142.176 293.649C142.015 293.766 141.371 293.686 140.851 293.444C141.203 293.768 141.456 294.184 141.583 294.645C141.6 294.736 141.596 294.829 141.573 294.919C141.551 295.008 141.509 295.092 141.452 295.164C141.396 295.249 141.321 295.319 141.233 295.37C141.146 295.421 141.048 295.45 140.947 295.457L140.888 295.384ZM140.961 295.069C140.961 295.069 141.093 295.069 141.247 294.901C141.276 294.863 141.298 294.819 141.309 294.773C141.32 294.726 141.322 294.677 141.313 294.63C141.247 294.118 140.471 293.364 139.929 292.91C140.171 293.869 140.595 294.996 140.961 295.069ZM140.061 292.551C140.895 293.071 141.818 293.481 142.052 293.283C142.118 293.239 142.096 293.078 142.052 292.983C142.034 292.892 141.996 292.807 141.942 292.732C141.888 292.658 141.818 292.596 141.737 292.551C141.51 292.438 141.259 292.383 141.005 292.39C140.685 292.409 140.369 292.463 140.061 292.551Z" fill="#9C33B0"/>
<path d="M148.596 296.833C148.596 296.328 154.811 296.724 154.811 296.724C154.811 296.724 158.632 300.603 162.343 301.482C166.054 302.36 163.975 304.578 159.832 304.578H149.584C146.649 304.578 148.494 302.067 148.596 296.833Z" fill="#263238"/>
<path d="M155.528 297.521C155.508 297.514 155.491 297.501 155.477 297.485C155.475 297.47 155.475 297.455 155.477 297.441C155.474 297.424 155.474 297.407 155.477 297.39C155.477 297.39 155.477 297.338 155.477 297.324C155.477 297.309 156.018 295.809 156.86 295.457C156.985 295.399 157.121 295.37 157.259 295.37C157.397 295.37 157.533 295.399 157.658 295.457C157.944 295.596 158.083 295.772 158.068 295.984C158.053 296.196 157.607 296.636 157.102 296.907C157.571 296.826 158.053 296.879 158.493 297.06C158.575 297.102 158.648 297.161 158.706 297.233C158.764 297.305 158.806 297.388 158.829 297.478C158.874 297.59 158.883 297.713 158.856 297.831C158.828 297.949 158.765 298.055 158.676 298.136C158.516 298.25 158.322 298.305 158.127 298.29C157.221 298.191 156.341 297.931 155.528 297.521ZM156.092 297.419C157.007 297.807 158.149 298.151 158.441 297.909C158.441 297.909 158.544 297.822 158.478 297.58C158.465 297.534 158.442 297.49 158.412 297.453C158.382 297.415 158.345 297.384 158.302 297.36C158.072 297.259 157.821 297.214 157.57 297.229C157.072 297.242 156.577 297.306 156.092 297.419ZM156.955 295.765C156.464 296.079 156.091 296.548 155.894 297.097C156.809 296.745 157.695 296.262 157.717 295.984C157.717 295.896 157.578 295.816 157.49 295.779C157.401 295.737 157.303 295.714 157.204 295.713C157.119 295.713 157.034 295.73 156.955 295.765Z" fill="#9C33B0"/>
<path d="M159.576 217.199L174.589 209.352C169.875 195.019 165.622 186.887 165.622 186.887C150.88 189.412 152.227 201.066 152.227 201.066C152.227 201.066 155.982 208.825 159.576 217.199Z" fill="#9C33B0"/>
<path opacity="0.2" d="M158.632 214.988C158.954 215.72 159.269 216.452 159.591 217.184L174.589 209.352C169.875 195.019 165.622 186.887 165.622 186.887C156.524 188.453 153.552 193.475 152.607 197.135C152.261 198.422 152.13 199.758 152.219 201.088C152.219 201.088 155.338 207.507 158.632 214.988Z" fill="white"/>
<path opacity="0.2" d="M158.632 214.988C155.338 207.507 152.219 201.08 152.219 201.08C152.13 199.75 152.261 198.415 152.607 197.128C153.077 196.82 153.597 196.599 154.145 196.476C154.145 196.476 158.156 202.764 158.632 214.988Z" fill="black"/>
<path d="M154.95 220.434L154.452 196.447L166.34 192.977C166.34 192.977 165.41 181.997 164.019 176.544C164.019 176.544 144.709 171.735 141.766 178.286C141.766 178.286 141.766 178.388 141.722 178.425L141.679 178.484C141.679 178.484 136.13 188.241 137.784 220.434H154.95Z" fill="#9C33B0"/>
<path opacity="0.2" d="M154.95 220.434L154.452 196.447L166.34 192.977C166.34 192.977 165.41 181.997 164.019 176.544C164.019 176.544 144.709 171.735 141.766 178.286C141.766 178.286 141.766 178.388 141.722 178.425L141.679 178.484C141.679 178.484 136.13 188.241 137.784 220.434H154.95Z" fill="white"/>
<path d="M141.532 174.963V178.235L163.726 176.522V172.65L141.532 174.963Z" fill="#9C33B0"/>
<path d="M149.062 173.573L147.951 173.63L148.24 179.281L149.351 179.224L149.062 173.573Z" fill="#9C33B0"/>
<path d="M158.746 173.439L153.853 173.878L154.185 177.581L159.077 177.143L158.746 173.439Z" fill="white"/>
<path d="M162.722 172.079L161.611 172.136L161.9 177.787L163.011 177.73L162.722 172.079Z" fill="#9C33B0"/>
<path opacity="0.2" d="M149.062 173.573L147.951 173.63L148.24 179.281L149.351 179.224L149.062 173.573Z" fill="white"/>
<path opacity="0.2" d="M162.722 172.079L161.611 172.136L161.9 177.787L163.011 177.73L162.722 172.079Z" fill="white"/>
<path d="M163.968 173.045L141.635 174.948C141.469 171.49 141.11 168.044 140.559 164.627C139.906 160.945 139.033 157.305 137.945 153.727C137.309 151.531 136.555 149.174 135.654 146.459C135.23 145.16 134.764 143.787 134.256 142.337C137.291 141.365 140.393 140.616 143.538 140.097C146.857 139.521 150.213 139.181 153.581 139.08C157.929 139.08 162.929 139.534 162.929 139.534C162.929 139.534 163.661 139.71 164.085 144.314C164.495 148.633 164.898 157.292 163.968 173.045Z" fill="#263238"/>
<path d="M136.335 219.454L155.923 219.278L155.579 222.228L137.199 222.052L136.335 219.454Z" fill="#9C33B0"/>
<path d="M158.354 217.023L174.648 208.181L175.519 210.779L159.737 218.582L158.354 217.023Z" fill="#9C33B0"/>
<path d="M151.736 144.006C146.224 143.274 144.563 140.939 144.563 140.939C146.817 138.824 146.407 135.684 145.836 133.729C145.661 133.111 145.433 132.508 145.156 131.928L151.795 133.165C151.638 134.09 151.55 135.024 151.531 135.962C151.513 136.652 151.577 137.343 151.722 138.019C152.175 140.002 153.303 140.024 153.303 140.024C154.452 142.206 151.736 144.006 151.736 144.006Z" fill="#EEC1BB"/>
<path opacity="0.2" d="M151.524 135.962C151.506 136.652 151.57 137.343 151.714 138.019C149.079 137.667 147.081 135.559 145.858 133.729C145.683 133.111 145.455 132.508 145.177 131.928L151.817 133.165C151.65 134.089 151.552 135.024 151.524 135.962Z" fill="black"/>
<path d="M150.441 114.792C156.209 115.005 157.951 118.167 158.156 124.133C158.405 131.584 156.567 136.803 149.409 134.944C139.688 132.426 140.851 114.441 150.441 114.792Z" fill="#EEC1BB"/>
<path d="M154.452 123.708C154.882 124.586 155.415 125.409 156.04 126.16C155.864 126.393 155.626 126.573 155.353 126.679C155.08 126.785 154.784 126.813 154.496 126.76L154.452 123.708Z" fill="#D4827D"/>
<path d="M151.012 119.074C150.558 119.002 150.093 119.035 149.654 119.171C149.215 119.307 148.813 119.542 148.479 119.858" stroke="#263238" stroke-width="0.707962" stroke-linecap="round" stroke-linejoin="round"/>
<path d="M155.184 118.987C155.583 118.903 155.995 118.91 156.39 119.008C156.786 119.105 157.154 119.291 157.468 119.55" stroke="#263238" stroke-width="0.707962" stroke-linecap="round" stroke-linejoin="round"/>
<path d="M153.559 128.956C153.266 129.599 153.021 130.262 152.827 130.94L152.461 130.889C150.785 130.655 150.089 129.996 149.818 129.337C149.696 129.01 149.653 128.659 149.694 128.312C149.71 128.115 149.752 127.921 149.818 127.734C150.786 128.342 151.876 128.729 153.01 128.869C153.332 128.934 153.559 128.956 153.559 128.956Z" fill="#263238"/>
<path d="M152.988 128.869L152.754 129.447C151.173 129.227 150.097 128.861 149.672 128.312C149.688 128.115 149.73 127.921 149.796 127.734C150.764 128.342 151.854 128.729 152.988 128.869Z" fill="white"/>
<path d="M152.439 130.889C150.763 130.655 150.067 129.996 149.796 129.337C150.431 129.438 151.042 129.649 151.604 129.959C151.97 130.178 152.261 130.502 152.439 130.889Z" fill="#DE5753"/>
<path d="M143.772 124.286C143.772 124.286 146.649 119.645 146.371 115.971C146.371 115.971 157.98 111.718 158.083 123.349C158.083 123.349 159.547 113.101 149.665 112.486C139.783 111.872 139.256 126.394 144.219 130.918C144.255 130.918 142.008 127.192 143.772 124.286Z" fill="#263238"/>
<path d="M144.665 125.538C144.651 125.206 144.572 124.881 144.431 124.58C144.291 124.278 144.093 124.008 143.848 123.784C143.604 123.559 143.317 123.385 143.005 123.272C142.693 123.158 142.362 123.108 142.03 123.122C140.236 123.254 139.248 126.892 143.662 127.939C144.292 128.1 144.68 127.478 144.665 125.538Z" fill="#EEC1BB"/>
<path d="M147.198 110.979C150.316 110.115 158.639 109.998 160.608 118.606L159.451 119.184C157.496 118.204 155.382 117.579 153.208 117.34C152.745 116.517 152.204 115.743 151.59 115.026C151.653 115.757 151.653 116.492 151.59 117.222C151.59 117.222 146.158 118.013 143.728 120.224C139.914 123.693 139.687 125.889 139.687 125.889C139.687 125.889 137.038 113.804 147.198 110.979Z" fill="#263238"/>
<path d="M146.737 111.615C146.737 111.615 157.892 107.743 161.377 118.32" stroke="#263238" stroke-width="0.488465" stroke-linecap="round" stroke-linejoin="round"/>
<path d="M149.328 123.071C149.328 123.071 150.682 121.922 151.319 123.466C150.699 123.168 150.014 123.032 149.328 123.071Z" fill="#263238"/>
<path d="M155.755 123.928C155.755 123.928 156.487 122.361 157.497 123.466C156.888 123.479 156.291 123.637 155.755 123.928Z" fill="#263238"/>
<path opacity="0.3" d="M157.951 147.249H161.186C161.304 147.254 161.418 147.288 161.52 147.347C161.622 147.405 161.708 147.488 161.771 147.587C161.834 147.686 161.873 147.799 161.883 147.916C161.893 148.033 161.875 148.151 161.831 148.259L160.491 151.143C160.433 151.253 160.348 151.346 160.244 151.413C160.14 151.481 160.02 151.521 159.897 151.529C159.773 151.538 159.649 151.515 159.537 151.463C159.424 151.411 159.327 151.331 159.254 151.231L157.351 148.354C157.286 148.245 157.251 148.121 157.248 147.995C157.246 147.868 157.276 147.743 157.337 147.631C157.397 147.52 157.486 147.426 157.593 147.359C157.701 147.292 157.824 147.254 157.951 147.249Z" fill="white"/>
<path opacity="0.2" d="M140.544 164.656C139.891 160.974 139.018 157.334 137.931 153.757L139.146 151.561C140.671 155.747 141.151 160.242 140.544 164.656Z" fill="black"/>
<path d="M134.256 142.367C132.163 145.017 131.218 164.012 126.98 171.713C122.742 179.413 116.783 189.866 116.783 189.866L121.131 193.643C121.131 193.643 134.52 178.008 136.657 171.998C138.794 165.988 139.373 158.002 139.373 158.002C140.544 147.249 134.256 142.367 134.256 142.367Z" fill="#263238"/>
<path opacity="0.6" d="M135.852 286.607C136.262 286.307 139.717 291.482 139.717 291.482C139.717 291.482 138.948 296.877 140.507 300.354C142.067 303.831 139.043 303.531 136.518 300.237L130.296 292.068C128.51 289.748 131.621 289.689 135.852 286.607Z" fill="white"/>
<path opacity="0.6" d="M148.596 296.833C148.596 296.328 154.811 296.724 154.811 296.724C154.811 296.724 158.632 300.603 162.343 301.482C166.054 302.36 163.975 304.578 159.832 304.578H149.584C146.649 304.578 148.494 302.067 148.596 296.833Z" fill="white"/>
<path d="M179.296 156.45C183.059 157.966 186.243 154.196 186.389 149.709C186.389 149.709 189.822 147.513 193.709 145.126C196.64 143.285 199.662 141.595 202.764 140.061C203.271 139.824 203.712 139.464 204.045 139.014C207.046 135.12 205.663 123.898 205.663 123.898C198.709 124.674 184.815 137.272 178.732 143.348C172.65 149.423 175.534 154.928 179.296 156.45Z" fill="#9C33B0"/>
<path opacity="0.2" d="M193.709 145.126C196.64 143.285 199.662 141.595 202.764 140.061C203.271 139.824 203.712 139.464 204.045 139.014L199.17 134.688C199.17 134.688 194.829 140.332 193.709 145.126Z" fill="black"/>
<path d="M202.193 299.124L196.257 299.754L195.137 286.944L201.08 286.314L202.193 299.124Z" fill="#EBB376"/>
<path d="M231.824 298.693H226.071L225.595 285.363H231.356L231.824 298.693Z" fill="#EBB376"/>
<path d="M225.273 298.026H232.264C232.378 298.026 232.49 298.065 232.579 298.137C232.669 298.209 232.73 298.309 232.754 298.422L233.889 303.546C233.934 303.766 233.89 303.995 233.767 304.183C233.643 304.371 233.45 304.503 233.23 304.549C233.169 304.556 233.108 304.556 233.047 304.549C230.785 304.512 229.138 304.373 226.298 304.373C224.548 304.373 219.271 304.556 216.855 304.556C214.439 304.556 214.125 302.17 215.113 301.95C219.549 300.984 222.887 299.644 224.307 298.371C224.573 298.136 224.919 298.013 225.273 298.026Z" fill="#263238"/>
<path d="M223.37 299.037C222.979 299.066 222.59 298.963 222.265 298.744C222.158 298.657 222.076 298.544 222.025 298.415C221.975 298.287 221.959 298.148 221.979 298.012C221.976 297.932 221.997 297.854 222.039 297.786C222.08 297.718 222.141 297.664 222.213 297.631C222.85 297.302 224.709 298.444 224.914 298.576C224.938 298.588 224.957 298.607 224.969 298.631C224.981 298.654 224.985 298.681 224.98 298.707C224.977 298.735 224.965 298.761 224.947 298.782C224.929 298.802 224.905 298.817 224.878 298.824C224.384 298.95 223.879 299.021 223.37 299.037ZM222.528 297.844C222.467 297.837 222.406 297.85 222.352 297.88C222.316 297.88 222.272 297.931 222.265 298.041C222.253 298.132 222.264 298.223 222.296 298.309C222.328 298.394 222.38 298.471 222.448 298.532C223.093 298.824 223.826 298.861 224.497 298.634C223.898 298.245 223.23 297.976 222.528 297.844Z" fill="#9C33B0"/>
<path d="M224.841 298.832H224.775C224.182 298.51 223.033 297.243 223.15 296.636C223.171 296.534 223.226 296.443 223.306 296.378C223.386 296.312 223.486 296.277 223.589 296.277C223.693 296.263 223.798 296.272 223.898 296.302C223.997 296.333 224.089 296.384 224.168 296.453C224.834 296.994 224.973 298.649 224.98 298.729C224.981 298.754 224.975 298.778 224.963 298.8C224.952 298.822 224.935 298.84 224.914 298.854C224.888 298.854 224.863 298.847 224.841 298.832ZM223.685 296.497H223.619C223.443 296.497 223.428 296.599 223.421 296.636C223.348 297.009 224.08 297.968 224.673 298.414C224.636 297.759 224.398 297.13 223.992 296.614C223.906 296.54 223.798 296.499 223.685 296.497Z" fill="#9C33B0"/>
<path d="M195.627 297.843H202.618C202.732 297.843 202.844 297.882 202.933 297.954C203.023 298.026 203.084 298.126 203.108 298.239L204.243 303.363C204.288 303.583 204.244 303.812 204.121 304C203.997 304.188 203.804 304.32 203.584 304.366C203.523 304.373 203.462 304.373 203.401 304.366C201.139 304.329 199.492 304.19 196.652 304.19C194.902 304.19 189.625 304.373 187.209 304.373C184.793 304.373 184.479 301.987 185.467 301.767C189.903 300.801 193.241 299.461 194.661 298.188C194.927 297.953 195.273 297.83 195.627 297.843Z" fill="#263238"/>
<path d="M193.724 298.854C193.333 298.883 192.943 298.78 192.618 298.561C192.512 298.474 192.429 298.361 192.379 298.232C192.329 298.104 192.313 297.965 192.333 297.829C192.33 297.749 192.351 297.671 192.392 297.603C192.434 297.535 192.495 297.481 192.567 297.448C193.204 297.119 195.063 298.261 195.268 298.392C195.292 298.405 195.311 298.424 195.323 298.448C195.335 298.471 195.339 298.498 195.334 298.524C195.331 298.552 195.319 298.578 195.301 298.598C195.283 298.619 195.258 298.634 195.232 298.641C194.738 298.767 194.233 298.838 193.724 298.854ZM192.867 297.66C192.806 297.654 192.745 297.667 192.692 297.697C192.655 297.697 192.611 297.748 192.604 297.858C192.592 297.949 192.603 298.04 192.635 298.126C192.667 298.211 192.719 298.288 192.787 298.349C193.432 298.641 194.165 298.678 194.836 298.451C194.238 298.062 193.569 297.793 192.867 297.66Z" fill="#9C33B0"/>
<path d="M195.195 298.656H195.129C194.536 298.334 193.387 297.068 193.504 296.46C193.525 296.359 193.579 296.267 193.66 296.202C193.74 296.137 193.84 296.101 193.943 296.101C194.047 296.088 194.152 296.096 194.251 296.127C194.351 296.157 194.443 296.208 194.522 296.277C195.188 296.819 195.327 298.473 195.334 298.554C195.335 298.578 195.329 298.602 195.317 298.624C195.306 298.646 195.289 298.664 195.268 298.678C195.242 298.679 195.217 298.671 195.195 298.656ZM194.039 296.321H193.98C193.804 296.321 193.79 296.423 193.782 296.46C193.709 296.833 194.441 297.792 195.034 298.239C194.997 297.583 194.759 296.954 194.353 296.438C194.266 296.361 194.155 296.316 194.039 296.314V296.321Z" fill="#9C33B0"/>
<path opacity="0.2" d="M201.08 286.314L195.137 286.944L195.722 293.547L201.659 292.924L201.08 286.314Z" fill="black"/>
<path opacity="0.2" d="M231.356 285.37H225.595L225.844 292.244H231.605L231.356 285.37Z" fill="black"/>
<path d="M228.977 174.297H198.438C195.51 190.152 186.448 240.418 192.963 290.414L203.306 289.14C203.306 289.14 202.347 228.618 211.475 204.082C212.529 217.214 213.773 225.31 214.857 232.769C217.514 251.069 223.201 291.058 223.201 291.058H233.728C233.728 291.058 231.576 252.782 230.58 234.796C229.489 215.259 229.021 178.308 228.977 174.297Z" fill="#263238"/>
<path d="M191.784 292.822L204.579 290.919L204.191 287.376L190.876 289.125L191.784 292.822Z" fill="#9C33B0"/>
<path d="M221.935 291.138H234.35V287.427L221.467 287.186L221.935 291.138Z" fill="#9C33B0"/>
<path opacity="0.2" d="M211.475 204.074C209.974 208.364 208.833 212.771 208.064 217.25C207.207 205.538 210.626 193.168 210.626 193.168L211.475 204.074Z" fill="black"/>
<path d="M234.24 126.358C232.549 132.57 231.325 138.9 230.58 145.295C230.338 147.256 230.141 149.182 229.98 151.048C229.767 153.42 229.621 155.704 229.504 157.87C229.358 160.615 229.314 163.858 229.321 167.05C229.321 174.37 229.628 179.238 229.628 179.238C223.772 180.702 206.849 179.728 197.603 179.055C196.516 170.95 196.232 162.759 196.754 154.598C197.062 148.727 197.71 142.878 198.694 137.082C199.191 133.987 199.88 130.926 200.758 127.917C201.098 126.85 201.737 125.904 202.598 125.189C203.46 124.474 204.508 124.021 205.619 123.884C206.739 123.745 208.034 123.606 209.396 123.525C209.923 123.525 210.45 123.474 210.984 123.466C215.351 123.516 219.711 123.819 224.043 124.374C224.863 124.469 225.698 124.594 226.503 124.726C229.109 125.133 231.691 125.678 234.24 126.358Z" fill="#9C33B0"/>
<path d="M224.08 124.338C221.276 126.885 214.41 125.941 214.41 125.941C214.41 125.941 210.121 124.769 211.021 123.43C213.546 123.013 214.769 121.834 215.274 120.326C215.55 119.391 215.638 118.411 215.53 117.442C215.488 116.902 215.417 116.364 215.318 115.832L215.837 115.451L217.609 114.133L223.809 109.544C223.231 111.685 222.823 113.868 222.587 116.073C222.308 118.178 222.445 120.316 222.989 122.368C223.21 123.094 223.582 123.765 224.08 124.338Z" fill="#EBB376"/>
<path opacity="0.2" d="M230.807 143.714C231.019 142.023 231.275 140.339 231.539 138.663V138.619C231.29 138.202 229.248 134.783 229.043 132.338C228.871 133.06 228.753 133.795 228.691 134.534C228.472 136.884 228.574 140.646 230.807 143.714Z" fill="black"/>
<path d="M245.989 161.494L236.436 180.65C233.815 181.06 231.034 192.274 230.39 193.233C229.746 194.192 237.973 194.053 238.683 193.233C239.393 192.414 242.431 185.328 241.436 183.264L253.814 164.393C253.814 164.393 251.457 160.535 245.989 161.494Z" fill="#EBB376"/>
<path d="M234.24 126.358C235.506 126.219 257.035 145.295 256.742 155.638C256.449 165.981 253.558 166.303 253.558 166.303L245.506 164.634C245.506 164.634 247.299 155.792 245.366 153.801C243.434 151.809 231.166 141.034 231.166 141.034C231.166 141.034 226.971 127.163 234.24 126.358Z" fill="#9C33B0"/>
<path opacity="0.6" d="M204.03 134.454C204.03 134.454 217.646 135.069 223.165 136.401C223.165 136.401 220.779 155.982 220.823 161.831C220.823 161.831 205.326 161.15 200.934 160.945C200.934 160.945 202.64 140.032 204.03 134.454Z" fill="white"/>
<path d="M182.012 147.249L200.971 149.489C202.559 147.732 212.28 151.143 213.312 151.136C214.344 151.129 210.216 157.19 209.279 157.336C208.342 157.482 201.556 156.26 200.495 154.511H180.365C180.365 154.511 178.608 150.858 182.012 147.249Z" fill="#EBB376"/>
<path opacity="0.2" d="M222.989 122.368C218.561 122.852 216.606 118.233 215.838 115.451L217.609 114.133C219.3 114.696 220.961 115.343 222.587 116.073C222.308 118.178 222.445 120.316 222.989 122.368Z" fill="black"/>
<path d="M230.58 99.9619C230.58 99.9619 231.554 106.491 227.345 109.536C223.136 112.582 223.136 97.8245 223.136 97.8245L230.58 99.9619Z" fill="#263238"/>
<path d="M215.157 115.839C216.039 117.145 217.325 118.125 218.818 118.628C220.311 119.132 221.928 119.132 223.421 118.628C225.363 118.01 226.997 116.678 227.996 114.902C228.135 114.665 228.262 114.42 228.377 114.17C230.448 109.324 231.107 100.848 225.983 97.6708C224.856 96.9631 223.567 96.5553 222.239 96.4861C220.91 96.417 219.586 96.6887 218.392 97.2755C217.197 97.8623 216.173 98.7446 215.416 99.8388C214.659 100.933 214.194 102.202 214.066 103.527C213.437 109.185 212.8 112.486 215.157 115.839Z" fill="#EBB376"/>
<path d="M222.323 106.55C222.213 106.996 222.418 107.414 222.726 107.465C223.033 107.516 223.326 107.187 223.406 106.733C223.487 106.279 223.304 105.862 223.004 105.811C222.704 105.759 222.404 106.089 222.323 106.55Z" fill="#263238"/>
<path d="M227.491 107.428C227.389 107.882 227.601 108.299 227.894 108.351C228.186 108.402 228.501 108.065 228.582 107.619C228.662 107.172 228.472 106.748 228.179 106.704C227.886 106.66 227.572 106.996 227.491 107.428Z" fill="#263238"/>
<path d="M225.815 107.377C226.117 108.871 226.627 110.315 227.33 111.667C226.975 111.833 226.588 111.919 226.195 111.919C225.803 111.919 225.416 111.833 225.061 111.667L225.815 107.377Z" fill="#D58745"/>
<path d="M221.005 104.603C221.053 104.618 221.105 104.62 221.154 104.608C221.203 104.597 221.248 104.572 221.284 104.537C221.528 104.298 221.824 104.119 222.15 104.015C222.475 103.911 222.82 103.884 223.158 103.937C223.227 103.952 223.3 103.939 223.361 103.901C223.421 103.862 223.464 103.801 223.48 103.732C223.488 103.698 223.49 103.662 223.485 103.627C223.479 103.592 223.467 103.559 223.449 103.529C223.43 103.499 223.406 103.473 223.377 103.452C223.349 103.432 223.316 103.417 223.282 103.41C222.857 103.334 222.42 103.361 222.007 103.488C221.595 103.615 221.219 103.839 220.91 104.142C220.86 104.192 220.832 104.261 220.832 104.332C220.832 104.403 220.86 104.472 220.91 104.522C220.938 104.554 220.97 104.581 221.005 104.603Z" fill="#263238"/>
<path d="M230.024 106.03C230.07 106.057 230.124 106.07 230.177 106.067C230.247 106.046 230.305 106 230.341 105.937C230.376 105.874 230.386 105.8 230.368 105.73C230.255 105.312 230.044 104.926 229.752 104.605C229.461 104.285 229.097 104.038 228.691 103.885C228.657 103.874 228.621 103.87 228.586 103.873C228.55 103.877 228.515 103.887 228.484 103.904C228.452 103.921 228.424 103.945 228.402 103.973C228.38 104.001 228.364 104.034 228.355 104.068C228.336 104.137 228.345 104.211 228.379 104.273C228.413 104.336 228.47 104.383 228.538 104.405C228.855 104.531 229.138 104.728 229.366 104.982C229.593 105.237 229.758 105.54 229.848 105.869C229.864 105.907 229.888 105.941 229.918 105.969C229.949 105.997 229.985 106.018 230.024 106.03Z" fill="#263238"/>
<path d="M222.44 94.428C221.767 94.3328 221.093 94.2523 220.412 94.223C218.451 94.0392 216.479 94.4336 214.739 95.3576C210.823 97.6781 211.497 103.622 212.002 107.472C212.675 112.596 214.688 114.917 214.688 114.917C213.466 112.472 213.832 107.714 214.622 107.597C215.413 107.48 215.354 108.387 215.354 108.387C217.126 107.289 218.714 104.178 218.165 101.982C217.741 100.299 219.629 99.0542 221.21 99.8448L221.693 100.079L222.425 100.43L222.44 94.428Z" fill="#263238"/>
<path d="M210.816 107.706C211.015 108.389 211.347 109.026 211.793 109.58C212.239 110.134 212.79 110.594 213.415 110.935C215.091 111.835 216.343 110.437 216.233 108.636C216.116 107.04 215.12 104.595 213.268 104.456C211.416 104.317 210.347 106.008 210.816 107.706Z" fill="#EBB376"/>
<path d="M212.046 99.0982C212.046 99.0982 211.314 93.2861 218.077 92.3125C224.841 91.339 230.704 89.8237 230.704 89.8237C230.704 89.8237 230.602 93.2422 229.358 94.2157C229.358 94.2157 231.788 94.3255 233.237 93.3593C233.237 93.3593 232.849 96.3532 231.978 97.4146L233.237 96.4483C233.097 97.5821 232.606 98.6438 231.833 99.4851C231.06 100.326 230.044 100.905 228.926 101.14C224.936 102.048 217.485 99.0982 217.485 99.0982H212.046Z" fill="#263238"/>
<path d="M224.885 113.606C224.452 114.141 224.058 114.706 223.707 115.297C223.597 115.253 223.48 115.217 223.37 115.166C221.847 114.551 221.342 113.76 221.247 113.072C221.209 112.735 221.251 112.394 221.372 112.077C221.433 111.895 221.519 111.722 221.628 111.564C222.401 112.36 223.334 112.983 224.365 113.394C224.68 113.533 224.885 113.606 224.885 113.606Z" fill="#263238"/>
<path d="M224.365 113.394L224.007 113.877C222.543 113.299 221.642 112.691 221.371 112.077C221.433 111.895 221.519 111.722 221.628 111.564C222.401 112.36 223.334 112.983 224.365 113.394Z" fill="white"/>
<path d="M223.37 115.166C221.847 114.551 221.342 113.76 221.247 113.072C221.823 113.315 222.351 113.66 222.806 114.09C223.098 114.383 223.295 114.758 223.37 115.166Z" fill="#DE5753"/>
</svg>
