<svg width="500" height="500" viewBox="0 0 500 500" fill="none" xmlns="http://www.w3.org/2000/svg">
<path d="M500 382.4H0V382.65H500V382.4Z" fill="#EBEBEB"/>
<path d="M449.9 398.49H416.78V398.74H449.9V398.49Z" fill="#EBEBEB"/>
<path d="M331.22 401.21H322.53V401.46H331.22V401.21Z" fill="#EBEBEB"/>
<path d="M415.78 389.21H396.59V389.46H415.78V389.21Z" fill="#EBEBEB"/>
<path d="M95.65 390.89H52.46V391.14H95.65V390.89Z" fill="#EBEBEB"/>
<path d="M110.89 390.89H104.56V391.14H110.89V390.89Z" fill="#EBEBEB"/>
<path d="M225.15 395.11H131.47V395.36H225.15V395.11Z" fill="#EBEBEB"/>
<path d="M237 337.8H43.91C42.3973 337.797 40.9475 337.195 39.8788 336.124C38.8102 335.054 38.21 333.603 38.21 332.09V60.66C38.2231 59.156 38.8292 57.718 39.8964 56.6582C40.9637 55.5985 42.4059 55.0026 43.91 55H237C238.514 55 239.967 55.6016 241.038 56.6724C242.108 57.7433 242.71 59.1956 242.71 60.71V332.09C242.71 333.604 242.108 335.057 241.038 336.128C239.967 337.198 238.514 337.8 237 337.8V337.8ZM43.91 55.2C42.4636 55.2026 41.0774 55.7791 40.0556 56.8027C39.0338 57.8264 38.46 59.2136 38.46 60.66V332.09C38.46 333.536 39.0338 334.924 40.0556 335.947C41.0774 336.971 42.4636 337.547 43.91 337.55H237C238.447 337.547 239.834 336.971 240.858 335.948C241.881 334.924 242.457 333.537 242.46 332.09V60.66C242.457 59.2127 241.881 57.8255 240.858 56.8021C239.834 55.7787 238.447 55.2026 237 55.2H43.91Z" fill="#EBEBEB"/>
<path d="M453.31 337.8H260.21C258.696 337.797 257.246 337.195 256.175 336.125C255.105 335.054 254.503 333.604 254.5 332.09V60.66C254.516 59.1551 255.124 57.7171 256.193 56.6576C257.262 55.5981 258.705 55.0025 260.21 55H453.31C454.812 55.0052 456.252 55.6022 457.317 56.6617C458.382 57.7212 458.987 59.1578 459 60.66V332.09C459 333.601 458.401 335.05 457.335 336.121C456.268 337.191 454.821 337.795 453.31 337.8V337.8ZM260.21 55.2C258.763 55.2026 257.375 55.7787 256.352 56.8021C255.329 57.8255 254.753 59.2127 254.75 60.66V332.09C254.753 333.537 255.329 334.924 256.352 335.948C257.375 336.971 258.763 337.547 260.21 337.55H453.31C454.757 337.547 456.145 336.971 457.168 335.948C458.191 334.924 458.767 333.537 458.77 332.09V60.66C458.767 59.2127 458.191 57.8255 457.168 56.8021C456.145 55.7787 454.757 55.2026 453.31 55.2H260.21Z" fill="#EBEBEB"/>
<path d="M98.71 258.08C100.93 174.94 169.24 108 252.9 108C336.56 108 404.9 174.94 407.09 258.08H440.16C437.93 156.71 354.79 74.93 252.9 74.93C151.01 74.93 67.9 156.71 65.64 258.08H98.71Z" fill="#F5F5F5"/>
<path d="M98.71 258.08C100.93 174.94 169.24 108 252.9 108C336.56 108 404.9 174.94 407.09 258.08H431.9C429.67 161.27 350.23 83.2 252.9 83.2C155.57 83.2 76.13 161.27 73.9 258.08H98.71Z" fill="#EBEBEB"/>
<path d="M98.71 258.08C100.93 174.94 169.24 108 252.9 108C336.56 108 404.9 174.94 407.09 258.08H423.63C421.4 165.82 345.68 91.47 252.9 91.47C160.12 91.47 84.39 165.82 82.17 258.08H98.71Z" fill="#FAFAFA"/>
<path d="M98.71 258.08C100.93 174.94 169.24 108 252.9 108C336.56 108 404.9 174.94 407.09 258.08H415.36C414.258 215.723 396.657 175.472 366.309 145.904C335.961 116.335 295.266 99.7878 252.895 99.7878C210.524 99.7878 169.829 116.335 139.481 145.904C109.133 175.472 91.5322 215.723 90.43 258.08H98.71Z" fill="#E0E0E0"/>
<path d="M443 368.7V382.4H57V368.7C56.9703 368.153 57.0513 367.605 57.238 367.09C57.4247 366.574 57.7134 366.102 58.0867 365.7C58.46 365.299 58.9104 364.977 59.411 364.754C59.9115 364.53 60.4519 364.41 61 364.4H439C439.548 364.41 440.088 364.53 440.589 364.754C441.09 364.977 441.54 365.299 441.913 365.7C442.287 366.102 442.575 366.574 442.762 367.09C442.949 367.605 443.03 368.153 443 368.7Z" fill="#EBEBEB"/>
<path d="M103 364.4H79V382.4H103V364.4Z" fill="#F5F5F5"/>
<path d="M148 364.4H125V382.4H148V364.4Z" fill="#F5F5F5"/>
<path d="M194 364.4H170V382.4H194V364.4Z" fill="#F5F5F5"/>
<path d="M239 364.4H216V382.4H239V364.4Z" fill="#F5F5F5"/>
<path d="M284 364.4H261V382.4H284V364.4Z" fill="#F5F5F5"/>
<path d="M330 364.4H306V382.4H330V364.4Z" fill="#F5F5F5"/>
<path d="M375 364.4H352V382.4H375V364.4Z" fill="#F5F5F5"/>
<path d="M421 364.4H397V382.4H421V364.4Z" fill="#F5F5F5"/>
<path d="M73.13 366.9C73.13 366.9 68.43 351.17 77.93 348.04C87.43 344.91 93.07 337.55 92.75 329.23C92.43 320.91 102.43 312.81 109.93 320.6C117.43 328.39 116.43 314.6 126.43 311.26C136.43 307.92 144.91 316.04 142.17 323.47C139.43 330.9 149.3 335.55 161.17 329.23C173.04 322.91 185.98 334.4 183.48 343.4C180.98 352.4 183.03 353.4 190.48 350.4C197.93 347.4 211.33 355.9 206.64 366.9C201.95 377.9 73.13 366.9 73.13 366.9Z" fill="#77B033"/>
<path d="M324.43 368.4C319.43 363.4 323.93 354.9 328.93 353.9C333.93 352.9 338.93 344.11 339.2 338.5C339.47 332.89 348.43 315.68 362.43 326.31C376.43 336.94 372.18 327.88 382.31 324.89C392.44 321.9 398.82 330.5 394.38 336.95C394.38 336.95 404.55 334.4 408.74 343.9C412.93 353.4 408.74 359.3 408.74 359.3C408.74 359.3 427.88 358.74 426.16 370.57C424.44 382.4 324.43 368.4 324.43 368.4Z" fill="#77B033"/>
<path d="M121.53 251.14C121.535 249.764 121.217 248.406 120.601 247.176C119.985 245.945 119.089 244.876 117.985 244.055C116.881 243.234 115.6 242.684 114.244 242.449C112.888 242.213 111.496 242.299 110.18 242.7C110.611 239.759 110.334 236.757 109.372 233.945C108.409 231.132 106.789 228.591 104.646 226.531C102.502 224.471 99.8985 222.952 97.0502 222.102C94.2019 221.251 91.1917 221.093 88.2699 221.64C86.4315 218.611 83.6571 216.262 80.3659 214.949C77.0748 213.636 73.4457 213.43 70.0271 214.362C66.6084 215.294 63.5858 217.313 61.416 220.114C59.2463 222.915 58.0472 226.347 57.9999 229.89H57.7299C53.7411 229.89 49.9156 231.475 47.0951 234.295C44.2745 237.116 42.6899 240.941 42.6899 244.93C42.6899 248.919 44.2745 252.744 47.0951 255.565C49.9156 258.385 53.7411 259.97 57.7299 259.97H113C115.291 259.897 117.464 258.934 119.056 257.285C120.649 255.637 121.536 253.432 121.53 251.14Z" fill="#E0E0E0"/>
<path d="M454.83 253.68C454.836 252.304 454.52 250.947 453.905 249.716C453.291 248.485 452.396 247.416 451.292 246.595C450.189 245.774 448.908 245.223 447.553 244.988C446.197 244.753 444.806 244.839 443.49 245.24C443.614 244.342 443.677 243.437 443.68 242.53C443.68 239.787 443.075 237.077 441.909 234.594C440.743 232.111 439.044 229.916 436.933 228.164C434.823 226.412 432.351 225.147 429.696 224.458C427.041 223.769 424.266 223.675 421.57 224.18C419.73 221.156 416.956 218.812 413.666 217.502C410.377 216.192 406.751 215.987 403.336 216.918C399.92 217.85 396.9 219.866 394.73 222.664C392.561 225.462 391.361 228.89 391.31 232.43H391C387.011 232.43 383.186 234.015 380.365 236.835C377.545 239.656 375.96 243.481 375.96 247.47C375.96 251.459 377.545 255.284 380.365 258.105C383.186 260.925 387.011 262.51 391 262.51H446.24C448.542 262.455 450.732 261.5 452.338 259.849C453.944 258.198 454.838 255.983 454.83 253.68V253.68Z" fill="#E0E0E0"/>
<path d="M437.45 159.08C437.45 157.587 436.857 156.155 435.801 155.099C434.745 154.043 433.313 153.45 431.82 153.45C431.275 153.449 430.733 153.527 430.21 153.68C430.29 153.11 430.331 152.535 430.33 151.96C430.335 150.391 430.031 148.837 429.434 147.386C428.837 145.935 427.96 144.617 426.853 143.505C425.745 142.394 424.43 141.513 422.981 140.911C421.532 140.31 419.979 140 418.41 140C417.672 140.001 416.936 140.068 416.21 140.2C415.035 138.269 413.263 136.773 411.163 135.936C409.063 135.1 406.748 134.97 404.567 135.565C402.386 136.16 400.458 137.448 399.073 139.234C397.688 141.021 396.922 143.21 396.89 145.47H396.72C394.226 145.55 391.862 146.598 390.126 148.39C388.39 150.183 387.42 152.58 387.42 155.075C387.42 157.57 388.39 159.967 390.126 161.76C391.862 163.552 394.226 164.6 396.72 164.68H432C433.457 164.633 434.838 164.024 435.855 162.979C436.871 161.935 437.443 160.537 437.45 159.08V159.08Z" fill="#E0E0E0"/>
<path d="M311.85 86C311.85 84.5148 311.26 83.0904 310.21 82.0402C309.16 80.99 307.735 80.4 306.25 80.4C305.704 80.3976 305.161 80.4785 304.64 80.64C304.724 80.0671 304.767 79.489 304.77 78.91C304.757 75.7706 303.5 72.7642 301.276 70.5489C299.051 68.3337 296.039 67.09 292.9 67.09C292.165 67.0903 291.432 67.1572 290.71 67.29C289.541 65.3666 287.777 63.8759 285.686 63.0431C283.595 62.2102 281.289 62.0804 279.118 62.6733C276.946 63.2661 275.027 64.5494 273.649 66.3293C272.271 68.1093 271.51 70.2892 271.48 72.54H271.31C268.775 72.54 266.343 73.5472 264.55 75.3401C262.757 77.1329 261.75 79.5645 261.75 82.1C261.75 84.6355 262.757 87.0671 264.55 88.8599C266.343 90.6528 268.775 91.66 271.31 91.66H306.41C307.878 91.6181 309.27 91.0015 310.288 89.9428C311.305 88.8842 311.866 87.4682 311.85 86V86Z" fill="#E0E0E0"/>
<path d="M136.27 136C136.27 134.515 135.68 133.09 134.63 132.04C133.58 130.99 132.155 130.4 130.67 130.4C130.125 130.399 129.583 130.477 129.06 130.63C129.141 130.06 129.181 129.485 129.18 128.91C129.187 127.348 128.885 125.801 128.292 124.356C127.699 122.911 126.826 121.598 125.724 120.491C124.622 119.385 123.312 118.507 121.87 117.908C120.428 117.308 118.882 117 117.32 117C116.585 117 115.852 117.067 115.13 117.2C113.961 115.277 112.199 113.787 110.108 112.954C108.018 112.121 105.714 111.99 103.543 112.582C101.372 113.173 99.452 114.455 98.0733 116.233C96.6947 118.012 95.9319 120.19 95.9 122.44H95.73C93.1945 122.44 90.7629 123.447 88.97 125.24C87.1772 127.033 86.17 129.465 86.17 132C86.17 134.535 87.1772 136.967 88.97 138.76C90.7629 140.553 93.1945 141.56 95.73 141.56H130.82C132.271 141.519 133.65 140.916 134.666 139.879C135.683 138.842 136.258 137.452 136.27 136V136Z" fill="#E0E0E0"/>
<path d="M250 427.56C357.082 427.56 443.89 422.492 443.89 416.24C443.89 409.988 357.082 404.92 250 404.92C142.917 404.92 56.11 409.988 56.11 416.24C56.11 422.492 142.917 427.56 250 427.56Z" fill="#F5F5F5"/>
<path d="M326.65 176.72L323.35 172.22C323.449 171.683 323.417 171.13 323.257 170.608C323.097 170.085 322.813 169.609 322.43 169.22C321.11 167.72 312.54 168.51 311.22 168.64C309.9 168.77 307.72 174.03 309.01 175.56C310.3 177.09 318.54 177.35 319.3 176.69L321.9 180.31L326.65 176.72Z" fill="#9F5B53"/>
<path d="M376.29 165.55C376.03 161.95 378.29 160.55 381.17 161.78C384.05 163.01 386.54 158.78 390.38 159.78C394.22 160.78 393.04 164.61 395.02 165.55C397 166.49 399.23 165.36 400.09 170.18C400.95 175 397.79 172.5 399.18 176.72C400.57 180.94 404.71 182.13 401.18 185.72C397.65 189.31 395.25 190.72 398.02 193.72C400.79 196.72 397.79 199.6 396.52 200.59C395.25 201.58 402.03 207.31 400.12 212.45C398.21 217.59 382.28 222.34 372.45 218.59C362.62 214.84 359.89 209.16 360.45 202.7C361.01 196.24 365.78 194.53 365.45 192.51C365.12 190.49 361.98 188.72 363.76 185.75C365.54 182.78 370.48 182.52 368.9 179.68C367.32 176.84 367.52 173.68 369.3 172.29C371.08 170.9 372.74 171.29 372.41 168.44C372.08 165.59 376.29 165.55 376.29 165.55Z" fill="#263238"/>
<path d="M367.68 196.71C367.68 196.71 345.11 196.91 340.89 191.71C336.67 186.51 326 174.11 326 174.11L320 177.85C320 177.85 330.5 201.3 337.09 206.45C343.68 211.6 363.3 212.66 363.3 212.66L367.68 196.71Z" fill="#9C33B0"/>
<path opacity="0.3" d="M367.68 196.71C367.68 196.71 345.11 196.91 340.89 191.71C336.67 186.51 326 174.11 326 174.11L320 177.85C320 177.85 330.5 201.3 337.09 206.45C343.68 211.6 363.3 212.66 363.3 212.66L367.68 196.71Z" fill="white"/>
<path d="M329.16 403.62L335.16 404.68L337.62 396.5L339.86 389L332.95 386.58L330.94 395.6L329.16 403.62Z" fill="#E4897B"/>
<path d="M336.51 404.52C336.61 403.85 328.4 402.94 328.4 402.94C328.4 402.94 322.5 407.14 317.45 407.42C312.4 407.7 314.59 411.1 320.02 412.06L333.44 414.43C337.29 415.11 335.46 411.4 336.51 404.52Z" fill="#9C33B0"/>
<path d="M323.08 403.94C322.978 403.814 322.918 403.66 322.91 403.498C322.901 403.337 322.943 403.176 323.03 403.04C323.081 402.93 323.155 402.831 323.246 402.75C323.337 402.669 323.444 402.608 323.56 402.57C324.179 402.435 324.823 402.476 325.42 402.69C324.82 402.22 324.32 401.69 324.37 401.26C324.37 400.98 324.62 400.78 325.02 400.67C325.198 400.618 325.385 400.605 325.568 400.633C325.751 400.66 325.926 400.728 326.08 400.83C327.08 401.48 327.45 403.49 327.46 403.58C327.47 403.613 327.47 403.647 327.46 403.68V403.73C327.456 403.743 327.45 403.755 327.441 403.765C327.432 403.775 327.422 403.784 327.41 403.79V403.79H327.34C326.379 404.065 325.389 404.226 324.39 404.27C324.161 404.306 323.926 404.296 323.701 404.239C323.476 404.182 323.265 404.081 323.08 403.94ZM323.71 402.94C323.649 402.958 323.593 402.989 323.544 403.03C323.496 403.071 323.457 403.122 323.43 403.18C323.29 403.48 323.38 403.59 323.43 403.62C323.75 404 325.32 403.82 326.61 403.52C325.71 403.2 324.35 402.74 323.71 403V402.94ZM325.14 401.05C325.02 401.05 324.81 401.16 324.8 401.27C324.8 401.64 325.8 402.48 326.93 403.15C326.792 402.383 326.41 401.682 325.84 401.15C325.706 401.063 325.55 401.018 325.39 401.02C325.304 401.033 325.22 401.057 325.14 401.09V401.05Z" fill="#263238"/>
<path opacity="0.2" d="M330.91 395.79L337.59 396.67L339.85 389.08L332.94 386.62L330.91 395.79Z" fill="black"/>
<path d="M369.19 406.19H375.28L376.28 397.71L377.18 389.93L369.95 388.75L369.55 397.98L369.19 406.19Z" fill="#E4897B"/>
<path d="M376.58 405.8C376.58 405.13 368.32 405.65 368.32 405.65C368.32 405.65 363.25 410.81 358.32 411.97C353.39 413.13 356.14 416.09 361.65 416.09H375.28C379.19 416.09 376.75 412.75 376.58 405.8Z" fill="#9C33B0"/>
<path d="M363.25 407.56C363.133 407.452 363.051 407.311 363.015 407.156C362.98 407.001 362.992 406.838 363.05 406.69C363.08 406.571 363.135 406.46 363.211 406.363C363.287 406.267 363.382 406.188 363.49 406.13C364.076 405.892 364.717 405.823 365.34 405.93C364.67 405.57 364.09 405.13 364.06 404.7C364.06 404.42 364.23 404.18 364.6 404.01C364.767 403.931 364.95 403.89 365.135 403.89C365.32 403.89 365.503 403.931 365.67 404.01C366.79 404.47 367.48 406.4 367.51 406.48C367.522 406.507 367.529 406.536 367.529 406.565C367.529 406.594 367.522 406.623 367.51 406.65L367.44 406.71C366.365 407.235 365.209 407.574 364.02 407.71C363.754 407.757 363.479 407.704 363.25 407.56ZM363.71 406.5C363.596 406.563 363.51 406.666 363.47 406.79C363.39 407.12 363.47 407.2 363.53 407.23C363.92 407.55 365.43 407.09 366.64 406.58C365.69 406.282 364.675 406.254 363.71 406.5ZM364.79 404.4C364.68 404.45 364.49 404.56 364.49 404.67C364.49 405.05 365.7 405.67 366.92 406.15C366.647 405.424 366.149 404.804 365.5 404.38C365.396 404.333 365.284 404.309 365.17 404.31C365.038 404.311 364.908 404.342 364.79 404.4V404.4Z" fill="#263238"/>
<path opacity="0.2" d="M369.55 398.17L376.28 397.88L377.18 390.01L369.95 388.8L369.55 398.17Z" fill="black"/>
<path d="M330.34 391L340.2 392.74C350.14 367.95 357.2 347.27 362.2 330.1C364.89 320.84 366.98 312.61 368.6 305.3L368.15 332.3V393.58H378.15C402.49 277.47 385.24 250.93 385.24 250.93L356.11 245.93C354.959 251.307 354.144 256.751 353.67 262.23L352.36 271.87L341 330.68L330.34 391Z" fill="#263238"/>
<path opacity="0.2" d="M330.34 391L340.2 392.74C350.14 367.95 357.2 347.27 362.2 330.1C364.89 320.84 366.98 312.61 368.6 305.3L368.15 332.3V393.58H378.15C402.49 277.47 385.24 250.93 385.24 250.93L356.11 245.93C354.959 251.307 354.144 256.751 353.67 262.23L352.36 271.87L341 330.68L330.34 391Z" fill="white"/>
<path d="M341.74 391.55L329.52 387.5L329.68 392.69L339.79 395.92L341.74 391.55Z" fill="#263238"/>
<path d="M379.48 392.11L366.74 390.25L367.8 395.34L378.32 396.76L379.48 392.11Z" fill="#263238"/>
<path d="M385.27 246.58V250.93L355.56 248.65V243.51L385.27 246.58Z" fill="#263238"/>
<path d="M362.002 249.472L368.496 250.054L368.938 245.123L362.444 244.541L362.002 249.472Z" fill="white"/>
<path d="M374.908 252.264L376.386 252.34L376.769 244.839L375.291 244.764L374.908 252.264Z" fill="#263238"/>
<path opacity="0.2" d="M374.908 252.264L376.386 252.34L376.769 244.839L375.291 244.764L374.908 252.264Z" fill="white"/>
<path d="M356.743 250.276L358.222 250.351L358.604 242.851L357.126 242.775L356.743 250.276Z" fill="#263238"/>
<path opacity="0.2" d="M356.743 250.276L358.222 250.351L358.604 242.851L357.126 242.775L356.743 250.276Z" fill="white"/>
<path d="M400.09 204.73C399.19 206.56 398.37 208.3 397.61 209.94C396.96 211.32 396.36 212.63 395.79 213.88L394.79 216C394.55 216.54 394.31 217.08 394.09 217.6C393.3 219.39 392.6 221.06 391.97 222.6C391.6 223.52 391.26 224.41 390.97 225.27L390.53 226.45C389.85 228.26 389.28 229.94 388.78 231.53C388.35 232.91 387.97 234.23 387.62 235.53C387.16 237.28 386.77 238.98 386.41 240.71C386.13 242.04 385.87 243.39 385.61 244.79C385.49 245.38 385.38 245.98 385.27 246.59L355.56 243.5C355.66 241.83 355.77 240.21 355.89 238.63C355.99 237.23 356.09 235.87 356.2 234.55C356.36 232.67 356.52 230.87 356.68 229.14C356.82 227.74 356.96 226.39 357.1 225.09C357.3 223.19 357.51 221.4 357.72 219.7C357.89 218.28 358.07 216.94 358.24 215.7C358.51 213.7 358.78 211.95 359.03 210.34C359.28 208.73 359.5 207.52 359.71 206.34C359.983 204.86 360.223 203.63 360.43 202.65C361.74 196.65 362.7 196.52 362.7 196.52C362.7 196.52 369.38 196.66 375.11 197.38H375.26C379.132 197.979 382.963 198.82 386.73 199.9C387.22 200.03 387.73 200.17 388.18 200.32C392.252 201.498 396.232 202.972 400.09 204.73V204.73Z" fill="#9C33B0"/>
<path opacity="0.6" d="M400.09 204.73C399.19 206.56 398.37 208.3 397.61 209.94C396.96 211.32 396.36 212.63 395.79 213.88L394.79 216C394.55 216.54 394.31 217.08 394.09 217.6C393.3 219.39 392.6 221.06 391.97 222.6C391.6 223.52 391.26 224.41 390.97 225.27L390.53 226.45C389.85 228.26 389.28 229.94 388.78 231.53C388.35 232.91 387.97 234.23 387.62 235.53C387.16 237.28 386.77 238.98 386.41 240.71C386.13 242.04 385.87 243.39 385.61 244.79C385.49 245.38 385.38 245.98 385.27 246.59L355.56 243.5C355.66 241.83 355.77 240.21 355.89 238.63C355.99 237.23 356.09 235.87 356.2 234.55C356.36 232.67 356.52 230.87 356.68 229.14C356.82 227.74 356.96 226.39 357.1 225.09C357.3 223.19 357.51 221.4 357.72 219.7C357.89 218.28 358.07 216.94 358.24 215.7C358.51 213.7 358.78 211.95 359.03 210.34C359.28 208.73 359.5 207.52 359.71 206.34C359.983 204.86 360.223 203.63 360.43 202.65C361.74 196.65 362.7 196.52 362.7 196.52C362.7 196.52 369.38 196.66 375.11 197.38H375.26C379.132 197.979 382.963 198.82 386.73 199.9C387.22 200.03 387.73 200.17 388.18 200.32C392.252 201.498 396.232 202.972 400.09 204.73V204.73Z" fill="white"/>
<path opacity="0.2" d="M362.22 330.13C364.91 320.87 367 312.64 368.62 305.33C368.479 296.678 367.848 288.041 366.73 279.46C366.73 279.46 362.47 312.82 362.22 330.13Z" fill="black"/>
<path d="M377.83 197.25C374.32 196.74 372.16 198.74 373.78 202.1C375.4 205.46 375.94 205.96 381.46 204.97C386.98 203.98 393.4 199.53 377.83 197.25Z" fill="#9C33B0"/>
<path d="M395.79 213.88L394.79 216C394.55 216.54 394.31 217.08 394.09 217.6C385.27 215.53 368.74 211.78 358.99 210.32C359.23 208.83 359.46 207.5 359.67 206.32C371.853 208.099 383.916 210.623 395.79 213.88Z" fill="#9C33B0"/>
<path d="M392 222.63C391.63 223.55 391.29 224.44 391 225.3L390.56 226.48C381.56 224.39 366.87 221.11 357.75 219.71C357.92 218.29 358.1 216.95 358.27 215.71C369.633 217.389 380.894 219.7 392 222.63V222.63Z" fill="#9C33B0"/>
<path d="M388.78 231.56C388.35 232.94 387.97 234.26 387.62 235.56C378.79 233.56 365.43 230.56 356.68 229.17C356.82 227.77 356.96 226.42 357.1 225.12C367.764 226.719 378.338 228.869 388.78 231.56V231.56Z" fill="#9C33B0"/>
<path d="M386.41 240.72C386.13 242.05 385.87 243.4 385.61 244.8C377.08 242.8 364.53 240.05 355.89 238.64C355.99 237.24 356.09 235.88 356.2 234.56C363.5 235.69 374.82 237.69 386.41 240.72Z" fill="#9C33B0"/>
<g opacity="0.3">
<path opacity="0.3" d="M377.83 197.25C374.32 196.74 372.16 198.74 373.78 202.1C375.4 205.46 375.94 205.96 381.46 204.97C386.98 203.98 393.4 199.53 377.83 197.25Z" fill="white"/>
<path opacity="0.3" d="M395.79 213.88L394.79 216C394.55 216.54 394.31 217.08 394.09 217.6C385.27 215.53 368.74 211.78 358.99 210.32C359.23 208.83 359.46 207.5 359.67 206.32C371.853 208.099 383.916 210.623 395.79 213.88Z" fill="white"/>
<path opacity="0.3" d="M392 222.63C391.63 223.55 391.29 224.44 391 225.3L390.56 226.48C381.56 224.39 366.87 221.11 357.75 219.71C357.92 218.29 358.1 216.95 358.27 215.71C369.633 217.389 380.894 219.7 392 222.63V222.63Z" fill="white"/>
<path opacity="0.3" d="M388.78 231.56C388.35 232.94 387.97 234.26 387.62 235.56C378.79 233.56 365.43 230.56 356.68 229.17C356.82 227.77 356.96 226.42 357.1 225.12C367.764 226.719 378.338 228.869 388.78 231.56V231.56Z" fill="white"/>
<path opacity="0.3" d="M386.41 240.72C386.13 242.05 385.87 243.4 385.61 244.8C377.08 242.8 364.53 240.05 355.89 238.64C355.99 237.24 356.09 235.88 356.2 234.56C363.5 235.69 374.82 237.69 386.41 240.72Z" fill="white"/>
</g>
<path d="M376.78 204.16C384.16 204.09 386.71 201.24 386.71 201.24C382.61 196.34 387.34 189.24 387.34 189.24L378.39 189.84C378.446 191.084 378.416 192.33 378.3 193.57C377.73 198.89 375.3 198.66 375.3 198.66C373.45 201.36 376.78 204.16 376.78 204.16Z" fill="#9F5B53"/>
<path opacity="0.2" d="M378.39 189.85C378.446 191.094 378.416 192.34 378.3 193.58C384.21 194.28 387.3 189.25 387.3 189.25L378.39 189.85Z" fill="black"/>
<path d="M386.12 166C378.56 164.69 375.43 168.31 373.51 176C371.13 185.62 372.08 192.91 381.9 192.48C395.22 191.84 398.68 168.14 386.12 166Z" fill="#9F5B53"/>
<path d="M378.48 176.38C377.675 177.402 376.752 178.325 375.73 179.13C375.897 179.48 376.157 179.778 376.481 179.991C376.806 180.204 377.182 180.325 377.57 180.34L378.48 176.38Z" fill="#892B29"/>
<path d="M383.21 176.57C383.09 177.19 383.32 177.75 383.73 177.84C384.14 177.93 384.58 177.48 384.73 176.84C384.88 176.2 384.62 175.66 384.21 175.58C383.8 175.5 383.33 176 383.21 176.57Z" fill="#263238"/>
<path d="M384.34 175.66L383.1 174.87C383.1 174.87 383.55 176.13 384.34 175.66Z" fill="#263238"/>
<path d="M375.55 174.92C375.42 175.53 375.66 176.1 376.07 176.18C376.48 176.26 376.92 175.83 377.07 175.18C377.22 174.53 376.96 174 376.55 173.91C376.14 173.82 375.67 174.3 375.55 174.92Z" fill="#263238"/>
<path d="M376.68 174L375.44 173.2C375.44 173.2 375.89 174.48 376.68 174Z" fill="#263238"/>
<path d="M384.19 171.36C384.801 171.392 385.396 171.564 385.93 171.862C386.464 172.16 386.922 172.577 387.27 173.08" stroke="#263238" stroke-width="0.72468" stroke-linecap="round" stroke-linejoin="round"/>
<path d="M378.76 170.09C378.265 169.868 377.727 169.761 377.185 169.777C376.643 169.792 376.111 169.93 375.63 170.18" stroke="#263238" stroke-width="0.72468" stroke-linecap="round" stroke-linejoin="round"/>
<path d="M378.16 183.5C378.369 184.415 378.509 185.344 378.58 186.28H379.08C381.32 186.44 382.41 185.78 382.94 184.99C383.325 184.369 383.48 183.633 383.38 182.91C381.953 183.426 380.432 183.628 378.92 183.5C378.45 183.53 378.16 183.5 378.16 183.5Z" fill="#263238"/>
<path d="M378.92 183.54L379.07 184.36C381.18 184.51 382.68 184.36 383.39 183.73C383.424 183.471 383.424 183.209 383.39 182.95C381.96 183.468 380.435 183.669 378.92 183.54V183.54Z" fill="white"/>
<path d="M379.08 186.32C381.32 186.48 382.41 185.82 382.94 185.03C382.088 184.983 381.235 185.088 380.42 185.34C379.881 185.516 379.411 185.859 379.08 186.32V186.32Z" fill="#DE5753"/>
<path d="M392.17 180.13C392.17 180.13 389.71 173.31 391.08 168.6C391.08 168.6 377.17 159.88 373.78 174.95C373.78 174.95 374.67 161.2 387.72 163.16C400.77 165.12 397.4 184.16 389.72 188.62C389.7 188.62 393.68 184.4 392.17 180.13Z" fill="#263238"/>
<path d="M390.65 181.51C390.876 180.648 391.434 179.91 392.202 179.458C392.971 179.007 393.887 178.878 394.75 179.1C397.05 179.77 397.33 184.77 391.3 184.91C390.43 184.93 390.1 184 390.65 181.51Z" fill="#9F5B53"/>
<path d="M403.13 231.57L394.13 228.8C394.13 228.8 394.33 226.93 393.32 226.48C392.31 226.03 379.42 224.71 379.08 225.9C378.74 227.09 379.44 234.5 381.46 235.54C383.48 236.58 392.32 236.98 392.58 236.54C392.84 236.1 393.32 235.54 393.32 235.54L402.56 238.39L403.13 231.57Z" fill="#9F5B53"/>
<path d="M400.09 204.73C407.22 207.97 422.78 236.21 420.41 242.66C418.04 249.11 398.52 238.88 398.52 238.88L400.09 229.2L404.55 230.32C404.55 230.32 398.97 221.17 394.13 217.6C394.176 215.114 394.741 212.665 395.79 210.41C396.928 208.31 398.378 206.395 400.09 204.73Z" fill="#9C33B0"/>
<path opacity="0.3" d="M400.09 204.73C407.22 207.97 422.78 236.21 420.41 242.66C418.04 249.11 398.52 238.88 398.52 238.88L400.09 229.2L404.55 230.32C404.55 230.32 398.97 221.17 394.13 217.6C394.176 215.114 394.741 212.665 395.79 210.41C396.928 208.31 398.378 206.395 400.09 204.73Z" fill="white"/>
<path d="M184.19 137.69L188.47 112C186.17 109.72 191.47 96.68 191.47 95.27C191.47 93.86 199.53 99.88 199.67 101.17C199.81 102.46 197.67 111.64 195.26 112.96L194 140.39C194 140.39 188.9 142.55 184.19 137.69Z" fill="#E4897B"/>
<path d="M145.53 158.24C145.53 158.24 172.14 157.08 177.25 153.38C182.36 149.68 185.89 117.94 185.89 117.94L198.89 119.22C198.89 119.22 195.42 154.39 188.61 163.22C181.8 172.05 155 176.28 155 176.28L145.53 158.24Z" fill="#263238"/>
<path opacity="0.2" d="M198.91 119.22C198.91 119.22 195.44 154.39 188.63 163.22C185.24 167.6 176.86 170.87 169.32 173.04C164.609 174.38 159.829 175.461 155 176.28L149.84 166.43L145.54 158.24C145.54 158.24 172.15 157.08 177.26 153.38C182.37 149.68 185.9 117.94 185.9 117.94L198.91 119.22Z" fill="white"/>
<path opacity="0.2" d="M169.32 173C164.61 174.353 159.829 175.448 155 176.28L149.84 166.43C155 166.88 165.88 168.36 169.32 173Z" fill="black"/>
<path d="M84.86 190L71.11 167.84C72.37 164.84 74.21 154.67 73.62 153.38C73.03 152.09 63.4 149.22 63 150.43C61.81 153.65 62.44 171.03 65.21 171.33L76.86 196.24C76.86 196.24 82.35 196.3 84.86 190Z" fill="#E4897B"/>
<path d="M150.25 408.64L158.37 409.5L159.89 392L151.78 391.14L150.25 408.64Z" fill="#E4897B"/>
<path d="M109.77 408.05H117.63L118.28 389.84H110.41L109.77 408.05Z" fill="#E4897B"/>
<path d="M118.72 407.14H109.17C109.013 407.139 108.861 407.192 108.739 407.291C108.617 407.389 108.532 407.527 108.5 407.68L106.95 414.68C106.888 414.981 106.948 415.294 107.117 415.551C107.285 415.808 107.549 415.987 107.85 416.05C107.933 416.06 108.017 416.06 108.1 416.05C111.19 416 113.44 415.81 117.32 415.81C119.71 415.81 126.92 416.06 130.22 416.06C133.52 416.06 133.95 412.8 132.6 412.5C126.54 411.18 121.98 409.35 120.04 407.61C119.676 407.29 119.204 407.122 118.72 407.14V407.14Z" fill="#263238"/>
<path d="M119.26 408.23C119.223 408.22 119.191 408.2 119.166 408.171C119.141 408.143 119.125 408.108 119.12 408.07C119.115 408.034 119.121 407.998 119.138 407.966C119.154 407.934 119.179 407.908 119.21 407.89C119.49 407.71 122.03 406.15 122.9 406.6C122.999 406.645 123.082 406.719 123.139 406.812C123.196 406.904 123.224 407.011 123.22 407.12C123.249 407.306 123.228 407.497 123.159 407.672C123.091 407.848 122.977 408.002 122.83 408.12C122.387 408.421 121.854 408.562 121.32 408.52C120.625 408.498 119.934 408.401 119.26 408.23V408.23ZM119.8 407.97C120.717 408.28 121.718 408.23 122.6 407.83C122.694 407.748 122.766 407.644 122.81 407.527C122.854 407.41 122.867 407.284 122.85 407.16C122.85 407.01 122.78 406.94 122.73 406.94C122.657 406.898 122.573 406.88 122.49 406.89C121.53 407.083 120.616 407.46 119.8 408V407.97Z" fill="#9C33B0"/>
<path d="M119.21 408.27C119.183 408.25 119.161 408.225 119.145 408.195C119.13 408.166 119.121 408.133 119.12 408.1C119.12 407.99 119.32 405.73 120.23 404.99C120.337 404.896 120.463 404.826 120.599 404.785C120.735 404.743 120.879 404.731 121.02 404.75C121.162 404.746 121.301 404.793 121.412 404.883C121.522 404.973 121.596 405.1 121.62 405.24C121.78 406.07 120.21 407.8 119.4 408.24H119.31C119.281 408.26 119.246 408.271 119.21 408.27V408.27ZM120.47 405.21C119.92 405.918 119.596 406.775 119.54 407.67C120.35 407.06 121.35 405.75 121.25 405.24C121.25 405.19 121.25 405.05 120.98 405.05H120.89C120.736 405.053 120.587 405.11 120.47 405.21V405.21Z" fill="#9C33B0"/>
<path d="M159.22 406.89H149.67C149.513 406.889 149.361 406.942 149.239 407.041C149.117 407.139 149.032 407.277 149 407.43L147.45 414.43C147.388 414.731 147.448 415.044 147.617 415.301C147.785 415.558 148.049 415.737 148.35 415.8C148.433 415.81 148.517 415.81 148.6 415.8C151.69 415.75 153.94 415.56 157.82 415.56C160.21 415.56 167.42 415.81 170.72 415.81C174.02 415.81 174.45 412.55 173.1 412.25C167.04 410.93 162.48 409.1 160.54 407.36C160.176 407.04 159.704 406.872 159.22 406.89V406.89Z" fill="#263238"/>
<path d="M159.76 408C159.723 407.99 159.691 407.97 159.666 407.941C159.641 407.913 159.625 407.878 159.62 407.84C159.615 407.804 159.622 407.768 159.638 407.736C159.654 407.704 159.679 407.678 159.71 407.66C159.99 407.48 162.53 405.92 163.4 406.37C163.499 406.415 163.582 406.489 163.639 406.582C163.696 406.674 163.724 406.781 163.72 406.89C163.749 407.076 163.728 407.267 163.659 407.442C163.591 407.618 163.477 407.772 163.33 407.89C162.887 408.191 162.354 408.332 161.82 408.29C161.125 408.268 160.434 408.171 159.76 408V408ZM160.3 407.74C161.217 408.05 162.218 408 163.1 407.6C163.194 407.518 163.266 407.414 163.31 407.297C163.354 407.18 163.367 407.054 163.35 406.93C163.35 406.78 163.28 406.71 163.23 406.71C163.157 406.668 163.073 406.65 162.99 406.66C162.034 406.837 161.12 407.197 160.3 407.72V407.74Z" fill="#9C33B0"/>
<path d="M159.71 408C159.683 407.98 159.661 407.955 159.645 407.925C159.63 407.896 159.621 407.863 159.62 407.83C159.62 407.72 159.82 405.46 160.73 404.72C160.837 404.626 160.963 404.556 161.099 404.515C161.235 404.473 161.379 404.461 161.52 404.48C161.662 404.476 161.801 404.523 161.912 404.613C162.022 404.703 162.096 404.83 162.12 404.97C162.28 405.8 160.71 407.53 159.9 407.97H159.81C159.781 407.99 159.746 408.001 159.71 408ZM161 405C160.45 405.708 160.126 406.565 160.07 407.46C160.88 406.85 161.88 405.54 161.78 405.03C161.78 404.98 161.78 404.84 161.51 404.84H161.42C161.266 404.843 161.117 404.9 161 405V405Z" fill="#9C33B0"/>
<path opacity="0.2" d="M151.78 391.14L159.89 392L159.1 401.02L150.98 400.17L151.78 391.14Z" fill="black"/>
<path opacity="0.2" d="M110.41 389.85H118.28L117.94 399.24H110.07L110.41 389.85Z" fill="black"/>
<path d="M113.66 230.11H155.38C159.38 251.77 171.77 328.44 162.86 396.74L148.73 395C148.73 395 150.04 304.32 137.57 270.8C136.14 288.74 134.43 307.8 132.95 317.99C129.32 342.99 121.55 397.62 121.55 397.62H107.17C107.17 397.62 110.11 345.33 111.47 320.76C113 294.07 113.6 235.59 113.66 230.11Z" fill="#9C33B0"/>
<path d="M164.47 400.03L146.99 397.43L147.53 392.59L165.71 394.98L164.47 400.03Z" fill="#9C33B0"/>
<path d="M123.28 397.73H106.32V392.66L123.92 392.33L123.28 397.73Z" fill="#9C33B0"/>
<path opacity="0.2" d="M137.57 270.79C139.62 276.65 141.179 282.671 142.23 288.79C143.4 272.79 138.73 255.89 138.73 255.89L137.57 270.79Z" fill="black"/>
<path d="M106.43 161.62C108.74 170.106 110.412 178.754 111.43 187.49C111.76 190.17 112.03 192.8 112.25 195.35C112.54 198.59 112.74 201.71 112.9 204.67C113.1 208.42 113.16 212.85 113.15 217.21C113.15 227.21 112.73 236.86 112.73 236.86C120.73 238.86 143.85 237.53 156.48 236.61C157.968 224.533 158.356 212.347 157.64 200.2C157.223 192.179 156.341 184.189 155 176.27C154.321 172.042 153.38 167.861 152.18 163.75C151.716 162.293 150.843 161 149.667 160.023C148.49 159.047 147.058 158.428 145.54 158.24C144.01 158.05 142.24 157.86 140.38 157.75C139.66 157.75 138.94 157.68 138.21 157.67C132.244 157.738 126.288 158.152 120.37 158.91C119.25 159.04 118.11 159.21 117.01 159.39C113.447 159.947 109.915 160.691 106.43 161.62V161.62Z" fill="#263238"/>
<path opacity="0.7" d="M156.48 236.62C143.85 237.54 120.73 238.87 112.73 236.87C112.73 236.87 113.13 227.24 113.15 217.22C113.15 212.86 113.1 208.43 112.9 204.68C112.74 201.68 112.54 198.6 112.25 195.36C112.03 192.81 111.76 190.18 111.43 187.5C111.35 186.78 111.26 186.05 111.16 185.33C110.87 183.02 110.52 180.72 110.16 178.43V178.37L114.05 172.77L121.78 161.63C121.78 161.63 134.64 166.83 139.98 159.41C145.285 163.373 150.117 167.933 154.38 173C154.59 174 154.79 175.14 154.99 176.29C156.335 184.209 157.219 192.199 157.64 200.22C158.356 212.363 157.967 224.547 156.48 236.62Z" fill="white"/>
<path d="M126.79 174.74C133.576 174.56 140.367 174.764 147.13 175.35C147.917 175.441 148.642 175.819 149.168 176.411C149.694 177.003 149.983 177.768 149.98 178.56V178.56C149.981 178.985 149.899 179.405 149.737 179.798C149.575 180.19 149.337 180.547 149.037 180.847C148.737 181.147 148.38 181.385 147.988 181.547C147.595 181.709 147.175 181.791 146.75 181.79H126.88C126.052 181.791 125.255 181.474 124.654 180.905C124.053 180.335 123.694 179.557 123.65 178.73V178.14C123.626 177.709 123.688 177.277 123.834 176.871C123.98 176.465 124.206 176.092 124.499 175.775C124.792 175.457 125.146 175.202 125.54 175.025C125.933 174.847 126.358 174.75 126.79 174.74V174.74Z" fill="#263238"/>
<path opacity="0.2" d="M106.43 161.62C108.74 170.106 110.412 178.754 111.43 187.49C111.76 190.17 112.03 192.8 112.25 195.35C112.54 198.59 112.74 201.71 112.9 204.67C113.1 208.42 113.16 212.85 113.15 217.21C113.15 227.21 112.73 236.86 112.73 236.86C120.73 238.86 143.85 237.53 156.48 236.61C157.968 224.533 158.356 212.347 157.64 200.2C157.223 192.179 156.341 184.189 155 176.27C154.321 172.042 153.38 167.861 152.18 163.75C151.716 162.293 150.843 161 149.667 160.023C148.49 159.047 147.058 158.428 145.54 158.24C144.01 158.05 142.24 157.86 140.38 157.75C139.66 157.75 138.94 157.68 138.21 157.67C132.244 157.738 126.288 158.152 120.37 158.91C119.25 159.04 118.11 159.21 117.01 159.39C113.447 159.947 109.915 160.691 106.43 161.62V161.62Z" fill="white"/>
<path d="M141.66 122.89C141.66 122.89 144.13 131.56 138.96 136.43C133.79 141.3 131.2 121.3 131.2 121.3L141.66 122.89Z" fill="#263238"/>
<path d="M120.35 158.86C124.18 162.34 133.57 161.05 133.57 161.05C133.57 161.05 139.42 159.45 138.19 157.62C134.74 157.05 133.07 155.44 132.38 153.38C132.002 152.103 131.883 150.764 132.03 149.44C132.087 148.702 132.184 147.968 132.32 147.24L120.72 138.65C122.24 144.32 124.1 154.75 120.35 158.86Z" fill="#E4897B"/>
<path opacity="0.2" d="M123.4 144.11C123.86 151.11 129.58 152.99 132.4 153.38C132.022 152.103 131.903 150.764 132.05 149.44L123.4 144.11Z" fill="black"/>
<path d="M123.52 147.12C124.946 148.734 126.861 149.835 128.973 150.254C131.085 150.673 133.276 150.387 135.21 149.44C137.73 148.261 139.71 146.17 140.75 143.59C140.89 143.24 141.02 142.87 141.13 142.49C143.13 135.56 142.48 123.96 134.98 120.56C132.415 119.377 129.486 119.262 126.836 120.239C124.186 121.216 122.033 123.206 120.85 125.77C120.136 127.284 119.793 128.947 119.85 130.62C120 138.41 119.74 143 123.52 147.12Z" fill="#E4897B"/>
<path d="M131.59 133.27C131.52 133.9 131.88 134.43 132.3 134.44C132.72 134.45 133.07 133.95 133.1 133.32C133.13 132.69 132.8 132.16 132.39 132.15C131.98 132.14 131.62 132.63 131.59 133.27Z" fill="#263238"/>
<path d="M138.76 133.55C138.69 134.18 139.05 134.71 139.46 134.73C139.87 134.75 140.23 134.24 140.26 133.61C140.29 132.98 139.96 132.45 139.55 132.43C139.14 132.41 138.78 133 138.76 133.55Z" fill="#263238"/>
<path d="M136.47 133.78C137.145 135.748 138.091 137.613 139.28 139.32C138.831 139.611 138.323 139.801 137.793 139.877C137.263 139.953 136.723 139.913 136.21 139.76L136.47 133.78Z" fill="#DE5753"/>
<path d="M129.46 130.86C129.528 130.875 129.598 130.871 129.664 130.848C129.729 130.825 129.787 130.784 129.83 130.73C130.118 130.363 130.487 130.067 130.909 129.868C131.331 129.668 131.793 129.569 132.26 129.58C132.309 129.586 132.358 129.581 132.405 129.568C132.452 129.554 132.496 129.531 132.534 129.501C132.572 129.47 132.604 129.432 132.627 129.389C132.65 129.346 132.665 129.299 132.67 129.25C132.679 129.152 132.649 129.055 132.587 128.979C132.526 128.902 132.437 128.853 132.34 128.84C131.751 128.814 131.164 128.929 130.628 129.176C130.092 129.423 129.623 129.795 129.26 130.26C129.192 130.329 129.153 130.423 129.153 130.52C129.153 130.617 129.192 130.711 129.26 130.78V130.78C129.321 130.819 129.389 130.846 129.46 130.86V130.86Z" fill="#263238"/>
<path d="M141.93 131.21C142.001 131.234 142.079 131.234 142.15 131.21C142.195 131.192 142.237 131.166 142.271 131.132C142.306 131.098 142.334 131.058 142.352 131.013C142.371 130.968 142.381 130.92 142.38 130.871C142.38 130.823 142.369 130.775 142.35 130.73C142.126 130.183 141.774 129.697 141.323 129.314C140.873 128.931 140.336 128.662 139.76 128.53C139.662 128.518 139.564 128.543 139.484 128.601C139.405 128.658 139.349 128.744 139.33 128.84V128.84C139.318 128.936 139.344 129.034 139.401 129.112C139.459 129.19 139.544 129.243 139.64 129.26C140.088 129.382 140.503 129.606 140.85 129.915C141.197 130.223 141.467 130.609 141.64 131.04C141.671 131.089 141.714 131.13 141.765 131.16C141.815 131.189 141.872 131.207 141.93 131.21Z" fill="#263238"/>
<path d="M129.62 116.82C128.69 116.82 127.76 116.82 126.83 116.89C124.141 116.991 121.541 117.877 119.35 119.44C114.45 123.27 116.41 131.2 117.77 136.33C119.58 143.15 122.77 145.94 122.77 145.94C120.69 142.85 120.35 136.34 121.4 136.03C122.45 135.72 122.53 136.98 122.53 136.98C124.73 135.17 126.33 130.68 125.2 127.81C124.34 125.6 126.67 123.58 128.96 124.38L129.65 124.61L130.72 124.95L129.62 116.82Z" fill="#263238"/>
<path d="M116.22 136.87C117.012 138.664 118.483 140.07 120.31 140.78C122.74 141.7 124.19 139.59 123.72 137.17C123.28 135.02 121.5 131.89 118.96 132.02C116.42 132.15 115.27 134.65 116.22 136.87Z" fill="#E4897B"/>
<path d="M135.12 141.31C134.629 142.107 134.198 142.939 133.83 143.8C133.66 143.8 133.5 143.73 133.34 143.68C131.17 143.11 130.34 142.13 130.1 141.22C129.994 140.769 129.994 140.301 130.1 139.85C130.149 139.592 130.237 139.342 130.36 139.11C131.535 140.055 132.899 140.737 134.36 141.11C134.83 141.24 135.12 141.31 135.12 141.31Z" fill="#263238"/>
<path d="M134.38 141.1L133.98 141.83C131.98 141.29 130.57 140.64 130.09 139.83C130.139 139.572 130.227 139.322 130.35 139.09C131.533 140.042 132.908 140.728 134.38 141.1V141.1Z" fill="white"/>
<path d="M133.34 143.68C131.17 143.11 130.34 142.13 130.1 141.22C130.923 141.451 131.698 141.827 132.39 142.33C132.844 142.666 133.177 143.139 133.34 143.68V143.68Z" fill="#DE5753"/>
<path d="M116.52 130.84C116.52 130.84 115.29 126.08 115.52 123.34C115.75 120.6 121.61 114.66 128 114.09C134.39 113.52 136 114.09 138 116.25C140 118.41 141.42 124.18 141.42 124.18C141.42 124.18 128.89 121.22 116.52 130.84Z" fill="#9C33B0"/>
<path d="M116.52 130.84C116.52 130.84 128.23 118 139.93 117C151.63 116 153.3 119.48 142.17 126C142.17 126 135.28 120.26 116.52 130.84Z" fill="#9C33B0"/>
<path opacity="0.2" d="M116.52 130.84C116.52 130.84 128.23 118 139.93 117C151.63 116 153.3 119.48 142.17 126C142.17 126 135.28 120.26 116.52 130.84Z" fill="black"/>
<path opacity="0.2" d="M111.16 185.33C110.87 183.02 110.52 180.72 110.16 178.43V178.37C110.5 177.8 113.29 173.13 113.57 169.79C113.805 170.777 113.966 171.779 114.05 172.79C114.35 176 114.21 181.14 111.16 185.33Z" fill="black"/>
<path d="M110.66 181.72C108.77 188.46 97.5 202.87 88.54 204.1C72.37 206.32 64.86 177.75 64.86 177.75L76.07 170.18C76.07 170.18 81.72 182.95 84.64 184.91C88.25 187.34 100.14 166.44 106.43 161.62C106.43 161.62 115.87 163.19 110.66 181.72Z" fill="#263238"/>
<path opacity="0.2" d="M110.66 181.72C108.77 188.46 97.5 202.87 88.54 204.1C72.37 206.32 64.86 177.75 64.86 177.75L76.07 170.18C76.07 170.18 81.72 182.95 84.64 184.91C88.25 187.34 100.14 166.44 106.43 161.62C106.43 161.62 115.87 163.19 110.66 181.72Z" fill="white"/>
<path d="M272.71 172L279.64 167.18C280.413 165.749 281.342 164.407 282.41 163.18C283.79 161.74 288.14 159.48 289.33 159.62C290.52 159.76 296 163.71 293.85 165.79C291.7 167.87 286.45 170.49 285.57 170.17L284.69 169.85L276 176.85L272.71 172Z" fill="#EEC1BB"/>
<path d="M282.41 173.21C282.41 173.21 263.3 190 256 193.65C252.42 195.45 244 198.35 236.44 200.81C228.64 203.34 221.69 205.42 221.69 205.42L220.48 203.17L213.57 190.32C213.57 190.32 249.67 185.32 252.84 183.99C256.01 182.66 277.65 167.16 277.65 167.16L282.41 173.21Z" fill="#263238"/>
<path opacity="0.2" d="M236.47 200.81C228.67 203.34 221.72 205.42 221.72 205.42L220.51 203.17V197.25C220.51 197.25 231.56 197.6 236.47 200.81Z" fill="black"/>
<path d="M167.72 258.8L162.96 265.8C162.734 267.404 162.338 268.979 161.78 270.5C160.99 272.34 157.73 275.99 156.57 276.28C155.41 276.57 148.87 274.82 150.15 272.12C151.43 269.42 155.4 265.12 156.34 265.12H157.27L162.92 255.51L167.72 258.8Z" fill="#EEC1BB"/>
<path d="M201.09 151.61C206.45 151.54 217.4 160.97 217.4 160.97C217.4 160.97 220.64 174.97 223.67 177.84L221.35 178.84L219.41 175.9L220.51 180.15C220.51 180.15 210.82 184.48 202.83 184.9C194.84 185.32 191.15 183.71 191.15 183.71L191.95 180.15L190.4 183.21L187.12 181.82C188.651 176.443 189.748 170.952 190.4 165.4C191.15 157.59 201.09 151.61 201.09 151.61Z" fill="#263238"/>
<path d="M213.36 369.45C207.31 377.05 201.88 383.94 197.14 388.97C192.41 394.06 189.97 397.22 189.97 397.22L185.28 394.53C185.28 394.53 189.61 387.68 195.48 378.23C200.48 370.23 206.59 360.33 212.14 351.16C219.33 339.32 225.56 328.7 227.21 324.9C228.38 322.2 225.21 311.83 221.69 302.05C218.12 292.1 214.2 282.74 214.2 282.74L227 261.1C227 261.1 232.2 275.51 236.82 290.71C239.82 300.71 242.63 310.96 243.56 317.8C244.85 327.35 228.36 350.57 213.36 369.45Z" fill="#EEC1BB"/>
<path opacity="0.2" d="M213.4 369.45C207.4 377.05 201.55 383.94 197.23 388.97C196.61 385.88 195.99 382.22 195.49 378.23C200.49 370.23 206.6 360.33 212.15 351.16C212.029 357.282 212.447 363.402 213.4 369.45V369.45Z" fill="black"/>
<path opacity="0.2" d="M236.8 290.71L221.69 302.05C218.12 292.1 214.2 282.74 214.2 282.74L227 261.1C227 261.1 232.18 275.51 236.8 290.71Z" fill="black"/>
<path d="M210.41 408.27L205 409C205 409 197.18 370.53 197.42 338.78C194.52 328.276 192.256 317.607 190.64 306.83C188.72 293.83 187.78 279.35 190.31 268.55L209.26 277.08L209.65 305.5L209.97 329.19L210.41 408.27Z" fill="#EEC1BB"/>
<path opacity="0.2" d="M209.61 305.48L190.61 306.81C188.69 293.81 187.75 279.33 190.28 268.53L209.23 277.06L209.61 305.48Z" fill="black"/>
<path d="M185.59 391.54C186.15 391.13 190.87 398.2 190.87 398.2C190.87 398.2 189.82 405.57 191.95 410.32C194.08 415.07 189.95 414.66 186.5 410.16L178 399C175.56 395.83 179.81 395.75 185.59 391.54Z" fill="#263238"/>
<path d="M192.47 403.53C191.4 403.28 190.7 400.23 190.57 399.62V399.53C190.57 399.53 190.57 399.53 190.57 399.46V399.4H190.64C190.74 399.4 192.74 398.74 193.81 399.4C193.975 399.493 194.118 399.621 194.228 399.774C194.339 399.928 194.415 400.104 194.45 400.29C194.54 400.71 194.45 401 194.23 401.16C194.01 401.32 193.13 401.21 192.42 400.88C192.9 401.322 193.247 401.891 193.42 402.52C193.442 402.644 193.437 402.772 193.406 402.894C193.375 403.017 193.319 403.131 193.24 403.23C193.163 403.345 193.061 403.441 192.942 403.511C192.822 403.58 192.688 403.621 192.55 403.63L192.47 403.53ZM192.57 403.1C192.57 403.1 192.75 403.1 192.96 402.87C193.001 402.818 193.03 402.759 193.045 402.695C193.061 402.631 193.062 402.565 193.05 402.5C192.96 401.8 191.9 400.77 191.16 400.15C191.49 401.46 192.07 403 192.57 403.1V403.1ZM191.34 399.66C192.48 400.37 193.74 400.93 194.06 400.66C194.15 400.6 194.12 400.38 194.06 400.25C194.035 400.126 193.984 400.01 193.91 399.908C193.836 399.806 193.74 399.721 193.63 399.66C193.32 399.505 192.976 399.43 192.63 399.44C192.193 399.466 191.761 399.54 191.34 399.66V399.66Z" fill="#9C33B0"/>
<path d="M203 405.51C203 404.82 211.49 405.36 211.49 405.36C211.49 405.36 216.71 410.66 221.78 411.86C226.85 413.06 224.01 416.09 218.35 416.09H204.35C200.34 416.09 202.86 412.66 203 405.51Z" fill="#263238"/>
<path d="M212.47 406.45C212.443 406.439 212.419 406.422 212.4 406.4V406.4C212.397 406.38 212.397 406.36 212.4 406.34V406.34C212.396 406.317 212.396 406.293 212.4 406.27V406.27C212.4 406.27 212.4 406.2 212.4 406.18C212.4 406.16 213.14 404.11 214.29 403.63C214.461 403.551 214.647 403.51 214.835 403.51C215.023 403.51 215.209 403.551 215.38 403.63C215.77 403.82 215.96 404.06 215.94 404.35C215.92 404.64 215.31 405.24 214.62 405.61C215.26 405.5 215.919 405.572 216.52 405.82C216.633 405.877 216.732 405.957 216.811 406.055C216.891 406.154 216.948 406.268 216.98 406.39C217.041 406.544 217.053 406.712 217.016 406.873C216.978 407.034 216.893 407.179 216.77 407.29C216.552 407.446 216.287 407.52 216.02 407.5C214.783 407.365 213.581 407.009 212.47 406.45V406.45ZM213.24 406.31C214.49 406.84 216.05 407.31 216.45 406.98C216.45 406.98 216.59 406.86 216.5 406.53C216.482 406.467 216.451 406.408 216.41 406.356C216.369 406.305 216.318 406.262 216.26 406.23C215.946 406.091 215.603 406.03 215.26 406.05C214.58 406.069 213.903 406.156 213.24 406.31ZM214.42 404.05C213.749 404.48 213.239 405.12 212.97 405.87C214.22 405.39 215.43 404.73 215.46 404.35C215.46 404.23 215.27 404.12 215.15 404.07C215.028 404.012 214.895 403.981 214.76 403.98C214.643 403.979 214.527 404.003 214.42 404.05V404.05Z" fill="#9C33B0"/>
<path d="M218 296.72L238.51 286C232.07 266.42 226.26 255.31 226.26 255.31C206.12 258.76 207.96 274.68 207.96 274.68C207.96 274.68 213.09 285.28 218 296.72Z" fill="#9C33B0"/>
<path opacity="0.2" d="M216.71 293.7C217.15 294.7 217.58 295.7 218.02 296.7L238.51 286C232.07 266.42 226.26 255.31 226.26 255.31C213.83 257.45 209.77 264.31 208.48 269.31C208.007 271.068 207.828 272.893 207.95 274.71C207.95 274.71 212.21 283.48 216.71 293.7Z" fill="white"/>
<path opacity="0.2" d="M216.71 293.7C212.21 283.48 207.95 274.7 207.95 274.7C207.828 272.883 208.007 271.058 208.48 269.3C209.121 268.88 209.832 268.579 210.58 268.41C210.58 268.41 216.06 277 216.71 293.7Z" fill="black"/>
<path d="M211.68 301.14L211 268.37L227.24 263.63C227.24 263.63 225.97 248.63 224.07 241.18C224.07 241.18 197.69 234.61 193.67 243.56C193.67 243.56 193.67 243.7 193.61 243.75L193.55 243.83C193.55 243.83 185.97 257.16 188.23 301.14H211.68Z" fill="#9C33B0"/>
<path opacity="0.2" d="M211.68 301.14L211 268.37L227.24 263.63C227.24 263.63 225.97 248.63 224.07 241.18C224.07 241.18 197.69 234.61 193.67 243.56C193.67 243.56 193.67 243.7 193.61 243.75L193.55 243.83C193.55 243.83 185.97 257.16 188.23 301.14H211.68Z" fill="white"/>
<path d="M193.35 239.02V243.49L223.67 241.15V235.86L193.35 239.02Z" fill="#9C33B0"/>
<path d="M203.637 237.122L202.119 237.199L202.514 244.919L204.032 244.841L203.637 237.122Z" fill="#9C33B0"/>
<path d="M216.866 236.939L210.182 237.538L210.636 242.598L217.319 241.999L216.866 236.939Z" fill="white"/>
<path d="M222.298 235.08L220.78 235.158L221.175 242.878L222.693 242.8L222.298 235.08Z" fill="#9C33B0"/>
<path opacity="0.2" d="M203.637 237.122L202.119 237.199L202.514 244.919L204.032 244.841L203.637 237.122Z" fill="white"/>
<path opacity="0.2" d="M222.298 235.08L220.78 235.158L221.175 242.878L222.693 242.8L222.298 235.08Z" fill="white"/>
<path d="M224 236.4L193.49 239C193.264 234.276 192.773 229.569 192.02 224.9C191.128 219.87 189.936 214.898 188.45 210.01C187.58 207.01 186.55 203.79 185.32 200.08C184.74 198.307 184.103 196.43 183.41 194.45C187.556 193.121 191.794 192.098 196.09 191.39C200.625 190.602 205.209 190.138 209.81 190C215.75 190 222.58 190.62 222.58 190.62C222.58 190.62 223.58 190.86 224.16 197.15C224.72 203.05 225.27 214.88 224 236.4Z" fill="#263238"/>
<path d="M186.25 299.8L213.01 299.56L212.54 303.59L187.43 303.35L186.25 299.8Z" fill="#9C33B0"/>
<path d="M216.33 296.48L238.59 284.4L239.78 287.95L218.22 298.61L216.33 296.48Z" fill="#9C33B0"/>
<path d="M207.29 196.73C199.76 195.73 197.49 192.54 197.49 192.54C200.57 189.65 200.01 185.36 199.23 182.69C198.991 181.845 198.68 181.022 198.3 180.23L207.37 181.92C207.156 183.183 207.036 184.46 207.01 185.74C206.985 186.684 207.072 187.627 207.27 188.55C207.89 191.26 209.43 191.29 209.43 191.29C211 194.27 207.29 196.73 207.29 196.73Z" fill="#EEC1BB"/>
<path opacity="0.2" d="M207 185.74C206.975 186.684 207.062 187.627 207.26 188.55C203.66 188.07 200.93 185.19 199.26 182.69C199.021 181.845 198.709 181.022 198.33 180.23L207.4 181.92C207.173 183.182 207.039 184.459 207 185.74Z" fill="black"/>
<path d="M205.52 156.82C213.4 157.11 215.78 161.43 216.06 169.58C216.4 179.76 213.89 186.89 204.11 184.35C190.83 180.91 192.42 156.34 205.52 156.82Z" fill="#EEC1BB"/>
<path d="M211 169C211.588 170.199 212.316 171.323 213.17 172.35C212.929 172.669 212.604 172.914 212.231 173.059C211.859 173.203 211.453 173.242 211.06 173.17L211 169Z" fill="#D4827D"/>
<path d="M206.3 162.67C205.68 162.571 205.045 162.617 204.445 162.802C203.846 162.988 203.296 163.309 202.84 163.74" stroke="#263238" stroke-width="0.707962" stroke-linecap="round" stroke-linejoin="round"/>
<path d="M212 162.55C212.544 162.436 213.108 162.445 213.648 162.579C214.188 162.712 214.691 162.965 215.12 163.32" stroke="#263238" stroke-width="0.707962" stroke-linecap="round" stroke-linejoin="round"/>
<path d="M209.78 176.17C209.38 177.047 209.046 177.953 208.78 178.88L208.28 178.81C205.99 178.49 205.04 177.59 204.67 176.69C204.503 176.243 204.445 175.764 204.5 175.29C204.522 175.02 204.579 174.755 204.67 174.5C205.992 175.331 207.48 175.86 209.03 176.05C209.47 176.14 209.78 176.17 209.78 176.17Z" fill="#263238"/>
<path d="M209 176.05L208.68 176.84C206.52 176.54 205.05 176.04 204.47 175.29C204.492 175.02 204.549 174.755 204.64 174.5C205.962 175.331 207.45 175.86 209 176.05V176.05Z" fill="white"/>
<path d="M208.25 178.81C205.96 178.49 205.01 177.59 204.64 176.69C205.506 176.828 206.342 177.116 207.11 177.54C207.61 177.838 208.007 178.281 208.25 178.81V178.81Z" fill="#DE5753"/>
<path d="M196.41 169.79C196.41 169.79 200.34 163.45 199.96 158.43C199.96 158.43 215.82 152.62 215.96 168.51C215.96 168.51 217.96 154.51 204.46 153.67C190.96 152.83 190.24 172.67 197.02 178.85C197.07 178.85 194 173.76 196.41 169.79Z" fill="#263238"/>
<path d="M197.63 171.5C197.611 171.047 197.502 170.602 197.311 170.191C197.119 169.779 196.849 169.41 196.514 169.103C196.18 168.797 195.788 168.559 195.362 168.404C194.936 168.249 194.483 168.18 194.03 168.2C191.58 168.38 190.23 173.35 196.26 174.78C197.12 175 197.65 174.15 197.63 171.5Z" fill="#EEC1BB"/>
<path d="M201.09 151.61C205.35 150.43 216.72 150.27 219.41 162.03L217.83 162.82C215.159 161.48 212.27 160.627 209.3 160.3C208.669 159.177 207.928 158.118 207.09 157.14C207.177 158.138 207.177 159.142 207.09 160.14C207.09 160.14 199.67 161.22 196.35 164.24C191.14 168.98 190.83 171.98 190.83 171.98C190.83 171.98 187.21 155.47 201.09 151.61Z" fill="#263238"/>
<path d="M200.46 152.48C200.46 152.48 215.7 147.19 220.46 161.64" stroke="#263238" stroke-width="0.488465" stroke-linecap="round" stroke-linejoin="round"/>
<path d="M204 168.13C204 168.13 205.85 166.56 206.72 168.67C205.874 168.263 204.938 168.077 204 168.13V168.13Z" fill="#263238"/>
<path d="M212.78 169.3C212.78 169.3 213.78 167.16 215.16 168.67C214.328 168.687 213.512 168.903 212.78 169.3Z" fill="#263238"/>
<path opacity="0.3" d="M215.78 201.16H220.2C220.36 201.167 220.517 201.213 220.656 201.293C220.795 201.373 220.912 201.486 220.999 201.621C221.085 201.757 221.137 201.911 221.152 202.071C221.166 202.231 221.141 202.392 221.08 202.54L219.25 206.48C219.17 206.629 219.054 206.756 218.912 206.848C218.77 206.941 218.607 206.995 218.438 207.007C218.269 207.019 218.1 206.988 217.947 206.917C217.793 206.846 217.66 206.737 217.56 206.6L214.96 202.67C214.872 202.521 214.823 202.352 214.82 202.179C214.817 202.005 214.858 201.834 214.941 201.682C215.024 201.53 215.144 201.402 215.291 201.31C215.439 201.219 215.607 201.167 215.78 201.16V201.16Z" fill="white"/>
<path opacity="0.2" d="M192 224.94C191.108 219.91 189.916 214.938 188.43 210.05L190.09 207.05C192.174 212.769 192.829 218.91 192 224.94V224.94Z" fill="black"/>
<path d="M183.41 194.49C180.55 198.11 179.26 224.06 173.47 234.58C167.68 245.1 159.54 259.38 159.54 259.38L165.48 264.54C165.48 264.54 183.77 243.18 186.69 234.97C189.61 226.76 190.4 215.85 190.4 215.85C192 201.16 183.41 194.49 183.41 194.49Z" fill="#263238"/>
<path opacity="0.6" d="M185.59 391.54C186.15 391.13 190.87 398.2 190.87 398.2C190.87 398.2 189.82 405.57 191.95 410.32C194.08 415.07 189.95 414.66 186.5 410.16L178 399C175.56 395.83 179.81 395.75 185.59 391.54Z" fill="white"/>
<path opacity="0.6" d="M203 405.51C203 404.82 211.49 405.36 211.49 405.36C211.49 405.36 216.71 410.66 221.78 411.86C226.85 413.06 224.01 416.09 218.35 416.09H204.35C200.34 416.09 202.86 412.66 203 405.51Z" fill="white"/>
<path d="M244.94 213.73C250.08 215.8 254.43 210.65 254.63 204.52C254.63 204.52 259.32 201.52 264.63 198.26C268.633 195.745 272.762 193.435 277 191.34C277.693 191.016 278.295 190.525 278.75 189.91V189.91C282.85 184.59 280.96 169.26 280.96 169.26C271.46 170.32 252.48 187.53 244.17 195.83C235.86 204.13 239.8 211.65 244.94 213.73Z" fill="#9C33B0"/>
<path opacity="0.2" d="M264.63 198.26C268.633 195.745 272.762 193.435 277 191.34C277.693 191.016 278.295 190.525 278.75 189.91V189.91L272.09 184C272.09 184 266.16 191.71 264.63 198.26Z" fill="black"/>
<path d="M276.22 408.64L268.11 409.5L266.58 392L274.7 391.14L276.22 408.64Z" fill="#EBB376"/>
<path d="M316.7 408.05H308.84L308.19 389.84H316.06L316.7 408.05Z" fill="#EBB376"/>
<path d="M307.75 407.14H317.3C317.457 407.139 317.609 407.192 317.731 407.291C317.853 407.389 317.938 407.527 317.97 407.68L319.52 414.68C319.582 414.981 319.522 415.294 319.353 415.551C319.185 415.808 318.921 415.987 318.62 416.05C318.537 416.06 318.453 416.06 318.37 416.05C315.28 416 313.03 415.81 309.15 415.81C306.76 415.81 299.55 416.06 296.25 416.06C292.95 416.06 292.52 412.8 293.87 412.5C299.93 411.18 304.49 409.35 306.43 407.61C306.794 407.29 307.266 407.122 307.75 407.14Z" fill="#263238"/>
<path d="M305.15 408.52C304.616 408.56 304.084 408.419 303.64 408.12C303.494 408.001 303.382 407.847 303.313 407.671C303.245 407.496 303.223 407.306 303.25 407.12C303.246 407.011 303.274 406.904 303.331 406.812C303.388 406.719 303.471 406.645 303.57 406.6C304.44 406.15 306.98 407.71 307.26 407.89C307.292 407.907 307.318 407.933 307.335 407.965C307.351 407.998 307.356 408.034 307.35 408.07C307.345 408.108 307.329 408.143 307.304 408.171C307.28 408.2 307.247 408.22 307.21 408.23C306.536 408.401 305.845 408.499 305.15 408.52V408.52ZM304 406.89C303.917 406.881 303.833 406.899 303.76 406.94C303.71 406.94 303.65 407.01 303.64 407.16C303.624 407.284 303.639 407.409 303.683 407.526C303.726 407.642 303.797 407.747 303.89 407.83C304.772 408.23 305.773 408.28 306.69 407.97C305.872 407.439 304.958 407.072 304 406.89Z" fill="#9C33B0"/>
<path d="M307.16 408.24H307.07C306.26 407.8 304.69 406.07 304.85 405.24C304.878 405.101 304.953 404.977 305.062 404.888C305.172 404.798 305.309 404.75 305.45 404.75C305.591 404.731 305.735 404.743 305.871 404.785C306.007 404.826 306.133 404.896 306.24 404.99C307.15 405.73 307.34 407.99 307.35 408.1C307.351 408.134 307.343 408.167 307.327 408.197C307.311 408.226 307.288 408.252 307.26 408.27C307.224 408.271 307.189 408.26 307.16 408.24V408.24ZM305.58 405.05H305.49C305.25 405.05 305.23 405.19 305.22 405.24C305.12 405.75 306.12 407.06 306.93 407.67C306.879 406.774 306.555 405.915 306 405.21C305.883 405.11 305.734 405.053 305.58 405.05V405.05Z" fill="#9C33B0"/>
<path d="M267.25 406.89H276.8C276.957 406.889 277.109 406.942 277.231 407.041C277.353 407.139 277.438 407.277 277.47 407.43L279.02 414.43C279.082 414.731 279.022 415.044 278.853 415.301C278.685 415.558 278.421 415.737 278.12 415.8C278.037 415.81 277.953 415.81 277.87 415.8C274.78 415.75 272.53 415.56 268.65 415.56C266.26 415.56 259.05 415.81 255.75 415.81C252.45 415.81 252.02 412.55 253.37 412.25C259.43 410.93 263.99 409.1 265.93 407.36C266.294 407.04 266.766 406.872 267.25 406.89Z" fill="#263238"/>
<path d="M264.65 408.27C264.116 408.31 263.584 408.169 263.14 407.87C262.994 407.751 262.882 407.597 262.813 407.421C262.745 407.246 262.723 407.056 262.75 406.87C262.746 406.761 262.774 406.654 262.831 406.562C262.888 406.469 262.971 406.395 263.07 406.35C263.94 405.9 266.48 407.46 266.76 407.64C266.792 407.657 266.818 407.683 266.835 407.715C266.851 407.748 266.856 407.784 266.85 407.82C266.845 407.858 266.829 407.893 266.804 407.921C266.78 407.95 266.747 407.97 266.71 407.98C266.036 408.151 265.345 408.249 264.65 408.27V408.27ZM263.48 406.64C263.397 406.631 263.313 406.649 263.24 406.69C263.19 406.69 263.13 406.76 263.12 406.91C263.104 407.034 263.119 407.159 263.163 407.276C263.206 407.392 263.277 407.497 263.37 407.58C264.252 407.98 265.253 408.03 266.17 407.72C265.352 407.189 264.438 406.822 263.48 406.64V406.64Z" fill="#9C33B0"/>
<path d="M266.66 408H266.57C265.76 407.56 264.19 405.83 264.35 405C264.378 404.861 264.453 404.737 264.562 404.648C264.672 404.558 264.809 404.51 264.95 404.51C265.091 404.491 265.235 404.503 265.371 404.545C265.507 404.586 265.633 404.656 265.74 404.75C266.65 405.49 266.84 407.75 266.85 407.86C266.851 407.894 266.843 407.927 266.827 407.957C266.811 407.986 266.788 408.012 266.76 408.03C266.724 408.031 266.689 408.02 266.66 408V408ZM265.08 404.81H265C264.76 404.81 264.74 404.95 264.73 405C264.63 405.51 265.63 406.82 266.44 407.43C266.389 406.534 266.065 405.675 265.51 404.97C265.391 404.864 265.239 404.804 265.08 404.8V404.81Z" fill="#9C33B0"/>
<path opacity="0.2" d="M274.7 391.14L266.58 392L267.38 401.02L275.49 400.17L274.7 391.14Z" fill="black"/>
<path opacity="0.2" d="M316.06 389.85H308.19L308.53 399.24H316.4L316.06 389.85Z" fill="black"/>
<path d="M312.81 238.11H271.09C267.09 259.77 254.71 328.44 263.61 396.74L277.74 395C277.74 395 276.43 312.32 288.9 278.8C290.34 296.74 292.04 307.8 293.52 317.99C297.15 342.99 304.92 397.62 304.92 397.62H319.3C319.3 397.62 316.36 345.33 315 320.76C313.51 294.07 312.87 243.59 312.81 238.11Z" fill="#263238"/>
<path d="M262 400.03L279.48 397.43L278.95 392.59L260.76 394.98L262 400.03Z" fill="#9C33B0"/>
<path d="M303.19 397.73H320.15V392.66L302.55 392.33L303.19 397.73Z" fill="#9C33B0"/>
<path opacity="0.2" d="M288.9 278.79C286.85 284.65 285.291 290.671 284.24 296.79C283.07 280.79 287.74 263.89 287.74 263.89L288.9 278.79Z" fill="black"/>
<path d="M320 172.62C317.69 181.106 316.018 189.754 315 198.49C314.67 201.17 314.4 203.8 314.18 206.35C313.89 209.59 313.69 212.71 313.53 215.67C313.33 219.42 313.27 223.85 313.28 228.21C313.28 238.21 313.7 244.86 313.7 244.86C305.7 246.86 282.58 245.53 269.95 244.61C268.465 233.539 268.076 222.348 268.79 211.2C269.211 203.179 270.095 195.189 271.44 187.27C272.119 183.042 273.06 178.861 274.26 174.75C274.724 173.293 275.597 172 276.774 171.023C277.95 170.047 279.382 169.428 280.9 169.24C282.43 169.05 284.2 168.86 286.06 168.75C286.78 168.75 287.5 168.68 288.23 168.67C294.196 168.738 300.152 169.152 306.07 169.91C307.19 170.04 308.33 170.21 309.43 170.39C312.99 170.947 316.518 171.691 320 172.62V172.62Z" fill="#9C33B0"/>
<path d="M306.12 169.86C302.29 173.34 292.91 172.05 292.91 172.05C292.91 172.05 287.05 170.45 288.28 168.62C291.73 168.05 293.4 166.44 294.09 164.38C294.468 163.103 294.587 161.764 294.44 160.44C294.383 159.702 294.286 158.968 294.15 158.24L294.86 157.72L297.28 155.92L305.75 149.65C304.961 152.575 304.403 155.558 304.08 158.57C303.7 161.445 303.887 164.367 304.63 167.17C304.932 168.161 305.44 169.078 306.12 169.86V169.86Z" fill="#EBB376"/>
<path opacity="0.2" d="M315.31 196.33C315.6 194.02 315.95 191.72 316.31 189.43V189.37C315.97 188.8 313.18 184.13 312.9 180.79C312.665 181.777 312.504 182.779 312.42 183.79C312.12 187 312.26 192.14 315.31 196.33Z" fill="black"/>
<path d="M336.05 220.62L323 246.79C319.42 247.35 315.62 262.67 314.74 263.98C313.86 265.29 325.1 265.1 326.07 263.98C327.04 262.86 331.19 253.18 329.83 250.36L346.74 224.58C346.74 224.58 343.52 219.31 336.05 220.62Z" fill="#EBB376"/>
<path d="M320 172.62C321.73 172.43 351.14 198.49 350.74 212.62C350.34 226.75 346.39 227.19 346.39 227.19L335.39 224.91C335.39 224.91 337.84 212.83 335.2 210.11C332.56 207.39 315.8 192.67 315.8 192.67C315.8 192.67 310.07 173.72 320 172.62Z" fill="#9C33B0"/>
<path opacity="0.6" d="M278.73 183.68C278.73 183.68 297.33 184.52 304.87 186.34C304.87 186.34 301.61 213.09 301.67 221.08C301.67 221.08 280.5 220.15 274.5 219.87C274.5 219.87 276.83 191.3 278.73 183.68Z" fill="white"/>
<path d="M248.65 201.16L274.55 204.22C276.72 201.82 290 206.48 291.41 206.47C292.82 206.46 287.18 214.74 285.9 214.94C284.62 215.14 275.35 213.47 273.9 211.08H246.4C246.4 211.08 244 206.09 248.65 201.16Z" fill="#EBB376"/>
<path opacity="0.2" d="M304.63 167.17C298.58 167.83 295.91 161.52 294.86 157.72L297.28 155.92C299.59 156.688 301.859 157.573 304.08 158.57C303.7 161.445 303.887 164.367 304.63 167.17V167.17Z" fill="black"/>
<path d="M315 136.56C315 136.56 316.33 145.48 310.58 149.64C304.83 153.8 304.83 133.64 304.83 133.64L315 136.56Z" fill="#263238"/>
<path d="M293.93 158.25C295.135 160.034 296.892 161.372 298.932 162.061C300.971 162.749 303.181 162.749 305.22 162.06C307.872 161.215 310.106 159.396 311.47 156.97C311.66 156.646 311.834 156.312 311.99 155.97C314.82 149.35 315.72 137.77 308.72 133.43C307.181 132.463 305.42 131.906 303.605 131.812C301.79 131.717 299.98 132.088 298.349 132.89C296.718 133.692 295.318 134.897 294.284 136.392C293.25 137.886 292.615 139.621 292.44 141.43C291.58 149.16 290.71 153.67 293.93 158.25Z" fill="#EBB376"/>
<path d="M303.72 145.56C303.57 146.17 303.85 146.74 304.27 146.81C304.69 146.88 305.09 146.43 305.2 145.81C305.31 145.19 305.06 144.62 304.65 144.55C304.24 144.48 303.83 144.93 303.72 145.56Z" fill="#263238"/>
<path d="M310.78 146.76C310.64 147.38 310.93 147.95 311.33 148.02C311.73 148.09 312.16 147.63 312.27 147.02C312.38 146.41 312.12 145.83 311.72 145.77C311.32 145.71 310.89 146.17 310.78 146.76Z" fill="#263238"/>
<path d="M308.49 146.69C308.902 148.731 309.599 150.703 310.56 152.55C310.075 152.778 309.546 152.895 309.01 152.895C308.474 152.895 307.945 152.778 307.46 152.55L308.49 146.69Z" fill="#D58745"/>
<path d="M301.92 142.9C301.986 142.921 302.056 142.923 302.122 142.908C302.189 142.892 302.251 142.858 302.3 142.81C302.634 142.484 303.039 142.24 303.483 142.097C303.927 141.955 304.399 141.918 304.86 141.99C304.955 142.011 305.055 141.993 305.138 141.941C305.22 141.888 305.279 141.805 305.3 141.71C305.312 141.663 305.314 141.615 305.307 141.567C305.3 141.52 305.283 141.474 305.258 141.433C305.233 141.392 305.2 141.356 305.161 141.328C305.121 141.3 305.077 141.281 305.03 141.27V141.27C304.449 141.166 303.852 141.203 303.289 141.377C302.725 141.551 302.211 141.857 301.79 142.27C301.722 142.339 301.683 142.433 301.683 142.53C301.683 142.627 301.722 142.721 301.79 142.79C301.828 142.833 301.871 142.87 301.92 142.9V142.9Z" fill="#263238"/>
<path d="M314.24 144.85C314.304 144.887 314.377 144.904 314.45 144.9C314.545 144.872 314.625 144.808 314.673 144.723C314.722 144.637 314.735 144.535 314.71 144.44C314.556 143.868 314.268 143.342 313.869 142.903C313.471 142.465 312.974 142.128 312.42 141.92C312.373 141.905 312.324 141.899 312.275 141.904C312.227 141.908 312.179 141.922 312.136 141.946C312.093 141.969 312.055 142.001 312.025 142.04C311.995 142.078 311.973 142.123 311.96 142.17V142.17C311.935 142.264 311.947 142.364 311.993 142.45C312.04 142.536 312.117 142.6 312.21 142.63C312.643 142.801 313.03 143.071 313.341 143.419C313.652 143.766 313.877 144.181 314 144.63C314.022 144.682 314.055 144.728 314.096 144.766C314.137 144.804 314.187 144.833 314.24 144.85V144.85Z" fill="#263238"/>
<path d="M303.88 129C302.96 128.87 302.04 128.76 301.11 128.72C298.431 128.469 295.737 129.008 293.36 130.27C288.01 133.44 288.93 141.56 289.62 146.82C290.54 153.82 293.29 156.99 293.29 156.99C291.62 153.65 292.12 147.15 293.2 146.99C294.28 146.83 294.2 148.07 294.2 148.07C296.62 146.57 298.79 142.32 298.04 139.32C297.46 137.02 300.04 135.32 302.2 136.4L302.86 136.72L303.86 137.2L303.88 129Z" fill="#263238"/>
<path d="M288 147.14C288.272 148.073 288.725 148.943 289.335 149.699C289.944 150.456 290.697 151.085 291.55 151.55C293.84 152.78 295.55 150.87 295.4 148.41C295.24 146.23 293.88 142.89 291.35 142.7C288.82 142.51 287.36 144.82 288 147.14Z" fill="#EBB376"/>
<path d="M289.68 135.38C289.68 135.38 288.68 127.44 297.92 126.11C307.16 124.78 315.17 122.71 315.17 122.71C315.17 122.71 315.03 127.38 313.33 128.71C313.33 128.71 316.65 128.86 318.63 127.54C318.63 127.54 318.1 131.63 316.91 133.08L318.63 131.76C318.438 133.309 317.768 134.759 316.712 135.909C315.656 137.058 314.267 137.848 312.74 138.17C307.29 139.41 297.11 135.38 297.11 135.38H289.68Z" fill="#263238"/>
<path d="M307.22 155.2C306.628 155.93 306.09 156.702 305.61 157.51C305.46 157.45 305.3 157.4 305.15 157.33C303.07 156.49 302.38 155.41 302.25 154.47C302.198 154.01 302.256 153.543 302.42 153.11C302.504 152.862 302.622 152.626 302.77 152.41C303.827 153.497 305.101 154.349 306.51 154.91C306.94 155.1 307.22 155.2 307.22 155.2Z" fill="#263238"/>
<path d="M306.51 154.91L306.02 155.57C304.02 154.78 302.79 153.95 302.42 153.11C302.504 152.862 302.622 152.626 302.77 152.41C303.827 153.497 305.101 154.349 306.51 154.91Z" fill="white"/>
<path d="M305.15 157.33C303.07 156.49 302.38 155.41 302.25 154.47C303.037 154.803 303.759 155.273 304.38 155.86C304.779 156.261 305.047 156.774 305.15 157.33V157.33Z" fill="#DE5753"/>
</svg>
