<svg width="32" height="32" viewBox="0 0 32 32" fill="none" xmlns="http://www.w3.org/2000/svg">
<path d="M18.2658 26.0683L26.1048 18.2143L30.5738 22.6933C31.4664 23.5864 31.9679 24.7975 31.9679 26.0603C31.9679 27.323 31.4664 28.5341 30.5738 29.4273L29.4698 30.5313C29.0283 30.9746 28.5035 31.3263 27.9257 31.5664C27.3479 31.8064 26.7284 31.9299 26.1028 31.9299C25.4771 31.9299 24.8576 31.8064 24.2798 31.5664C23.702 31.3263 23.1773 30.9746 22.7358 30.5313L18.2658 26.0683ZM30.5628 2.5313L29.4538 1.4273C28.5606 0.534649 27.3495 0.0332031 26.0868 0.0332031C24.824 0.0332031 23.6129 0.534649 22.7198 1.4273L16.0008 8.1613L9.26677 1.4273C8.37361 0.534649 7.16253 0.0332031 5.89977 0.0332031C4.63701 0.0332031 3.42593 0.534649 2.53277 1.4273L1.42877 2.5313C0.536114 3.42446 0.034668 4.63554 0.034668 5.8983C0.034668 7.16106 0.536114 8.37214 1.42877 9.2653L8.16277 15.9993L1.42877 22.7333C0.536114 23.6264 0.034668 24.8375 0.034668 26.1003C0.034668 27.363 0.536114 28.5741 1.42877 29.4673L2.53277 30.5713C3.42593 31.4639 4.63701 31.9654 5.89977 31.9654C7.16253 31.9654 8.37361 31.4639 9.26677 30.5713L30.5738 9.2643C31.4664 8.37114 31.9679 7.16006 31.9679 5.8973C31.9679 4.63454 31.4664 3.42346 30.5738 2.5303L30.5628 2.5313Z" fill="#F3F0F7"/>
</svg>
