<svg width="32" height="32" viewBox="0 0 32 32" fill="none" xmlns="http://www.w3.org/2000/svg">
<path d="M18.2658 26.0681L26.1048 18.2141L30.5738 22.6931C31.4664 23.5862 31.9679 24.7973 31.9679 26.0601C31.9679 27.3228 31.4664 28.5339 30.5738 29.4271L29.4698 30.5311C29.0283 30.9744 28.5035 31.3261 27.9257 31.5662C27.3479 31.8062 26.7284 31.9297 26.1028 31.9297C25.4771 31.9297 24.8576 31.8062 24.2798 31.5662C23.702 31.3261 23.1773 30.9744 22.7358 30.5311L18.2658 26.0681ZM30.5628 2.53106L29.4538 1.42706C28.5606 0.534405 27.3495 0.032959 26.0868 0.032959C24.824 0.032959 23.6129 0.534405 22.7198 1.42706L16.0008 8.16106L9.26677 1.42706C8.37361 0.534405 7.16253 0.032959 5.89977 0.032959C4.63701 0.032959 3.42593 0.534405 2.53277 1.42706L1.42877 2.53106C0.536114 3.42422 0.034668 4.6353 0.034668 5.89806C0.034668 7.16082 0.536114 8.3719 1.42877 9.26506L8.16277 15.9991L1.42877 22.7331C0.536114 23.6262 0.034668 24.8373 0.034668 26.1001C0.034668 27.3628 0.536114 28.5739 1.42877 29.4671L2.53277 30.5711C3.42593 31.4637 4.63701 31.9652 5.89977 31.9652C7.16253 31.9652 8.37361 31.4637 9.26677 30.5711L30.5738 9.26406C31.4664 8.3709 31.9679 7.15982 31.9679 5.89706C31.9679 4.6343 31.4664 3.42322 30.5738 2.53006L30.5628 2.53106Z" fill="#F3F0F7"/>
</svg>
