<svg width="165" height="294" viewBox="0 0 165 294" fill="none" xmlns="http://www.w3.org/2000/svg">
<path d="M36.5427 159.234C30.3308 155.334 23.3098 152.914 16.0192 152.159C12.6672 151.817 8.96238 151.911 6.30432 153.951C5.99635 154.131 5.74151 154.389 5.56585 154.7C5.3902 155.011 5.30004 155.363 5.30461 155.72C5.4721 156.214 5.80989 156.632 6.25728 156.899C14.6078 163.29 27.2395 164.092 36.5427 159.198" fill="url(#paint0_linear)"/>
<path d="M36.0489 158.656C31.2955 155.156 26.8599 151.242 22.7938 146.959C18.7115 142.654 15.8421 137.339 14.4786 131.559C14.1257 129.802 14.0199 127.797 15.1372 126.394C25.7224 134.648 33.9554 145.367 36.0489 158.656Z" fill="url(#paint1_linear)"/>
<path d="M36.4722 159.163C35.4908 153.38 35.5705 147.466 36.7074 141.711C38.0364 136.016 41.1296 130.557 45.9871 127.314C47.8101 131.594 47.0221 136.523 45.7401 140.992C43.7495 147.925 40.6428 154.485 36.5427 160.413" fill="url(#paint2_linear)"/>
<path d="M46.8219 177.77C40.5414 178.537 35.0606 181.862 30.3561 186.119C25.6408 190.427 22.3568 196.082 20.947 202.32C27.1217 201.943 32.3555 197.604 36.1427 192.687C39.9298 187.769 42.5643 182.44 46.7278 177.864" fill="url(#paint3_linear)"/>
<path d="M49.0681 180.742C46.5976 174.438 45.7341 167.617 46.5555 160.894C47.377 154.172 49.8575 147.761 53.7726 142.242C57.301 155.024 56.0425 169.457 49.0681 180.742" fill="url(#paint4_linear)"/>
<path d="M62.7583 197.085C57.0136 196.734 51.2926 198.081 46.3042 200.959C41.3158 203.836 37.2796 208.119 34.6958 213.275C34.3429 213.982 34.0371 214.867 34.5076 215.492C34.7498 215.727 35.0457 215.899 35.3696 215.994C35.6935 216.088 36.0355 216.102 36.3659 216.034C41.8937 215.68 46.7982 212.343 50.8441 208.534C54.89 204.726 58.4184 200.351 62.8877 197.061" fill="url(#paint5_linear)"/>
<path d="M62.3233 196.189C59.3788 186.681 59.1993 176.528 61.8058 166.922C62.829 163.149 64.5579 159.175 68.0275 157.418C68.168 157.325 68.3259 157.261 68.4917 157.23C68.6575 157.2 68.8276 157.204 68.992 157.241C69.2707 157.396 69.4839 157.648 69.5918 157.948C70.7547 160.573 71.2595 163.443 71.062 166.309C70.852 169.174 70.4115 172.017 69.7447 174.81C68.6509 180.011 68.0628 185.588 65.2283 190.069C64.5558 191.15 63.9509 192.273 63.4171 193.429C62.8761 194.609 62.8761 194.962 62.3821 195.87" fill="url(#paint6_linear)"/>
<path d="M98.5484 201.601C95.8668 191.366 98.713 178.961 105.146 170.566C105.629 169.952 106.252 169.292 107.028 169.386C108.204 169.492 108.522 171.073 108.463 172.264C107.983 182.792 104.546 192.969 98.5484 201.625" fill="url(#paint7_linear)"/>
<path d="M101.818 203.841C114.226 207.072 128.457 203.936 138.772 196.307C132.591 193.196 125.526 192.325 118.778 193.842C112.097 195.375 105.993 198.382 101.83 203.841" fill="url(#paint8_linear)"/>
<path d="M104.57 197.026C111.521 185.67 124.834 178.265 138.101 177.581C136.584 182.994 132.138 187.203 127.14 189.739C122.141 192.274 116.554 193.394 111.038 194.455C108.898 194.868 105.958 195.328 104.57 197.014" fill="url(#paint9_linear)"/>
<path d="M99.2423 163.95C101.124 157.489 103.018 150.98 103.535 144.27C104.053 137.561 103.088 130.545 99.6187 124.79C93.1264 137.372 92.4678 152.088 99.0424 164.634" fill="url(#paint10_linear)"/>
<path d="M121.083 152.89C128.681 139.058 144.159 128.01 159.825 126.465C153.78 141.546 137.302 153.208 121.083 152.89Z" fill="url(#paint11_linear)"/>
<path d="M116.32 155.59C127.634 157.323 137.278 164.564 147.852 168.962C150.068 170.033 152.525 170.504 154.979 170.33C156.124 170.324 157.239 169.965 158.173 169.302C159.107 168.638 159.815 167.703 160.2 166.622C160.586 165.542 160.63 164.368 160.327 163.262C160.024 162.155 159.389 161.169 158.508 160.436C157.012 159.048 155.251 157.978 153.333 157.288C141.807 152.477 129.457 152.359 117.319 155.272" fill="url(#paint12_linear)"/>
<path d="M109.768 163.549C112.332 164.292 113.203 165.613 115.237 167.346C122.155 173.245 130.338 177.462 139.148 179.669C140.054 179.893 141.254 179.987 141.712 179.162C142.171 178.336 141.606 177.558 141.089 176.909C137.246 172.394 132.261 169.001 126.658 167.087C121.13 165.023 116.355 162.547 109.768 163.078" fill="url(#paint13_linear)"/>
<path d="M102.406 115.487C107.052 119.765 112.538 123.024 118.512 125.055C124.487 127.085 130.818 127.842 137.102 127.278C137.681 127.282 138.243 127.082 138.689 126.712C139.56 125.757 138.513 124.283 137.513 123.493C127.316 115.51 114.967 112.209 102.429 115.44" fill="url(#paint14_linear)"/>
<path d="M111.133 112.268C117.278 107.738 124.404 104.728 131.929 103.485C139.455 102.241 147.168 102.798 154.438 105.11C148.981 110.499 141.418 113.364 133.797 114.19C126.188 114.891 118.516 114.24 111.133 112.268Z" fill="url(#paint15_linear)"/>
<path d="M107.651 90.1821C106.652 79.9824 107.299 71.9169 106.593 61.6582C106.593 60.8446 106.369 59.8541 105.605 59.5593C104.535 59.1466 103.653 60.4673 103.253 61.5521C101.769 66.3054 101.388 71.3359 102.141 76.2591C102.893 81.1824 104.758 85.868 107.593 89.9581" fill="url(#paint16_linear)"/>
<path d="M106.922 91.3142C113.826 87.0338 119.001 81.4446 123.788 74.8767C127.117 70.3134 129.927 64.8303 129.175 59.2293C124.47 59.135 120.048 61.7173 117.002 65.2784C114.099 68.9767 111.989 73.2358 110.804 77.7892C109.451 82.2818 108.451 86.9041 106.922 91.3142" fill="url(#paint17_linear)"/>
<path d="M123.494 86.7035C138.674 81.0618 152.729 72.7524 165 62.1652C160.048 60.1607 154.415 61.3516 149.404 63.3444C138.09 67.9313 128.834 75.6666 123.282 86.5738" fill="url(#paint18_linear)"/>
<path d="M111.58 96.9034C119.248 97.7406 127.022 98.283 134.632 97.0096C142.241 95.7361 149.169 92.7882 156.143 89.8403C156.755 89.67 157.28 89.2741 157.613 88.7319C157.721 88.4057 157.728 88.0546 157.633 87.7244C157.539 87.3942 157.348 87.1002 157.084 86.8806C156.546 86.4567 155.919 86.1622 155.249 86.0198C147.663 83.8973 139.466 84.8407 131.997 87.4112C124.881 89.8558 118.038 93.037 111.58 96.9034" fill="url(#paint19_linear)"/>
<path d="M67.8276 115.841C62.6056 105.228 62.9349 92.9059 67.4513 82.0105C70.6386 86.8686 70.9797 93.0474 70.4387 98.8253C69.8976 104.603 68.0864 110.617 67.9923 116.359" fill="url(#paint20_linear)"/>
<path d="M46.9393 105.275C40.3951 105.19 33.9051 106.475 27.8842 109.047C21.8633 111.62 16.4441 115.424 11.9729 120.215C18.4887 121.241 25.1926 119.555 31.1203 116.678C37.0481 113.801 42.3171 109.709 47.5862 105.664" fill="url(#paint21_linear)"/>
<path d="M32.9082 100.571C26.5218 100.052 20.3706 99.2616 14.2312 101.148C8.0918 103.035 2.50516 107.351 0 113.246C6.02839 113.738 12.0777 112.594 17.5126 109.933C22.9098 107.278 28.0618 104.149 32.9082 100.582" fill="url(#paint22_linear)"/>
<path d="M53.6902 100.783C47.9507 97.0095 42.0465 93.1654 35.3661 91.609C28.6856 90.0525 20.9232 91.1963 16.2539 96.2548C21.6759 99.4385 28.2387 99.7923 34.5192 99.7923C40.7998 99.7923 48.4917 99.7215 54.4077 101.82" fill="url(#paint23_linear)"/>
<path d="M53.7256 101.089C43.9049 91.4202 40.1883 74.0512 44.1401 60.8328C51.8924 72.7323 55.2807 86.9622 53.7256 101.089Z" fill="url(#paint24_linear)"/>
<path d="M80.7296 73.6974C82.5761 69.3817 83.8817 64.842 85.5518 60.4555C87.0614 55.9957 89.3867 51.857 92.4086 48.2512C95.476 44.6235 99.845 42.3529 104.57 41.9309C103.061 48.5919 100.182 54.8639 96.1171 60.346C92.0526 65.828 86.8919 70.3995 80.9648 73.7682" fill="url(#paint25_linear)"/>
<path d="M75.8489 79.4045C72.7792 75.1713 69.2391 69.4288 65.0756 66.2805C60.912 63.1321 55.5136 61.2101 50.4445 62.4246C53.072 67.0391 56.736 70.9763 61.1458 73.9237C65.5555 76.8711 70.5897 78.7476 75.8489 79.4045" fill="url(#paint26_linear)"/>
<path d="M76.8249 74.0513C74.8137 68.9337 72.7907 63.7572 71.9792 58.3213C71.1677 52.8854 71.6616 47.0721 74.4373 42.3201C79.824 52.5434 81.5647 63.545 77.0954 74.1574" fill="url(#paint27_linear)"/>
<path d="M80.7766 42.32C83.8346 32.191 93.079 24.7387 103.123 21.3191C104.362 20.8097 105.706 20.6074 107.04 20.7295C107.703 20.8053 108.33 21.0748 108.842 21.5045C109.355 21.9343 109.73 22.5053 109.921 23.1468C110.274 24.8684 108.863 26.4131 107.569 27.5569C99.7622 34.2387 90.6832 39.2612 80.8825 42.32" fill="url(#paint28_linear)"/>
<path d="M80.8943 34.0424C81.2824 27.5098 81.6823 20.8829 83.7993 14.7041C85.9164 8.52531 90.0093 2.71207 95.9488 0C96.9485 6.59151 94.0552 13.1594 90.5503 18.8666C87.0454 24.5737 82.8349 29.9035 80.7296 36.2356" fill="url(#paint29_linear)"/>
<path d="M80.7296 38.535C78.2009 31.1535 77.9422 21.7791 73.5317 15.3527C70.4502 10.8601 65.5222 7.79432 62.8641 3.03052C61.2619 7.59779 61.4853 12.6096 63.4875 17.0153C65.4933 21.3703 68.2528 25.3346 71.6381 28.7244C74.9077 32.2619 77.6952 34.8442 80.7296 38.535" fill="url(#paint30_linear)"/>
<path d="M80.7769 255.925C80.5888 255.925 80.4123 206.695 80.4006 145.968C80.3888 85.2415 80.53 35.9998 80.7299 35.9998C80.9298 35.9998 81.0945 85.2297 81.1063 145.968C81.118 206.707 80.9769 255.925 80.7769 255.925Z" fill="#406910" fill-opacity="0.45"/>
<path d="M123.694 108.412C123.099 108.695 122.481 108.928 121.847 109.108L116.767 110.817C112.485 112.28 106.593 114.355 100.207 117.032C93.8202 119.708 87.916 121.961 84.517 124.908C83.1617 126.045 82.0835 127.476 81.3649 129.094C80.8827 130.274 80.8004 130.957 80.7298 130.946C80.7017 130.774 80.7017 130.599 80.7298 130.427C80.8069 129.938 80.9249 129.457 81.0827 128.988C81.7302 127.272 82.7883 125.741 84.1641 124.531C86.2243 122.8 88.5266 121.382 90.9975 120.321C93.7143 119.048 96.737 117.716 99.9361 116.395C106.346 113.765 112.274 111.678 116.614 110.369C118.778 109.685 120.542 109.19 121.765 108.86C122.393 108.651 123.038 108.501 123.694 108.412V108.412Z" fill="#406910" fill-opacity="0.45"/>
<path d="M137.76 73.7682C137.609 73.9714 137.435 74.1573 137.243 74.3224L135.667 75.7963C134.208 77.1406 132.209 78.9447 129.786 81.1616L110.203 98.6367C102.559 105.464 95.9605 111.985 91.3854 116.89C89.1037 119.343 87.2924 121.371 86.0575 122.786L84.6344 124.413C84.4792 124.614 84.3016 124.796 84.1051 124.956C84.2246 124.73 84.3665 124.516 84.5285 124.319C84.8225 123.93 85.2577 123.34 85.8458 122.609C87.0219 121.135 88.7743 119.072 91.0208 116.548C96.9333 110.074 103.183 103.918 109.745 98.1061C117.413 91.3023 124.399 85.1353 129.469 80.7842C131.95 78.6381 133.997 76.8812 135.502 75.5959L137.16 74.2163C137.339 74.0398 137.541 73.889 137.76 73.7682V73.7682Z" fill="#406910" fill-opacity="0.45"/>
<path d="M101.959 105.582C101.759 105.488 103.347 101.785 104.946 97.1155C106.546 92.4461 107.299 88.4959 107.51 88.5312C107.337 91.5478 106.698 94.5192 105.617 97.3396C104.943 99.3472 104.157 101.316 103.264 103.235C102.935 104.072 102.496 104.861 101.959 105.582Z" fill="#406910" fill-opacity="0.45"/>
<path d="M80.8236 135.379C80.3883 134.963 79.9944 134.505 79.6475 134.011L76.6248 130.132C74.0961 126.842 70.5913 122.314 66.663 117.35C62.7347 112.386 59.124 107.917 56.513 104.709L53.4197 100.889C53.0166 100.44 52.6618 99.9501 52.3612 99.4268C52.8273 99.8106 53.2529 100.241 53.6314 100.712C54.4194 101.561 55.5368 102.823 56.8893 104.391C59.6062 107.528 63.2875 111.938 67.2158 116.902C71.144 121.866 74.6019 126.465 77.0247 129.873C78.2008 131.559 79.2123 132.927 79.8709 133.894C80.2364 134.356 80.5555 134.854 80.8236 135.379V135.379Z" fill="#406910" fill-opacity="0.45"/>
<path d="M71.4149 123.269C69.5199 121.159 68.1674 118.617 67.4749 115.864C66.733 113.454 66.4302 110.93 66.581 108.412H66.8868C66.7457 108.978 66.6516 109.285 66.5928 109.273C66.534 109.261 66.5928 108.943 66.5928 108.353H66.9103C67.0573 110.81 67.4795 113.242 68.1688 115.605C69.4743 120.062 71.6031 123.151 71.4149 123.269Z" fill="#406910" fill-opacity="0.45"/>
<path d="M59.2655 107.94C58.4236 107.298 57.5074 106.759 56.5368 106.337C54.0581 105.605 51.4542 105.4 48.892 105.735C46.2988 105.939 43.7264 106.353 41.2001 106.973C40.1633 107.298 39.1065 107.554 38.0363 107.74C38.9787 107.171 40.0018 106.75 41.0707 106.49C43.5905 105.703 46.1902 105.2 48.8214 104.992C51.4779 104.632 54.182 104.923 56.7015 105.841C57.7734 106.221 58.68 106.963 59.2655 107.94V107.94Z" fill="#406910" fill-opacity="0.45"/>
<path d="M56.384 104.238C56.384 104.344 54.7845 103.589 52.1734 102.693C48.7667 101.54 45.2313 100.811 41.647 100.523C38.063 100.256 34.4597 100.438 30.9207 101.066C28.2038 101.561 26.5573 102.068 26.522 101.95C26.8849 101.725 27.2822 101.562 27.6981 101.467C28.7387 101.107 29.7989 100.808 30.8737 100.571C38.055 99.002 45.5372 99.5759 52.3969 102.221C53.4128 102.614 54.4028 103.071 55.3608 103.589C56.0429 103.966 56.4075 104.191 56.384 104.238Z" fill="#406910" fill-opacity="0.45"/>
<path d="M80.7299 88.4841C79.5027 85.0133 78.4932 81.4689 77.7072 77.8717C76.19 71.9051 75.1197 67.0352 75.355 66.988C75.5902 66.9409 76.9192 71.7047 78.4247 77.6948C79.9301 83.685 80.918 88.4841 80.7299 88.4841Z" fill="#406910" fill-opacity="0.45"/>
<path d="M80.9296 88.4842C80.7179 88.5549 79.824 85.3476 77.5188 82.0695C76.0769 80.1285 74.3886 78.3844 72.4967 76.8812C73.213 77.0582 73.8778 77.4015 74.4373 77.8835C75.861 78.9244 77.0979 80.2003 78.0951 81.6568C79.6163 83.6466 80.5933 85.9999 80.9296 88.4842V88.4842Z" fill="#406910" fill-opacity="0.45"/>
<path d="M80.7769 229.653C80.7063 229.653 80.5534 228.474 80.0006 226.375C79.1907 223.432 78.0915 220.576 76.7192 217.85C73.332 210.893 67.1573 202.084 59.3125 193.253C55.4195 188.807 51.6558 184.598 48.4567 180.577C45.5814 177.041 42.9823 173.288 40.6825 169.351C39.14 166.69 37.8296 163.901 36.766 161.014C36.4014 159.988 36.1426 159.187 35.9897 158.656C35.893 158.381 35.826 158.096 35.7898 157.807C35.8604 157.807 36.2132 158.986 36.9659 160.944C38.1235 163.767 39.4917 166.498 41.0589 169.115C43.4007 172.993 46.0227 176.694 48.9037 180.187C52.1145 184.173 55.8899 188.347 59.7829 192.804C67.6512 201.66 73.8142 210.586 77.1191 217.649C78.4582 220.422 79.4953 223.332 80.2123 226.328C80.4075 227.144 80.5528 227.971 80.6475 228.804C80.7208 229.082 80.7642 229.366 80.7769 229.653V229.653Z" fill="#406910" fill-opacity="0.45"/>
<path d="M119.566 185.729C118.916 186.171 118.236 186.565 117.531 186.909C115.69 187.955 113.928 189.138 112.262 190.446C109.791 192.367 107.474 194.48 105.334 196.766C102.9 199.349 100.395 202.332 97.8425 205.539C92.7381 211.966 87.963 217.649 85.0932 222.189C83.6466 224.441 82.5881 226.34 81.8942 227.672C81.5516 228.383 81.1585 229.069 80.718 229.724C80.7514 229.523 80.8149 229.328 80.9062 229.146C81.0591 228.769 81.2708 228.226 81.5884 227.542C82.4861 225.61 83.4954 223.732 84.611 221.918C87.3985 217.272 92.1383 211.506 97.2309 205.091C99.7949 201.884 102.324 198.889 104.805 196.318C106.975 194.026 109.336 191.924 111.862 190.033C113.58 188.769 115.402 187.653 117.308 186.696C117.978 186.366 118.484 186.154 118.895 186.001C119.099 185.868 119.327 185.776 119.566 185.729Z" fill="#406910" fill-opacity="0.45"/>
<path d="M120.319 199.974C118.906 200.292 117.47 200.5 116.026 200.599C112.577 200.962 109.168 201.637 105.84 202.615C102.552 203.691 99.4664 205.313 96.7136 207.414C94.6083 209.041 93.6203 210.397 93.5262 210.315C93.6737 209.948 93.8892 209.611 94.1614 209.324C94.8257 208.465 95.5743 207.675 96.396 206.966C99.1147 204.693 102.246 202.967 105.617 201.884C108.988 200.87 112.465 200.253 115.979 200.044C117.421 199.899 118.872 199.876 120.319 199.974V199.974Z" fill="#406910" fill-opacity="0.45"/>
<path d="M94.7728 208.758C94.5493 208.629 96.49 205.669 97.9836 201.683C99.4773 197.698 99.7243 194.125 99.9831 194.172C100.094 194.957 100.07 195.754 99.9125 196.531C99.6975 198.384 99.2753 200.207 98.654 201.966C98.0036 203.718 97.1677 205.394 96.1606 206.966C95.8017 207.638 95.3326 208.243 94.7728 208.758V208.758Z" fill="url(#paint31_linear)"/>
<path d="M132.115 147.442C131.905 147.597 131.676 147.724 131.433 147.819L129.41 148.739C128.528 149.117 127.457 149.6 126.246 150.237C125.035 150.873 123.611 151.51 122.141 152.395L119.789 153.739C118.978 154.199 118.166 154.765 117.319 155.295C115.59 156.345 113.861 157.654 112.003 158.963C108.078 161.938 104.379 165.202 100.936 168.726C97.5241 172.302 94.3792 176.125 91.5266 180.164C90.2681 182.062 89.0449 183.843 87.9982 185.6C87.4924 186.484 86.9632 187.31 86.528 188.135L85.2695 190.493C84.4345 192.003 83.8347 193.441 83.2584 194.679C82.682 195.917 82.2116 197.038 81.8705 197.898L81.0237 199.962C80.9331 200.205 80.8189 200.438 80.6826 200.658C80.7187 200.403 80.7859 200.153 80.8826 199.915C81.0707 199.349 81.3177 198.653 81.6118 197.804C82.0233 196.716 82.4905 195.649 83.0114 194.609C83.5641 193.347 84.1287 191.885 84.9402 190.352L86.1164 187.923C86.5398 187.074 87.0573 186.237 87.563 185.352C88.5274 183.56 89.7506 181.756 90.9973 179.834C96.6002 171.597 103.56 164.375 111.58 158.479C113.461 157.17 115.214 155.885 116.966 154.847C117.837 154.317 118.648 153.762 119.471 153.303L121.824 152.005C123.317 151.145 124.752 150.52 125.999 149.918C127.246 149.317 128.351 148.869 129.222 148.527L131.303 147.725C131.564 147.604 131.836 147.509 132.115 147.442V147.442Z" fill="#406910" fill-opacity="0.45"/>
<path d="M101.43 168.101C101.718 167.106 102.306 166.225 103.112 165.578C105.003 163.936 107.408 163.01 109.91 162.96C112.366 162.955 114.799 163.431 117.073 164.363C118.034 164.668 118.945 165.113 119.778 165.684C118.8 165.484 117.84 165.204 116.908 164.847C114.665 164.064 112.308 163.666 109.933 163.667C107.582 163.717 105.307 164.519 103.441 165.955C102.718 166.619 102.046 167.336 101.43 168.101V168.101Z" fill="#406910" fill-opacity="0.45"/>
<path d="M96.8428 172.841C96.6429 172.735 98.3718 170.188 98.7717 166.545C99.1716 162.901 98.1248 160.036 98.3365 159.977C98.5482 159.918 98.807 160.613 99.1363 161.804C99.5455 163.377 99.6612 165.012 99.4773 166.627C99.2926 168.244 98.8059 169.813 98.0425 171.249C97.4426 172.334 96.9134 172.9 96.8428 172.841Z" fill="#406910" fill-opacity="0.45"/>
<path d="M46.8572 236.705C47.9157 255.571 53.5729 274.65 62.2763 294H100.054C108.357 274.85 113.614 255.736 114.555 236.705H46.8572Z" fill="#5A0F68"/>
<path d="M108.463 267.15C108.463 267.351 96.0079 267.504 80.6476 267.504C65.2873 267.504 52.832 267.351 52.832 267.15C52.832 266.95 65.2873 266.797 80.6476 266.797C96.0079 266.797 108.463 266.95 108.463 267.15Z" fill="#FAFAFA"/>
<path d="M107.628 273.966C107.628 274.166 95.9493 274.32 81.5417 274.32C67.134 274.32 55.4668 274.166 55.4668 273.966C55.4668 273.765 67.1223 273.612 81.5417 273.612C95.9611 273.612 107.628 273.765 107.628 273.966Z" fill="#FAFAFA"/>
<path d="M62.8876 249.062C63.358 254.874 63.358 260.714 62.8876 266.525C62.6876 266.525 62.5229 262.622 62.5229 257.788C62.5229 252.953 62.6876 249.062 62.8876 249.062Z" fill="#FAFAFA"/>
<path d="M83.1524 249.062C83.3523 249.062 83.5052 253.107 83.5052 258.106C83.5052 263.106 83.3523 267.15 83.1524 267.15C82.9525 267.15 82.7996 263.106 82.7996 258.106C82.7996 253.107 82.9525 249.062 83.1524 249.062Z" fill="#FAFAFA"/>
<path d="M102.182 248.909C102.653 255.051 102.653 261.22 102.182 267.363C101.982 267.363 101.829 263.224 101.829 258.13C101.829 253.036 101.982 248.909 102.182 248.909Z" fill="#FAFAFA"/>
<path d="M113.403 249.062C113.403 249.251 98.7953 249.416 80.7769 249.416C62.7586 249.416 48.151 249.251 48.151 249.062C48.151 248.873 62.7468 248.697 80.7769 248.697C98.807 248.697 113.403 248.85 113.403 249.062Z" fill="#FAFAFA"/>
<defs>
<linearGradient id="paint0_linear" x1="20.9236" y1="152.007" x2="20.9236" y2="162.36" gradientUnits="userSpaceOnUse">
<stop stop-color="#79B730"/>
<stop offset="1" stop-color="#578A1B"/>
</linearGradient>
<linearGradient id="paint1_linear" x1="25.1425" y1="126.394" x2="25.1425" y2="158.656" gradientUnits="userSpaceOnUse">
<stop stop-color="#79B730"/>
<stop offset="1" stop-color="#578A1B"/>
</linearGradient>
<linearGradient id="paint2_linear" x1="41.4251" y1="127.314" x2="41.4251" y2="160.413" gradientUnits="userSpaceOnUse">
<stop stop-color="#79B730"/>
<stop offset="1" stop-color="#578A1B"/>
</linearGradient>
<linearGradient id="paint3_linear" x1="33.8845" y1="177.77" x2="33.8845" y2="202.32" gradientUnits="userSpaceOnUse">
<stop stop-color="#79B730"/>
<stop offset="1" stop-color="#578A1B"/>
</linearGradient>
<linearGradient id="paint4_linear" x1="50.9665" y1="142.242" x2="50.9665" y2="180.742" gradientUnits="userSpaceOnUse">
<stop stop-color="#79B730"/>
<stop offset="1" stop-color="#578A1B"/>
</linearGradient>
<linearGradient id="paint5_linear" x1="48.5774" y1="197.03" x2="48.5774" y2="216.077" gradientUnits="userSpaceOnUse">
<stop stop-color="#79B730"/>
<stop offset="1" stop-color="#578A1B"/>
</linearGradient>
<linearGradient id="paint6_linear" x1="65.5392" y1="157.21" x2="65.5392" y2="196.189" gradientUnits="userSpaceOnUse">
<stop stop-color="#79B730"/>
<stop offset="1" stop-color="#578A1B"/>
</linearGradient>
<linearGradient id="paint7_linear" x1="103.006" y1="169.377" x2="103.006" y2="201.625" gradientUnits="userSpaceOnUse">
<stop stop-color="#79B730"/>
<stop offset="1" stop-color="#578A1B"/>
</linearGradient>
<linearGradient id="paint8_linear" x1="120.295" y1="193.114" x2="120.295" y2="205.103" gradientUnits="userSpaceOnUse">
<stop stop-color="#79B730"/>
<stop offset="1" stop-color="#578A1B"/>
</linearGradient>
<linearGradient id="paint9_linear" x1="121.335" y1="177.581" x2="121.335" y2="197.026" gradientUnits="userSpaceOnUse">
<stop stop-color="#79B730"/>
<stop offset="1" stop-color="#578A1B"/>
</linearGradient>
<linearGradient id="paint10_linear" x1="99.0426" y1="124.79" x2="99.0426" y2="164.634" gradientUnits="userSpaceOnUse">
<stop stop-color="#79B730"/>
<stop offset="1" stop-color="#578A1B"/>
</linearGradient>
<linearGradient id="paint11_linear" x1="140.454" y1="126.465" x2="140.454" y2="152.896" gradientUnits="userSpaceOnUse">
<stop stop-color="#79B730"/>
<stop offset="1" stop-color="#578A1B"/>
</linearGradient>
<linearGradient id="paint12_linear" x1="138.423" y1="153.328" x2="138.423" y2="170.365" gradientUnits="userSpaceOnUse">
<stop stop-color="#79B730"/>
<stop offset="1" stop-color="#578A1B"/>
</linearGradient>
<linearGradient id="paint13_linear" x1="125.825" y1="163.005" x2="125.825" y2="179.825" gradientUnits="userSpaceOnUse">
<stop stop-color="#79B730"/>
<stop offset="1" stop-color="#578A1B"/>
</linearGradient>
<linearGradient id="paint14_linear" x1="120.71" y1="114.212" x2="120.71" y2="127.459" gradientUnits="userSpaceOnUse">
<stop stop-color="#79B730"/>
<stop offset="1" stop-color="#578A1B"/>
</linearGradient>
<linearGradient id="paint15_linear" x1="132.785" y1="102.838" x2="132.785" y2="114.463" gradientUnits="userSpaceOnUse">
<stop stop-color="#79B730"/>
<stop offset="1" stop-color="#578A1B"/>
</linearGradient>
<linearGradient id="paint16_linear" x1="104.708" y1="59.4819" x2="104.708" y2="90.1821" gradientUnits="userSpaceOnUse">
<stop stop-color="#79B730"/>
<stop offset="1" stop-color="#578A1B"/>
</linearGradient>
<linearGradient id="paint17_linear" x1="118.11" y1="59.2268" x2="118.11" y2="91.3142" gradientUnits="userSpaceOnUse">
<stop stop-color="#79B730"/>
<stop offset="1" stop-color="#578A1B"/>
</linearGradient>
<linearGradient id="paint18_linear" x1="144.141" y1="61.131" x2="144.141" y2="86.7035" gradientUnits="userSpaceOnUse">
<stop stop-color="#79B730"/>
<stop offset="1" stop-color="#578A1B"/>
</linearGradient>
<linearGradient id="paint19_linear" x1="134.64" y1="84.8494" x2="134.64" y2="97.7661" gradientUnits="userSpaceOnUse">
<stop stop-color="#79B730"/>
<stop offset="1" stop-color="#578A1B"/>
</linearGradient>
<linearGradient id="paint20_linear" x1="67.3181" y1="82.0105" x2="67.3181" y2="116.359" gradientUnits="userSpaceOnUse">
<stop stop-color="#79B730"/>
<stop offset="1" stop-color="#578A1B"/>
</linearGradient>
<linearGradient id="paint21_linear" x1="29.7796" y1="105.271" x2="29.7796" y2="120.518" gradientUnits="userSpaceOnUse">
<stop stop-color="#79B730"/>
<stop offset="1" stop-color="#578A1B"/>
</linearGradient>
<linearGradient id="paint22_linear" x1="16.4541" y1="99.9556" x2="16.4541" y2="113.358" gradientUnits="userSpaceOnUse">
<stop stop-color="#79B730"/>
<stop offset="1" stop-color="#578A1B"/>
</linearGradient>
<linearGradient id="paint23_linear" x1="35.3308" y1="90.9626" x2="35.3308" y2="101.82" gradientUnits="userSpaceOnUse">
<stop stop-color="#79B730"/>
<stop offset="1" stop-color="#578A1B"/>
</linearGradient>
<linearGradient id="paint24_linear" x1="48.3398" y1="60.8328" x2="48.3398" y2="101.089" gradientUnits="userSpaceOnUse">
<stop stop-color="#79B730"/>
<stop offset="1" stop-color="#578A1B"/>
</linearGradient>
<linearGradient id="paint25_linear" x1="92.6497" y1="41.9309" x2="92.6497" y2="73.7682" gradientUnits="userSpaceOnUse">
<stop stop-color="#79B730"/>
<stop offset="1" stop-color="#578A1B"/>
</linearGradient>
<linearGradient id="paint26_linear" x1="63.1467" y1="62.0566" x2="63.1467" y2="79.4045" gradientUnits="userSpaceOnUse">
<stop stop-color="#79B730"/>
<stop offset="1" stop-color="#578A1B"/>
</linearGradient>
<linearGradient id="paint27_linear" x1="75.6345" y1="42.3201" x2="75.6345" y2="74.1574" gradientUnits="userSpaceOnUse">
<stop stop-color="#79B730"/>
<stop offset="1" stop-color="#578A1B"/>
</linearGradient>
<linearGradient id="paint28_linear" x1="95.3764" y1="20.6949" x2="95.3764" y2="42.32" gradientUnits="userSpaceOnUse">
<stop stop-color="#79B730"/>
<stop offset="1" stop-color="#578A1B"/>
</linearGradient>
<linearGradient id="paint29_linear" x1="88.4393" y1="0" x2="88.4393" y2="36.2356" gradientUnits="userSpaceOnUse">
<stop stop-color="#79B730"/>
<stop offset="1" stop-color="#578A1B"/>
</linearGradient>
<linearGradient id="paint30_linear" x1="71.2676" y1="3.03052" x2="71.2676" y2="38.535" gradientUnits="userSpaceOnUse">
<stop stop-color="#79B730"/>
<stop offset="1" stop-color="#578A1B"/>
</linearGradient>
<linearGradient id="paint31_linear" x1="97.4034" y1="194.172" x2="97.4034" y2="208.758" gradientUnits="userSpaceOnUse">
<stop stop-color="#79B730"/>
<stop offset="1" stop-color="#578A1B"/>
</linearGradient>
</defs>
</svg>
