<svg width="165" height="294" viewBox="0 0 165 294" fill="none" xmlns="http://www.w3.org/2000/svg">
<path d="M36.5429 159.234C30.331 155.334 23.31 152.914 16.0194 152.159C12.6674 151.817 8.96262 151.911 6.30456 153.951C5.99659 154.131 5.74175 154.389 5.56609 154.7C5.39044 155.011 5.30028 155.363 5.30485 155.72C5.47234 156.214 5.81013 156.632 6.25752 156.899C14.608 163.29 27.2397 164.092 36.5429 159.198" fill="url(#paint0_linear)"/>
<path d="M36.049 158.656C31.2956 155.156 26.86 151.242 22.7939 146.959C18.7116 142.654 15.8422 137.339 14.4787 131.559C14.1258 129.802 14.02 127.797 15.1373 126.394C25.7225 134.648 33.9555 145.367 36.049 158.656Z" fill="url(#paint1_linear)"/>
<path d="M36.4722 159.163C35.4908 153.38 35.5705 147.466 36.7074 141.711C38.0364 136.016 41.1296 130.557 45.9871 127.314C47.8101 131.594 47.0221 136.523 45.7401 140.992C43.7495 147.925 40.6428 154.485 36.5427 160.413" fill="url(#paint2_linear)"/>
<path d="M46.8222 177.77C40.5417 178.537 35.0609 181.862 30.3564 186.119C25.6411 190.427 22.3571 196.082 20.9473 202.32C27.122 201.943 32.3558 197.604 36.143 192.687C39.9301 187.769 42.5646 182.44 46.7281 177.864" fill="url(#paint3_linear)"/>
<path d="M49.068 180.742C46.5975 174.438 45.734 167.617 46.5554 160.894C47.3769 154.172 49.8574 147.761 53.7725 142.242C57.3009 155.024 56.0424 169.457 49.068 180.742Z" fill="url(#paint4_linear)"/>
<path d="M62.7587 197.085C57.014 196.734 51.293 198.081 46.3046 200.959C41.3162 203.836 37.28 208.119 34.6962 213.275C34.3433 213.982 34.0375 214.867 34.508 215.492C34.7502 215.727 35.0461 215.899 35.37 215.994C35.6939 216.088 36.0359 216.102 36.3663 216.034C41.8941 215.68 46.7986 212.343 50.8445 208.534C54.8904 204.726 58.4188 200.351 62.8881 197.061" fill="url(#paint5_linear)"/>
<path d="M62.3232 196.189C59.3787 186.681 59.1992 176.528 61.8057 166.922C62.8289 163.149 64.5578 159.175 68.0274 157.418C68.1679 157.325 68.3258 157.261 68.4916 157.23C68.6574 157.2 68.8275 157.204 68.9919 157.241C69.2706 157.396 69.4838 157.648 69.5917 157.948C70.7546 160.573 71.2594 163.443 71.0619 166.309C70.8519 169.174 70.4114 172.017 69.7446 174.81C68.6508 180.011 68.0627 185.588 65.2282 190.069C64.5557 191.15 63.9508 192.273 63.417 193.429C62.876 194.609 62.876 194.962 62.382 195.87" fill="url(#paint6_linear)"/>
<path d="M98.5483 201.601C95.8667 191.366 98.7129 178.961 105.146 170.566C105.629 169.952 106.252 169.292 107.028 169.386C108.204 169.492 108.522 171.073 108.463 172.264C107.983 182.792 104.546 192.969 98.5483 201.625" fill="url(#paint7_linear)"/>
<path d="M101.818 203.841C114.226 207.072 128.457 203.936 138.772 196.307C132.591 193.196 125.526 192.325 118.778 193.842C112.097 195.375 105.993 198.382 101.83 203.841" fill="url(#paint8_linear)"/>
<path d="M104.57 197.026C111.521 185.67 124.834 178.265 138.101 177.581C136.584 182.994 132.138 187.203 127.14 189.739C122.141 192.274 116.554 193.394 111.038 194.455C108.898 194.868 105.958 195.328 104.57 197.014" fill="url(#paint9_linear)"/>
<path d="M99.2427 163.95C101.124 157.489 103.018 150.98 103.535 144.27C104.053 137.561 103.088 130.545 99.6191 124.79C93.1268 137.372 92.4682 152.088 99.0428 164.634" fill="url(#paint10_linear)"/>
<path d="M121.083 152.89C128.681 139.058 144.159 128.01 159.825 126.465C153.78 141.546 137.302 153.208 121.083 152.89Z" fill="url(#paint11_linear)"/>
<path d="M116.32 155.59C127.634 157.323 137.278 164.564 147.852 168.962C150.068 170.033 152.525 170.504 154.979 170.33C156.124 170.324 157.239 169.965 158.173 169.302C159.107 168.638 159.815 167.703 160.2 166.622C160.586 165.542 160.63 164.368 160.327 163.262C160.024 162.155 159.389 161.169 158.508 160.436C157.012 159.048 155.251 157.978 153.333 157.288C141.807 152.477 129.457 152.359 117.319 155.272" fill="url(#paint12_linear)"/>
<path d="M109.768 163.549C112.332 164.292 113.203 165.613 115.237 167.346C122.155 173.245 130.338 177.462 139.148 179.669C140.054 179.893 141.254 179.987 141.712 179.162C142.171 178.336 141.606 177.558 141.089 176.909C137.246 172.394 132.261 169.001 126.658 167.087C121.13 165.023 116.355 162.547 109.768 163.078" fill="url(#paint13_linear)"/>
<path d="M102.406 115.487C107.052 119.765 112.538 123.024 118.512 125.055C124.487 127.085 130.818 127.842 137.102 127.278C137.681 127.282 138.243 127.082 138.689 126.712C139.56 125.757 138.513 124.283 137.513 123.493C127.316 115.51 114.967 112.209 102.429 115.44" fill="url(#paint14_linear)"/>
<path d="M111.133 112.268C117.278 107.738 124.404 104.728 131.929 103.485C139.455 102.241 147.168 102.798 154.438 105.11C148.981 110.499 141.418 113.364 133.797 114.19C126.188 114.891 118.516 114.24 111.133 112.268Z" fill="url(#paint15_linear)"/>
<path d="M107.651 90.1821C106.652 79.9824 107.299 71.9169 106.593 61.6582C106.593 60.8446 106.369 59.8541 105.605 59.5593C104.535 59.1466 103.653 60.4673 103.253 61.5521C101.769 66.3054 101.388 71.3359 102.141 76.2591C102.893 81.1824 104.758 85.868 107.593 89.9581" fill="url(#paint16_linear)"/>
<path d="M106.922 91.314C113.826 87.0336 119.001 81.4444 123.788 74.8765C127.117 70.3132 129.927 64.8301 129.175 59.2291C124.47 59.1348 120.048 61.7171 117.002 65.2782C114.099 68.9765 111.989 73.2356 110.804 77.789C109.451 82.2816 108.451 86.9039 106.922 91.314Z" fill="url(#paint17_linear)"/>
<path d="M123.494 86.7034C138.674 81.0617 152.729 72.7523 165 62.1651C160.048 60.1606 154.415 61.3515 149.404 63.3443C138.09 67.9312 128.834 75.6665 123.282 86.5737" fill="url(#paint18_linear)"/>
<path d="M111.58 96.9032C119.248 97.7404 127.022 98.2828 134.632 97.0094C142.241 95.7359 149.169 92.788 156.143 89.8401C156.755 89.6698 157.28 89.2739 157.613 88.7317C157.721 88.4055 157.728 88.0544 157.633 87.7242C157.539 87.394 157.348 87.1 157.084 86.8804C156.546 86.4565 155.919 86.162 155.249 86.0196C147.663 83.8971 139.466 84.8405 131.997 87.411C124.881 89.8556 118.038 93.0368 111.58 96.9032Z" fill="url(#paint19_linear)"/>
<path d="M67.8274 115.841C62.6054 105.228 62.9347 92.9061 67.4511 82.0107C70.6384 86.8688 70.9795 93.0476 70.4385 98.8255C69.8974 104.603 68.0862 110.617 67.9921 116.359" fill="url(#paint20_linear)"/>
<path d="M46.9391 105.275C40.3949 105.19 33.9049 106.475 27.884 109.047C21.8631 111.62 16.4439 115.424 11.9727 120.215C18.4885 121.241 25.1924 119.555 31.1201 116.678C37.0479 113.801 42.3169 109.709 47.586 105.664" fill="url(#paint21_linear)"/>
<path d="M32.9082 100.571C26.5218 100.052 20.3706 99.2615 14.2312 101.148C8.0918 103.035 2.50516 107.351 0 113.246C6.02839 113.738 12.0777 112.594 17.5126 109.933C22.9098 107.278 28.0618 104.149 32.9082 100.582" fill="url(#paint22_linear)"/>
<path d="M53.6902 100.783C47.9507 97.0097 42.0465 93.1656 35.3661 91.6092C28.6856 90.0527 20.9232 91.1965 16.2539 96.255C21.6759 99.4387 28.2387 99.7925 34.5192 99.7925C40.7998 99.7925 48.4917 99.7217 54.4077 101.82" fill="url(#paint23_linear)"/>
<path d="M53.7257 101.089C43.905 91.4204 40.1884 74.0514 44.1402 60.833C51.8925 72.7325 55.2808 86.9624 53.7257 101.089Z" fill="url(#paint24_linear)"/>
<path d="M80.7295 73.6972C82.576 69.3815 83.8816 64.8418 85.5517 60.4553C87.0613 55.9955 89.3866 51.8568 92.4085 48.251C95.4759 44.6233 99.8449 42.3527 104.57 41.9307C103.061 48.5917 100.182 54.8637 96.117 60.3458C92.0525 65.8278 86.8918 70.3993 80.9647 73.768" fill="url(#paint25_linear)"/>
<path d="M75.8487 79.4045C72.779 75.1713 69.2389 69.4288 65.0754 66.2805C60.9118 63.1321 55.5134 61.2101 50.4443 62.4246C53.0718 67.0391 56.7358 70.9763 61.1456 73.9237C65.5553 76.8711 70.5895 78.7476 75.8487 79.4045Z" fill="url(#paint26_linear)"/>
<path d="M76.8249 74.0515C74.8137 68.9339 72.7907 63.7574 71.9792 58.3215C71.1677 52.8856 71.6616 47.0723 74.4373 42.3203C79.824 52.5436 81.5647 63.5452 77.0954 74.1576" fill="url(#paint27_linear)"/>
<path d="M80.7764 42.3199C83.8344 32.1909 93.0788 24.7386 103.123 21.319C104.362 20.8096 105.706 20.6073 107.04 20.7294C107.703 20.8052 108.33 21.0747 108.842 21.5044C109.355 21.9342 109.73 22.5052 109.921 23.1467C110.274 24.8683 108.863 26.413 107.569 27.5568C99.762 34.2386 90.683 39.2611 80.8823 42.3199" fill="url(#paint28_linear)"/>
<path d="M80.8942 34.0424C81.2823 27.5098 81.6822 20.8829 83.7992 14.7041C85.9163 8.52531 90.0092 2.71207 95.9487 0C96.9484 6.59151 94.0551 13.1594 90.5502 18.8666C87.0453 24.5737 82.8348 29.9035 80.7295 36.2356" fill="url(#paint29_linear)"/>
<path d="M80.7298 38.5352C78.2011 31.1537 77.9424 21.7793 73.5319 15.3529C70.4504 10.8603 65.5224 7.79456 62.8643 3.03076C61.2621 7.59803 61.4855 12.6098 63.4877 17.0155C65.4935 21.3705 68.253 25.3348 71.6383 28.7246C74.9079 32.2621 77.6954 34.8444 80.7298 38.5352Z" fill="url(#paint30_linear)"/>
<path d="M80.7774 255.925C80.5893 255.925 80.4128 206.695 80.4011 145.968C80.3893 85.2417 80.5305 36 80.7304 36C80.9303 36 81.095 85.2299 81.1068 145.968C81.1185 206.707 80.9774 255.925 80.7774 255.925Z" fill="#406910" fill-opacity="0.45"/>
<path d="M123.694 108.412C123.099 108.695 122.481 108.928 121.847 109.108L116.767 110.817C112.485 112.28 106.593 114.355 100.207 117.032C93.8205 119.708 87.9163 121.961 84.5173 124.908C83.162 126.045 82.0838 127.476 81.3652 129.094C80.883 130.274 80.8007 130.957 80.7301 130.946C80.702 130.774 80.702 130.599 80.7301 130.427C80.8072 129.938 80.9252 129.457 81.083 128.988C81.7305 127.272 82.7886 125.741 84.1644 124.531C86.2246 122.8 88.5269 121.382 90.9978 120.321C93.7146 119.048 96.7373 117.716 99.9364 116.395C106.346 113.765 112.274 111.678 116.614 110.369C118.778 109.685 120.542 109.19 121.765 108.86C122.393 108.651 123.038 108.501 123.694 108.412Z" fill="#406910" fill-opacity="0.45"/>
<path d="M137.76 73.7681C137.609 73.9713 137.435 74.1572 137.243 74.3223L135.667 75.7962C134.208 77.1405 132.209 78.9446 129.786 81.1615L110.203 98.6366C102.559 105.464 95.9609 111.985 91.3858 116.89C89.1041 119.343 87.2928 121.371 86.0579 122.786L84.6348 124.413C84.4796 124.614 84.302 124.796 84.1055 124.956C84.225 124.73 84.3669 124.516 84.5289 124.319C84.8229 123.93 85.2581 123.34 85.8462 122.609C87.0223 121.135 88.7747 119.072 91.0212 116.548C96.9337 110.074 103.183 103.918 109.745 98.106C117.413 91.3022 124.399 85.1352 129.469 80.7841C131.95 78.638 133.997 76.8811 135.502 75.5958L137.16 74.2162C137.339 74.0397 137.541 73.8889 137.76 73.7681Z" fill="#406910" fill-opacity="0.45"/>
<path d="M101.959 105.582C101.759 105.488 103.347 101.785 104.946 97.1153C106.546 92.4459 107.299 88.4957 107.51 88.531C107.337 91.5476 106.698 94.519 105.617 97.3394C104.943 99.347 104.157 101.316 103.264 103.235C102.935 104.072 102.496 104.861 101.959 105.582Z" fill="#406910" fill-opacity="0.45"/>
<path d="M80.8237 135.379C80.3884 134.963 79.9945 134.505 79.6476 134.011L76.6249 130.132C74.0962 126.842 70.5914 122.314 66.6631 117.35C62.7348 112.386 59.1241 107.917 56.5131 104.709L53.4198 100.889C53.0167 100.44 52.6619 99.9501 52.3613 99.4268C52.8274 99.8106 53.253 100.241 53.6315 100.712C54.4195 101.561 55.5369 102.823 56.8894 104.391C59.6063 107.528 63.2876 111.938 67.2159 116.902C71.1441 121.866 74.602 126.465 77.0248 129.873C78.2009 131.559 79.2124 132.927 79.871 133.894C80.2365 134.356 80.5556 134.854 80.8237 135.379Z" fill="#406910" fill-opacity="0.45"/>
<path d="M71.4145 123.269C69.5195 121.159 68.167 118.617 67.4745 115.864C66.7326 113.454 66.4298 110.93 66.5806 108.412H66.8864C66.7453 108.978 66.6512 109.285 66.5924 109.273C66.5336 109.261 66.5924 108.943 66.5924 108.353H66.9099C67.0569 110.81 67.4791 113.242 68.1684 115.605C69.4739 120.062 71.6027 123.151 71.4145 123.269Z" fill="#406910" fill-opacity="0.45"/>
<path d="M59.2653 107.94C58.4234 107.298 57.5072 106.759 56.5366 106.337C54.0579 105.605 51.454 105.4 48.8918 105.735C46.2986 105.939 43.7262 106.353 41.1999 106.973C40.1631 107.298 39.1063 107.554 38.0361 107.74C38.9785 107.171 40.0016 106.75 41.0705 106.49C43.5903 105.703 46.19 105.2 48.8212 104.992C51.4777 104.632 54.1818 104.923 56.7013 105.841C57.7732 106.221 58.6798 106.963 59.2653 107.94Z" fill="#406910" fill-opacity="0.45"/>
<path d="M56.3845 104.238C56.3845 104.344 54.785 103.589 52.1739 102.693C48.7672 101.54 45.2318 100.811 41.6475 100.523C38.0635 100.256 34.4602 100.438 30.9212 101.066C28.2043 101.561 26.5578 102.068 26.5225 101.95C26.8854 101.725 27.2827 101.562 27.6986 101.467C28.7392 101.107 29.7994 100.808 30.8742 100.571C38.0555 99.0022 45.5377 99.5761 52.3974 102.221C53.4133 102.614 54.4033 103.071 55.3613 103.589C56.0434 103.966 56.408 104.191 56.3845 104.238Z" fill="#406910" fill-opacity="0.45"/>
<path d="M80.7296 88.4842C79.5024 85.0134 78.4929 81.469 77.7069 77.8718C76.1897 71.9052 75.1194 67.0353 75.3547 66.9881C75.5899 66.941 76.9189 71.7048 78.4244 77.6949C79.9298 83.6851 80.9177 88.4842 80.7296 88.4842Z" fill="#406910" fill-opacity="0.45"/>
<path d="M80.93 88.4839C80.7183 88.5546 79.8244 85.3473 77.5192 82.0692C76.0773 80.1282 74.389 78.3841 72.4971 76.8809C73.2134 77.0579 73.8782 77.4012 74.4377 77.8832C75.8614 78.9241 77.0983 80.2 78.0955 81.6565C79.6167 83.6463 80.5937 85.9996 80.93 88.4839Z" fill="#406910" fill-opacity="0.45"/>
<path d="M80.7771 229.653C80.7065 229.653 80.5536 228.474 80.0008 226.375C79.1909 223.432 78.0917 220.576 76.7194 217.85C73.3322 210.893 67.1575 202.084 59.3127 193.253C55.4197 188.807 51.656 184.598 48.4569 180.577C45.5816 177.041 42.9825 173.288 40.6827 169.351C39.1402 166.69 37.8298 163.901 36.7662 161.014C36.4016 159.988 36.1428 159.187 35.9899 158.656C35.8932 158.381 35.8262 158.096 35.79 157.807C35.8606 157.807 36.2134 158.986 36.9661 160.944C38.1237 163.767 39.4919 166.498 41.0591 169.115C43.4009 172.993 46.0229 176.694 48.9039 180.187C52.1147 184.173 55.8901 188.347 59.7831 192.804C67.6514 201.66 73.8144 210.586 77.1193 217.649C78.4584 220.422 79.4955 223.332 80.2125 226.328C80.4077 227.144 80.553 227.971 80.6477 228.804C80.721 229.082 80.7644 229.366 80.7771 229.653Z" fill="#406910" fill-opacity="0.45"/>
<path d="M119.566 185.729C118.916 186.171 118.236 186.565 117.531 186.909C115.69 187.955 113.928 189.138 112.262 190.446C109.791 192.367 107.474 194.48 105.334 196.766C102.9 199.349 100.395 202.332 97.8423 205.539C92.7379 211.966 87.9628 217.649 85.093 222.189C83.6464 224.441 82.5879 226.34 81.894 227.672C81.5514 228.383 81.1583 229.069 80.7178 229.724C80.7512 229.523 80.8147 229.328 80.906 229.146C81.0589 228.769 81.2706 228.226 81.5882 227.542C82.4859 225.61 83.4952 223.732 84.6108 221.918C87.3983 217.272 92.1381 211.506 97.2307 205.091C99.7947 201.884 102.324 198.889 104.805 196.318C106.975 194.026 109.336 191.924 111.862 190.033C113.58 188.769 115.402 187.653 117.308 186.696C117.978 186.366 118.484 186.154 118.895 186.001C119.099 185.868 119.327 185.776 119.566 185.729Z" fill="#406910" fill-opacity="0.45"/>
<path d="M120.319 199.974C118.906 200.292 117.47 200.5 116.026 200.599C112.577 200.962 109.168 201.637 105.84 202.615C102.552 203.691 99.4666 205.313 96.7138 207.414C94.6085 209.041 93.6205 210.397 93.5264 210.315C93.6739 209.948 93.8894 209.611 94.1616 209.324C94.8259 208.465 95.5745 207.675 96.3962 206.966C99.1149 204.693 102.246 202.967 105.617 201.884C108.988 200.87 112.465 200.253 115.979 200.044C117.421 199.899 118.872 199.876 120.319 199.974Z" fill="#406910" fill-opacity="0.45"/>
<path d="M94.7726 208.758C94.5491 208.629 96.4898 205.669 97.9834 201.683C99.4771 197.698 99.7241 194.125 99.9829 194.172C100.094 194.957 100.07 195.754 99.9123 196.531C99.6973 198.384 99.2751 200.207 98.6538 201.966C98.0034 203.718 97.1675 205.394 96.1604 206.966C95.8015 207.638 95.3324 208.243 94.7726 208.758Z" fill="url(#paint31_linear)"/>
<path d="M132.115 147.442C131.905 147.597 131.676 147.724 131.433 147.819L129.41 148.739C128.528 149.117 127.457 149.6 126.246 150.237C125.035 150.873 123.611 151.51 122.141 152.395L119.789 153.739C118.978 154.199 118.166 154.765 117.319 155.295C115.59 156.345 113.861 157.654 112.003 158.963C108.078 161.938 104.379 165.202 100.936 168.726C97.5241 172.302 94.3792 176.125 91.5266 180.164C90.2681 182.062 89.0449 183.843 87.9982 185.6C87.4924 186.484 86.9632 187.31 86.528 188.135L85.2695 190.493C84.4345 192.003 83.8347 193.441 83.2584 194.679C82.682 195.917 82.2116 197.038 81.8705 197.898L81.0237 199.962C80.9331 200.205 80.8189 200.438 80.6826 200.658C80.7187 200.403 80.7859 200.153 80.8826 199.915C81.0707 199.349 81.3177 198.653 81.6118 197.804C82.0233 196.716 82.4905 195.649 83.0114 194.609C83.5641 193.347 84.1287 191.885 84.9402 190.352L86.1164 187.923C86.5398 187.074 87.0573 186.237 87.563 185.352C88.5274 183.56 89.7506 181.756 90.9973 179.834C96.6002 171.597 103.56 164.375 111.58 158.479C113.461 157.17 115.214 155.885 116.966 154.847C117.837 154.317 118.648 153.762 119.471 153.303L121.824 152.005C123.317 151.145 124.752 150.52 125.999 149.918C127.246 149.317 128.351 148.869 129.222 148.527L131.303 147.725C131.564 147.604 131.836 147.509 132.115 147.442Z" fill="#406910" fill-opacity="0.45"/>
<path d="M101.43 168.101C101.718 167.106 102.306 166.225 103.112 165.578C105.003 163.936 107.408 163.01 109.91 162.96C112.366 162.955 114.799 163.431 117.073 164.363C118.034 164.668 118.945 165.113 119.778 165.684C118.8 165.484 117.84 165.204 116.908 164.847C114.665 164.064 112.308 163.666 109.933 163.667C107.582 163.717 105.307 164.519 103.441 165.955C102.718 166.619 102.046 167.336 101.43 168.101Z" fill="#406910" fill-opacity="0.45"/>
<path d="M96.8432 172.841C96.6433 172.735 98.3722 170.188 98.7721 166.545C99.172 162.901 98.1252 160.036 98.3369 159.977C98.5486 159.918 98.8074 160.613 99.1367 161.804C99.5459 163.377 99.6616 165.012 99.4777 166.627C99.293 168.244 98.8063 169.813 98.0429 171.249C97.443 172.334 96.9138 172.9 96.8432 172.841Z" fill="#406910" fill-opacity="0.45"/>
<path d="M46.8574 236.705C47.9159 255.571 53.5731 274.65 62.2765 294H100.054C108.357 274.85 113.614 255.736 114.555 236.705H46.8574Z" fill="#3C3378"/>
<path d="M108.463 267.15C108.463 267.351 96.0079 267.504 80.6476 267.504C65.2873 267.504 52.832 267.351 52.832 267.15C52.832 266.95 65.2873 266.797 80.6476 266.797C96.0079 266.797 108.463 266.95 108.463 267.15Z" fill="#FAFAFA"/>
<path d="M107.628 273.966C107.628 274.166 95.9493 274.32 81.5417 274.32C67.134 274.32 55.4668 274.166 55.4668 273.966C55.4668 273.765 67.1223 273.612 81.5417 273.612C95.9611 273.612 107.628 273.765 107.628 273.966Z" fill="#FAFAFA"/>
<path d="M62.8872 249.062C63.3576 254.874 63.3576 260.714 62.8872 266.525C62.6872 266.525 62.5225 262.622 62.5225 257.788C62.5225 252.953 62.6872 249.062 62.8872 249.062Z" fill="#FAFAFA"/>
<path d="M83.1526 249.062C83.3525 249.062 83.5054 253.107 83.5054 258.106C83.5054 263.106 83.3525 267.15 83.1526 267.15C82.9527 267.15 82.7998 263.106 82.7998 258.106C82.7998 253.107 82.9527 249.062 83.1526 249.062Z" fill="#FAFAFA"/>
<path d="M102.182 248.909C102.653 255.051 102.653 261.22 102.182 267.363C101.982 267.363 101.829 263.224 101.829 258.13C101.829 253.036 101.982 248.909 102.182 248.909Z" fill="#FAFAFA"/>
<path d="M113.403 249.062C113.403 249.251 98.7957 249.416 80.7773 249.416C62.759 249.416 48.1514 249.251 48.1514 249.062C48.1514 248.873 62.7472 248.697 80.7773 248.697C98.8074 248.697 113.403 248.85 113.403 249.062Z" fill="#FAFAFA"/>
<defs>
<linearGradient id="paint0_linear" x1="20.9238" y1="152.007" x2="20.9238" y2="162.36" gradientUnits="userSpaceOnUse">
<stop stop-color="#79B730"/>
<stop offset="1" stop-color="#578A1B"/>
</linearGradient>
<linearGradient id="paint1_linear" x1="25.1426" y1="126.394" x2="25.1426" y2="158.656" gradientUnits="userSpaceOnUse">
<stop stop-color="#79B730"/>
<stop offset="1" stop-color="#578A1B"/>
</linearGradient>
<linearGradient id="paint2_linear" x1="41.4251" y1="127.314" x2="41.4251" y2="160.413" gradientUnits="userSpaceOnUse">
<stop stop-color="#79B730"/>
<stop offset="1" stop-color="#578A1B"/>
</linearGradient>
<linearGradient id="paint3_linear" x1="33.8848" y1="177.77" x2="33.8848" y2="202.32" gradientUnits="userSpaceOnUse">
<stop stop-color="#79B730"/>
<stop offset="1" stop-color="#578A1B"/>
</linearGradient>
<linearGradient id="paint4_linear" x1="50.9664" y1="142.242" x2="50.9664" y2="180.742" gradientUnits="userSpaceOnUse">
<stop stop-color="#79B730"/>
<stop offset="1" stop-color="#578A1B"/>
</linearGradient>
<linearGradient id="paint5_linear" x1="48.5778" y1="197.03" x2="48.5778" y2="216.077" gradientUnits="userSpaceOnUse">
<stop stop-color="#79B730"/>
<stop offset="1" stop-color="#578A1B"/>
</linearGradient>
<linearGradient id="paint6_linear" x1="65.5391" y1="157.21" x2="65.5391" y2="196.189" gradientUnits="userSpaceOnUse">
<stop stop-color="#79B730"/>
<stop offset="1" stop-color="#578A1B"/>
</linearGradient>
<linearGradient id="paint7_linear" x1="103.006" y1="169.377" x2="103.006" y2="201.625" gradientUnits="userSpaceOnUse">
<stop stop-color="#79B730"/>
<stop offset="1" stop-color="#578A1B"/>
</linearGradient>
<linearGradient id="paint8_linear" x1="120.295" y1="193.114" x2="120.295" y2="205.103" gradientUnits="userSpaceOnUse">
<stop stop-color="#79B730"/>
<stop offset="1" stop-color="#578A1B"/>
</linearGradient>
<linearGradient id="paint9_linear" x1="121.335" y1="177.581" x2="121.335" y2="197.026" gradientUnits="userSpaceOnUse">
<stop stop-color="#79B730"/>
<stop offset="1" stop-color="#578A1B"/>
</linearGradient>
<linearGradient id="paint10_linear" x1="99.043" y1="124.79" x2="99.043" y2="164.634" gradientUnits="userSpaceOnUse">
<stop stop-color="#79B730"/>
<stop offset="1" stop-color="#578A1B"/>
</linearGradient>
<linearGradient id="paint11_linear" x1="140.454" y1="126.465" x2="140.454" y2="152.896" gradientUnits="userSpaceOnUse">
<stop stop-color="#79B730"/>
<stop offset="1" stop-color="#578A1B"/>
</linearGradient>
<linearGradient id="paint12_linear" x1="138.423" y1="153.328" x2="138.423" y2="170.365" gradientUnits="userSpaceOnUse">
<stop stop-color="#79B730"/>
<stop offset="1" stop-color="#578A1B"/>
</linearGradient>
<linearGradient id="paint13_linear" x1="125.825" y1="163.005" x2="125.825" y2="179.825" gradientUnits="userSpaceOnUse">
<stop stop-color="#79B730"/>
<stop offset="1" stop-color="#578A1B"/>
</linearGradient>
<linearGradient id="paint14_linear" x1="120.71" y1="114.212" x2="120.71" y2="127.459" gradientUnits="userSpaceOnUse">
<stop stop-color="#79B730"/>
<stop offset="1" stop-color="#578A1B"/>
</linearGradient>
<linearGradient id="paint15_linear" x1="132.785" y1="102.838" x2="132.785" y2="114.463" gradientUnits="userSpaceOnUse">
<stop stop-color="#79B730"/>
<stop offset="1" stop-color="#578A1B"/>
</linearGradient>
<linearGradient id="paint16_linear" x1="104.708" y1="59.4819" x2="104.708" y2="90.1821" gradientUnits="userSpaceOnUse">
<stop stop-color="#79B730"/>
<stop offset="1" stop-color="#578A1B"/>
</linearGradient>
<linearGradient id="paint17_linear" x1="118.11" y1="59.2266" x2="118.11" y2="91.314" gradientUnits="userSpaceOnUse">
<stop stop-color="#79B730"/>
<stop offset="1" stop-color="#578A1B"/>
</linearGradient>
<linearGradient id="paint18_linear" x1="144.141" y1="61.1309" x2="144.141" y2="86.7034" gradientUnits="userSpaceOnUse">
<stop stop-color="#79B730"/>
<stop offset="1" stop-color="#578A1B"/>
</linearGradient>
<linearGradient id="paint19_linear" x1="134.64" y1="84.8492" x2="134.64" y2="97.7659" gradientUnits="userSpaceOnUse">
<stop stop-color="#79B730"/>
<stop offset="1" stop-color="#578A1B"/>
</linearGradient>
<linearGradient id="paint20_linear" x1="67.3179" y1="82.0107" x2="67.3179" y2="116.359" gradientUnits="userSpaceOnUse">
<stop stop-color="#79B730"/>
<stop offset="1" stop-color="#578A1B"/>
</linearGradient>
<linearGradient id="paint21_linear" x1="29.7794" y1="105.271" x2="29.7794" y2="120.518" gradientUnits="userSpaceOnUse">
<stop stop-color="#79B730"/>
<stop offset="1" stop-color="#578A1B"/>
</linearGradient>
<linearGradient id="paint22_linear" x1="16.4541" y1="99.9555" x2="16.4541" y2="113.358" gradientUnits="userSpaceOnUse">
<stop stop-color="#79B730"/>
<stop offset="1" stop-color="#578A1B"/>
</linearGradient>
<linearGradient id="paint23_linear" x1="35.3308" y1="90.9628" x2="35.3308" y2="101.82" gradientUnits="userSpaceOnUse">
<stop stop-color="#79B730"/>
<stop offset="1" stop-color="#578A1B"/>
</linearGradient>
<linearGradient id="paint24_linear" x1="48.3399" y1="60.833" x2="48.3399" y2="101.089" gradientUnits="userSpaceOnUse">
<stop stop-color="#79B730"/>
<stop offset="1" stop-color="#578A1B"/>
</linearGradient>
<linearGradient id="paint25_linear" x1="92.6496" y1="41.9307" x2="92.6496" y2="73.768" gradientUnits="userSpaceOnUse">
<stop stop-color="#79B730"/>
<stop offset="1" stop-color="#578A1B"/>
</linearGradient>
<linearGradient id="paint26_linear" x1="63.1465" y1="62.0566" x2="63.1465" y2="79.4045" gradientUnits="userSpaceOnUse">
<stop stop-color="#79B730"/>
<stop offset="1" stop-color="#578A1B"/>
</linearGradient>
<linearGradient id="paint27_linear" x1="75.6345" y1="42.3203" x2="75.6345" y2="74.1576" gradientUnits="userSpaceOnUse">
<stop stop-color="#79B730"/>
<stop offset="1" stop-color="#578A1B"/>
</linearGradient>
<linearGradient id="paint28_linear" x1="95.3762" y1="20.6948" x2="95.3762" y2="42.3199" gradientUnits="userSpaceOnUse">
<stop stop-color="#79B730"/>
<stop offset="1" stop-color="#578A1B"/>
</linearGradient>
<linearGradient id="paint29_linear" x1="88.4392" y1="0" x2="88.4392" y2="36.2356" gradientUnits="userSpaceOnUse">
<stop stop-color="#79B730"/>
<stop offset="1" stop-color="#578A1B"/>
</linearGradient>
<linearGradient id="paint30_linear" x1="71.2678" y1="3.03076" x2="71.2678" y2="38.5352" gradientUnits="userSpaceOnUse">
<stop stop-color="#79B730"/>
<stop offset="1" stop-color="#578A1B"/>
</linearGradient>
<linearGradient id="paint31_linear" x1="97.4032" y1="194.172" x2="97.4032" y2="208.758" gradientUnits="userSpaceOnUse">
<stop stop-color="#79B730"/>
<stop offset="1" stop-color="#578A1B"/>
</linearGradient>
</defs>
</svg>
