<svg width="1920" height="216" viewBox="0 0 1920 216" fill="none" xmlns="http://www.w3.org/2000/svg">
<path d="M0 29.8333L53.3333 42.4838C106.667 54.6614 552 108.5 640 67.6666C789 32.4166 640 67.6666 788 29.8333C894.667 -1.73387 976 -6.50004 1085.5 8.99996C1193 37 1239.83 41.4484 1346.5 47.7146C1453.17 54.4536 1493.33 16.8281 1600 4.6505C1706.67 -8.00002 1813.33 29.8333 1866.67 48.75L1920 67.6666V219H1866.67C1813.33 219 1706.67 219 1600 219C1493.33 219 1386.67 219 1280 219C1173.33 219 1066.67 219 960 219C853.333 219 746.667 219 640 219C533.333 219 426.667 219 320 219C213.333 219 106.667 219 53.3333 219H0V29.8333Z" fill="url(#paint0_linear)" fill-opacity="0.6"/>
<defs>
<linearGradient id="paint0_linear" x1="960" y1="0.444214" x2="960" y2="219" gradientUnits="userSpaceOnUse">
<stop stop-color="#E5D8FA"/>
<stop offset="1" stop-color="#E2D3FA"/>
</linearGradient>
</defs>
</svg>
