<svg width="265" height="261" viewBox="0 0 265 261" fill="none" xmlns="http://www.w3.org/2000/svg">
<path d="M252.287 56.7308H197.424C197.424 56.7308 202.865 41.8757 211.234 41.8757C219.603 41.8757 222.232 52.1273 222.232 52.1273C222.232 52.1273 227.88 46.5538 232.518 46.5538C237.156 46.5538 241.191 53.9182 241.191 53.9182C241.191 53.9182 247.741 49.9576 252.287 56.7308Z" fill="#EBEBEB"/>
<path d="M191.758 37.542H166.118C166.118 37.542 171.858 29.2419 176.364 29.2419C180.87 29.2419 182.207 34.7753 182.207 34.7753C182.207 34.7753 185.393 32.1923 188.343 32.6572C191.293 33.1222 191.758 37.542 191.758 37.542Z" fill="#EBEBEB"/>
<path d="M66.9764 78.8011H17.0385C17.0385 78.8011 23.8805 63.5327 31.1933 62.5798C38.506 61.627 42.0075 73.9221 42.0075 73.9221C42.0075 73.9221 46.7257 69.5769 50.4395 69.5769C54.1533 69.5769 57.0118 75.3169 57.0118 75.3169C57.0118 75.3169 64.4336 71.408 66.9764 78.8011Z" fill="#EBEBEB"/>
<path d="M105.033 25.2297H71.3044C71.3044 25.2297 77.0961 14.163 83.3584 14.0022C89.6208 13.8415 92.95 22.3769 92.95 22.3769C92.95 22.3769 102.754 14.5303 105.033 25.2297Z" fill="#EBEBEB"/>
<path d="M137.578 91.5783H114.808C114.808 91.5783 118.723 84.1163 122.964 84.0015C127.206 83.8867 129.439 89.6497 129.439 89.6497C129.439 89.6497 136.04 84.3574 137.578 91.5783Z" fill="#EBEBEB"/>
<path d="M165.033 113.224H104.315V181.094H165.033V113.224Z" fill="#DBDBDB"/>
<path d="M166.433 109.108H102.915V113.23H166.433V109.108Z" fill="#EBEBEB"/>
<path d="M149.541 153.381H119.819V157.502H149.541V153.381Z" fill="#EBEBEB"/>
<path d="M122.235 123.057H111.926V139.037H122.235V123.057Z" fill="#C7C7C7"/>
<path d="M121.174 124.227H112.988V137.871H121.174V124.227Z" fill="white"/>
<path d="M123.716 139.042H110.451V141.338H123.716V139.042Z" fill="#EBEBEB"/>
<g opacity="0.5">
<path opacity="0.5" d="M121.174 124.233V125.915L112.988 134.106V130.989L119.75 124.233H121.174Z" fill="#EBEBEB"/>
<path opacity="0.5" d="M121.174 134.341V135.903L119.205 137.871H117.649L121.174 134.341Z" fill="#EBEBEB"/>
<path opacity="0.5" d="M115.743 124.233L112.988 126.988V125.433L114.182 124.233H115.743Z" fill="#EBEBEB"/>
<path opacity="0.5" d="M121.174 131.902V132.401L115.703 137.871H115.204L121.174 131.902Z" fill="#EBEBEB"/>
</g>
<path d="M122.235 132.252H111.926V133.423H122.235V132.252Z" fill="#C7C7C7"/>
<path d="M139.829 123.057H129.52V139.037H139.829V123.057Z" fill="#C7C7C7"/>
<path d="M138.767 124.227H130.581V137.871H138.767V124.227Z" fill="white"/>
<path d="M141.309 139.042H128.044V141.338H141.309V139.042Z" fill="#EBEBEB"/>
<g opacity="0.5">
<path opacity="0.5" d="M138.772 124.233V125.915L130.581 134.106V130.989L137.343 124.233H138.772Z" fill="#EBEBEB"/>
<path opacity="0.5" d="M138.772 134.341V135.903L136.798 137.871H135.242L138.772 134.341Z" fill="#EBEBEB"/>
<path opacity="0.5" d="M133.337 124.233L130.581 126.988V125.433L131.775 124.233H133.337Z" fill="#EBEBEB"/>
<path opacity="0.5" d="M138.772 131.902V132.401L133.302 137.871H132.797L138.772 131.902Z" fill="#EBEBEB"/>
</g>
<path d="M139.829 132.252H129.52V133.423H139.829V132.252Z" fill="#C7C7C7"/>
<path d="M157.422 123.057H147.113V139.037H157.422V123.057Z" fill="#C7C7C7"/>
<path d="M156.365 124.227H148.18V137.871H156.365V124.227Z" fill="white"/>
<path d="M158.903 139.042H145.637V141.338H158.903V139.042Z" fill="#EBEBEB"/>
<g opacity="0.5">
<path opacity="0.5" d="M156.365 124.233V125.915L148.174 134.106V130.989L154.936 124.233H156.365Z" fill="#EBEBEB"/>
<path opacity="0.5" d="M156.365 134.341V135.903L154.397 137.871H152.835L156.365 134.341Z" fill="#EBEBEB"/>
<path opacity="0.5" d="M150.935 124.233L148.174 126.988V125.433L149.374 124.233H150.935Z" fill="#EBEBEB"/>
<path opacity="0.5" d="M156.365 131.902V132.401L150.895 137.871H150.396L156.365 131.902Z" fill="#EBEBEB"/>
</g>
<path d="M157.422 132.252H147.113V133.423H157.422V132.252Z" fill="#C7C7C7"/>
<path d="M147.302 157.502H122.052V181.094H147.302V157.502Z" fill="#C7C7C7"/>
<path d="M145.603 159.247H123.751V181.099H145.603V159.247Z" fill="white"/>
<g opacity="0.5">
<path opacity="0.5" d="M145.603 168.362V172.426L136.93 181.094H132.872L145.603 168.362Z" fill="#EBEBEB"/>
<path opacity="0.5" d="M129.456 159.247L123.751 164.953V160.889L125.398 159.247H129.456Z" fill="#EBEBEB"/>
<path opacity="0.5" d="M141.648 159.247L123.751 177.145V175.118L139.622 159.247H141.648Z" fill="#EBEBEB"/>
<path opacity="0.5" d="M145.603 174.527V176.559L141.063 181.094H139.036L145.603 174.527Z" fill="#EBEBEB"/>
<path opacity="0.5" d="M145.603 161.273V161.647L126.156 181.094H125.777L145.603 161.273Z" fill="#EBEBEB"/>
<path opacity="0.5" d="M131.821 159.247L123.751 167.312V166.939L131.442 159.247H131.821Z" fill="#EBEBEB"/>
<path opacity="0.5" d="M138.703 159.247L123.751 174.194V173.815L138.325 159.247H138.703Z" fill="#EBEBEB"/>
</g>
<path d="M135.38 159.247H133.974V181.099H135.38V159.247Z" fill="#C7C7C7"/>
<path d="M104.315 126.897H52.8503V181.094H104.315V126.897Z" fill="#DBDBDB"/>
<path d="M99.7117 126.897H104.315V181.094H102.277L99.7117 126.897Z" fill="#C7C7C7"/>
<path d="M67.7112 134.341H58.6936V148.312H67.7112V134.341Z" fill="#C7C7C7"/>
<path d="M66.7813 135.369H59.6235V147.297H66.7813V135.369Z" fill="white"/>
<path d="M68.9969 148.318H57.4021V150.327H68.9969V148.318Z" fill="#EBEBEB"/>
<g opacity="0.5">
<path opacity="0.5" d="M66.7813 135.369V136.844L59.6235 144.002V141.281L65.53 135.369H66.7813Z" fill="#EBEBEB"/>
<path opacity="0.5" d="M66.7813 144.208V145.569L65.0593 147.297H63.6932L66.7813 144.208Z" fill="#EBEBEB"/>
<path opacity="0.5" d="M62.0343 135.369L59.6235 137.78V136.413L60.6682 135.369H62.0343Z" fill="#EBEBEB"/>
<path opacity="0.5" d="M66.7813 142.073V142.515L61.9999 147.297H61.5579L66.7813 142.073Z" fill="#EBEBEB"/>
</g>
<path d="M67.7112 142.383H58.6936V143.405H67.7112V142.383Z" fill="#C7C7C7"/>
<path d="M83.0944 134.341H74.0768V148.312H83.0944V134.341Z" fill="#C7C7C7"/>
<path d="M82.1645 135.369H75.0067V147.297H82.1645V135.369Z" fill="white"/>
<path d="M84.3801 148.318H72.7853V150.327H84.3801V148.318Z" fill="#EBEBEB"/>
<g opacity="0.5">
<path opacity="0.5" d="M82.1645 135.369V136.844L75.001 144.002V141.281L80.9132 135.369H82.1645Z" fill="#EBEBEB"/>
<path opacity="0.5" d="M82.1645 144.208V145.569L80.4368 147.297H79.0764L82.1645 144.208Z" fill="#EBEBEB"/>
<path opacity="0.5" d="M77.4118 135.369L75.001 137.78V136.413L76.0514 135.369H77.4118Z" fill="#EBEBEB"/>
<path opacity="0.5" d="M82.1645 142.073V142.515L77.3831 147.297H76.9411L82.1645 142.073Z" fill="#EBEBEB"/>
</g>
<path d="M83.0944 142.383H74.0768V143.405H83.0944V142.383Z" fill="#C7C7C7"/>
<path d="M98.4776 134.341H89.46V148.312H98.4776V134.341Z" fill="#C7C7C7"/>
<path d="M97.5477 135.369H90.3899V147.297H97.5477V135.369Z" fill="white"/>
<path d="M99.7633 148.318H88.1685V150.327H99.7633V148.318Z" fill="#EBEBEB"/>
<g opacity="0.5">
<path opacity="0.5" d="M97.5477 135.369V136.844L90.3899 144.002V141.281L96.2964 135.369H97.5477Z" fill="#EBEBEB"/>
<path opacity="0.5" d="M97.5477 144.208V145.569L95.8257 147.297H94.4596L97.5477 144.208Z" fill="#EBEBEB"/>
<path opacity="0.5" d="M92.795 135.369L90.3899 137.78V136.413L91.4346 135.369H92.795Z" fill="#EBEBEB"/>
<path opacity="0.5" d="M97.5477 142.073V142.515L92.7663 147.297H92.3243L97.5477 142.073Z" fill="#EBEBEB"/>
</g>
<path d="M98.4776 142.383H89.46V143.405H98.4776V142.383Z" fill="#C7C7C7"/>
<path d="M67.7112 155.442H58.6936V169.413H67.7112V155.442Z" fill="#C7C7C7"/>
<path d="M66.7813 156.469H59.6235V168.397H66.7813V156.469Z" fill="white"/>
<path d="M68.9969 169.418H57.4021V171.428H68.9969V169.418Z" fill="#EBEBEB"/>
<g opacity="0.5">
<path opacity="0.5" d="M66.7813 156.469V157.944L59.6235 165.102V162.381L65.53 156.469H66.7813Z" fill="#EBEBEB"/>
<path opacity="0.5" d="M66.7813 165.309V166.669L65.0593 168.397H63.6932L66.7813 165.309Z" fill="#EBEBEB"/>
<path opacity="0.5" d="M62.0343 156.469L59.6235 158.88V157.514L60.6682 156.469H62.0343Z" fill="#EBEBEB"/>
<path opacity="0.5" d="M66.7813 163.173V163.61L61.9999 168.397H61.5579L66.7813 163.173Z" fill="#EBEBEB"/>
</g>
<path d="M67.7112 163.483H58.6936V164.505H67.7112V163.483Z" fill="#C7C7C7"/>
<path d="M83.0944 155.442H74.0768V169.413H83.0944V155.442Z" fill="#C7C7C7"/>
<path d="M82.1645 156.469H75.0067V168.397H82.1645V156.469Z" fill="white"/>
<path d="M84.3801 169.418H72.7853V171.428H84.3801V169.418Z" fill="#EBEBEB"/>
<g opacity="0.5">
<path opacity="0.5" d="M82.1645 156.469V157.944L75.001 165.102V162.381L80.9132 156.469H82.1645Z" fill="#EBEBEB"/>
<path opacity="0.5" d="M82.1645 165.309V166.669L80.4368 168.397H79.0764L82.1645 165.309Z" fill="#EBEBEB"/>
<path opacity="0.5" d="M77.4118 156.469L75.001 158.88V157.514L76.0514 156.469H77.4118Z" fill="#EBEBEB"/>
<path opacity="0.5" d="M82.1645 163.173V163.61L77.3831 168.397H76.9411L82.1645 163.173Z" fill="#EBEBEB"/>
</g>
<path d="M83.0944 163.483H74.0768V164.505H83.0944V163.483Z" fill="#C7C7C7"/>
<path d="M98.4776 155.442H89.46V169.413H98.4776V155.442Z" fill="#C7C7C7"/>
<path d="M97.5477 156.469H90.3899V168.397H97.5477V156.469Z" fill="white"/>
<path d="M99.7633 169.418H88.1685V171.428H99.7633V169.418Z" fill="#EBEBEB"/>
<g opacity="0.5">
<path opacity="0.5" d="M97.5477 156.469V157.944L90.3899 165.102V162.381L96.2964 156.469H97.5477Z" fill="#EBEBEB"/>
<path opacity="0.5" d="M97.5477 165.309V166.669L95.8257 168.397H94.4596L97.5477 165.309Z" fill="#EBEBEB"/>
<path opacity="0.5" d="M92.795 156.469L90.3899 158.88V157.514L91.4346 156.469H92.795Z" fill="#EBEBEB"/>
<path opacity="0.5" d="M97.5477 163.173V163.61L92.7663 168.397H92.3243L97.5477 163.173Z" fill="#EBEBEB"/>
</g>
<path d="M98.4776 163.483H89.46V164.505H98.4776V163.483Z" fill="#C7C7C7"/>
<path d="M104.315 122.775H51.0939V126.897H104.315V122.775Z" fill="#EBEBEB"/>
<path d="M165.01 181.094H216.475V126.897H165.01V181.094Z" fill="#DBDBDB"/>
<path d="M169.613 126.897H165.01V181.094H167.048L169.613 126.897Z" fill="#C7C7C7"/>
<path d="M201.62 148.318H210.637V134.347H201.62V148.318Z" fill="#C7C7C7"/>
<path d="M202.549 147.291H209.707V135.363H202.549V147.291Z" fill="white"/>
<path d="M200.328 150.327H211.923V148.318H200.328V150.327Z" fill="#EBEBEB"/>
<g opacity="0.5">
<path opacity="0.5" d="M202.544 135.369V136.844L209.707 144.002V141.281L203.795 135.369H202.544Z" fill="#EBEBEB"/>
<path opacity="0.5" d="M202.544 144.208V145.569L204.266 147.297H205.632L202.544 144.208Z" fill="#EBEBEB"/>
<path opacity="0.5" d="M207.296 135.369L209.707 137.78V136.413L208.657 135.369H207.296Z" fill="#EBEBEB"/>
<path opacity="0.5" d="M202.544 142.073V142.515L207.325 147.297H207.767L202.544 142.073Z" fill="#EBEBEB"/>
</g>
<path d="M201.62 143.405H210.637V142.383H201.62V143.405Z" fill="#C7C7C7"/>
<path d="M186.236 148.318H195.254V134.347H186.236V148.318Z" fill="#C7C7C7"/>
<path d="M187.166 147.291H194.324V135.363H187.166V147.291Z" fill="white"/>
<path d="M184.945 150.327H196.54V148.318H184.945V150.327Z" fill="#EBEBEB"/>
<g opacity="0.5">
<path opacity="0.5" d="M187.161 135.369V136.844L194.324 144.002V141.281L188.412 135.369H187.161Z" fill="#EBEBEB"/>
<path opacity="0.5" d="M187.161 144.208V145.569L188.883 147.297H190.249L187.161 144.208Z" fill="#EBEBEB"/>
<path opacity="0.5" d="M191.913 135.369L194.324 137.78V136.413L193.274 135.369H191.913Z" fill="#EBEBEB"/>
<path opacity="0.5" d="M187.161 142.073V142.515L191.942 147.297H192.384L187.161 142.073Z" fill="#EBEBEB"/>
</g>
<path d="M186.236 143.405H195.254V142.383H186.236V143.405Z" fill="#C7C7C7"/>
<path d="M170.847 148.318H179.865V134.347H170.847V148.318Z" fill="#C7C7C7"/>
<path d="M171.783 147.291H178.941V135.363H171.783V147.291Z" fill="white"/>
<path d="M169.562 150.327H181.157V148.318H169.562V150.327Z" fill="#EBEBEB"/>
<g opacity="0.5">
<path opacity="0.5" d="M171.777 135.369V136.844L178.935 144.002V141.281L173.029 135.369H171.777Z" fill="#EBEBEB"/>
<path opacity="0.5" d="M171.777 144.208V145.569L173.505 147.297H174.866L171.777 144.208Z" fill="#EBEBEB"/>
<path opacity="0.5" d="M176.53 135.369L178.935 137.78V136.413L177.89 135.369H176.53Z" fill="#EBEBEB"/>
<path opacity="0.5" d="M171.777 142.073V142.515L176.559 147.297H177.001L171.777 142.073Z" fill="#EBEBEB"/>
</g>
<path d="M170.847 143.405H179.865V142.383H170.847V143.405Z" fill="#C7C7C7"/>
<path d="M201.62 169.418H210.637V155.447H201.62V169.418Z" fill="#C7C7C7"/>
<path d="M202.549 168.391H209.707V156.463H202.549V168.391Z" fill="white"/>
<path d="M200.328 171.428H211.923V169.418H200.328V171.428Z" fill="#EBEBEB"/>
<g opacity="0.5">
<path opacity="0.5" d="M202.544 156.469V157.944L209.707 165.102V162.381L203.795 156.469H202.544Z" fill="#EBEBEB"/>
<path opacity="0.5" d="M202.544 165.309V166.669L204.266 168.397H205.632L202.544 165.309Z" fill="#EBEBEB"/>
<path opacity="0.5" d="M207.296 156.469L209.707 158.88V157.514L208.657 156.469H207.296Z" fill="#EBEBEB"/>
<path opacity="0.5" d="M202.544 163.173V163.61L207.325 168.397H207.767L202.544 163.173Z" fill="#EBEBEB"/>
</g>
<path d="M201.62 164.505H210.637V163.483H201.62V164.505Z" fill="#C7C7C7"/>
<path d="M186.236 169.418H195.254V155.447H186.236V169.418Z" fill="#C7C7C7"/>
<path d="M187.166 168.391H194.324V156.463H187.166V168.391Z" fill="white"/>
<path d="M184.945 171.428H196.54V169.418H184.945V171.428Z" fill="#EBEBEB"/>
<g opacity="0.5">
<path opacity="0.5" d="M187.161 156.469V157.944L194.324 165.102V162.381L188.412 156.469H187.161Z" fill="#EBEBEB"/>
<path opacity="0.5" d="M187.161 165.309V166.669L188.883 168.397H190.249L187.161 165.309Z" fill="#EBEBEB"/>
<path opacity="0.5" d="M191.913 156.469L194.324 158.88V157.514L193.274 156.469H191.913Z" fill="#EBEBEB"/>
<path opacity="0.5" d="M187.161 163.173V163.61L191.942 168.397H192.384L187.161 163.173Z" fill="#EBEBEB"/>
</g>
<path d="M186.236 164.505H195.254V163.483H186.236V164.505Z" fill="#C7C7C7"/>
<path d="M170.847 169.418H179.865V155.447H170.847V169.418Z" fill="#C7C7C7"/>
<path d="M171.783 168.391H178.941V156.463H171.783V168.391Z" fill="white"/>
<path d="M169.562 171.428H181.157V169.418H169.562V171.428Z" fill="#EBEBEB"/>
<g opacity="0.5">
<path opacity="0.5" d="M171.777 156.469V157.944L178.935 165.102V162.381L173.029 156.469H171.777Z" fill="#EBEBEB"/>
<path opacity="0.5" d="M171.777 165.309V166.669L173.505 168.397H174.866L171.777 165.309Z" fill="#EBEBEB"/>
<path opacity="0.5" d="M176.53 156.469L178.935 158.88V157.514L177.89 156.469H176.53Z" fill="#EBEBEB"/>
<path opacity="0.5" d="M171.777 163.173V163.61L176.559 168.397H177.001L171.777 163.173Z" fill="#EBEBEB"/>
</g>
<path d="M170.847 164.505H179.865V163.483H170.847V164.505Z" fill="#C7C7C7"/>
<path d="M165.004 126.897H218.225V122.775H165.004V126.897Z" fill="#EBEBEB"/>
<path d="M155.573 104.229V109.103H113.78V104.229H121.179C121.179 104.229 124.79 98.6787 134.674 98.6787C144.558 98.6787 148.18 104.229 148.18 104.229H155.573Z" fill="#DBDBDB"/>
<path d="M134.663 258.664C194.27 258.664 242.592 254.347 242.592 249.021C242.592 243.695 194.27 239.378 134.663 239.378C75.0549 239.378 26.7333 243.695 26.7333 249.021C26.7333 254.347 75.0549 258.664 134.663 258.664Z" fill="#EBEBEB"/>
<path d="M11 185.41L41.9156 185.272L72.8313 185.221L134.663 185.123L196.494 185.221L227.409 185.272L258.325 185.41L227.409 185.548L196.494 185.6L134.663 185.697L72.8313 185.6L41.9156 185.548L11 185.41Z" fill="#263238"/>
<path d="M254.416 181.105H14.9032V185.278H254.416V181.105Z" fill="#C7C7C7"/>
<path d="M31.6984 181.105C32.0734 182.471 32.0734 183.912 31.6984 185.278C31.4961 184.601 31.3993 183.896 31.4114 183.189C31.4023 182.484 31.4991 181.781 31.6984 181.105Z" fill="#263238"/>
<path d="M50.4166 181.105C50.6159 181.781 50.7127 182.484 50.7036 183.189C50.7157 183.896 50.6189 184.601 50.4166 185.278C50.0416 183.912 50.0416 182.471 50.4166 181.105Z" fill="#263238"/>
<path d="M69.1405 181.105C69.5154 182.471 69.5154 183.912 69.1405 185.278C68.9381 184.601 68.8413 183.896 68.8535 183.189C68.8444 182.484 68.9411 181.781 69.1405 181.105Z" fill="#263238"/>
<path d="M87.8586 181.105C88.0579 181.781 88.1547 182.484 88.1456 183.189C88.1578 183.896 88.061 184.601 87.8586 185.278C87.4837 183.912 87.4837 182.471 87.8586 181.105Z" fill="#263238"/>
<path d="M106.582 181.105C106.957 182.471 106.957 183.912 106.582 185.278C106.38 184.601 106.283 183.896 106.295 183.189C106.286 182.484 106.383 181.781 106.582 181.105Z" fill="#263238"/>
<path d="M125.301 181.105C125.5 181.781 125.597 182.484 125.588 183.189C125.6 183.896 125.503 184.601 125.301 185.278C124.926 183.912 124.926 182.471 125.301 181.105Z" fill="#263238"/>
<path d="M144.024 181.105C144.399 182.471 144.399 183.912 144.024 185.278C143.822 184.601 143.725 183.896 143.737 183.189C143.728 182.484 143.825 181.781 144.024 181.105Z" fill="#263238"/>
<path d="M162.743 181.105C162.942 181.781 163.039 182.484 163.03 183.189C163.042 183.896 162.945 184.601 162.743 185.278C162.368 183.912 162.368 182.471 162.743 181.105Z" fill="#263238"/>
<path d="M181.467 181.105C181.842 182.471 181.842 183.912 181.467 185.278C181.264 184.601 181.167 183.896 181.18 183.189C181.17 182.484 181.267 181.781 181.467 181.105Z" fill="#263238"/>
<path d="M200.185 181.105C200.384 181.781 200.481 182.484 200.472 183.189C200.484 183.896 200.387 184.601 200.185 185.278C199.81 183.912 199.81 182.471 200.185 181.105Z" fill="#263238"/>
<path d="M218.909 181.105C219.284 182.471 219.284 183.912 218.909 185.278C218.706 184.601 218.609 183.896 218.622 183.189C218.612 182.484 218.709 181.781 218.909 181.105Z" fill="#263238"/>
<path d="M237.627 181.105C237.826 181.781 237.923 182.484 237.914 183.189C237.926 183.896 237.829 184.601 237.627 185.278C237.252 183.912 237.252 182.471 237.627 181.105Z" fill="#263238"/>
<path d="M41.9156 181.105C41.9156 181.105 41.4334 178.849 40.4691 178.505C39.5048 178.161 38.9136 179.165 38.9136 179.165C38.9136 179.165 38.6897 177.013 37.3179 176.37C35.946 175.727 34.9243 177.024 34.9243 177.024C34.9243 177.024 33.8739 174.292 31.9969 174.292C30.1199 174.292 29.1785 178.31 29.1785 178.31C29.1785 178.31 28.0707 177.116 26.9342 177.793C25.7977 178.47 25.7862 181.105 25.7862 181.105H41.9156Z" fill="#77B033"/>
<path d="M201.97 181.105C201.97 181.105 201.488 178.849 200.523 178.505C199.559 178.161 198.974 179.165 198.974 179.165C198.974 179.165 198.744 177.013 197.378 176.37C196.012 175.727 194.984 177.041 194.984 177.041C194.984 177.041 193.934 174.309 192.057 174.309C190.18 174.309 189.233 178.327 189.233 178.327C189.233 178.327 188.131 177.133 186.994 177.81C185.858 178.488 185.846 181.122 185.846 181.122L201.97 181.105Z" fill="#77B033"/>
<path d="M84.5523 181.105H67.5906C67.5906 181.105 68.1646 178.712 69.2725 178.545C69.6107 178.513 69.9505 178.586 70.2462 178.753C70.5418 178.92 70.779 179.174 70.9256 179.481C70.9256 179.481 70.8739 176.146 72.9748 175.578C75.0756 175.009 76.832 177.96 76.832 177.96C76.832 177.96 78.1522 176.278 79.9431 176.387C81.734 176.496 82.1989 179.257 82.1989 179.257C82.1989 179.257 83.8291 178.304 84.5523 181.105Z" fill="#77B033"/>
<path d="M26.8424 181.105H17.9167C17.9167 181.105 17.9167 179.773 18.8121 179.423C19.05 179.319 19.3155 179.295 19.5682 179.355C19.821 179.415 20.0473 179.556 20.2127 179.756C20.2127 179.756 20.5686 177.317 22.2045 177.317C23.8404 177.317 24.6267 179.423 24.6267 179.423C24.7655 179.222 24.9601 179.066 25.1866 178.974C25.413 178.882 25.6614 178.859 25.901 178.907C26.8079 179.022 26.8424 181.105 26.8424 181.105Z" fill="#77B033"/>
<path d="M91.5552 181.105H82.6295C82.6295 181.105 82.6295 179.773 83.5249 179.423C83.7628 179.319 84.0282 179.295 84.281 179.355C84.5338 179.415 84.76 179.556 84.9255 179.756C84.9255 179.756 85.2871 177.317 86.923 177.317C88.5589 177.317 89.3395 179.423 89.3395 179.423C89.4783 179.222 89.6729 179.066 89.8993 178.974C90.1258 178.882 90.3742 178.859 90.6138 178.907C91.5207 179.022 91.5552 181.105 91.5552 181.105Z" fill="#77B033"/>
<path d="M238.384 181.105H229.459C229.459 181.105 229.459 179.773 230.354 179.423C230.592 179.319 230.857 179.295 231.11 179.355C231.363 179.415 231.589 179.556 231.755 179.756C231.755 179.756 232.111 177.317 233.746 177.317C235.382 177.317 236.169 179.423 236.169 179.423C236.307 179.222 236.501 179.065 236.728 178.973C236.955 178.881 237.203 178.858 237.443 178.907C238.35 179.022 238.384 181.105 238.384 181.105Z" fill="#77B033"/>
<path d="M251.408 181.105H236.691C236.691 181.105 236.725 178.912 238.172 178.333C238.565 178.168 239.002 178.134 239.415 178.238C239.829 178.341 240.199 178.576 240.468 178.907C240.468 178.907 241.042 174.889 243.757 174.889C246.472 174.889 247.741 178.333 247.741 178.333C247.969 178.001 248.29 177.743 248.663 177.591C249.036 177.439 249.446 177.4 249.841 177.477C251.351 177.673 251.408 181.105 251.408 181.105Z" fill="#77B033"/>
<path d="M168.419 179.894C168.419 179.894 180.077 199.278 180.083 199.295C182.333 202.986 184.239 206.269 185.065 208.054C185.306 208.452 185.451 208.9 185.49 209.363C185.49 209.363 185.49 209.392 185.49 209.398C184.847 210.815 155.843 229.643 154.609 229.958C153.375 230.274 152.376 226.784 152.921 225.154C153.467 223.524 161.348 211.349 161.348 211.349L149.868 191.862L168.419 179.894Z" fill="#AD6359"/>
<path d="M176.605 193.532L157.307 204.536C157.307 204.536 140.603 180.835 137.257 166.526C134.875 156.343 156.159 108.919 156.159 108.919L176.41 109.711C176.41 109.711 158.225 155.631 159.19 160.372C160.366 166.164 176.605 193.532 176.605 193.532Z" fill="#AD6359"/>
<path d="M185.496 209.415C185.496 209.415 185.496 209.444 185.496 209.449C184.847 210.867 155.843 229.694 154.615 230.01C153.386 230.326 152.382 226.836 152.927 225.206C153.226 224.322 155.654 220.372 157.829 216.923C155.809 220.275 151.624 230.067 182.213 202.86C183.498 205.047 184.509 206.878 185.083 208.077C185.325 208.484 185.466 208.943 185.496 209.415Z" fill="#263238"/>
<path d="M197.148 143.732L210.964 129.107C214.139 126.162 218.656 121.644 219.46 121.581C220.969 121.931 245.577 146.786 246.133 147.934C246.69 149.082 243.47 150.752 241.765 150.545C240.06 150.339 226.554 145.046 226.554 145.046L211.957 159.592L197.148 143.732Z" fill="#AD6359"/>
<path d="M241.765 150.568C240.904 150.459 237.104 149.087 233.511 147.739C237.661 148.531 245.726 148.422 211.538 128.59C214.655 125.668 218.696 121.65 219.454 121.604C220.969 121.954 245.577 146.809 246.128 147.957C246.679 149.105 243.47 150.775 241.765 150.568Z" fill="#263238"/>
<path d="M156.325 108.925C156.325 108.925 157.6 116.031 158.857 121.777C159.769 125.972 160.734 129.669 161.354 130.071C161.973 130.473 165.498 132.218 166.657 132.751C166.657 132.751 171.519 160.257 176.989 169.631C178.872 172.84 188.578 176.892 193.825 174.223C206.131 167.909 222.1 149.512 222.1 149.512L207.176 133.13L191.104 148.915C188.309 142.085 187.821 128.825 187.821 128.825C187.821 128.825 188.395 115.841 184.256 109.998L156.325 108.925Z" fill="#AD6359"/>
<path d="M155.992 108.913C155.992 108.913 136.109 148.324 135.736 164.511C135.615 169.734 138.244 176.393 138.244 176.393C138.244 176.393 157.41 179.888 168.207 175.078C179.004 170.268 183.705 160.602 188.423 152.457C190.507 148.858 192.085 147.951 192.085 147.951C192.085 147.951 188.423 131.265 188.366 129.405C188.366 129.405 189.267 117.236 184.285 109.998L155.992 108.913Z" fill="#263238"/>
<path d="M172.013 58.671C166.095 64.6865 165.188 79.8286 172.885 89.8334C179.406 98.3057 194.123 99.5914 200.322 94.3393C206.895 88.7428 205.712 79.9319 200.724 75.7417C195.558 71.4138 189.548 72.7397 186.403 68.8537C184.899 66.994 184.262 62.9989 182.155 60.1576C179.808 56.9891 175.049 55.5828 172.013 58.671Z" fill="#263238"/>
<path d="M183.665 62.8267C184.138 64.1856 184.724 65.5028 185.416 66.7644C186.104 68.0599 187.068 69.1886 188.24 70.0706C188.857 70.4826 189.54 70.7854 190.26 70.966C190.955 71.1727 191.655 71.3449 192.35 71.54C193.737 71.8712 195.107 72.2735 196.454 72.7454C197.793 73.1992 199.069 73.8243 200.248 74.6052C201.424 75.3881 202.426 76.4056 203.19 77.5939C203.955 78.7821 204.466 80.1155 204.691 81.5104C204.933 82.9202 205.006 84.3538 204.909 85.781C205.109 84.3519 205.122 82.9028 204.949 81.4702C204.761 80.0196 204.283 78.6218 203.543 77.3604C202.784 76.1004 201.762 75.0195 200.546 74.1919C199.339 73.3719 198.031 72.712 196.655 72.2288C195.289 71.7587 193.897 71.3659 192.487 71.0521C191.793 70.8799 191.098 70.7135 190.415 70.5241C189.74 70.3518 189.094 70.081 188.498 69.7205C187.34 68.9078 186.375 67.8518 185.668 66.6266C184.909 65.4105 184.239 64.1404 183.665 62.8267Z" fill="#263238"/>
<path d="M170.888 60.0084C169.183 62.5924 167.889 65.4253 167.053 68.406C166.181 71.3978 165.881 74.5272 166.169 77.6302C166.332 79.1829 166.684 80.7097 167.22 82.1763C167.343 82.5456 167.487 82.9078 167.65 83.2611C167.792 83.6233 167.953 83.9777 168.132 84.323C168.316 84.6674 168.488 85.0176 168.678 85.3562L169.303 86.3435C171.053 88.9063 173.283 91.1052 175.87 92.8182C175.296 92.3188 174.67 91.8539 174.102 91.3373C173.53 90.8274 172.984 90.2891 172.466 89.7244C171.403 88.6247 170.459 87.4165 169.648 86.1196C168.015 83.5386 167.006 80.6121 166.703 77.5728C166.397 74.5333 166.65 71.4634 167.449 68.5151C167.827 67.0297 168.307 65.5722 168.884 64.1527C169.453 62.7255 170.122 61.3405 170.888 60.0084Z" fill="#263238"/>
<path d="M168.907 83.5539C164.78 85.4768 146.521 89.1216 140.936 84.8224C135.248 80.4428 131.092 62.798 130.415 60.5996C128.836 55.4336 144.828 54.8137 145.299 56.2257C146.975 61.2482 148.88 74.456 151.004 75.1677C155.47 76.6142 159.781 76.8208 166.967 78.1066C171.973 78.9791 173.471 81.4301 168.907 83.5539Z" fill="#AD6359"/>
<path d="M130.8 61.5352C130.059 59.8821 127.247 51.915 126.983 49.5501C126.719 47.1852 126.443 40.3259 128.234 39.9356C130.025 39.5453 130.266 41.56 130.266 41.56C130.266 41.56 130.61 38.6498 132.447 38.4202C134.284 38.1906 134.554 41.3247 134.554 41.3247C134.554 41.3247 135.128 38.3571 136.976 38.2595C138.824 38.1619 138.566 41.3534 138.566 41.3534C138.566 41.3534 138.962 38.6154 140.518 39.1837C142.395 39.861 141.092 44.8203 141.58 47.4091C141.694 47.9831 144.685 59.1646 144.685 59.1646L130.8 61.5352Z" fill="#AD6359"/>
<path d="M138.583 41.0721C137.636 44.7228 137.854 46.4849 138.985 50.0265C138.985 50.0954 138.91 50.1413 138.881 50.0724C137.458 46.7088 136.867 44.5333 138.411 41.0147C138.485 40.8425 138.629 40.8942 138.583 41.0721Z" fill="#263238"/>
<path d="M134.663 41.0205C134.008 44.9007 134.232 46.8179 135.139 50.6063C135.139 50.6184 135.134 50.6301 135.125 50.6387C135.117 50.6473 135.105 50.6522 135.093 50.6522C135.081 50.6522 135.069 50.6473 135.061 50.6387C135.052 50.6301 135.047 50.6184 135.047 50.6063C133.842 46.9614 133.325 44.7802 134.473 40.9918C134.485 40.8483 134.663 40.8425 134.663 41.0205Z" fill="#263238"/>
<path d="M130.317 41.7437C129.956 45.5436 130.105 47.6502 131.465 51.2204C131.468 51.2366 131.465 51.2532 131.457 51.2674C131.449 51.2817 131.436 51.293 131.421 51.2995C131.406 51.3061 131.39 51.3075 131.374 51.3035C131.358 51.2996 131.344 51.2906 131.333 51.2778C129.611 47.7764 129.387 45.1475 130.185 41.7437C130.254 41.5141 130.34 41.5026 130.317 41.7437Z" fill="#263238"/>
<path d="M145.448 61.3975C145.448 61.3975 147.457 57.1212 147.928 55.0433C148.398 52.9654 147.302 44.5965 145.477 44.7113C143.123 44.8835 142.808 49.8428 142.968 52.2938C142.968 52.2938 137.521 52.6899 136.522 56.197C135.524 59.7042 145.448 61.3975 145.448 61.3975Z" fill="#AD6359"/>
<path d="M144.845 45.004C142.813 46.726 143.232 49.9117 143.215 52.2996C143.217 52.335 143.21 52.3704 143.195 52.4027C143.18 52.4349 143.158 52.463 143.129 52.4845C143.101 52.506 143.068 52.5202 143.033 52.526C142.998 52.5318 142.962 52.5289 142.928 52.5177C140.632 52.8334 137.544 53.9469 136.453 56.1052C136.446 56.1164 136.435 56.1246 136.422 56.1283C136.409 56.132 136.395 56.1311 136.382 56.1256C136.37 56.1201 136.36 56.1105 136.354 56.0983C136.348 56.0862 136.347 56.0724 136.35 56.0593C137.205 53.5853 140.173 52.2479 142.664 52.0413C142.664 49.5903 142.371 46.3587 144.817 44.9696C144.845 44.9581 144.863 45.004 144.845 45.004Z" fill="#263238"/>
<path d="M146.533 59.6008C146.533 59.6008 149.529 73.8073 150.798 74.4445C152.904 75.5064 165.073 77.4006 169.401 78.3017C173.729 79.2029 176.691 81.9811 166.164 85.7236C155.992 89.3398 144.926 91.4004 139.461 89.3398C132.826 86.8314 126.787 71.5859 126.787 71.5859L146.533 59.6008Z" fill="#9C33B0"/>
<path d="M129.313 74.852C137.154 69.6516 145.666 65.094 147.136 64.2388C147.21 64.1986 147.25 64.3306 147.181 64.3708C145.798 65.1859 136.172 71.3506 129.359 74.9955C129.278 75.0529 129.238 74.9151 129.313 74.852Z" fill="#263238"/>
<path opacity="0.1" d="M173.218 81.5334C172.69 82.7101 170.658 84.1279 166.164 85.7236C155.992 89.3398 144.926 91.4004 139.461 89.3398C138.702 89.0383 137.99 88.6284 137.349 88.1229L173.218 81.5334Z" fill="black"/>
<path d="M155.992 108.913L184.532 110.027C184.532 110.027 183.217 90.1434 178.941 81.9467C176.995 78.2157 174.165 77.9287 171.341 79.1742C170.635 79.4899 161.009 86.5214 159.551 89.5062C158.248 92.1294 159.643 95.8202 159.643 95.8202L155.992 108.913Z" fill="#EBEBEB"/>
<path d="M170.48 79.444C170.48 79.444 166.319 84.2369 166.02 86.1483C165.854 87.6745 165.854 89.2142 166.02 90.7403C168.434 89.7882 170.798 88.7154 173.103 87.5259C175.457 86.1885 177.064 79.3522 177.064 79.3522C177.064 79.3522 180.445 82.5494 181.88 89.0069C182.993 93.9892 185.507 109.252 185.697 109.7C185.886 110.147 189.715 119.561 189.221 129.17C189.221 129.17 191.999 141.006 193.331 142.337C194.663 143.669 196.896 142.016 196.896 142.016C196.896 142.016 189.221 168.586 174.688 173.012C161.79 176.961 134.255 167.163 134.829 161.721C135.403 156.28 144.3 131.695 155.16 108.913L159.431 95.9465C159.431 95.9465 157.565 92.1466 159.522 89.1905C161.48 86.2344 168.953 80.1271 170.48 79.444Z" fill="#9C33B0"/>
<path opacity="0.1" d="M153.702 146.436C152.87 148.835 152.078 151.24 151.194 153.622C150.746 154.822 150.344 156.044 149.948 157.267C149.512 158.511 149.236 159.805 149.127 161.118C149.127 161.13 149.123 161.141 149.115 161.149C149.107 161.157 149.096 161.162 149.084 161.162C149.073 161.162 149.062 161.157 149.054 161.149C149.046 161.141 149.041 161.13 149.041 161.118C149.072 159.672 149.264 158.234 149.615 156.831C150.101 154.273 150.81 151.763 151.733 149.329C152.215 148.129 152.761 146.946 153.335 145.781C153.909 144.616 154.483 143.434 155.108 142.337C155.154 142.257 155.304 142.303 155.269 142.4C154.752 143.732 154.179 145.064 153.702 146.436Z" fill="black"/>
<path opacity="0.1" d="M175.474 152.405C175.474 150.683 175.474 149.007 175.583 147.308C175.686 145.81 175.807 144.312 176.013 142.825C176.22 141.338 176.542 139.835 176.886 138.354C177.569 135.398 178.355 132.453 179.216 129.543C178.74 131.179 178.304 132.826 177.959 134.496C177.385 137.447 177.052 140.426 176.616 143.399C176.18 146.372 175.772 149.392 175.543 152.394C175.56 152.457 175.474 152.463 175.474 152.405Z" fill="black"/>
<path opacity="0.1" d="M182.471 168.19C182.276 168.38 182.081 168.558 181.897 168.735C181.553 168.489 181.214 168.236 180.881 167.984C177.948 165.745 174.745 163.173 173.453 159.597C172.916 157.862 172.693 156.044 172.793 154.23C172.857 152.364 173.034 150.502 173.321 148.657C173.321 148.588 173.448 148.6 173.436 148.657C173.193 150.687 173.117 152.733 173.207 154.776C173.335 156.55 173.831 158.278 174.665 159.85C175.528 161.382 176.611 162.78 177.879 164C179.32 165.492 180.887 166.847 182.471 168.19Z" fill="black"/>
<path opacity="0.1" d="M164.993 143.52C164.086 146.034 163.219 148.559 162.49 151.131C162.13 152.401 161.809 153.678 161.526 154.959C161.244 156.257 161.038 157.565 160.803 158.868C160.561 160.154 160.406 161.454 160.338 162.76C160.303 163.432 160.303 164.103 160.338 164.775C160.372 165.446 160.297 166.078 160.338 166.732C160.338 166.824 160.206 166.824 160.194 166.732C160.131 166.319 160.022 165.923 159.942 165.521C159.885 165.166 159.849 164.807 159.832 164.448C159.769 163.707 159.746 162.967 159.735 162.232C159.696 160.759 159.75 159.285 159.896 157.818C160.237 155.164 160.813 152.546 161.618 149.994C162.375 147.434 163.265 144.914 164.178 142.406C165.13 139.794 166.055 137.171 167.203 134.64C168.351 132.109 169.464 129.422 170.486 126.77C170.486 126.707 170.606 126.73 170.583 126.77C170.061 128.251 169.596 129.755 169.085 131.236C168.574 132.717 168.196 134.244 167.713 135.73C167.289 137.051 166.864 138.354 166.388 139.657C165.911 140.96 165.458 142.24 164.993 143.52Z" fill="black"/>
<path opacity="0.1" d="M154.115 172.128L153.231 171.904C152.534 170.045 152.101 168.097 151.946 166.118C151.936 165.361 151.972 164.604 152.055 163.851C152.101 163.145 152.187 162.439 152.29 161.738C152.508 160.289 152.893 158.869 153.438 157.508C153.438 157.456 153.541 157.508 153.524 157.542C152.963 159.012 152.643 160.563 152.577 162.134C152.544 162.824 152.564 163.514 152.634 164.201C152.715 164.89 152.87 165.573 152.956 166.267C153.121 167.652 153.365 169.026 153.685 170.383C153.811 170.991 153.96 171.565 154.115 172.128Z" fill="black"/>
<path opacity="0.1" d="M178.516 171.284C177.316 172.015 176.03 172.593 174.688 173.006C172.447 173.638 170.127 173.943 167.8 173.913C167.363 173.31 166.956 172.702 166.565 172.07C165.163 169.88 164.241 167.417 163.862 164.844C163.489 161.859 164.212 158.84 164.843 155.941C165.492 152.939 170.113 139.903 170.87 140.874C171.789 142.056 169.177 155.866 169.016 157.52C168.792 159.057 169.066 160.626 169.797 161.997C170.639 163.298 171.62 164.503 172.724 165.59C173.827 166.784 174.963 167.945 176.134 169.074C176.903 169.838 177.713 170.555 178.516 171.284Z" fill="black"/>
<path opacity="0.1" d="M194.577 142.848C194.266 143.412 193.927 143.96 193.561 144.49C192.631 145.896 191.689 147.297 190.754 148.691C189.818 150.086 188.831 151.521 187.884 152.939C187.097 154.087 186.386 155.31 185.175 156.084C185.127 156.111 185.073 156.122 185.019 156.115C184.966 156.109 184.915 156.085 184.876 156.048C184.837 156.01 184.811 155.961 184.801 155.908C184.792 155.855 184.8 155.8 184.824 155.752C185.548 154.288 186.38 152.882 187.161 151.441C188.523 149.086 189.763 146.663 190.874 144.18C191.408 142.905 191.86 141.597 192.229 140.265C192.229 140.213 192.258 140.156 192.275 140.104C192.503 140.898 192.862 141.649 193.337 142.326C193.666 142.655 194.111 142.843 194.577 142.848Z" fill="black"/>
<path opacity="0.1" d="M183.562 107.978C181.782 108.678 180.009 109.395 178.177 109.952C176.386 110.482 174.56 110.886 172.713 111.163C169.474 111.738 166.144 111.542 162.995 110.589C161.207 109.957 159.568 108.964 158.179 107.673C158.139 107.639 158.082 107.673 158.122 107.742C160.311 110.297 163.388 111.926 166.732 112.3C170.417 112.782 173.999 112.001 177.414 110.647C179.486 109.826 181.541 108.925 183.585 108.052C183.625 108.035 183.608 107.96 183.562 107.978Z" fill="black"/>
<path d="M169.332 96.5033C168.119 96.259 166.889 96.1055 165.653 96.0441C165.039 96.0441 164.43 96.0441 163.816 96.0441C163.512 96.0441 163.208 96.0441 162.898 96.0441C162.577 96.0508 162.258 96.02 161.945 95.9523C161.945 95.9523 161.905 95.9867 161.945 95.9924C162.23 96.0921 162.521 96.1727 162.817 96.2335C163.108 96.2821 163.401 96.3109 163.695 96.3196C164.315 96.3483 164.941 96.3483 165.567 96.3713C166.818 96.4115 168.075 96.4574 169.326 96.5894C169.372 96.6066 169.39 96.5148 169.332 96.5033Z" fill="#263238"/>
<path d="M171.938 98.386C171.001 97.9972 170.043 97.6618 169.068 97.3815C168.58 97.2438 168.081 97.1347 167.581 97.0371L166.864 96.9108C166.6 96.8706 166.324 96.8592 166.066 96.8132C166.037 96.8132 166.026 96.8534 166.066 96.8592C166.319 96.9108 166.554 97.0027 166.801 97.0658L167.535 97.261C168.029 97.393 168.517 97.5307 169.011 97.657C169.998 97.9153 170.974 98.1736 171.95 98.4664C171.96 98.4648 171.97 98.4592 171.976 98.4505C171.983 98.4419 171.986 98.4311 171.984 98.4204C171.982 98.4098 171.977 98.4002 171.968 98.3937C171.96 98.3873 171.949 98.3845 171.938 98.386Z" fill="#263238"/>
<path d="M178.097 86.2746C184.681 95.6882 194.881 109.688 200.925 109.562C206.395 109.453 215.12 104.734 224.626 99.6775C226.52 98.6673 217.927 84.3919 216.016 85.6662C212.267 88.1688 204.271 94.8502 201.666 95.2864C200.558 95.4644 188.119 86.3033 181.111 81.9007C174.98 78.032 176.817 84.4435 178.097 86.2746Z" fill="#AD6359"/>
<path d="M232.937 95.4414C230.279 97.6341 221.842 101.072 219.89 100.975C217.938 100.877 213.53 88.783 214.604 87.0897C215.677 85.3964 225.194 78.7093 228.712 78.6634C232.231 78.6175 235.687 93.1741 232.937 95.4414Z" fill="#AD6359"/>
<path d="M219.844 69.5597C219.844 69.5597 224.293 65.117 229.895 68.5552C229.895 68.5552 230.136 85.2644 230.291 86.2746C230.446 87.2848 235.003 105.951 235.003 105.951C235.003 105.951 230.785 108.93 224.252 106.497C224.252 106.497 225.309 87.348 225.2 86.7855C225.09 86.2229 219.844 69.5597 219.844 69.5597Z" fill="#EBEBEB"/>
<path d="M235.003 105.951C235.003 105.951 228.885 102.507 224.252 106.497C224.252 106.497 229.051 109.292 235.003 105.951Z" fill="#DBDBDB"/>
<path d="M230.291 86.2746C230.423 86.1713 230.291 86.1139 230.188 86.0909C230.073 86.0611 229.956 86.04 229.837 86.0278C229.596 85.9991 229.355 85.9876 229.114 85.9819C228.632 85.9693 228.149 85.9827 227.668 86.0221C227.186 86.0565 226.703 86.1139 226.227 86.1885C225.993 86.2257 225.763 86.2813 225.538 86.355C225.337 86.4238 225.045 86.5272 225.2 86.7855C225.137 86.7503 225.09 86.6929 225.068 86.6247C225.056 86.5489 225.072 86.4713 225.113 86.4066C225.188 86.2854 225.288 86.1817 225.406 86.1024C225.625 85.9569 225.863 85.8411 226.112 85.758C226.601 85.5928 227.108 85.4887 227.622 85.4481C228.136 85.4094 228.654 85.4403 229.16 85.5399C229.416 85.5863 229.666 85.6594 229.906 85.758C230.03 85.8074 230.147 85.871 230.256 85.9474C230.32 85.9864 230.372 86.0419 230.406 86.1082C230.417 86.1263 230.423 86.1471 230.423 86.1684C230.423 86.1897 230.417 86.2106 230.406 86.2287C230.372 86.2542 230.333 86.2701 230.291 86.2746Z" fill="#9C33B0"/>
<path d="M230.343 86.5329C230.469 86.4181 230.343 86.3779 230.222 86.355C230.104 86.3347 229.985 86.3232 229.866 86.3205C229.619 86.3205 229.378 86.3205 229.131 86.3205C228.644 86.3205 228.161 86.3894 227.685 86.464C227.209 86.5387 226.715 86.6248 226.239 86.7338C226.004 86.7825 225.774 86.8497 225.55 86.9347C225.44 86.9688 225.337 87.0212 225.245 87.0897C225.222 87.1035 225.202 87.1226 225.186 87.1456C225.171 87.1685 225.162 87.1946 225.158 87.2218C225.155 87.249 225.158 87.2767 225.167 87.3025C225.176 87.3284 225.191 87.3518 225.211 87.371C225.178 87.3567 225.149 87.3354 225.125 87.3087C225.101 87.2819 225.084 87.2503 225.073 87.216C225.062 87.1383 225.078 87.059 225.119 86.9921C225.195 86.874 225.293 86.7709 225.406 86.6879C225.621 86.5329 225.854 86.4057 226.101 86.3091C226.581 86.1156 227.082 85.977 227.593 85.8958C228.109 85.824 228.633 85.824 229.149 85.8958C229.41 85.926 229.668 85.9817 229.918 86.0622C230.046 86.1046 230.169 86.1604 230.285 86.2287C230.351 86.264 230.406 86.3153 230.446 86.3779C230.45 86.395 230.451 86.4127 230.448 86.4299C230.445 86.4472 230.438 86.4636 230.428 86.4782C230.419 86.4928 230.406 86.5051 230.391 86.5146C230.376 86.524 230.36 86.5303 230.343 86.5329Z" fill="#9C33B0"/>
<path d="M230.388 86.7396C230.413 86.7202 230.43 86.6943 230.44 86.6649C230.383 86.6594 230.325 86.6594 230.268 86.6649L229.912 86.7338L229.195 86.8831C228.718 86.9864 228.236 87.0667 227.76 87.1528C227.283 87.2389 226.795 87.3021 226.313 87.3595C226.072 87.3939 225.831 87.4226 225.596 87.4685C225.482 87.485 225.37 87.5139 225.263 87.5546C225.159 87.5891 225.096 87.6694 225.194 87.79C225.161 87.7764 225.132 87.7545 225.109 87.7263C225.087 87.6981 225.073 87.6647 225.068 87.6293C225.07 87.5898 225.081 87.5514 225.1 87.5167C225.119 87.482 225.145 87.4518 225.177 87.4284C225.275 87.3397 225.385 87.2644 225.504 87.2045C225.734 87.0944 225.971 87.0022 226.216 86.929C227.167 86.6422 228.15 86.4764 229.143 86.4353C229.395 86.4353 229.642 86.4353 229.895 86.4353C230.022 86.4441 230.149 86.4614 230.274 86.487C230.342 86.5005 230.407 86.5237 230.469 86.5559C230.489 86.5678 230.506 86.5834 230.521 86.6018C230.528 86.6126 230.533 86.6257 230.533 86.6391C230.533 86.6525 230.528 86.6656 230.521 86.6764C230.482 86.7075 230.437 86.7291 230.388 86.7396Z" fill="#9C33B0"/>
<path d="M223.317 79.8229C222.714 81.5449 225.091 81.2751 225.091 81.2751C225.091 81.2751 221.767 82.4862 221.83 84.5067C221.893 86.5272 224.752 86.0163 224.958 85.9876C224.781 86.0565 221.756 87.2562 222.025 89.2709C222.312 91.3717 225.108 90.4189 225.286 90.3845C225.142 90.4993 223.236 92.0433 223.793 93.53C224.746 96.09 229.728 92.2787 231.904 92.6632C231.904 92.6632 232.725 95.5045 232.742 95.6136C232.742 95.6136 236.502 93.0076 236.858 90.0401C236.915 89.6098 236.824 89.1727 236.6 88.8012C236.376 88.4296 236.031 88.1457 235.623 87.9966C235.623 87.9966 237.299 87.0323 237.133 85.4366C237.047 84.61 235.687 84.036 235.687 84.036C236.054 83.7962 236.348 83.4601 236.538 83.0643C236.727 82.6684 236.804 82.2282 236.76 81.7917C236.576 80.6437 235.216 80.2476 235.216 80.2476C235.216 80.2476 236.106 78.87 235.543 77.7794C234.389 75.5638 224.62 76.1378 223.317 79.8229Z" fill="#AD6359"/>
<path d="M235.687 84.0016C235.727 84.0016 235.727 83.9384 235.687 83.9327C231.945 83.2715 228.09 83.9719 224.821 85.9073C224.712 85.9761 224.677 86.1541 224.821 86.0795C227.117 84.8741 232.547 83.9155 235.687 84.0016Z" fill="#263238"/>
<path d="M225.108 90.6083C228.322 88.7486 231.806 88.1057 235.486 87.9622C235.532 87.9622 235.526 87.8933 235.486 87.8876C233.666 87.4685 231.336 87.8015 229.539 88.2205C227.865 88.5784 226.315 89.3703 225.045 90.5165C224.993 90.5452 225.039 90.6485 225.108 90.6083Z" fill="#263238"/>
<path d="M225.091 81.2751C224.473 81.5638 223.885 81.9118 223.334 82.314C222.782 82.6777 222.338 83.1833 222.048 83.7777C221.928 84.0561 221.916 84.3691 222.014 84.6559C222.119 84.9452 222.295 85.2037 222.525 85.4079C222.77 85.5864 223.05 85.7118 223.346 85.776C223.643 85.8403 223.95 85.842 224.247 85.781L225.722 85.5399L224.419 86.2804C223.838 86.6062 223.313 87.0228 222.863 87.5145C222.643 87.7313 222.472 87.9922 222.36 88.2802C222.248 88.5681 222.199 88.8764 222.215 89.1848C222.234 89.4687 222.35 89.7374 222.543 89.9462C222.736 90.1551 222.995 90.2915 223.277 90.3328C223.914 90.4184 224.562 90.3394 225.159 90.1032L226.83 89.5292L225.452 90.6313C225.068 90.9381 224.724 91.2931 224.43 91.6874C224.138 92.0508 223.958 92.4918 223.914 92.956C223.906 93.165 223.955 93.3723 224.056 93.5554C224.157 93.7385 224.307 93.8905 224.488 93.9949C224.93 94.1659 225.413 94.2038 225.877 94.104C226.886 93.9136 227.878 93.6429 228.844 93.2946C229.338 93.1339 229.832 92.9789 230.337 92.8412C230.835 92.6744 231.364 92.6176 231.887 92.6747C231.37 92.6776 230.86 92.7809 230.383 92.9789C229.895 93.1511 229.413 93.3463 228.931 93.5529C227.969 93.976 226.97 94.3066 225.946 94.5402C225.393 94.6761 224.813 94.6482 224.275 94.4599C223.995 94.3236 223.76 94.1091 223.599 93.8422C223.438 93.5753 223.358 93.2675 223.369 92.956C223.405 92.3793 223.615 91.8271 223.971 91.3717C224.289 90.927 224.663 90.5256 225.085 90.1778L225.378 90.6829C224.678 90.9756 223.914 91.0785 223.162 90.9814C222.747 90.9202 222.366 90.7175 222.083 90.4074C221.819 90.0896 221.657 89.6995 221.618 89.2881C221.597 88.898 221.66 88.508 221.802 88.1439C221.943 87.7797 222.16 87.4498 222.439 87.1758C222.935 86.64 223.517 86.19 224.161 85.8441L224.333 86.3435C223.958 86.4081 223.574 86.3902 223.208 86.291C222.841 86.1919 222.5 86.0139 222.209 85.7695C221.94 85.5036 221.742 85.1738 221.635 84.8109C221.524 84.4401 221.555 84.0411 221.721 83.6916C222.068 83.0667 222.583 82.5516 223.208 82.205C223.796 81.8208 224.428 81.5086 225.091 81.2751Z" fill="#263238"/>
<path d="M216.021 85.6662C216.021 85.6662 222.737 72.6823 226.525 77.7909C227.673 79.312 230.463 86.8888 228.948 87.4858C226.996 88.2492 225.234 85.3046 224.419 83.2841C224.419 83.2841 222.76 88.0196 219.115 87.8474C218.449 87.8039 217.807 87.5772 217.261 87.1923C216.715 86.8075 216.286 86.2793 216.021 85.6662Z" fill="#AD6359"/>
<path d="M226.181 77.3891C226.693 77.9331 227.124 78.5478 227.461 79.2144C227.811 79.8724 228.116 80.5532 228.374 81.2521C228.918 82.6475 229.339 84.0881 229.631 85.5571C229.707 85.9483 229.729 86.3482 229.694 86.7453C229.669 86.9721 229.596 87.191 229.482 87.3882C229.418 87.4971 229.337 87.5942 229.24 87.6752C229.145 87.7562 229.036 87.8203 228.919 87.8646C228.499 88.0197 228.037 88.0197 227.616 87.8646C227.234 87.718 226.881 87.5063 226.571 87.2389C225.997 86.7197 225.516 86.1062 225.148 85.4251C224.773 84.7703 224.451 84.087 224.184 83.3817H224.666C224.458 83.9149 224.199 84.4264 223.891 84.9085C223.594 85.3943 223.246 85.8466 222.852 86.2574C222.458 86.6667 222.005 87.015 221.509 87.2906C221.018 87.5692 220.478 87.7486 219.919 87.8187C220.451 87.6785 220.955 87.4495 221.411 87.1414C221.861 86.8326 222.265 86.4615 222.611 86.0393C222.96 85.6228 223.268 85.1729 223.529 84.6961C223.79 84.2253 224.007 83.7315 224.178 83.2209L224.379 82.5895L224.66 83.2037C224.946 83.8694 225.276 84.5156 225.647 85.1381C225.999 85.7541 226.447 86.3101 226.973 86.7855C227.191 87.0129 227.464 87.1805 227.766 87.272C228.067 87.3634 228.387 87.3758 228.695 87.3078C229.177 87.1586 229.154 86.3492 229.057 85.6604C228.941 84.9415 228.79 84.2289 228.603 83.5252C228.425 82.8077 228.236 82.1016 228.029 81.4014C227.628 79.975 227.005 78.6208 226.181 77.3891Z" fill="#263238"/>
<path d="M214.121 86.906C214.121 86.906 202.699 94.8215 201.327 94.4656C199.031 93.8916 184.354 83.33 180.496 81.1545C176.639 78.9791 175.33 81.9983 177.575 85.7867C183.47 95.7399 193.153 111.335 201.654 112.971C206.246 113.85 222.318 107.805 222.318 107.805L214.121 86.906Z" fill="#9C33B0"/>
<path d="M183.803 95.6021C183.613 95.3496 183.498 95.0281 183.332 94.7641L182.798 93.8973C182.442 93.3463 182.092 92.7895 181.748 92.227C181.053 91.1134 180.296 90.0401 179.567 88.9495C180.204 90.0975 180.824 91.2455 181.541 92.3935C181.558 92.415 181.574 92.4381 181.587 92.4623L181.128 92.0089L180.181 91.0618C180.181 91.0618 180.129 91.0618 180.146 91.0962C180.433 91.4349 180.72 91.7678 181.042 92.0778C181.208 92.2385 181.369 92.3992 181.541 92.5484L181.776 92.7551L182.586 93.9949C182.769 94.2819 182.965 94.5689 183.16 94.8387C183.355 95.1085 183.608 95.3553 183.774 95.6423C183.768 95.6825 183.837 95.6423 183.803 95.6021Z" fill="#263238"/>
<path d="M211.005 90.35C214.586 98.4664 217.416 107.053 218.002 108.563C218.002 108.632 217.898 108.649 217.87 108.563C217.33 107.151 213.14 97.2323 210.855 90.35C210.85 90.2754 211.005 90.2639 211.005 90.35Z" fill="#263238"/>
<path d="M171.886 77.3661C175.79 76.5109 182.58 79.3407 183.079 82.2853C183.498 84.8052 183.567 103.736 184.124 108.689C184.681 113.643 199.84 134.594 199.84 134.594L192.814 134.135L191.598 140.564C191.598 140.564 178.286 122.236 175.669 113.654C173.052 105.073 177.787 80.7987 177.07 79.5703C176.352 78.3419 173.39 78.5084 172.047 78.7552C170.704 79.002 168.574 81.6252 167.495 84.2369C166.416 86.8486 162.215 103.684 162.151 109.866C162.088 116.048 170.394 139.461 170.394 139.461L164.298 136.723L160.028 142.601C160.028 142.601 153.645 119.785 153.381 109.694C153.214 103.276 157.973 91.7276 163.202 84.0245C166.198 79.6392 169.539 77.877 171.886 77.3661Z" fill="#5A0F68"/>
<path d="M176.754 79.9434C176.496 80.4313 173.098 83.1521 170.744 82.4059C169.975 82.159 171.129 77.9172 171.129 77.9172V77.5843L171.318 72.9234L177.362 70.989L178.229 70.7479C178.229 70.7479 178.091 72.0222 177.908 73.6179C177.908 73.6925 177.908 73.7672 177.879 73.8475C177.85 73.9279 177.879 74.0197 177.879 74.1001C177.879 74.3412 177.827 74.5822 177.799 74.8176C177.77 75.0529 177.753 75.1792 177.718 75.3916C177.684 75.604 177.667 75.7647 177.638 75.9656C177.434 77.31 177.138 78.639 176.754 79.9434Z" fill="#AD6359"/>
<path d="M177.919 73.6007C177.146 74.7168 176.139 75.6512 174.968 76.3391C173.798 77.027 172.492 77.4519 171.14 77.5843L171.33 72.9234L177.374 70.989L178.241 70.7479C178.241 70.7479 178.103 72.0222 177.919 73.6007Z" fill="#263238"/>
<path d="M167.094 63.0219C162.743 69.95 166.399 73.3539 167.897 74.278C169.252 75.1275 173.982 77.854 179.027 71.408C184.072 64.962 182.224 60.7488 179.228 58.6423C176.232 56.5357 171.45 56.0937 167.094 63.0219Z" fill="#AD6359"/>
<path d="M168.821 62.4421C168.999 62.5225 169.177 62.5627 169.361 62.6258C169.538 62.7154 169.739 62.7456 169.935 62.7119C169.995 62.6872 170.044 62.6433 170.077 62.5872C170.109 62.5312 170.121 62.466 170.113 62.402C170.079 62.2781 170.013 62.1655 169.921 62.0757C169.829 61.9859 169.715 61.9222 169.59 61.8911C169.345 61.7965 169.073 61.7965 168.827 61.8911C168.776 61.9167 168.733 61.9557 168.703 62.004C168.673 62.0523 168.657 62.108 168.656 62.1649C168.656 62.2218 168.671 62.2778 168.7 62.3267C168.729 62.3756 168.771 62.4155 168.821 62.4421Z" fill="#263238"/>
<path d="M173.649 65.3064C173.504 65.1856 173.366 65.0573 173.235 64.9218C173.07 64.8074 172.947 64.6421 172.885 64.4511C172.876 64.387 172.889 64.3218 172.923 64.2663C172.956 64.2109 173.008 64.1687 173.069 64.1469C173.194 64.118 173.324 64.123 173.446 64.1614C173.568 64.1997 173.678 64.27 173.763 64.365C173.968 64.5321 174.103 64.7695 174.142 65.0309C174.147 65.0904 174.135 65.1501 174.107 65.2028C174.079 65.2556 174.037 65.2991 173.984 65.3282C173.932 65.3573 173.873 65.3707 173.813 65.3669C173.754 65.363 173.697 65.342 173.649 65.3064Z" fill="#263238"/>
<path d="M171.502 66.3626C171.502 66.3626 171.502 66.4085 171.502 66.4314C171.192 66.8906 170.928 67.4704 171.238 67.8951C171.238 67.8951 171.238 67.9353 171.238 67.9238C170.756 67.522 171.134 66.7529 171.502 66.3626Z" fill="#263238"/>
<path d="M172.237 66.1387C173.029 66.5577 172.133 68.1133 171.393 67.7229C170.652 67.3326 171.571 65.7828 172.237 66.1387Z" fill="#263238"/>
<path d="M172.495 66.397C172.581 66.5635 172.621 66.7931 172.776 66.9079C172.877 66.9536 172.987 66.9738 173.097 66.9668C173.207 66.9598 173.314 66.9257 173.408 66.8677C173.408 66.8677 173.436 66.8677 173.408 66.9021C173.349 67.0582 173.234 67.1863 173.085 67.2608C172.936 67.3354 172.764 67.3508 172.604 67.3039C172.46 67.2206 172.353 67.0871 172.302 66.9292C172.251 66.7712 172.261 66.6001 172.328 66.4487C172.363 66.3855 172.46 66.3281 172.495 66.397Z" fill="#263238"/>
<path d="M168.879 64.7152C168.879 64.7152 168.833 64.7152 168.821 64.7152C168.563 65.2088 168.178 65.7312 167.673 65.6393C167.673 65.6393 167.645 65.6393 167.673 65.6393C168.219 65.9206 168.712 65.226 168.879 64.7152Z" fill="#263238"/>
<path d="M168.735 63.946C167.989 63.4466 167.042 64.9735 167.731 65.4384C168.419 65.9034 169.361 64.3823 168.735 63.946Z" fill="#263238"/>
<path d="M168.356 63.8657C168.184 63.8657 167.972 63.946 167.822 63.8657C167.673 63.7853 167.627 63.5327 167.616 63.2917C167.616 63.2917 167.616 63.2917 167.581 63.2917C167.474 63.412 167.412 63.5661 167.405 63.7274C167.399 63.8888 167.449 64.0472 167.547 64.1756C167.771 64.3822 168.121 64.2502 168.368 64.0034C168.414 63.9747 168.425 63.8657 168.356 63.8657Z" fill="#263238"/>
<path d="M167.886 68.4749C167.907 68.8651 168.029 69.243 168.242 69.5712C168.361 69.7454 168.531 69.8778 168.729 69.9501C169.171 70.1051 169.407 69.7721 169.539 69.4335C169.608 69.2486 169.655 69.0558 169.677 68.8595C169.054 68.9257 168.426 68.791 167.886 68.4749Z" fill="#263238"/>
<path d="M168.242 69.5712C168.361 69.7453 168.531 69.8778 168.729 69.9501C169.171 70.1051 169.407 69.7721 169.539 69.4335C169.339 69.3058 169.102 69.2499 168.866 69.275C168.63 69.3 168.41 69.4045 168.242 69.5712Z" fill="#FF9BBC"/>
<path d="M168.299 67.4359C168.299 67.4359 167.777 68.096 167.576 68.4347C167.576 68.4634 167.627 68.5265 167.742 68.6012C168.001 68.8236 168.316 68.9711 168.653 69.0277C168.99 69.0843 169.336 69.048 169.654 68.9226C169.661 68.9196 169.667 68.9145 169.672 68.9078C169.676 68.9012 169.679 68.8933 169.679 68.8853C169.679 68.8773 169.676 68.8694 169.672 68.8628C169.667 68.8561 169.661 68.851 169.654 68.848C169.046 68.8899 168.442 68.7327 167.932 68.4003C167.96 68.2912 168.861 67.3039 168.81 67.2523C168.534 67.1225 168.243 67.0299 167.943 66.9767C168.993 65.5762 170.239 64.3536 171.284 62.9587C171.318 62.9071 171.249 62.8497 171.209 62.8841C169.812 64.1516 168.545 65.5553 167.426 67.0743C167.283 67.258 168.127 67.39 168.299 67.4359Z" fill="#263238"/>
<path d="M178.734 71.6089C177.965 71.1095 177.127 67.7459 179.234 63.8599C179.234 63.8599 177.58 67.4819 177.558 68.1362C177.535 68.7906 177.093 66.2478 178.746 63.0908C177.374 63.2389 175.988 63.1906 174.63 62.9473C172.908 62.5282 172.041 62.0116 171.995 61.8452C171.95 61.6787 174.492 62.2183 175.439 61.8452C175.439 61.8452 170.515 61.4606 168.643 60.5824C168.425 60.4848 170.555 56.8112 174.355 56.5644C178.154 56.3176 181.489 60.0084 182.029 61.828C182.029 61.828 183.091 62.5971 183.298 65.5188C183.533 68.6815 179.567 72.1427 178.734 71.6089Z" fill="#263238"/>
<path d="M177.431 73.9738C177.302 73.9592 177.175 73.9304 177.052 73.8877C176.928 73.8498 176.81 73.7937 176.702 73.7212C176.562 73.6303 176.443 73.511 176.352 73.3711C176.282 73.2606 176.228 73.1408 176.191 73.0152C176.133 72.8297 176.11 72.6352 176.123 72.4412L177.523 70.7192C177.523 70.7192 180.278 69.267 181.019 70.3633C181.759 71.4597 178.86 74.146 177.431 73.9738Z" fill="#AD6359"/>
<path d="M180.175 71.1153C180.175 71.1153 180.175 71.1555 180.175 71.1497C179.687 71.1438 179.202 71.2404 178.753 71.4332C178.305 71.626 177.901 71.9107 177.569 72.269C177.662 72.2101 177.767 72.172 177.877 72.1572C177.986 72.1425 178.098 72.1515 178.203 72.1836C178.309 72.2158 178.406 72.2703 178.489 72.3434C178.572 72.4166 178.638 72.5067 178.683 72.6077C178.683 72.6077 178.654 72.6593 178.631 72.6421C178.507 72.5183 178.348 72.4359 178.175 72.4061C178.002 72.3763 177.825 72.4006 177.667 72.4757C177.402 72.6059 177.152 72.7636 176.92 72.9463C176.84 73.0037 176.725 72.8889 176.8 72.8201C177.339 71.7122 178.958 70.6274 180.175 71.1153Z" fill="#263238"/>
<path d="M177.489 73.6179C177.442 73.6761 177.378 73.719 177.307 73.7413C177.235 73.7635 177.159 73.7641 177.087 73.743C177.015 73.7218 176.951 73.6798 176.903 73.6224C176.855 73.5649 176.826 73.4945 176.818 73.4201C176.81 73.3457 176.824 73.2705 176.858 73.2042C176.893 73.1378 176.947 73.0832 177.012 73.0473C177.078 73.0113 177.153 72.9956 177.227 73.0022C177.302 73.0088 177.373 73.0372 177.431 73.0841C177.47 73.1153 177.503 73.1539 177.526 73.1977C177.55 73.2414 177.565 73.2895 177.571 73.3391C177.576 73.3887 177.572 73.4388 177.558 73.4867C177.543 73.5345 177.52 73.5791 177.489 73.6179Z" fill="white"/>
<path d="M178.441 73.4629C178.42 73.4902 178.393 73.5129 178.362 73.5297C178.332 73.5465 178.298 73.5571 178.263 73.5608C178.229 73.5646 178.194 73.5614 178.16 73.5515C178.127 73.5416 178.095 73.5251 178.068 73.5031C178.023 73.4561 177.996 73.394 177.992 73.3285C177.989 73.263 178.01 73.1985 178.051 73.1471C178.091 73.0958 178.149 73.061 178.214 73.0494C178.279 73.0378 178.345 73.0502 178.401 73.0841C178.429 73.1059 178.453 73.1332 178.47 73.1642C178.488 73.1953 178.498 73.2296 178.502 73.265C178.506 73.3003 178.502 73.3361 178.492 73.3701C178.482 73.4042 178.464 73.4357 178.441 73.4629Z" fill="white"/>
<path d="M195.197 70.6561C194.74 70.6575 194.286 70.5838 193.853 70.438C193.389 70.3072 192.964 70.0661 192.613 69.7353C192.262 69.4044 191.996 68.9937 191.839 68.538C191.557 67.5967 192.137 66.4888 192.746 65.3179C193.452 63.9575 194.186 62.5569 193.532 61.4434C192.292 59.3368 187.436 57.5 187.39 57.477L187.539 57.0752C187.746 57.1556 192.591 58.9867 193.899 61.2253C194.674 62.5397 193.853 64.0953 193.124 65.5188C192.55 66.6094 192.022 67.6426 192.252 68.3888C192.389 68.7758 192.617 69.1243 192.917 69.4049C193.216 69.6856 193.579 69.8903 193.974 70.0017C194.425 70.1744 194.91 70.2419 195.392 70.1992C195.873 70.1564 196.338 70.0045 196.752 69.7549L197.005 70.105C196.474 70.4725 195.842 70.6651 195.197 70.6561Z" fill="#263238"/>
<path d="M196.551 69.9443C196.56 69.4276 196.696 68.921 196.947 68.4691C197.462 67.779 198.055 67.1511 198.715 66.5979L198.996 66.9251C198.371 67.4414 197.81 68.0311 197.326 68.6815C197.112 69.067 196.994 69.4981 196.982 69.9386L196.551 69.9443Z" fill="#9C33B0"/>
<path d="M198.084 70.3863C197.7 70.3785 197.316 70.3479 196.936 70.2945L196.999 69.8697C197.464 69.9412 197.935 69.9662 198.405 69.9443C199.151 69.6382 199.844 69.2179 200.46 68.6987L200.724 69.0374C200.558 69.1637 199.077 70.3059 198.428 70.3691C198.314 70.3804 198.199 70.3861 198.084 70.3863V70.3863Z" fill="#9C33B0"/>
<path d="M197.028 70.1165L196.66 69.8927C197.015 69.2813 197.426 68.7047 197.889 68.1707L199.611 66.684L199.892 67.0112C199.892 67.0112 198.526 68.1592 198.17 68.4978C197.741 69.0017 197.359 69.5435 197.028 70.1165Z" fill="#9C33B0"/>
<path d="M196.982 70.26L196.821 69.8582C197.522 69.5935 198.198 69.267 198.841 68.8824C199.197 68.5725 200.294 67.8492 200.34 67.8205L200.581 68.1764C200.581 68.1764 199.461 68.9169 199.128 69.2096C198.445 69.6216 197.727 69.9731 196.982 70.26V70.26Z" fill="#9C33B0"/>
<path d="M178.82 60.7546L166.818 48.9704L184.107 51.5591L194.703 64.9333L178.82 60.7546Z" fill="#9C33B0"/>
<path opacity="0.1" d="M178.82 60.7546L166.818 48.9704L184.107 51.5591L194.703 64.9333L178.82 60.7546Z" fill="black"/>
<path d="M170.825 57.8444L172.782 53.3155C172.782 53.3155 178.235 53.8092 181.581 55.7378C184.928 57.6665 188.045 61.65 188.045 61.65L185.134 66.0698C185.134 66.0698 180.824 62.3388 178.086 60.8349C175.739 59.6678 173.312 58.6685 170.825 57.8444V57.8444Z" fill="#9C33B0"/>
<path d="M77.4118 215.654C77.4118 215.654 77.4118 238.677 77.4118 238.695C77.4118 243.097 77.4462 246.96 77.6643 248.952C77.6616 248.963 77.6616 248.975 77.6643 248.986C77.6641 249.458 77.7721 249.923 77.98 250.347V250.375C79.283 251.271 114.463 252.476 115.703 252.097C116.943 251.719 115.985 248.16 114.659 247.023C113.333 245.887 100.062 239.401 100.062 239.401L99.838 216.389L77.4118 215.654Z" fill="#EB9481"/>
<path d="M77.4175 233.971V238.695C77.4175 243.097 77.452 246.96 77.6701 248.952C77.6674 248.963 77.6674 248.975 77.6701 248.986C77.7206 249.451 77.8266 249.907 77.9858 250.347V250.375C79.2888 251.271 114.469 252.476 115.709 252.097C116.949 251.719 115.99 248.16 114.664 247.023C113.338 245.887 100.068 239.401 100.068 239.401L100.131 234.608L77.4175 233.971Z" fill="white"/>
<path d="M115.749 252.103C114.504 252.476 79.3289 251.271 78.0145 250.381C77.5151 250.048 77.3888 244.911 77.4405 238.7C77.4405 238.637 77.4405 238.574 77.4405 238.505L100.142 239.033V239.418C100.142 239.418 113.361 245.904 114.699 247.052C116.036 248.2 116.989 251.736 115.749 252.103Z" fill="#A6A6A6"/>
<path d="M115.393 250.726C109.47 250.375 85.5454 249.532 79.6561 249.635C79.6102 249.635 79.6102 249.669 79.6561 249.675C85.5224 250.146 109.458 250.823 115.393 250.823C115.52 250.823 115.52 250.731 115.393 250.726Z" fill="#263238"/>
<path d="M102.008 239.544C99.7117 239.027 96.8417 239.286 94.9819 240.887C94.913 240.95 94.9819 241.054 95.0795 241.031C97.3262 240.388 99.6354 239.988 101.967 239.837C102.003 239.837 102.038 239.823 102.065 239.8C102.092 239.776 102.11 239.743 102.115 239.708C102.119 239.672 102.111 239.636 102.092 239.606C102.072 239.576 102.042 239.554 102.008 239.544Z" fill="#263238"/>
<path d="M103.667 240.617C101.371 240.101 98.5005 240.359 96.6465 241.961C96.5719 242.024 96.6465 242.127 96.7384 242.104C98.9853 241.462 101.294 241.062 103.626 240.91C103.662 240.91 103.697 240.897 103.724 240.873C103.751 240.849 103.769 240.817 103.773 240.781C103.778 240.746 103.77 240.709 103.751 240.679C103.731 240.649 103.701 240.627 103.667 240.617Z" fill="#263238"/>
<path d="M105.308 241.691C103.012 241.174 100.142 241.433 98.2824 243.034C98.2135 243.097 98.2824 243.2 98.3742 243.177C100.621 242.535 102.93 242.135 105.262 241.984C105.299 241.985 105.334 241.973 105.363 241.95C105.391 241.926 105.409 241.894 105.415 241.858C105.421 241.821 105.413 241.785 105.393 241.754C105.374 241.723 105.343 241.701 105.308 241.691Z" fill="#263238"/>
<path d="M76.2753 199.1L76.281 199.358L76.7919 239.665L101.416 239.171L96.3595 116.295H75.5635L76.2753 199.1Z" fill="#263238"/>
<path d="M100.389 235.067C96.5432 235.032 97.6453 234.987 93.7995 234.998C91.9225 234.998 79.5528 235.044 77.8021 235.36C77.7947 235.363 77.7883 235.368 77.7838 235.374C77.7793 235.381 77.7769 235.389 77.7769 235.397C77.7769 235.405 77.7793 235.413 77.7838 235.419C77.7883 235.426 77.7947 235.431 77.8021 235.434C79.5643 235.704 91.9225 235.434 93.8052 235.406C97.651 235.325 96.5432 235.302 100.389 235.176C100.4 235.172 100.411 235.165 100.418 235.155C100.425 235.145 100.428 235.133 100.428 235.121C100.428 235.109 100.425 235.098 100.418 235.088C100.411 235.078 100.4 235.071 100.389 235.067Z" fill="#37474F"/>
<path d="M80.9706 221.4C80.917 217.715 80.8577 214.032 80.7926 210.35C80.651 202.988 80.5133 195.623 80.3793 188.257C80.1115 173.605 79.8761 158.951 79.6733 144.294C79.547 136.029 79.5528 127.758 79.3404 119.498H79.306C79.1682 126.862 79.2543 134.232 79.2658 141.597C79.2773 148.961 79.306 156.331 79.3806 163.696C79.5241 178.356 79.725 193.01 80.0751 207.664C80.1727 211.797 80.2703 215.93 80.4138 220.057C80.5573 224.184 80.6491 228.328 80.9361 232.455C80.9361 232.469 80.9416 232.482 80.9513 232.492C80.9609 232.501 80.9741 232.507 80.9878 232.507C81.0015 232.507 81.0146 232.501 81.0243 232.492C81.034 232.482 81.0394 232.469 81.0394 232.455C81.1083 228.77 81.0165 225.079 80.9706 221.4Z" fill="#37474F"/>
<path d="M75.5578 116.542L76.1031 179.286L92.7778 116.295H75.5635L75.5578 116.542Z" fill="#37474F"/>
<path d="M39.0571 204.14L27.1696 223.461C25.2409 227.415 23.6223 230.923 22.9507 232.811C22.9482 232.822 22.9482 232.834 22.9507 232.845C22.7466 233.272 22.6426 233.739 22.6465 234.212C22.6465 234.212 22.6465 234.212 22.6465 234.246C23.4328 235.618 54.6125 251.96 55.8926 252.161C57.1726 252.361 57.8556 248.717 57.1496 247.138C56.4436 245.56 47.2998 233.936 47.2998 233.936L58.9807 214.541L39.0571 204.14Z" fill="#EB9481"/>
<path d="M22.6407 234.212C22.638 234.223 22.638 234.235 22.6407 234.246C23.4271 235.618 54.6068 251.96 55.8868 252.166C57.1668 252.373 57.8499 248.722 57.1496 247.138C56.4493 245.554 47.2997 233.936 47.2997 233.936L49.3834 230.492C44.2862 227.777 35.0333 223.03 29.2933 220.051L27.1868 223.495C25.2581 227.456 23.6337 230.957 22.9679 232.845C22.9654 232.857 22.9654 232.869 22.9679 232.88C22.7567 233.292 22.6447 233.748 22.6407 234.212Z" fill="white"/>
<path d="M55.8925 252.161C54.6125 251.96 23.4386 235.618 22.6464 234.246C22.3365 233.724 24.4545 229.046 27.1696 223.461L27.2557 223.288L47.4892 233.62L47.2997 233.959C47.2997 233.959 56.4378 245.548 57.1496 247.161C57.8613 248.774 57.1725 252.373 55.8925 252.161Z" fill="#A6A6A6"/>
<path d="M56.1738 250.771C51.0078 247.901 29.7698 236.749 24.443 234.292C24.3971 234.292 24.3856 234.292 24.443 234.321C29.5229 237.294 50.8069 248.263 56.1451 250.858C56.2426 250.909 56.2828 250.829 56.1738 250.771Z" fill="#263238"/>
<path d="M48.9586 234.889C47.0931 233.419 44.401 232.409 42.0706 233.052C41.9788 233.081 42.0132 233.207 42.0706 233.224C44.3815 233.62 46.6428 234.265 48.8151 235.147C48.8487 235.16 48.8857 235.16 48.9195 235.148C48.9532 235.136 48.9814 235.112 48.9989 235.08C49.0163 235.049 49.0219 235.012 49.0145 234.977C49.0071 234.942 48.9872 234.911 48.9586 234.889Z" fill="#263238"/>
<path d="M49.9803 236.571C48.1148 235.101 45.4228 234.091 43.0923 234.74C43.0005 234.74 43.0349 234.889 43.0923 234.906C45.4032 235.302 47.6645 235.947 49.8368 236.829C49.8704 236.842 49.9075 236.842 49.9412 236.83C49.975 236.818 50.0032 236.794 50.0206 236.762C50.0381 236.731 50.0436 236.694 50.0362 236.659C50.0288 236.624 50.009 236.592 49.9803 236.571Z" fill="#263238"/>
<path d="M51.0021 238.253C49.1366 236.783 46.4445 235.773 44.1141 236.421C44.0222 236.421 44.0567 236.571 44.1141 236.588C46.425 236.984 48.6863 237.629 50.8586 238.511C50.8921 238.524 50.9292 238.524 50.9629 238.512C50.9967 238.499 51.0249 238.475 51.0423 238.444C51.0598 238.413 51.0653 238.376 51.0579 238.341C51.0505 238.306 51.0307 238.274 51.0021 238.253Z" fill="#263238"/>
<path d="M93.5527 116.272C93.4608 116.702 92.0029 123.447 90.499 129.244C89.4026 133.475 88.2719 137.2 87.629 137.584C86.8943 138.015 83.324 139.599 82.1243 140.093C82.1243 140.093 74.0883 180.192 69.8522 192.625C65.9433 204.105 49.7622 234.763 49.7622 234.763L26.2512 222.944C26.2512 222.944 44.6192 191.822 46.5248 186.237C49.5154 177.581 60.7199 135.311 60.7199 135.311C60.7199 135.311 60.6338 122.081 65.0937 116.301L93.5527 116.272Z" fill="#263238"/>
<path d="M49.4006 230.205C46.0427 228.328 47.03 228.822 43.6606 226.985C42.0075 226.084 31.1416 220.183 29.4541 219.615C29.4139 219.615 29.3852 219.661 29.4139 219.684C30.8317 220.769 41.7951 226.48 43.4654 227.347C46.9094 229.114 45.9221 228.569 49.3489 230.303C49.3611 230.305 49.3738 230.304 49.3852 230.299C49.3965 230.293 49.4057 230.284 49.4116 230.273C49.4174 230.262 49.4195 230.25 49.4175 230.237C49.4155 230.225 49.4096 230.214 49.4006 230.205Z" fill="#37474F"/>
<path d="M66.7468 131.603C67.3897 131.437 68.0785 131.385 68.7329 131.282C69.2667 131.196 69.7948 131.104 70.3171 130.989C71.3232 130.81 72.2764 130.408 73.1068 129.812C73.9422 129.046 74.5667 128.077 74.9206 127C75.1789 126.391 75.4487 125.783 75.7185 125.175L76.1203 124.296C76.3064 123.952 76.4731 123.597 76.6197 123.234C76.6235 123.224 76.6313 123.215 76.6416 123.21C76.6466 123.208 76.6521 123.206 76.6577 123.206C76.6633 123.206 76.6689 123.207 76.6742 123.209C76.6795 123.21 76.6843 123.213 76.6885 123.217C76.6926 123.221 76.696 123.225 76.6984 123.231C76.7008 123.236 76.7022 123.241 76.7024 123.247C76.7027 123.252 76.7019 123.258 76.7 123.263C76.6107 123.511 76.536 123.764 76.4762 124.021C76.3843 124.319 76.3039 124.595 76.2121 124.911C76.0456 125.433 75.8907 125.961 75.7127 126.483C75.4451 127.449 75.0595 128.378 74.5647 129.25C73.5947 130.794 71.8612 131.414 70.1277 131.638C69.6341 131.701 69.1347 131.735 68.6296 131.764C67.9993 131.819 67.3656 131.819 66.7354 131.764C66.7195 131.757 66.7062 131.745 66.6973 131.73C66.6884 131.715 66.6843 131.697 66.6855 131.68C66.6868 131.662 66.6933 131.646 66.7043 131.632C66.7152 131.618 66.7301 131.608 66.7468 131.603Z" fill="#37474F"/>
<path d="M89.5232 136.66C86.9738 137.594 84.5098 138.746 82.1588 140.104C82.142 140.116 82.1297 140.132 82.1241 140.152C82.1185 140.171 82.1199 140.192 82.1281 140.211C82.1364 140.229 82.1509 140.244 82.1691 140.253C82.1872 140.262 82.208 140.264 82.2276 140.259C84.7073 139.192 87.2386 138.17 89.6552 136.97C89.6755 136.962 89.694 136.949 89.7095 136.933C89.725 136.917 89.7372 136.899 89.7454 136.878C89.7537 136.858 89.7578 136.836 89.7576 136.814C89.7574 136.791 89.7528 136.77 89.7442 136.749C89.7355 136.729 89.7229 136.71 89.7071 136.695C89.6913 136.679 89.6726 136.667 89.6521 136.659C89.6316 136.651 89.6096 136.647 89.5875 136.647C89.5654 136.647 89.5435 136.652 89.5232 136.66Z" fill="#37474F"/>
<path d="M90.2694 119.67C90.2694 119.584 90.1086 119.567 90.1144 119.67C90.1144 122.615 89.9422 125.203 89.6954 127.958C89.5806 129.233 88.5474 136.293 86.3375 135.782C85.9644 135.696 85.7635 135.329 85.7175 134.772C85.7265 134.039 85.8268 133.31 86.016 132.602C86.2571 131.127 86.458 129.646 86.59 128.154C86.8465 125.374 86.8158 122.575 86.4982 119.802C86.4937 119.786 86.4843 119.773 86.4714 119.763C86.4584 119.753 86.4427 119.748 86.4264 119.748C86.4102 119.748 86.3945 119.753 86.3815 119.763C86.3686 119.773 86.3591 119.786 86.3547 119.802C86.421 123.657 86.1965 127.512 85.6831 131.334C85.4076 133.165 84.4777 135.926 86.4006 136.213C88.3235 136.5 89.6207 131.873 89.8446 130.605C90.4571 126.993 90.5998 123.318 90.2694 119.67Z" fill="#37474F"/>
<path d="M86.3949 135.96C86.1953 136.435 86.0303 136.925 85.9012 137.424C85.7573 137.807 85.6852 138.214 85.6888 138.623C85.6919 138.64 85.6997 138.655 85.7115 138.668C85.7232 138.68 85.7383 138.688 85.7549 138.692C85.7715 138.696 85.7887 138.694 85.8045 138.688C85.8204 138.682 85.834 138.672 85.8438 138.658C86.0726 138.303 86.2468 137.916 86.3604 137.51C86.5269 137.056 86.7048 136.609 86.8598 136.149C86.8723 136.119 86.8786 136.086 86.8784 136.053C86.8782 136.02 86.8715 135.988 86.8587 135.957C86.8459 135.927 86.8273 135.899 86.8038 135.876C86.7804 135.853 86.7526 135.835 86.7221 135.822C86.6915 135.81 86.6589 135.804 86.6259 135.804C86.5929 135.804 86.5603 135.811 86.5299 135.823C86.4996 135.836 86.472 135.855 86.4488 135.878C86.4256 135.902 86.4073 135.929 86.3949 135.96Z" fill="#37474F"/>
<path d="M32.5939 219.018C35.9345 212.727 39.3785 206.487 42.8225 200.254C44.5445 197.183 46.3067 194.146 47.9369 191.035C49.469 187.95 50.7122 184.73 51.6507 181.415C53.7247 174.695 55.684 167.941 57.5284 161.153C59.3729 154.364 61.1102 147.547 62.7403 140.701C63.1479 138.979 63.5956 137.257 63.9228 135.535C64.2183 133.789 64.2183 132.006 63.9228 130.26C63.6684 128.635 63.6549 126.981 63.8826 125.352C64.1421 123.726 64.5259 122.122 65.0306 120.554C65.2889 119.727 65.5702 118.906 65.8572 118.091C65.8859 118 66.0294 118.04 66.0007 118.132C64.9847 121.449 63.9515 124.796 64.1696 128.309C64.2729 129.996 64.7436 131.649 64.6919 133.348C64.582 135.034 64.2953 136.704 63.8367 138.331C62.241 145.219 60.519 152.074 58.6707 158.897C56.8224 165.72 54.8976 172.528 52.8962 179.32C51.8975 182.609 50.9676 185.95 49.5498 189.078C48.132 192.206 46.3412 195.191 44.6536 198.199C41.1637 204.404 37.6451 210.597 34.0461 216.739L32.6685 219.075C32.6398 219.115 32.5652 219.069 32.5939 219.018Z" fill="#37474F"/>
<path d="M80.3736 89.885C84.6155 91.785 103.299 95.2347 108.93 90.769C114.67 86.2172 118.401 67.235 118.832 64.9907C119.262 62.7463 104.648 59.2507 104.149 61.2884C102.874 66.5405 100.676 80.305 98.5178 81.0397C93.9832 82.578 89.5863 82.8535 82.2735 84.2713C77.1764 85.2586 75.6898 87.7842 80.3736 89.885Z" fill="#EB9481"/>
<path d="M118.591 65.4613C119.469 63.8771 122.959 56.1798 123.429 53.8493C123.9 51.5189 124.761 44.7055 123.01 44.1659C121.26 43.6264 120.846 45.578 120.846 45.578C120.846 45.578 120.755 42.6448 118.946 42.266C117.138 41.8872 116.593 44.9695 116.593 44.9695C116.593 44.9695 116.277 41.9618 114.446 41.7092C112.615 41.4567 112.587 44.6538 112.587 44.6538C112.587 44.6538 112.432 41.8929 110.865 42.3234C108.942 42.8343 109.803 47.8912 109.091 50.4283C108.93 51.0023 104.987 61.8681 104.987 61.8681L118.591 65.4613Z" fill="#EB9481"/>
<path d="M112.598 44.43C113.224 48.1495 112.856 49.883 111.421 53.3155C111.418 53.3223 111.416 53.3297 111.415 53.3372C111.415 53.3448 111.416 53.3524 111.418 53.3596C111.421 53.3668 111.424 53.3734 111.429 53.3792C111.434 53.3849 111.44 53.3896 111.447 53.393C111.454 53.3964 111.461 53.3984 111.469 53.3989C111.476 53.3995 111.484 53.3985 111.491 53.3961C111.498 53.3937 111.505 53.3899 111.511 53.385C111.516 53.38 111.521 53.3739 111.525 53.3672C113.247 50.1413 114.01 48.029 112.776 44.3898C112.713 44.1832 112.569 44.2233 112.598 44.43Z" fill="#263238"/>
<path d="M116.536 44.694C116.851 48.6144 116.467 50.5029 115.233 54.2052C115.233 54.2569 115.302 54.2913 115.319 54.2396C116.84 50.7095 117.569 48.5857 116.737 44.7055C116.702 44.5333 116.524 44.5161 116.536 44.694Z" fill="#263238"/>
<path d="M120.777 45.7846C120.806 49.6017 120.473 51.6911 118.814 55.1293C118.805 55.1453 118.803 55.1643 118.808 55.182C118.813 55.1998 118.824 55.2149 118.84 55.224C118.856 55.2332 118.875 55.2356 118.893 55.2307C118.911 55.2259 118.926 55.2142 118.935 55.1982C120.973 51.8575 121.403 49.2573 120.892 45.7961C120.887 45.578 120.772 45.5435 120.777 45.7846Z" fill="#263238"/>
<path d="M103.999 64.055C103.999 64.055 102.364 59.618 102.077 57.5114C101.79 55.4049 103.609 47.1794 105.411 47.4435C107.742 47.8223 107.633 52.7932 107.26 55.2154C107.26 55.2154 112.65 56.0822 113.338 59.6697C114.027 63.2572 103.999 64.055 103.999 64.055Z" fill="#EB9481"/>
<path d="M106.02 47.7592C107.897 49.6362 107.202 52.7874 107.013 55.1695C107.008 55.2049 107.012 55.241 107.024 55.2745C107.037 55.308 107.057 55.338 107.084 55.3618C107.11 55.3856 107.142 55.4025 107.177 55.411C107.212 55.4195 107.248 55.4194 107.283 55.4106C109.516 55.9215 112.518 57.2991 113.425 59.5434C113.429 59.5571 113.439 59.5684 113.452 59.5749C113.465 59.5813 113.48 59.5824 113.493 59.5778C113.507 59.5733 113.518 59.5635 113.525 59.5505C113.531 59.5376 113.532 59.5227 113.528 59.509C112.885 56.9719 110.049 55.3819 107.564 54.9744C107.794 52.5349 108.35 49.3434 106.037 47.742C106.02 47.7305 106.008 47.7477 106.02 47.7592Z" fill="#263238"/>
<path d="M103.242 64.784C103.242 64.784 100.004 79.6506 98.7244 80.3222C96.5891 81.4358 84.2022 83.5481 79.7824 84.5354C75.3626 85.5226 71.9301 90.3098 83.2264 92.0605C94.5227 93.8112 104.786 96.5377 110.204 94.0867C113.574 92.5599 124.124 77.1595 124.124 77.1595L103.242 64.784Z" fill="#9C33B0"/>
<path d="M102.851 70.0419C111.117 74.5363 119.107 79.9319 120.571 80.8216C120.645 80.8675 120.571 80.9651 120.479 80.9192C119.107 80.0811 109.154 74.4617 102.742 70.1452C102.668 70.0993 102.771 69.9959 102.851 70.0419Z" fill="#263238"/>
<path opacity="0.1" d="M107.817 94.7927C102.077 95.8432 93.0074 93.5816 83.2092 92.0605C76.3212 90.9871 74.9321 88.783 75.8964 87.0036L107.817 94.7927Z" fill="black"/>
<path d="M60.6166 125.829C60.7141 125.904 97.255 123.355 97.5075 122.959C97.6453 122.741 97.1631 117.764 95.2862 111.812C92.1693 101.893 85.5282 88.5189 81.0911 84.3976C79.3175 82.7502 74.3868 83.462 72.4467 85.6145C66.6837 91.9801 60.2664 125.548 60.6166 125.829Z" fill="#EBEBEB"/>
<path d="M71.666 85.8383C71.666 85.8383 74.6795 91.2971 75.6266 92.7263C77.8308 96.0555 83.0886 100.762 83.0886 100.762C83.5018 97.1923 83.5979 93.5926 83.3756 90.0056C83.2551 88.6624 81.625 84.6215 81.625 84.6215C81.625 84.6215 91.5838 95.1257 96.8646 116.26C102.145 137.395 109.567 198.606 109.567 198.606C109.567 198.606 96.6063 209.065 83.0714 209.03C61.1905 208.967 38.4544 194.301 38.4544 194.301C38.4544 194.301 45.9853 181.863 46.5248 180.238C47.0644 178.614 58.2574 135.254 58.3837 134.892C58.51 134.531 66.2245 92.2384 71.666 85.8383Z" fill="#9C33B0"/>
<path opacity="0.1" d="M86.877 189.411C86.3317 192.126 83.014 202.533 80.9361 208.979C76.7398 208.76 72.5744 208.137 68.4976 207.119C72.4524 202.211 79.5471 191.23 80.6204 188.458C81.8775 185.209 83.014 169.694 84.8279 168.196C86.6417 166.698 87.6806 185.404 86.877 189.411Z" fill="black"/>
<path opacity="0.1" d="M82.3252 157.508C82.3252 157.399 82.1358 157.364 82.1243 157.508C82.0152 158.421 81.9865 159.345 81.8947 160.257C81.8029 161.17 81.6364 162.088 81.5101 163.007C81.2633 164.867 80.982 166.726 80.718 168.58C80.1899 172.266 79.4839 175.939 78.709 179.578C78.2728 181.633 77.716 183.682 77.1018 185.691C77.1018 185.749 77.1707 185.766 77.1879 185.691C78.5376 182.166 79.7006 178.571 80.6721 174.923C81.1212 173.116 81.4737 171.286 81.7282 169.441C82.014 167.6 82.2056 165.746 82.3022 163.885C82.3539 162.846 82.3309 161.807 82.3309 160.768C82.3309 159.729 82.3941 158.581 82.3252 157.508Z" fill="black"/>
<path opacity="0.1" d="M104.906 199.617C104.906 200.38 104.832 201.138 104.774 201.913L104.045 202.355C104.045 202.297 104.045 202.234 104.045 202.177C103.994 201.029 103.965 199.932 103.931 198.807C103.804 194.87 103.667 190.938 103.311 187.012C103.219 186.03 103.19 185.049 103.098 184.067C102.976 183.071 102.917 182.068 102.92 181.065C102.901 180.083 102.807 179.105 102.639 178.138C102.519 177.139 102.369 176.146 102.243 175.153C102.246 175.144 102.252 175.136 102.26 175.131C102.268 175.126 102.277 175.123 102.286 175.123C102.295 175.123 102.305 175.126 102.312 175.131C102.32 175.136 102.326 175.144 102.329 175.153C102.582 176.249 102.783 177.351 102.995 178.453C103.098 179.027 103.19 179.555 103.299 180.106C103.408 180.657 103.569 181.185 103.672 181.731C104.381 185.672 104.784 189.661 104.878 193.664C104.941 195.627 104.97 197.619 104.906 199.617Z" fill="black"/>
<path opacity="0.1" d="M100.825 180.02C100.779 178.574 100.733 177.116 100.647 175.669C100.561 174.223 100.441 172.799 100.286 171.393C100.131 169.987 99.8724 168.523 99.7461 167.048C99.6026 165.412 99.4476 163.77 99.3271 162.129C99.3271 162.048 99.1951 162.054 99.2008 162.129C99.2754 163.581 99.3328 165.027 99.4017 166.48C99.4706 167.932 99.4017 169.384 99.4821 170.836C99.5911 173.706 99.8724 176.576 100.228 179.446C100.435 181.088 100.739 182.712 100.883 184.36C100.883 184.417 100.98 184.411 100.974 184.36C100.854 182.93 100.871 181.472 100.825 180.02Z" fill="black"/>
<path opacity="0.1" d="M77.0444 189.899C76.0916 191.621 75.0928 193.343 74.0826 195.065C73.1814 196.586 72.2975 198.118 71.2528 199.548C70.2081 200.977 69.1577 202.286 68.0499 203.612C67.2692 204.542 66.4828 205.471 65.662 206.361L64.9388 206.154L65.662 205.276C67.6825 202.842 69.5365 200.282 71.4537 197.768C72.4352 196.483 73.4455 195.225 74.3639 193.888C75.2823 192.551 76.1433 191.219 76.9813 189.87C76.9851 189.862 76.9921 189.855 77.0007 189.852C77.0093 189.849 77.0188 189.849 77.0272 189.853C77.0356 189.857 77.0421 189.864 77.0453 189.872C77.0486 189.881 77.0482 189.89 77.0444 189.899Z" fill="black"/>
<path opacity="0.1" d="M72.7911 164.672C71.4594 168.793 70.1105 172.897 68.509 176.921C67.7227 178.895 66.787 180.801 65.9031 182.735C65.0191 184.67 64.1811 186.61 63.1594 188.475C62.0117 190.585 60.737 192.622 59.3423 194.577C59.3423 194.623 59.3824 194.669 59.4169 194.634C62.1432 191.343 64.4564 187.731 66.3049 183.878C67.2023 181.914 67.9899 179.902 68.664 177.851C69.393 175.819 70.0588 173.769 70.7132 171.714C71.4537 169.378 72.1539 167.036 72.86 164.694C72.859 164.687 72.856 164.68 72.8512 164.674C72.8464 164.668 72.84 164.664 72.8328 164.661C72.8256 164.659 72.8178 164.658 72.8104 164.66C72.8031 164.662 72.7963 164.666 72.7911 164.672Z" fill="black"/>
<path opacity="0.1" d="M97.4214 121.134C96.9679 121.593 96.4571 121.995 95.9864 122.431L95.3148 123.068C95.0623 123.298 94.7925 123.47 94.5285 123.682C93.5699 124.457 92.5826 125.192 91.6125 125.978C89.7132 127.506 87.6017 128.749 85.3444 129.669C80.3449 131.626 74.8632 131.173 69.7603 129.973C66.7641 129.267 63.8424 128.251 60.892 127.356C60.8519 127.356 60.8232 127.419 60.892 127.436C63.4636 128.584 66.058 129.566 68.7386 130.427C71.3528 131.323 74.0706 131.883 76.8263 132.091C79.5466 132.272 82.2762 131.921 84.8623 131.058C87.2196 130.219 89.4357 129.027 91.4346 127.522C92.5944 126.672 93.669 125.71 94.6432 124.652C95.1484 124.107 95.6305 123.539 96.1299 122.993C96.6293 122.448 97.0713 121.845 97.5649 121.271C97.5936 121.168 97.4903 121.065 97.4214 121.134Z" fill="black"/>
<path d="M65.9548 92.072C55.4563 86.8543 43.5688 79.2947 42.9431 73.13C42.3691 67.5851 46.0485 58.1543 49.9746 47.874C50.7553 45.8363 66.2877 52.7358 65.243 54.8251C63.1766 58.9407 57.4022 67.8779 57.3103 70.547C57.2702 71.695 66.6952 81.2923 71.9875 87.876C78.4106 95.9235 70.1392 94.1671 65.9548 92.072Z" fill="#EB9481"/>
<path d="M53.2119 38.9827C51.3292 41.9503 48.9069 50.9276 49.2513 52.8907C49.5957 54.8538 62.3959 57.7927 63.9802 56.4954C65.5644 55.1982 71.1265 44.7112 70.7361 41.1467C70.3458 37.5821 55.1635 35.9061 53.2119 38.9827Z" fill="#EB9481"/>
<path d="M79.4093 36.5203C79.4093 36.5203 84.0013 40.8253 80.7238 46.5366C80.7238 46.5366 64.0376 47.2942 63.0273 47.4837C62.0171 47.6731 43.5113 52.8046 43.5113 52.8046C43.5113 52.8046 40.406 48.6776 42.6331 42.0708C42.6331 42.0708 61.8104 42.5358 62.3672 42.4038C62.924 42.2717 79.4093 36.5203 79.4093 36.5203Z" fill="#EBEBEB"/>
<path d="M43.5056 52.8046C43.5056 52.8046 46.7832 46.5767 42.6274 42.0708C42.6274 42.0708 39.9526 46.9556 43.5056 52.8046Z" fill="#DBDBDB"/>
<path d="M63.0273 47.4837C63.1364 47.6099 63.188 47.4837 63.211 47.3689C63.2347 47.2532 63.2519 47.1363 63.2627 47.0187C63.2627 46.7776 63.2627 46.5366 63.2627 46.2955C63.2601 45.8121 63.2313 45.3292 63.1766 44.849C63.1249 44.3726 63.056 43.8904 62.9642 43.4197C62.9213 43.1856 62.8599 42.9553 62.7805 42.7309C62.7001 42.5358 62.5911 42.2488 62.3385 42.4037C62.3731 42.3429 62.428 42.2962 62.4935 42.2717C62.5705 42.2589 62.6496 42.2731 62.7174 42.3119C62.8394 42.3806 62.9436 42.4769 63.0216 42.5932C63.179 42.8053 63.3047 43.0393 63.3947 43.2877C63.5734 43.7725 63.691 44.2777 63.7448 44.7916C63.8032 45.3037 63.7897 45.8215 63.7047 46.3299C63.6647 46.5864 63.5993 46.8383 63.5095 47.0819C63.4641 47.207 63.4044 47.3264 63.3316 47.4377C63.293 47.503 63.2374 47.5565 63.1708 47.5927C63.1533 47.6053 63.1322 47.6121 63.1106 47.6121C63.0889 47.6121 63.0679 47.6053 63.0503 47.5927C63.0377 47.5576 63.03 47.5209 63.0273 47.4837V47.4837Z" fill="#9C33B0"/>
<path d="M62.769 47.5411C62.8896 47.6616 62.9297 47.5411 62.947 47.4148C62.9559 47.2944 62.9559 47.1735 62.947 47.0532C62.947 46.8121 62.947 46.5653 62.947 46.3242C62.91 45.8389 62.8468 45.3561 62.7575 44.8777C62.6714 44.4013 62.5681 43.9191 62.4476 43.4484C62.3886 43.2141 62.3138 42.9839 62.2237 42.7596C62.1822 42.653 62.1261 42.5526 62.0573 42.4612C62.0406 42.4397 62.0193 42.4223 61.9949 42.4104C61.9706 42.3984 61.9438 42.3922 61.9166 42.3922C61.8895 42.3922 61.8627 42.3984 61.8383 42.4104C61.814 42.4223 61.7926 42.4397 61.776 42.4612C61.7879 42.4272 61.8076 42.3966 61.8335 42.3716C61.8595 42.3467 61.8909 42.3282 61.9252 42.3177C62.0022 42.307 62.0806 42.3211 62.1491 42.3578C62.2696 42.4329 62.3764 42.528 62.4648 42.6391C62.6245 42.8485 62.7594 43.0758 62.8666 43.3164C63.0737 43.7911 63.2259 44.288 63.3201 44.7973C63.4164 45.3099 63.4415 45.8334 63.3947 46.3529C63.3724 46.6134 63.3244 46.871 63.2512 47.122C63.2149 47.2514 63.1649 47.3765 63.1019 47.4951C63.0653 47.5611 63.0143 47.6179 62.9527 47.6616C62.8494 47.6903 62.7805 47.5927 62.769 47.5411Z" fill="#9C33B0"/>
<path d="M62.5681 47.5927C62.5875 47.6167 62.6134 47.6347 62.6428 47.6444C62.6428 47.6444 62.6428 47.6444 62.6428 47.6444C62.6478 47.589 62.6478 47.5333 62.6428 47.4779C62.6428 47.3574 62.5911 47.2426 62.5624 47.122L62.3902 46.4103C62.2754 45.9396 62.1778 45.4574 62.0745 44.981C61.9712 44.5046 61.9023 44.0224 61.8219 43.546C61.7818 43.3049 61.7473 43.0639 61.6957 42.8343C61.6727 42.7207 61.64 42.6093 61.5981 42.5013C61.5579 42.398 61.4775 42.3406 61.3627 42.4439C61.3736 42.409 61.3938 42.3778 61.4211 42.3535C61.4484 42.3292 61.4818 42.3129 61.5177 42.3062C61.5973 42.3127 61.6714 42.3497 61.7244 42.4095C61.8147 42.5061 61.8919 42.6142 61.954 42.7309C62.0713 42.9563 62.1711 43.1904 62.2524 43.4312C62.4133 43.9021 62.5418 44.3835 62.637 44.872C62.7385 45.3584 62.8056 45.8513 62.8379 46.3471C62.8523 46.5976 62.8523 46.8486 62.8379 47.0991C62.8379 47.2254 62.8379 47.3516 62.7977 47.4779C62.7837 47.545 62.7626 47.6105 62.7346 47.6731C62.7261 47.6953 62.7098 47.7137 62.6887 47.7247C62.6783 47.7336 62.665 47.7385 62.6514 47.7385C62.6377 47.7385 62.6245 47.7336 62.6141 47.7247C62.5891 47.6847 62.5734 47.6396 62.5681 47.5927V47.5927Z" fill="#9C33B0"/>
<path d="M70.2368 46.7547C68.5722 47.5812 68.5492 45.1417 68.5492 45.1417C68.5492 45.1417 67.7341 48.6604 65.6792 48.8498C63.6243 49.0392 63.7793 46.0831 63.785 45.8707C63.7391 46.0544 62.9068 49.2745 60.8289 49.2516C58.751 49.2286 59.2504 46.284 59.2906 46.0888C59.193 46.2553 57.8728 48.3848 56.2943 48.0003C53.585 47.3574 56.8166 41.8355 56.1565 39.6773C56.1565 39.6773 53.1717 39.2008 53.0569 39.2008C53.0569 39.2008 55.2267 35.0623 58.1828 34.3333C58.6108 34.2206 59.0644 34.2577 59.4685 34.4383C59.8725 34.6189 60.2027 34.9323 60.4041 35.3263C60.4041 35.3263 61.1905 33.524 62.8149 33.4666C63.6587 33.4666 64.4336 34.781 64.4336 34.781C64.6285 34.3789 64.9302 34.0382 65.3058 33.7962C65.6815 33.5542 66.1165 33.4203 66.5632 33.4092C67.7112 33.4551 68.3253 34.781 68.3253 34.781C68.3253 34.781 69.6111 33.7077 70.7821 34.1382C73.1584 35.0049 73.8185 45.004 70.2368 46.7547Z" fill="#EB9481"/>
<path d="M64.4509 34.7351C64.4509 34.6949 64.5083 34.6835 64.5198 34.7351C65.6604 38.4402 65.4364 42.4313 63.8884 45.9855C63.831 46.1061 63.6588 46.1577 63.7104 45.9855C64.6346 43.5403 64.933 37.9266 64.4509 34.7351Z" fill="#263238"/>
<path d="M59.0897 46.3012C60.5706 42.8113 60.8117 39.2008 60.4616 35.4584C60.4616 35.4124 60.5304 35.4124 60.5419 35.4584C61.1963 37.2435 61.1504 39.6486 60.9552 41.5141C60.8146 43.2517 60.2209 44.9221 59.2332 46.3586C59.1758 46.4103 59.061 46.3758 59.0897 46.3012Z" fill="#263238"/>
<path d="M68.5492 45.1417C68.3312 45.8031 68.0525 46.443 67.7169 47.0532C67.4157 47.6565 66.9602 48.1694 66.3967 48.5398C66.1285 48.697 65.8111 48.7482 65.507 48.6833C65.2019 48.6135 64.9194 48.4674 64.6862 48.2586C64.475 48.0279 64.3147 47.7554 64.2158 47.4587C64.1169 47.162 64.0816 46.8478 64.1122 46.5366L64.1753 45.0097L63.6013 46.4218C63.3485 47.0497 62.9936 47.6316 62.5509 48.1438C62.359 48.3931 62.1166 48.5991 61.8397 48.7484C61.5628 48.8978 61.2575 48.9871 60.9437 49.0105C60.652 49.0291 60.3628 48.9469 60.1245 48.7776C59.8862 48.6083 59.7134 48.3622 59.635 48.0806C59.4684 47.4466 59.4684 46.7803 59.635 46.1462L60.0253 44.3783L59.0782 45.9109C58.8172 46.3324 58.5027 46.7182 58.1426 47.0589C57.8107 47.4002 57.3853 47.6358 56.92 47.7362C56.7059 47.7784 56.4841 47.7587 56.2808 47.6794C56.0775 47.6001 55.901 47.4645 55.772 47.2885C55.5481 46.8594 55.4487 46.3763 55.485 45.8937C55.5561 44.8488 55.7058 43.8107 55.9327 42.7883C56.036 42.2717 56.1336 41.7494 56.2082 41.2213C56.3202 40.6972 56.3202 40.1554 56.2082 39.6313C56.2658 40.1547 56.2249 40.6843 56.0877 41.1926C55.9729 41.7092 55.8351 42.2201 55.6974 42.7309C55.3914 43.7577 55.1819 44.8108 55.0717 45.8765C55.0061 46.4535 55.1077 47.0373 55.3644 47.5583C55.5362 47.8262 55.7826 48.038 56.0733 48.1675C56.364 48.2971 56.6863 48.3387 57.0003 48.2873C57.5799 48.1783 58.1137 47.8984 58.5329 47.4837C58.9419 47.1021 59.3007 46.6701 59.6006 46.1979L59.0266 45.9683C58.8235 46.7202 58.8235 47.5124 59.0266 48.2643C59.1471 48.6759 59.4042 49.0342 59.7555 49.2803C60.1123 49.5059 60.5275 49.6217 60.9495 49.6132C61.3477 49.584 61.7353 49.4707 62.0865 49.2807C62.4378 49.0907 62.7447 48.8284 62.9872 48.5111C63.4751 47.9413 63.8632 47.2931 64.1352 46.594L63.6128 46.4792C63.595 46.8669 63.6623 47.2539 63.81 47.6129C63.9578 47.9719 64.1824 48.2942 64.4681 48.557C64.7693 48.7988 65.1266 48.9607 65.507 49.0277C65.9056 49.0937 66.3146 49.0099 66.655 48.7924C67.249 48.3547 67.7068 47.7576 67.9752 47.0704C68.2347 46.4498 68.4271 45.8032 68.5492 45.1417Z" fill="#263238"/>
<path d="M65.243 54.8768C65.243 54.8768 77.5438 46.4447 71.8899 43.282C70.2138 42.3291 62.1836 40.412 61.7703 42.0421C61.2422 44.12 64.4451 45.5321 66.5976 46.1003C66.5976 46.1003 62.0056 48.3963 62.6428 52.047C62.7757 52.7114 63.0884 53.3267 63.5469 53.8257C64.0054 54.3247 64.5921 54.6882 65.243 54.8768Z" fill="#EB9481"/>
<path d="M72.3434 43.546C71.7303 43.094 71.0531 42.7361 70.3344 42.4841C69.6231 42.2119 68.8944 41.9875 68.1532 41.8125C66.6714 41.4387 65.1599 41.1948 63.6358 41.0836C63.2319 41.0562 62.8262 41.0852 62.4304 41.1697C62.2022 41.2232 61.9873 41.3229 61.799 41.4624C61.7002 41.5437 61.6133 41.6384 61.5407 41.7437C61.4742 41.8525 61.4239 41.9705 61.3914 42.0938C61.2863 42.539 61.3433 43.0071 61.5522 43.414C61.7566 43.7835 62.0225 44.1154 62.3385 44.3955C62.9362 44.9111 63.6176 45.3207 64.3533 45.6067C65.0659 45.9 65.7987 46.1417 66.546 46.3299L66.5 45.8363C65.9856 46.1139 65.4992 46.4407 65.0478 46.8121C64.5952 47.1738 64.1833 47.5838 63.8195 48.0347C63.4508 48.4834 63.1545 48.987 62.9412 49.5271C62.7204 50.0582 62.6073 50.628 62.6083 51.2032C62.68 50.6443 62.8491 50.1023 63.1077 49.6017C63.366 49.1101 63.6905 48.6563 64.072 48.2528C64.4479 47.8454 64.8632 47.4762 65.3119 47.1507C65.7568 46.827 66.2315 46.5464 66.7296 46.3127L67.3438 46.0257L66.6837 45.8191C65.9716 45.6122 65.2736 45.3591 64.5944 45.0614C63.9274 44.7774 63.3094 44.39 62.7633 43.9134C62.5063 43.7208 62.3028 43.4657 62.1722 43.1724C62.0416 42.879 61.9882 42.5571 62.0171 42.2373C62.1089 41.7322 62.9355 41.6633 63.6415 41.6633C64.3475 41.6633 65.1167 41.7666 65.8629 41.8527C66.6091 41.9388 67.3496 42.0421 68.0843 42.1799C69.566 42.4124 71.0028 42.8733 72.3434 43.546Z" fill="#263238"/>
<path d="M64.2155 56.9604C64.2155 56.9604 57.6375 69.5195 58.1713 70.8684C59.0553 73.107 70.122 84.8568 72.8083 88.4845C75.4946 92.1122 77.1707 96.664 66.9306 94.5344C59.6063 93.0018 42.8512 83.1692 40.1994 76.8151C38.3683 72.424 38.8734 54.5783 38.8734 54.5783L64.2155 56.9604Z" fill="#9C33B0"/>
<path d="M40.5553 59.1416C49.9574 59.4688 59.4973 60.7258 61.2193 60.8636C61.2996 60.8636 61.2537 61.0014 61.1733 60.9956C59.5719 60.8579 48.1608 60.2839 40.5093 59.2736C40.4175 59.2736 40.4634 59.1416 40.5553 59.1416Z" fill="#263238"/>
<path d="M77.0961 82.182C73.0781 82.182 67.1659 88.8231 67.4185 90.591C67.7916 93.1167 71.5857 111.64 72.108 116.588C72.6304 121.535 62.35 145.288 62.35 145.288L69.106 143.319L71.6833 149.334C71.6833 149.334 80.7238 128.561 81.4413 119.624C82.1588 110.687 72.2573 88.0023 72.705 86.6419C73.1527 85.2815 75.8792 83.6342 77.2453 83.5825C78.6115 83.5309 81.2633 85.735 82.9165 88.0655C84.5696 90.3959 92.4506 106.967 93.8225 113.017C95.1943 119.067 92.1866 143.686 92.1866 143.686L97.542 139.697L102.983 144.513C102.983 144.513 104.281 120.852 102.352 110.951C101.129 104.637 93.8569 93.329 87.0665 86.9404C83.1805 83.2898 79.5012 82.1762 77.0961 82.182Z" fill="#5A0F68"/>
<path d="M80.3277 90.2467C78.8582 90.6025 75.2363 88.4385 73.5774 86.3377C73.4684 86.1942 73.4282 84.4779 73.279 82.4001C73.1871 81.1373 73.0551 79.7367 72.837 78.4682L81.137 79.0422C80.9509 80.7084 80.9682 82.3911 81.1887 84.0532C81.222 84.2272 81.27 84.3981 81.3322 84.564C81.3322 84.564 81.3322 84.6157 81.3322 84.6502C81.6881 85.626 82.6237 89.6899 80.3277 90.2467Z" fill="#EB9481"/>
<path d="M81.3322 84.5755C81.3339 84.6042 81.3339 84.6329 81.3322 84.6616C81.0653 84.7426 80.7929 84.804 80.5171 84.8453C75.9711 85.5054 73.9276 80.1729 73.411 78.5313L81.1084 79.0766C80.9222 80.7429 80.9396 82.4256 81.16 84.0876C81.2046 84.2545 81.2622 84.4176 81.3322 84.5755Z" fill="#263238"/>
<path d="M78.5024 62.3503C78.5024 62.3503 81.5274 62.8439 82.6926 65.5302C83.8578 68.2165 83.9095 71.3046 83.6971 71.5055C83.4847 71.7064 78.5024 62.3503 78.5024 62.3503Z" fill="#263238"/>
<path d="M69.1576 68.9283C69.0371 71.9188 72.6016 79.5473 75.0469 80.8101C78.5827 82.6526 83.324 81.6711 84.6269 77.6588C85.8725 73.7671 81.0624 63.946 78.4105 62.8726C74.559 61.3285 69.3356 64.52 69.1576 68.9283Z" fill="#EB9481"/>
<path d="M75.8505 70.5585C76.0514 70.4035 76.2121 70.2255 76.4245 70.0476C76.643 69.8948 76.8061 69.6752 76.8894 69.4219C76.8985 69.3371 76.8799 69.2516 76.8365 69.1782C76.7931 69.1047 76.7271 69.0473 76.6484 69.0144C76.4813 68.9756 76.307 68.9822 76.1434 69.0337C75.9799 69.0852 75.8331 69.1796 75.7185 69.3071C75.446 69.5262 75.2657 69.8397 75.2134 70.1854C75.2085 70.2618 75.225 70.338 75.2609 70.4056C75.2969 70.4732 75.3509 70.5295 75.417 70.5682C75.483 70.6069 75.5586 70.6265 75.6351 70.6248C75.7117 70.623 75.7862 70.6001 75.8505 70.5585Z" fill="#263238"/>
<path d="M80.9763 68.3428C80.732 68.3955 80.4847 68.4338 80.2359 68.4576C79.9796 68.5345 79.7051 68.5244 79.4552 68.4289C79.3815 68.385 79.3249 68.3173 79.2947 68.237C79.2645 68.1568 79.2624 68.0686 79.2888 67.9869C79.362 67.8327 79.4751 67.7009 79.6164 67.605C79.7577 67.5091 79.922 67.4527 80.0924 67.4416C80.4348 67.3674 80.7927 67.4226 81.0969 67.5966C81.164 67.6403 81.217 67.7025 81.2494 67.7757C81.2818 67.8489 81.2923 67.9299 81.2795 68.009C81.2667 68.088 81.2313 68.1616 81.1775 68.2209C81.1237 68.2802 81.0538 68.3225 80.9763 68.3428Z" fill="#263238"/>
<path d="M78.8181 76.4534C78.9896 76.559 79.1932 76.5997 79.3921 76.5682C79.5829 76.4803 79.753 76.3531 79.8915 76.1951C79.8915 76.1951 79.9316 76.1951 79.9259 76.1951C79.8966 76.3308 79.8309 76.456 79.7359 76.5571C79.6408 76.6582 79.52 76.7315 79.3863 76.7691C79.2682 76.7919 79.146 76.777 79.0368 76.7265C78.9276 76.6761 78.8371 76.5926 78.7779 76.4879C78.7778 76.4828 78.7789 76.4778 78.7809 76.4732C78.783 76.4686 78.7861 76.4645 78.7899 76.4612C78.7938 76.458 78.7983 76.4555 78.8031 76.4542C78.808 76.4528 78.8131 76.4526 78.8181 76.4534Z" fill="#263238"/>
<path d="M80.5458 74.5937C80.4457 74.9747 80.2479 75.3229 79.9718 75.6039C79.8163 75.7588 79.615 75.8594 79.3978 75.8909C78.9329 75.9598 78.7607 75.581 78.6975 75.2193C78.6635 75.03 78.6538 74.8371 78.6688 74.6453C79.2835 74.8326 79.9424 74.8144 80.5458 74.5937Z" fill="#263238"/>
<path d="M79.9833 75.6039C79.8278 75.7588 79.6265 75.8594 79.4093 75.8909C78.9444 75.9598 78.7722 75.581 78.709 75.2193C78.9336 75.1297 79.1819 75.1189 79.4134 75.1888C79.6449 75.2586 79.8458 75.405 79.9833 75.6039Z" fill="#FF9BBC"/>
<path d="M76.4704 71.827C76.4445 71.6749 76.4584 71.5187 76.5106 71.3735C76.5436 71.2967 76.5916 71.2272 76.6517 71.1691C76.7118 71.1109 76.7829 71.0653 76.8607 71.0349C76.9429 71.0085 77.03 71.001 77.1154 71.0129C77.2009 71.0249 77.2826 71.0559 77.3544 71.1038C77.4759 71.1935 77.5759 71.3092 77.6471 71.4424C77.6874 71.5221 77.722 71.6046 77.7504 71.6892C77.8186 71.8624 77.8423 72.0499 77.8193 72.2345C77.7832 72.1043 77.7311 71.979 77.6643 71.8614C77.6094 71.7538 77.5441 71.652 77.4692 71.5572C77.3199 71.3563 77.1248 71.2186 76.9526 71.2932C76.7804 71.3678 76.6771 71.5572 76.6828 71.8098C76.6974 72.0672 76.7358 72.3228 76.7976 72.5732C76.6326 72.3529 76.5207 72.0976 76.4704 71.827Z" fill="#263238"/>
<path d="M81.5044 69.508C81.4175 69.3822 81.2958 69.2845 81.1542 69.2268C81.0774 69.1928 80.9943 69.1752 80.9103 69.1752C80.8263 69.1752 80.7432 69.1928 80.6663 69.2268C80.5906 69.2675 80.5249 69.3248 80.4742 69.3943C80.4236 69.4639 80.3892 69.5439 80.3736 69.6286C80.3574 69.779 80.371 69.9312 80.4138 70.0763C80.4138 70.1624 80.4827 70.2428 80.5171 70.3231C80.5993 70.4899 80.7192 70.6354 80.8672 70.7479C80.7996 70.6321 80.7456 70.5088 80.7065 70.3805C80.6671 70.2648 80.6382 70.1456 80.6204 70.0246C80.5803 69.7836 80.6204 69.5425 80.7926 69.4506C80.8923 69.4082 81.0035 69.4009 81.1079 69.4301C81.2122 69.4594 81.3035 69.5233 81.3666 69.6114C81.5415 69.8016 81.6991 70.0072 81.8373 70.2255C81.7835 69.9638 81.6695 69.7181 81.5044 69.508Z" fill="#263238"/>
<path d="M71.7521 75.6383C72.7452 75.4948 72.4983 72.4125 72.3261 71.276C72.1539 70.2772 71.1093 67.3441 71.0576 67.1317C71.0059 66.9193 76.0112 67.809 77.8939 66.1329C79.7767 64.4568 80.299 61.7992 79.8915 60.8693C79.4839 59.9395 75.6439 58.912 73.2445 59.928C70.8452 60.944 69.0888 65.4212 69.0888 65.4212C69.2646 64.8026 69.3913 64.1712 69.4676 63.5327C69.3815 63.4409 68.1532 64.7725 68.3885 65.9837C68.3885 65.9837 68.0441 64.4855 67.9178 64.5142C67.7915 64.5429 67.1659 66.2362 67.8489 67.0169C67.8489 67.0169 67.0511 68.8479 67.539 70.2026C68.0269 71.5572 70.5869 75.8105 71.7521 75.6383Z" fill="#263238"/>
<path d="M79.2026 64.9333C78.7201 65.592 78.1394 66.1728 77.4806 66.6553C76.715 67.1014 75.8519 67.3537 74.9665 67.39C74.0772 67.4538 73.1835 67.3723 72.3204 67.1489C71.5627 66.9595 70.8165 66.6495 70.0244 66.529C69.835 66.5003 69.7661 66.7873 69.9153 66.8791C71.5423 67.7861 73.4177 68.1463 75.265 67.9066C76.1232 67.7964 76.9381 67.4649 77.6294 66.9447C78.3208 66.4244 78.8649 65.7332 79.2084 64.939L79.2026 64.9333Z" fill="#263238"/>
<path d="M72.5845 75.0012C72.5845 75.0012 70.0474 72.9406 69.0658 73.9164C68.0843 74.8922 70.4894 78.2386 72.0105 78.3591C72.2037 78.3881 72.4008 78.3776 72.5899 78.3283C72.7789 78.279 72.956 78.1919 73.1105 78.0723C73.265 77.9527 73.3937 77.803 73.4887 77.6323C73.5838 77.4616 73.6433 77.2734 73.6636 77.0791L72.5845 75.0012Z" fill="#EB9481"/>
<path d="M69.8005 74.852C69.8005 74.852 69.8005 74.8864 69.8005 74.8922C70.8739 75.007 71.6316 75.7531 72.2515 76.5797C72.1681 76.4988 72.0682 76.437 71.9585 76.3985C71.8489 76.3599 71.7323 76.3456 71.6166 76.3566C71.5009 76.3675 71.389 76.4033 71.2885 76.4617C71.1881 76.52 71.1014 76.5995 71.0346 76.6945C71.0346 76.6945 71.0346 76.7519 71.0806 76.7404C71.2308 76.6342 71.4103 76.5771 71.5943 76.5771C71.7783 76.5771 71.9578 76.6342 72.108 76.7404C72.3523 76.9302 72.5773 77.1436 72.7796 77.3776C72.8485 77.4522 72.9862 77.3776 72.9288 77.2685C72.573 76.0516 71.1322 74.6051 69.8005 74.852Z" fill="#263238"/>
<path d="M81.4011 84.4206L79.6274 89.3857L73.3134 83.4333L71.6718 85.4882C71.6718 85.4882 77.9858 95.0912 78.0145 94.6435L79.8685 90.35L82.8935 93.1741L82.3711 85.8154L81.4011 84.4206Z" fill="#EBEBEB"/>
<path d="M82.8361 89.5234C82.7098 88.3065 82.618 87.0839 82.4343 85.8785C82.4343 85.8383 82.3597 85.8211 82.3482 85.8785C82.153 87.061 82.6582 91.6931 82.6983 92.8067C82.5721 92.6804 79.8972 90.327 79.8743 90.3672C79.4667 91.056 78.1006 94.1843 78.0145 94.4656C77.01 92.9387 73.1872 87.3996 72.0162 85.9646C72.0101 85.9555 72.0006 85.9491 71.9899 85.947C71.9791 85.9448 71.9679 85.947 71.9588 85.9531C71.9497 85.9592 71.9433 85.9687 71.9412 85.9795C71.939 85.9902 71.9412 86.0014 71.9473 86.0105C72.8428 87.6292 77.9054 95.0912 77.9801 95.0683C78.7037 93.5896 79.3494 92.0741 79.9144 90.5279C80.3736 91.0445 83.0772 93.7136 83.0829 93.5357C83.0703 92.1949 82.9879 90.8556 82.8361 89.5234Z" fill="#263238"/>
<path d="M84.2022 23.898C83.7912 23.884 83.387 23.789 83.0127 23.6186C82.6385 23.4482 82.3015 23.2057 82.021 22.905C81.6173 22.5284 81.3042 22.0652 81.1054 21.5502C80.9065 21.0352 80.8271 20.4818 80.873 19.9316L81.2978 20.0063C81.2604 20.4909 81.3334 20.9778 81.5114 21.4302C81.6894 21.8825 81.9676 22.2887 82.3252 22.618C82.6021 22.9243 82.9481 23.1602 83.3344 23.306C83.7208 23.4517 84.1364 23.5032 84.5466 23.456C85.4076 23.3068 86.1883 22.5032 87.0148 21.6594C88.0078 20.6434 89.0353 19.5872 90.4301 19.3634C93.1164 18.8812 96.658 22.4917 96.8073 22.6467L96.4973 22.9451C96.4629 22.9107 92.9672 19.3347 90.5047 19.7881C89.2477 20.012 88.2719 21.0108 87.3248 21.9808C86.3777 22.9509 85.6028 23.7028 84.6212 23.9037C84.4816 23.9132 84.3415 23.9113 84.2022 23.898Z" fill="#263238"/>
<path d="M81.2805 20.2703L81.0969 19.88C81.4862 19.675 81.8208 19.3798 82.0727 19.019C82.4359 18.2887 82.7115 17.518 82.8935 16.723L83.3125 16.8263C83.1164 17.6627 82.8195 18.4722 82.4286 19.2371C82.1398 19.6733 81.7447 20.0289 81.2805 20.2703V20.2703Z" fill="#9C33B0"/>
<path d="M80.7812 20.0809C80.4843 19.6698 80.2341 19.227 80.035 18.7607C79.8111 18.1867 80.1727 16.3384 80.2129 16.1318L80.6377 16.2179C80.4453 17.0002 80.3775 17.808 80.4368 18.6114C80.6262 19.0415 80.8589 19.4512 81.1313 19.8341L80.7812 20.0809Z" fill="#9C33B0"/>
<path d="M81.2805 20.1498L80.9132 19.9202C81.2753 19.3759 81.5866 18.7995 81.8431 18.1982L82.4171 15.9825L82.8361 16.0858C82.8361 16.0858 82.3998 17.8078 82.2621 18.3072C81.9943 18.9512 81.6656 19.5682 81.2805 20.1498V20.1498Z" fill="#9C33B0"/>
<path d="M80.7869 20.0235C80.7194 19.229 80.7194 18.4302 80.7869 17.6356C80.9017 17.2109 81.0624 15.9136 81.0624 15.8792L81.4929 15.9309C81.4929 15.9825 81.3264 17.2912 81.2059 17.7447C81.1413 18.4914 81.1413 19.2423 81.2059 19.989L80.7869 20.0235Z" fill="#9C33B0"/>
<path d="M106.41 24.8566L120.709 15.994L103.27 14.7255L89.9996 25.4478L106.41 24.8566Z" fill="#9C33B0"/>
<path opacity="0.1" d="M106.41 24.8566L120.709 15.994L103.27 14.7255L89.9996 25.4478L106.41 24.8566Z" fill="black"/>
<path d="M114.837 23.766L113.924 18.9214C113.924 18.9214 108.494 18.2096 104.809 19.3519C101.124 20.4942 97.1861 23.7143 97.1861 23.7143L99.0746 28.6622C99.0746 28.6622 104.103 25.9701 107.111 25.1091C109.651 24.4814 112.233 24.0326 114.837 23.766V23.766Z" fill="#9C33B0"/>
</svg>
