<svg width="265" height="261" viewBox="0 0 265 261" fill="none" xmlns="http://www.w3.org/2000/svg">
<path d="M252.287 56.7308H197.424C197.424 56.7308 202.865 41.8757 211.234 41.8757C219.603 41.8757 222.232 52.1273 222.232 52.1273C222.232 52.1273 227.88 46.5538 232.518 46.5538C237.156 46.5538 241.191 53.9182 241.191 53.9182C241.191 53.9182 247.741 49.9576 252.287 56.7308Z" fill="#EBEBEB"/>
<path d="M191.758 37.542H166.118C166.118 37.542 171.858 29.2419 176.364 29.2419C180.87 29.2419 182.207 34.7753 182.207 34.7753C182.207 34.7753 185.393 32.1923 188.343 32.6572C191.293 33.1222 191.758 37.542 191.758 37.542Z" fill="#EBEBEB"/>
<path d="M66.977 78.8011H17.0391C17.0391 78.8011 23.8811 63.5326 31.1939 62.5797C38.5066 61.6269 42.0081 73.922 42.0081 73.922C42.0081 73.922 46.7263 69.5768 50.4401 69.5768C54.1539 69.5768 57.0124 75.3169 57.0124 75.3169C57.0124 75.3169 64.4342 71.408 66.977 78.8011Z" fill="#EBEBEB"/>
<path d="M105.033 25.2297H71.3047C71.3047 25.2297 77.0964 14.163 83.3587 14.0022C89.6211 13.8415 92.9503 22.3769 92.9503 22.3769C92.9503 22.3769 102.754 14.5303 105.033 25.2297Z" fill="#EBEBEB"/>
<path d="M137.578 91.5782H114.808C114.808 91.5782 118.723 84.1162 122.964 84.0014C127.206 83.8866 129.439 89.6496 129.439 89.6496C129.439 89.6496 136.04 84.3573 137.578 91.5782Z" fill="#EBEBEB"/>
<path d="M165.033 113.224H104.315V181.094H165.033V113.224Z" fill="#DBDBDB"/>
<path d="M166.433 109.108H102.915V113.23H166.433V109.108Z" fill="#EBEBEB"/>
<path d="M149.541 153.381H119.819V157.502H149.541V153.381Z" fill="#EBEBEB"/>
<path d="M122.235 123.057H111.926V139.037H122.235V123.057Z" fill="#C7C7C7"/>
<path d="M121.174 124.227H112.988V137.871H121.174V124.227Z" fill="white"/>
<path d="M123.716 139.042H110.451V141.338H123.716V139.042Z" fill="#EBEBEB"/>
<g opacity="0.5">
<path opacity="0.5" d="M121.174 124.233V125.915L112.988 134.106V130.989L119.75 124.233H121.174Z" fill="#EBEBEB"/>
<path opacity="0.5" d="M121.174 134.341V135.903L119.205 137.871H117.649L121.174 134.341Z" fill="#EBEBEB"/>
<path opacity="0.5" d="M115.743 124.233L112.988 126.988V125.433L114.182 124.233H115.743Z" fill="#EBEBEB"/>
<path opacity="0.5" d="M121.174 131.902V132.401L115.703 137.871H115.204L121.174 131.902Z" fill="#EBEBEB"/>
</g>
<path d="M122.235 132.252H111.926V133.423H122.235V132.252Z" fill="#C7C7C7"/>
<path d="M139.829 123.057H129.52V139.037H139.829V123.057Z" fill="#C7C7C7"/>
<path d="M138.767 124.227H130.581V137.871H138.767V124.227Z" fill="white"/>
<path d="M141.309 139.042H128.044V141.338H141.309V139.042Z" fill="#EBEBEB"/>
<g opacity="0.5">
<path opacity="0.5" d="M138.772 124.233V125.915L130.581 134.106V130.989L137.343 124.233H138.772Z" fill="#EBEBEB"/>
<path opacity="0.5" d="M138.772 134.341V135.903L136.798 137.871H135.242L138.772 134.341Z" fill="#EBEBEB"/>
<path opacity="0.5" d="M133.337 124.233L130.581 126.988V125.433L131.775 124.233H133.337Z" fill="#EBEBEB"/>
<path opacity="0.5" d="M138.772 131.902V132.401L133.302 137.871H132.797L138.772 131.902Z" fill="#EBEBEB"/>
</g>
<path d="M139.829 132.252H129.52V133.423H139.829V132.252Z" fill="#C7C7C7"/>
<path d="M157.422 123.057H147.113V139.037H157.422V123.057Z" fill="#C7C7C7"/>
<path d="M156.365 124.227H148.18V137.871H156.365V124.227Z" fill="white"/>
<path d="M158.903 139.042H145.637V141.338H158.903V139.042Z" fill="#EBEBEB"/>
<g opacity="0.5">
<path opacity="0.5" d="M156.365 124.233V125.915L148.174 134.106V130.989L154.936 124.233H156.365Z" fill="#EBEBEB"/>
<path opacity="0.5" d="M156.365 134.341V135.903L154.397 137.871H152.835L156.365 134.341Z" fill="#EBEBEB"/>
<path opacity="0.5" d="M150.935 124.233L148.174 126.988V125.433L149.374 124.233H150.935Z" fill="#EBEBEB"/>
<path opacity="0.5" d="M156.365 131.902V132.401L150.895 137.871H150.396L156.365 131.902Z" fill="#EBEBEB"/>
</g>
<path d="M157.422 132.252H147.113V133.423H157.422V132.252Z" fill="#C7C7C7"/>
<path d="M147.302 157.502H122.052V181.094H147.302V157.502Z" fill="#C7C7C7"/>
<path d="M145.603 159.247H123.751V181.099H145.603V159.247Z" fill="white"/>
<g opacity="0.5">
<path opacity="0.5" d="M145.603 168.362V172.426L136.93 181.094H132.872L145.603 168.362Z" fill="#EBEBEB"/>
<path opacity="0.5" d="M129.456 159.247L123.751 164.953V160.889L125.398 159.247H129.456Z" fill="#EBEBEB"/>
<path opacity="0.5" d="M141.648 159.247L123.751 177.145V175.118L139.622 159.247H141.648Z" fill="#EBEBEB"/>
<path opacity="0.5" d="M145.603 174.527V176.559L141.063 181.094H139.036L145.603 174.527Z" fill="#EBEBEB"/>
<path opacity="0.5" d="M145.603 161.273V161.647L126.156 181.094H125.777L145.603 161.273Z" fill="#EBEBEB"/>
<path opacity="0.5" d="M131.821 159.247L123.751 167.312V166.939L131.442 159.247H131.821Z" fill="#EBEBEB"/>
<path opacity="0.5" d="M138.703 159.247L123.751 174.194V173.815L138.325 159.247H138.703Z" fill="#EBEBEB"/>
</g>
<path d="M135.38 159.247H133.974V181.099H135.38V159.247Z" fill="#C7C7C7"/>
<path d="M104.315 126.897H52.8506V181.094H104.315V126.897Z" fill="#DBDBDB"/>
<path d="M99.7119 126.897H104.315V181.094H102.277L99.7119 126.897Z" fill="#C7C7C7"/>
<path d="M67.711 134.341H58.6934V148.312H67.711V134.341Z" fill="#C7C7C7"/>
<path d="M66.7808 135.369H59.623V147.297H66.7808V135.369Z" fill="white"/>
<path d="M68.9971 148.318H57.4023V150.327H68.9971V148.318Z" fill="#EBEBEB"/>
<g opacity="0.5">
<path opacity="0.5" d="M66.7808 135.369V136.844L59.623 144.002V141.281L65.5295 135.369H66.7808Z" fill="#EBEBEB"/>
<path opacity="0.5" d="M66.7815 144.208V145.569L65.0595 147.297H63.6934L66.7815 144.208Z" fill="#EBEBEB"/>
<path opacity="0.5" d="M62.0338 135.369L59.623 137.78V136.413L60.6677 135.369H62.0338Z" fill="#EBEBEB"/>
<path opacity="0.5" d="M66.781 142.073V142.515L61.9996 147.297H61.5576L66.781 142.073Z" fill="#EBEBEB"/>
</g>
<path d="M67.711 142.383H58.6934V143.405H67.711V142.383Z" fill="#C7C7C7"/>
<path d="M83.0947 134.341H74.0771V148.312H83.0947V134.341Z" fill="#C7C7C7"/>
<path d="M82.1646 135.369H75.0068V147.297H82.1646V135.369Z" fill="white"/>
<path d="M84.38 148.318H72.7852V150.327H84.38V148.318Z" fill="#EBEBEB"/>
<g opacity="0.5">
<path opacity="0.5" d="M82.1645 135.369V136.844L75.001 144.002V141.281L80.9132 135.369H82.1645Z" fill="#EBEBEB"/>
<path opacity="0.5" d="M82.1643 144.208V145.569L80.4366 147.297H79.0762L82.1643 144.208Z" fill="#EBEBEB"/>
<path opacity="0.5" d="M77.4118 135.369L75.001 137.78V136.413L76.0514 135.369H77.4118Z" fill="#EBEBEB"/>
<path opacity="0.5" d="M82.1638 142.073V142.515L77.3824 147.297H76.9404L82.1638 142.073Z" fill="#EBEBEB"/>
</g>
<path d="M83.0947 142.383H74.0771V143.405H83.0947V142.383Z" fill="#C7C7C7"/>
<path d="M98.4776 134.341H89.46V148.312H98.4776V134.341Z" fill="#C7C7C7"/>
<path d="M97.5474 135.369H90.3896V147.297H97.5474V135.369Z" fill="white"/>
<path d="M99.7637 148.318H88.1689V150.327H99.7637V148.318Z" fill="#EBEBEB"/>
<g opacity="0.5">
<path opacity="0.5" d="M97.5474 135.369V136.844L90.3896 144.002V141.281L96.2962 135.369H97.5474Z" fill="#EBEBEB"/>
<path opacity="0.5" d="M97.5481 144.208V145.569L95.8261 147.297H94.46L97.5481 144.208Z" fill="#EBEBEB"/>
<path opacity="0.5" d="M92.7947 135.369L90.3896 137.78V136.413L91.4343 135.369H92.7947Z" fill="#EBEBEB"/>
<path opacity="0.5" d="M97.5476 142.073V142.515L92.7662 147.297H92.3242L97.5476 142.073Z" fill="#EBEBEB"/>
</g>
<path d="M98.4776 142.383H89.46V143.405H98.4776V142.383Z" fill="#C7C7C7"/>
<path d="M67.711 155.442H58.6934V169.413H67.711V155.442Z" fill="#C7C7C7"/>
<path d="M66.7808 156.469H59.623V168.397H66.7808V156.469Z" fill="white"/>
<path d="M68.9971 169.418H57.4023V171.428H68.9971V169.418Z" fill="#EBEBEB"/>
<g opacity="0.5">
<path opacity="0.5" d="M66.7808 156.469V157.944L59.623 165.102V162.381L65.5295 156.469H66.7808Z" fill="#EBEBEB"/>
<path opacity="0.5" d="M66.7815 165.309V166.669L65.0595 168.397H63.6934L66.7815 165.309Z" fill="#EBEBEB"/>
<path opacity="0.5" d="M62.0338 156.469L59.623 158.88V157.514L60.6677 156.469H62.0338Z" fill="#EBEBEB"/>
<path opacity="0.5" d="M66.781 163.173V163.61L61.9996 168.397H61.5576L66.781 163.173Z" fill="#EBEBEB"/>
</g>
<path d="M67.711 163.483H58.6934V164.505H67.711V163.483Z" fill="#C7C7C7"/>
<path d="M83.0947 155.442H74.0771V169.413H83.0947V155.442Z" fill="#C7C7C7"/>
<path d="M82.1646 156.469H75.0068V168.397H82.1646V156.469Z" fill="white"/>
<path d="M84.38 169.418H72.7852V171.428H84.38V169.418Z" fill="#EBEBEB"/>
<g opacity="0.5">
<path opacity="0.5" d="M82.1645 156.469V157.944L75.001 165.102V162.381L80.9132 156.469H82.1645Z" fill="#EBEBEB"/>
<path opacity="0.5" d="M82.1643 165.309V166.669L80.4366 168.397H79.0762L82.1643 165.309Z" fill="#EBEBEB"/>
<path opacity="0.5" d="M77.4118 156.469L75.001 158.88V157.514L76.0514 156.469H77.4118Z" fill="#EBEBEB"/>
<path opacity="0.5" d="M82.1638 163.173V163.61L77.3824 168.397H76.9404L82.1638 163.173Z" fill="#EBEBEB"/>
</g>
<path d="M83.0947 163.483H74.0771V164.505H83.0947V163.483Z" fill="#C7C7C7"/>
<path d="M98.4776 155.442H89.46V169.413H98.4776V155.442Z" fill="#C7C7C7"/>
<path d="M97.5474 156.469H90.3896V168.397H97.5474V156.469Z" fill="white"/>
<path d="M99.7637 169.418H88.1689V171.428H99.7637V169.418Z" fill="#EBEBEB"/>
<g opacity="0.5">
<path opacity="0.5" d="M97.5474 156.469V157.944L90.3896 165.102V162.381L96.2962 156.469H97.5474Z" fill="#EBEBEB"/>
<path opacity="0.5" d="M97.5481 165.309V166.669L95.8261 168.397H94.46L97.5481 165.309Z" fill="#EBEBEB"/>
<path opacity="0.5" d="M92.7947 156.469L90.3896 158.88V157.514L91.4343 156.469H92.7947Z" fill="#EBEBEB"/>
<path opacity="0.5" d="M97.5476 163.173V163.61L92.7662 168.397H92.3242L97.5476 163.173Z" fill="#EBEBEB"/>
</g>
<path d="M98.4776 163.483H89.46V164.505H98.4776V163.483Z" fill="#C7C7C7"/>
<path d="M104.315 122.775H51.0938V126.897H104.315V122.775Z" fill="#EBEBEB"/>
<path d="M165.01 181.094H216.475V126.897H165.01V181.094Z" fill="#DBDBDB"/>
<path d="M169.613 126.897H165.01V181.094H167.048L169.613 126.897Z" fill="#C7C7C7"/>
<path d="M201.62 148.318H210.637V134.347H201.62V148.318Z" fill="#C7C7C7"/>
<path d="M202.549 147.291H209.707V135.363H202.549V147.291Z" fill="white"/>
<path d="M200.328 150.327H211.923V148.318H200.328V150.327Z" fill="#EBEBEB"/>
<g opacity="0.5">
<path opacity="0.5" d="M202.544 135.369V136.844L209.707 144.002V141.281L203.795 135.369H202.544Z" fill="#EBEBEB"/>
<path opacity="0.5" d="M202.544 144.208V145.569L204.266 147.297H205.632L202.544 144.208Z" fill="#EBEBEB"/>
<path opacity="0.5" d="M207.296 135.369L209.707 137.78V136.413L208.657 135.369H207.296Z" fill="#EBEBEB"/>
<path opacity="0.5" d="M202.544 142.073V142.515L207.325 147.297H207.767L202.544 142.073Z" fill="#EBEBEB"/>
</g>
<path d="M201.62 143.405H210.637V142.383H201.62V143.405Z" fill="#C7C7C7"/>
<path d="M186.236 148.318H195.254V134.347H186.236V148.318Z" fill="#C7C7C7"/>
<path d="M187.166 147.291H194.324V135.363H187.166V147.291Z" fill="white"/>
<path d="M184.945 150.327H196.54V148.318H184.945V150.327Z" fill="#EBEBEB"/>
<g opacity="0.5">
<path opacity="0.5" d="M187.161 135.369V136.844L194.324 144.002V141.281L188.412 135.369H187.161Z" fill="#EBEBEB"/>
<path opacity="0.5" d="M187.161 144.208V145.569L188.883 147.297H190.249L187.161 144.208Z" fill="#EBEBEB"/>
<path opacity="0.5" d="M191.913 135.369L194.324 137.78V136.413L193.274 135.369H191.913Z" fill="#EBEBEB"/>
<path opacity="0.5" d="M187.161 142.073V142.515L191.942 147.297H192.384L187.161 142.073Z" fill="#EBEBEB"/>
</g>
<path d="M186.236 143.405H195.254V142.383H186.236V143.405Z" fill="#C7C7C7"/>
<path d="M170.847 148.318H179.865V134.347H170.847V148.318Z" fill="#C7C7C7"/>
<path d="M171.783 147.291H178.941V135.363H171.783V147.291Z" fill="white"/>
<path d="M169.562 150.327H181.157V148.318H169.562V150.327Z" fill="#EBEBEB"/>
<g opacity="0.5">
<path opacity="0.5" d="M171.777 135.369V136.844L178.935 144.002V141.281L173.029 135.369H171.777Z" fill="#EBEBEB"/>
<path opacity="0.5" d="M171.777 144.208V145.569L173.505 147.297H174.866L171.777 144.208Z" fill="#EBEBEB"/>
<path opacity="0.5" d="M176.53 135.369L178.935 137.78V136.413L177.89 135.369H176.53Z" fill="#EBEBEB"/>
<path opacity="0.5" d="M171.777 142.073V142.515L176.559 147.297H177.001L171.777 142.073Z" fill="#EBEBEB"/>
</g>
<path d="M170.847 143.405H179.865V142.383H170.847V143.405Z" fill="#C7C7C7"/>
<path d="M201.62 169.418H210.637V155.447H201.62V169.418Z" fill="#C7C7C7"/>
<path d="M202.549 168.391H209.707V156.463H202.549V168.391Z" fill="white"/>
<path d="M200.328 171.428H211.923V169.418H200.328V171.428Z" fill="#EBEBEB"/>
<g opacity="0.5">
<path opacity="0.5" d="M202.544 156.469V157.944L209.707 165.102V162.381L203.795 156.469H202.544Z" fill="#EBEBEB"/>
<path opacity="0.5" d="M202.544 165.309V166.669L204.266 168.397H205.632L202.544 165.309Z" fill="#EBEBEB"/>
<path opacity="0.5" d="M207.296 156.469L209.707 158.88V157.514L208.657 156.469H207.296Z" fill="#EBEBEB"/>
<path opacity="0.5" d="M202.544 163.173V163.61L207.325 168.397H207.767L202.544 163.173Z" fill="#EBEBEB"/>
</g>
<path d="M201.62 164.505H210.637V163.483H201.62V164.505Z" fill="#C7C7C7"/>
<path d="M186.236 169.418H195.254V155.447H186.236V169.418Z" fill="#C7C7C7"/>
<path d="M187.166 168.391H194.324V156.463H187.166V168.391Z" fill="white"/>
<path d="M184.945 171.428H196.54V169.418H184.945V171.428Z" fill="#EBEBEB"/>
<g opacity="0.5">
<path opacity="0.5" d="M187.161 156.469V157.944L194.324 165.102V162.381L188.412 156.469H187.161Z" fill="#EBEBEB"/>
<path opacity="0.5" d="M187.161 165.309V166.669L188.883 168.397H190.249L187.161 165.309Z" fill="#EBEBEB"/>
<path opacity="0.5" d="M191.913 156.469L194.324 158.88V157.514L193.274 156.469H191.913Z" fill="#EBEBEB"/>
<path opacity="0.5" d="M187.161 163.173V163.61L191.942 168.397H192.384L187.161 163.173Z" fill="#EBEBEB"/>
</g>
<path d="M186.236 164.505H195.254V163.483H186.236V164.505Z" fill="#C7C7C7"/>
<path d="M170.847 169.418H179.865V155.447H170.847V169.418Z" fill="#C7C7C7"/>
<path d="M171.783 168.391H178.941V156.463H171.783V168.391Z" fill="white"/>
<path d="M169.562 171.428H181.157V169.418H169.562V171.428Z" fill="#EBEBEB"/>
<g opacity="0.5">
<path opacity="0.5" d="M171.777 156.469V157.944L178.935 165.102V162.381L173.029 156.469H171.777Z" fill="#EBEBEB"/>
<path opacity="0.5" d="M171.777 165.309V166.669L173.505 168.397H174.866L171.777 165.309Z" fill="#EBEBEB"/>
<path opacity="0.5" d="M176.53 156.469L178.935 158.88V157.514L177.89 156.469H176.53Z" fill="#EBEBEB"/>
<path opacity="0.5" d="M171.777 163.173V163.61L176.559 168.397H177.001L171.777 163.173Z" fill="#EBEBEB"/>
</g>
<path d="M170.847 164.505H179.865V163.483H170.847V164.505Z" fill="#C7C7C7"/>
<path d="M165.004 126.897H218.225V122.775H165.004V126.897Z" fill="#EBEBEB"/>
<path d="M155.573 104.229V109.103H113.78V104.229H121.179C121.179 104.229 124.79 98.6787 134.674 98.6787C144.558 98.6787 148.18 104.229 148.18 104.229H155.573Z" fill="#DBDBDB"/>
<path d="M134.663 258.664C194.27 258.664 242.592 254.347 242.592 249.021C242.592 243.695 194.27 239.378 134.663 239.378C75.055 239.378 26.7334 243.695 26.7334 249.021C26.7334 254.347 75.055 258.664 134.663 258.664Z" fill="#EBEBEB"/>
<path d="M11 185.41L41.9156 185.272L72.8313 185.221L134.663 185.123L196.494 185.221L227.409 185.272L258.325 185.41L227.409 185.548L196.494 185.6L134.663 185.697L72.8313 185.6L41.9156 185.548L11 185.41Z" fill="#4F3B64"/>
<path d="M254.416 181.105H14.9033V185.278H254.416V181.105Z" fill="#C7C7C7"/>
<path d="M31.6982 181.105C32.0732 182.471 32.0732 183.912 31.6982 185.278C31.4959 184.601 31.3991 183.896 31.4112 183.189C31.4021 182.484 31.4989 181.781 31.6982 181.105Z" fill="#4F3B64"/>
<path d="M50.416 181.105C50.6153 181.781 50.7121 182.484 50.703 183.189C50.7151 183.896 50.6183 184.601 50.416 185.278C50.041 183.912 50.041 182.471 50.416 181.105Z" fill="#4F3B64"/>
<path d="M69.1406 181.105C69.5155 182.471 69.5155 183.912 69.1406 185.278C68.9382 184.601 68.8414 183.896 68.8536 183.189C68.8445 182.484 68.9412 181.781 69.1406 181.105Z" fill="#4F3B64"/>
<path d="M87.8583 181.105C88.0576 181.781 88.1544 182.484 88.1453 183.189C88.1575 183.896 88.0607 184.601 87.8583 185.278C87.4834 183.912 87.4834 182.471 87.8583 181.105Z" fill="#4F3B64"/>
<path d="M106.582 181.105C106.957 182.471 106.957 183.912 106.582 185.278C106.38 184.601 106.283 183.896 106.295 183.189C106.286 182.484 106.383 181.781 106.582 181.105Z" fill="#4F3B64"/>
<path d="M125.301 181.105C125.5 181.781 125.597 182.484 125.588 183.189C125.6 183.896 125.503 184.601 125.301 185.278C124.926 183.912 124.926 182.471 125.301 181.105Z" fill="#4F3B64"/>
<path d="M144.024 181.105C144.399 182.471 144.399 183.912 144.024 185.278C143.822 184.601 143.725 183.896 143.737 183.189C143.728 182.484 143.825 181.781 144.024 181.105Z" fill="#4F3B64"/>
<path d="M162.743 181.105C162.942 181.781 163.039 182.484 163.03 183.189C163.042 183.896 162.945 184.601 162.743 185.278C162.368 183.912 162.368 182.471 162.743 181.105Z" fill="#4F3B64"/>
<path d="M181.467 181.105C181.842 182.471 181.842 183.912 181.467 185.278C181.264 184.601 181.167 183.896 181.18 183.189C181.17 182.484 181.267 181.781 181.467 181.105Z" fill="#4F3B64"/>
<path d="M200.185 181.105C200.384 181.781 200.481 182.484 200.472 183.189C200.484 183.896 200.387 184.601 200.185 185.278C199.81 183.912 199.81 182.471 200.185 181.105Z" fill="#4F3B64"/>
<path d="M218.909 181.105C219.284 182.471 219.284 183.912 218.909 185.278C218.706 184.601 218.609 183.896 218.622 183.189C218.612 182.484 218.709 181.781 218.909 181.105Z" fill="#4F3B64"/>
<path d="M237.627 181.105C237.826 181.781 237.923 182.484 237.914 183.189C237.926 183.896 237.829 184.601 237.627 185.278C237.252 183.912 237.252 182.471 237.627 181.105Z" fill="#4F3B64"/>
<path d="M41.9155 181.105C41.9155 181.105 41.4333 178.849 40.469 178.505C39.5047 178.161 38.9135 179.165 38.9135 179.165C38.9135 179.165 38.6896 177.013 37.3178 176.37C35.9459 175.727 34.9242 177.024 34.9242 177.024C34.9242 177.024 33.8738 174.292 31.9968 174.292C30.1198 174.292 29.1784 178.31 29.1784 178.31C29.1784 178.31 28.0706 177.116 26.9341 177.793C25.7976 178.47 25.7861 181.105 25.7861 181.105H41.9155Z" fill="#77B033"/>
<path d="M201.97 181.105C201.97 181.105 201.488 178.849 200.523 178.505C199.559 178.161 198.974 179.165 198.974 179.165C198.974 179.165 198.744 177.013 197.378 176.37C196.012 175.727 194.984 177.041 194.984 177.041C194.984 177.041 193.934 174.309 192.057 174.309C190.18 174.309 189.233 178.327 189.233 178.327C189.233 178.327 188.131 177.133 186.994 177.81C185.858 178.488 185.846 181.122 185.846 181.122L201.97 181.105Z" fill="#77B033"/>
<path d="M84.5525 181.105H67.5908C67.5908 181.105 68.1648 178.712 69.2727 178.545C69.6109 178.513 69.9507 178.586 70.2464 178.753C70.542 178.92 70.7792 179.174 70.9258 179.481C70.9258 179.481 70.8741 176.146 72.975 175.578C75.0758 175.009 76.8322 177.96 76.8322 177.96C76.8322 177.96 78.1524 176.278 79.9433 176.387C81.7342 176.496 82.1991 179.257 82.1991 179.257C82.1991 179.257 83.8293 178.304 84.5525 181.105Z" fill="#77B033"/>
<path d="M26.8417 181.105H17.916C17.916 181.105 17.916 179.773 18.8114 179.423C19.0493 179.319 19.3148 179.295 19.5675 179.355C19.8203 179.415 20.0466 179.556 20.212 179.756C20.212 179.756 20.5679 177.317 22.2038 177.317C23.8397 177.317 24.626 179.423 24.626 179.423C24.7648 179.222 24.9594 179.066 25.1859 178.974C25.4123 178.882 25.6607 178.859 25.9003 178.907C26.8072 179.022 26.8417 181.105 26.8417 181.105Z" fill="#77B033"/>
<path d="M91.5556 181.105H82.6299C82.6299 181.105 82.6299 179.773 83.5253 179.423C83.7632 179.319 84.0286 179.295 84.2814 179.355C84.5342 179.415 84.7604 179.556 84.9259 179.756C84.9259 179.756 85.2875 177.317 86.9234 177.317C88.5593 177.317 89.3399 179.423 89.3399 179.423C89.4787 179.222 89.6733 179.066 89.8997 178.974C90.1262 178.882 90.3746 178.859 90.6142 178.907C91.5211 179.022 91.5556 181.105 91.5556 181.105Z" fill="#77B033"/>
<path d="M238.384 181.105H229.459C229.459 181.105 229.459 179.773 230.354 179.423C230.592 179.319 230.857 179.295 231.11 179.355C231.363 179.415 231.589 179.556 231.755 179.756C231.755 179.756 232.111 177.317 233.746 177.317C235.382 177.317 236.169 179.423 236.169 179.423C236.307 179.222 236.501 179.065 236.728 178.973C236.955 178.881 237.203 178.858 237.443 178.907C238.35 179.022 238.384 181.105 238.384 181.105Z" fill="#77B033"/>
<path d="M251.408 181.105H236.691C236.691 181.105 236.725 178.912 238.172 178.333C238.565 178.168 239.002 178.134 239.415 178.238C239.829 178.341 240.199 178.576 240.468 178.907C240.468 178.907 241.042 174.889 243.757 174.889C246.472 174.889 247.741 178.333 247.741 178.333C247.969 178.001 248.29 177.743 248.663 177.591C249.036 177.439 249.446 177.4 249.841 177.477C251.351 177.673 251.408 181.105 251.408 181.105Z" fill="#77B033"/>
<path d="M168.419 179.894C168.419 179.894 180.077 199.278 180.083 199.295C182.333 202.986 184.239 206.269 185.065 208.054C185.306 208.452 185.451 208.9 185.49 209.363C185.49 209.363 185.49 209.392 185.49 209.398C184.847 210.815 155.843 229.643 154.609 229.958C153.375 230.274 152.376 226.784 152.921 225.154C153.467 223.524 161.348 211.349 161.348 211.349L149.868 191.862L168.419 179.894Z" fill="#AD6359"/>
<path d="M176.605 193.532L157.307 204.536C157.307 204.536 140.603 180.835 137.257 166.526C134.875 156.343 156.159 108.919 156.159 108.919L176.41 109.711C176.41 109.711 158.225 155.631 159.19 160.372C160.366 166.164 176.605 193.532 176.605 193.532Z" fill="#AD6359"/>
<path d="M185.496 209.415C185.496 209.415 185.496 209.444 185.496 209.449C184.847 210.867 155.843 229.694 154.615 230.01C153.386 230.326 152.382 226.836 152.927 225.206C153.226 224.322 155.654 220.372 157.829 216.923C155.809 220.275 151.624 230.067 182.213 202.86C183.498 205.047 184.509 206.878 185.083 208.077C185.325 208.484 185.466 208.943 185.496 209.415Z" fill="#4F3B64"/>
<path d="M197.148 143.732L210.964 129.107C214.139 126.162 218.656 121.644 219.46 121.581C220.969 121.931 245.577 146.786 246.133 147.934C246.69 149.082 243.47 150.752 241.765 150.545C240.06 150.339 226.554 145.046 226.554 145.046L211.957 159.592L197.148 143.732Z" fill="#AD6359"/>
<path d="M241.765 150.568C240.904 150.459 237.104 149.087 233.511 147.739C237.661 148.531 245.726 148.422 211.538 128.59C214.655 125.668 218.696 121.65 219.454 121.604C220.969 121.954 245.577 146.809 246.128 147.957C246.679 149.105 243.47 150.775 241.765 150.568Z" fill="#4F3B64"/>
<path d="M156.325 108.925C156.325 108.925 157.6 116.031 158.857 121.777C159.769 125.972 160.734 129.669 161.354 130.071C161.973 130.473 165.498 132.218 166.657 132.751C166.657 132.751 171.519 160.257 176.989 169.631C178.872 172.84 188.578 176.892 193.825 174.223C206.131 167.909 222.1 149.512 222.1 149.512L207.176 133.13L191.104 148.915C188.309 142.085 187.821 128.825 187.821 128.825C187.821 128.825 188.395 115.841 184.256 109.998L156.325 108.925Z" fill="#AD6359"/>
<path d="M155.992 108.913C155.992 108.913 136.109 148.324 135.736 164.511C135.615 169.734 138.244 176.393 138.244 176.393C138.244 176.393 157.41 179.888 168.207 175.078C179.004 170.268 183.705 160.602 188.423 152.457C190.507 148.858 192.085 147.951 192.085 147.951C192.085 147.951 188.423 131.265 188.366 129.405C188.366 129.405 189.267 117.236 184.285 109.998L155.992 108.913Z" fill="#4F3B64"/>
<path d="M172.013 58.671C166.095 64.6865 165.188 79.8286 172.885 89.8334C179.406 98.3057 194.123 99.5914 200.322 94.3393C206.895 88.7428 205.712 79.9319 200.724 75.7417C195.558 71.4138 189.548 72.7397 186.403 68.8537C184.899 66.994 184.262 62.9989 182.155 60.1576C179.808 56.9891 175.049 55.5828 172.013 58.671Z" fill="#4F3B64"/>
<path d="M183.665 62.8267C184.138 64.1856 184.724 65.5028 185.416 66.7644C186.104 68.0599 187.068 69.1886 188.24 70.0706C188.857 70.4826 189.54 70.7854 190.26 70.966C190.955 71.1727 191.655 71.3449 192.35 71.54C193.737 71.8712 195.107 72.2735 196.454 72.7454C197.793 73.1992 199.069 73.8243 200.248 74.6052C201.424 75.3881 202.426 76.4056 203.19 77.5939C203.955 78.7821 204.466 80.1155 204.691 81.5104C204.933 82.9202 205.006 84.3538 204.909 85.781C205.109 84.3519 205.122 82.9028 204.949 81.4702C204.761 80.0196 204.283 78.6218 203.543 77.3604C202.784 76.1004 201.762 75.0195 200.546 74.1919C199.339 73.3719 198.031 72.712 196.655 72.2288C195.289 71.7587 193.897 71.3659 192.487 71.0521C191.793 70.8799 191.098 70.7135 190.415 70.5241C189.74 70.3518 189.094 70.081 188.498 69.7205C187.34 68.9078 186.375 67.8518 185.668 66.6266C184.909 65.4105 184.239 64.1404 183.665 62.8267Z" fill="#4F3B64"/>
<path d="M170.888 60.0083C169.183 62.5923 167.889 65.4252 167.053 68.4059C166.181 71.3977 165.881 74.5271 166.169 77.6301C166.332 79.1828 166.684 80.7096 167.22 82.1762C167.343 82.5455 167.487 82.9077 167.65 83.261C167.792 83.6232 167.953 83.9776 168.132 84.3229C168.316 84.6673 168.488 85.0175 168.678 85.3561L169.303 86.3434C171.053 88.9062 173.283 91.1051 175.87 92.8181C175.296 92.3187 174.67 91.8538 174.102 91.3372C173.53 90.8273 172.984 90.289 172.466 89.7243C171.403 88.6246 170.459 87.4164 169.648 86.1195C168.015 83.5385 167.006 80.612 166.703 77.5727C166.397 74.5332 166.65 71.4633 167.449 68.515C167.827 67.0296 168.307 65.5721 168.884 64.1526C169.453 62.7254 170.122 61.3404 170.888 60.0083Z" fill="#4F3B64"/>
<path d="M168.907 83.5539C164.78 85.4768 146.521 89.1216 140.936 84.8224C135.248 80.4428 131.092 62.798 130.415 60.5996C128.836 55.4336 144.828 54.8136 145.299 56.2256C146.975 61.2481 148.88 74.456 151.004 75.1677C155.47 76.6142 159.781 76.8207 166.967 78.1065C171.973 78.979 173.471 81.4301 168.907 83.5539Z" fill="#AD6359"/>
<path d="M130.8 61.5352C130.059 59.8821 127.247 51.915 126.983 49.5501C126.719 47.1852 126.443 40.3259 128.234 39.9356C130.025 39.5453 130.266 41.56 130.266 41.56C130.266 41.56 130.61 38.6498 132.447 38.4202C134.284 38.1906 134.554 41.3247 134.554 41.3247C134.554 41.3247 135.128 38.3571 136.976 38.2595C138.824 38.1619 138.566 41.3534 138.566 41.3534C138.566 41.3534 138.962 38.6154 140.518 39.1837C142.395 39.861 141.092 44.8203 141.58 47.4091C141.694 47.9831 144.685 59.1646 144.685 59.1646L130.8 61.5352Z" fill="#AD6359"/>
<path d="M138.583 41.0721C137.636 44.7228 137.854 46.4849 138.985 50.0265C138.985 50.0954 138.91 50.1413 138.881 50.0724C137.458 46.7088 136.867 44.5333 138.411 41.0147C138.485 40.8425 138.629 40.8942 138.583 41.0721Z" fill="#4F3B64"/>
<path d="M134.663 41.0203C134.008 44.9005 134.232 46.8177 135.139 50.6061C135.139 50.6182 135.134 50.6299 135.125 50.6385C135.117 50.6471 135.105 50.652 135.093 50.652C135.081 50.652 135.069 50.6471 135.061 50.6385C135.052 50.6299 135.047 50.6182 135.047 50.6061C133.842 46.9612 133.325 44.78 134.473 40.9916C134.485 40.8481 134.663 40.8423 134.663 41.0203Z" fill="#4F3B64"/>
<path d="M130.317 41.7437C129.956 45.5436 130.105 47.6502 131.465 51.2204C131.468 51.2366 131.465 51.2532 131.457 51.2674C131.449 51.2817 131.436 51.293 131.421 51.2995C131.406 51.3061 131.39 51.3075 131.374 51.3035C131.358 51.2996 131.344 51.2906 131.333 51.2778C129.611 47.7764 129.387 45.1475 130.185 41.7437C130.254 41.5141 130.34 41.5026 130.317 41.7437Z" fill="#4F3B64"/>
<path d="M145.448 61.3976C145.448 61.3976 147.457 57.1213 147.928 55.0434C148.398 52.9655 147.302 44.5966 145.477 44.7114C143.123 44.8836 142.808 49.8429 142.968 52.2939C142.968 52.2939 137.521 52.69 136.522 56.1971C135.524 59.7043 145.448 61.3976 145.448 61.3976Z" fill="#AD6359"/>
<path d="M144.845 45.004C142.813 46.726 143.232 49.9117 143.215 52.2996C143.217 52.335 143.21 52.3704 143.195 52.4027C143.18 52.4349 143.158 52.463 143.129 52.4845C143.101 52.506 143.068 52.5202 143.033 52.526C142.998 52.5318 142.962 52.5289 142.928 52.5177C140.632 52.8334 137.544 53.9469 136.453 56.1052C136.446 56.1164 136.435 56.1246 136.422 56.1283C136.409 56.132 136.395 56.1311 136.382 56.1256C136.37 56.1201 136.36 56.1105 136.354 56.0983C136.348 56.0862 136.347 56.0724 136.35 56.0593C137.205 53.5853 140.173 52.2479 142.664 52.0413C142.664 49.5903 142.371 46.3587 144.817 44.9696C144.845 44.9581 144.863 45.004 144.845 45.004Z" fill="#4F3B64"/>
<path d="M146.533 59.6008C146.533 59.6008 149.529 73.8073 150.798 74.4445C152.904 75.5064 165.073 77.4006 169.401 78.3017C173.729 79.2029 176.691 81.9811 166.164 85.7236C155.992 89.3398 144.926 91.4004 139.461 89.3398C132.826 86.8314 126.787 71.5859 126.787 71.5859L146.533 59.6008Z" fill="#522E9F"/>
<path d="M129.313 74.8521C137.154 69.6517 145.666 65.0942 147.136 64.239C147.21 64.1988 147.25 64.3307 147.181 64.3709C145.798 65.186 136.172 71.3507 129.359 74.9956C129.278 75.053 129.238 74.9152 129.313 74.8521Z" fill="#4F3B64"/>
<path opacity="0.1" d="M173.218 81.5334C172.69 82.7101 170.658 84.1279 166.164 85.7236C155.992 89.3398 144.926 91.4004 139.461 89.3398C138.702 89.0383 137.99 88.6284 137.349 88.1229L173.218 81.5334Z" fill="black"/>
<path d="M155.992 108.913L184.532 110.027C184.532 110.027 183.217 90.1434 178.941 81.9467C176.995 78.2157 174.165 77.9287 171.341 79.1742C170.635 79.4899 161.009 86.5214 159.551 89.5062C158.248 92.1294 159.643 95.8202 159.643 95.8202L155.992 108.913Z" fill="#EBEBEB"/>
<path d="M170.48 79.4441C170.48 79.4441 166.319 84.237 166.02 86.1484C165.854 87.6746 165.854 89.2143 166.02 90.7404C168.434 89.7883 170.798 88.7155 173.103 87.526C175.457 86.1886 177.064 79.3523 177.064 79.3523C177.064 79.3523 180.445 82.5495 181.88 89.007C182.993 93.9893 185.507 109.252 185.697 109.7C185.886 110.147 189.715 119.561 189.221 129.17C189.221 129.17 191.999 141.006 193.331 142.337C194.663 143.669 196.896 142.016 196.896 142.016C196.896 142.016 189.221 168.586 174.688 173.012C161.79 176.961 134.255 167.163 134.829 161.721C135.403 156.28 144.3 131.695 155.16 108.913L159.431 95.9466C159.431 95.9466 157.565 92.1467 159.522 89.1906C161.48 86.2345 168.953 80.1272 170.48 79.4441Z" fill="#522E9F"/>
<path opacity="0.1" d="M153.702 146.436C152.87 148.835 152.078 151.24 151.194 153.622C150.746 154.822 150.344 156.044 149.948 157.267C149.512 158.511 149.236 159.805 149.127 161.118C149.127 161.13 149.123 161.141 149.115 161.149C149.107 161.157 149.096 161.162 149.084 161.162C149.073 161.162 149.062 161.157 149.054 161.149C149.046 161.141 149.041 161.13 149.041 161.118C149.072 159.672 149.264 158.234 149.615 156.831C150.101 154.273 150.81 151.763 151.733 149.329C152.215 148.129 152.761 146.946 153.335 145.781C153.909 144.616 154.483 143.434 155.108 142.337C155.154 142.257 155.304 142.303 155.269 142.4C154.752 143.732 154.179 145.064 153.702 146.436Z" fill="black"/>
<path opacity="0.1" d="M175.474 152.405C175.474 150.683 175.474 149.007 175.583 147.308C175.686 145.81 175.807 144.312 176.013 142.825C176.22 141.338 176.542 139.835 176.886 138.354C177.569 135.398 178.355 132.453 179.216 129.543C178.74 131.179 178.304 132.826 177.959 134.496C177.385 137.447 177.052 140.426 176.616 143.399C176.18 146.372 175.772 149.392 175.543 152.394C175.56 152.457 175.474 152.463 175.474 152.405Z" fill="black"/>
<path opacity="0.1" d="M182.471 168.19C182.276 168.38 182.081 168.558 181.897 168.735C181.553 168.489 181.214 168.236 180.881 167.984C177.948 165.745 174.745 163.173 173.453 159.597C172.916 157.862 172.693 156.044 172.793 154.23C172.857 152.364 173.034 150.502 173.321 148.657C173.321 148.588 173.448 148.6 173.436 148.657C173.193 150.687 173.117 152.733 173.207 154.776C173.335 156.55 173.831 158.278 174.665 159.85C175.528 161.382 176.611 162.78 177.879 164C179.32 165.492 180.887 166.847 182.471 168.19Z" fill="black"/>
<path opacity="0.1" d="M164.993 143.52C164.086 146.034 163.219 148.559 162.49 151.131C162.13 152.401 161.809 153.678 161.526 154.959C161.244 156.257 161.038 157.565 160.803 158.868C160.561 160.154 160.406 161.454 160.338 162.76C160.303 163.432 160.303 164.103 160.338 164.775C160.372 165.446 160.297 166.078 160.338 166.732C160.338 166.824 160.206 166.824 160.194 166.732C160.131 166.319 160.022 165.923 159.942 165.521C159.885 165.166 159.849 164.807 159.832 164.448C159.769 163.707 159.746 162.967 159.735 162.232C159.696 160.759 159.75 159.285 159.896 157.818C160.237 155.164 160.813 152.546 161.618 149.994C162.375 147.434 163.265 144.914 164.178 142.406C165.13 139.794 166.055 137.171 167.203 134.64C168.351 132.109 169.464 129.422 170.486 126.77C170.486 126.707 170.606 126.73 170.583 126.77C170.061 128.251 169.596 129.755 169.085 131.236C168.574 132.717 168.196 134.244 167.713 135.73C167.289 137.051 166.864 138.354 166.388 139.657C165.911 140.96 165.458 142.24 164.993 143.52Z" fill="black"/>
<path opacity="0.1" d="M154.115 172.128L153.231 171.904C152.534 170.045 152.101 168.097 151.946 166.118C151.936 165.361 151.972 164.604 152.055 163.851C152.101 163.145 152.187 162.439 152.29 161.738C152.508 160.289 152.893 158.869 153.438 157.508C153.438 157.456 153.541 157.508 153.524 157.542C152.963 159.012 152.643 160.563 152.577 162.134C152.544 162.824 152.564 163.514 152.634 164.201C152.715 164.89 152.87 165.573 152.956 166.267C153.121 167.652 153.365 169.026 153.685 170.383C153.811 170.991 153.96 171.565 154.115 172.128Z" fill="black"/>
<path opacity="0.1" d="M178.516 171.284C177.316 172.015 176.03 172.593 174.688 173.006C172.447 173.638 170.127 173.943 167.8 173.913C167.363 173.31 166.956 172.702 166.565 172.07C165.163 169.88 164.241 167.417 163.862 164.844C163.489 161.859 164.212 158.84 164.843 155.941C165.492 152.939 170.113 139.903 170.87 140.874C171.789 142.056 169.177 155.866 169.016 157.52C168.792 159.057 169.066 160.626 169.797 161.997C170.639 163.298 171.62 164.503 172.724 165.59C173.827 166.784 174.963 167.945 176.134 169.074C176.903 169.838 177.713 170.555 178.516 171.284Z" fill="black"/>
<path opacity="0.1" d="M194.577 142.848C194.266 143.412 193.927 143.96 193.561 144.49C192.631 145.896 191.689 147.297 190.754 148.691C189.818 150.086 188.831 151.521 187.884 152.939C187.097 154.087 186.386 155.31 185.175 156.084C185.127 156.111 185.073 156.122 185.019 156.115C184.966 156.109 184.915 156.085 184.876 156.048C184.837 156.01 184.811 155.961 184.801 155.908C184.792 155.855 184.8 155.8 184.824 155.752C185.548 154.288 186.38 152.882 187.161 151.441C188.523 149.086 189.763 146.663 190.874 144.18C191.408 142.905 191.86 141.597 192.229 140.265C192.229 140.213 192.258 140.156 192.275 140.104C192.503 140.898 192.862 141.649 193.337 142.326C193.666 142.655 194.111 142.843 194.577 142.848Z" fill="black"/>
<path opacity="0.1" d="M183.562 107.978C181.782 108.678 180.009 109.395 178.177 109.952C176.386 110.482 174.56 110.886 172.713 111.163C169.474 111.738 166.144 111.542 162.995 110.589C161.207 109.957 159.568 108.964 158.179 107.673C158.139 107.639 158.082 107.673 158.122 107.742C160.311 110.297 163.388 111.926 166.732 112.3C170.417 112.782 173.999 112.001 177.414 110.647C179.486 109.826 181.541 108.925 183.585 108.052C183.625 108.035 183.608 107.96 183.562 107.978Z" fill="black"/>
<path d="M169.332 96.5034C168.119 96.2591 166.889 96.1056 165.653 96.0442C165.039 96.0442 164.43 96.0442 163.816 96.0442C163.512 96.0442 163.208 96.0442 162.898 96.0442C162.577 96.0509 162.258 96.0201 161.945 95.9524C161.945 95.9524 161.905 95.9868 161.945 95.9925C162.23 96.0922 162.521 96.1728 162.817 96.2336C163.108 96.2822 163.401 96.311 163.695 96.3197C164.315 96.3484 164.941 96.3484 165.567 96.3714C166.818 96.4116 168.075 96.4575 169.326 96.5895C169.372 96.6067 169.39 96.5149 169.332 96.5034Z" fill="#4F3B64"/>
<path d="M171.938 98.386C171.001 97.9972 170.043 97.6618 169.068 97.3815C168.58 97.2438 168.081 97.1347 167.581 97.0371L166.864 96.9108C166.6 96.8706 166.324 96.8592 166.066 96.8132C166.037 96.8132 166.026 96.8534 166.066 96.8592C166.319 96.9108 166.554 97.0027 166.801 97.0658L167.535 97.261C168.029 97.393 168.517 97.5307 169.011 97.657C169.998 97.9153 170.974 98.1736 171.95 98.4664C171.96 98.4648 171.97 98.4592 171.976 98.4505C171.983 98.4419 171.986 98.4311 171.984 98.4204C171.982 98.4098 171.977 98.4002 171.968 98.3937C171.96 98.3873 171.949 98.3845 171.938 98.386Z" fill="#4F3B64"/>
<path d="M178.097 86.2746C184.681 95.6882 194.881 109.688 200.925 109.562C206.395 109.453 215.12 104.734 224.626 99.6775C226.52 98.6673 217.927 84.3919 216.016 85.6662C212.267 88.1688 204.271 94.8502 201.666 95.2864C200.558 95.4644 188.119 86.3033 181.111 81.9007C174.98 78.032 176.817 84.4435 178.097 86.2746Z" fill="#AD6359"/>
<path d="M232.937 95.4414C230.279 97.6341 221.842 101.072 219.89 100.975C217.938 100.877 213.53 88.783 214.604 87.0897C215.677 85.3964 225.194 78.7093 228.712 78.6634C232.231 78.6175 235.687 93.1741 232.937 95.4414Z" fill="#AD6359"/>
<path d="M219.844 69.5598C219.844 69.5598 224.293 65.1171 229.895 68.5553C229.895 68.5553 230.136 85.2645 230.291 86.2747C230.446 87.2849 235.003 105.951 235.003 105.951C235.003 105.951 230.785 108.93 224.252 106.497C224.252 106.497 225.309 87.3481 225.2 86.7856C225.09 86.223 219.844 69.5598 219.844 69.5598Z" fill="#EBEBEB"/>
<path d="M235.003 105.951C235.003 105.951 228.885 102.507 224.252 106.497C224.252 106.497 229.051 109.292 235.003 105.951Z" fill="#DBDBDB"/>
<path d="M230.291 86.2745C230.423 86.1712 230.291 86.1138 230.188 86.0908C230.073 86.061 229.956 86.0399 229.837 86.0277C229.596 85.999 229.355 85.9875 229.114 85.9818C228.632 85.9692 228.149 85.9826 227.668 86.022C227.186 86.0564 226.703 86.1138 226.227 86.1884C225.993 86.2256 225.763 86.2812 225.538 86.3549C225.337 86.4237 225.045 86.5271 225.2 86.7854C225.137 86.7502 225.09 86.6928 225.068 86.6246C225.056 86.5488 225.072 86.4712 225.113 86.4065C225.188 86.2853 225.288 86.1816 225.406 86.1023C225.625 85.9568 225.863 85.841 226.112 85.7579C226.601 85.5927 227.108 85.4886 227.622 85.448C228.136 85.4093 228.654 85.4402 229.16 85.5398C229.416 85.5862 229.666 85.6593 229.906 85.7579C230.03 85.8073 230.147 85.8709 230.256 85.9473C230.32 85.9863 230.372 86.0418 230.406 86.1081C230.417 86.1262 230.423 86.147 230.423 86.1683C230.423 86.1896 230.417 86.2105 230.406 86.2286C230.372 86.2541 230.333 86.27 230.291 86.2745Z" fill="#522E9F"/>
<path d="M230.343 86.533C230.469 86.4182 230.343 86.378 230.222 86.3551C230.104 86.3348 229.985 86.3233 229.866 86.3206C229.619 86.3206 229.378 86.3206 229.131 86.3206C228.644 86.3206 228.161 86.3895 227.685 86.4641C227.209 86.5388 226.715 86.6249 226.239 86.7339C226.004 86.7826 225.774 86.8498 225.55 86.9348C225.44 86.9689 225.337 87.0213 225.245 87.0898C225.222 87.1036 225.202 87.1227 225.186 87.1457C225.171 87.1686 225.162 87.1947 225.158 87.2219C225.155 87.2491 225.158 87.2768 225.167 87.3026C225.176 87.3285 225.191 87.3519 225.211 87.3711C225.178 87.3568 225.149 87.3355 225.125 87.3088C225.101 87.282 225.084 87.2504 225.073 87.2161C225.062 87.1384 225.078 87.0591 225.119 86.9922C225.195 86.8741 225.293 86.771 225.406 86.688C225.621 86.533 225.854 86.4058 226.101 86.3092C226.581 86.1157 227.082 85.9771 227.593 85.8959C228.109 85.8241 228.633 85.8241 229.149 85.8959C229.41 85.9261 229.668 85.9818 229.918 86.0623C230.046 86.1047 230.169 86.1605 230.285 86.2288C230.351 86.2641 230.406 86.3154 230.446 86.378C230.45 86.3951 230.451 86.4128 230.448 86.43C230.445 86.4473 230.438 86.4637 230.428 86.4783C230.419 86.4929 230.406 86.5052 230.391 86.5147C230.376 86.5241 230.36 86.5304 230.343 86.533Z" fill="#522E9F"/>
<path d="M230.388 86.7396C230.413 86.7202 230.43 86.6943 230.44 86.6649C230.383 86.6594 230.325 86.6594 230.268 86.6649L229.912 86.7338L229.195 86.8831C228.718 86.9864 228.236 87.0667 227.76 87.1528C227.283 87.2389 226.795 87.3021 226.313 87.3595C226.072 87.3939 225.831 87.4226 225.596 87.4685C225.482 87.485 225.37 87.5139 225.263 87.5546C225.159 87.5891 225.096 87.6694 225.194 87.79C225.161 87.7764 225.132 87.7545 225.109 87.7263C225.087 87.6981 225.073 87.6647 225.068 87.6293C225.07 87.5898 225.081 87.5514 225.1 87.5167C225.119 87.482 225.145 87.4518 225.177 87.4284C225.275 87.3397 225.385 87.2644 225.504 87.2045C225.734 87.0944 225.971 87.0022 226.216 86.929C227.167 86.6422 228.15 86.4764 229.143 86.4353C229.395 86.4353 229.642 86.4353 229.895 86.4353C230.022 86.4441 230.149 86.4614 230.274 86.487C230.342 86.5005 230.407 86.5237 230.469 86.5559C230.489 86.5678 230.506 86.5834 230.521 86.6018C230.528 86.6126 230.533 86.6257 230.533 86.6391C230.533 86.6525 230.528 86.6656 230.521 86.6764C230.482 86.7075 230.437 86.7291 230.388 86.7396Z" fill="#522E9F"/>
<path d="M223.317 79.8228C222.714 81.5448 225.091 81.275 225.091 81.275C225.091 81.275 221.767 82.4861 221.83 84.5066C221.893 86.5271 224.752 86.0162 224.958 85.9875C224.781 86.0564 221.756 87.2561 222.025 89.2708C222.312 91.3716 225.108 90.4188 225.286 90.3844C225.142 90.4992 223.236 92.0432 223.793 93.5299C224.746 96.0899 229.728 92.2786 231.904 92.6631C231.904 92.6631 232.725 95.5044 232.742 95.6135C232.742 95.6135 236.502 93.0075 236.858 90.04C236.915 89.6097 236.824 89.1726 236.6 88.8011C236.376 88.4295 236.031 88.1456 235.623 87.9965C235.623 87.9965 237.299 87.0322 237.133 85.4365C237.047 84.6099 235.687 84.0359 235.687 84.0359C236.054 83.7961 236.348 83.46 236.538 83.0642C236.727 82.6683 236.804 82.2281 236.76 81.7916C236.576 80.6436 235.216 80.2475 235.216 80.2475C235.216 80.2475 236.106 78.8699 235.543 77.7793C234.389 75.5637 224.62 76.1377 223.317 79.8228Z" fill="#AD6359"/>
<path d="M235.687 84.0015C235.727 84.0015 235.727 83.9383 235.687 83.9326C231.945 83.2714 228.09 83.9718 224.821 85.9072C224.712 85.976 224.677 86.154 224.821 86.0794C227.117 84.874 232.547 83.9154 235.687 84.0015Z" fill="#4F3B64"/>
<path d="M225.108 90.6082C228.322 88.7485 231.806 88.1056 235.486 87.9621C235.532 87.9621 235.526 87.8932 235.486 87.8875C233.666 87.4684 231.336 87.8014 229.539 88.2204C227.865 88.5783 226.315 89.3702 225.045 90.5164C224.993 90.5451 225.039 90.6484 225.108 90.6082Z" fill="#4F3B64"/>
<path d="M225.091 81.2751C224.473 81.5638 223.885 81.9118 223.334 82.314C222.782 82.6777 222.338 83.1833 222.048 83.7777C221.928 84.0561 221.916 84.3691 222.014 84.6559C222.119 84.9452 222.295 85.2037 222.525 85.4079C222.77 85.5864 223.05 85.7118 223.346 85.776C223.643 85.8403 223.95 85.842 224.247 85.781L225.722 85.5399L224.419 86.2804C223.838 86.6062 223.313 87.0228 222.863 87.5145C222.643 87.7313 222.472 87.9922 222.36 88.2802C222.248 88.5681 222.199 88.8764 222.215 89.1848C222.234 89.4687 222.35 89.7374 222.543 89.9462C222.736 90.1551 222.995 90.2915 223.277 90.3328C223.914 90.4184 224.562 90.3394 225.159 90.1032L226.83 89.5292L225.452 90.6313C225.068 90.9381 224.724 91.2931 224.43 91.6874C224.138 92.0508 223.958 92.4918 223.914 92.956C223.906 93.165 223.955 93.3723 224.056 93.5554C224.157 93.7385 224.307 93.8905 224.488 93.9949C224.93 94.1659 225.413 94.2038 225.877 94.104C226.886 93.9136 227.878 93.6429 228.844 93.2946C229.338 93.1339 229.832 92.9789 230.337 92.8412C230.835 92.6744 231.364 92.6176 231.887 92.6747C231.37 92.6776 230.86 92.7809 230.383 92.9789C229.895 93.1511 229.413 93.3463 228.931 93.5529C227.969 93.976 226.97 94.3066 225.946 94.5402C225.393 94.6761 224.813 94.6482 224.275 94.4599C223.995 94.3236 223.76 94.1091 223.599 93.8422C223.438 93.5753 223.358 93.2675 223.369 92.956C223.405 92.3793 223.615 91.8271 223.971 91.3717C224.289 90.927 224.663 90.5256 225.085 90.1778L225.378 90.6829C224.678 90.9756 223.914 91.0785 223.162 90.9814C222.747 90.9202 222.366 90.7175 222.083 90.4074C221.819 90.0896 221.657 89.6995 221.618 89.2881C221.597 88.898 221.66 88.508 221.802 88.1439C221.943 87.7797 222.16 87.4498 222.439 87.1758C222.935 86.64 223.517 86.19 224.161 85.8441L224.333 86.3435C223.958 86.4081 223.574 86.3902 223.208 86.291C222.841 86.1919 222.5 86.0139 222.209 85.7695C221.94 85.5036 221.742 85.1738 221.635 84.8109C221.524 84.4401 221.555 84.0411 221.721 83.6916C222.068 83.0667 222.583 82.5516 223.208 82.205C223.796 81.8208 224.428 81.5086 225.091 81.2751Z" fill="#4F3B64"/>
<path d="M216.021 85.6663C216.021 85.6663 222.737 72.6824 226.525 77.791C227.673 79.3121 230.463 86.8889 228.948 87.4859C226.996 88.2493 225.234 85.3047 224.419 83.2842C224.419 83.2842 222.76 88.0197 219.115 87.8475C218.449 87.804 217.807 87.5773 217.261 87.1924C216.715 86.8076 216.286 86.2794 216.021 85.6663Z" fill="#AD6359"/>
<path d="M226.181 77.3892C226.693 77.9332 227.124 78.5479 227.461 79.2145C227.811 79.8725 228.116 80.5533 228.374 81.2522C228.918 82.6476 229.339 84.0882 229.631 85.5572C229.707 85.9484 229.729 86.3483 229.694 86.7454C229.669 86.9722 229.596 87.1911 229.482 87.3883C229.418 87.4972 229.337 87.5943 229.24 87.6753C229.145 87.7563 229.036 87.8204 228.919 87.8647C228.499 88.0198 228.037 88.0198 227.616 87.8647C227.234 87.7181 226.881 87.5064 226.571 87.239C225.997 86.7198 225.516 86.1063 225.148 85.4252C224.773 84.7704 224.451 84.0871 224.184 83.3818H224.666C224.458 83.915 224.199 84.4265 223.891 84.9086C223.594 85.3944 223.246 85.8467 222.852 86.2575C222.458 86.6668 222.005 87.0151 221.509 87.2907C221.018 87.5693 220.478 87.7487 219.919 87.8188C220.451 87.6786 220.955 87.4496 221.411 87.1415C221.861 86.8327 222.265 86.4616 222.611 86.0394C222.96 85.6229 223.268 85.173 223.529 84.6962C223.79 84.2254 224.007 83.7316 224.178 83.221L224.379 82.5896L224.66 83.2038C224.946 83.8695 225.276 84.5157 225.647 85.1382C225.999 85.7542 226.447 86.3102 226.973 86.7856C227.191 87.013 227.464 87.1806 227.766 87.2721C228.067 87.3635 228.387 87.3759 228.695 87.3079C229.177 87.1587 229.154 86.3493 229.057 85.6605C228.941 84.9416 228.79 84.229 228.603 83.5253C228.425 82.8078 228.236 82.1017 228.029 81.4015C227.628 79.9751 227.005 78.6209 226.181 77.3892Z" fill="#4F3B64"/>
<path d="M214.121 86.9059C214.121 86.9059 202.699 94.8214 201.327 94.4655C199.031 93.8915 184.354 83.3299 180.496 81.1544C176.639 78.979 175.33 81.9982 177.575 85.7866C183.47 95.7398 193.153 111.335 201.654 112.971C206.246 113.85 222.318 107.805 222.318 107.805L214.121 86.9059Z" fill="#522E9F"/>
<path d="M183.803 95.6021C183.613 95.3496 183.498 95.0281 183.332 94.7641L182.798 93.8973C182.442 93.3463 182.092 92.7895 181.748 92.227C181.053 91.1134 180.296 90.0401 179.567 88.9495C180.204 90.0975 180.824 91.2455 181.541 92.3935C181.558 92.415 181.574 92.4381 181.587 92.4623L181.128 92.0089L180.181 91.0618C180.181 91.0618 180.129 91.0618 180.146 91.0962C180.433 91.4349 180.72 91.7678 181.042 92.0778C181.208 92.2385 181.369 92.3992 181.541 92.5484L181.776 92.7551L182.586 93.9949C182.769 94.2819 182.965 94.5689 183.16 94.8387C183.355 95.1085 183.608 95.3553 183.774 95.6423C183.768 95.6825 183.837 95.6423 183.803 95.6021Z" fill="#4F3B64"/>
<path d="M211.005 90.3499C214.586 98.4663 217.416 107.053 218.002 108.563C218.002 108.632 217.898 108.649 217.87 108.563C217.33 107.151 213.14 97.2322 210.855 90.3499C210.85 90.2753 211.005 90.2638 211.005 90.3499Z" fill="#4F3B64"/>
<path d="M171.886 77.3661C175.79 76.5109 182.58 79.3407 183.079 82.2853C183.498 84.8052 183.567 103.736 184.124 108.689C184.681 113.643 199.84 134.594 199.84 134.594L192.814 134.135L191.598 140.564C191.598 140.564 178.286 122.236 175.669 113.654C173.052 105.073 177.787 80.7987 177.07 79.5703C176.352 78.3419 173.39 78.5086 172.047 78.7554C170.704 79.0022 168.574 81.6252 167.495 84.2369C166.416 86.8486 162.215 103.684 162.151 109.866C162.088 116.048 170.394 139.461 170.394 139.461L164.298 136.723L160.028 142.601C160.028 142.601 153.645 119.785 153.381 109.694C153.214 103.276 157.973 91.7276 163.202 84.0245C166.198 79.6392 169.539 77.877 171.886 77.3661Z" fill="#331056"/>
<path d="M176.754 79.9433C176.496 80.4312 173.098 83.152 170.744 82.4058C169.975 82.1589 171.129 77.9171 171.129 77.9171V77.5842L171.318 72.9233L177.362 70.9889L178.229 70.7478C178.229 70.7478 178.091 72.0221 177.908 73.6178C177.908 73.6924 177.908 73.7671 177.879 73.8474C177.85 73.9278 177.879 74.0196 177.879 74.1C177.879 74.3411 177.827 74.5821 177.799 74.8175C177.77 75.0528 177.753 75.1791 177.718 75.3915C177.684 75.6039 177.667 75.7646 177.638 75.9655C177.434 77.3099 177.138 78.6389 176.754 79.9433Z" fill="#AD6359"/>
<path d="M177.919 73.6006C177.146 74.7167 176.139 75.6511 174.968 76.339C173.798 77.0269 172.492 77.4518 171.14 77.5842L171.33 72.9233L177.374 70.9889L178.241 70.7478C178.241 70.7478 178.103 72.0221 177.919 73.6006Z" fill="#4F3B64"/>
<path d="M167.094 63.0219C162.743 69.95 166.399 73.3539 167.897 74.278C169.252 75.1275 173.982 77.854 179.027 71.408C184.072 64.962 182.224 60.7488 179.228 58.6423C176.232 56.5357 171.45 56.0937 167.094 63.0219Z" fill="#AD6359"/>
<path d="M168.821 62.442C168.999 62.5224 169.177 62.5626 169.361 62.6257C169.538 62.7153 169.739 62.7455 169.935 62.7118C169.995 62.6871 170.044 62.6432 170.077 62.5871C170.109 62.5311 170.121 62.4659 170.113 62.4019C170.079 62.278 170.013 62.1654 169.921 62.0756C169.829 61.9858 169.715 61.9221 169.59 61.891C169.345 61.7964 169.073 61.7964 168.827 61.891C168.776 61.9166 168.733 61.9556 168.703 62.0039C168.673 62.0522 168.657 62.1079 168.656 62.1648C168.656 62.2217 168.671 62.2777 168.7 62.3266C168.729 62.3755 168.771 62.4154 168.821 62.442Z" fill="#4F3B64"/>
<path d="M173.649 65.3064C173.504 65.1856 173.366 65.0573 173.235 64.9218C173.07 64.8074 172.947 64.6421 172.885 64.4511C172.876 64.387 172.889 64.3218 172.923 64.2663C172.956 64.2109 173.008 64.1687 173.069 64.1469C173.194 64.118 173.324 64.123 173.446 64.1614C173.568 64.1997 173.678 64.27 173.763 64.365C173.968 64.5321 174.103 64.7695 174.142 65.0309C174.147 65.0904 174.135 65.1501 174.107 65.2028C174.079 65.2556 174.037 65.2991 173.984 65.3282C173.932 65.3573 173.873 65.3707 173.813 65.3669C173.754 65.363 173.697 65.342 173.649 65.3064Z" fill="#4F3B64"/>
<path d="M171.502 66.3625C171.502 66.3625 171.502 66.4084 171.502 66.4313C171.192 66.8905 170.928 67.4704 171.238 67.8951C171.238 67.8951 171.238 67.9352 171.238 67.9237C170.756 67.5219 171.134 66.7528 171.502 66.3625Z" fill="#4F3B64"/>
<path d="M172.237 66.1386C173.029 66.5576 172.133 68.1132 171.393 67.7228C170.652 67.3325 171.571 65.7827 172.237 66.1386Z" fill="#4F3B64"/>
<path d="M172.495 66.397C172.581 66.5635 172.621 66.7931 172.776 66.9079C172.877 66.9536 172.987 66.9738 173.097 66.9668C173.207 66.9598 173.314 66.9257 173.408 66.8677C173.408 66.8677 173.436 66.8677 173.408 66.9021C173.349 67.0582 173.234 67.1863 173.085 67.2608C172.936 67.3354 172.764 67.3508 172.604 67.3039C172.46 67.2206 172.353 67.0871 172.302 66.9292C172.251 66.7712 172.261 66.6001 172.328 66.4487C172.363 66.3855 172.46 66.3281 172.495 66.397Z" fill="#4F3B64"/>
<path d="M168.879 64.7151C168.879 64.7151 168.833 64.7151 168.821 64.7151C168.563 65.2087 168.178 65.7311 167.673 65.6392C167.673 65.6392 167.645 65.6392 167.673 65.6392C168.219 65.9205 168.712 65.2259 168.879 64.7151Z" fill="#4F3B64"/>
<path d="M168.735 63.946C167.989 63.4466 167.042 64.9735 167.731 65.4384C168.419 65.9034 169.361 64.3823 168.735 63.946Z" fill="#4F3B64"/>
<path d="M168.356 63.8657C168.184 63.8657 167.972 63.946 167.822 63.8657C167.673 63.7853 167.627 63.5327 167.616 63.2917C167.616 63.2917 167.616 63.2917 167.581 63.2917C167.474 63.412 167.412 63.5663 167.405 63.7276C167.399 63.889 167.449 64.0472 167.547 64.1756C167.771 64.3822 168.121 64.2504 168.368 64.0036C168.414 63.9749 168.425 63.8657 168.356 63.8657Z" fill="#4F3B64"/>
<path d="M167.886 68.4749C167.907 68.8651 168.029 69.243 168.242 69.5712C168.361 69.7454 168.531 69.8778 168.729 69.9501C169.171 70.1051 169.407 69.7721 169.539 69.4335C169.608 69.2486 169.655 69.0558 169.677 68.8595C169.054 68.9257 168.426 68.791 167.886 68.4749Z" fill="#4F3B64"/>
<path d="M168.242 69.5711C168.361 69.7452 168.531 69.8777 168.729 69.95C169.171 70.105 169.407 69.772 169.539 69.4334C169.339 69.3057 169.102 69.2498 168.866 69.2749C168.63 69.2999 168.41 69.4044 168.242 69.5711Z" fill="#FF9BBC"/>
<path d="M168.299 67.436C168.299 67.436 167.777 68.0961 167.576 68.4348C167.576 68.4635 167.627 68.5266 167.742 68.6013C168.001 68.8237 168.316 68.9712 168.653 69.0278C168.99 69.0844 169.336 69.0481 169.654 68.9227C169.661 68.9197 169.667 68.9146 169.672 68.9079C169.676 68.9013 169.679 68.8934 169.679 68.8854C169.679 68.8774 169.676 68.8695 169.672 68.8629C169.667 68.8562 169.661 68.8511 169.654 68.8481C169.046 68.89 168.442 68.7328 167.932 68.4004C167.96 68.2913 168.861 67.304 168.81 67.2524C168.534 67.1226 168.243 67.03 167.943 66.9768C168.993 65.5763 170.239 64.3537 171.284 62.9588C171.318 62.9072 171.249 62.8498 171.209 62.8842C169.812 64.1517 168.545 65.5554 167.426 67.0744C167.283 67.2581 168.127 67.3901 168.299 67.436Z" fill="#4F3B64"/>
<path d="M178.734 71.609C177.965 71.1096 177.127 67.746 179.234 63.86C179.234 63.86 177.58 67.482 177.558 68.1363C177.535 68.7907 177.093 66.2479 178.746 63.0909C177.374 63.239 175.988 63.1907 174.63 62.9474C172.908 62.5283 172.041 62.0117 171.995 61.8453C171.95 61.6788 174.492 62.2184 175.439 61.8453C175.439 61.8453 170.515 61.4607 168.643 60.5825C168.425 60.4849 170.555 56.8113 174.355 56.5645C178.154 56.3177 181.489 60.0085 182.029 61.8281C182.029 61.8281 183.091 62.5972 183.298 65.5189C183.533 68.6816 179.567 72.1428 178.734 71.609Z" fill="#4F3B64"/>
<path d="M177.431 73.9738C177.302 73.9592 177.175 73.9304 177.052 73.8877C176.928 73.8498 176.81 73.7937 176.702 73.7212C176.562 73.6303 176.443 73.511 176.352 73.3711C176.282 73.2606 176.228 73.1408 176.191 73.0152C176.133 72.8297 176.11 72.6352 176.123 72.4412L177.523 70.7192C177.523 70.7192 180.278 69.267 181.019 70.3633C181.759 71.4597 178.86 74.146 177.431 73.9738Z" fill="#AD6359"/>
<path d="M180.175 71.1152C180.175 71.1152 180.175 71.1554 180.175 71.1496C179.687 71.1437 179.202 71.2403 178.753 71.4331C178.305 71.6259 177.901 71.9106 177.569 72.2689C177.662 72.21 177.767 72.1719 177.877 72.1571C177.986 72.1424 178.098 72.1514 178.203 72.1835C178.309 72.2157 178.406 72.2702 178.489 72.3433C178.572 72.4165 178.638 72.5066 178.683 72.6076C178.683 72.6076 178.654 72.6592 178.631 72.642C178.507 72.5182 178.348 72.4358 178.175 72.406C178.002 72.3762 177.825 72.4005 177.667 72.4756C177.402 72.6058 177.152 72.7635 176.92 72.9462C176.84 73.0036 176.725 72.8888 176.8 72.82C177.339 71.7121 178.958 70.6273 180.175 71.1152Z" fill="#4F3B64"/>
<path d="M177.489 73.6179C177.442 73.6761 177.378 73.719 177.307 73.7413C177.235 73.7635 177.159 73.7641 177.087 73.743C177.015 73.7218 176.951 73.6798 176.903 73.6224C176.855 73.5649 176.826 73.4945 176.818 73.4201C176.81 73.3457 176.824 73.2705 176.858 73.2042C176.893 73.1378 176.947 73.0832 177.012 73.0473C177.078 73.0113 177.153 72.9956 177.227 73.0022C177.302 73.0088 177.373 73.0372 177.431 73.0841C177.47 73.1153 177.503 73.1539 177.526 73.1977C177.55 73.2414 177.565 73.2895 177.571 73.3391C177.576 73.3887 177.572 73.4388 177.558 73.4867C177.543 73.5345 177.52 73.5791 177.489 73.6179Z" fill="white"/>
<path d="M178.441 73.4629C178.42 73.4902 178.393 73.5129 178.362 73.5297C178.332 73.5465 178.298 73.5571 178.263 73.5608C178.229 73.5646 178.194 73.5614 178.16 73.5515C178.127 73.5416 178.095 73.5251 178.068 73.5031C178.023 73.4561 177.996 73.394 177.992 73.3285C177.989 73.263 178.01 73.1985 178.051 73.1471C178.091 73.0958 178.149 73.061 178.214 73.0494C178.279 73.0378 178.345 73.0502 178.401 73.0841C178.429 73.1059 178.453 73.1332 178.47 73.1642C178.488 73.1953 178.498 73.2296 178.502 73.265C178.506 73.3003 178.502 73.3361 178.492 73.3701C178.482 73.4042 178.464 73.4357 178.441 73.4629Z" fill="white"/>
<path d="M195.197 70.6561C194.74 70.6575 194.286 70.5838 193.853 70.438C193.389 70.3072 192.964 70.0661 192.613 69.7353C192.262 69.4044 191.996 68.9937 191.839 68.538C191.557 67.5967 192.137 66.4888 192.746 65.3179C193.452 63.9575 194.186 62.5569 193.532 61.4434C192.292 59.3368 187.436 57.5 187.39 57.477L187.539 57.0752C187.746 57.1556 192.591 58.9867 193.899 61.2253C194.674 62.5397 193.853 64.0953 193.124 65.5188C192.55 66.6094 192.022 67.6426 192.252 68.3888C192.389 68.7758 192.617 69.1243 192.917 69.4049C193.216 69.6856 193.579 69.8903 193.974 70.0017C194.425 70.1744 194.91 70.2419 195.392 70.1992C195.873 70.1564 196.338 70.0045 196.752 69.7549L197.005 70.105C196.474 70.4725 195.842 70.6651 195.197 70.6561Z" fill="#4F3B64"/>
<path d="M196.551 69.9443C196.56 69.4276 196.696 68.921 196.947 68.4691C197.462 67.779 198.055 67.1511 198.715 66.5979L198.996 66.9251C198.371 67.4414 197.81 68.0311 197.326 68.6815C197.112 69.067 196.994 69.4981 196.982 69.9386L196.551 69.9443Z" fill="#522E9F"/>
<path d="M198.084 70.3863C197.7 70.3785 197.316 70.3479 196.936 70.2945L196.999 69.8697C197.464 69.9412 197.935 69.9662 198.405 69.9443C199.151 69.6382 199.844 69.2179 200.46 68.6987L200.724 69.0374C200.558 69.1637 199.077 70.3059 198.428 70.3691C198.314 70.3804 198.199 70.3861 198.084 70.3863Z" fill="#522E9F"/>
<path d="M197.028 70.1166L196.66 69.8928C197.015 69.2814 197.426 68.7048 197.889 68.1708L199.611 66.6841L199.892 67.0113C199.892 67.0113 198.526 68.1593 198.17 68.4979C197.741 69.0018 197.359 69.5436 197.028 70.1166Z" fill="#522E9F"/>
<path d="M196.982 70.2601L196.821 69.8583C197.522 69.5936 198.198 69.2671 198.841 68.8825C199.197 68.5726 200.294 67.8493 200.34 67.8206L200.581 68.1765C200.581 68.1765 199.461 68.917 199.128 69.2097C198.445 69.6217 197.727 69.9732 196.982 70.2601Z" fill="#522E9F"/>
<path d="M178.82 60.7547L166.818 48.9705L184.107 51.5592L194.703 64.9334L178.82 60.7547Z" fill="#522E9F"/>
<path opacity="0.1" d="M178.82 60.7547L166.818 48.9705L184.107 51.5592L194.703 64.9334L178.82 60.7547Z" fill="black"/>
<path d="M170.825 57.8446L172.782 53.3157C172.782 53.3157 178.235 53.8094 181.581 55.738C184.928 57.6667 188.045 61.6502 188.045 61.6502L185.134 66.07C185.134 66.07 180.824 62.339 178.086 60.8351C175.739 59.668 173.312 58.6687 170.825 57.8446Z" fill="#522E9F"/>
<path d="M77.4111 215.654C77.4111 215.654 77.4111 238.677 77.4111 238.695C77.4111 243.097 77.4455 246.96 77.6636 248.952C77.6609 248.963 77.6609 248.975 77.6636 248.986C77.6634 249.458 77.7714 249.923 77.9793 250.347V250.375C79.2823 251.271 114.463 252.476 115.703 252.097C116.943 251.719 115.985 248.16 114.659 247.023C113.333 245.887 100.062 239.401 100.062 239.401L99.8373 216.389L77.4111 215.654Z" fill="#EB9481"/>
<path d="M77.418 233.971V238.695C77.418 243.097 77.4525 246.96 77.6706 248.952C77.6679 248.963 77.6679 248.975 77.6706 248.986C77.7211 249.451 77.8271 249.907 77.9863 250.347V250.375C79.2893 251.271 114.469 252.476 115.709 252.097C116.949 251.719 115.99 248.16 114.664 247.023C113.338 245.887 100.068 239.401 100.068 239.401L100.131 234.608L77.418 233.971Z" fill="white"/>
<path d="M115.749 252.103C114.504 252.476 79.3288 251.271 78.0144 250.381C77.515 250.048 77.3887 244.911 77.4404 238.7C77.4404 238.637 77.4404 238.574 77.4404 238.505L100.142 239.033V239.418C100.142 239.418 113.361 245.904 114.699 247.052C116.036 248.2 116.989 251.736 115.749 252.103Z" fill="#A6A6A6"/>
<path d="M115.393 250.726C109.47 250.375 85.5448 249.532 79.6555 249.635C79.6096 249.635 79.6096 249.669 79.6555 249.675C85.5218 250.146 109.458 250.823 115.393 250.823C115.52 250.823 115.52 250.731 115.393 250.726Z" fill="#4F3B64"/>
<path d="M102.008 239.544C99.7118 239.027 96.8418 239.286 94.982 240.887C94.9131 240.95 94.982 241.054 95.0796 241.031C97.3263 240.388 99.6355 239.988 101.967 239.837C102.003 239.837 102.038 239.823 102.065 239.8C102.092 239.776 102.11 239.743 102.115 239.708C102.119 239.672 102.111 239.636 102.092 239.606C102.072 239.576 102.042 239.554 102.008 239.544Z" fill="#4F3B64"/>
<path d="M103.667 240.617C101.371 240.101 98.5007 240.359 96.6467 241.961C96.5721 242.024 96.6467 242.127 96.7386 242.104C98.9855 241.462 101.294 241.062 103.626 240.91C103.662 240.91 103.697 240.897 103.724 240.873C103.751 240.849 103.769 240.817 103.773 240.781C103.778 240.746 103.77 240.709 103.751 240.679C103.731 240.649 103.701 240.627 103.667 240.617Z" fill="#4F3B64"/>
<path d="M105.308 241.691C103.012 241.174 100.142 241.433 98.2829 243.034C98.214 243.097 98.2829 243.2 98.3747 243.177C100.621 242.535 102.93 242.135 105.262 241.984C105.299 241.985 105.334 241.973 105.363 241.95C105.391 241.926 105.409 241.894 105.415 241.858C105.421 241.821 105.413 241.785 105.393 241.754C105.374 241.723 105.343 241.701 105.308 241.691Z" fill="#4F3B64"/>
<path d="M76.2753 199.1L76.281 199.358L76.7919 239.665L101.416 239.171L96.3595 116.295H75.5635L76.2753 199.1Z" fill="#4F3B64"/>
<path d="M100.389 235.067C96.5436 235.032 97.6457 234.987 93.7999 234.998C91.9229 234.998 79.5532 235.044 77.8025 235.36C77.7951 235.363 77.7887 235.368 77.7842 235.374C77.7797 235.381 77.7773 235.389 77.7773 235.397C77.7773 235.405 77.7797 235.413 77.7842 235.419C77.7887 235.426 77.7951 235.431 77.8025 235.434C79.5647 235.704 91.9229 235.434 93.8056 235.406C97.6514 235.325 96.5436 235.302 100.389 235.176C100.4 235.172 100.411 235.165 100.418 235.155C100.425 235.145 100.428 235.133 100.428 235.121C100.428 235.109 100.425 235.098 100.418 235.088C100.411 235.078 100.4 235.071 100.389 235.067Z" fill="#37474F"/>
<path d="M80.9704 221.4C80.9168 217.715 80.8575 214.032 80.7924 210.35C80.6508 202.988 80.5131 195.623 80.3791 188.257C80.1113 173.605 79.8759 158.951 79.6731 144.294C79.5468 136.029 79.5526 127.758 79.3402 119.498H79.3058C79.168 126.862 79.2541 134.232 79.2656 141.597C79.2771 148.961 79.3058 156.331 79.3804 163.696C79.5239 178.356 79.7248 193.01 80.0749 207.664C80.1725 211.797 80.2701 215.93 80.4136 220.057C80.5571 224.184 80.6489 228.328 80.9359 232.455C80.9359 232.469 80.9414 232.482 80.9511 232.492C80.9607 232.501 80.9739 232.507 80.9876 232.507C81.0013 232.507 81.0144 232.501 81.0241 232.492C81.0338 232.482 81.0392 232.469 81.0392 232.455C81.1081 228.77 81.0163 225.079 80.9704 221.4Z" fill="#37474F"/>
<path d="M75.5576 116.542L76.1029 179.286L92.7776 116.295H75.5633L75.5576 116.542Z" fill="#37474F"/>
<path d="M39.0572 204.14L27.1697 223.461C25.241 227.415 23.6224 230.923 22.9508 232.811C22.9483 232.822 22.9483 232.834 22.9508 232.845C22.7467 233.272 22.6427 233.739 22.6466 234.212C22.6466 234.212 22.6466 234.212 22.6466 234.246C23.4329 235.618 54.6126 251.96 55.8927 252.161C57.1727 252.361 57.8557 248.717 57.1497 247.138C56.4437 245.56 47.2999 233.936 47.2999 233.936L58.9808 214.541L39.0572 204.14Z" fill="#EB9481"/>
<path d="M22.6407 234.212C22.638 234.223 22.638 234.235 22.6407 234.246C23.4271 235.618 54.6068 251.96 55.8868 252.166C57.1668 252.373 57.8499 248.722 57.1496 247.138C56.4493 245.554 47.2997 233.936 47.2997 233.936L49.3834 230.492C44.2862 227.777 35.0333 223.03 29.2933 220.051L27.1868 223.495C25.2581 227.456 23.6337 230.957 22.9679 232.845C22.9654 232.857 22.9654 232.869 22.9679 232.88C22.7567 233.292 22.6447 233.748 22.6407 234.212Z" fill="white"/>
<path d="M55.8925 252.161C54.6125 251.96 23.4386 235.618 22.6464 234.246C22.3365 233.724 24.4545 229.046 27.1696 223.461L27.2557 223.288L47.4892 233.62L47.2997 233.959C47.2997 233.959 56.4378 245.548 57.1496 247.161C57.8613 248.774 57.1725 252.373 55.8925 252.161Z" fill="#A6A6A6"/>
<path d="M56.174 250.771C51.008 247.901 29.77 236.749 24.4432 234.292C24.3973 234.292 24.3858 234.292 24.4432 234.321C29.5231 237.294 50.8071 248.263 56.1453 250.858C56.2428 250.909 56.283 250.829 56.174 250.771Z" fill="#4F3B64"/>
<path d="M48.9583 234.889C47.0928 233.419 44.4007 232.409 42.0703 233.052C41.9785 233.081 42.0129 233.207 42.0703 233.224C44.3812 233.62 46.6425 234.265 48.8148 235.147C48.8484 235.16 48.8854 235.16 48.9192 235.148C48.9529 235.136 48.9811 235.112 48.9986 235.08C49.016 235.049 49.0216 235.012 49.0142 234.977C49.0068 234.942 48.9869 234.911 48.9583 234.889Z" fill="#4F3B64"/>
<path d="M49.9798 236.571C48.1143 235.101 45.4223 234.091 43.0918 234.74C43 234.74 43.0344 234.889 43.0918 234.906C45.4027 235.302 47.664 235.947 49.8363 236.829C49.8699 236.842 49.907 236.842 49.9407 236.83C49.9745 236.818 50.0027 236.794 50.0201 236.762C50.0376 236.731 50.0431 236.694 50.0357 236.659C50.0283 236.624 50.0085 236.592 49.9798 236.571Z" fill="#4F3B64"/>
<path d="M51.0023 238.253C49.1368 236.783 46.4447 235.773 44.1143 236.421C44.0224 236.421 44.0569 236.571 44.1143 236.588C46.4252 236.984 48.6865 237.629 50.8588 238.511C50.8923 238.524 50.9294 238.524 50.9631 238.512C50.9969 238.499 51.0251 238.475 51.0425 238.444C51.06 238.413 51.0655 238.376 51.0581 238.341C51.0507 238.306 51.0309 238.274 51.0023 238.253Z" fill="#4F3B64"/>
<path d="M93.5525 116.272C93.4606 116.702 92.0027 123.447 90.4988 129.244C89.4024 133.475 88.2717 137.2 87.6288 137.584C86.8941 138.015 83.3238 139.599 82.1241 140.093C82.1241 140.093 74.0881 180.192 69.852 192.625C65.9431 204.105 49.762 234.763 49.762 234.763L26.251 222.944C26.251 222.944 44.619 191.822 46.5246 186.237C49.5152 177.581 60.7197 135.311 60.7197 135.311C60.7197 135.311 60.6336 122.081 65.0935 116.301L93.5525 116.272Z" fill="#4F3B64"/>
<path d="M49.4007 230.205C46.0428 228.328 47.0301 228.822 43.6607 226.985C42.0076 226.084 31.1417 220.183 29.4542 219.615C29.414 219.615 29.3853 219.661 29.414 219.684C30.8318 220.769 41.7952 226.48 43.4655 227.347C46.9095 229.114 45.9222 228.569 49.349 230.303C49.3612 230.305 49.3739 230.304 49.3853 230.299C49.3966 230.293 49.4058 230.284 49.4117 230.273C49.4175 230.262 49.4196 230.25 49.4176 230.237C49.4156 230.225 49.4097 230.214 49.4007 230.205Z" fill="#37474F"/>
<path d="M66.747 131.603C67.3899 131.437 68.0787 131.385 68.7331 131.282C69.2669 131.196 69.7951 131.104 70.3174 130.989C71.3235 130.81 72.2766 130.408 73.107 129.812C73.9424 129.046 74.567 128.077 74.9209 127C75.1792 126.391 75.4489 125.783 75.7187 125.175L76.1206 124.296C76.3067 123.952 76.4733 123.597 76.6199 123.234C76.6237 123.224 76.6316 123.215 76.6419 123.21C76.6469 123.208 76.6524 123.206 76.658 123.206C76.6636 123.206 76.6692 123.207 76.6745 123.209C76.6798 123.21 76.6846 123.213 76.6888 123.217C76.6929 123.221 76.6962 123.225 76.6986 123.231C76.701 123.236 76.7025 123.241 76.7027 123.247C76.703 123.252 76.7021 123.258 76.7002 123.263C76.6109 123.511 76.5362 123.764 76.4764 124.021C76.3845 124.319 76.3041 124.595 76.2123 124.911C76.0458 125.433 75.891 125.961 75.713 126.483C75.4454 127.449 75.0597 128.378 74.5649 129.25C73.5949 130.794 71.8615 131.414 70.128 131.638C69.6344 131.701 69.135 131.735 68.6299 131.764C67.9996 131.819 67.3658 131.819 66.7356 131.764C66.7197 131.757 66.7064 131.745 66.6975 131.73C66.6886 131.715 66.6846 131.697 66.6858 131.68C66.6871 131.662 66.6936 131.646 66.7046 131.632C66.7155 131.618 66.7303 131.608 66.747 131.603Z" fill="#37474F"/>
<path d="M89.5236 136.66C86.9742 137.594 84.5102 138.746 82.1592 140.104C82.1424 140.116 82.1301 140.132 82.1245 140.152C82.1189 140.171 82.1203 140.192 82.1285 140.211C82.1368 140.229 82.1513 140.244 82.1695 140.253C82.1876 140.262 82.2084 140.264 82.228 140.259C84.7077 139.192 87.239 138.17 89.6556 136.97C89.6759 136.962 89.6944 136.949 89.7099 136.933C89.7254 136.917 89.7376 136.899 89.7458 136.878C89.7541 136.858 89.7582 136.836 89.758 136.814C89.7578 136.791 89.7532 136.77 89.7446 136.749C89.7359 136.729 89.7233 136.71 89.7075 136.695C89.6917 136.679 89.673 136.667 89.6525 136.659C89.632 136.651 89.61 136.647 89.5879 136.647C89.5658 136.647 89.5439 136.652 89.5236 136.66Z" fill="#37474F"/>
<path d="M90.2697 119.67C90.2697 119.584 90.1088 119.567 90.1146 119.67C90.1146 122.615 89.9424 125.203 89.6956 127.958C89.5808 129.233 88.5477 136.293 86.3378 135.782C85.9647 135.696 85.7637 135.329 85.7177 134.772C85.7267 134.039 85.827 133.31 86.0162 132.602C86.2573 131.127 86.4582 129.646 86.5902 128.154C86.8467 125.374 86.816 122.575 86.4984 119.802C86.4939 119.786 86.4845 119.773 86.4716 119.763C86.4586 119.753 86.4429 119.748 86.4266 119.748C86.4104 119.748 86.3948 119.753 86.3818 119.763C86.3689 119.773 86.3593 119.786 86.3549 119.802C86.4212 123.657 86.1967 127.512 85.6833 131.334C85.4078 133.165 84.4779 135.926 86.4008 136.213C88.3237 136.5 89.6209 131.873 89.8448 130.605C90.4573 126.993 90.6001 123.318 90.2697 119.67Z" fill="#37474F"/>
<path d="M86.3947 135.96C86.1951 136.435 86.0301 136.925 85.901 137.424C85.7571 137.807 85.685 138.214 85.6886 138.623C85.6917 138.64 85.6995 138.655 85.7113 138.668C85.723 138.68 85.7381 138.688 85.7547 138.692C85.7713 138.696 85.7885 138.694 85.8043 138.688C85.8202 138.682 85.8338 138.672 85.8436 138.658C86.0724 138.303 86.2466 137.916 86.3602 137.51C86.5267 137.056 86.7046 136.609 86.8596 136.149C86.8721 136.119 86.8784 136.086 86.8782 136.053C86.878 136.02 86.8713 135.988 86.8585 135.957C86.8457 135.927 86.8271 135.899 86.8036 135.876C86.7802 135.853 86.7524 135.835 86.7219 135.822C86.6913 135.81 86.6587 135.804 86.6257 135.804C86.5927 135.804 86.5601 135.811 86.5297 135.823C86.4994 135.836 86.4718 135.855 86.4486 135.878C86.4254 135.902 86.4071 135.929 86.3947 135.96Z" fill="#37474F"/>
<path d="M32.5943 219.018C35.9349 212.727 39.3789 206.487 42.8229 200.254C44.5449 197.183 46.3071 194.146 47.9373 191.035C49.4694 187.95 50.7126 184.73 51.6511 181.415C53.7251 174.695 55.6844 167.941 57.5288 161.153C59.3733 154.364 61.1106 147.547 62.7407 140.701C63.1483 138.979 63.596 137.257 63.9232 135.535C64.2187 133.789 64.2187 132.006 63.9232 130.26C63.6688 128.635 63.6553 126.981 63.883 125.352C64.1425 123.726 64.5264 122.122 65.0311 120.554C65.2894 119.727 65.5707 118.906 65.8577 118.091C65.8864 118 66.0299 118.04 66.0012 118.132C64.9852 121.449 63.9519 124.796 64.17 128.309C64.2733 129.996 64.7441 131.649 64.6924 133.348C64.5825 135.034 64.2957 136.704 63.8371 138.331C62.2414 145.219 60.5194 152.074 58.6711 158.897C56.8228 165.72 54.898 172.528 52.8966 179.32C51.8979 182.609 50.968 185.95 49.5502 189.078C48.1324 192.206 46.3416 195.191 44.654 198.199C41.1641 204.404 37.6455 210.597 34.0465 216.739L32.6689 219.075C32.6402 219.115 32.5656 219.069 32.5943 219.018Z" fill="#37474F"/>
<path d="M80.3741 89.885C84.616 91.785 103.299 95.2347 108.93 90.769C114.67 86.2172 118.401 67.235 118.832 64.9907C119.262 62.7463 104.648 59.2507 104.149 61.2884C102.874 66.5405 100.676 80.305 98.5183 81.0397C93.9837 82.578 89.5868 82.8535 82.274 84.2713C77.1769 85.2586 75.6903 87.7842 80.3741 89.885Z" fill="#EB9481"/>
<path d="M118.591 65.4614C119.469 63.8772 122.959 56.1799 123.429 53.8494C123.9 51.519 124.761 44.7056 123.01 44.166C121.26 43.6265 120.846 45.578 120.846 45.578C120.846 45.578 120.755 42.6448 118.946 42.266C117.138 41.8872 116.593 44.9696 116.593 44.9696C116.593 44.9696 116.277 41.9619 114.446 41.7093C112.615 41.4568 112.587 44.6539 112.587 44.6539C112.587 44.6539 112.432 41.8929 110.865 42.3234C108.942 42.8343 109.803 47.8912 109.091 50.4283C108.93 51.0023 104.987 61.8681 104.987 61.8681L118.591 65.4614Z" fill="#EB9481"/>
<path d="M112.598 44.43C113.224 48.1495 112.856 49.883 111.421 53.3155C111.418 53.3223 111.416 53.3297 111.415 53.3372C111.415 53.3448 111.416 53.3524 111.418 53.3596C111.421 53.3668 111.424 53.3734 111.429 53.3792C111.434 53.3849 111.44 53.3896 111.447 53.393C111.454 53.3964 111.461 53.3984 111.469 53.3989C111.476 53.3995 111.484 53.3985 111.491 53.3961C111.498 53.3937 111.505 53.3899 111.511 53.385C111.516 53.38 111.521 53.3739 111.525 53.3672C113.247 50.1413 114.01 48.029 112.776 44.3898C112.713 44.1832 112.569 44.2233 112.598 44.43Z" fill="#4F3B64"/>
<path d="M116.536 44.6941C116.851 48.6145 116.467 50.503 115.233 54.2053C115.233 54.257 115.302 54.2914 115.319 54.2397C116.84 50.7096 117.569 48.5858 116.737 44.7056C116.702 44.5334 116.524 44.5162 116.536 44.6941Z" fill="#4F3B64"/>
<path d="M120.777 45.7846C120.806 49.6017 120.473 51.6911 118.814 55.1293C118.805 55.1453 118.803 55.1643 118.808 55.182C118.813 55.1998 118.824 55.2149 118.84 55.224C118.856 55.2332 118.875 55.2356 118.893 55.2307C118.911 55.2259 118.926 55.2142 118.935 55.1982C120.973 51.8575 121.403 49.2573 120.892 45.7961C120.887 45.578 120.772 45.5435 120.777 45.7846Z" fill="#4F3B64"/>
<path d="M103.999 64.055C103.999 64.055 102.364 59.618 102.077 57.5114C101.79 55.4049 103.609 47.1794 105.411 47.4435C107.742 47.8223 107.633 52.7932 107.26 55.2154C107.26 55.2154 112.65 56.0822 113.338 59.6697C114.027 63.2572 103.999 64.055 103.999 64.055Z" fill="#EB9481"/>
<path d="M106.02 47.7593C107.897 49.6363 107.202 52.7875 107.013 55.1696C107.008 55.205 107.012 55.2411 107.024 55.2746C107.037 55.3081 107.057 55.3381 107.084 55.3619C107.11 55.3857 107.142 55.4026 107.177 55.4111C107.212 55.4196 107.248 55.4195 107.283 55.4107C109.516 55.9216 112.518 57.2992 113.425 59.5435C113.429 59.5572 113.439 59.5685 113.452 59.575C113.465 59.5814 113.48 59.5825 113.493 59.5779C113.507 59.5734 113.518 59.5636 113.525 59.5506C113.531 59.5377 113.532 59.5228 113.528 59.5091C112.885 56.972 110.049 55.382 107.564 54.9745C107.794 52.535 108.35 49.3435 106.037 47.7421C106.02 47.7306 106.008 47.7478 106.02 47.7593Z" fill="#4F3B64"/>
<path d="M103.242 64.7839C103.242 64.7839 100.004 79.6505 98.7249 80.3221C96.5896 81.4357 84.2027 83.548 79.7829 84.5353C75.3631 85.5225 71.9306 90.3097 83.2269 92.0604C94.5232 93.8111 104.786 96.5376 110.204 94.0866C113.574 92.5598 124.124 77.1594 124.124 77.1594L103.242 64.7839Z" fill="#522E9F"/>
<path d="M102.851 70.0418C111.117 74.5362 119.107 79.9318 120.571 80.8215C120.645 80.8674 120.571 80.965 120.479 80.9191C119.107 80.081 109.154 74.4616 102.742 70.1451C102.668 70.0992 102.771 69.9958 102.851 70.0418Z" fill="#4F3B64"/>
<path opacity="0.1" d="M107.817 94.7928C102.077 95.8433 93.0068 93.5817 83.2086 92.0606C76.3206 90.9872 74.9315 88.7831 75.8958 87.0037L107.817 94.7928Z" fill="black"/>
<path d="M60.6172 125.829C60.7147 125.904 97.2555 123.355 97.508 122.959C97.6458 122.741 97.1637 117.764 95.2868 111.812C92.1699 101.893 85.5288 88.519 81.0917 84.3977C79.3181 82.7503 74.3874 83.4621 72.4473 85.6146C66.6843 91.9802 60.267 125.548 60.6172 125.829Z" fill="#EBEBEB"/>
<path d="M71.6667 85.8384C71.6667 85.8384 74.6802 91.2972 75.6273 92.7264C77.8315 96.0556 83.0893 100.762 83.0893 100.762C83.5025 97.1924 83.5986 93.5927 83.3763 90.0057C83.2558 88.6625 81.6257 84.6216 81.6257 84.6216C81.6257 84.6216 91.5845 95.1258 96.8653 116.26C102.145 137.395 109.567 198.606 109.567 198.606C109.567 198.606 96.607 209.065 83.0721 209.03C61.1912 208.967 38.4551 194.301 38.4551 194.301C38.4551 194.301 45.986 181.863 46.5255 180.238C47.0651 178.614 58.2581 135.254 58.3844 134.892C58.5107 134.531 66.2252 92.2385 71.6667 85.8384Z" fill="#522E9F"/>
<path opacity="0.1" d="M86.8774 189.411C86.3321 192.126 83.0144 202.533 80.9365 208.979C76.7402 208.76 72.5748 208.137 68.498 207.119C72.4528 202.211 79.5475 191.23 80.6208 188.458C81.8779 185.209 83.0145 169.694 84.8284 168.196C86.6422 166.698 87.681 185.404 86.8774 189.411Z" fill="black"/>
<path opacity="0.1" d="M82.325 157.508C82.325 157.399 82.1356 157.364 82.1241 157.508C82.015 158.421 81.9863 159.345 81.8945 160.257C81.8027 161.17 81.6362 162.088 81.5099 163.007C81.2631 164.867 80.9818 166.726 80.7178 168.58C80.1897 172.266 79.4837 175.939 78.7088 179.578C78.2726 181.633 77.7158 183.682 77.1016 185.691C77.1016 185.749 77.1705 185.766 77.1877 185.691C78.5374 182.166 79.7004 178.571 80.6719 174.923C81.121 173.116 81.4735 171.286 81.728 169.441C82.0138 167.6 82.2054 165.746 82.302 163.885C82.3537 162.846 82.3307 161.807 82.3307 160.768C82.3307 159.729 82.3939 158.581 82.325 157.508Z" fill="black"/>
<path opacity="0.1" d="M104.906 199.617C104.906 200.38 104.832 201.138 104.774 201.913L104.045 202.355C104.045 202.297 104.045 202.234 104.045 202.177C103.994 201.029 103.965 199.932 103.931 198.807C103.804 194.87 103.667 190.938 103.311 187.012C103.219 186.03 103.19 185.049 103.098 184.067C102.976 183.071 102.917 182.068 102.92 181.065C102.901 180.083 102.807 179.105 102.639 178.138C102.519 177.139 102.369 176.146 102.243 175.153C102.246 175.144 102.252 175.136 102.26 175.131C102.268 175.126 102.277 175.123 102.286 175.123C102.295 175.123 102.305 175.126 102.312 175.131C102.32 175.136 102.326 175.144 102.329 175.153C102.582 176.249 102.783 177.351 102.995 178.453C103.098 179.027 103.19 179.555 103.299 180.106C103.408 180.657 103.569 181.185 103.672 181.731C104.381 185.672 104.784 189.661 104.878 193.664C104.941 195.627 104.97 197.619 104.906 199.617Z" fill="black"/>
<path opacity="0.1" d="M100.825 180.02C100.779 178.574 100.733 177.116 100.647 175.669C100.561 174.223 100.441 172.799 100.286 171.393C100.131 169.987 99.873 168.523 99.7467 167.048C99.6032 165.412 99.4482 163.77 99.3277 162.129C99.3277 162.048 99.1957 162.054 99.2014 162.129C99.276 163.581 99.3334 165.027 99.4023 166.48C99.4712 167.932 99.4023 169.384 99.4827 170.836C99.5917 173.706 99.873 176.576 100.228 179.446C100.435 181.088 100.739 182.712 100.883 184.36C100.883 184.417 100.98 184.411 100.974 184.36C100.854 182.93 100.871 181.472 100.825 180.02Z" fill="black"/>
<path opacity="0.1" d="M77.0451 189.899C76.0923 191.621 75.0935 193.343 74.0833 195.065C73.1821 196.586 72.2981 198.118 71.2534 199.548C70.2087 200.977 69.1584 202.286 68.0506 203.612C67.2699 204.542 66.4835 205.471 65.6627 206.361L64.9395 206.154L65.6627 205.276C67.6832 202.842 69.5372 200.282 71.4544 197.768C72.4359 196.483 73.4461 195.225 74.3645 193.888C75.2829 192.551 76.1439 191.219 76.9819 189.87C76.9857 189.862 76.9928 189.855 77.0014 189.852C77.01 189.849 77.0194 189.849 77.0278 189.853C77.0362 189.857 77.0428 189.864 77.046 189.872C77.0493 189.881 77.0489 189.89 77.0451 189.899Z" fill="black"/>
<path opacity="0.1" d="M72.7916 164.672C71.4599 168.793 70.111 172.897 68.5095 176.921C67.7232 178.895 66.7875 180.801 65.9036 182.735C65.0196 184.67 64.1816 186.61 63.1599 188.475C62.0122 190.585 60.7375 192.622 59.3428 194.577C59.3428 194.623 59.3829 194.669 59.4174 194.634C62.1437 191.343 64.4569 187.731 66.3054 183.878C67.2028 181.914 67.9904 179.902 68.6645 177.851C69.3935 175.819 70.0593 173.769 70.7137 171.714C71.4542 169.378 72.1544 167.036 72.8605 164.694C72.8595 164.687 72.8565 164.68 72.8517 164.674C72.8469 164.668 72.8405 164.664 72.8333 164.661C72.8261 164.659 72.8183 164.658 72.8109 164.66C72.8036 164.662 72.7968 164.666 72.7916 164.672Z" fill="black"/>
<path opacity="0.1" d="M97.4215 121.134C96.968 121.593 96.4572 121.995 95.9865 122.431L95.3149 123.068C95.0624 123.298 94.7926 123.47 94.5286 123.682C93.57 124.457 92.5827 125.192 91.6126 125.978C89.7133 127.506 87.6018 128.749 85.3445 129.669C80.345 131.626 74.8633 131.173 69.7604 129.973C66.7642 129.267 63.8425 128.251 60.8921 127.356C60.852 127.356 60.8233 127.419 60.8921 127.436C63.4637 128.584 66.0581 129.566 68.7387 130.427C71.3529 131.323 74.0707 131.883 76.8264 132.091C79.5467 132.272 82.2763 131.921 84.8624 131.058C87.2197 130.219 89.4358 129.027 91.4347 127.522C92.5945 126.672 93.6691 125.71 94.6433 124.652C95.1485 124.107 95.6306 123.539 96.13 122.993C96.6294 122.448 97.0714 121.845 97.565 121.271C97.5937 121.168 97.4904 121.065 97.4215 121.134Z" fill="black"/>
<path d="M65.9549 92.072C55.4564 86.8543 43.5689 79.2947 42.9432 73.13C42.3692 67.5851 46.0486 58.1543 49.9747 47.874C50.7554 45.8363 66.2878 52.7358 65.2431 54.8251C63.1767 58.9407 57.4023 67.8779 57.3104 70.547C57.2703 71.695 66.6953 81.2923 71.9876 87.876C78.4107 95.9235 70.1393 94.1671 65.9549 92.072Z" fill="#EB9481"/>
<path d="M53.2123 38.9827C51.3296 41.9503 48.9073 50.9276 49.2517 52.8907C49.5961 54.8538 62.3963 57.7927 63.9806 56.4954C65.5648 55.1982 71.1269 44.7112 70.7365 41.1467C70.3462 37.5821 55.1639 35.9061 53.2123 38.9827Z" fill="#EB9481"/>
<path d="M79.4095 36.5203C79.4095 36.5203 84.0015 40.8253 80.724 46.5366C80.724 46.5366 64.0378 47.2942 63.0275 47.4837C62.0173 47.6731 43.5115 52.8046 43.5115 52.8046C43.5115 52.8046 40.4062 48.6776 42.6333 42.0708C42.6333 42.0708 61.8106 42.5358 62.3674 42.4038C62.9242 42.2717 79.4095 36.5203 79.4095 36.5203Z" fill="#EBEBEB"/>
<path d="M43.5062 52.8046C43.5062 52.8046 46.7837 46.5767 42.6279 42.0708C42.6279 42.0708 39.9532 46.9556 43.5062 52.8046Z" fill="#DBDBDB"/>
<path d="M63.0277 47.4837C63.1368 47.6099 63.1884 47.4837 63.2114 47.3689C63.2351 47.2532 63.2523 47.1363 63.2631 47.0187C63.2631 46.7776 63.2631 46.5366 63.2631 46.2955C63.2605 45.8121 63.2317 45.3292 63.177 44.849C63.1253 44.3726 63.0564 43.8904 62.9646 43.4197C62.9217 43.1856 62.8603 42.9553 62.7809 42.7309C62.7005 42.5358 62.5915 42.2488 62.3389 42.4037C62.3735 42.3429 62.4284 42.2962 62.4939 42.2717C62.5709 42.2589 62.65 42.2731 62.7178 42.3119C62.8398 42.3806 62.944 42.4769 63.022 42.5932C63.1794 42.8053 63.3051 43.0393 63.3951 43.2877C63.5738 43.7725 63.6914 44.2777 63.7452 44.7916C63.8036 45.3037 63.7901 45.8215 63.7051 46.3299C63.6651 46.5864 63.5997 46.8383 63.5099 47.0819C63.4645 47.207 63.4048 47.3264 63.332 47.4377C63.2934 47.503 63.2378 47.5565 63.1712 47.5927C63.1537 47.6053 63.1326 47.6121 63.111 47.6121C63.0893 47.6121 63.0683 47.6053 63.0507 47.5927C63.0381 47.5576 63.0304 47.5209 63.0277 47.4837Z" fill="#522E9F"/>
<path d="M62.7694 47.5411C62.89 47.6616 62.9301 47.5411 62.9474 47.4148C62.9563 47.2944 62.9563 47.1735 62.9474 47.0532C62.9474 46.8121 62.9474 46.5653 62.9474 46.3242C62.9104 45.8389 62.8472 45.3561 62.7579 44.8777C62.6718 44.4013 62.5685 43.9191 62.448 43.4484C62.389 43.2141 62.3142 42.9839 62.2241 42.7596C62.1826 42.653 62.1265 42.5526 62.0577 42.4612C62.041 42.4397 62.0197 42.4223 61.9953 42.4104C61.971 42.3984 61.9442 42.3922 61.917 42.3922C61.8899 42.3922 61.8631 42.3984 61.8387 42.4104C61.8144 42.4223 61.793 42.4397 61.7764 42.4612C61.7883 42.4272 61.808 42.3966 61.8339 42.3716C61.8599 42.3467 61.8913 42.3282 61.9256 42.3177C62.0026 42.307 62.081 42.3211 62.1495 42.3578C62.27 42.4329 62.3768 42.528 62.4652 42.6391C62.6249 42.8485 62.7598 43.0758 62.867 43.3164C63.0741 43.7911 63.2263 44.288 63.3205 44.7973C63.4168 45.3099 63.4419 45.8334 63.3951 46.3529C63.3728 46.6134 63.3248 46.871 63.2516 47.122C63.2153 47.2514 63.1653 47.3765 63.1023 47.4951C63.0657 47.5611 63.0147 47.6179 62.9531 47.6616C62.8498 47.6903 62.7809 47.5927 62.7694 47.5411Z" fill="#522E9F"/>
<path d="M62.5687 47.5927C62.5881 47.6167 62.614 47.6347 62.6434 47.6444C62.6484 47.589 62.6484 47.5333 62.6434 47.4779C62.6434 47.3574 62.5917 47.2426 62.563 47.122L62.3908 46.4103C62.276 45.9396 62.1784 45.4574 62.0751 44.981C61.9718 44.5046 61.9029 44.0224 61.8225 43.546C61.7824 43.3049 61.7479 43.0639 61.6963 42.8343C61.6733 42.7207 61.6406 42.6093 61.5987 42.5013C61.5585 42.398 61.4781 42.3406 61.3633 42.4439C61.3742 42.409 61.3944 42.3778 61.4217 42.3535C61.449 42.3292 61.4824 42.3129 61.5183 42.3062C61.5979 42.3127 61.672 42.3497 61.725 42.4095C61.8153 42.5061 61.8925 42.6142 61.9546 42.7309C62.0719 42.9563 62.1717 43.1904 62.253 43.4312C62.4139 43.9021 62.5424 44.3835 62.6376 44.872C62.7391 45.3584 62.8062 45.8513 62.8385 46.3471C62.8529 46.5976 62.8529 46.8486 62.8385 47.0991C62.8385 47.2254 62.8385 47.3516 62.7983 47.4779C62.7843 47.545 62.7632 47.6105 62.7352 47.6731C62.7267 47.6953 62.7104 47.7137 62.6893 47.7247C62.6789 47.7336 62.6656 47.7385 62.652 47.7385C62.6383 47.7385 62.6251 47.7336 62.6147 47.7247C62.5897 47.6847 62.574 47.6396 62.5687 47.5927Z" fill="#522E9F"/>
<path d="M70.2365 46.7547C68.5719 47.5812 68.5489 45.1417 68.5489 45.1417C68.5489 45.1417 67.7338 48.6604 65.6789 48.8498C63.624 49.0392 63.779 46.0831 63.7847 45.8707C63.7388 46.0544 62.9065 49.2745 60.8286 49.2516C58.7507 49.2286 59.2501 46.284 59.2903 46.0888C59.1927 46.2553 57.8725 48.3848 56.294 48.0003C53.5847 47.3574 56.8163 41.8355 56.1562 39.6773C56.1562 39.6773 53.1714 39.2008 53.0566 39.2008C53.0566 39.2008 55.2264 35.0623 58.1825 34.3333C58.6105 34.2206 59.0641 34.2577 59.4682 34.4383C59.8722 34.6189 60.2024 34.9323 60.4038 35.3263C60.4038 35.3263 61.1902 33.524 62.8146 33.4666C63.6584 33.4666 64.4333 34.781 64.4333 34.781C64.6282 34.3789 64.9299 34.0382 65.3055 33.7962C65.6812 33.5542 66.1162 33.4203 66.5629 33.4092C67.7109 33.4551 68.325 34.781 68.325 34.781C68.325 34.781 69.6108 33.7077 70.7818 34.1382C73.1581 35.0049 73.8182 45.004 70.2365 46.7547Z" fill="#EB9481"/>
<path d="M64.4502 34.735C64.4502 34.6948 64.5076 34.6834 64.5191 34.735C65.6597 38.4401 65.4357 42.4312 63.8877 45.9854C63.8303 46.106 63.6581 46.1576 63.7097 45.9854C64.6339 43.5402 64.9323 37.9265 64.4502 34.735Z" fill="#4F3B64"/>
<path d="M59.0895 46.3014C60.5704 42.8115 60.8115 39.201 60.4614 35.4586C60.4614 35.4126 60.5302 35.4126 60.5417 35.4586C61.1961 37.2437 61.1502 39.6487 60.955 41.5142C60.8144 43.2518 60.2207 44.9223 59.233 46.3588C59.1756 46.4105 59.0608 46.376 59.0895 46.3014Z" fill="#4F3B64"/>
<path d="M68.5487 45.1417C68.3307 45.8031 68.0519 46.443 67.7163 47.0532C67.4151 47.6565 66.9597 48.1694 66.3962 48.5398C66.128 48.697 65.8105 48.7482 65.5064 48.6833C65.2013 48.6135 64.9188 48.4674 64.6856 48.2586C64.4744 48.0279 64.3142 47.7554 64.2153 47.4587C64.1164 47.162 64.0811 46.8478 64.1117 46.5366L64.1748 45.0097L63.6008 46.4218C63.348 47.0497 62.9931 47.6316 62.5504 48.1438C62.3585 48.3931 62.1161 48.5991 61.8392 48.7484C61.5623 48.8978 61.257 48.9871 60.9432 49.0105C60.6515 49.0291 60.3623 48.9469 60.124 48.7776C59.8857 48.6083 59.7129 48.3622 59.6345 48.0806C59.4679 47.4466 59.4679 46.7803 59.6345 46.1462L60.0248 44.3783L59.0777 45.9109C58.8167 46.3324 58.5022 46.7182 58.1421 47.0589C57.8102 47.4002 57.3848 47.6358 56.9195 47.7362C56.7054 47.7784 56.4836 47.7587 56.2803 47.6794C56.077 47.6001 55.9005 47.4645 55.7715 47.2885C55.5476 46.8594 55.4482 46.3763 55.4845 45.8937C55.5556 44.8488 55.7052 43.8107 55.9321 42.7883C56.0354 42.2717 56.1331 41.7494 56.2077 41.2213C56.3197 40.6972 56.3197 40.1554 56.2077 39.6313C56.2653 40.1547 56.2244 40.6843 56.0872 41.1926C55.9724 41.7092 55.8346 42.2201 55.6969 42.7309C55.3909 43.7577 55.1814 44.8108 55.0712 45.8765C55.0056 46.4535 55.1072 47.0373 55.3639 47.5583C55.5357 47.8262 55.7821 48.038 56.0728 48.1675C56.3635 48.2971 56.6858 48.3387 56.9998 48.2873C57.5794 48.1783 58.1132 47.8984 58.5324 47.4837C58.9414 47.1021 59.3001 46.6701 59.6 46.1979L59.0261 45.9683C58.823 46.7202 58.823 47.5124 59.0261 48.2643C59.1466 48.6759 59.4037 49.0342 59.755 49.2803C60.1118 49.5059 60.527 49.6217 60.949 49.6132C61.3472 49.584 61.7348 49.4707 62.086 49.2807C62.4373 49.0907 62.7442 48.8284 62.9867 48.5111C63.4746 47.9413 63.8627 47.2931 64.1347 46.594L63.6123 46.4792C63.5945 46.8669 63.6618 47.2539 63.8095 47.6129C63.9573 47.9719 64.1819 48.2942 64.4676 48.557C64.7688 48.7988 65.126 48.9607 65.5064 49.0277C65.905 49.0937 66.3141 49.0099 66.6545 48.7924C67.2485 48.3547 67.7062 47.7576 67.9746 47.0704C68.2341 46.4498 68.4266 45.8032 68.5487 45.1417Z" fill="#4F3B64"/>
<path d="M65.2435 54.8769C65.2435 54.8769 77.5443 46.4448 71.8904 43.2821C70.2143 42.3292 62.1841 40.4121 61.7708 42.0422C61.2427 44.1201 64.4456 45.5322 66.5981 46.1004C66.5981 46.1004 62.0061 48.3964 62.6433 52.0471C62.7762 52.7115 63.0889 53.3268 63.5474 53.8258C64.0059 54.3248 64.5926 54.6883 65.2435 54.8769Z" fill="#EB9481"/>
<path d="M72.3433 43.5459C71.7302 43.0939 71.053 42.736 70.3343 42.484C69.623 42.2118 68.8943 41.9874 68.1531 41.8124C66.6713 41.4386 65.1598 41.1947 63.6357 41.0835C63.2318 41.0561 62.8261 41.0851 62.4303 41.1696C62.2021 41.2231 61.9872 41.3228 61.7989 41.4623C61.7001 41.5436 61.6132 41.6383 61.5406 41.7436C61.4741 41.8524 61.4238 41.9704 61.3913 42.0937C61.2862 42.5389 61.3432 43.007 61.5521 43.4139C61.7565 43.7834 62.0224 44.1153 62.3384 44.3954C62.9361 44.911 63.6175 45.3206 64.3532 45.6066C65.0658 45.8999 65.7986 46.1416 66.5459 46.3298L66.4999 45.8362C65.9855 46.1138 65.4991 46.4406 65.0477 46.812C64.5951 47.1737 64.1832 47.5837 63.8194 48.0346C63.4507 48.4833 63.1544 48.9869 62.9411 49.527C62.7203 50.0581 62.6072 50.6279 62.6082 51.2031C62.6799 50.6442 62.849 50.1022 63.1076 49.6016C63.3659 49.11 63.6904 48.6562 64.0719 48.2527C64.4478 47.8453 64.8631 47.4761 65.3118 47.1506C65.7567 46.8269 66.2314 46.5463 66.7295 46.3126L67.3437 46.0256L66.6836 45.819C65.9715 45.6121 65.2735 45.359 64.5943 45.0613C63.9273 44.7773 63.3093 44.3899 62.7632 43.9133C62.5062 43.7207 62.3027 43.4656 62.1721 43.1723C62.0415 42.8789 61.9881 42.557 62.017 42.2372C62.1088 41.7321 62.9354 41.6632 63.6414 41.6632C64.3474 41.6632 65.1166 41.7665 65.8628 41.8526C66.609 41.9387 67.3495 42.042 68.0842 42.1798C69.5659 42.4123 71.0027 42.8732 72.3433 43.5459Z" fill="#4F3B64"/>
<path d="M64.2155 56.9602C64.2155 56.9602 57.6375 69.5193 58.1713 70.8682C59.0553 73.1068 70.122 84.8566 72.8083 88.4843C75.4946 92.112 77.1707 96.6638 66.9306 94.5342C59.6063 93.0016 42.8512 83.169 40.1994 76.8149C38.3683 72.4238 38.8734 54.5781 38.8734 54.5781L64.2155 56.9602Z" fill="#522E9F"/>
<path d="M40.555 59.1416C49.9571 59.4688 59.497 60.7258 61.219 60.8636C61.2993 60.8636 61.2534 61.0014 61.173 60.9956C59.5716 60.8579 48.1605 60.2839 40.509 59.2736C40.4172 59.2736 40.4631 59.1416 40.555 59.1416Z" fill="#4F3B64"/>
<path d="M77.0967 82.1819C73.0787 82.1819 67.1665 88.823 67.4191 90.5909C67.7922 93.1166 71.5863 111.64 72.1086 116.588C72.631 121.535 62.3506 145.288 62.3506 145.288L69.1066 143.319L71.6839 149.334C71.6839 149.334 80.7244 128.561 81.4419 119.624C82.1594 110.687 72.2579 88.0022 72.7056 86.6418C73.1533 85.2814 75.8798 83.6341 77.2459 83.5824C78.6121 83.5308 81.2639 85.7349 82.9171 88.0654C84.5702 90.3958 92.4512 106.967 93.8231 113.017C95.1949 119.067 92.1872 143.686 92.1872 143.686L97.5426 139.697L102.983 144.513C102.983 144.513 104.281 120.852 102.352 110.951C101.129 104.637 93.8575 93.3289 87.0671 86.9403C83.1811 83.2897 79.5018 82.1761 77.0967 82.1819Z" fill="#331056"/>
<path d="M80.3276 90.2468C78.8581 90.6026 75.2362 88.4386 73.5773 86.3378C73.4683 86.1943 73.4281 84.478 73.2789 82.4002C73.187 81.1374 73.055 79.7368 72.8369 78.4683L81.1369 79.0423C80.9508 80.7085 80.9681 82.3912 81.1886 84.0533C81.2219 84.2273 81.2699 84.3982 81.3321 84.5641C81.3321 84.5641 81.3321 84.6158 81.3321 84.6503C81.688 85.6261 82.6236 89.69 80.3276 90.2468Z" fill="#EB9481"/>
<path d="M81.3323 84.5755C81.334 84.6042 81.334 84.6329 81.3323 84.6616C81.0654 84.7426 80.793 84.804 80.5172 84.8453C75.9712 85.5054 73.9277 80.173 73.4111 78.5312L81.1085 79.0766C80.9223 80.7429 80.9397 82.4256 81.1601 84.0876C81.2047 84.2545 81.2623 84.4176 81.3323 84.5755Z" fill="#4F3B64"/>
<path d="M78.502 62.3503C78.502 62.3503 81.5269 62.8439 82.6921 65.5302C83.8573 68.2165 83.909 71.3046 83.6966 71.5055C83.4842 71.7064 78.502 62.3503 78.502 62.3503Z" fill="#4F3B64"/>
<path d="M69.1583 68.9284C69.0378 71.9189 72.6022 79.5474 75.0475 80.8102C78.5833 82.6527 83.3246 81.6712 84.6275 77.6589C85.8731 73.7672 81.063 63.9461 78.4111 62.8727C74.5596 61.3286 69.3363 64.5201 69.1583 68.9284Z" fill="#EB9481"/>
<path d="M75.8499 70.5585C76.0508 70.4035 76.2115 70.2255 76.4239 70.0476C76.6424 69.8948 76.8055 69.6752 76.8888 69.4219C76.8979 69.3371 76.8793 69.2516 76.8359 69.1782C76.7925 69.1047 76.7265 69.0473 76.6478 69.0144C76.4807 68.9756 76.3064 68.9822 76.1428 69.0337C75.9793 69.0852 75.8325 69.1796 75.7179 69.3071C75.4454 69.5262 75.2651 69.8397 75.2128 70.1854C75.2079 70.2618 75.2244 70.338 75.2603 70.4056C75.2963 70.4732 75.3503 70.5295 75.4164 70.5682C75.4824 70.6069 75.558 70.6265 75.6345 70.6248C75.7111 70.623 75.7856 70.6001 75.8499 70.5585Z" fill="#4F3B64"/>
<path d="M80.9764 68.3428C80.7321 68.3955 80.4848 68.4338 80.236 68.4576C79.9797 68.5345 79.7052 68.5244 79.4553 68.4289C79.3816 68.385 79.325 68.3173 79.2948 68.237C79.2646 68.1568 79.2625 68.0686 79.2889 67.9869C79.3621 67.8327 79.4752 67.7009 79.6165 67.605C79.7578 67.5091 79.9221 67.4527 80.0925 67.4416C80.4349 67.3674 80.7928 67.4226 81.097 67.5966C81.1641 67.6403 81.2171 67.7025 81.2495 67.7757C81.2819 67.8489 81.2924 67.9299 81.2796 68.009C81.2668 68.088 81.2314 68.1616 81.1776 68.2209C81.1238 68.2802 81.0539 68.3225 80.9764 68.3428Z" fill="#4F3B64"/>
<path d="M78.8175 76.4534C78.989 76.559 79.1926 76.5997 79.3915 76.5682C79.5823 76.4803 79.7525 76.3531 79.891 76.1951C79.891 76.1951 79.931 76.1951 79.9253 76.1951C79.896 76.3308 79.8304 76.456 79.7354 76.5571C79.6403 76.6582 79.5194 76.7315 79.3857 76.7691C79.2676 76.7919 79.1454 76.777 79.0362 76.7265C78.927 76.6761 78.8366 76.5926 78.7774 76.4879C78.7773 76.4828 78.7783 76.4778 78.7803 76.4732C78.7824 76.4686 78.7856 76.4645 78.7894 76.4612C78.7933 76.458 78.7977 76.4555 78.8025 76.4542C78.8074 76.4528 78.8125 76.4526 78.8175 76.4534Z" fill="#4F3B64"/>
<path d="M80.546 74.5938C80.4459 74.9748 80.2481 75.3229 79.972 75.6039C79.8165 75.7588 79.6151 75.8594 79.3979 75.8909C78.933 75.9598 78.7609 75.581 78.6977 75.2193C78.6637 75.03 78.654 74.8371 78.669 74.6453C79.2837 74.8326 79.9426 74.8143 80.546 74.5938Z" fill="#4F3B64"/>
<path d="M79.9833 75.604C79.8278 75.7589 79.6265 75.8595 79.4093 75.891C78.9444 75.9599 78.7722 75.5811 78.709 75.2194C78.9336 75.1298 79.1819 75.119 79.4134 75.1889C79.6449 75.2587 79.8458 75.4051 79.9833 75.604Z" fill="#FF9BBC"/>
<path d="M76.4697 71.8269C76.4438 71.6748 76.4577 71.5186 76.5099 71.3734C76.5429 71.2966 76.5909 71.2271 76.651 71.169C76.7111 71.1108 76.7822 71.0652 76.86 71.0348C76.9422 71.0084 77.0293 71.0009 77.1147 71.0128C77.2002 71.0248 77.2819 71.0558 77.3537 71.1037C77.4752 71.1934 77.5752 71.3091 77.6464 71.4423C77.6867 71.522 77.7213 71.6045 77.7497 71.6891C77.8179 71.8623 77.8416 72.0498 77.8186 72.2344C77.7825 72.1042 77.7304 71.9789 77.6636 71.8613C77.6087 71.7537 77.5434 71.6519 77.4685 71.5571C77.3192 71.3562 77.1241 71.2185 76.9519 71.2931C76.7797 71.3677 76.6764 71.5571 76.6821 71.8097C76.6967 72.0671 76.7351 72.3227 76.7969 72.5731C76.6319 72.3528 76.52 72.0975 76.4697 71.8269Z" fill="#4F3B64"/>
<path d="M81.5046 69.5081C81.4177 69.3823 81.296 69.2846 81.1544 69.2269C81.0776 69.1929 80.9945 69.1753 80.9105 69.1753C80.8265 69.1753 80.7434 69.1929 80.6665 69.2269C80.5908 69.2676 80.5251 69.3249 80.4744 69.3944C80.4238 69.464 80.3894 69.544 80.3738 69.6287C80.3576 69.7791 80.3712 69.9313 80.414 70.0764C80.414 70.1625 80.4829 70.2429 80.5173 70.3232C80.5995 70.49 80.7194 70.6355 80.8674 70.748C80.7998 70.6322 80.7458 70.5089 80.7067 70.3806C80.6673 70.2649 80.6384 70.1457 80.6206 70.0247C80.5805 69.7837 80.6206 69.5426 80.7928 69.4507C80.8925 69.4083 81.0037 69.401 81.1081 69.4302C81.2124 69.4595 81.3037 69.5234 81.3668 69.6115C81.5417 69.8017 81.6993 70.0073 81.8375 70.2256C81.7837 69.9639 81.6697 69.7182 81.5046 69.5081Z" fill="#4F3B64"/>
<path d="M71.752 75.6383C72.7451 75.4948 72.4982 72.4125 72.326 71.276C72.1538 70.2772 71.1092 67.3441 71.0575 67.1317C71.0058 66.9193 76.0111 67.8088 77.8938 66.1327C79.7766 64.4566 80.2989 61.7992 79.8914 60.8693C79.4838 59.9395 75.6438 58.912 73.2444 59.928C70.8451 60.944 69.0887 65.4212 69.0887 65.4212C69.2645 64.8026 69.3912 64.1712 69.4675 63.5327C69.3814 63.4409 68.1531 64.7725 68.3884 65.9837C68.3884 65.9837 68.044 64.4855 67.9177 64.5142C67.7914 64.5429 67.1658 66.2362 67.8488 67.0169C67.8488 67.0169 67.051 68.8478 67.5389 70.2025C68.0268 71.5571 70.5868 75.8105 71.752 75.6383Z" fill="#4F3B64"/>
<path d="M79.2032 64.9333C78.7207 65.592 78.14 66.1728 77.4812 66.6553C76.7156 67.1014 75.8525 67.3539 74.9671 67.3902C74.0778 67.454 73.1842 67.3725 72.3211 67.1491C71.5634 66.9597 70.8171 66.6497 70.025 66.5292C69.8356 66.5005 69.7667 66.7875 69.9159 66.8793C71.5429 67.7863 73.4183 68.1465 75.2656 67.9068C76.1238 67.7966 76.9388 67.4651 77.6301 66.9449C78.3215 66.4246 78.8656 65.7334 79.2091 64.9392L79.2032 64.9333Z" fill="#4F3B64"/>
<path d="M72.5841 75.0012C72.5841 75.0012 70.047 72.9406 69.0655 73.9164C68.0839 74.8922 70.489 78.2386 72.0101 78.3591C72.2033 78.3881 72.4004 78.3776 72.5895 78.3283C72.7785 78.279 72.9557 78.1919 73.1102 78.0723C73.2647 77.9527 73.3933 77.803 73.4883 77.6323C73.5834 77.4616 73.6429 77.2734 73.6632 77.0791L72.5841 75.0012Z" fill="#EB9481"/>
<path d="M69.8008 74.852C69.8008 74.852 69.8008 74.8864 69.8008 74.8922C70.8742 75.007 71.6319 75.7531 72.2518 76.5797C72.1684 76.4988 72.0685 76.437 71.9588 76.3985C71.8492 76.3599 71.7326 76.3456 71.6169 76.3566C71.5012 76.3675 71.3893 76.4033 71.2888 76.4617C71.1884 76.52 71.1017 76.5995 71.0349 76.6945C71.0349 76.6945 71.0349 76.7519 71.0809 76.7404C71.2311 76.6342 71.4106 76.5771 71.5946 76.5771C71.7786 76.5771 71.9581 76.6342 72.1083 76.7404C72.3526 76.9302 72.5776 77.1436 72.7799 77.3776C72.8488 77.4522 72.9865 77.3776 72.9291 77.2685C72.5733 76.0516 71.1325 74.6051 69.8008 74.852Z" fill="#4F3B64"/>
<path d="M81.4012 84.4208L79.6275 89.3857L73.3135 83.4333L71.6719 85.4883C71.6719 85.4883 77.9859 95.0914 78.0146 94.6437L79.8686 90.3502L82.8936 93.1743L82.3712 85.8156L81.4012 84.4208Z" fill="#EBEBEB"/>
<path d="M82.8362 89.5236C82.7099 88.3067 82.6181 87.0841 82.4344 85.8787C82.4344 85.8385 82.3598 85.8213 82.3483 85.8787C82.1531 87.0612 82.6583 91.6933 82.6984 92.8069C82.5722 92.6806 79.8973 90.3272 79.8744 90.3674C79.4668 91.0562 78.1007 94.1845 78.0146 94.4658C77.0101 92.9389 73.1873 87.3998 72.0163 85.9648C72.0102 85.9557 72.0007 85.9493 71.99 85.9472C71.9792 85.945 71.968 85.9472 71.9589 85.9533C71.9498 85.9594 71.9434 85.9689 71.9413 85.9797C71.9391 85.9904 71.9413 86.0016 71.9474 86.0107C72.8429 87.6294 77.9055 95.0914 77.9802 95.0685C78.7038 93.5898 79.3495 92.0743 79.9145 90.5281C80.3737 91.0447 83.0773 93.7138 83.083 93.5359C83.0704 92.1951 82.988 90.8558 82.8362 89.5236Z" fill="#4F3B64"/>
<path d="M84.2022 23.898C83.7912 23.884 83.387 23.789 83.0127 23.6186C82.6385 23.4482 82.3015 23.2057 82.021 22.905C81.6173 22.5284 81.3042 22.0652 81.1054 21.5502C80.9065 21.0352 80.8271 20.4818 80.873 19.9316L81.2978 20.0063C81.2604 20.4909 81.3334 20.9778 81.5114 21.4302C81.6894 21.8825 81.9676 22.2887 82.3252 22.618C82.6021 22.9243 82.9481 23.1602 83.3344 23.306C83.7208 23.4517 84.1364 23.5032 84.5466 23.456C85.4076 23.3068 86.1883 22.5032 87.0148 21.6594C88.0078 20.6434 89.0353 19.5872 90.4301 19.3634C93.1164 18.8812 96.658 22.4917 96.8073 22.6467L96.4973 22.9451C96.4629 22.9107 92.9672 19.3347 90.5047 19.7881C89.2477 20.012 88.2719 21.0108 87.3248 21.9808C86.3777 22.9509 85.6028 23.7028 84.6212 23.9037C84.4816 23.9132 84.3415 23.9113 84.2022 23.898Z" fill="#4F3B64"/>
<path d="M81.2803 20.2702L81.0967 19.8799C81.486 19.6749 81.8206 19.3797 82.0725 19.0189C82.4357 18.2886 82.7113 17.5179 82.8933 16.7229L83.3123 16.8262C83.1162 17.6626 82.8193 18.4721 82.4284 19.237C82.1396 19.6732 81.7445 20.0288 81.2803 20.2702Z" fill="#522E9F"/>
<path d="M80.7807 20.0809C80.4838 19.6698 80.2336 19.227 80.0345 18.7607C79.8106 18.1867 80.1722 16.3384 80.2124 16.1318L80.6372 16.2179C80.4448 17.0002 80.377 17.808 80.4363 18.6114C80.6257 19.0415 80.8584 19.4512 81.1308 19.8341L80.7807 20.0809Z" fill="#522E9F"/>
<path d="M81.2804 20.1497L80.9131 19.9201C81.2752 19.3758 81.5865 18.7994 81.843 18.1981L82.417 15.9824L82.836 16.0857C82.836 16.0857 82.3997 17.8077 82.262 18.3071C81.9942 18.9511 81.6655 19.5681 81.2804 20.1497Z" fill="#522E9F"/>
<path d="M80.787 20.0235C80.7195 19.229 80.7195 18.4301 80.787 17.6355C80.9018 17.2108 81.0625 15.9136 81.0625 15.8792L81.4928 15.9309C81.4928 15.9825 81.3265 17.2911 81.206 17.7446C81.1414 18.4913 81.1414 19.2423 81.206 19.989L80.787 20.0235Z" fill="#522E9F"/>
<path d="M106.41 24.8567L120.709 15.9941L103.27 14.7256L89.999 25.4479L106.41 24.8567Z" fill="#522E9F"/>
<path opacity="0.1" d="M106.41 24.8567L120.709 15.9941L103.27 14.7256L89.999 25.4479L106.41 24.8567Z" fill="black"/>
<path d="M114.837 23.7661L113.924 18.9215C113.924 18.9215 108.494 18.2097 104.809 19.352C101.124 20.4943 97.1855 23.7144 97.1855 23.7144L99.0741 28.6623C99.0741 28.6623 104.103 25.9702 107.111 25.1092C109.651 24.4815 112.233 24.0327 114.837 23.7661Z" fill="#522E9F"/>
</svg>
