<svg width="512" height="512" viewBox="0 0 512 512" fill="none" xmlns="http://www.w3.org/2000/svg">
<path d="M165.277 262.773C165.552 251.594 159.095 241.341 148.894 236.76C138.693 232.18 126.74 234.166 118.568 241.799L71.8592 285.903C60.7171 296.412 60.2043 313.964 70.7139 325.107C81.2236 336.249 98.7758 336.761 109.918 326.252L156.627 282.148C161.98 277.103 165.095 270.127 165.277 262.773Z" fill="#331056"/>
<path d="M378.089 27.0463C341.52 25.9246 306.016 39.4429 279.453 64.6019C81.9198 251.132 272.995 70.71 186.036 152.836C182.478 156.256 180.382 160.921 180.188 165.852C179.685 185.973 215.076 201.719 237.397 180.61L304.451 117.32C309.648 112.413 316.581 109.772 323.725 109.978C330.87 110.183 337.64 113.219 342.546 118.416L475.046 258.847C554.72 173.361 497.718 30.5405 378.089 27.0463Z" fill="#331056"/>
<path d="M266.051 369.592C266.327 358.413 259.869 348.16 249.668 343.58C239.468 338.999 227.514 340.985 219.343 348.618L172.634 392.722C165.428 399.52 162.396 409.647 164.681 419.287C166.965 428.927 174.219 436.616 183.71 439.457C193.201 442.298 203.486 439.861 210.693 433.062L257.401 388.958C262.757 383.918 265.872 376.944 266.051 369.592Z" fill="#331056"/>
<path d="M468.444 277.998C467.546 277.36 470.339 280.046 329.467 130.749C327.831 129.016 325.573 128.005 323.191 127.938C320.809 127.87 318.498 128.752 316.766 130.389L249.712 193.662C239.146 203.662 225.034 209.045 210.492 208.62C195.95 208.195 182.175 201.998 172.211 191.398C165.549 184.369 161.957 174.977 162.229 165.296C162.5 155.615 166.612 146.439 173.658 139.794L247.224 70.3235C213.512 34.1528 163.012 18.8041 114.874 30.098C66.7363 41.3918 28.3321 77.5987 14.2248 124.989C0.117602 172.378 12.4676 223.694 46.5918 259.476L59.3289 272.95C60.1193 272.052 59.4097 272.851 106.181 228.702C120.533 215.166 141.959 212.388 159.288 221.817C176.617 231.246 185.923 250.745 182.353 270.147C196.768 268.24 211.222 273.375 221.203 283.949C231.185 294.523 235.478 309.249 232.744 323.53C247.166 321.639 261.619 326.787 271.598 337.369C281.577 347.951 285.869 362.681 283.136 376.967C297.187 375.094 311.303 379.926 321.259 390.016C331.215 400.107 335.858 414.285 333.797 428.31C345.697 435.227 360.87 432.354 369.418 421.567C377.966 410.779 377.294 395.351 367.84 385.347L248.158 258.542C245.955 256.207 245.165 252.875 246.085 249.8C247.005 246.724 249.496 244.374 252.62 243.633C255.743 242.893 259.024 243.874 261.228 246.209L380.91 373.05C387.712 380.255 397.84 383.283 407.48 380.995C417.12 378.707 424.807 371.45 427.646 361.957C430.484 352.464 428.043 342.178 421.241 334.974L301.55 208.141C298.219 204.522 298.419 198.898 301.997 195.524C305.575 192.15 311.202 192.28 314.619 195.818L434.32 322.65C442.034 330.801 453.898 333.504 464.382 329.499C474.866 325.495 481.907 315.571 482.223 304.353C481.809 293.947 476.752 284.276 468.444 277.998Z" fill="#331056"/>
<path d="M289.531 394.474C282.178 394.239 275.036 396.956 269.698 402.019L222.989 446.132C215.783 452.932 212.752 463.06 215.038 472.7C217.324 482.341 224.58 490.03 234.072 492.871C243.564 495.711 253.85 493.272 261.057 486.472L307.765 442.368C315.885 434.654 318.576 422.818 314.592 412.351C310.607 401.884 300.725 394.835 289.531 394.474Z" fill="#331056"/>
<path d="M215.659 316.182C215.935 305.004 209.477 294.751 199.276 290.17C189.075 285.59 177.122 287.575 168.95 295.208L122.242 339.312C111.293 349.863 110.879 367.261 121.313 378.32C131.747 389.38 149.14 389.978 160.309 379.661L207.018 335.549C212.367 330.505 215.478 323.532 215.659 316.182Z" fill="#331056"/>
</svg>
