<svg width="257" height="257" viewBox="0 0 257 257" fill="none" xmlns="http://www.w3.org/2000/svg">
<path d="M257 196.554H0V196.682H257V196.554Z" fill="#EBEBEB"/>
<path d="M231.249 204.824H214.225V204.952H231.249V204.824Z" fill="#EBEBEB"/>
<path d="M170.247 206.222H165.78V206.35H170.247V206.222Z" fill="#EBEBEB"/>
<path d="M213.711 200.054H203.847V200.182H213.711V200.054Z" fill="#EBEBEB"/>
<path d="M49.1641 200.917H26.9644V201.046H49.1641V200.917Z" fill="#EBEBEB"/>
<path d="M56.9975 200.917H53.7438V201.046H56.9975V200.917Z" fill="#EBEBEB"/>
<path d="M115.727 203.087H67.5756V203.215H115.727V203.087Z" fill="#EBEBEB"/>
<path d="M121.818 173.629H22.5697C21.7922 173.628 21.047 173.318 20.4977 172.768C19.9485 172.218 19.6399 171.472 19.6399 170.694V31.1792C19.6467 30.4062 19.9582 29.667 20.5068 29.1223C21.0553 28.5776 21.7967 28.2713 22.5697 28.27H121.818C122.596 28.27 123.343 28.5792 123.893 29.1296C124.444 29.68 124.753 30.4265 124.753 31.2049V170.694C124.753 171.473 124.444 172.219 123.893 172.77C123.343 173.32 122.596 173.629 121.818 173.629V173.629ZM22.5697 28.3728C21.8263 28.3742 21.1138 28.6704 20.5886 29.1966C20.0634 29.7228 19.7684 30.4358 19.7684 31.1792V170.694C19.7684 171.438 20.0634 172.151 20.5886 172.677C21.1138 173.203 21.8263 173.499 22.5697 173.501H121.818C122.562 173.499 123.275 173.203 123.801 172.677C124.327 172.151 124.623 171.438 124.624 170.694V31.1792C124.623 30.4353 124.327 29.7223 123.801 29.1963C123.275 28.6703 122.562 28.3742 121.818 28.3728H22.5697Z" fill="#EBEBEB"/>
<path d="M233.001 173.629H133.748C132.97 173.628 132.224 173.318 131.674 172.768C131.124 172.218 130.814 171.472 130.813 170.694V31.1792C130.821 30.4057 131.134 29.6666 131.683 29.122C132.233 28.5774 132.974 28.2713 133.748 28.27H233.001C233.774 28.2727 234.514 28.5796 235.061 29.1241C235.608 29.6687 235.919 30.4071 235.926 31.1792V170.694C235.926 171.471 235.618 172.216 235.07 172.766C234.522 173.316 233.778 173.626 233.001 173.629V173.629ZM133.748 28.3728C133.004 28.3742 132.291 28.6703 131.765 29.1963C131.239 29.7223 130.943 30.4353 130.942 31.1792V170.694C130.943 171.438 131.239 172.151 131.765 172.677C132.291 173.203 133.004 173.499 133.748 173.501H233.001C233.745 173.499 234.458 173.203 234.984 172.677C235.51 172.151 235.806 171.438 235.808 170.694V31.1792C235.806 30.4353 235.51 29.7223 234.984 29.1963C234.458 28.6703 233.745 28.3742 233.001 28.3728H133.748Z" fill="#EBEBEB"/>
<path d="M227.532 48.1772H143.005V123.18H227.532V48.1772Z" fill="#E6E6E6"/>
<path d="M225.307 50.2332H145.123V121.165H225.307V50.2332Z" fill="#F0F0F0"/>
<path d="M163.94 50.2332L145.123 121.011V87.7552L155.058 50.2332H163.94Z" fill="white"/>
<path d="M170.607 50.2332L151.62 121.165H148.592L167.574 50.2332H170.607Z" fill="white"/>
<path d="M225.307 94.9923V106.331L221.462 121.165H218.435L225.307 94.9923Z" fill="white"/>
<path d="M173.089 48.9585H171.738V122.748H173.089V48.9585Z" fill="#E6E6E6"/>
<path d="M199.268 48.9585H197.916V122.748H199.268V48.9585Z" fill="#E6E6E6"/>
<path d="M101.561 83.1395H34.5151V86.5833H101.561V83.1395Z" fill="#E0E0E0"/>
<path d="M40.5546 70.4437H37.5991V83.1395H40.5546V70.4437Z" fill="#EBEBEB"/>
<path d="M54.8387 70.4437H51.8832V83.1395H54.8387V70.4437Z" fill="#EBEBEB"/>
<path d="M71.0541 70.1244L68.1415 70.6264L70.2981 83.1377L73.2106 82.6357L71.0541 70.1244Z" fill="#EBEBEB"/>
<path d="M44.2143 72.1142H41.2588V83.1395H44.2143V72.1142Z" fill="#EBEBEB"/>
<path d="M51.0042 72.1142H48.0487V83.1395H51.0042V72.1142Z" fill="#EBEBEB"/>
<path d="M68.141 72.1142H65.1855V83.1395H68.141V72.1142Z" fill="#EBEBEB"/>
<path d="M58.7194 71.7309L55.8343 72.3721L58.2262 83.1348L61.1113 82.4936L58.7194 71.7309Z" fill="#EBEBEB"/>
<path d="M46.7689 69.8115H45.2937V83.1395H46.7689V69.8115Z" fill="#EBEBEB"/>
<path d="M64.3374 69.8115H62.8622V83.1395H64.3374V69.8115Z" fill="#EBEBEB"/>
<path d="M95.126 73.0908H80.734V83.0264H95.126V73.0908Z" fill="#EBEBEB"/>
<path d="M34.5151 112.304L101.561 112.304V108.86L34.5151 108.86V112.304Z" fill="#E0E0E0"/>
<path d="M95.5166 108.855H98.4721V96.1591H95.5166V108.855Z" fill="#EBEBEB"/>
<path d="M81.2377 108.855H84.1932V96.1591H81.2377V108.855Z" fill="#EBEBEB"/>
<path d="M62.8657 108.352L65.7782 108.854L67.9348 96.3427L65.0223 95.8406L62.8657 108.352Z" fill="#EBEBEB"/>
<path d="M91.8569 108.86H94.8124V97.8348H91.8569V108.86Z" fill="#EBEBEB"/>
<path d="M85.067 108.86H88.0225V97.8348H85.067V108.86Z" fill="#EBEBEB"/>
<path d="M67.9302 108.86H70.8857V97.8348H67.9302V108.86Z" fill="#EBEBEB"/>
<path d="M74.9714 108.21L77.8565 108.851L80.2484 98.0881L77.3633 97.4469L74.9714 108.21Z" fill="#EBEBEB"/>
<path d="M89.3075 108.855H90.7827V95.5269H89.3075V108.855Z" fill="#EBEBEB"/>
<path d="M71.739 108.855H73.2142V95.5269H71.739V108.855Z" fill="#EBEBEB"/>
<path d="M40.9504 108.742H55.3424V98.8062H40.9504V108.742Z" fill="#EBEBEB"/>
<path d="M52.3406 161.206C51.4154 159.664 49.894 161.005 49.894 161.005C50.1099 158.086 47.4268 156.086 47.4268 156.086C47.4268 156.086 50.5468 156.086 50.9837 153.11C51.4206 150.134 49.894 151.517 48.4651 151.496C47.0361 151.476 45.5404 155.655 47.4371 158.004C49.3337 160.353 48.8146 164.362 44.461 168.217C43.4187 169.19 42.6376 170.41 42.1891 171.763C42.5181 168.222 42.7031 163.231 41.6751 159.895C39.907 154.241 43.2788 152.699 44.2451 149.888C45.2114 147.076 41.6751 144.66 41.6751 144.66C41.6751 144.66 45.0213 143.118 43.3919 141.396C41.7625 139.674 38.3855 139.89 38.3855 142.167C38.3855 144.444 40.6677 145.313 40.6677 145.313C40.6677 145.313 43.2788 148.037 43.2788 149.451C43.2788 150.864 40.6677 153.912 40.6677 153.912C40.6677 153.912 41.8653 151.306 39.4701 151.193C37.0748 151.08 36.3141 154.241 37.2958 155.655C38.2776 157.068 39.907 155.871 39.907 155.871C40.009 157.523 40.2602 159.162 40.6574 160.769C40.899 161.581 40.7859 164.773 40.5803 168.093C40.1269 166.896 39.4 165.82 38.4575 164.953C34.1039 161.093 33.6002 157.084 35.4866 154.74C37.3729 152.396 35.8772 148.212 34.4586 148.232C33.0399 148.253 31.5031 146.87 31.94 149.846C32.3769 152.822 35.466 152.822 35.466 152.822C35.466 152.822 32.7778 154.822 32.9988 157.741C32.9988 157.741 31.4568 156.415 30.547 157.937C28.8971 160.661 32.7264 162.347 33.3689 161.021C33.3689 161.021 41.4849 166.767 39.5369 175.043L39.9943 175.711C39.9327 176.379 39.8967 176.78 39.8967 176.78L40.534 176.508L41.2536 177.577C41.2279 178.779 41.2897 179.981 41.4387 181.175L43.3816 178.312C41.4181 170.041 49.5496 164.295 49.5496 164.295C50.1664 165.611 53.9957 163.925 52.3406 161.206Z" fill="#E0E0E0"/>
<path opacity="0.2" d="M52.3406 161.206C51.4154 159.664 49.894 161.005 49.894 161.005C50.1099 158.086 47.4268 156.086 47.4268 156.086C47.4268 156.086 50.5468 156.086 50.9837 153.11C51.4206 150.134 49.894 151.517 48.4651 151.496C47.0361 151.476 45.5404 155.655 47.4371 158.004C49.3337 160.353 48.8146 164.362 44.461 168.217C43.4187 169.19 42.6376 170.41 42.1891 171.763C42.5181 168.222 42.7031 163.231 41.6751 159.895C39.907 154.241 43.2788 152.699 44.2451 149.888C45.2114 147.076 41.6751 144.66 41.6751 144.66C41.6751 144.66 45.0213 143.118 43.3919 141.396C41.7625 139.674 38.3855 139.89 38.3855 142.167C38.3855 144.444 40.6677 145.313 40.6677 145.313C40.6677 145.313 43.2788 148.037 43.2788 149.451C43.2788 150.864 40.6677 153.912 40.6677 153.912C40.6677 153.912 41.8653 151.306 39.4701 151.193C37.0748 151.08 36.3141 154.241 37.2958 155.655C38.2776 157.068 39.907 155.871 39.907 155.871C40.009 157.523 40.2602 159.162 40.6574 160.769C40.899 161.581 40.7859 164.773 40.5803 168.093C40.1269 166.896 39.4 165.82 38.4575 164.953C34.1039 161.093 33.6002 157.084 35.4866 154.74C37.3729 152.396 35.8772 148.212 34.4586 148.232C33.0399 148.253 31.5031 146.87 31.94 149.846C32.3769 152.822 35.466 152.822 35.466 152.822C35.466 152.822 32.7778 154.822 32.9988 157.741C32.9988 157.741 31.4568 156.415 30.547 157.937C28.8971 160.661 32.7264 162.347 33.3689 161.021C33.3689 161.021 41.4849 166.767 39.5369 175.043L39.9943 175.711C39.9327 176.379 39.8967 176.78 39.8967 176.78L40.534 176.508L41.2536 177.577C41.2279 178.779 41.2897 179.981 41.4387 181.175L43.3816 178.312C41.4181 170.041 49.5496 164.295 49.5496 164.295C50.1664 165.611 53.9957 163.925 52.3406 161.206Z" fill="#77B033"/>
<path d="M50.7524 196.487H32.161L30.1564 176.127H52.7621L50.7524 196.487Z" fill="#E6E6E6"/>
<path d="M53.7541 173.881H29.1644V178.373H53.7541V173.881Z" fill="#F0F0F0"/>
<path d="M81.0749 50.9557C82.6106 44.4492 78.581 37.9298 72.0745 36.3941C65.568 34.8585 59.0486 38.8881 57.5129 45.3946C55.9773 51.901 60.0069 58.4205 66.5134 59.9561C73.0198 61.4918 79.5393 57.4622 81.0749 50.9557Z" fill="#E0E0E0"/>
<path d="M79.4602 49.8318C80.3713 44.2193 76.56 38.9309 70.9474 38.0198C65.3349 37.1088 60.0465 40.9201 59.1354 46.5326C58.2244 52.1452 62.0357 57.4336 67.6482 58.3446C73.2608 59.2557 78.5492 55.4444 79.4602 49.8318Z" fill="#F0F0F0"/>
<path d="M68.8143 41.12V48.316L64.0444 45.6175" fill="#F0F0F0"/>
<path d="M68.8143 41.12V48.316L64.0444 45.6175" stroke="#E0E0E0" stroke-width="2" stroke-linecap="round" stroke-linejoin="round"/>
<path d="M128.5 219.766C183.54 219.766 228.159 217.161 228.159 213.947C228.159 210.734 183.54 208.129 128.5 208.129C73.4596 208.129 28.8405 210.734 28.8405 213.947C28.8405 217.161 73.4596 219.766 128.5 219.766Z" fill="#F5F5F5"/>
<path d="M128.629 211.074L117.146 134.75V211.074H114.062V134.272L102.558 211.074H99.2534L113.651 114.941L114.062 115.002V111.872H117.146V114.992L117.567 114.941L132 211.074H128.629Z" fill="#263238"/>
<path opacity="0.2" d="M128.629 211.074L117.146 134.75V211.074H114.062V134.272L102.558 211.074H99.2534L113.651 114.941L114.062 115.002V111.872H117.146V114.992L117.567 114.941L132 211.074H128.629Z" fill="white"/>
<path d="M99.7982 125.601H131.574L128.999 99.0529H102.368L99.7982 125.601Z" fill="#9C33B0"/>
<g opacity="0.4">
<path opacity="0.4" d="M99.7982 125.601H131.574L128.999 99.0529H102.368L99.7982 125.601Z" fill="white"/>
</g>
<path d="M213.824 148.279H158.091C156.887 148.279 155.733 148.757 154.882 149.608C154.031 150.459 153.552 151.614 153.552 152.817L147.384 192.123H212.21L218.378 152.817C218.378 152.22 218.26 151.629 218.031 151.077C217.802 150.525 217.466 150.024 217.043 149.603C216.62 149.181 216.118 148.847 215.566 148.62C215.013 148.393 214.421 148.277 213.824 148.279V148.279Z" fill="#9C33B0"/>
<path opacity="0.4" d="M213.824 148.279H158.091C156.887 148.279 155.733 148.757 154.882 149.608C154.031 150.459 153.552 151.614 153.552 152.817L147.384 192.123H212.21L218.378 152.817C218.378 152.22 218.26 151.629 218.031 151.077C217.802 150.525 217.466 150.024 217.043 149.603C216.62 149.181 216.118 148.847 215.566 148.62C215.013 148.393 214.421 148.277 213.824 148.279V148.279Z" fill="white"/>
<path opacity="0.2" d="M203.128 192.704H212.21L218.378 152.817C218.378 152.221 218.26 151.63 218.032 151.079C217.804 150.528 217.469 150.028 217.047 149.606C216.625 149.185 216.124 148.851 215.573 148.623C215.021 148.395 214.431 148.278 213.834 148.279V148.279C212.631 148.279 211.476 148.757 210.625 149.608C209.774 150.459 209.296 151.614 209.296 152.817L203.128 192.704Z" fill="black"/>
<path d="M147.549 163.478H126.028H125.801C124.337 163.48 122.933 164.063 121.897 165.099C120.862 166.135 120.279 167.539 120.276 169.003V211.074H152.771V169.003C152.791 167.584 152.257 166.212 151.282 165.18C150.306 164.149 148.967 163.538 147.549 163.478V163.478Z" fill="#9C33B0"/>
<path opacity="0.5" d="M147.549 163.478H126.028H125.801C124.337 163.48 122.933 164.063 121.897 165.099C120.862 166.135 120.279 167.539 120.276 169.003V211.074H152.771V169.003C152.791 167.584 152.257 166.212 151.282 165.18C150.306 164.149 148.967 163.538 147.549 163.478V163.478Z" fill="white"/>
<path opacity="0.6" d="M125.801 163.452C125.074 163.453 124.354 163.598 123.683 163.878C123.011 164.158 122.401 164.567 121.888 165.082C121.375 165.598 120.969 166.21 120.692 166.882C120.415 167.555 120.274 168.276 120.276 169.003V211.074H131.353V169.003C131.355 168.274 131.213 167.551 130.934 166.876C130.656 166.202 130.247 165.589 129.731 165.073C129.215 164.557 128.603 164.149 127.928 163.87C127.254 163.592 126.531 163.45 125.801 163.452Z" fill="white"/>
<path d="M182.455 177.407H134.956V211.074H182.455V177.407Z" fill="#9C33B0"/>
<path opacity="0.4" d="M182.455 177.407H134.956V211.074H182.455V177.407Z" fill="white"/>
<path d="M138.05 173.958H191.506V185.631H138.05C136.501 185.631 135.016 185.016 133.921 183.921C132.826 182.826 132.211 181.341 132.211 179.792V179.792C132.211 179.025 132.362 178.266 132.656 177.558C132.949 176.849 133.379 176.205 133.921 175.663C134.463 175.121 135.107 174.691 135.816 174.397C136.524 174.104 137.283 173.953 138.05 173.953V173.958Z" fill="#9C33B0"/>
<path opacity="0.6" d="M138.05 173.958H191.506V185.631H138.05C136.501 185.631 135.016 185.016 133.921 183.921C132.826 182.826 132.211 181.341 132.211 179.792V179.792C132.211 179.025 132.362 178.266 132.656 177.558C132.949 176.849 133.379 176.205 133.921 175.663C134.463 175.121 135.107 174.691 135.816 174.397C136.524 174.104 137.283 173.953 138.05 173.953V173.958Z" fill="white"/>
<path d="M209.743 163.478H188.222H187.995C186.531 163.48 185.127 164.063 184.091 165.099C183.056 166.135 182.473 167.539 182.47 169.003V211.074H214.965V169.003C214.985 167.584 214.451 166.212 213.476 165.18C212.5 164.149 211.161 163.538 209.743 163.478V163.478Z" fill="#9C33B0"/>
<path opacity="0.5" d="M209.743 163.478H188.222H187.995C186.531 163.48 185.127 164.063 184.091 165.099C183.056 166.135 182.473 167.539 182.47 169.003V211.074H214.965V169.003C214.985 167.584 214.451 166.212 213.476 165.18C212.5 164.149 211.161 163.538 209.743 163.478V163.478Z" fill="white"/>
<path opacity="0.6" d="M187.995 163.452C187.268 163.453 186.548 163.598 185.877 163.878C185.205 164.158 184.595 164.567 184.082 165.082C183.569 165.598 183.163 166.21 182.886 166.882C182.609 167.555 182.468 168.276 182.47 169.003V211.074H193.547V169.003C193.549 168.274 193.407 167.551 193.128 166.876C192.85 166.202 192.441 165.589 191.925 165.073C191.409 164.557 190.797 164.149 190.122 163.87C189.448 163.592 188.725 163.45 187.995 163.452Z" fill="white"/>
<path d="M174.513 114.437C174.513 114.437 183.894 138.276 190.401 145.056C190.401 145.056 190.129 150.751 184.027 148.171C177.926 145.591 174.118 144.768 170.329 148.844C166.541 152.92 161.257 152.766 156.852 148.844C152.447 144.922 153.465 149.358 148.376 150.319C143.288 151.28 140.836 145.935 140.836 145.935C140.836 145.935 147.78 140.445 150.725 115.686L174.513 114.437Z" fill="#9C33B0"/>
<path opacity="0.2" d="M174.513 114.437C174.513 114.437 183.894 138.276 190.401 145.056C190.401 145.056 190.129 150.751 184.027 148.171C177.926 145.591 174.118 144.768 170.329 148.844C166.541 152.92 161.257 152.766 156.852 148.844C152.447 144.922 153.465 149.358 148.376 150.319C143.288 151.28 140.836 145.935 140.836 145.935C140.836 145.935 147.78 140.445 150.725 115.686L174.513 114.437Z" fill="black"/>
<path d="M153.768 115.311C153.768 115.311 145.513 119.634 143.684 123.257C141.854 126.881 150.7 133.506 150.7 133.506C150.7 133.506 151.502 137.803 152.427 138.06C153.352 138.317 155.886 135.418 156.086 134.807C156.287 134.195 152.833 131.98 152.833 131.98C152.833 131.98 148.258 126.572 148.361 125.349C148.464 124.126 155.48 119.86 155.48 119.86L153.768 115.311Z" fill="#EBB376"/>
<path d="M150.874 166.603V172.087H154.19L154.514 166.161L150.874 166.603Z" fill="#EBB376"/>
<path d="M151.059 170.787L154.426 170.576C154.483 170.57 154.539 170.587 154.583 170.623C154.628 170.658 154.656 170.71 154.663 170.766V170.766L154.992 173.418C154.999 173.49 154.991 173.563 154.968 173.631C154.946 173.699 154.909 173.762 154.86 173.816C154.812 173.869 154.753 173.911 154.687 173.94C154.621 173.969 154.55 173.984 154.478 173.984C153.306 174.035 152.74 173.984 151.26 174.082C149.947 174.22 148.626 174.263 147.307 174.21C146.053 174.087 146.207 172.853 146.747 172.791C148.144 172.528 149.45 171.906 150.535 170.987C150.681 170.862 150.867 170.791 151.059 170.787V170.787Z" fill="#263238"/>
<path d="M149.456 171.249C149.403 171.203 149.365 171.143 149.346 171.075C149.327 171.008 149.327 170.936 149.348 170.869C149.353 170.824 149.369 170.781 149.395 170.744C149.421 170.708 149.456 170.678 149.497 170.658C149.857 170.494 150.741 171.018 150.844 171.08C150.854 171.089 150.862 171.1 150.868 171.112C150.873 171.125 150.875 171.138 150.874 171.152C150.871 171.165 150.865 171.176 150.856 171.186C150.847 171.196 150.836 171.204 150.823 171.208C150.565 171.288 150.3 171.339 150.031 171.362C149.832 171.398 149.627 171.358 149.456 171.249V171.249ZM149.553 170.797C149.535 170.808 149.519 170.823 149.506 170.841C149.494 170.858 149.485 170.879 149.481 170.9C149.472 170.943 149.472 170.989 149.484 171.032C149.496 171.075 149.518 171.114 149.548 171.147C149.697 171.275 150.093 171.27 150.623 171.147C150.263 170.946 149.749 170.725 149.553 170.812V170.797Z" fill="#9C33B0"/>
<path d="M150.772 171.213C150.463 171.054 149.975 170.453 150.021 170.124C150.031 170.065 150.06 170.011 150.104 169.97C150.147 169.929 150.203 169.904 150.263 169.898C150.316 169.888 150.37 169.89 150.423 169.903C150.475 169.916 150.524 169.941 150.566 169.975C150.885 170.252 150.869 171.126 150.874 171.152C150.871 171.176 150.858 171.198 150.838 171.213H150.808C150.802 171.216 150.796 171.217 150.79 171.217C150.783 171.217 150.777 171.216 150.772 171.213V171.213ZM150.288 170.047C150.186 170.047 150.165 170.113 150.16 170.155C150.238 170.507 150.441 170.819 150.731 171.034C150.731 170.751 150.669 170.257 150.473 170.098C150.453 170.078 150.429 170.063 150.403 170.053C150.376 170.043 150.348 170.039 150.319 170.041L150.288 170.047Z" fill="#9C33B0"/>
<path d="M173.552 167.569L174.231 169.985L174.858 172.216L178.152 171.83L177.525 168.957L176.929 166.202L173.552 167.569Z" fill="#EBB376"/>
<path d="M174.703 170.787L178.07 170.576C178.127 170.57 178.183 170.587 178.227 170.623C178.272 170.658 178.3 170.71 178.307 170.766V170.766L178.636 173.418C178.643 173.49 178.635 173.563 178.612 173.631C178.59 173.699 178.553 173.762 178.504 173.816C178.456 173.869 178.397 173.911 178.331 173.94C178.265 173.969 178.194 173.984 178.122 173.984C176.95 174.035 176.384 173.984 174.904 174.082C173.591 174.22 172.27 174.263 170.951 174.21C169.697 174.087 169.851 172.853 170.391 172.791C171.788 172.528 173.094 171.906 174.179 170.987C174.325 170.862 174.511 170.791 174.703 170.787V170.787Z" fill="#263238"/>
<path d="M173.1 171.249C173.047 171.203 173.009 171.143 172.99 171.075C172.971 171.008 172.971 170.936 172.992 170.869C172.997 170.824 173.013 170.781 173.039 170.744C173.065 170.708 173.1 170.678 173.141 170.658C173.501 170.494 174.385 171.018 174.488 171.08C174.498 171.089 174.506 171.1 174.511 171.112C174.517 171.125 174.519 171.138 174.518 171.152C174.515 171.165 174.509 171.176 174.5 171.186C174.491 171.196 174.479 171.204 174.467 171.208C174.209 171.288 173.944 171.339 173.675 171.362C173.476 171.398 173.271 171.358 173.1 171.249V171.249ZM173.197 170.797C173.179 170.808 173.163 170.823 173.15 170.841C173.138 170.858 173.129 170.879 173.125 170.9C173.116 170.943 173.116 170.989 173.128 171.032C173.14 171.075 173.162 171.114 173.192 171.147C173.341 171.275 173.737 171.27 174.267 171.147C173.907 170.946 173.393 170.725 173.197 170.812V170.797Z" fill="#9C33B0"/>
<path d="M174.416 171.213C174.107 171.054 173.619 170.453 173.665 170.124C173.675 170.065 173.704 170.011 173.748 169.97C173.791 169.929 173.847 169.904 173.907 169.898C173.96 169.888 174.014 169.89 174.067 169.903C174.119 169.916 174.168 169.941 174.21 169.975C174.529 170.252 174.513 171.126 174.518 171.152C174.515 171.176 174.502 171.198 174.482 171.213H174.452C174.446 171.216 174.44 171.217 174.434 171.217C174.427 171.217 174.421 171.216 174.416 171.213V171.213ZM173.932 170.047C173.83 170.047 173.809 170.113 173.804 170.155C173.882 170.507 174.085 170.819 174.375 171.034C174.375 170.751 174.313 170.257 174.118 170.098C174.097 170.078 174.073 170.063 174.047 170.053C174.02 170.043 173.992 170.039 173.963 170.041L173.932 170.047Z" fill="#9C33B0"/>
<path d="M150.016 168.839C150.016 168.839 149.137 145.976 154.714 132.509L172.133 132.54C172.133 132.54 173.11 141.669 178.625 167.682L172.683 169.224C172.683 169.224 164.973 156.441 162.799 146.002C159.074 153.184 156.439 160.88 154.981 168.839H150.016Z" fill="#263238"/>
<path d="M172.658 114.797C172.658 114.797 180.913 119.12 182.742 122.743C184.572 126.367 175.726 132.992 175.726 132.992C175.726 132.992 174.919 137.289 173.999 137.546C173.079 137.803 170.54 134.904 170.34 134.293C170.139 133.681 173.593 131.466 173.593 131.466C173.593 131.466 178.168 126.059 178.065 124.835C177.962 123.612 170.946 119.346 170.946 119.346L172.658 114.797Z" fill="#EBB376"/>
<path d="M156.256 112.946C154.2 113.101 147.816 117.68 147.816 117.68L151.301 123.848L156.122 122.147C156.845 120.775 157.243 119.256 157.284 117.706C157.259 116.067 156.91 114.449 156.256 112.946V112.946Z" fill="#9C33B0"/>
<path opacity="0.6" d="M157.284 117.706C157.238 119.269 156.83 120.8 156.092 122.178L154.714 122.666L151.764 123.694L151.25 123.869L147.765 117.701C147.765 117.701 154.159 113.08 156.256 112.946C156.91 114.449 157.259 116.067 157.284 117.706V117.706Z" fill="white"/>
<path opacity="0.2" d="M154.714 119.14V122.64L151.764 123.668C152.005 121.361 154.714 119.14 154.714 119.14Z" fill="black"/>
<path d="M171.851 122.502C171.642 125.431 171.726 128.373 172.103 131.286C172.146 131.702 172.16 132.122 172.144 132.54L154.714 132.509C153.537 120.733 153.938 118.528 154.4 115.475C154.516 114.745 154.856 114.069 155.374 113.541C155.892 113.013 156.561 112.66 157.289 112.53C158.081 112.381 159.011 112.237 159.962 112.155C162.429 112.011 164.902 112.011 167.369 112.155C168.294 112.201 169.235 112.299 170.083 112.407H170.185C170.968 112.536 171.667 112.972 172.128 113.616C172.59 114.261 172.777 115.063 172.647 115.845C172.226 118.492 171.979 120.672 171.851 122.502Z" fill="#9C33B0"/>
<path opacity="0.6" d="M172.658 115.871C172.476 116.978 172.325 118.006 172.205 118.955C172.041 120.266 171.923 121.438 171.851 122.496C171.799 123.242 171.769 123.931 171.748 124.552C171.708 126.796 171.826 129.039 172.103 131.265C172.146 131.682 172.16 132.101 172.144 132.519L154.714 132.509C153.537 120.733 153.938 118.528 154.4 115.475C154.516 114.745 154.856 114.069 155.374 113.541C155.892 113.013 156.561 112.66 157.289 112.53C158.081 112.381 159.011 112.237 159.962 112.155C162.429 112.011 164.902 112.011 167.369 112.155C168.294 112.201 169.235 112.299 170.083 112.407H170.185C170.576 112.47 170.951 112.609 171.287 112.818C171.624 113.027 171.915 113.3 172.145 113.622C172.375 113.945 172.539 114.309 172.627 114.695C172.715 115.081 172.725 115.481 172.658 115.871V115.871Z" fill="white"/>
<path opacity="0.2" d="M172.19 118.96C172.026 120.271 171.907 121.443 171.835 122.502C171.784 123.247 171.753 123.936 171.733 124.558C168.649 121.669 169.121 117.151 169.121 117.151L172.19 118.96Z" fill="black"/>
<path d="M170.196 112.432C172.252 112.587 178.636 117.166 178.636 117.166L175.151 123.334L170.329 121.633C169.591 120.255 169.183 118.724 169.137 117.161C169.175 115.531 169.535 113.924 170.196 112.432Z" fill="#9C33B0"/>
<path opacity="0.6" d="M170.196 112.432C172.252 112.587 178.636 117.166 178.636 117.166L175.151 123.334L170.329 121.633C169.591 120.255 169.183 118.724 169.137 117.161C169.175 115.531 169.535 113.924 170.196 112.432Z" fill="white"/>
<path d="M161.468 115.311C165.826 116.023 170.289 115.724 174.513 114.437C174.513 114.437 173.681 111.065 162.506 111.677C151.332 112.288 150.736 115.686 150.736 115.686C150.736 115.686 155.228 118.924 161.468 115.311Z" fill="#9C33B0"/>
<path d="M166.387 112.227C164.439 113.887 162.989 115.013 160.44 114.766C157.387 114.463 158.579 113.075 158.579 113.075C159.233 112.759 159.772 112.247 160.121 111.61C160.594 110.654 160.373 109.554 159.936 108.418L160.805 107.652L163.185 105.56C163.315 105.448 163.477 105.377 163.648 105.357C163.82 105.338 163.993 105.371 164.145 105.451C164.298 105.532 164.423 105.656 164.504 105.808C164.584 105.961 164.617 106.134 164.598 106.305C164.603 108.583 164.994 111.209 166.387 112.227Z" fill="#EBB376"/>
<path opacity="0.2" d="M164.588 107.215C164.588 107.215 163.771 112.314 160.116 111.61C160.589 110.654 160.368 109.554 159.931 108.418L160.8 107.652L164.588 107.215Z" fill="black"/>
<path d="M156.852 96.5909C156.852 96.5909 153.018 100.574 158.173 103.787C163.992 107.426 156.852 96.5909 156.852 96.5909Z" fill="#263238"/>
<path d="M167.333 101.078C167.086 104.717 167.148 106.85 165.087 108.711C162.003 111.517 156.934 109.862 155.958 106.234C155.058 102.97 155.624 97.5726 159.628 96.1231C163.632 94.6737 167.564 97.4441 167.333 101.078Z" fill="#EBB376"/>
<path d="M156.611 98.8268C158.224 99.1792 159.903 99.0868 161.468 98.5595C161.468 98.5595 163.493 98.6469 163.323 100.939C163.154 103.232 165.893 104.152 166.346 107.107C166.346 107.107 169.394 106.372 169.116 99.8137C168.916 95.0335 164.588 93.6765 160.378 94.2522C156.847 94.7353 154.647 97.5778 156.611 98.8268Z" fill="#263238"/>
<path d="M159.941 103.191C159.967 103.509 159.818 103.787 159.607 103.797C159.397 103.807 159.206 103.566 159.181 103.247C159.155 102.929 159.309 102.656 159.52 102.641C159.731 102.625 159.916 102.872 159.941 103.191Z" fill="#263238"/>
<path d="M157.233 103.191C157.233 103.509 157.104 103.787 156.893 103.797C156.683 103.807 156.498 103.566 156.472 103.247C156.446 102.929 156.595 102.656 156.806 102.641C157.017 102.625 157.207 102.872 157.233 103.191Z" fill="#263238"/>
<path d="M159.134 101.294C159.097 101.282 159.062 101.263 159.032 101.237C159.004 101.196 158.993 101.145 159 101.096C159.008 101.046 159.034 101.002 159.073 100.97C159.308 100.785 159.585 100.66 159.88 100.605C160.174 100.55 160.478 100.568 160.764 100.657C160.811 100.674 160.849 100.709 160.87 100.754C160.891 100.799 160.893 100.851 160.877 100.898V100.898C160.858 100.944 160.823 100.981 160.778 101.002C160.734 101.023 160.682 101.027 160.635 101.011V101.011C160.406 100.945 160.164 100.936 159.93 100.984C159.696 101.033 159.478 101.137 159.294 101.289C159.269 101.301 159.242 101.308 159.215 101.309C159.187 101.31 159.16 101.305 159.134 101.294V101.294Z" fill="#263238"/>
<path d="M155.742 100.96C155.709 100.937 155.684 100.905 155.67 100.867C155.664 100.843 155.663 100.818 155.666 100.794C155.67 100.77 155.679 100.746 155.692 100.725C155.705 100.704 155.722 100.686 155.742 100.671C155.762 100.657 155.785 100.647 155.809 100.641C156.098 100.56 156.402 100.551 156.696 100.613C156.99 100.676 157.264 100.809 157.495 101.001C157.53 101.037 157.55 101.085 157.55 101.135C157.55 101.185 157.53 101.233 157.495 101.268V101.268C157.459 101.302 157.412 101.321 157.364 101.321C157.315 101.321 157.268 101.302 157.233 101.268V101.268C157.045 101.119 156.824 101.017 156.589 100.971C156.354 100.925 156.111 100.937 155.881 101.006C155.856 101.009 155.83 101.006 155.806 100.998C155.783 100.99 155.761 100.977 155.742 100.96V100.96Z" fill="#263238"/>
<path d="M157.798 102.651C157.663 103.538 157.407 104.403 157.037 105.221C157.25 105.312 157.48 105.354 157.711 105.346C157.942 105.338 158.168 105.28 158.374 105.175L157.798 102.651Z" fill="#D58745"/>
<path d="M164.341 103.581C164.341 103.581 165.009 101.479 166.115 102.014C167.22 102.548 167.343 105.925 165.796 106.079C164.249 106.234 163.75 104.733 164.341 103.581Z" fill="#EBB376"/>
<path d="M158.009 105.987C158.292 106.442 158.542 106.916 158.759 107.405C158.851 107.387 158.942 107.363 159.032 107.333C160.27 107.005 160.733 106.439 160.872 105.915C160.936 105.658 160.936 105.39 160.872 105.134C160.843 104.987 160.793 104.845 160.723 104.712C160.05 105.257 159.268 105.652 158.43 105.869C158.173 105.951 158.009 105.987 158.009 105.987Z" fill="#263238"/>
<path d="M158.43 105.884L158.662 106.295C159.828 105.982 160.604 105.601 160.872 105.149C160.843 105.002 160.793 104.86 160.723 104.728C160.05 105.273 159.268 105.667 158.43 105.884V105.884Z" fill="white"/>
<path d="M159.032 107.333C160.27 107.005 160.733 106.439 160.872 105.915C160.404 106.051 159.964 106.268 159.571 106.557C159.315 106.753 159.126 107.025 159.032 107.333V107.333Z" fill="#DE5753"/>
<path d="M158.009 98.6263C158.009 98.6263 156.21 98.2203 156.852 99.6081C157.495 100.996 158.43 100.05 158.43 100.05C157.68 100.364 156.713 99.1043 158.348 99.0221L158.009 98.6263Z" fill="#263238"/>
<path opacity="0.6" d="M165.264 126.091C167.359 123.996 167.359 120.598 165.264 118.502C163.168 116.407 159.77 116.407 157.675 118.502C155.579 120.598 155.579 123.996 157.675 126.091C159.77 128.187 163.168 128.187 165.264 126.091Z" fill="white"/>
<path d="M161.468 114.797C162.598 115.007 163.65 115.516 164.515 116.272C165.381 117.028 166.027 118.003 166.387 119.094C166.387 119.094 162.866 119.705 161.468 116.349C161.468 116.349 160.07 119.181 157.68 119.14C157.68 119.14 158.698 115.388 161.468 114.797Z" fill="#9C33B0"/>
<path d="M87.7449 195.248C87.7449 195.248 92.0163 189.445 92.741 188.294C93.4658 187.142 96.0769 178.749 96.0769 178.749C95.9866 178.32 95.9469 177.881 95.9587 177.443C96.0101 177.001 96.5395 174.981 96.5395 174.981C96.5395 174.981 96.5395 174.817 97.7114 174.621C98.8833 174.426 100.132 174.107 100.184 174.621C100.235 175.135 99.531 178.538 99.1557 178.831C98.8636 179.075 98.5904 179.342 98.3385 179.628C98.3385 179.628 96.2825 188.674 95.6862 189.969C95.09 191.265 90.7159 198.044 90.7159 198.044L87.7449 195.248Z" fill="#E4897B"/>
<path d="M92.2835 196.924C91.779 198.442 90.9433 199.829 89.8369 200.984C87.637 203.4 84.7843 204.819 84.4091 202.012C83.8334 197.746 89.0762 193.125 89.0762 193.125L92.2835 196.924Z" fill="#9C33B0"/>
<path opacity="0.6" d="M92.2835 196.924C91.779 198.442 90.9433 199.829 89.8369 200.984C87.637 203.4 84.7843 204.819 84.4091 202.012C83.8334 197.746 89.0762 193.125 89.0762 193.125L92.2835 196.924Z" fill="white"/>
<path d="M43.9624 203.148L39.7168 199.668L41.819 197.104L46.6095 200.609L43.9624 203.148Z" fill="#EBB376"/>
<path d="M40.8424 200.347L43.1349 197.88C43.1552 197.86 43.1714 197.837 43.1825 197.81C43.1936 197.784 43.1993 197.756 43.1993 197.728C43.1993 197.7 43.1936 197.672 43.1825 197.646C43.1714 197.62 43.1552 197.596 43.1349 197.576V197.576L41.2896 195.644C41.2416 195.593 41.1838 195.553 41.1197 195.526C41.0557 195.498 40.9867 195.484 40.917 195.484C40.8473 195.484 40.7783 195.498 40.7142 195.526C40.6501 195.553 40.5923 195.593 40.5443 195.644C39.7579 196.518 39.4289 196.975 38.4266 198.07C37.4896 199 36.6205 199.997 35.8258 201.051C35.1216 202.079 36.1753 202.763 36.566 202.382C37.656 201.468 38.9648 200.851 40.3644 200.594C40.5469 200.567 40.7153 200.48 40.8424 200.347V200.347Z" fill="#263238"/>
<path d="M39.7425 200.779C39.9337 200.587 40.1438 200.414 40.3696 200.265C40.38 200.257 40.3926 200.253 40.4055 200.253C40.4184 200.253 40.431 200.257 40.4415 200.265C40.4528 200.272 40.462 200.282 40.4683 200.293C40.4746 200.305 40.4778 200.318 40.4775 200.331C40.4775 200.45 40.3079 201.467 39.9635 201.642C39.9241 201.664 39.8799 201.675 39.835 201.675C39.7901 201.675 39.7459 201.664 39.7065 201.642C39.6414 201.614 39.5854 201.568 39.5445 201.51C39.5037 201.452 39.4797 201.384 39.4752 201.313C39.4946 201.108 39.5899 200.917 39.7425 200.779V200.779ZM39.8812 201.503C40.0714 201.416 40.2256 200.876 40.3027 200.475C39.8556 200.799 39.6037 201.097 39.6088 201.298C39.6128 201.342 39.6281 201.384 39.6534 201.42C39.6786 201.456 39.7129 201.485 39.7527 201.503C39.7727 201.513 39.7947 201.519 39.817 201.519C39.8393 201.519 39.8613 201.513 39.8812 201.503Z" fill="#9C33B0"/>
<path d="M40.3541 200.275C40.3646 200.27 40.376 200.267 40.3875 200.267C40.3991 200.267 40.4105 200.27 40.421 200.275C40.421 200.275 41.1251 200.84 41.1354 201.257C41.1363 201.312 41.1247 201.366 41.1015 201.416C41.0784 201.466 41.0443 201.51 41.0018 201.545C40.9604 201.587 40.9059 201.614 40.847 201.622C40.7882 201.629 40.7286 201.616 40.678 201.586C40.5267 201.415 40.4151 201.214 40.3511 200.995C40.2871 200.776 40.2723 200.546 40.3079 200.321C40.309 200.309 40.3143 200.298 40.3227 200.29C40.3311 200.281 40.3423 200.276 40.3541 200.275ZM40.9504 201.39C40.9703 201.371 40.9857 201.348 40.9955 201.322C41.0053 201.296 41.0092 201.269 41.0069 201.241C41.0069 200.989 40.6523 200.635 40.4415 200.45C40.4231 200.808 40.5364 201.161 40.7602 201.442C40.7962 201.442 40.8476 201.483 40.9247 201.416L40.9504 201.39Z" fill="#9C33B0"/>
<path d="M88.9528 214.852C85.8688 215.926 77.5266 216.615 70.6339 216.538C66.9279 216.492 63.6435 216.23 61.8496 215.68C59.4698 214.955 54.7873 212.082 50.4542 209.208C45.4582 205.893 40.9247 202.588 40.9247 202.588L44.6769 198.759C44.6769 198.759 53.9289 204.993 55.9181 205.595C57.9072 206.196 74.2319 201.616 74.2319 201.616C74.2319 201.616 93.6662 213.187 88.9528 214.852Z" fill="#263238"/>
<path opacity="0.2" d="M70.3306 210.226L70.6339 216.522C66.9279 216.476 63.6435 216.214 61.8496 215.664C59.4698 214.939 54.7873 212.066 50.4542 209.193C53.4252 209.018 63.6229 208.437 66.9742 208.165C66.9742 208.165 69.868 205.436 72.4997 205.693C72.4997 205.687 70.6904 206.746 70.3306 210.226Z" fill="black"/>
<path d="M49.8991 215.001L44.7848 213.017L45.9876 209.928L51.6262 211.768L49.8991 215.001Z" fill="#EBB376"/>
<path d="M46.0647 213.31L47.4782 210.252C47.5035 210.201 47.508 210.143 47.4907 210.089C47.4734 210.035 47.4357 209.99 47.3857 209.964V209.964L45.0264 208.684C44.9642 208.653 44.8964 208.635 44.8271 208.631C44.7578 208.627 44.6884 208.637 44.623 208.661C44.5577 208.684 44.4978 208.721 44.447 208.768C44.3962 208.815 44.3555 208.872 44.3273 208.936C43.8493 210.01 43.6797 210.55 43.068 211.902C42.4696 213.077 41.9544 214.293 41.526 215.541C41.1868 216.754 42.3947 217.057 42.6466 216.569C43.4022 215.365 44.4533 214.374 45.6997 213.69C45.8587 213.606 45.9865 213.472 46.0647 213.31Z" fill="#263238"/>
<path d="M45.1549 214.066C45.2718 213.822 45.4167 213.592 45.5867 213.382C45.5933 213.369 45.6043 213.36 45.6176 213.355C45.631 213.35 45.6456 213.351 45.6586 213.356C45.6712 213.359 45.6828 213.365 45.6919 213.374C45.701 213.383 45.7073 213.395 45.71 213.408C45.71 213.526 45.9002 214.538 45.6175 214.816C45.5853 214.847 45.5456 214.869 45.5023 214.879C45.459 214.89 45.4137 214.89 45.3708 214.878C45.2999 214.873 45.232 214.847 45.1754 214.804C45.1188 214.762 45.0759 214.703 45.0521 214.636C45.0108 214.44 45.0477 214.235 45.1549 214.066ZM45.5096 214.708C45.6638 214.564 45.6432 214.004 45.5867 213.593C45.268 214.04 45.1138 214.405 45.1806 214.59C45.1998 214.63 45.2287 214.664 45.2646 214.69C45.3005 214.716 45.3423 214.733 45.3862 214.739C45.4076 214.746 45.4305 214.747 45.4524 214.741C45.4742 214.736 45.4941 214.724 45.5096 214.708V214.708Z" fill="#9C33B0"/>
<path d="M45.5815 213.392C45.5784 213.384 45.5784 213.375 45.5815 213.367C45.5917 213.361 45.6032 213.358 45.6149 213.358C45.6267 213.358 45.6382 213.361 45.6483 213.367C45.674 213.367 46.4964 213.68 46.6352 214.076C46.6524 214.128 46.658 214.182 46.6518 214.237C46.6456 214.291 46.6276 214.343 46.5992 214.389C46.5715 214.442 46.5273 214.484 46.4735 214.509C46.4197 214.534 46.3591 214.541 46.3011 214.528C45.9773 214.456 45.5918 213.783 45.5558 213.438C45.5555 213.429 45.5577 213.42 45.5623 213.412C45.5668 213.404 45.5734 213.397 45.5815 213.392V213.392ZM46.4913 214.271C46.5026 214.245 46.5085 214.217 46.5085 214.189C46.5085 214.161 46.5026 214.133 46.4913 214.107C46.4091 213.87 45.9773 213.644 45.71 213.531C45.8035 213.879 46.0211 214.181 46.3217 214.379C46.3628 214.379 46.4193 214.379 46.4707 214.302L46.4913 214.271Z" fill="#9C33B0"/>
<path d="M49.087 210.308L48.4394 215.582C48.4394 215.582 59.4544 219.303 65.8537 219.72C72.253 220.136 88.408 215.495 88.408 215.495L81.212 206.057C81.212 206.057 66.6093 212.225 62.3996 212.287C58.1899 212.349 49.087 210.308 49.087 210.308Z" fill="#263238"/>
<path d="M100.919 203.544C100.919 203.544 109.066 208.638 110.253 209.296C111.44 209.954 115.208 210.591 115.208 210.591C115.632 210.475 116.069 210.409 116.508 210.396C116.956 210.426 118.996 210.838 118.996 210.838C118.996 210.838 119.166 210.838 119.428 211.984C119.69 213.13 120.055 214.374 119.546 214.456C119.037 214.538 115.599 214.03 115.29 213.675L114.977 213.315C114.977 213.315 109.95 213.731 108.624 213.217C107.297 212.703 98.0609 208.448 98.0609 208.448L100.919 203.544Z" fill="#E4897B"/>
<path d="M102.646 197.648C102.285 198.528 101.676 199.283 100.893 199.823C99.7345 200.63 98.3246 200.995 96.9198 200.851C95.5267 200.713 94.2391 200.047 93.3218 198.99C91.5126 196.903 91.8312 194.801 92.0317 191.182C92.2322 187.564 96.4675 185.312 100.256 187.23C104.044 189.147 103.931 194.534 102.646 197.648Z" fill="#E4897B"/>
<path d="M99.3048 184.788C99.3048 184.788 102.188 184.12 103.931 185.965C105.673 187.81 105.082 191.676 103.031 193.279C103.031 193.279 103.607 192.673 102.368 190.889C101.129 189.106 99.3048 184.788 99.3048 184.788Z" fill="#263238"/>
<path opacity="0.2" d="M100.893 199.823C99.7345 200.63 98.3246 200.995 96.9198 200.851C97.2541 200.282 97.74 199.818 98.323 199.509C99.1088 199.936 100.028 200.048 100.893 199.823V199.823Z" fill="black"/>
<path d="M94.7919 196.466C93.6405 198.25 92.3349 199.818 90.7261 199.9C91.4058 202.18 92.4098 204.351 93.7073 206.345C96.5549 206.222 96.3904 204.495 96.3904 204.495C95.2905 202.439 97.2282 200.614 98.6674 199.561C98.6674 199.561 98.6674 198.61 96.2979 197.057C95.2339 196.348 94.7919 196.466 94.7919 196.466Z" fill="#E4897B"/>
<path d="M92.6896 198.085C92.6896 198.085 90.0836 197.011 89.5388 191.064C88.9939 185.117 94.8381 183.21 100.934 185.24C107.03 187.271 102.877 195.844 97.0072 198.604C95.5506 198.923 94.0291 198.74 92.6896 198.085V198.085Z" fill="#263238"/>
<path d="M100.096 194.22C100.157 194.957 100.497 195.643 101.047 196.137C101.751 196.739 102.44 196.04 102.533 195.042C102.605 194.153 102.332 192.745 101.505 192.544C100.677 192.344 100.004 193.264 100.096 194.22Z" fill="#E4897B"/>
<path d="M97.66 200.686C95.604 199.946 94.576 206.114 95.9124 208.067C97.2488 210.02 105.242 212.369 105.242 212.369L107.426 207.014C107.426 207.014 101.258 201.94 97.66 200.686Z" fill="#9C33B0"/>
<path opacity="0.6" d="M97.66 200.686C95.604 199.946 94.576 206.114 95.9124 208.067C97.2488 210.02 105.242 212.369 105.242 212.369L107.426 207.014C107.426 207.014 101.258 201.94 97.66 200.686Z" fill="white"/>
<path d="M87.38 196.23C87.38 196.23 93.6097 197.371 97.66 200.686C101.71 204.001 99.8856 211.254 87.673 216.394C87.673 216.394 81.4227 204.757 69.6059 202.583C69.6059 202.593 81.1349 200.686 87.38 196.23Z" fill="#9C33B0"/>
<path opacity="0.6" d="M87.38 196.23C87.38 196.23 93.6097 197.371 97.66 200.686C101.71 204.001 99.8856 211.254 87.673 216.394C87.673 216.394 81.4227 204.757 69.6059 202.583C69.6059 202.593 81.1349 200.686 87.38 196.23Z" fill="white"/>
<path d="M75.0954 166.3C78.2668 160.764 87.3594 172.647 87.3594 172.647C87.3594 172.647 100.05 192.622 93.0135 195.5C85.9768 198.378 70.6904 173.989 75.0954 166.3Z" fill="#9C33B0"/>
<path opacity="0.2" d="M75.0954 166.3C78.2668 160.764 87.3594 172.647 87.3594 172.647C87.3594 172.647 100.05 192.622 93.0135 195.5C85.9768 198.378 70.6904 173.989 75.0954 166.3Z" fill="black"/>
<path d="M99.0684 216.445C98.8061 216.509 98.5365 216.539 98.2665 216.533C94.4526 216.445 94.1134 212.827 86.7735 209.265C84.195 208.045 81.5068 207.073 78.7448 206.361C78.7448 206.361 84.296 195.706 86.8352 195.166C87.1004 195.119 87.3718 195.119 87.637 195.166C90.8238 195.613 98.0455 200.768 100.544 206.361C100.544 206.361 103.735 200.861 106.67 202.763C109.441 204.541 103.828 215.366 99.0684 216.445Z" fill="#9C33B0"/>
<path opacity="0.2" d="M86.7735 209.265C84.195 208.045 81.5068 207.073 78.7448 206.361C78.7448 206.361 84.296 195.706 86.8352 195.166C87.1004 195.119 87.3717 195.119 87.637 195.166C88.4543 198.311 89.2047 203.791 86.7735 209.265Z" fill="black"/>
<path d="M87.5393 198.404C86.9328 201.894 84.6712 205.086 81.505 207.471C77.2131 210.673 71.261 212.287 65.535 210.858C64.2515 210.541 63.0095 210.076 61.8342 209.47C60.7677 208.924 59.7571 208.275 58.817 207.533C52.428 202.516 52.942 192.529 55.512 183.498C56.9584 178.333 59.0297 173.363 61.68 168.7C62.0501 168.073 62.4047 167.513 62.708 167.029C62.708 167.029 78.5649 166.67 81.8802 167.615C82.6358 167.831 83.4222 169.157 84.1315 171.213C86.6141 178.055 88.5211 192.75 87.5393 198.404Z" fill="#9C33B0"/>
<path opacity="0.2" d="M81.505 207.461C77.2131 210.663 71.261 212.277 65.535 210.848C63.5972 206.736 67.4162 199.843 71.9651 198.933C71.96 198.918 79.5672 202.069 81.505 207.461Z" fill="black"/>
<path d="M76.4781 221.503H76.4267C72.7413 220.516 73.2656 216.923 66.9691 211.737C64.7496 209.946 62.366 208.368 59.8502 207.024C59.8502 207.024 67.7349 197.972 70.346 198.049C70.6154 198.068 70.8797 198.132 71.1273 198.24C74.1188 199.422 79.9219 206.135 81.0372 212.159C81.0372 212.159 85.4319 207.563 87.8375 210.103C88.028 210.306 88.1533 210.562 88.1973 210.838C88.8295 214.127 80.8316 222.562 76.4781 221.503Z" fill="#9C33B0"/>
<path opacity="0.6" d="M79.8191 171.553C84.0544 169.723 88.1561 182.295 86.8763 195.824C85.5964 209.352 74.9669 202.444 73.2604 195.13C71.5539 187.816 73.8515 174.128 79.8191 171.553Z" fill="white"/>
<path opacity="0.2" d="M84.1726 171.203C82.5687 172.457 80.7196 173.36 78.7448 173.855C69.9451 176.184 64.1009 171.316 61.6954 168.715C62.0655 168.088 62.4202 167.528 62.7234 167.045C62.7234 167.045 78.5803 166.685 81.8956 167.631C82.6769 167.831 83.4479 169.173 84.1726 171.203Z" fill="black"/>
<path d="M79.9167 149.862C79.5271 149.669 79.1628 149.429 78.8322 149.147C77.0383 147.842 73.6613 145.251 73.6613 145.251C73.7065 144.902 73.7839 144.558 73.8926 144.223C74.2884 142.923 75.373 140.913 78.1331 141.52C82.1321 142.404 79.7985 149.574 79.9167 149.862Z" fill="#9C33B0"/>
<path opacity="0.2" d="M79.156 148.844C79.1264 148.914 79.0828 148.977 79.028 149.029C78.9732 149.081 78.9083 149.121 78.8373 149.147C77.0435 147.842 73.6665 145.251 73.6665 145.251C73.7117 144.902 73.7891 144.558 73.8978 144.223C74.8319 143.923 75.8325 143.896 76.7813 144.146C76.7813 144.146 77.3262 142.09 78.7499 142.738C80.1737 143.385 80.0298 147.004 79.156 148.844Z" fill="black"/>
<path d="M65.7303 145.544C74.679 141.155 87.4519 147.503 87.1178 159.489C86.7837 171.476 68.7115 174.94 61.2585 169.461C55.1316 164.958 53.2864 151.63 65.7303 145.544Z" fill="#9C33B0"/>
<path d="M64.4248 147.775C64.4248 147.775 61.1866 143.488 57.5577 144.984C54.3349 146.305 52.5822 151.625 58.4778 156.842C58.4778 156.842 63.6795 153.403 64.4248 147.775Z" fill="#9C33B0"/>
<path opacity="0.2" d="M63.5612 148.793C63.5612 148.793 61.5052 146.094 59.2385 147.035C57.1825 147.868 56.1031 151.214 59.8142 154.498C59.8142 154.498 63.0884 152.334 63.5612 148.793Z" fill="black"/>
<path d="M78.0663 147.775L77.1514 129.734L81.9213 146.834L78.0663 147.775Z" fill="#263238"/>
<path d="M78.7448 131.07C78.7448 131.352 78.6613 131.627 78.5049 131.861C78.3484 132.095 78.1261 132.278 77.8659 132.385C77.6057 132.493 77.3195 132.521 77.0433 132.466C76.7671 132.411 76.5134 132.276 76.3143 132.077C76.1151 131.878 75.9795 131.624 75.9246 131.348C75.8697 131.072 75.8979 130.785 76.0056 130.525C76.1134 130.265 76.2959 130.043 76.53 129.886C76.7642 129.73 77.0394 129.646 77.321 129.646C77.6986 129.646 78.0608 129.796 78.3278 130.063C78.5948 130.33 78.7448 130.692 78.7448 131.07V131.07Z" fill="#9C33B0"/>
<path opacity="0.6" d="M78.7448 131.07C78.7448 131.352 78.6613 131.627 78.5049 131.861C78.3484 132.095 78.1261 132.278 77.8659 132.385C77.6057 132.493 77.3195 132.521 77.0433 132.466C76.7671 132.411 76.5134 132.276 76.3143 132.077C76.1151 131.878 75.9795 131.624 75.9246 131.348C75.8697 131.072 75.8979 130.785 76.0056 130.525C76.1134 130.265 76.2959 130.043 76.53 129.886C76.7642 129.73 77.0394 129.646 77.321 129.646C77.6986 129.646 78.0608 129.796 78.3278 130.063C78.5948 130.33 78.7448 130.692 78.7448 131.07V131.07Z" fill="white"/>
<path d="M77.1514 134.874C77.0839 134.88 77.0159 134.872 76.9512 134.852C76.8865 134.832 76.8264 134.799 76.7744 134.756C76.6693 134.668 76.6034 134.542 76.5911 134.406C76.5789 134.27 76.6213 134.134 76.709 134.029C76.7967 133.924 76.9226 133.858 77.0589 133.846L78.5443 133.578C78.6807 133.554 78.8209 133.586 78.9341 133.665C79.0474 133.745 79.1244 133.866 79.1483 134.002C79.1721 134.139 79.1409 134.279 79.0614 134.392C78.9818 134.505 78.8606 134.582 78.7242 134.606L77.2439 134.868C77.2136 134.875 77.1823 134.877 77.1514 134.874V134.874Z" fill="#9C33B0"/>
<path d="M77.321 137.274C77.1986 137.276 77.0795 137.234 76.9853 137.156C76.891 137.077 76.8278 136.968 76.807 136.847C76.783 136.714 76.8127 136.576 76.8898 136.464C76.9668 136.353 77.0849 136.276 77.2182 136.251L79.1354 135.912C79.2019 135.9 79.2701 135.901 79.3361 135.916C79.402 135.93 79.4645 135.958 79.5198 135.996C79.5752 136.035 79.6224 136.084 79.6588 136.141C79.6951 136.198 79.7199 136.262 79.7317 136.328C79.7435 136.395 79.7422 136.463 79.7276 136.529C79.7131 136.595 79.6857 136.657 79.6471 136.713C79.6084 136.768 79.5592 136.815 79.5023 136.852C79.4454 136.888 79.3818 136.913 79.3153 136.924L77.4033 137.264L77.321 137.274Z" fill="#9C33B0"/>
<path d="M77.614 139.649C77.4777 139.661 77.3421 139.619 77.237 139.531C77.1319 139.443 77.066 139.317 77.0537 139.181C77.0415 139.045 77.0839 138.909 77.1716 138.804C77.2593 138.699 77.3852 138.633 77.5215 138.621L79.8499 138.204C79.9174 138.193 79.9866 138.194 80.0534 138.209C80.1203 138.224 80.1836 138.252 80.2397 138.291C80.2958 138.331 80.3436 138.381 80.3803 138.439C80.417 138.496 80.442 138.561 80.4538 138.628C80.4657 138.696 80.4641 138.765 80.4491 138.832C80.4342 138.899 80.4063 138.962 80.3669 139.018C80.3275 139.074 80.2775 139.122 80.2196 139.159C80.1618 139.196 80.0973 139.221 80.0298 139.232L77.7014 139.649H77.614Z" fill="#9C33B0"/>
<path d="M77.6448 142.075C77.5085 142.087 77.3729 142.045 77.2678 141.957C77.1628 141.869 77.0969 141.743 77.0846 141.607C77.0723 141.471 77.1147 141.335 77.2024 141.23C77.2901 141.125 77.416 141.059 77.5523 141.047L80.3947 140.533C80.4612 140.521 80.5294 140.522 80.5954 140.537C80.6613 140.551 80.7238 140.579 80.7791 140.617C80.8345 140.656 80.8817 140.705 80.9181 140.762C80.9544 140.819 80.9792 140.883 80.991 140.949C81.015 141.083 80.9853 141.22 80.9082 141.332C80.8312 141.444 80.7131 141.52 80.5798 141.545L77.7322 142.059L77.6448 142.075Z" fill="#9C33B0"/>
<path d="M77.8916 144.46C77.7552 144.472 77.6196 144.43 77.5146 144.342C77.4095 144.254 77.3436 144.128 77.3313 143.992C77.319 143.856 77.3614 143.72 77.4491 143.615C77.5369 143.51 77.6627 143.444 77.799 143.432L81.2326 142.82C81.299 142.808 81.3672 142.81 81.4332 142.824C81.4991 142.839 81.5616 142.866 81.617 142.905C81.6723 142.943 81.7195 142.993 81.7559 143.049C81.7922 143.106 81.817 143.17 81.8288 143.236C81.8406 143.303 81.8393 143.371 81.8247 143.437C81.8102 143.503 81.7828 143.565 81.7442 143.621C81.7055 143.676 81.6563 143.723 81.5994 143.76C81.5425 143.796 81.479 143.821 81.4125 143.833L77.9789 144.434L77.8916 144.46Z" fill="#9C33B0"/>
<g opacity="0.6">
<path opacity="0.6" d="M77.1514 134.874C77.0839 134.88 77.0159 134.872 76.9512 134.852C76.8865 134.832 76.8264 134.799 76.7744 134.756C76.6693 134.668 76.6034 134.542 76.5911 134.406C76.5789 134.27 76.6213 134.134 76.709 134.029C76.7967 133.924 76.9226 133.858 77.0589 133.846L78.5443 133.578C78.6807 133.554 78.8209 133.586 78.9341 133.665C79.0474 133.745 79.1244 133.866 79.1483 134.002C79.1721 134.139 79.1409 134.279 79.0614 134.392C78.9818 134.505 78.8606 134.582 78.7242 134.606L77.2439 134.868C77.2136 134.875 77.1823 134.877 77.1514 134.874V134.874Z" fill="white"/>
</g>
<g opacity="0.6">
<path opacity="0.6" d="M77.321 137.274C77.1986 137.276 77.0795 137.234 76.9853 137.156C76.891 137.077 76.8278 136.968 76.807 136.847C76.783 136.714 76.8127 136.576 76.8898 136.464C76.9668 136.353 77.0849 136.276 77.2182 136.251L79.1354 135.912C79.2019 135.9 79.2701 135.901 79.3361 135.916C79.402 135.93 79.4645 135.958 79.5198 135.996C79.5752 136.035 79.6224 136.084 79.6588 136.141C79.6951 136.198 79.7199 136.262 79.7317 136.328C79.7435 136.395 79.7422 136.463 79.7276 136.529C79.7131 136.595 79.6857 136.657 79.6471 136.713C79.6084 136.768 79.5592 136.815 79.5023 136.852C79.4454 136.888 79.3818 136.913 79.3153 136.924L77.4033 137.264L77.321 137.274Z" fill="white"/>
</g>
<g opacity="0.6">
<path opacity="0.6" d="M77.614 139.649C77.4777 139.661 77.3421 139.619 77.237 139.531C77.1319 139.443 77.066 139.317 77.0537 139.181C77.0415 139.045 77.0839 138.909 77.1716 138.804C77.2593 138.699 77.3852 138.633 77.5215 138.621L79.8499 138.204C79.9174 138.193 79.9866 138.194 80.0534 138.209C80.1203 138.224 80.1836 138.252 80.2397 138.291C80.2958 138.331 80.3436 138.381 80.3803 138.439C80.417 138.496 80.442 138.561 80.4538 138.628C80.4657 138.696 80.4641 138.765 80.4491 138.832C80.4342 138.899 80.4063 138.962 80.3669 139.018C80.3275 139.074 80.2775 139.122 80.2196 139.159C80.1618 139.196 80.0973 139.221 80.0298 139.232L77.7014 139.649H77.614Z" fill="white"/>
</g>
<g opacity="0.6">
<path opacity="0.6" d="M77.6448 142.075C77.5085 142.087 77.3729 142.045 77.2678 141.957C77.1628 141.869 77.0969 141.743 77.0846 141.607C77.0723 141.471 77.1147 141.335 77.2024 141.23C77.2901 141.125 77.416 141.059 77.5523 141.047L80.3947 140.533C80.4612 140.521 80.5294 140.522 80.5954 140.537C80.6613 140.551 80.7238 140.579 80.7791 140.617C80.8345 140.656 80.8817 140.705 80.9181 140.762C80.9544 140.819 80.9792 140.883 80.991 140.949C81.015 141.083 80.9853 141.22 80.9082 141.332C80.8312 141.444 80.7131 141.52 80.5798 141.545L77.7322 142.059L77.6448 142.075Z" fill="white"/>
</g>
<g opacity="0.6">
<path opacity="0.6" d="M77.8916 144.46C77.7552 144.472 77.6196 144.43 77.5146 144.342C77.4095 144.254 77.3436 144.128 77.3313 143.992C77.319 143.856 77.3614 143.72 77.4491 143.615C77.5369 143.51 77.6627 143.444 77.799 143.432L81.2326 142.82C81.299 142.808 81.3672 142.81 81.4332 142.824C81.4991 142.839 81.5616 142.866 81.617 142.905C81.6723 142.943 81.7195 142.993 81.7559 143.049C81.7922 143.106 81.817 143.17 81.8288 143.236C81.8406 143.303 81.8393 143.371 81.8247 143.437C81.8102 143.503 81.7828 143.565 81.7442 143.621C81.7055 143.676 81.6563 143.723 81.5994 143.76C81.5425 143.796 81.479 143.821 81.4125 143.833L77.9789 144.434L77.8916 144.46Z" fill="white"/>
</g>
<path d="M91.456 154.262C89.1372 154.978 86.7679 155.519 84.368 155.881" stroke="#263238" stroke-linecap="round" stroke-linejoin="round"/>
<path d="M92.3298 163.385L90.6593 145.94C90.6313 145.643 90.5428 145.355 90.3994 145.093C90.2559 144.831 90.0605 144.602 89.8251 144.419C89.5898 144.235 89.3194 144.102 89.0306 144.027C88.7418 143.952 88.4408 143.936 88.1459 143.982L69.3232 146.906C68.6939 147.004 68.1256 147.339 67.7341 147.841C67.3425 148.343 67.1572 148.976 67.2158 149.61L69.0148 168.834C69.0445 169.148 69.1418 169.452 69.3 169.725C69.4582 169.998 69.6735 170.234 69.9313 170.416C70.189 170.598 70.4831 170.722 70.7933 170.78C71.1036 170.838 71.4226 170.828 71.7287 170.751L90.464 166.048C91.0416 165.9 91.5471 165.55 91.8893 165.062C92.2315 164.573 92.3878 163.979 92.3298 163.385V163.385ZM69.2564 159.69C68.9171 159.69 68.6447 159.33 68.6447 158.877C68.6447 158.425 68.9171 158.07 69.2564 158.07C69.5956 158.07 69.8629 158.43 69.8629 158.877C69.8629 159.325 69.5905 159.69 69.2564 159.69ZM90.2276 155.49C89.8883 155.49 89.6159 155.125 89.6159 154.678C89.6159 154.231 89.8883 153.866 90.2276 153.866C90.5668 153.866 90.8392 154.231 90.8392 154.678C90.8392 155.125 90.5617 155.49 90.2276 155.49V155.49Z" fill="#9C33B0"/>
<path opacity="0.6" d="M92.3298 163.385L90.6593 145.94C90.6313 145.643 90.5428 145.355 90.3994 145.093C90.2559 144.831 90.0605 144.602 89.8251 144.419C89.5898 144.235 89.3194 144.102 89.0306 144.027C88.7418 143.952 88.4408 143.936 88.1459 143.982L69.3232 146.906C68.6939 147.004 68.1256 147.339 67.7341 147.841C67.3425 148.343 67.1572 148.976 67.2158 149.61L69.0148 168.834C69.0445 169.148 69.1418 169.452 69.3 169.725C69.4582 169.998 69.6735 170.234 69.9313 170.416C70.189 170.598 70.4831 170.722 70.7933 170.78C71.1036 170.838 71.4226 170.828 71.7287 170.751L90.464 166.048C91.0416 165.9 91.5471 165.55 91.8893 165.062C92.2315 164.573 92.3878 163.979 92.3298 163.385V163.385ZM69.2564 159.69C68.9171 159.69 68.6447 159.33 68.6447 158.877C68.6447 158.425 68.9171 158.07 69.2564 158.07C69.5956 158.07 69.8629 158.43 69.8629 158.877C69.8629 159.325 69.5905 159.69 69.2564 159.69ZM90.2276 155.49C89.8883 155.49 89.6159 155.125 89.6159 154.678C89.6159 154.231 89.8883 153.866 90.2276 153.866C90.5668 153.866 90.8392 154.231 90.8392 154.678C90.8392 155.125 90.5617 155.49 90.2276 155.49V155.49Z" fill="white"/>
<path d="M87.894 147.775L88.2692 151.311C88.2973 151.613 88.2581 151.918 88.1547 152.203C88.0512 152.488 87.886 152.746 87.6708 152.96C87.4557 153.174 87.1959 153.337 86.9101 153.439C86.6243 153.54 86.3197 153.577 86.0179 153.547L83.0573 153.218L87.894 147.775Z" fill="#9C33B0"/>
<path d="M72.1707 150.371L80.8316 153.604L75.558 155.742C75.2325 155.873 74.8808 155.927 74.531 155.898C74.1813 155.869 73.843 155.759 73.5434 155.576C73.2438 155.393 72.9911 155.143 72.8054 154.845C72.6197 154.547 72.5062 154.21 72.474 153.861L72.1707 150.371Z" fill="#9C33B0"/>
<path d="M75.7482 160.157C78.0612 159.191 82.4302 157.695 87.0562 157.88C87.5975 157.907 88.1077 158.141 88.4803 158.535C88.8528 158.929 89.0589 159.451 89.0556 159.993V159.993C89.0569 160.517 88.8627 161.023 88.5111 161.411C88.1594 161.8 87.6755 162.044 87.1538 162.095C84.8768 162.316 80.9344 162.897 77.5009 164.393C77.2238 164.514 76.9238 164.575 76.6213 164.57C76.3187 164.566 76.0206 164.497 75.7472 164.367C75.4738 164.237 75.2314 164.05 75.0365 163.819C74.8416 163.587 74.6986 163.317 74.6174 163.025L74.5197 162.676C74.3813 162.178 74.4299 161.648 74.6562 161.184C74.8826 160.72 75.271 160.354 75.7482 160.157V160.157Z" fill="white"/>
<path d="M75.2188 163.452C75.6814 162.573 76.1645 161.715 76.6374 160.846L76.7145 160.712L76.8276 160.82L79.0172 162.876L78.7037 162.933C79.192 161.797 79.7317 160.682 80.2457 159.556L80.3948 159.227L80.6363 159.499C81.32 160.26 82.0139 161.01 82.6923 161.776L82.2657 161.859L83.3554 158.872L83.4839 158.518L83.7409 158.79C84.4502 159.561 85.1441 160.332 85.8329 161.134L85.545 161.165C86.059 160.311 86.5319 159.448 87.0459 158.595L87.1333 158.451L87.2155 158.59C87.5805 159.247 87.9557 159.905 88.3155 160.568C87.8837 159.947 87.4674 159.319 87.0511 158.692H87.2155C86.7786 159.582 86.3109 160.455 85.8586 161.339L85.7506 161.555L85.5707 161.375C84.8409 160.625 84.1178 159.868 83.4016 159.104L83.7871 159.021L82.7591 162.028L82.6204 162.434L82.3325 162.116C81.6438 161.355 80.9807 160.574 80.3074 159.818L80.7031 159.761C80.1891 160.872 79.6443 161.992 79.084 163.097L78.9607 163.344L78.7756 163.154L76.6888 161.016L76.879 160.99C76.3033 161.781 75.7739 162.619 75.2188 163.452Z" fill="#9C33B0"/>
<path d="M69.2564 158.877C69.2564 158.877 61.3099 160.301 56.9204 162.537" stroke="#263238" stroke-linecap="round" stroke-linejoin="round"/>
<path opacity="0.2" d="M61.8342 209.46C60.7677 208.914 59.7571 208.265 58.817 207.522C52.428 202.516 52.942 192.529 55.512 183.498L64.985 180.039C66.2649 183.863 67.848 201.601 61.8342 209.46Z" fill="black"/>
<path d="M60.2819 172.858C66.3882 171.003 64.8565 185.888 64.8565 185.888C64.8565 185.888 60.4001 209.131 53.3172 206.412C46.2343 203.693 51.8009 175.433 60.2819 172.858Z" fill="#9C33B0"/>
<path opacity="0.2" d="M99.0684 216.445C99.423 212.801 104.815 201.817 106.67 202.752C109.441 204.541 103.828 215.366 99.0684 216.445Z" fill="black"/>
<path opacity="0.2" d="M76.478 221.503C77.506 218.661 86.0179 210.396 88.1972 210.812C88.8295 214.127 80.8316 222.562 76.478 221.503Z" fill="black"/>
<path d="M29.7432 201.422C33.7986 197.237 36.1854 180.195 32.2272 176.879H12.0906C8.13239 180.195 10.5138 197.226 14.5692 201.417L14.6826 201.53L14.8176 201.67C14.9364 201.784 15.0552 201.892 15.1848 202L15.282 202.075C15.3846 202.156 15.4818 202.237 15.5898 202.313C15.7638 202.436 15.9441 202.549 16.1298 202.653C19.467 204.597 24.8778 204.597 28.215 202.653C28.3932 202.551 28.5714 202.432 28.755 202.308C28.9386 202.183 28.9494 202.162 29.0412 202.092L29.16 201.994C29.2896 201.892 29.403 201.784 29.5164 201.676L29.6784 201.519L29.7432 201.422Z" fill="url(#paint0_linear)"/>
<path d="M13.8402 175.54C9.24477 178.24 9.24477 182.56 13.8402 185.26C18.4356 187.96 25.8822 187.96 30.4776 185.26C35.073 182.56 35.073 178.24 30.4776 175.54C25.8822 172.84 18.4356 172.856 13.8402 175.54Z" fill="url(#paint1_linear)"/>
<path d="M16.0488 176.83C12.6738 178.801 12.6738 181.993 16.0488 183.964C19.4238 185.935 24.894 185.935 28.269 183.964C31.644 181.993 31.6386 178.801 28.269 176.83C24.8994 174.859 19.4238 174.859 16.0488 176.83Z" fill="url(#paint2_linear)"/>
<path d="M28.269 180.216C24.894 178.245 19.4238 178.245 16.0488 180.216C15.2291 180.662 14.5346 181.306 14.0292 182.09C14.5376 182.872 15.2314 183.515 16.0488 183.964C19.4238 185.935 24.894 185.935 28.269 183.964C29.0938 183.52 29.7967 182.88 30.3156 182.101C29.8026 181.311 29.0987 180.662 28.269 180.216V180.216Z" fill="url(#paint3_linear)"/>
<path d="M13.1274 145.451L20.7684 151.51L13.3758 148.081C13.3867 150.478 13.8199 152.854 14.6556 155.101C16.6779 156.309 18.6026 157.674 20.412 159.183L14.742 156.942C14.742 156.942 14.3532 160.679 15.9084 166.376C16.3188 167.866 17.9928 170.696 19.0512 172.856C19.5356 173.841 20.0858 174.791 20.6982 175.702C20.7306 175.761 20.7738 175.815 20.8116 175.875C22.1076 175.129 23.454 174.409 24.8508 173.715C25.7634 171.798 26.9514 167.062 27.378 163.19C28.998 148.351 17.793 139.851 8.775 137C10.7159 139.536 12.1897 142.398 13.1274 145.451Z" fill="#77B033"/>
<path d="M19.5156 146.072C21.0762 147.638 21.9888 149.706 22.6908 151.769C23.3765 153.853 23.831 156.006 24.0462 158.19C24.5313 162.55 23.9762 166.964 22.4262 171.069V171.069C22.4068 171.122 22.4089 171.18 22.4321 171.232C22.4553 171.283 22.4978 171.323 22.5504 171.344C22.6034 171.365 22.6627 171.365 22.7153 171.343C22.768 171.32 22.8096 171.278 22.8312 171.225V171.225C24.3318 167.045 24.8222 162.569 24.2622 158.163C24.007 155.974 23.5145 153.819 22.7934 151.737C22.059 149.701 21.1032 147.616 19.5156 146.072Z" fill="#A8FA48"/>
<path d="M46.2132 153.227C43.3318 156.808 40.6649 160.557 38.2266 164.454L30.4668 165.701L36.1908 166.7L33.1182 171.56L25.4556 173.153L31.3956 174.125C31.3956 174.125 29.7432 179.941 25.4556 182.365C23.0958 183.705 21.9456 183.91 21.2382 183.24C20.7468 182.77 20.628 180 20.2176 177.489C19.8072 174.978 19.7748 170.95 22.1238 166.063C22.7617 164.755 23.5837 163.546 24.5646 162.472C30.2724 156.181 40.9374 153.151 46.2132 153.227Z" fill="#77B033"/>
<path d="M38.1024 155.765C34.0214 157.467 30.3424 160.006 27.3024 163.217C25.7953 164.844 24.5493 166.695 23.6088 168.703C22.7023 170.721 22.1331 172.874 21.924 175.075C21.924 175.075 21.924 175.075 21.924 175.075C21.9327 175.079 21.9423 175.079 21.951 175.075C22.3639 172.933 23.0461 170.852 23.9814 168.882C24.9152 166.915 26.1143 165.085 27.5454 163.444C30.5049 160.204 34.0957 157.604 38.097 155.803V155.77C38.097 155.77 38.1132 155.765 38.1024 155.765Z" fill="#A8FA48"/>
<path d="M0 156.429C0.652821 156.422 1.3055 156.453 1.9548 156.521C4.50783 156.818 7.0144 157.429 9.4176 158.341C10.3086 158.676 11.205 159.054 12.0852 159.475C12.528 159.68 12.96 159.901 13.392 160.134C15.5246 161.247 17.4571 162.706 19.1106 164.454C19.879 165.292 20.5409 166.223 21.0816 167.224C21.1518 167.353 21.2274 167.478 21.2922 167.607C21.4596 167.947 21.6054 168.282 21.7458 168.612C23.0786 171.479 23.6585 174.638 23.4306 177.792C23.3496 180.016 22.5936 182.56 22.1616 182.976C22.1043 183.033 22.0388 183.083 21.9672 183.121C21.3354 183.526 20.3472 183.289 18.4356 182.236C14.6556 180.119 13.176 174.768 13.176 174.768L18.4302 173.871L11.6802 172.527L8.9424 168.25L13.986 167.337L7.128 166.257C4.95675 162.832 2.58 159.54 0.0108023 156.402L0 156.429Z" fill="#77B033"/>
<path d="M1.95482 156.521C4.50785 156.818 7.01443 157.429 9.41763 158.341C10.3086 158.676 11.205 159.054 12.0852 159.475C12.528 159.68 12.96 159.901 13.392 160.134C15.5246 161.247 17.4571 162.706 19.1106 164.454C19.879 165.292 20.541 166.223 21.0816 167.224C21.1518 167.353 21.2274 167.478 21.2922 167.607C21.4596 167.947 21.6054 168.282 21.7458 168.612C23.0786 171.479 23.6585 174.638 23.4306 177.792C23.3496 180.016 22.5936 182.56 22.1616 182.976C22.1043 183.033 22.0388 183.083 21.9672 183.121C21.8396 183.198 21.6984 183.249 21.5514 183.273C22.0158 179.822 20.3202 171.074 17.7714 167.472C15.0714 163.73 8.75343 158.292 0.0324249 156.424C0.674562 156.419 1.31643 156.452 1.95482 156.521V156.521Z" fill="#77B033"/>
<path d="M21.573 183.294C21.7398 180.738 21.5728 178.171 21.0762 175.659C20.6184 173.128 19.7637 170.686 18.5436 168.423C17.194 166.222 15.4579 164.282 13.419 162.699C11.4142 161.097 9.20398 159.771 6.8472 158.757H6.8148C6.8148 158.757 6.8148 158.757 6.8148 158.784C9.06217 159.976 11.1811 161.397 13.1382 163.023C14.1239 163.818 15.0531 164.68 15.9192 165.604C16.8002 166.508 17.5773 167.508 18.2358 168.585C19.4772 170.801 20.3611 173.199 20.8548 175.691C21.4026 178.172 21.6259 180.713 21.519 183.251C21.519 183.251 21.573 183.305 21.573 183.294Z" fill="#A8FA48"/>
<defs>
<linearGradient id="paint0_linear" x1="22.1581" y1="176.879" x2="22.1581" y2="204.111" gradientUnits="userSpaceOnUse">
<stop stop-color="#ECBBF4"/>
<stop offset="1" stop-color="#F1DEF4"/>
</linearGradient>
<linearGradient id="paint1_linear" x1="22.1589" y1="173.521" x2="22.1589" y2="187.285" gradientUnits="userSpaceOnUse">
<stop stop-color="#ECBBF4"/>
<stop offset="1" stop-color="#F1DEF4"/>
</linearGradient>
<linearGradient id="paint2_linear" x1="22.1579" y1="175.352" x2="22.1579" y2="185.442" gradientUnits="userSpaceOnUse">
<stop stop-color="#ECBBF4"/>
<stop offset="1" stop-color="#F1DEF4"/>
</linearGradient>
<linearGradient id="paint3_linear" x1="22.1724" y1="178.738" x2="22.1724" y2="185.442" gradientUnits="userSpaceOnUse">
<stop stop-color="#ECBBF4"/>
<stop offset="1" stop-color="#F1DEF4"/>
</linearGradient>
</defs>
</svg>
