<svg width="504" height="98" viewBox="0 0 504 98" fill="none" xmlns="http://www.w3.org/2000/svg">
<path d="M32.1683 96.68C33.1136 96.5793 34.0172 96.248 34.7948 95.7171C35.5724 95.1861 36.1986 94.4728 36.615 93.6436C37.0314 92.8144 37.2244 91.8965 37.176 90.9754C37.1277 90.0543 36.8394 89.1601 36.3383 88.3763C35.0734 86.6509 32.7243 85.9769 30.7783 85.1681C29.5969 84.8054 28.5205 84.1773 27.6369 83.3348C25.7465 80.9623 28.318 78.6572 30.1667 77.4306C32.5019 75.8804 35.2819 74.8559 37.1167 72.6451C38.545 70.8697 39.2211 68.6327 39.0071 66.3904C38.5067 60.9984 33.7946 58.626 29.1798 56.6848C22.7163 53.9888 16.2945 51.2928 13.3616 44.6337C10.1507 37.3141 14.2234 28.0264 20.8954 23.9554C24.4031 21.8518 28.5613 21.0098 32.6439 21.5765C36.7265 22.1432 40.4742 24.0825 43.2327 27.0558C48.9317 32.9735 51.2391 42.396 47.8336 49.9718C40.9809 65.1503 14.0844 60.8502 9.7198 45.9278C8.63093 41.9405 8.64751 37.745 9.76787 33.7659C10.8882 29.7868 13.0726 26.1653 16.0999 23.2679C18.6805 20.9525 21.7864 19.258 25.1668 18.3214C28.5473 17.3847 32.1074 17.2321 35.5599 17.8759C39.5492 18.7387 43.2131 20.6586 46.1434 23.4219C49.0738 26.1851 51.1554 29.6832 52.1565 33.5262C53.3208 37.4655 53.7907 41.5671 53.5465 45.6582C53.0028 49.9846 50.8235 53.9616 47.4305 56.8196C44.4786 59.4641 40.9312 61.4041 37.0703 62.4853C33.2094 63.5664 29.1416 63.7589 25.1905 63.0474C21.3421 62.2386 17.7392 60.5763 14.6644 58.1908C11.5896 55.8052 9.12638 52.7613 7.46799 49.2978C2.46399 38.069 5.77219 22.1626 17.8374 16.4605C26.2608 12.4165 35.3236 11.756 43.2883 17.1076C49.8507 21.3464 54.6676 27.6877 56.8964 35.0225C58.043 38.9983 58.1186 43.1929 57.116 47.2051C56.1133 51.2173 54.0659 54.9129 51.1696 57.9385C46.0048 63.0032 39.049 65.9761 31.7096 66.2556C24.7561 66.7515 17.8579 64.7456 12.333 60.621C6.03629 55.6873 2.60299 47.8015 1.89409 40.1044C0.50409 25.6404 9.05259 13.7645 22.5217 8.08944C36.7414 2.1178 53.1017 3.331 67.7384 7.07844C83.2091 11.0416 98.0404 17.5794 112.079 24.9529C119.502 28.8486 126.744 33.0409 134.319 36.5322C141.177 39.7245 148.212 42.5461 155.392 44.9842C168.319 49.3517 181.802 52.4252 195.507 52.4252C208.54 52.6224 221.486 50.3323 233.607 45.6852C244.828 41.2953 254.525 33.8928 261.56 24.3463C264.91 19.844 267.69 15.0586 267.37 9.34308C267.05 4.4094 263.867 0.581076 258.446 0.958516C251.997 1.41684 248.438 7.25368 245.631 12.1874L246.423 12.3626C244.241 8.50731 241.822 4.2746 237.708 2.07736C234.58 0.405838 230.188 0.109275 227.31 2.40088C220.694 7.65808 225.406 18.132 229.409 23.4162C238.847 35.8717 254.596 43.2318 269.33 47.9363C290.458 54.6763 313.421 57.3049 335.369 53.0318C354.287 49.3382 371.509 40.8054 388.37 32.003C398.364 26.7727 408.274 21.2998 418.727 16.9593C429.958 12.2817 442.816 8.61516 454.867 12.3896C465.098 15.5843 474.73 26.0044 471.825 37.0714C469.365 46.5074 457.369 53.0857 448.529 47.1679C441.023 42.1399 428.457 25.0877 442.594 20.208C451.531 17.1076 463.305 21.7582 469.99 27.5546C473.896 30.965 476.94 35.9122 474.661 41.0346C472.381 46.157 466.432 48.2598 461.233 48.4755C450.113 48.9338 438.507 41.3446 438.298 29.8462C438.198 27.3549 438.693 24.8748 439.744 22.5995C440.795 20.3243 442.375 18.3156 444.359 16.7301C448.654 13.468 454.311 12.6861 459.649 13.2792C470.185 14.425 481.486 20.6124 486.615 29.8192C491.452 38.5138 489.617 51.185 479.665 55.7412C470.741 59.7852 458.592 58.0059 449.752 54.5685C440.912 51.1311 432.641 44.4854 429.889 35.2247C426.803 24.8451 432.405 12.6996 444.901 13.5758C456.549 14.3981 466.724 24.5216 469.017 35.3325C471.13 45.2808 465.779 56.9005 455.423 60.2301C445.902 63.29 433.183 57.5341 432.989 46.9792C432.78 37.4219 442.983 28.1072 452.449 33.998C456.549 36.5592 459.538 41.5064 458.44 46.3187C457.341 51.1311 451.309 55.7547 446.486 52.2634C444.94 50.9754 443.794 49.2963 443.176 47.4135C442.557 45.5307 442.49 43.5182 442.983 41.6007C444.22 36.7749 449.46 34.2002 454.228 33.7554C459.475 33.2777 464.726 34.6356 469.031 37.5837C471.422 39.3361 473.201 42.2478 471.297 45.0112C468.795 48.5968 465.042 45.3482 464.222 42.3152C463.683 40.2677 463.868 38.104 464.747 36.1707C465.627 34.2374 467.15 32.6463 469.073 31.6525C474.16 29.3878 479.707 33.7284 480.471 38.6756C480.819 40.9402 480.207 43.5958 477.691 44.418C476.477 44.7679 475.178 44.7242 473.991 44.2936C472.805 43.8631 471.796 43.0691 471.116 42.0321C468.239 36.8962 476.537 32.4343 480.68 35.2921C485.878 38.8238 483.807 46.3592 478.831 48.8799C476.541 50.021 473.92 50.3756 471.395 49.886C468.871 49.3964 466.592 48.0913 464.931 46.1839C463.27 44.2886 462.149 42.0054 461.679 39.5606C461.208 37.1158 461.405 34.5942 462.248 32.2456C463.155 30.1368 464.523 28.2441 466.258 26.6987C467.993 25.1532 470.054 23.9918 472.298 23.2949C482.987 19.6957 495.58 27.1232 495.928 38.4464C496.192 48.0711 487.894 56.9679 478.233 58.4103C467.322 60.0279 455.924 53.3957 451.017 44.0271C448.652 39.8443 448.049 34.9359 449.335 30.3314C451.253 24.562 457.494 22.4052 463.318 23.0927C466.119 23.4453 468.808 24.3851 471.197 25.8467C473.585 27.3083 475.617 29.2566 477.152 31.5565C478.686 33.8563 479.686 36.4525 480.081 39.1647C480.477 41.8769 480.259 44.64 479.442 47.2623C477.788 52.4925 474.008 55.6873 469.977 59.2191C466.557 62.2386 463.471 65.9591 463.847 70.6906C464.139 74.438 466.627 76.433 470.074 77.7406C471.77 78.3876 475.12 79.0886 475.133 81.4072C475.147 83.7257 472.353 84.4941 470.63 85.195C467.669 86.3947 464.597 87.891 465 91.5441C465.131 92.989 465.792 94.3404 466.863 95.3523C467.935 96.3642 469.345 96.9693 470.838 97.0574C471.95 97.0574 471.325 95.5881 470.449 95.5746C466.807 95.4668 465.417 90.7488 467.919 88.4842C469.699 86.8666 472.367 86.5026 474.397 85.2894C477.913 83.2 476.996 79.4391 473.66 77.7406C471.2 76.4735 467.947 76.1634 466.349 73.6966C464.375 70.704 465.668 66.5387 467.739 63.8966C471.561 58.9764 477.371 56.1591 480.04 50.3223C481.164 47.8327 481.768 45.1516 481.817 42.4343C481.866 39.7169 481.358 37.0171 480.324 34.4911C479.29 31.9651 477.75 29.663 475.792 27.7181C473.835 25.7731 471.499 24.2239 468.92 23.1601C463.721 21.0033 456.827 20.5584 452.032 23.915C448.001 26.7458 446.791 31.6929 447.25 36.2896C448.334 47.0736 458.023 56.3613 468.573 59.2056C473.734 60.6535 479.257 60.2854 484.166 58.1666C489.075 56.0478 493.054 52.3144 495.4 47.6263C496.531 45.3249 497.162 42.8226 497.254 40.2747C497.347 37.7268 496.898 35.1878 495.936 32.8151C494.974 30.4425 493.519 28.2869 491.662 26.4822C489.806 24.6775 487.586 23.2623 485.141 22.3243C475.731 18.523 462.735 23.0657 460.358 33.324C458.231 42.5174 466.057 53.2474 476.357 51.3198C481.208 50.4166 485.225 46.7096 485.128 41.722C485.128 37.678 482.264 33.4453 477.83 33.014C473.785 32.6096 469.282 35.71 469.24 39.754C469.24 43.461 473.09 46.13 476.69 46.0491C481.347 45.9278 482.653 41.3716 481.555 37.6106C480.36 33.5666 476.537 29.954 472.103 29.6979C463.152 29.1856 459.051 42.2612 466.237 47.1006C470.032 49.6348 474.077 45.8874 473.438 41.9108C472.659 37.1793 466.891 34.5507 462.707 33.324C453.978 30.7898 440.342 33.5532 441.37 44.7685C441.481 46.641 442.059 48.4594 443.054 50.0677C444.049 51.676 445.432 53.0262 447.083 54.0023C451.337 56.1591 456.16 53.8136 458.467 50.0527C463.596 41.6681 454.923 30.655 445.582 30.7493C435.477 30.8572 429.277 42.6252 432.474 51.2389C435.922 60.5266 448.195 64.7189 457.3 61.0254C467.989 56.6848 472.715 44.2967 469.81 33.8632C466.849 23.187 456.785 13.5354 445.207 12.2952C442.458 11.9008 439.651 12.2511 437.095 13.3073C434.539 14.3635 432.333 16.0846 430.723 18.2803C427.894 22.7859 427.015 28.1928 428.277 33.324C430.403 43.5553 438.896 51.185 448.445 55.229C453.436 57.336 458.754 58.6208 464.18 59.0304C470.06 59.4752 476.69 59.1786 481.875 56.1996C491.355 50.8076 492.467 37.8937 487.435 29.2396C481.875 19.5879 470.143 13.0636 458.954 11.9986C453.394 11.4729 447.375 12.4435 442.997 16.0426C441.025 17.765 439.477 19.8944 438.466 22.274C437.456 24.6537 437.009 27.2228 437.159 29.7922C437.59 41.0211 447.917 48.9338 458.982 49.6483C464.111 49.9853 469.81 48.7182 473.479 45.0112C475.125 43.3168 476.171 41.157 476.463 38.8464C476.756 36.5358 476.28 34.1949 475.106 32.1647C470.338 23.3218 457.731 17.9838 447.778 18.1051C443.358 18.1051 438.702 19.4531 436.38 23.4971C433.419 28.5116 435.88 34.2811 438.952 38.6621C442.024 43.0431 446.583 48.4486 452.171 50.1605C454.449 50.7705 456.841 50.8665 459.164 50.4413C461.487 50.016 463.678 49.0808 465.57 47.7072C474.994 41.3176 475.3 29.4148 468.739 20.8954C460.816 10.5428 447.069 8.30512 434.671 10.6372C420.34 13.3332 407.107 20.8146 394.361 27.4737C383.81 32.987 373.302 38.6621 362.293 43.3262C351.053 48.2572 339.139 51.5896 326.918 53.2205C312.515 54.7934 297.94 53.9591 283.828 50.7536C271.069 48.2045 258.816 43.6851 247.535 37.368C240.071 33.0544 232.676 27.4467 228.186 20.0866C225.239 15.2338 222.362 5.00252 229.798 2.27956C237.235 -0.4434 242.586 7.25367 245.672 12.6592C245.825 12.9422 246.242 13.2253 246.465 12.8344C248.563 9.15436 250.857 5.06992 254.805 3.04792C258.335 1.26856 263.617 1.48424 265.535 5.36648C268.996 12.3896 263.353 20.4236 259.1 25.7617C250.635 36.384 238.5 43.4744 225.364 47.3297C210.894 51.4966 195.655 52.5184 180.731 50.3223C163.954 47.8015 147.677 41.8838 132.485 34.672C124.006 30.628 115.971 25.883 107.604 21.6773C99.7753 17.7326 91.7289 14.209 83.501 11.1224C69.184 5.81132 53.6021 1.83471 38.1453 3.16923C23.9534 4.39591 8.80239 11.2572 3.18679 24.7372C-1.92841 37.0175 1.43539 53.5979 12.5693 61.8207C23.7032 70.0435 40.8836 68.736 50.836 59.4887C62.0533 49.0552 59.9127 32.2726 50.0298 21.7447C44.859 16.2179 37.909 11.756 29.9443 12.093C23.4249 12.296 17.2004 14.7757 12.4164 19.0756C7.96704 23.5404 5.19871 29.3288 4.55814 35.5067C3.91757 41.6846 5.44212 47.8917 8.88579 53.1261C10.9975 56.1211 13.7544 58.636 16.966 60.497C20.1776 62.3581 23.7675 63.521 27.4877 63.9055C31.2079 64.29 34.9698 63.8869 38.5137 62.724C42.0576 61.5611 45.2991 59.6662 48.0143 57.1701C53.7689 51.8994 54.9643 45.2808 53.5743 37.9611C52.3789 31.0459 49.9186 24.9125 43.9416 20.5989C32.2656 12.1604 15.2103 17.4311 10.0395 30.4258C7.55139 36.6536 7.25949 44.5124 11.082 50.3223C15.0296 56.4018 22.7719 59.5696 29.9443 59.947C36.7414 60.2975 43.469 58.1946 47.1664 52.3578C50.6414 46.8714 50.5997 39.754 48.3062 33.8632C45.8181 27.5006 40.3693 22.0143 33.322 20.6258C29.7559 20.0169 26.0835 20.452 22.7735 21.8757C19.4635 23.2995 16.6659 25.6472 14.7377 28.6195C11.2766 33.9441 10.5677 41.048 13.7091 46.6288C16.8505 52.2095 23.0221 54.7168 28.9991 57.2375C32.2795 58.5855 36.102 60.1492 37.6588 63.5057C39.7021 67.9002 37.4364 72.052 33.4888 74.4245C30.7088 76.096 23.6615 79.6278 27.3728 83.7662C29.013 85.586 31.8764 86.0038 33.9753 87.1631C35.0136 87.6213 35.8299 88.4499 36.2545 89.4767C36.679 90.5035 36.6792 91.6495 36.2549 92.6764C35.9352 93.5448 35.3558 94.301 34.5907 94.8485C33.8257 95.3959 32.9097 95.7097 31.9598 95.7499C31.5984 95.7499 31.7096 96.5182 32.0849 96.5047L32.1683 96.68Z" fill="#455A64"/>
<path d="M480.36 36.2221C480.74 38.1465 481.772 39.8925 483.293 41.1827C484.824 42.355 486.664 43.0881 488.603 43.2991C493.092 43.9057 498.833 42.9891 501.405 39.0125C502.739 36.6844 503.46 34.0729 503.503 31.4097C503.741 27.6565 503.148 23.8974 501.765 20.3845C500.381 16.8716 498.24 13.6861 495.483 11.0415C489.742 5.64947 480.415 1.60547 472.451 4.30147C470.313 5.05291 468.384 6.27386 466.814 7.86876C465.244 9.46367 464.077 11.3893 463.402 13.4948C462.559 15.7278 462.5 18.1684 463.235 20.437C463.985 22.4252 465.176 24.2291 466.724 25.7212C469.921 28.9182 474.11 31.0111 478.65 31.6793C483.348 32.2725 488.755 30.3987 490.312 25.6807C491.869 20.9627 489.784 15.3011 487.06 11.3111C484.091 6.90941 479.665 3.62018 474.51 1.98571C469.355 0.351231 463.78 0.469108 458.704 2.31991C454.066 4.02053 450.075 7.05401 447.264 11.0145C444.637 14.8428 443.483 19.7361 445.61 24.0362C446.74 26.1989 448.468 28.0139 450.602 29.2781C452.735 30.5422 455.189 31.2057 457.689 31.1941C462.79 31.1941 468.448 28.7811 470.977 24.3327C473.507 19.8843 471.186 15.0046 466.807 12.9152C462.137 10.7045 456.285 12.4703 452.741 15.8808C451.144 17.3855 449.949 19.2444 449.259 21.297C448.569 23.3495 448.404 25.5342 448.779 27.6623C449.28 29.896 450.405 31.9528 452.032 33.607C452.546 34.1327 453.7 33.6879 453.074 33.0543C451.597 31.5553 450.584 29.6833 450.151 27.6524C449.718 25.6215 449.884 23.5135 450.628 21.5693C451.361 19.5871 452.581 17.8076 454.181 16.3845C455.782 14.9613 457.716 13.9372 459.816 13.4005C462.2 12.7578 464.748 13.0431 466.919 14.1958C467.868 14.728 468.69 15.4486 469.332 16.3104C469.974 17.1722 470.421 18.1559 470.644 19.1969C471.533 23.9823 466.738 27.7971 462.582 29.199C460.322 30.055 457.86 30.2751 455.477 29.8339C453.094 29.3928 450.888 28.3083 449.113 26.7052C447.566 25.1741 446.521 23.2328 446.11 21.1265C445.7 19.0201 445.941 16.843 446.805 14.8698C448.562 10.8819 451.586 7.54274 455.437 5.33942C459.476 2.88149 464.222 1.74733 468.976 2.10422C473.768 2.49116 478.305 4.35922 481.921 7.43365C485.537 10.5081 488.039 14.6266 489.061 19.1834C489.68 21.5445 489.474 24.0378 488.477 26.2739C487.912 27.2886 487.13 28.1744 486.183 28.8718C485.236 29.5693 484.147 30.0623 482.987 30.3179C479.095 31.3019 474.869 29.9674 471.533 27.9858C468.197 26.0043 464.959 22.9308 464.222 19.089C463.402 14.8698 465.918 10.0574 469.268 7.45578C475.495 2.61646 484.321 4.75979 490.465 8.62855C494.24 10.9888 497.322 14.254 499.413 18.108C501.505 21.962 502.536 26.2744 502.405 30.6279C502.415 33.042 501.913 35.4323 500.932 37.651C500.372 38.7372 499.573 39.6905 498.59 40.4431C497.608 41.1956 496.466 41.7289 495.247 42.005C491.647 42.9891 486.907 43.0834 483.724 40.8188C482.183 39.6239 481.081 37.9787 480.582 36.1277C480.499 35.8581 480.263 36.0334 480.304 36.2625L480.36 36.2221Z" fill="#5A0F68"/>
</svg>
