<svg width="228" height="253" viewBox="0 0 228 253" fill="none" xmlns="http://www.w3.org/2000/svg">
<path d="M77.7572 219.104C92.6937 225.86 99.2407 252.645 99.2407 252.645L208.549 252.344C206.499 248.091 204.171 243.977 201.579 240.03C199.517 235.81 197.788 231.435 196.409 226.945C193.849 218.283 192.076 209.407 191.112 200.426C189.491 186.627 191.572 172.645 197.14 159.916C202.049 148.721 210.574 139.853 217.073 129.603C223.516 119.595 226.986 107.964 227.079 96.0618C227.323 84.0073 225.845 71.9796 222.688 60.3432C218.558 46.246 209.942 33.8811 198.147 25.1255C176.55 8.18961 154.518 -1.28019 126.622 0.139843C112.661 1.11178 98.7895 3.10339 85.1188 6.09876C70.2302 9.09564 54.4661 14.6625 43.781 25.9444C36.492 33.7332 30.8607 42.9211 27.2284 52.9512C25.5259 57.9405 24.1409 63.0326 23.0816 68.1969C21.2982 73.8281 19.1461 79.3357 16.6392 84.6841C15.9016 86.309 15.5798 88.0918 15.7026 89.872C16.539 95.9006 25.5819 98.4924 25.6559 104.709C25.559 106.082 25.1365 107.413 24.4232 108.59C19.1219 119.789 12.6164 130.376 5.02185 140.166C3.22721 142.366 -0.414354 146.7 0.0386625 149.81C0.361001 152.019 3.00941 153.852 4.64289 155.068C8.12763 157.655 15.2235 159.424 16.1077 164.093C16.5655 166.471 16.2779 168.933 15.2845 171.141C12.8756 176.225 10.2054 178.934 12.1003 180.528C13.9951 182.122 19.0698 185.951 19.0698 185.951C19.0698 185.951 14.2477 192.111 16.9179 194.001C20.2284 196.353 24.445 197.438 25.5688 201.842C25.9034 205.331 25.5542 208.853 24.5408 212.209C24.2006 215.493 24.6301 218.811 25.7953 221.901C27.3811 228.067 33.5463 231.886 39.7735 230.56C52.6327 227.432 65.3126 223.607 77.7572 219.104Z" fill="#4B4187"/>
<path d="M40.2093 71.7295C39.0583 71.4812 38.0569 70.7775 37.4333 69.7788C36.8096 68.7802 36.6168 67.5715 36.8988 66.4284C37.5837 63.405 38.4418 60.4236 39.4688 57.4987C42.4983 49.1107 47.1955 41.4233 53.2771 34.9001C60.3424 27.4428 71.9423 22.0414 87.7499 18.8964C90.0861 18.4846 92.3223 20.0178 92.7802 22.3453C93.2381 24.6729 91.7494 26.939 89.4313 27.4428C75.4314 30.2262 65.3909 34.752 59.5845 40.8852C54.3206 46.5472 50.255 53.2145 47.6318 60.4869C46.7195 63.1056 45.9574 65.7744 45.3493 68.48C44.8006 70.7778 42.5203 72.2194 40.2093 71.7295Z" fill="#CDACF1"/>
<path d="M34.8472 91.475C37.2529 91.475 39.2031 89.5248 39.2031 87.1191C39.2031 84.7134 37.2529 82.7632 34.8472 82.7632C32.4415 82.7632 30.4912 84.7134 30.4912 87.1191C30.4912 89.5248 32.4415 91.475 34.8472 91.475Z" fill="#CDACF1"/>
<path d="M218.367 100.186V156.814C218.367 161.625 214.466 165.525 209.655 165.525H153.028V141.568C148.535 144.937 142.217 144.338 138.438 140.183C134.659 136.029 134.659 129.683 138.438 125.528C142.217 121.374 148.535 120.775 153.028 124.144V100.186H176.986C173.616 95.6943 174.215 89.3761 178.37 85.5973C182.524 81.8185 188.871 81.8185 193.025 85.5973C197.179 89.3761 197.779 95.6943 194.409 100.186H218.367Z" fill="#776DB4"/>
<path d="M135.604 132.856C135.604 136.981 137.935 140.751 141.624 142.596C145.313 144.441 149.728 144.043 153.028 141.568V165.525H96.4009C91.5894 165.525 87.689 161.625 87.689 156.814V100.186H111.647C108.277 95.6943 108.877 89.3761 113.031 85.5973C117.185 81.8185 123.532 81.8185 127.686 85.5973C131.84 89.3761 132.44 95.6943 129.07 100.186H153.028V124.144C149.728 121.669 145.313 121.271 141.624 123.116C137.935 124.96 135.604 128.731 135.604 132.856Z" fill="#CDACF1"/>
<path d="M170.173 70.0177C169.331 73.5977 166.739 76.511 163.282 77.7637C159.824 79.0164 155.968 78.4393 153.028 76.2292V100.187H129.07C132.44 95.6942 131.84 89.376 127.686 85.5972C123.532 81.8185 117.185 81.8185 113.031 85.5972C108.877 89.376 108.277 95.6942 111.647 100.187H87.689V43.5598C87.689 38.7483 91.5894 34.8479 96.4009 34.8479H153.028V58.8055C156.694 56.0462 161.697 55.8809 165.537 58.3923C169.377 60.9037 171.231 65.5528 170.173 70.0177Z" fill="#776DB4"/>
<path d="M218.339 43.7119V100.339H194.381C197.751 95.8463 197.151 89.5281 192.997 85.7493C188.843 81.9706 182.496 81.9706 178.342 85.7493C174.188 89.5281 173.588 95.8463 176.958 100.339H157.356C154.95 100.339 153 98.3888 153 95.9831V76.3814C157.493 79.7508 163.811 79.1514 167.59 74.9971C171.368 70.8428 171.368 64.4962 167.59 60.3419C163.811 56.1876 157.493 55.5881 153 58.9576V35H209.627C214.439 35 218.339 38.9004 218.339 43.7119Z" fill="#CDACF1"/>
</svg>
