<svg width="227" height="253" viewBox="0 0 227 253" fill="none" xmlns="http://www.w3.org/2000/svg">
<g clip-path="url(#clip0)">
<path d="M77.5433 219.281C92.4798 226.037 99.0268 252.822 99.0268 252.822L208.335 252.521C206.285 248.268 203.957 244.154 201.365 240.207C199.303 235.987 197.574 231.612 196.195 227.122C193.635 218.46 191.862 209.584 190.898 200.603C189.277 186.804 191.358 172.822 196.926 160.093C201.835 148.898 210.36 140.03 216.859 129.78C223.302 119.772 226.772 108.141 226.865 96.2393C227.109 84.1848 225.631 72.1571 222.474 60.5207C218.344 46.4235 209.728 34.0586 197.933 25.303C176.336 8.3671 154.304 -1.1027 126.408 0.317333C112.447 1.28927 98.5756 3.28088 84.9049 6.27625C70.0163 9.27313 54.2522 14.84 43.5671 26.1219C36.2781 33.9107 30.6468 43.0986 27.0145 53.1287C25.312 58.118 23.927 63.2101 22.8677 68.3744C21.0843 74.0056 18.9322 79.5132 16.4253 84.8616C15.6877 86.4865 15.3659 88.2693 15.4887 90.0495C16.3251 96.0781 25.368 98.6699 25.442 104.886C25.3451 106.259 24.9226 107.59 24.2093 108.767C18.908 119.966 12.4025 130.553 4.80798 140.343C3.01334 142.543 -0.628222 146.877 -0.175205 149.987C0.147134 152.196 2.79554 154.029 4.42902 155.245C7.91376 157.832 15.0096 159.601 15.8938 164.27C16.3516 166.648 16.064 169.11 15.0706 171.318C12.6617 176.402 9.99154 179.111 11.8864 180.705C13.7812 182.299 18.8559 186.128 18.8559 186.128C18.8559 186.128 14.0338 192.288 16.704 194.178C20.0145 196.53 24.2311 197.615 25.3549 202.019C25.6895 205.508 25.3403 209.03 24.3269 212.386C23.9867 215.67 24.4162 218.988 25.5814 222.078C27.1672 228.244 33.3324 232.063 39.5596 230.737C52.4188 227.609 65.0987 223.784 77.5433 219.281Z" fill="#522E9F"/>
<path d="M39.9959 71.907C38.8449 71.6587 37.8435 70.955 37.2199 69.9563C36.5962 68.9577 36.4034 67.749 36.6854 66.6059C37.3703 63.5825 38.2284 60.6011 39.2554 57.6762C42.2849 49.2882 46.9821 41.6008 53.0637 35.0776C60.129 27.6203 71.7289 22.2189 87.5365 19.0739C89.8727 18.6621 92.1089 20.1953 92.5668 22.5228C93.0247 24.8504 91.536 27.1165 89.2179 27.6203C75.218 30.4037 65.1775 34.9295 59.3711 41.0627C54.1072 46.7247 50.0416 53.392 47.4184 60.6644C46.5061 63.2831 45.744 65.9519 45.1359 68.6575C44.5872 70.9553 42.3069 72.3969 39.9959 71.907Z" fill="#BA85F2"/>
<path d="M34.6333 91.6525C37.039 91.6525 38.9892 89.7023 38.9892 87.2966C38.9892 84.8909 37.039 82.9407 34.6333 82.9407C32.2276 82.9407 30.2773 84.8909 30.2773 87.2966C30.2773 89.7023 32.2276 91.6525 34.6333 91.6525Z" fill="#BA85F2"/>
<path d="M193.153 102.364V158.992C193.153 163.803 189.252 167.703 184.441 167.703H127.814V143.746C123.321 147.115 117.003 146.516 113.224 142.361C109.445 138.207 109.445 131.861 113.224 127.706C117.003 123.552 123.321 122.953 127.814 126.322V102.364H151.772C148.402 97.8718 149.001 91.5536 153.156 87.7748C157.31 83.996 163.657 83.996 167.811 87.7748C171.965 91.5536 172.565 97.8718 169.195 102.364H193.153Z" fill="#8962D9"/>
<path d="M110.39 135.034C110.39 139.159 112.721 142.929 116.41 144.774C120.099 146.619 124.514 146.221 127.814 143.746V167.703H71.1875C66.376 167.703 62.4756 163.803 62.4756 158.992V102.364H86.4335C83.0635 97.8718 83.6635 91.5536 87.8175 87.7748C91.9715 83.996 98.3185 83.996 102.472 87.7748C106.626 91.5536 107.226 97.8718 103.856 102.364H127.814V126.322C124.514 123.847 120.099 123.449 116.41 125.294C112.721 127.138 110.39 130.909 110.39 135.034Z" fill="#BA85F2"/>
<path d="M144.959 72.1952C144.117 75.7752 141.525 78.6885 138.068 79.9412C134.61 81.1939 130.754 80.6168 127.814 78.4067V102.364H103.856C107.226 97.8717 106.626 91.5535 102.472 87.7747C98.3185 83.996 91.9715 83.996 87.8175 87.7747C83.6635 91.5535 83.0635 97.8717 86.4335 102.364H62.4756V45.7373C62.4756 40.9258 66.376 37.0254 71.1875 37.0254H127.814V60.983C131.48 58.2237 136.483 58.0584 140.323 60.5698C144.163 63.0812 146.017 67.7303 144.959 72.1952Z" fill="#8962D9"/>
</g>
<defs>
<clipPath id="clip0">
<rect width="227" height="253" fill="white"/>
</clipPath>
</defs>
</svg>
