<svg width="227" height="253" viewBox="0 0 227 253" fill="none" xmlns="http://www.w3.org/2000/svg">
<path d="M77.5433 219.281C92.4798 226.037 99.0268 252.822 99.0268 252.822L208.335 252.521C206.285 248.268 203.957 244.154 201.365 240.207C199.303 235.987 197.574 231.612 196.195 227.122C193.635 218.46 191.862 209.584 190.898 200.603C189.277 186.804 191.358 172.822 196.926 160.093C201.835 148.898 210.36 140.03 216.859 129.78C223.302 119.772 226.772 108.141 226.865 96.2393C227.109 84.1848 225.631 72.1571 222.474 60.5207C218.344 46.4235 209.728 34.0586 197.933 25.303C176.336 8.3671 154.304 -1.1027 126.408 0.317333C112.447 1.28927 98.5756 3.28088 84.9049 6.27625C70.0163 9.27313 54.2522 14.84 43.5671 26.1219C36.2781 33.9107 30.6468 43.0986 27.0145 53.1287C25.312 58.118 23.927 63.2101 22.8677 68.3744C21.0843 74.0056 18.9322 79.5132 16.4253 84.8616C15.6877 86.4865 15.3659 88.2693 15.4887 90.0495C16.3251 96.0781 25.368 98.6699 25.442 104.886C25.3451 106.259 24.9226 107.59 24.2093 108.767C18.908 119.966 12.4025 130.553 4.80798 140.343C3.01334 142.543 -0.628222 146.877 -0.175205 149.987C0.147134 152.196 2.79554 154.029 4.42902 155.245C7.91376 157.832 15.0096 159.601 15.8938 164.27C16.3516 166.648 16.064 169.11 15.0706 171.318C12.6617 176.402 9.99154 179.111 11.8864 180.705C13.7812 182.299 18.8559 186.128 18.8559 186.128C18.8559 186.128 14.0338 192.288 16.704 194.178C20.0145 196.53 24.2311 197.615 25.3549 202.019C25.6895 205.508 25.3403 209.03 24.3269 212.386C23.9867 215.67 24.4162 218.988 25.5814 222.078C27.1672 228.244 33.3324 232.063 39.5596 230.737C52.4188 227.609 65.0987 223.784 77.5433 219.281Z" fill="#4B4187"/>
<path d="M39.9954 71.907C38.8444 71.6587 37.843 70.955 37.2194 69.9563C36.5957 68.9577 36.4029 67.749 36.6849 66.6059C37.3698 63.5825 38.2279 60.6011 39.2549 57.6762C42.2844 49.2882 46.9816 41.6008 53.0632 35.0776C60.1285 27.6203 71.7284 22.2189 87.536 19.0739C89.8722 18.6621 92.1084 20.1953 92.5663 22.5228C93.0242 24.8504 91.5355 27.1165 89.2174 27.6203C75.2175 30.4037 65.177 34.9295 59.3706 41.0627C54.1067 46.7247 50.0411 53.392 47.4179 60.6644C46.5056 63.2831 45.7435 65.9519 45.1354 68.6575C44.5867 70.9553 42.3064 72.3969 39.9954 71.907Z" fill="#F5EFCA"/>
<path d="M34.6333 91.6525C37.039 91.6525 38.9892 89.7023 38.9892 87.2966C38.9892 84.8909 37.039 82.9407 34.6333 82.9407C32.2276 82.9407 30.2773 84.8909 30.2773 87.2966C30.2773 89.7023 32.2276 91.6525 34.6333 91.6525Z" fill="#F5EFCA"/>
<path d="M218.153 100.364V156.992C218.153 161.803 214.252 165.703 209.441 165.703H152.814V141.746C148.321 145.115 142.003 144.516 138.224 140.361C134.445 136.207 134.445 129.861 138.224 125.706C142.003 121.552 148.321 120.953 152.814 124.322V100.364H176.772C173.402 95.8718 174.001 89.5536 178.156 85.7748C182.31 81.996 188.657 81.996 192.811 85.7748C196.965 89.5536 197.565 95.8718 194.195 100.364H218.153Z" fill="#776DB4"/>
<path d="M135.39 133.034C135.39 137.159 137.721 140.929 141.41 142.774C145.099 144.619 149.514 144.221 152.814 141.746V165.703H96.187C91.3755 165.703 87.4751 161.803 87.4751 156.992V100.364H111.433C108.063 95.8718 108.663 89.5536 112.817 85.7748C116.971 81.996 123.318 81.996 127.472 85.7748C131.626 89.5536 132.226 95.8718 128.856 100.364H152.814V124.322C149.514 121.847 145.099 121.449 141.41 123.294C137.721 125.138 135.39 128.909 135.39 133.034Z" fill="#CDACF1"/>
<path d="M169.959 70.1952C169.117 73.7752 166.525 76.6885 163.068 77.9412C159.61 79.1939 155.754 78.6168 152.814 76.4067V100.364H128.856C132.226 95.8717 131.626 89.5535 127.472 85.7747C123.318 81.996 116.971 81.996 112.817 85.7747C108.663 89.5535 108.063 95.8717 111.433 100.364H87.4751V43.7373C87.4751 38.9258 91.3755 35.0254 96.187 35.0254H152.814V58.983C156.48 56.2237 161.483 56.0584 165.323 58.5698C169.163 61.0812 171.017 65.7303 169.959 70.1952Z" fill="#776DB4"/>
</svg>
