<svg width="228" height="253" viewBox="0 0 228 253" fill="none" xmlns="http://www.w3.org/2000/svg">
<path d="M77.7572 219.104C92.6937 225.86 99.2407 252.645 99.2407 252.645L208.549 252.344C206.499 248.091 204.171 243.977 201.579 240.03C199.517 235.81 197.788 231.435 196.409 226.945C193.849 218.283 192.076 209.407 191.112 200.426C189.491 186.627 191.572 172.645 197.14 159.916C202.049 148.721 210.574 139.853 217.073 129.603C223.516 119.595 226.986 107.964 227.079 96.0618C227.323 84.0073 225.845 71.9796 222.688 60.3432C218.558 46.246 209.942 33.8811 198.147 25.1255C176.55 8.18961 154.518 -1.28019 126.622 0.139843C112.661 1.11178 98.7895 3.10339 85.1188 6.09876C70.2302 9.09564 54.4661 14.6625 43.781 25.9444C36.492 33.7332 30.8607 42.9211 27.2284 52.9512C25.5259 57.9405 24.1409 63.0326 23.0816 68.1969C21.2982 73.8281 19.1461 79.3357 16.6392 84.6841C15.9016 86.309 15.5798 88.0918 15.7026 89.872C16.539 95.9006 25.5819 98.4924 25.6559 104.709C25.559 106.082 25.1365 107.413 24.4232 108.59C19.1219 119.789 12.6164 130.376 5.02185 140.166C3.22721 142.366 -0.414354 146.7 0.0386624 149.81C0.361001 152.019 3.00941 153.852 4.64289 155.068C8.12763 157.655 15.2235 159.424 16.1077 164.093C16.5655 166.471 16.2779 168.933 15.2845 171.141C12.8756 176.225 10.2054 178.934 12.1003 180.528C13.9951 182.122 19.0698 185.951 19.0698 185.951C19.0698 185.951 14.2477 192.111 16.9179 194.001C20.2284 196.353 24.445 197.438 25.5688 201.842C25.9034 205.331 25.5542 208.853 24.5408 212.209C24.2006 215.493 24.6301 218.811 25.7953 221.901C27.3811 228.067 33.5463 231.886 39.7735 230.56C52.6327 227.432 65.3126 223.607 77.7572 219.104Z" fill="#3C3378"/>
<path d="M40.2098 71.7295C39.0588 71.4812 38.0574 70.7775 37.4338 69.7788C36.8101 68.7802 36.6173 67.5715 36.8993 66.4284C37.5842 63.405 38.4423 60.4236 39.4693 57.4987C42.4988 49.1107 47.196 41.4233 53.2776 34.9001C60.3429 27.4428 71.9428 22.0414 87.7504 18.8964C90.0866 18.4846 92.3228 20.0178 92.7807 22.3453C93.2386 24.6729 91.7499 26.939 89.4318 27.4428C75.4319 30.2262 65.3914 34.752 59.585 40.8852C54.3211 46.5472 50.2555 53.2145 47.6323 60.4869C46.72 63.1056 45.9579 65.7744 45.3498 68.48C44.8011 70.7778 42.5208 72.2194 40.2098 71.7295Z" fill="#DDC1FB"/>
<path d="M34.8473 91.475C37.253 91.475 39.2032 89.5248 39.2032 87.1191C39.2032 84.7134 37.253 82.7632 34.8473 82.7632C32.4416 82.7632 30.4912 84.7134 30.4912 87.1191C30.4912 89.5248 32.4416 91.475 34.8473 91.475Z" fill="#DDC1FB"/>
<path d="M194.367 100.186V156.814C194.367 161.625 190.466 165.525 185.655 165.525H129.028V141.568C124.535 144.937 118.217 144.338 114.438 140.183C110.659 136.029 110.659 129.683 114.438 125.528C118.217 121.374 124.535 120.775 129.028 124.144V100.186H152.986C149.616 95.6943 150.215 89.3761 154.37 85.5973C158.524 81.8185 164.871 81.8185 169.025 85.5973C173.179 89.3761 173.779 95.6943 170.409 100.186H194.367Z" fill="#8962D9"/>
<path d="M111.604 132.856C111.604 136.981 113.935 140.751 117.624 142.596C121.313 144.441 125.728 144.043 129.028 141.568V165.525H72.4014C67.5899 165.525 63.6895 161.625 63.6895 156.814V100.186H87.6475C84.2775 95.6943 84.8775 89.3761 89.0315 85.5973C93.1855 81.8185 99.5325 81.8185 103.686 85.5973C107.84 89.3761 108.44 95.6943 105.07 100.186H129.028V124.144C125.728 121.669 121.313 121.271 117.624 123.116C113.935 124.96 111.604 128.731 111.604 132.856Z" fill="#DDC1FB"/>
<path d="M146.173 70.0177C145.331 73.5977 142.739 76.511 139.282 77.7637C135.824 79.0164 131.968 78.4393 129.028 76.2292V100.187H105.07C108.44 95.6942 107.84 89.376 103.686 85.5972C99.5325 81.8185 93.1855 81.8185 89.0315 85.5972C84.8775 89.376 84.2775 95.6942 87.6475 100.187H63.6895V43.5598C63.6895 38.7483 67.5899 34.8479 72.4014 34.8479H129.028V58.8055C132.694 56.0462 137.697 55.8809 141.537 58.3923C145.377 60.9037 147.231 65.5528 146.173 70.0177Z" fill="#8962D9"/>
<path d="M194.339 43.7119V100.339H170.381C173.751 95.8463 173.151 89.5281 168.997 85.7493C164.843 81.9706 158.496 81.9706 154.342 85.7493C150.188 89.5281 149.588 95.8463 152.958 100.339H133.356C130.95 100.339 129 98.3888 129 95.9831V76.3814C133.493 79.7508 139.811 79.1514 143.59 74.9971C147.368 70.8428 147.368 64.4962 143.59 60.3419C139.811 56.1876 133.493 55.5881 129 58.9576V35H185.627C190.439 35 194.339 38.9004 194.339 43.7119Z" fill="#DDC1FB"/>
</svg>
