<svg width="341" height="341" viewBox="0 0 341 341" fill="none" xmlns="http://www.w3.org/2000/svg">
<path d="M306.832 272.479H277.376V272.65H306.832V272.479Z" fill="#EBEBEB"/>
<path d="M271.3 272.479H266.983V272.65H271.3V272.479Z" fill="#EBEBEB"/>
<path d="M252.947 269.601H189.057V269.772H252.947V269.601Z" fill="#EBEBEB"/>
<path d="M173.412 50.25H41.8682V196.873H173.412V50.25Z" fill="#EBEBEB"/>
<path d="M177.681 50.25H43.8594V196.873H177.681V50.25Z" fill="#F5F5F5"/>
<path d="M173.412 196.873H41.8682V204.818H173.412V196.873Z" fill="#EBEBEB"/>
<path d="M197.991 196.873H64.1689V204.818H197.991V196.873Z" fill="#F0F0F0"/>
<path d="M171.7 190.885V56.231H49.8477V190.885H171.7Z" fill="#FAFAFA"/>
<path d="M54.7988 190.885L89.9355 56.231H106.522L71.385 190.885H54.7988Z" fill="white"/>
<path d="M52.623 133.672C52.5091 133.672 52.3998 133.627 52.3192 133.546C52.2387 133.466 52.1934 133.356 52.1934 133.242V60.1251C52.2065 60.0214 52.2571 59.9259 52.3356 59.8568C52.414 59.7876 52.515 59.7495 52.6196 59.7495C52.7242 59.7495 52.8252 59.7876 52.9037 59.8568C52.9822 59.9259 53.0327 60.0214 53.0459 60.1251V133.215C53.0496 133.273 53.0414 133.331 53.0219 133.386C53.0024 133.441 52.972 133.491 52.9324 133.534C52.8929 133.577 52.8451 133.611 52.7919 133.635C52.7387 133.659 52.6813 133.671 52.623 133.672Z" fill="#F1F1F1"/>
<path d="M74.9443 190.885L110.082 56.231H116.547L81.4165 190.885H74.9443Z" fill="white"/>
<path d="M171.707 190.892V56.2378H170.95V190.892H171.707Z" fill="#EBEBEB"/>
<path d="M179.1 62.6964H47.5553L47.0029 58.5566H178.554L179.1 62.6964Z" fill="#EBEBEB"/>
<path d="M179.1 65.7311H47.5553L47.0029 61.5913H178.554L179.1 65.7311Z" fill="#EBEBEB"/>
<path d="M179.1 69.3663H47.5553L47.0029 65.2266H178.554L179.1 69.3663Z" fill="#EBEBEB"/>
<path d="M179.1 73.4108H47.5553L47.0029 69.271H178.554L179.1 73.4108Z" fill="#EBEBEB"/>
<path d="M179.1 78.2598H47.5553L47.0029 74.1201H178.554L179.1 78.2598Z" fill="#EBEBEB"/>
<path d="M179.1 83.7154H47.5553L47.0029 79.5757H178.554L179.1 83.7154Z" fill="#EBEBEB"/>
<path d="M52.9707 187.714H67.6747V189.166H66.7403L65.9765 196.873H54.6621L53.8983 189.166H52.9707V187.714Z" fill="#EBEBEB"/>
<path d="M51.8864 174.217C51.6954 173.576 51.5249 172.928 51.3612 172.28C50.3996 173.528 49.4653 173.842 48.7696 173.842H48.5446C47.1806 173.705 45.8166 172.369 45.005 170.261C44.9863 170.223 44.9766 170.181 44.9766 170.139C44.9766 170.096 44.9863 170.054 45.005 170.016C45.0231 169.978 45.0497 169.944 45.0829 169.918C45.116 169.892 45.1547 169.874 45.196 169.866C46.1853 169.614 47.2166 169.574 48.2226 169.747C49.2286 169.921 50.1865 170.306 51.0339 170.875C50.9043 170.261 50.802 169.647 50.7133 169.034C50.4886 169.078 50.2603 169.1 50.0313 169.102C47.7807 169.102 46.1235 167.09 46.0485 166.995C46.0197 166.958 45.9997 166.915 45.9903 166.87C45.9809 166.824 45.9821 166.777 45.9941 166.732C46.006 166.687 46.0282 166.645 46.0589 166.61C46.0897 166.576 46.1281 166.548 46.1712 166.531C46.6963 166.264 47.2728 166.114 47.8613 166.09C48.4498 166.067 49.0365 166.17 49.5812 166.394C50.171 166.69 50.6494 167.169 50.9452 167.758C51.3684 166.467 52.1388 165.316 53.1721 164.434C54.2054 163.551 55.4618 162.969 56.8036 162.752C56.8453 162.742 56.8888 162.742 56.9309 162.75C56.9729 162.759 57.0124 162.777 57.0465 162.804C57.0805 162.83 57.1083 162.863 57.1276 162.902C57.147 162.94 57.1574 162.982 57.1582 163.025C57.2742 165.071 57.2128 167.574 55.6783 168.768C55.0398 169.238 54.261 169.478 53.4686 169.45C52.7572 169.432 52.051 169.322 51.3681 169.122C51.5874 170.598 51.9018 172.059 52.3092 173.494C53.808 171.456 55.9325 169.963 58.3586 169.245C58.4345 169.226 58.5147 169.238 58.5823 169.277C58.6498 169.317 58.6992 169.381 58.72 169.457C59.1838 171.216 58.9451 172.648 58.038 173.589C57.5779 174.005 57.0389 174.324 56.453 174.526C55.8672 174.729 55.2465 174.812 54.628 174.769C53.9613 174.761 53.2969 174.69 52.6434 174.558C53.0185 175.765 53.4413 176.945 53.8915 178.07C54.8122 177.259 57.5129 175.192 60.4523 176.058C60.4928 176.069 60.5303 176.089 60.5622 176.116C60.5941 176.143 60.6194 176.177 60.6364 176.215C60.6532 176.253 60.6618 176.293 60.6618 176.334C60.6618 176.376 60.6532 176.416 60.6364 176.454C59.8385 178.404 58.9314 179.482 57.7857 179.864C57.4814 179.96 57.1638 180.009 56.8445 180.007C55.9789 179.965 55.1354 179.72 54.3825 179.291C55.0236 180.778 55.6851 182.176 56.3262 183.417C57.0082 182.674 58.9042 181.132 62.2528 181.848C62.3232 181.863 62.3857 181.903 62.4284 181.961C62.4712 182.019 62.4912 182.091 62.4847 182.162C62.4104 182.787 62.1736 183.382 61.7978 183.887C61.4221 184.392 60.9205 184.79 60.3432 185.04C59.9123 185.225 59.4481 185.32 58.9792 185.32C58.318 185.309 57.6686 185.143 57.0832 184.836C58.57 187.564 59.7567 189.31 59.8112 189.35C59.8428 189.415 59.85 189.489 59.8315 189.559C59.813 189.629 59.77 189.69 59.7103 189.73C59.6507 189.771 59.5784 189.788 59.5068 189.78C59.4351 189.772 59.3689 189.738 59.3202 189.685C58.1381 187.895 57.0522 186.045 56.067 184.14C56.046 184.113 56.0298 184.083 56.0193 184.051C55.8215 183.676 55.6306 183.294 55.4328 182.899C55.0955 183.407 54.6416 183.827 54.1088 184.123C53.5761 184.42 52.9801 184.585 52.3706 184.604C52.2457 184.611 52.1204 184.611 51.9955 184.604C51.3218 184.526 50.6826 184.264 50.1483 183.847C49.614 183.429 49.2053 182.872 48.9674 182.237C48.9429 182.172 48.9432 182.099 48.9683 182.034C48.9935 181.969 49.0417 181.915 49.1038 181.883C49.9701 181.394 50.9403 181.118 51.9342 181.079C52.9281 181.04 53.917 181.238 54.819 181.658C54.3961 180.75 53.9665 179.789 53.5573 178.786C53.5344 178.748 53.5182 178.707 53.5095 178.664C53.3936 178.377 53.2777 178.091 53.1685 177.804C52.1865 179.045 51.2044 179.652 50.1882 179.652C48.947 179.652 47.6989 178.739 46.3622 176.863C46.3162 176.801 46.2969 176.722 46.3084 176.646C46.3199 176.569 46.3613 176.5 46.4236 176.454C48.5241 174.878 51.409 175.956 52.7184 176.583C52.4524 175.847 52.2001 175.09 51.9682 174.319L51.8864 174.217Z" fill="#77B033"/>
<path d="M67.2935 182.149C66.8252 182.294 66.3381 182.37 65.8477 182.374C65.2456 182.381 64.65 182.25 64.1068 181.99C63.5637 181.73 63.0876 181.348 62.7156 180.875C62.3436 180.401 62.0857 179.848 61.9618 179.259C61.838 178.67 61.8515 178.06 62.0013 177.477C62.0176 177.409 62.0589 177.349 62.117 177.31C62.1751 177.271 62.2458 177.255 62.3151 177.265C63.4632 177.379 64.5671 177.767 65.5343 178.396C66.5015 179.025 67.3037 179.877 67.8733 180.88C68.5553 179.393 69.176 177.818 69.7352 176.181C69.0201 176.59 68.2185 176.823 67.3959 176.863C67.0711 176.864 66.7485 176.811 66.441 176.706C64.8179 176.154 63.8427 174.169 63.0312 172.103C63.0143 172.064 63.0055 172.022 63.0055 171.98C63.0055 171.938 63.0143 171.896 63.0312 171.857C63.0485 171.82 63.074 171.787 63.1059 171.761C63.1378 171.735 63.1753 171.717 63.2153 171.707C66.5503 170.78 69.251 173.965 70.0898 175.117C70.5308 173.744 70.8973 172.349 71.1879 170.936C70.4929 171.068 69.7877 171.136 69.0805 171.141C68.3758 171.191 67.6685 171.095 67.0021 170.861C66.3358 170.626 65.7247 170.257 65.2066 169.777C64.2109 168.72 63.9723 167.138 64.5247 165.201C64.5342 165.163 64.5511 165.127 64.5745 165.096C64.5979 165.065 64.6273 165.039 64.661 165.019C64.6946 165 64.732 164.987 64.7706 164.982C64.8093 164.977 64.8485 164.979 64.8861 164.989C67.5285 165.825 69.8254 167.501 71.4266 169.763L71.5492 169.006C71.5579 168.942 71.5865 168.883 71.6311 168.836C71.7653 168.355 71.9967 167.906 72.3111 167.518C72.6255 167.13 73.0161 166.81 73.4588 166.578C74.4477 166.108 75.6958 166.176 77.1621 166.776C77.2058 166.794 77.2447 166.822 77.2756 166.858C77.3064 166.894 77.3284 166.936 77.3397 166.982C77.351 167.028 77.3513 167.076 77.3406 167.122C77.3299 167.168 77.3085 167.211 77.2781 167.247C77.1895 167.349 75.3752 169.497 72.9269 169.497C72.6658 169.493 72.4057 169.466 72.1495 169.416C72.0404 170.098 71.9108 170.821 71.7539 171.516C72.6963 170.894 73.7599 170.48 74.8745 170.3C75.9891 170.12 77.1292 170.179 78.2193 170.473C78.2601 170.484 78.2981 170.504 78.3307 170.531C78.3633 170.558 78.3897 170.592 78.4084 170.63C78.427 170.668 78.4375 170.709 78.439 170.751C78.4404 170.794 78.433 170.836 78.4171 170.875C77.4623 173.18 75.996 174.626 74.4751 174.756H74.2704C73.4997 174.756 72.4632 174.401 71.4061 172.982C70.9824 174.598 70.477 176.192 69.8921 177.756C71.3243 177.074 74.5433 175.908 76.8416 177.688C76.9014 177.737 76.9402 177.806 76.9504 177.882C76.9605 177.958 76.9411 178.035 76.8961 178.097C75.4162 180.143 74.0386 181.105 72.6951 181.105C71.5766 181.105 70.5058 180.423 69.4418 179.011C68.828 180.539 68.1734 181.992 67.5187 183.335C68.9441 182.449 70.5194 182.585 72.3745 183.758C72.4146 183.784 72.4479 183.819 72.4716 183.861C72.4953 183.902 72.5088 183.949 72.5108 183.997C72.5119 184.046 72.5013 184.094 72.48 184.138C72.4586 184.182 72.4272 184.22 72.3882 184.249C71.2686 185.008 69.9609 185.442 68.6098 185.504C67.9083 185.516 67.221 185.306 66.6458 184.904C65.3804 187.36 63.9684 189.738 62.4173 192.024C62.3867 192.068 62.3459 192.104 62.2984 192.129C62.251 192.154 62.1981 192.167 62.1445 192.167C62.0781 192.167 62.0137 192.145 61.9603 192.106C61.9248 192.081 61.8946 192.05 61.8712 192.014C61.8479 191.977 61.8321 191.937 61.8245 191.894C61.8169 191.852 61.8177 191.808 61.8269 191.766C61.8362 191.724 61.8538 191.684 61.8786 191.649C63.9262 188.627 65.7365 185.45 67.2935 182.149Z" fill="#77B033"/>
<path d="M291.5 102.709H260.64V136.598H291.5V102.709Z" fill="#EBEBEB"/>
<path d="M288.295 104.871C288.266 104.88 288.235 104.88 288.206 104.871C288.125 104.823 279.893 99.9269 277.294 99.9269C274.696 99.9269 266.819 104.823 266.744 104.871C266.705 104.894 266.658 104.902 266.614 104.892C266.569 104.882 266.53 104.855 266.505 104.817C266.493 104.798 266.485 104.777 266.481 104.755C266.477 104.733 266.477 104.711 266.482 104.689C266.488 104.667 266.497 104.647 266.51 104.629C266.524 104.611 266.54 104.596 266.56 104.585C266.887 104.38 274.58 99.5859 277.294 99.5859C280.009 99.5859 288.063 104.36 288.404 104.578C288.442 104.603 288.469 104.642 288.479 104.686C288.489 104.731 288.482 104.777 288.459 104.817C288.439 104.84 288.414 104.858 288.385 104.867C288.356 104.877 288.325 104.878 288.295 104.871Z" fill="#EBEBEB"/>
<path d="M294.842 102.709H262.966V136.598H294.842V102.709Z" fill="#F5F5F5"/>
<path d="M292.176 133.931V105.383H265.639V133.931H292.176Z" fill="white"/>
<path d="M279.62 123.101C279.193 123.103 278.768 123.151 278.351 123.244C278.458 122.879 278.513 122.5 278.515 122.119C278.516 121.195 278.19 120.301 277.594 119.596C277.892 119.691 278.203 119.741 278.515 119.746C279.257 119.753 279.979 119.509 280.565 119.054C281.151 118.599 281.565 117.959 281.741 117.238C281.917 116.517 281.844 115.758 281.534 115.084C281.224 114.41 280.695 113.861 280.033 113.526C279.371 113.191 278.616 113.089 277.889 113.238C277.162 113.387 276.507 113.777 276.03 114.345C275.553 114.913 275.282 115.626 275.262 116.367C275.241 117.109 275.472 117.836 275.917 118.429C275.38 118.233 274.807 118.157 274.238 118.205C273.668 118.253 273.116 118.425 272.62 118.709C272.124 118.992 271.696 119.38 271.365 119.846C271.035 120.312 270.81 120.845 270.706 121.407C270.603 121.969 270.623 122.547 270.765 123.1C270.908 123.653 271.17 124.169 271.532 124.61C271.894 125.052 272.349 125.41 272.863 125.658C273.378 125.906 273.941 126.039 274.512 126.047C273.983 126.946 273.705 127.971 273.707 129.014C273.707 130.183 274.054 131.327 274.704 132.299C275.353 133.271 276.277 134.029 277.357 134.477C278.438 134.924 279.627 135.041 280.774 134.813C281.921 134.585 282.974 134.022 283.801 133.195C284.628 132.368 285.191 131.314 285.419 130.167C285.647 129.021 285.53 127.832 285.083 126.751C284.635 125.671 283.877 124.747 282.905 124.098C281.933 123.448 280.789 123.101 279.62 123.101Z" fill="#F5F5F5"/>
<path d="M273.905 110.429C273.906 111.073 273.717 111.703 273.36 112.239C273.003 112.775 272.496 113.193 271.901 113.44C271.307 113.687 270.653 113.752 270.021 113.628C269.39 113.503 268.809 113.194 268.354 112.739C267.898 112.284 267.588 111.705 267.462 111.073C267.335 110.442 267.4 109.788 267.646 109.193C267.892 108.598 268.309 108.09 268.844 107.732C269.379 107.374 270.008 107.183 270.652 107.183C271.513 107.185 272.338 107.527 272.948 108.136C273.557 108.744 273.901 109.568 273.905 110.429Z" fill="#F5F5F5"/>
<path d="M249.701 70.5596H214.823V108.854H249.701V70.5596Z" fill="#EBEBEB"/>
<path d="M245.397 72.1282C245.368 72.1352 245.338 72.1352 245.309 72.1282C245.227 72.0737 236.988 67.1769 234.397 67.1769C231.805 67.1769 223.928 72.0737 223.853 72.1214C223.834 72.1338 223.812 72.1423 223.79 72.1463C223.767 72.1503 223.744 72.1497 223.722 72.1447C223.7 72.1396 223.679 72.1301 223.66 72.1167C223.642 72.1033 223.626 72.0864 223.614 72.0668C223.591 72.0287 223.584 71.9831 223.594 71.9398C223.604 71.8965 223.631 71.8588 223.669 71.835C223.996 71.6304 231.682 66.8359 234.397 66.8359C237.111 66.8359 245.172 71.6099 245.513 71.835C245.532 71.8461 245.549 71.8611 245.563 71.8791C245.576 71.897 245.585 71.9174 245.59 71.9391C245.596 71.9608 245.596 71.9834 245.592 72.0053C245.588 72.0273 245.58 72.0482 245.568 72.0668C245.549 72.0927 245.522 72.1124 245.492 72.1233C245.461 72.1342 245.429 72.1359 245.397 72.1282Z" fill="#EBEBEB"/>
<path d="M253.472 70.5596H217.449V108.854H253.472V70.5596Z" fill="#F5F5F5"/>
<path d="M250.458 105.833V73.5742H220.47V105.833H250.458Z" fill="white"/>
<path d="M224.76 77.1343H224.235C223.636 77.1343 223.15 77.6198 223.15 78.2187V106.713C223.15 107.311 223.636 107.797 224.235 107.797H224.76C225.359 107.797 225.844 107.311 225.844 106.713V78.2187C225.844 77.6198 225.359 77.1343 224.76 77.1343Z" fill="#F5F5F5"/>
<path d="M233.483 92.4655H231.58H231.389V86.4843C231.389 86.1967 231.275 85.9209 231.071 85.7175C230.868 85.5142 230.592 85.3999 230.305 85.3999H228.409C228.121 85.3999 227.845 85.5142 227.642 85.7175C227.438 85.9209 227.324 86.1967 227.324 86.4843V106.692C227.324 106.98 227.438 107.255 227.642 107.459C227.845 107.662 228.121 107.776 228.409 107.776H230.305C230.536 107.777 230.761 107.703 230.946 107.565C231.128 107.704 231.351 107.778 231.58 107.776H233.483C233.77 107.776 234.046 107.662 234.249 107.459C234.453 107.255 234.567 106.98 234.567 106.692V93.5498C234.567 93.4074 234.539 93.2664 234.485 93.1349C234.43 93.0033 234.35 92.8838 234.249 92.7831C234.149 92.6824 234.029 92.6025 233.898 92.548C233.766 92.4935 233.625 92.4655 233.483 92.4655Z" fill="#F5F5F5"/>
<path d="M243.904 84.3291H236.879C236.28 84.3291 235.795 84.8146 235.795 85.4135V106.706C235.795 107.305 236.28 107.79 236.879 107.79H243.904C244.503 107.79 244.988 107.305 244.988 106.706V85.4135C244.988 84.8146 244.503 84.3291 243.904 84.3291Z" fill="#F5F5F5"/>
<path d="M245.588 81.7648C247.423 81.7648 248.91 80.2778 248.91 78.4434C248.91 76.6091 247.423 75.1221 245.588 75.1221C243.754 75.1221 242.267 76.6091 242.267 78.4434C242.267 80.2778 243.754 81.7648 245.588 81.7648Z" fill="#F5F5F5"/>
<path d="M124.901 187.666C124.901 192.747 130.398 196.873 137.177 196.873C143.957 196.873 149.453 192.747 149.453 187.666H124.901Z" fill="#EBEBEB"/>
<path d="M170.5 291.596C243.53 291.596 302.733 288.139 302.733 283.876C302.733 279.612 243.53 276.155 170.5 276.155C97.4703 276.155 38.2676 279.612 38.2676 283.876C38.2676 288.139 97.4703 291.596 170.5 291.596Z" fill="#F5F5F5"/>
<path d="M233.674 284.633C240.48 284.633 245.997 284.294 245.997 283.876C245.997 283.458 240.48 283.119 233.674 283.119C226.867 283.119 221.35 283.458 221.35 283.876C221.35 284.294 226.867 284.633 233.674 284.633Z" fill="#E6E6E6"/>
<path d="M149.958 265.973H257.694C268.18 265.973 276.681 257.472 276.681 246.986V186.097C276.681 175.611 268.18 167.11 257.694 167.11H149.958C139.472 167.11 130.971 175.611 130.971 186.097V246.986C130.971 257.472 139.472 265.973 149.958 265.973Z" fill="#263238"/>
<path d="M238.905 283.876H228.709L207.99 234.785H223.594L238.905 283.876Z" fill="#263238"/>
<path d="M279.75 211.536H279.068V216.542H279.75V211.536Z" fill="#3C3378"/>
<path opacity="0.2" d="M279.75 211.536H279.068V216.542H279.75V211.536Z" fill="black"/>
<path d="M279.75 190.196H279.068V208.119H279.75V190.196Z" fill="#3C3378"/>
<path opacity="0.2" d="M279.75 190.196H279.068V208.119H279.75V190.196Z" fill="black"/>
<path d="M193.102 164.041H183.854V164.723H193.102V164.041Z" fill="#3C3378"/>
<path opacity="0.2" d="M193.102 164.041H183.854V164.723H193.102V164.041Z" fill="black"/>
<path d="M266.962 234.785L238.884 283.876L218.165 234.785H266.962Z" fill="#3C3378"/>
<path opacity="0.2" d="M266.969 234.785L238.891 283.876L218.172 234.785H266.969Z" fill="black"/>
<path d="M158.531 265.973H257.694C268.18 265.973 276.681 257.472 276.681 246.986V186.097C276.681 175.611 268.18 167.11 257.694 167.11H158.531C148.045 167.11 139.544 175.611 139.544 186.097V246.986C139.544 257.472 148.045 265.973 158.531 265.973Z" fill="#3C3378"/>
<path opacity="0.2" d="M158.531 265.973H257.694C268.18 265.973 276.681 257.472 276.681 246.986V186.097C276.681 175.611 268.18 167.11 257.694 167.11H158.531C148.045 167.11 139.544 175.611 139.544 186.097V246.986C139.544 257.472 148.045 265.973 158.531 265.973Z" fill="black"/>
<path opacity="0.7" d="M192.835 265.973H174.694L193.886 167.11H212.034L192.835 265.973Z" fill="#3C3378"/>
<path opacity="0.7" d="M209.224 265.973H198.905L218.104 167.11H228.415L209.224 265.973Z" fill="#3C3378"/>
<path d="M252.081 199.008H201.667C200.305 198.959 199.014 198.383 198.068 197.401C197.121 196.42 196.592 195.11 196.592 193.746C196.592 192.382 197.121 191.072 198.068 190.091C199.014 189.109 200.305 188.533 201.667 188.484H252.081C252.788 188.459 253.493 188.576 254.153 188.829C254.814 189.082 255.417 189.466 255.926 189.957C256.435 190.448 256.84 191.036 257.116 191.687C257.393 192.338 257.535 193.039 257.535 193.746C257.535 194.453 257.393 195.153 257.116 195.804C256.84 196.456 256.435 197.044 255.926 197.535C255.417 198.026 254.814 198.41 254.153 198.663C253.493 198.916 252.788 199.033 252.081 199.008Z" fill="white"/>
<path d="M184.392 199.008H161.559C160.196 198.959 158.906 198.383 157.959 197.401C157.012 196.42 156.483 195.11 156.483 193.746C156.483 192.382 157.012 191.072 157.959 190.091C158.906 189.109 160.196 188.533 161.559 188.484H184.392C185.099 188.459 185.804 188.576 186.465 188.829C187.125 189.082 187.728 189.466 188.237 189.957C188.746 190.448 189.151 191.036 189.428 191.687C189.704 192.338 189.847 193.039 189.847 193.746C189.847 194.453 189.704 195.153 189.428 195.804C189.151 196.456 188.746 197.044 188.237 197.535C187.728 198.026 187.125 198.41 186.465 198.663C185.804 198.916 185.099 199.033 184.392 199.008Z" fill="white"/>
<path d="M252.081 221.186H166.913C165.55 221.137 164.259 220.561 163.313 219.58C162.366 218.599 161.837 217.288 161.837 215.925C161.837 214.561 162.366 213.251 163.313 212.269C164.259 211.288 165.55 210.712 166.913 210.663H252.081C252.788 210.638 253.493 210.755 254.153 211.008C254.814 211.261 255.417 211.644 255.926 212.135C256.435 212.626 256.84 213.215 257.116 213.866C257.393 214.517 257.535 215.217 257.535 215.925C257.535 216.632 257.393 217.332 257.116 217.983C256.84 218.634 256.435 219.223 255.926 219.714C255.417 220.205 254.814 220.589 254.153 220.841C253.493 221.094 252.788 221.212 252.081 221.186Z" fill="white"/>
<path d="M252.081 243.358H212.627C211.264 243.309 209.974 242.733 209.027 241.752C208.081 240.77 207.552 239.46 207.552 238.096C207.552 236.733 208.081 235.422 209.027 234.441C209.974 233.46 211.264 232.884 212.627 232.835H252.081C252.788 232.809 253.493 232.927 254.153 233.18C254.814 233.433 255.417 233.816 255.926 234.307C256.435 234.798 256.84 235.387 257.116 236.038C257.393 236.689 257.535 237.389 257.535 238.096C257.535 238.804 257.393 239.504 257.116 240.155C256.84 240.806 256.435 241.395 255.926 241.886C255.417 242.377 254.814 242.76 254.153 243.013C253.493 243.266 252.788 243.383 252.081 243.358Z" fill="white"/>
<path opacity="0.1" d="M164.171 167.09C164.171 167.09 156.628 207.874 156.628 225.101C156.628 242.772 162.862 265.953 162.862 265.953H142.94L141.624 243.576C140.384 222.65 142.455 201.658 147.762 181.378L151.499 167.056L164.171 167.09Z" fill="black"/>
<path d="M153.784 283.876C153.784 284.68 142.599 285.335 128.803 285.335C115.006 285.335 103.821 284.653 103.821 283.876C103.821 283.098 115.006 282.416 128.803 282.416C142.599 282.416 153.784 283.071 153.784 283.876Z" fill="#7767ED"/>
<path d="M145.218 114.392C143.104 114.726 141.126 114.897 139.08 115.074C137.034 115.251 134.988 115.244 132.942 115.231C128.776 115.23 124.623 114.773 120.557 113.867C119.265 113.515 118.057 112.907 117.004 112.08C116.118 111.399 115.284 110.653 114.508 109.85C113.075 108.34 111.753 106.728 110.552 105.028C108.2 101.738 106.105 98.2725 104.285 94.6615L106.842 93.127C107.988 94.6751 109.168 96.2506 110.382 97.7578C111.596 99.265 112.803 100.779 114.085 102.205C115.313 103.612 116.625 104.945 118.013 106.194C118.655 106.77 119.339 107.297 120.059 107.77C120.583 108.14 121.17 108.413 121.792 108.574C123.611 108.88 125.446 109.087 127.289 109.195C129.164 109.277 131.053 109.325 132.956 109.297C134.859 109.27 136.768 109.168 138.671 109.031C140.574 108.895 142.518 108.697 144.311 108.479L145.218 114.392Z" fill="#FF8B7B"/>
<path d="M151.356 108.854C146.166 105.71 139.128 107.995 139.128 107.995L142.688 120.271C142.688 120.271 148.308 118.688 150.511 116.295C152.816 113.819 154.487 110.743 151.356 108.854Z" fill="#263238"/>
<path d="M107.279 94.4026L108.533 90.1743L102.593 90.9108C102.98 92.5894 103.716 94.1675 104.755 95.5416L107.279 94.4026Z" fill="#FF8B7B"/>
<path d="M108.104 85.2432L103.159 86.1298L102.593 90.9106L108.533 90.1741L108.104 85.2432Z" fill="#FF8B7B"/>
<path d="M175.588 70.0752C180.839 70.1843 179.366 74.5696 179.366 74.5696C179.366 74.5696 185.088 70.955 186.909 75.1766C188.73 79.3981 184.624 80.7349 182.224 81.3691C183.731 82.2353 183.813 85.0451 181.698 85.9658C179.584 86.8865 176.045 84.3563 173.371 84.3904L170.739 81.2736C174.312 78.9548 170.329 69.9661 175.588 70.0752Z" fill="#263238"/>
<path d="M174.769 86.5592C177.061 86.9616 178.725 86.6752 178.275 84.145C177.988 82.7402 177.352 81.4306 176.424 80.3374C175.497 79.2442 174.308 78.4027 172.969 77.891C170.077 76.8271 169.429 81.6011 169.429 81.6011L174.769 86.5592Z" fill="#3C3378"/>
<path d="M107.756 263.3L101.904 262.625L103.071 249.039L108.922 249.707L107.756 263.3Z" fill="#FF8B7B"/>
<path d="M146.514 279.224L140.635 278.958L139.367 265.25L145.252 265.523L146.514 279.224Z" fill="#FF8B7B"/>
<path d="M140.41 277.178H147.026C147.139 277.177 147.25 277.217 147.336 277.291C147.423 277.365 147.48 277.468 147.496 277.581L148.246 282.819C148.261 282.95 148.247 283.084 148.206 283.21C148.166 283.336 148.099 283.453 148.01 283.551C147.921 283.65 147.812 283.728 147.691 283.782C147.569 283.836 147.438 283.863 147.305 283.862C145 283.821 143.895 283.692 140.976 283.692C139.189 283.692 136.571 283.876 134.102 283.876C131.633 283.876 131.503 281.434 132.526 281.209C137.143 280.22 137.873 278.849 139.428 277.547C139.701 277.311 140.049 277.18 140.41 277.178Z" fill="#263238"/>
<path d="M101.707 260.483L108.274 259.706C108.388 259.69 108.504 259.717 108.599 259.781C108.695 259.845 108.764 259.942 108.793 260.053L110.157 265.162C110.185 265.291 110.186 265.425 110.16 265.555C110.133 265.685 110.079 265.808 110.002 265.916C109.925 266.024 109.826 266.115 109.712 266.182C109.597 266.25 109.47 266.292 109.338 266.307C107.047 266.539 105.928 266.539 103.037 266.88C101.263 267.092 97.5808 267.712 95.1529 267.999C92.725 268.285 92.2816 265.878 93.2773 265.537C97.7444 264.009 99.3812 262.44 100.779 260.96C101.024 260.699 101.352 260.53 101.707 260.483Z" fill="#263238"/>
<path d="M103.077 249.039L102.471 256.043L108.322 256.718L108.929 249.714L103.077 249.039Z" fill="#EA7063"/>
<path d="M145.252 265.523L139.367 265.257L140.021 272.323L145.907 272.589L145.252 265.523Z" fill="#EA7063"/>
<path d="M145.655 107.292C145.655 107.292 142.688 107.476 138.671 142.245L161.675 148.765C163.946 139.292 165.569 133.515 175.492 115.572C172.461 113.982 169.317 112.614 166.087 111.48C162.679 110.247 159.188 109.257 155.639 108.52C151.036 107.695 145.655 107.292 145.655 107.292Z" fill="#263238"/>
<path d="M168.386 99.4629C166.776 102.634 164.369 108.609 166.087 111.514C166.087 111.514 164.198 114.665 157.958 112.878C151.09 110.934 155.639 108.54 155.639 108.54C159.643 108.711 160.331 105.901 160.413 103.084L168.386 99.4629Z" fill="#FF8B7B"/>
<path d="M149.208 107.633C151.09 107.838 153.457 108.145 155.639 108.554C159.188 109.29 162.68 110.279 166.087 111.514C168.045 112.196 169.941 112.946 171.503 113.648C171.182 114.787 168.925 120.714 155.496 117.304C143.002 114.085 147.783 108.793 149.208 107.633Z" fill="#FF8B7B"/>
<path d="M165.14 100.936L160.427 103.098C160.415 103.753 160.347 104.405 160.222 105.048C161.709 105.246 164.232 104.578 164.812 103.118C165.048 102.416 165.159 101.677 165.14 100.936Z" fill="#EA7063"/>
<path d="M171.38 91.995C169.968 97.6624 169.497 100.097 166.06 102.505C160.891 106.133 154.227 103.187 153.914 97.1918C153.627 91.8108 155.96 83.4427 162.009 82.1878C163.339 81.9057 164.718 81.9681 166.017 82.369C167.315 82.77 168.49 83.4963 169.429 84.479C170.367 85.4616 171.04 86.6679 171.381 87.9834C171.723 89.2988 171.722 90.6797 171.38 91.995Z" fill="#FF8B7B"/>
<path d="M169.538 97.4643C167.827 96.5777 166.456 94.0543 168.925 91.7082C168.925 91.7082 165.515 89.7646 167.226 87.0843C168.938 84.404 175.779 82.1739 176.849 85.7748C177.92 89.3758 174.592 90.8557 174.592 90.8557C174.592 90.8557 177.32 95.0296 172.416 96.4072C172.416 96.4072 171.994 102.43 168.474 99.749L169.538 97.4643Z" fill="#263238"/>
<path d="M171.318 97.3351C170.994 98.4137 170.259 99.3222 169.272 99.8653C167.949 100.547 166.967 99.4629 167.063 98.0512C167.151 96.7758 167.949 94.873 169.402 94.7571C169.72 94.7373 170.039 94.7972 170.328 94.9316C170.618 95.0659 170.869 95.2704 171.059 95.5265C171.25 95.7825 171.373 96.0821 171.418 96.3979C171.463 96.7137 171.429 97.0358 171.318 97.3351Z" fill="#FF8B7B"/>
<path d="M138.671 142.245C138.671 142.245 111.95 173.76 107.429 191.137C102.723 209.21 100.609 253.881 100.609 253.881L109.802 255.068C109.802 255.068 115.94 214.196 123.667 197.541C131.892 179.809 155.551 147.032 155.551 147.032L138.671 142.245Z" fill="#3C3378"/>
<path d="M111.03 255.218L99.3335 253.69L99.1289 250.485L111.998 253.097L111.03 255.218Z" fill="#3C3378"/>
<path opacity="0.3" d="M111.03 255.218L99.3335 253.69L99.1289 250.485L111.998 253.097L111.03 255.218Z" fill="black"/>
<path opacity="0.2" d="M138.214 156.574C136.028 164.316 134.383 172.2 133.29 180.171C135.732 176.215 138.303 172.212 140.792 168.42C141.699 166.415 142.627 164.43 143.52 162.493C143.52 162.493 143.52 162.452 143.52 162.425L138.214 156.574Z" fill="black"/>
<path d="M144.748 143.963C144.748 143.963 137.014 183.772 134.218 206.646C131.953 225.128 139.08 269.956 139.08 269.956L146.746 270.427C146.746 270.427 145.13 230.393 148.69 212.491C157.706 167.199 166.135 161.123 161.648 148.765L144.748 143.963Z" fill="#3C3378"/>
<path d="M147.694 270.481L137.771 269.874L137.307 267.051L148.055 268.169L147.694 270.481Z" fill="#3C3378"/>
<path opacity="0.3" d="M147.694 270.481L137.771 269.874L137.307 267.051L148.055 268.169L147.694 270.481Z" fill="black"/>
<path d="M162.405 147.51L162.855 149.863C162.889 150.047 162.657 150.156 162.391 150.081L138.269 143.261C138.057 143.206 137.914 143.056 137.941 142.92L138.316 140.806C138.316 140.656 138.555 140.587 138.78 140.649L162.077 147.251C162.148 147.265 162.215 147.296 162.272 147.341C162.329 147.386 162.374 147.444 162.405 147.51Z" fill="#3C3378"/>
<path opacity="0.4" d="M162.405 147.51L162.855 149.863C162.889 150.047 162.657 150.156 162.391 150.081L138.269 143.261C138.057 143.206 137.914 143.056 137.941 142.92L138.316 140.806C138.316 140.656 138.555 140.587 138.78 140.649L162.077 147.251C162.148 147.265 162.215 147.296 162.272 147.341C162.329 147.386 162.374 147.444 162.405 147.51Z" fill="black"/>
<path d="M158.538 149.228L159.158 149.406C159.281 149.44 159.397 149.406 159.411 149.324L159.874 146.596C159.874 146.514 159.799 146.419 159.677 146.384L159.049 146.207C158.926 146.173 158.817 146.207 158.804 146.289L158.333 149.017C158.32 149.099 158.415 149.194 158.538 149.228Z" fill="#3C3378"/>
<path d="M139.953 143.963L140.581 144.141C140.703 144.175 140.819 144.141 140.833 144.059L141.297 141.331C141.297 141.256 141.222 141.16 141.092 141.126L140.472 140.949C140.349 140.908 140.233 140.949 140.219 141.031L139.755 143.759C139.742 143.834 139.81 143.902 139.953 143.963Z" fill="#3C3378"/>
<path d="M149.249 146.63L149.87 146.807C149.992 146.807 150.108 146.807 150.122 146.725L150.586 143.997C150.586 143.916 150.511 143.82 150.388 143.786L149.76 143.609C149.638 143.568 149.522 143.609 149.508 143.691L149.044 146.419C149.031 146.466 149.119 146.562 149.249 146.63Z" fill="#3C3378"/>
<path d="M162.384 92.002C162.296 92.4658 161.982 92.8 161.702 92.7454C161.423 92.6908 161.218 92.2612 161.307 91.7974C161.395 91.3337 161.709 90.9926 161.989 91.054C162.268 91.1154 162.466 91.5314 162.384 92.002Z" fill="#263238"/>
<path d="M157.106 91.0265C157.017 91.497 156.703 91.8312 156.424 91.7698C156.144 91.7085 155.939 91.2924 156.028 90.8287C156.117 90.3649 156.43 90.0239 156.71 90.0785C156.99 90.133 157.187 90.5627 157.106 91.0265Z" fill="#263238"/>
<path d="M156.86 90.133L155.803 89.6011C155.803 89.6011 156.178 90.5831 156.86 90.133Z" fill="#263238"/>
<path d="M158.354 92.0698C157.74 93.0574 156.994 93.9568 156.137 94.7432C156.345 94.9564 156.596 95.1218 156.874 95.2278C157.152 95.3338 157.45 95.3779 157.747 95.357L158.354 92.0698Z" fill="#FF5652"/>
<path d="M159.874 97.6009C159.597 97.5991 159.321 97.5717 159.049 97.5191C159.014 97.5125 158.983 97.4923 158.963 97.463C158.942 97.4336 158.934 97.3975 158.94 97.3622C158.947 97.3253 158.968 97.2925 158.998 97.2708C159.029 97.2492 159.067 97.2403 159.104 97.2463C159.682 97.3651 160.281 97.3462 160.851 97.191C161.42 97.0358 161.946 96.7487 162.384 96.3529C162.411 96.3306 162.446 96.319 162.481 96.3204C162.516 96.3218 162.549 96.3361 162.575 96.3606C162.6 96.385 162.615 96.4179 162.618 96.4529C162.621 96.488 162.61 96.5228 162.589 96.5507C161.853 97.2366 160.881 97.6127 159.874 97.6009Z" fill="#263238"/>
<path d="M164.362 90.5902C164.311 90.5905 164.261 90.5767 164.218 90.5502C164.174 90.5236 164.139 90.4855 164.117 90.4401C163.968 90.123 163.746 89.8453 163.47 89.6297C163.194 89.414 162.871 89.2664 162.527 89.1989C162.488 89.1989 162.449 89.1906 162.413 89.1746C162.377 89.1585 162.345 89.1351 162.319 89.1058C162.293 89.0765 162.273 89.042 162.261 89.0045C162.249 88.967 162.245 88.9275 162.25 88.8884C162.254 88.8493 162.266 88.8116 162.286 88.7777C162.306 88.7438 162.333 88.7144 162.365 88.6916C162.397 88.6688 162.434 88.653 162.472 88.6452C162.511 88.6374 162.55 88.6378 162.589 88.6465C163.029 88.7196 163.445 88.898 163.801 89.1663C164.157 89.4347 164.443 89.7851 164.635 90.1878C164.668 90.2538 164.674 90.3304 164.651 90.4007C164.628 90.471 164.578 90.5293 164.512 90.5629C164.465 90.5851 164.414 90.5945 164.362 90.5902Z" fill="#263238"/>
<path d="M155.203 88.1622C155.167 88.1621 155.132 88.1548 155.099 88.1407C155.066 88.1267 155.036 88.1062 155.012 88.0804C154.985 88.0549 154.964 88.0242 154.949 87.9902C154.934 87.9562 154.927 87.9196 154.927 87.8826C154.927 87.8456 154.934 87.809 154.949 87.775C154.964 87.741 154.985 87.7103 155.012 87.6848C155.313 87.3609 155.688 87.1134 156.104 86.9628C156.52 86.8122 156.966 86.7628 157.406 86.8187C157.477 86.8351 157.539 86.8781 157.58 86.939C157.62 86.9999 157.636 87.0739 157.624 87.1461C157.617 87.1822 157.604 87.2167 157.583 87.2474C157.563 87.2782 157.537 87.3045 157.507 87.3249C157.476 87.3453 157.442 87.3593 157.406 87.3661C157.369 87.3728 157.332 87.3722 157.296 87.3643C156.951 87.3223 156.601 87.3622 156.274 87.4807C155.947 87.5992 155.652 87.7929 155.414 88.0463C155.39 88.0802 155.358 88.1082 155.322 88.1282C155.285 88.1483 155.244 88.1599 155.203 88.1622Z" fill="#263238"/>
<path d="M176.208 122.03C176.672 124.117 176.965 126.081 177.238 128.114C177.511 130.146 177.654 132.206 177.77 134.211C178.011 138.37 177.799 142.544 177.136 146.657C176.865 147.969 176.331 149.212 175.567 150.313C174.95 151.237 174.266 152.114 173.521 152.939C172.102 154.467 170.578 155.893 168.959 157.208C165.813 159.756 162.475 162.056 158.974 164.089L157.29 161.634C158.763 160.393 160.263 159.117 161.695 157.822C163.128 156.526 164.567 155.216 165.903 153.852C167.237 152.541 168.49 151.149 169.654 149.685C170.188 149.013 170.672 148.302 171.1 147.558C171.434 147.011 171.665 146.407 171.782 145.778C171.979 143.943 172.075 142.099 172.069 140.253C172.069 138.371 171.966 136.482 171.823 134.586C171.68 132.69 171.462 130.794 171.209 128.898C170.957 127.002 170.643 125.079 170.316 123.306L176.208 122.03Z" fill="#FF8B7B"/>
<path d="M175.492 115.572C177.593 116.936 178.118 125.645 178.118 125.645L167.363 129.505C167.363 129.505 165.999 121.955 167.792 119.275C169.682 116.431 173.085 114.024 175.492 115.572Z" fill="#263238"/>
<path d="M138.391 278.208C137.994 278.243 137.597 278.135 137.273 277.901C137.175 277.809 137.102 277.692 137.061 277.563C137.02 277.434 137.014 277.297 137.041 277.165C137.048 277.08 137.078 276.998 137.127 276.929C137.176 276.859 137.243 276.804 137.321 276.769C138.003 276.456 139.79 277.615 139.994 277.745C140.017 277.76 140.034 277.782 140.045 277.808C140.056 277.833 140.059 277.861 140.056 277.888C140.049 277.914 140.035 277.938 140.016 277.957C139.997 277.977 139.973 277.99 139.946 277.997C139.438 278.126 138.916 278.197 138.391 278.208ZM137.614 276.994C137.555 276.982 137.495 276.982 137.437 276.994C137.402 277.009 137.372 277.034 137.352 277.065C137.331 277.097 137.32 277.134 137.321 277.172C137.299 277.259 137.3 277.351 137.324 277.438C137.347 277.526 137.393 277.605 137.457 277.67C137.757 277.942 138.528 277.976 139.558 277.772C138.969 277.384 138.308 277.119 137.614 276.994Z" fill="#3C3378"/>
<path d="M139.919 278.004C139.897 278.01 139.873 278.01 139.851 278.004C139.285 277.683 138.214 276.415 138.351 275.753C138.37 275.643 138.428 275.543 138.514 275.472C138.6 275.401 138.709 275.363 138.821 275.364C138.926 275.35 139.034 275.359 139.135 275.391C139.236 275.423 139.329 275.477 139.408 275.548C140.049 276.115 140.09 277.813 140.09 277.881C140.09 277.905 140.084 277.93 140.072 277.951C140.06 277.973 140.042 277.991 140.021 278.004C140.005 278.011 139.988 278.014 139.97 278.014C139.953 278.014 139.935 278.011 139.919 278.004ZM138.917 275.617H138.848C138.671 275.617 138.637 275.712 138.623 275.78C138.541 276.183 139.21 277.144 139.769 277.588C139.783 276.928 139.593 276.28 139.224 275.733C139.139 275.657 139.03 275.615 138.917 275.617Z" fill="#3C3378"/>
<path d="M99.1152 261.799C98.786 261.82 98.4582 261.742 98.174 261.574C98.0714 261.502 97.988 261.406 97.9309 261.294C97.8739 261.183 97.8449 261.059 97.8467 260.933C97.8415 260.855 97.8564 260.778 97.8898 260.707C97.9232 260.637 97.9741 260.576 98.0376 260.531C98.7196 260.053 101.175 260.967 101.448 261.076C101.475 261.087 101.498 261.105 101.514 261.13C101.53 261.154 101.538 261.184 101.536 261.213C101.536 261.242 101.527 261.27 101.51 261.293C101.492 261.316 101.468 261.334 101.441 261.342C100.691 261.603 99.9081 261.757 99.1152 261.799ZM98.6242 260.674C98.4754 260.662 98.3265 260.693 98.1945 260.763C98.1698 260.78 98.1503 260.804 98.1383 260.831C98.1262 260.859 98.1221 260.89 98.1263 260.92C98.1232 261.003 98.1409 261.086 98.1778 261.161C98.2147 261.236 98.2697 261.301 98.3377 261.349C98.7265 261.622 99.7017 261.567 100.963 261.199C100.212 260.916 99.4246 260.739 98.6242 260.674Z" fill="#3C3378"/>
<path d="M101.407 261.349H101.366C100.629 261.117 99.1012 260.019 99.1353 259.344C99.1353 259.18 99.2239 258.976 99.6059 258.887C99.7421 258.858 99.883 258.856 100.02 258.881C100.157 258.907 100.288 258.96 100.404 259.037C101.209 259.562 101.529 261.117 101.543 261.186C101.547 261.209 101.546 261.233 101.539 261.256C101.532 261.278 101.519 261.299 101.502 261.315C101.476 261.338 101.442 261.351 101.407 261.349ZM99.8377 259.133C99.7811 259.126 99.7239 259.126 99.6672 259.133C99.4149 259.187 99.4149 259.29 99.4081 259.324C99.4081 259.733 100.445 260.613 101.209 260.961C101.074 260.302 100.738 259.701 100.247 259.242C100.121 259.177 99.9791 259.149 99.8377 259.16V259.133Z" fill="#3C3378"/>
<path opacity="0.6" d="M126.525 88.987C118.588 87.1406 110.302 87.4607 102.531 89.9139C94.761 92.3672 87.7929 96.8634 82.3556 102.932C76.9183 109.001 73.2118 116.42 71.6238 124.412C70.0357 132.404 70.6245 140.676 73.3285 148.362L60.0771 162.466L80.1212 160.911C84.5517 166.712 90.3134 171.362 96.9195 174.467C103.526 177.572 110.782 179.041 118.076 178.751C125.369 178.461 132.486 176.42 138.825 172.799C145.163 169.179 150.537 164.087 154.493 157.952C158.448 151.817 160.869 144.821 161.551 137.553C162.233 130.286 161.156 122.961 158.41 116.197C155.665 109.434 151.332 103.431 145.777 98.6943C140.223 93.9583 133.61 90.6288 126.497 88.987H126.525Z" fill="#3C3378"/>
<path opacity="0.1" d="M126.525 88.987C118.588 87.1406 110.302 87.4607 102.531 89.9139C94.761 92.3672 87.7929 96.8634 82.3556 102.932C76.9183 109.001 73.2118 116.42 71.6238 124.412C70.0357 132.404 70.6245 140.676 73.3285 148.362L60.0771 162.466L80.1212 160.911C84.5517 166.712 90.3134 171.362 96.9195 174.467C103.526 177.572 110.782 179.041 118.076 178.751C125.369 178.461 132.486 176.42 138.825 172.799C145.163 169.179 150.537 164.087 154.493 157.952C158.448 151.817 160.869 144.821 161.551 137.553C162.233 130.286 161.156 122.961 158.41 116.197C155.665 109.434 151.332 103.431 145.777 98.6943C140.223 93.9583 133.61 90.6288 126.497 88.987H126.525Z" fill="black"/>
<path d="M132.049 125.556C132.155 125.309 132.177 125.034 132.111 124.774C132.044 124.513 131.893 124.282 131.681 124.117C129.327 122.402 126.642 121.197 123.797 120.578C118.923 119.454 113.803 120.311 109.56 122.959C105.318 125.607 102.299 129.83 101.168 134.702C99.5995 141.474 103.316 146.071 107.797 147.107C109.649 147.575 111.584 147.599 113.447 147.178C115.309 146.757 117.047 145.904 118.518 144.686C118.556 146.14 119.089 147.537 120.029 148.645C120.969 149.754 122.26 150.509 123.688 150.783C130.692 152.407 139.251 147.708 142.054 135.595C145.075 122.555 138.01 111.323 124.881 108.315C109.113 104.667 94.3277 114.399 90.4949 130.958C87.3031 144.761 94.7301 157.031 108.152 160.14C113.478 161.375 117.85 161.395 122.324 160.215C122.607 160.14 122.853 159.964 123.016 159.721C123.179 159.477 123.248 159.183 123.21 158.892L122.774 155.482C122.75 155.31 122.689 155.145 122.596 154.998C122.504 154.851 122.38 154.725 122.235 154.63C122.09 154.533 121.926 154.469 121.754 154.443C121.582 154.417 121.406 154.429 121.239 154.48C117.659 155.388 113.908 155.388 110.327 154.48C99.8792 152.059 94.5664 143.036 97.1171 132.015C100.186 118.736 111.077 111.105 123.033 113.867C133.14 116.206 137.921 124.097 135.513 134.552C134.456 139.114 132.281 142.688 129.539 144.366C128.532 145.066 127.289 145.338 126.081 145.123C125.9 145.093 125.729 145.02 125.583 144.91C125.437 144.799 125.32 144.655 125.243 144.489C124.949 143.888 124.738 142.258 126.607 138.146L132.049 125.556ZM121.492 126.572C122.254 126.747 122.999 126.993 123.715 127.309L120.741 134.129C119.064 138.071 114.433 142.04 110.989 141.242C107.845 140.519 108.008 137.689 108.383 136.073C109.87 129.621 115.879 125.277 121.492 126.572Z" fill="white"/>
<path d="M158.565 161.116L153.395 158.183L154.493 164.069C154.493 164.069 158.081 165.255 159.854 163.564L158.565 161.116Z" fill="#FF8B7B"/>
<path d="M148.499 158.913L149.685 163.789L154.493 164.069L153.395 158.183L148.499 158.913Z" fill="#FF8B7B"/>
<path d="M162.118 91.1018L161.054 90.5698C161.054 90.5698 161.47 91.5519 162.118 91.1018Z" fill="#263238"/>
<path d="M169.429 88.4078C166.51 88.2236 164.369 86.9415 164.082 85.2569C164.082 85.2569 157.385 88.0395 154.678 83.8929C154.678 83.8929 151.622 84.3976 150.865 82.2698C150.108 80.1419 153.286 79.5418 154.787 80.4966C154.787 80.4966 150.135 76.4046 154.909 75.2656C159.683 74.1267 160.706 77.9936 160.706 77.9936C160.706 77.9936 162.589 72.3467 166.844 74.8564C171.1 77.3662 168.454 79.7941 168.454 79.7941C168.454 79.7941 178.561 80.5784 174.797 84.5681C171.032 88.5578 169.429 88.4078 169.429 88.4078Z" fill="#263238"/>
<path d="M165.774 108.008C166.347 108.063 166.094 110.054 165.835 110.191C165.242 110.511 158.094 109.045 158.333 107.94C158.58 107.409 158.922 106.929 159.343 106.522C159.656 106.29 160.747 107.592 165.774 108.008Z" fill="#263238"/>
<path d="M203.1 123.626C200.207 123.617 197.419 124.707 195.299 126.676C193.18 128.644 191.887 131.344 191.683 134.229C191.478 137.115 192.377 139.97 194.198 142.218C196.019 144.466 198.625 145.938 201.49 146.337C201.547 149.218 200.537 152.019 198.653 154.2C198.653 154.2 214.516 150.251 214.516 135.043C214.516 132.015 213.313 129.111 211.172 126.97C209.031 124.829 206.127 123.626 203.1 123.626Z" fill="#3C3378"/>
<path d="M228.791 123.626C225.898 123.617 223.11 124.707 220.99 126.675C218.871 128.644 217.578 131.344 217.374 134.229C217.169 137.115 218.068 139.97 219.889 142.218C221.71 144.465 224.316 145.938 227.181 146.337C227.248 149.214 226.249 152.014 224.378 154.2C224.378 154.2 240.241 150.251 240.241 135.043C240.242 133.54 239.946 132.053 239.371 130.665C238.795 129.277 237.951 128.017 236.887 126.956C235.824 125.895 234.561 125.055 233.171 124.484C231.782 123.912 230.293 123.621 228.791 123.626Z" fill="#3C3378"/>
<path d="M282.893 254C282.893 254 265.014 233.233 258.294 212.466C251.574 191.699 254.75 194.083 254.75 194.083C254.75 194.083 263.863 214.254 270.777 224.006C277.69 233.757 290 248.04 290 248.04L282.893 254Z" fill="#77B033"/>
<path d="M287.026 197.704C286.937 197.443 286.748 197.228 286.5 197.107C286.252 196.985 285.967 196.967 285.705 197.055C285.444 197.144 285.229 197.333 285.107 197.58C284.985 197.827 284.967 198.113 285.055 198.373C286.159 205.685 288.552 222.84 288.46 233.961C288.336 248.378 288.46 254 288.46 254H296C296 254 294.659 224.138 292.905 215.014C291.806 208.988 289.825 203.155 287.026 197.704Z" fill="#77B033"/>
<path d="M291 251.368C294.023 244.172 296.022 236.549 296.932 228.744C297.525 223.394 296.458 216.158 294.886 206.495C294.274 202.961 293.966 199.376 293.966 195.784C293.972 195.385 294.104 194.999 294.341 194.686C294.578 194.373 294.907 194.151 295.276 194.054C295.646 193.957 296.036 193.991 296.385 194.15C296.735 194.309 297.024 194.585 297.209 194.934C298.958 198.326 300.312 201.925 301.243 205.655C302.993 215.193 304.98 219.963 303.458 229.014C301.935 238.065 296.349 252 296.349 252L291 251.368Z" fill="#77B033"/>
<path d="M298 251.741C298 251.741 317.624 209.331 318.988 203.005C320.352 196.679 324.973 182.214 325.513 183.033C326.052 183.852 326.877 191.509 323.345 200.261C319.813 209.014 304.708 253 304.708 253H298" fill="#77B033"/>
<path d="M289 250C288.804 249.884 288.615 249.756 288.436 249.615C288.081 249.344 287.539 248.969 286.881 248.427C284.997 246.935 283.192 245.346 281.474 243.667C275.801 238.082 270.888 231.778 266.86 224.917C262.85 218.075 259.515 210.86 256.902 203.375C255.858 200.51 255.148 198.167 254.678 196.531C254.428 195.719 254.261 195.083 254.136 194.656C254.077 194.441 254.032 194.221 254 194C254.106 194.201 254.187 194.414 254.24 194.635L254.856 196.5C255.378 198.104 256.161 200.438 257.205 203.281C259.9 210.712 263.265 217.884 267.257 224.708C271.266 231.538 276.12 237.837 281.704 243.458C283.854 245.542 285.701 247.219 287.006 248.302C287.643 248.865 288.175 249.26 288.509 249.552C288.684 249.689 288.848 249.838 289 250Z" fill="#A8FA48"/>
<path d="M290.962 229C290.866 228.6 290.808 228.191 290.791 227.78C290.69 226.913 290.578 225.764 290.427 224.433C290.124 221.6 289.638 217.709 288.951 213.424C288.264 209.14 287.486 205.299 286.93 202.516C286.637 201.176 286.394 200.077 286.212 199.22C286.105 198.82 286.034 198.412 286 198C286.149 198.385 286.273 198.779 286.374 199.179C286.586 199.946 286.879 201.065 287.213 202.446C287.88 205.218 288.698 209.069 289.396 213.364C290.093 217.659 290.518 221.57 290.75 224.403C290.871 225.824 290.942 226.974 290.983 227.77C291.011 228.18 291.004 228.591 290.962 229Z" fill="#E0E0E0"/>
<path d="M295.771 195C295.853 195.168 295.92 195.346 295.969 195.53L296.49 197.101C296.724 197.784 296.985 198.62 297.236 199.62C297.488 200.619 297.83 201.731 298.081 203.006L298.504 204.984C298.648 205.678 298.756 206.412 298.891 207.167C299.169 208.666 299.349 210.288 299.556 212.001C299.929 215.724 300.068 219.473 299.969 223.219C299.827 226.956 299.454 230.678 298.855 234.356C298.531 236.039 298.252 237.65 297.875 239.119C297.695 239.863 297.551 240.577 297.362 241.26C297.173 241.944 296.985 242.586 296.805 243.208C296.481 244.453 296.077 245.544 295.753 246.513C295.429 247.482 295.124 248.297 294.854 248.96C294.584 249.623 294.396 250.103 294.234 250.49C294.168 250.667 294.09 250.838 294 251C294.037 250.809 294.094 250.624 294.171 250.449L294.728 248.879C294.98 248.206 295.277 247.39 295.573 246.411C295.87 245.432 296.256 244.371 296.571 243.096C296.733 242.474 296.913 241.821 297.093 241.148C297.272 240.475 297.416 239.751 297.587 239.017C297.956 237.548 298.216 235.957 298.486 234.264C299.711 226.947 299.96 219.463 299.223 212.062C299.025 210.359 298.864 208.737 298.594 207.248C298.468 206.494 298.378 205.77 298.234 205.076C298.09 204.383 297.965 203.73 297.83 203.098C297.596 201.823 297.281 200.701 297.048 199.702C296.814 198.702 296.571 197.866 296.364 197.172L295.915 195.581C295.842 195.397 295.793 195.201 295.771 195Z" fill="#A8FA48"/>
<path d="M325 184C325 184 325 184.061 325 184.194C325 184.326 325 184.519 324.909 184.733C324.828 185.222 324.716 185.935 324.523 186.842C324.148 188.655 323.509 191.263 322.495 194.441C321.48 197.619 320.192 201.326 318.609 205.411C317.027 209.496 315.191 213.947 313.456 218.653C311.722 223.359 310.332 228.004 309.064 232.19C307.796 236.376 306.599 240.145 305.433 243.252C304.551 245.714 303.535 248.125 302.39 250.474C301.994 251.309 301.629 251.93 301.375 252.358L301.101 252.837C301.072 252.894 301.038 252.948 301 253C301 253 301 252.939 301.061 252.817C301.122 252.694 301.203 252.521 301.304 252.318C301.507 251.88 301.842 251.299 302.227 250.403C303.008 248.732 304.074 246.267 305.179 243.15C306.285 240.033 307.472 236.275 308.709 232.078C309.947 227.881 311.316 223.247 313.081 218.51C314.846 213.774 316.672 209.343 318.265 205.268C319.857 201.194 321.227 197.496 322.241 194.349C323.255 191.202 323.925 188.604 324.341 186.801C324.564 185.905 324.696 185.192 324.807 184.764C324.858 184.55 324.899 184.367 324.939 184.224C324.98 184.081 325 184 325 184Z" fill="#A8FA48"/>
<path d="M263.875 174.467C263.602 174.208 263.251 174.047 262.877 174.009C262.503 173.97 262.126 174.057 261.807 174.255C261.487 174.452 261.241 174.75 261.109 175.102C260.977 175.453 260.964 175.839 261.075 176.198C261.75 178.381 262.58 180.514 263.557 182.579C266.276 188.346 274.267 209.047 278.001 220.417C281.736 231.787 287.008 253 287.008 253L295 251.699C295 251.699 287.696 216.873 280.556 204.295C274.821 194.215 269.087 179.629 263.875 174.467Z" fill="#77B033"/>
<path d="M280 227C280.177 227.311 280.318 227.641 280.421 227.983C280.663 228.621 281 229.552 281.368 230.713C282.126 233.035 283.053 236.277 283.979 239.875C284.905 243.472 285.674 246.756 286.221 249.141C286.463 250.26 286.674 251.233 286.832 251.954C286.927 252.295 286.983 252.646 287 253C286.858 252.663 286.749 252.312 286.674 251.954C286.474 251.212 286.221 250.281 285.916 249.172C285.295 246.725 284.474 243.504 283.558 239.948C282.642 236.392 281.758 233.097 281.074 230.755C280.758 229.656 280.484 228.726 280.263 227.994C280.15 227.67 280.062 227.337 280 227Z" fill="#E0E0E0"/>
<path d="M290.911 252C290.904 251.932 290.904 251.863 290.911 251.795C290.911 251.631 290.911 251.416 290.819 251.16C290.738 250.617 290.666 249.797 290.493 248.752C290.207 246.652 289.686 243.629 288.829 239.951C287.814 235.644 286.574 231.393 285.115 227.216C283.482 222.493 281.441 217.39 279.124 212.104C274.45 201.551 269.786 192.196 266.715 185.27C265.164 181.817 263.97 179 263.174 177.074C262.776 176.049 262.49 175.322 262.286 174.799L262.061 174.205C262.034 174.139 262.013 174.07 262 174C262.043 174.059 262.078 174.125 262.102 174.195L262.357 174.768L263.357 176.961C264.194 178.908 265.398 181.705 267.021 185.158C270.154 192.043 274.858 201.376 279.543 211.95C281.859 217.237 283.9 222.359 285.513 227.103C286.959 231.298 288.172 235.57 289.146 239.9C289.81 242.819 290.324 245.77 290.686 248.742C290.829 249.766 290.88 250.607 290.931 251.17C290.931 251.426 290.931 251.631 290.982 251.795C291.033 251.959 290.962 252 290.911 252Z" fill="#A8FA48"/>
<path d="M295 252C294.883 251.558 294.798 251.106 294.747 250.648C294.607 249.692 294.411 248.444 294.186 246.926C293.681 243.807 292.913 239.471 291.809 234.771C290.705 230.072 289.461 225.881 288.525 222.876C288.057 221.431 287.674 220.235 287.384 219.32C287.219 218.895 287.09 218.453 287 218C287.2 218.406 287.375 218.826 287.524 219.258C287.833 220.08 288.273 221.275 288.778 222.772C290.091 226.669 291.218 230.639 292.156 234.667C293.096 238.691 293.852 242.765 294.42 246.874C294.635 248.454 294.794 249.733 294.869 250.617C294.942 251.074 294.986 251.536 295 252Z" fill="#A8FA48"/>
<path d="M312 251H280V289H312V251Z" fill="#E0E0E0"/>
<path d="M302 251H274V289H302V251Z" fill="#EBEBEB"/>
</svg>
