<svg width="341" height="341" viewBox="0 0 341 341" fill="none" xmlns="http://www.w3.org/2000/svg">
<path d="M306.832 272.479H277.376V272.65H306.832V272.479Z" fill="#EBEBEB"/>
<path d="M271.3 272.479H266.983V272.65H271.3V272.479Z" fill="#EBEBEB"/>
<path d="M252.947 269.601H189.057V269.772H252.947V269.601Z" fill="#EBEBEB"/>
<path d="M173.412 50.2498H41.868V196.873H173.412V50.2498Z" fill="#EBEBEB"/>
<path d="M177.681 50.2498H43.8594V196.873H177.681V50.2498Z" fill="#F5F5F5"/>
<path d="M173.412 196.873H41.868V204.818H173.412V196.873Z" fill="#EBEBEB"/>
<path d="M197.991 196.873H64.1694V204.818H197.991V196.873Z" fill="#F0F0F0"/>
<path d="M171.7 190.885V56.2309L49.8474 56.2309L49.8474 190.885H171.7Z" fill="#FAFAFA"/>
<path d="M54.7987 190.885L89.9354 56.2309H106.522L71.3849 190.885H54.7987Z" fill="white"/>
<path d="M52.6231 133.672C52.5092 133.672 52.3999 133.627 52.3193 133.546C52.2388 133.466 52.1935 133.356 52.1935 133.242V60.1251C52.2066 60.0214 52.2572 59.9259 52.3357 59.8568C52.4141 59.7876 52.5151 59.7495 52.6197 59.7495C52.7243 59.7495 52.8253 59.7876 52.9038 59.8568C52.9823 59.9259 53.0328 60.0214 53.046 60.1251V133.215C53.0497 133.273 53.0415 133.331 53.022 133.386C53.0025 133.441 52.9721 133.491 52.9325 133.534C52.893 133.577 52.8452 133.611 52.792 133.635C52.7388 133.659 52.6814 133.671 52.6231 133.672V133.672Z" fill="#F1F1F1"/>
<path d="M74.945 190.885L110.082 56.2309H116.547L81.4172 190.885H74.945Z" fill="white"/>
<path d="M171.707 190.892V56.2377H170.95V190.892H171.707Z" fill="#EBEBEB"/>
<path d="M179.1 62.6963H47.5558L47.0034 58.5565H178.554L179.1 62.6963Z" fill="#EBEBEB"/>
<path d="M179.1 65.7312H47.5558L47.0034 61.5914H178.554L179.1 65.7312Z" fill="#EBEBEB"/>
<path d="M179.1 69.3662H47.5558L47.0034 65.2265H178.554L179.1 69.3662Z" fill="#EBEBEB"/>
<path d="M179.1 73.4105H47.5558L47.0034 69.2707H178.554L179.1 73.4105Z" fill="#EBEBEB"/>
<path d="M179.1 78.2595H47.5558L47.0034 74.1198H178.554L179.1 78.2595Z" fill="#EBEBEB"/>
<path d="M179.1 83.7155H47.5558L47.0034 79.5758H178.554L179.1 83.7155Z" fill="#EBEBEB"/>
<path d="M52.9709 187.714H67.6749V189.166H66.7405L65.9767 196.873H54.6623L53.8985 189.166H52.9709V187.714Z" fill="#EBEBEB"/>
<path d="M51.8866 174.217C51.6956 173.576 51.5251 172.928 51.3614 172.28C50.3998 173.528 49.4655 173.842 48.7698 173.842H48.5448C47.1808 173.705 45.8168 172.369 45.0052 170.261C44.9865 170.223 44.9768 170.181 44.9768 170.139C44.9768 170.096 44.9865 170.054 45.0052 170.016C45.0233 169.978 45.0499 169.944 45.0831 169.918C45.1162 169.892 45.1549 169.874 45.1962 169.866C46.1855 169.614 47.2168 169.574 48.2228 169.747C49.2288 169.921 50.1867 170.306 51.0341 170.875C50.9045 170.261 50.8022 169.647 50.7135 169.034C50.4888 169.078 50.2605 169.1 50.0315 169.102C47.7809 169.102 46.1237 167.09 46.0487 166.995C46.0199 166.958 45.9999 166.915 45.9905 166.87C45.9811 166.824 45.9823 166.777 45.9943 166.732C46.0062 166.687 46.0284 166.645 46.0591 166.61C46.0899 166.576 46.1283 166.548 46.1714 166.531C46.6965 166.264 47.273 166.114 47.8615 166.09C48.45 166.067 49.0367 166.17 49.5814 166.394C50.1712 166.69 50.6496 167.169 50.9454 167.758C51.3686 166.467 52.139 165.316 53.1723 164.434C54.2056 163.551 55.462 162.969 56.8038 162.752C56.8455 162.742 56.889 162.742 56.9311 162.75C56.9731 162.759 57.0126 162.777 57.0467 162.804C57.0807 162.83 57.1085 162.863 57.1278 162.902C57.1472 162.94 57.1576 162.982 57.1584 163.025C57.2744 165.071 57.213 167.574 55.6785 168.768C55.04 169.238 54.2612 169.478 53.4688 169.45C52.7574 169.432 52.0512 169.322 51.3683 169.122C51.5876 170.598 51.902 172.059 52.3094 173.494C53.8082 171.456 55.9327 169.963 58.3588 169.245C58.4347 169.226 58.5149 169.238 58.5825 169.277C58.65 169.317 58.6994 169.381 58.7202 169.457C59.184 171.216 58.9453 172.648 58.0382 173.589C57.5781 174.005 57.0391 174.324 56.4532 174.526C55.8674 174.729 55.2467 174.812 54.6282 174.769C53.9615 174.761 53.2971 174.69 52.6436 174.558C53.0187 175.765 53.4415 176.945 53.8917 178.07C54.8124 177.259 57.5131 175.192 60.4525 176.058C60.493 176.069 60.5305 176.089 60.5624 176.116C60.5943 176.143 60.6196 176.177 60.6366 176.215C60.6534 176.253 60.662 176.293 60.662 176.334C60.662 176.376 60.6534 176.416 60.6366 176.454C59.8387 178.404 58.9316 179.482 57.7859 179.864C57.4816 179.96 57.164 180.009 56.8447 180.007C55.9791 179.965 55.1356 179.72 54.3827 179.291C55.0238 180.778 55.6853 182.176 56.3264 183.417C57.0084 182.674 58.9044 181.132 62.253 181.848C62.3234 181.863 62.3859 181.903 62.4286 181.961C62.4714 182.019 62.4914 182.091 62.4849 182.162C62.4106 182.787 62.1738 183.382 61.798 183.887C61.4223 184.392 60.9207 184.79 60.3434 185.04C59.9125 185.225 59.4483 185.32 58.9794 185.32C58.3182 185.309 57.6688 185.143 57.0834 184.836C58.5702 187.564 59.7569 189.31 59.8114 189.35C59.843 189.415 59.8502 189.489 59.8317 189.559C59.8132 189.629 59.7702 189.69 59.7105 189.73C59.6509 189.771 59.5786 189.788 59.507 189.78C59.4353 189.772 59.3691 189.738 59.3204 189.685C58.1383 187.895 57.0524 186.045 56.0672 184.14C56.0462 184.113 56.03 184.083 56.0195 184.051C55.8217 183.676 55.6308 183.294 55.433 182.899C55.0957 183.407 54.6418 183.827 54.109 184.123C53.5763 184.42 52.9803 184.585 52.3708 184.604C52.2459 184.611 52.1206 184.611 51.9957 184.604C51.322 184.526 50.6828 184.264 50.1485 183.847C49.6142 183.429 49.2055 182.872 48.9676 182.237C48.9431 182.172 48.9434 182.099 48.9685 182.034C48.9937 181.969 49.0419 181.915 49.104 181.883C49.9703 181.394 50.9405 181.118 51.9344 181.079C52.9283 181.04 53.9172 181.238 54.8192 181.658C54.3963 180.75 53.9667 179.789 53.5575 178.786C53.5346 178.748 53.5184 178.707 53.5097 178.664C53.3938 178.377 53.2779 178.091 53.1687 177.804C52.1867 179.045 51.2046 179.652 50.1884 179.652C48.9472 179.652 47.6991 178.739 46.3624 176.863C46.3164 176.801 46.2971 176.722 46.3086 176.646C46.3201 176.569 46.3615 176.5 46.4238 176.454C48.5243 174.878 51.4092 175.956 52.7186 176.583C52.4526 175.847 52.2003 175.09 51.9684 174.319L51.8866 174.217Z" fill="#77B033"/>
<path d="M67.2929 182.149C66.8246 182.294 66.3375 182.37 65.8471 182.374C65.245 182.381 64.6493 182.25 64.1061 181.99C63.563 181.73 63.087 181.348 62.715 180.875C62.343 180.401 62.0851 179.848 61.9612 179.259C61.8374 178.67 61.8508 178.06 62.0006 177.477C62.0169 177.409 62.0582 177.349 62.1163 177.31C62.1744 177.271 62.2451 177.255 62.3144 177.265C63.4625 177.379 64.5665 177.767 65.5337 178.396C66.5009 179.025 67.303 179.877 67.8726 180.88C68.5546 179.393 69.1753 177.818 69.7345 176.181C69.0194 176.59 68.2179 176.823 67.3953 176.863C67.0705 176.864 66.7479 176.811 66.4404 176.706C64.8173 176.154 63.842 174.169 63.0305 172.103C63.0136 172.064 63.0048 172.022 63.0048 171.98C63.0048 171.938 63.0136 171.896 63.0305 171.857C63.0478 171.82 63.0734 171.787 63.1053 171.761C63.1372 171.735 63.1746 171.717 63.2146 171.707C66.5496 170.78 69.2503 173.965 70.0891 175.117C70.5301 173.744 70.8966 172.349 71.1872 170.936C70.4922 171.068 69.787 171.136 69.0798 171.141C68.3751 171.191 67.6678 171.095 67.0014 170.861C66.3351 170.626 65.7241 170.257 65.206 169.777C64.2103 168.72 63.9716 167.138 64.524 165.201C64.5335 165.163 64.5505 165.127 64.5739 165.096C64.5973 165.065 64.6267 165.039 64.6604 165.019C64.694 165 64.7313 164.987 64.7699 164.982C64.8086 164.977 64.8479 164.979 64.8855 164.989C67.5279 165.825 69.8247 167.501 71.4259 169.763L71.5486 169.006C71.5573 168.942 71.5859 168.883 71.6305 168.836C71.7647 168.355 71.9961 167.906 72.3105 167.518C72.6249 167.13 73.0155 166.81 73.4582 166.578C74.4471 166.108 75.6952 166.176 77.1615 166.776C77.2052 166.794 77.244 166.822 77.2749 166.858C77.3057 166.894 77.3277 166.936 77.339 166.982C77.3503 167.028 77.3506 167.076 77.3399 167.122C77.3292 167.168 77.3078 167.211 77.2774 167.247C77.1888 167.349 75.3746 169.497 72.9263 169.497C72.6652 169.493 72.405 169.466 72.1488 169.416C72.0397 170.098 71.9101 170.821 71.7532 171.516C72.6956 170.894 73.7592 170.48 74.8738 170.3C75.9884 170.12 77.1285 170.179 78.2186 170.473C78.2594 170.484 78.2974 170.504 78.33 170.531C78.3626 170.558 78.3891 170.592 78.4078 170.63C78.4264 170.668 78.4369 170.709 78.4384 170.751C78.4398 170.794 78.4323 170.836 78.4164 170.875C77.4616 173.18 75.9953 174.626 74.4744 174.756H74.2698C73.4991 174.756 72.4625 174.401 71.4054 172.982C70.9817 174.598 70.4763 176.192 69.8914 177.756C71.3236 177.074 74.5426 175.908 76.8409 177.688C76.9007 177.737 76.9396 177.806 76.9498 177.882C76.9599 177.958 76.9405 178.035 76.8955 178.097C75.4156 180.143 74.0379 181.105 72.6944 181.105C71.5759 181.105 70.5052 180.423 69.4412 179.011C68.8274 180.539 68.1727 181.992 67.518 183.335C68.9434 182.449 70.5188 182.585 72.3739 183.758C72.414 183.784 72.4473 183.819 72.471 183.861C72.4947 183.902 72.5082 183.949 72.5102 183.997C72.5113 184.046 72.5007 184.094 72.4794 184.138C72.458 184.182 72.4265 184.22 72.3875 184.249C71.2679 185.008 69.9603 185.442 68.6092 185.504C67.9077 185.516 67.2203 185.306 66.6451 184.904C65.3797 187.36 63.9677 189.738 62.4166 192.024C62.386 192.068 62.3452 192.104 62.2977 192.129C62.2503 192.154 62.1975 192.167 62.1439 192.167C62.0775 192.167 62.0131 192.145 61.9597 192.106C61.9242 192.081 61.894 192.05 61.8706 192.014C61.8473 191.977 61.8314 191.937 61.8238 191.894C61.8162 191.852 61.8171 191.808 61.8263 191.766C61.8356 191.724 61.8531 191.684 61.8779 191.649C63.9255 188.627 65.7359 185.45 67.2929 182.149V182.149Z" fill="#77B033"/>
<path d="M291.5 102.709H260.64V136.598H291.5V102.709Z" fill="#EBEBEB"/>
<path d="M288.295 104.871C288.266 104.88 288.235 104.88 288.206 104.871C288.125 104.823 279.893 99.9266 277.294 99.9266C274.696 99.9266 266.819 104.823 266.744 104.871C266.705 104.894 266.658 104.902 266.614 104.892C266.569 104.882 266.53 104.855 266.505 104.817C266.493 104.798 266.485 104.777 266.481 104.755C266.477 104.733 266.477 104.711 266.482 104.689C266.488 104.667 266.497 104.647 266.51 104.629C266.524 104.611 266.54 104.596 266.56 104.585C266.887 104.38 274.58 99.5856 277.294 99.5856C280.009 99.5856 288.063 104.36 288.404 104.578C288.442 104.603 288.469 104.642 288.479 104.686C288.489 104.731 288.482 104.777 288.459 104.817C288.439 104.84 288.414 104.858 288.385 104.867C288.356 104.877 288.325 104.878 288.295 104.871V104.871Z" fill="#EBEBEB"/>
<path d="M294.842 102.709H262.966V136.598H294.842V102.709Z" fill="#F5F5F5"/>
<path d="M292.176 133.931V105.383H265.639V133.931H292.176Z" fill="white"/>
<path d="M279.62 123.101C279.193 123.103 278.768 123.151 278.351 123.244C278.458 122.879 278.513 122.5 278.515 122.119C278.516 121.195 278.19 120.301 277.594 119.596C277.892 119.691 278.203 119.741 278.515 119.746C279.257 119.753 279.979 119.509 280.565 119.054C281.151 118.599 281.565 117.959 281.741 117.238C281.917 116.517 281.844 115.758 281.534 115.084C281.224 114.41 280.695 113.861 280.033 113.526C279.371 113.191 278.616 113.089 277.889 113.238C277.162 113.387 276.507 113.777 276.03 114.345C275.553 114.913 275.282 115.626 275.262 116.367C275.241 117.109 275.472 117.836 275.917 118.429C275.38 118.233 274.807 118.157 274.238 118.205C273.668 118.253 273.116 118.425 272.62 118.709C272.124 118.992 271.696 119.38 271.365 119.846C271.035 120.312 270.81 120.845 270.706 121.407C270.603 121.969 270.623 122.547 270.765 123.1C270.908 123.653 271.17 124.169 271.532 124.61C271.894 125.052 272.349 125.41 272.863 125.658C273.378 125.906 273.941 126.039 274.512 126.047C273.983 126.946 273.705 127.971 273.707 129.014C273.707 130.183 274.054 131.327 274.704 132.299C275.353 133.271 276.277 134.029 277.357 134.477C278.438 134.924 279.627 135.041 280.774 134.813C281.921 134.585 282.974 134.022 283.801 133.195C284.628 132.368 285.191 131.314 285.419 130.167C285.647 129.021 285.53 127.832 285.083 126.751C284.635 125.671 283.877 124.747 282.905 124.098C281.933 123.448 280.789 123.101 279.62 123.101V123.101Z" fill="#F5F5F5"/>
<path d="M273.905 110.429C273.906 111.073 273.717 111.703 273.36 112.239C273.003 112.775 272.496 113.193 271.901 113.44C271.307 113.687 270.653 113.752 270.021 113.628C269.39 113.503 268.809 113.194 268.354 112.739C267.898 112.284 267.588 111.705 267.462 111.073C267.335 110.442 267.4 109.788 267.646 109.193C267.892 108.598 268.309 108.09 268.844 107.732C269.379 107.374 270.008 107.183 270.652 107.183C271.513 107.185 272.338 107.527 272.948 108.136C273.557 108.744 273.901 109.568 273.905 110.429V110.429Z" fill="#F5F5F5"/>
<path d="M249.701 70.5597H214.823V108.854H249.701V70.5597Z" fill="#EBEBEB"/>
<path d="M245.397 72.1283C245.368 72.1353 245.338 72.1353 245.309 72.1283C245.227 72.0738 236.988 67.177 234.397 67.177C231.805 67.177 223.928 72.0738 223.853 72.1215C223.834 72.1339 223.812 72.1424 223.79 72.1464C223.767 72.1504 223.744 72.1498 223.722 72.1448C223.7 72.1397 223.679 72.1302 223.66 72.1168C223.642 72.1034 223.626 72.0865 223.614 72.0669C223.591 72.0288 223.584 71.9832 223.594 71.9399C223.604 71.8966 223.631 71.8589 223.669 71.8351C223.996 71.6305 231.682 66.836 234.397 66.836C237.111 66.836 245.172 71.61 245.513 71.8351C245.532 71.8462 245.549 71.8612 245.563 71.8792C245.576 71.8971 245.585 71.9175 245.59 71.9392C245.596 71.9609 245.596 71.9835 245.592 72.0054C245.588 72.0274 245.58 72.0483 245.568 72.0669C245.549 72.0928 245.522 72.1125 245.492 72.1234C245.461 72.1343 245.429 72.136 245.397 72.1283V72.1283Z" fill="#EBEBEB"/>
<path d="M253.472 70.5597H217.449V108.854H253.472V70.5597Z" fill="#F5F5F5"/>
<path d="M250.458 105.833V73.5742H220.47V105.833H250.458Z" fill="white"/>
<path d="M224.76 77.1342H224.235C223.636 77.1342 223.15 77.6197 223.15 78.2186V106.713C223.15 107.311 223.636 107.797 224.235 107.797H224.76C225.359 107.797 225.844 107.311 225.844 106.713V78.2186C225.844 77.6197 225.359 77.1342 224.76 77.1342Z" fill="#F5F5F5"/>
<path d="M233.483 92.4656H231.58H231.389V86.4844C231.389 86.1968 231.275 85.921 231.071 85.7176C230.868 85.5143 230.592 85.4 230.305 85.4H228.409C228.121 85.4 227.845 85.5143 227.642 85.7176C227.438 85.921 227.324 86.1968 227.324 86.4844V106.692C227.324 106.98 227.438 107.255 227.642 107.459C227.845 107.662 228.121 107.776 228.409 107.776H230.305C230.536 107.777 230.761 107.703 230.946 107.565C231.128 107.704 231.351 107.778 231.58 107.776H233.483C233.77 107.776 234.046 107.662 234.249 107.459C234.453 107.255 234.567 106.98 234.567 106.692V93.5499C234.567 93.4075 234.539 93.2665 234.485 93.135C234.43 93.0034 234.35 92.8839 234.249 92.7832C234.149 92.6825 234.029 92.6026 233.898 92.5481C233.766 92.4936 233.625 92.4656 233.483 92.4656Z" fill="#F5F5F5"/>
<path d="M243.904 84.3293H236.879C236.28 84.3293 235.795 84.8148 235.795 85.4137V106.706C235.795 107.305 236.28 107.79 236.879 107.79H243.904C244.503 107.79 244.988 107.305 244.988 106.706V85.4137C244.988 84.8148 244.503 84.3293 243.904 84.3293Z" fill="#F5F5F5"/>
<path d="M245.588 81.765C247.423 81.765 248.91 80.278 248.91 78.4436C248.91 76.6093 247.423 75.1223 245.588 75.1223C243.754 75.1223 242.267 76.6093 242.267 78.4436C242.267 80.278 243.754 81.765 245.588 81.765Z" fill="#F5F5F5"/>
<path d="M124.901 187.666C124.901 192.747 130.398 196.873 137.177 196.873C143.957 196.873 149.453 192.747 149.453 187.666H124.901Z" fill="#EBEBEB"/>
<path d="M170.5 291.596C243.53 291.596 302.733 288.139 302.733 283.876C302.733 279.612 243.53 276.155 170.5 276.155C97.4697 276.155 38.267 279.612 38.267 283.876C38.267 288.139 97.4697 291.596 170.5 291.596Z" fill="#F5F5F5"/>
<path d="M233.674 284.633C240.48 284.633 245.997 284.294 245.997 283.876C245.997 283.458 240.48 283.119 233.674 283.119C226.867 283.119 221.35 283.458 221.35 283.876C221.35 284.294 226.867 284.633 233.674 284.633Z" fill="#E6E6E6"/>
<path d="M149.958 265.973H257.694C268.18 265.973 276.681 257.472 276.681 246.986V186.097C276.681 175.611 268.18 167.11 257.694 167.11H149.958C139.472 167.11 130.971 175.611 130.971 186.097V246.986C130.971 257.472 139.472 265.973 149.958 265.973Z" fill="#263238"/>
<path d="M238.905 283.876H228.709L207.99 234.785H223.594L238.905 283.876Z" fill="#263238"/>
<path d="M279.75 211.536H279.068V216.542H279.75V211.536Z" fill="#9C33B0"/>
<path opacity="0.2" d="M279.75 211.536H279.068V216.542H279.75V211.536Z" fill="black"/>
<path d="M279.75 190.196H279.068V208.119H279.75V190.196Z" fill="#9C33B0"/>
<path opacity="0.2" d="M279.75 190.196H279.068V208.119H279.75V190.196Z" fill="black"/>
<path d="M193.102 164.041H183.854V164.723H193.102V164.041Z" fill="#9C33B0"/>
<path opacity="0.2" d="M193.102 164.041H183.854V164.723H193.102V164.041Z" fill="black"/>
<path d="M266.962 234.785L238.884 283.876L218.165 234.785H266.962Z" fill="#9C33B0"/>
<path opacity="0.2" d="M266.969 234.785L238.891 283.876L218.172 234.785H266.969Z" fill="black"/>
<path d="M158.531 265.973H257.694C268.18 265.973 276.681 257.472 276.681 246.986V186.097C276.681 175.611 268.18 167.11 257.694 167.11H158.531C148.045 167.11 139.544 175.611 139.544 186.097V246.986C139.544 257.472 148.045 265.973 158.531 265.973Z" fill="#9C33B0"/>
<path opacity="0.2" d="M158.531 265.973H257.694C268.18 265.973 276.681 257.472 276.681 246.986V186.097C276.681 175.611 268.18 167.11 257.694 167.11H158.531C148.045 167.11 139.544 175.611 139.544 186.097V246.986C139.544 257.472 148.045 265.973 158.531 265.973Z" fill="black"/>
<path opacity="0.7" d="M192.835 265.973H174.694L193.886 167.11H212.034L192.835 265.973Z" fill="#9C33B0"/>
<path opacity="0.7" d="M209.224 265.973H198.905L218.104 167.11H228.415L209.224 265.973Z" fill="#9C33B0"/>
<path d="M252.081 199.008H201.667C200.305 198.959 199.014 198.383 198.068 197.401C197.121 196.42 196.592 195.11 196.592 193.746C196.592 192.382 197.121 191.072 198.068 190.091C199.014 189.109 200.305 188.533 201.667 188.484H252.081C252.788 188.459 253.493 188.576 254.153 188.829C254.814 189.082 255.417 189.466 255.926 189.957C256.435 190.448 256.84 191.036 257.116 191.687C257.393 192.338 257.535 193.039 257.535 193.746C257.535 194.453 257.393 195.153 257.116 195.804C256.84 196.456 256.435 197.044 255.926 197.535C255.417 198.026 254.814 198.41 254.153 198.663C253.493 198.916 252.788 199.033 252.081 199.008Z" fill="white"/>
<path d="M184.392 199.008H161.559C160.196 198.959 158.906 198.383 157.959 197.401C157.012 196.42 156.483 195.11 156.483 193.746C156.483 192.382 157.012 191.072 157.959 190.091C158.906 189.109 160.196 188.533 161.559 188.484H184.392C185.099 188.459 185.804 188.576 186.465 188.829C187.125 189.082 187.728 189.466 188.237 189.957C188.746 190.448 189.151 191.036 189.428 191.687C189.704 192.338 189.847 193.039 189.847 193.746C189.847 194.453 189.704 195.153 189.428 195.804C189.151 196.456 188.746 197.044 188.237 197.535C187.728 198.026 187.125 198.41 186.465 198.663C185.804 198.916 185.099 199.033 184.392 199.008Z" fill="white"/>
<path d="M252.081 221.186H166.913C165.55 221.137 164.259 220.561 163.313 219.58C162.366 218.599 161.837 217.288 161.837 215.925C161.837 214.561 162.366 213.251 163.313 212.269C164.259 211.288 165.55 210.712 166.913 210.663H252.081C252.788 210.638 253.493 210.755 254.153 211.008C254.814 211.261 255.417 211.644 255.926 212.135C256.435 212.626 256.84 213.215 257.116 213.866C257.393 214.517 257.535 215.217 257.535 215.925C257.535 216.632 257.393 217.332 257.116 217.983C256.84 218.634 256.435 219.223 255.926 219.714C255.417 220.205 254.814 220.589 254.153 220.841C253.493 221.094 252.788 221.212 252.081 221.186Z" fill="white"/>
<path d="M252.081 243.358H212.627C211.264 243.309 209.974 242.733 209.027 241.752C208.081 240.77 207.552 239.46 207.552 238.096C207.552 236.733 208.081 235.422 209.027 234.441C209.974 233.46 211.264 232.884 212.627 232.835H252.081C252.788 232.809 253.493 232.927 254.153 233.18C254.814 233.433 255.417 233.816 255.926 234.307C256.435 234.798 256.84 235.387 257.116 236.038C257.393 236.689 257.535 237.389 257.535 238.096C257.535 238.804 257.393 239.504 257.116 240.155C256.84 240.806 256.435 241.395 255.926 241.886C255.417 242.377 254.814 242.76 254.153 243.013C253.493 243.266 252.788 243.383 252.081 243.358Z" fill="white"/>
<path opacity="0.1" d="M164.171 167.09C164.171 167.09 156.628 207.874 156.628 225.101C156.628 242.772 162.862 265.953 162.862 265.953H142.94L141.624 243.576C140.384 222.65 142.455 201.658 147.762 181.378L151.499 167.056L164.171 167.09Z" fill="black"/>
<path d="M153.784 283.876C153.784 284.68 142.599 285.335 128.803 285.335C115.006 285.335 103.821 284.653 103.821 283.876C103.821 283.098 115.006 282.416 128.803 282.416C142.599 282.416 153.784 283.071 153.784 283.876Z" fill="url(#paint0_linear)"/>
<path d="M145.218 114.392C143.104 114.726 141.126 114.897 139.08 115.074C137.034 115.251 134.988 115.244 132.942 115.231C128.776 115.23 124.623 114.773 120.557 113.867C119.265 113.515 118.057 112.907 117.004 112.08C116.118 111.399 115.284 110.653 114.508 109.85C113.075 108.34 111.753 106.728 110.552 105.028C108.2 101.738 106.105 98.2726 104.285 94.6616L106.842 93.1271C107.988 94.6752 109.168 96.2507 110.382 97.7579C111.596 99.2651 112.803 100.779 114.085 102.205C115.313 103.612 116.625 104.945 118.013 106.194C118.655 106.77 119.339 107.297 120.059 107.77C120.583 108.14 121.17 108.413 121.792 108.574C123.611 108.88 125.446 109.087 127.289 109.195C129.164 109.277 131.053 109.325 132.956 109.297C134.859 109.27 136.768 109.168 138.671 109.031C140.574 108.895 142.518 108.697 144.311 108.479L145.218 114.392Z" fill="#FF8B7B"/>
<path d="M151.356 108.854C146.166 105.71 139.128 107.995 139.128 107.995L142.688 120.271C142.688 120.271 148.308 118.688 150.511 116.295C152.816 113.819 154.487 110.743 151.356 108.854Z" fill="#263238"/>
<path d="M107.279 94.4024L108.533 90.174L102.593 90.9106C102.98 92.5892 103.716 94.1673 104.755 95.5414L107.279 94.4024Z" fill="#FF8B7B"/>
<path d="M108.104 85.2432L103.159 86.1298L102.593 90.9106L108.533 90.1741L108.104 85.2432Z" fill="#FF8B7B"/>
<path d="M175.588 70.0755C180.839 70.1846 179.366 74.5699 179.366 74.5699C179.366 74.5699 185.088 70.9553 186.909 75.1769C188.73 79.3984 184.624 80.7352 182.224 81.3694C183.731 82.2356 183.813 85.0454 181.698 85.9661C179.584 86.8868 176.045 84.3566 173.371 84.3907L170.739 81.2739C174.312 78.9551 170.329 69.9664 175.588 70.0755Z" fill="#263238"/>
<path d="M174.769 86.5594C177.061 86.9618 178.725 86.6754 178.275 84.1452C177.988 82.7404 177.352 81.4308 176.424 80.3376C175.497 79.2444 174.308 78.4029 172.969 77.8912C170.077 76.8273 169.429 81.6013 169.429 81.6013L174.769 86.5594Z" fill="#9C33B0"/>
<path d="M107.756 263.3L101.904 262.625L103.071 249.039L108.922 249.707L107.756 263.3Z" fill="#FF8B7B"/>
<path d="M146.514 279.224L140.635 278.958L139.367 265.25L145.252 265.523L146.514 279.224Z" fill="#FF8B7B"/>
<path d="M140.41 277.178H147.026C147.139 277.177 147.25 277.217 147.336 277.291C147.423 277.365 147.48 277.468 147.496 277.581L148.246 282.819C148.261 282.95 148.247 283.084 148.206 283.21C148.166 283.336 148.099 283.453 148.01 283.551C147.921 283.65 147.812 283.728 147.691 283.782C147.569 283.836 147.438 283.863 147.305 283.862C145 283.821 143.895 283.692 140.976 283.692C139.189 283.692 136.571 283.876 134.102 283.876C131.633 283.876 131.503 281.434 132.526 281.209C137.143 280.22 137.873 278.849 139.428 277.547C139.701 277.311 140.049 277.18 140.41 277.178Z" fill="#263238"/>
<path d="M101.707 260.483L108.274 259.706C108.388 259.69 108.504 259.717 108.599 259.781C108.695 259.845 108.764 259.942 108.793 260.053L110.157 265.162C110.185 265.291 110.186 265.425 110.16 265.555C110.133 265.685 110.079 265.808 110.002 265.916C109.925 266.024 109.826 266.115 109.712 266.182C109.597 266.25 109.47 266.292 109.338 266.307C107.047 266.539 105.928 266.539 103.037 266.88C101.263 267.092 97.5806 267.712 95.1527 267.999C92.7248 268.285 92.2815 265.878 93.2772 265.537C97.7443 264.009 99.3811 262.44 100.779 260.96C101.024 260.699 101.352 260.53 101.707 260.483Z" fill="#263238"/>
<path d="M103.077 249.039L102.471 256.043L108.322 256.718L108.929 249.714L103.077 249.039Z" fill="#EA7063"/>
<path d="M145.252 265.523L139.367 265.257L140.021 272.323L145.907 272.589L145.252 265.523Z" fill="#EA7063"/>
<path d="M145.655 107.292C145.655 107.292 142.688 107.476 138.671 142.245L161.675 148.765C163.946 139.292 165.569 133.515 175.492 115.572C172.461 113.982 169.317 112.614 166.087 111.48C162.679 110.247 159.188 109.257 155.639 108.52C151.036 107.695 145.655 107.292 145.655 107.292Z" fill="#263238"/>
<path d="M168.386 99.4629C166.776 102.634 164.369 108.609 166.087 111.514C166.087 111.514 164.198 114.665 157.958 112.878C151.09 110.934 155.639 108.54 155.639 108.54C159.643 108.711 160.331 105.901 160.413 103.084L168.386 99.4629Z" fill="#FF8B7B"/>
<path d="M149.208 107.633C151.09 107.838 153.457 108.145 155.639 108.554C159.188 109.29 162.68 110.279 166.087 111.514C168.045 112.196 169.941 112.946 171.503 113.648C171.182 114.787 168.925 120.714 155.496 117.304C143.002 114.085 147.783 108.793 149.208 107.633Z" fill="#FF8B7B"/>
<path d="M165.14 100.936L160.427 103.098C160.415 103.753 160.347 104.405 160.222 105.048C161.709 105.246 164.232 104.578 164.812 103.118C165.048 102.416 165.159 101.677 165.14 100.936Z" fill="#EA7063"/>
<path d="M171.38 91.995C169.968 97.6624 169.497 100.097 166.06 102.505C160.891 106.133 154.227 103.187 153.914 97.1918C153.627 91.8108 155.96 83.4427 162.009 82.1878C163.339 81.9057 164.718 81.9681 166.017 82.369C167.315 82.77 168.49 83.4963 169.429 84.479C170.367 85.4616 171.04 86.6679 171.381 87.9834C171.723 89.2988 171.722 90.6797 171.38 91.995Z" fill="#FF8B7B"/>
<path d="M169.538 97.4646C167.827 96.578 166.456 94.0546 168.925 91.7085C168.925 91.7085 165.515 89.7649 167.226 87.0846C168.938 84.4043 175.779 82.1742 176.849 85.7751C177.92 89.3761 174.592 90.856 174.592 90.856C174.592 90.856 177.32 95.0299 172.416 96.4075C172.416 96.4075 171.994 102.43 168.474 99.7493L169.538 97.4646Z" fill="#263238"/>
<path d="M171.318 97.3351C170.994 98.4137 170.259 99.3222 169.272 99.8653C167.949 100.547 166.967 99.4629 167.063 98.0512C167.151 96.7758 167.949 94.873 169.402 94.7571C169.72 94.7373 170.039 94.7972 170.328 94.9316C170.618 95.0659 170.869 95.2704 171.059 95.5265C171.25 95.7825 171.373 96.0821 171.418 96.3979C171.463 96.7137 171.429 97.0358 171.318 97.3351Z" fill="#FF8B7B"/>
<path d="M138.671 142.245C138.671 142.245 111.95 173.76 107.429 191.137C102.723 209.21 100.609 253.881 100.609 253.881L109.802 255.068C109.802 255.068 115.94 214.196 123.667 197.541C131.892 179.809 155.551 147.032 155.551 147.032L138.671 142.245Z" fill="#9C33B0"/>
<path d="M111.03 255.218L99.3333 253.69L99.1287 250.485L111.998 253.097L111.03 255.218Z" fill="#9C33B0"/>
<path opacity="0.3" d="M111.03 255.218L99.3333 253.69L99.1287 250.485L111.998 253.097L111.03 255.218Z" fill="black"/>
<path opacity="0.2" d="M138.214 156.574C136.028 164.316 134.383 172.2 133.29 180.171C135.732 176.215 138.303 172.212 140.792 168.42C141.699 166.415 142.627 164.43 143.52 162.493C143.52 162.493 143.52 162.452 143.52 162.425L138.214 156.574Z" fill="black"/>
<path d="M144.748 143.963C144.748 143.963 137.014 183.772 134.218 206.646C131.953 225.128 139.08 269.956 139.08 269.956L146.746 270.427C146.746 270.427 145.13 230.393 148.69 212.491C157.706 167.199 166.135 161.123 161.648 148.765L144.748 143.963Z" fill="#9C33B0"/>
<path d="M147.694 270.481L137.771 269.874L137.307 267.051L148.055 268.169L147.694 270.481Z" fill="#9C33B0"/>
<path opacity="0.3" d="M147.694 270.481L137.771 269.874L137.307 267.051L148.055 268.169L147.694 270.481Z" fill="black"/>
<path d="M162.405 147.51L162.855 149.863C162.889 150.047 162.657 150.156 162.391 150.081L138.269 143.261C138.057 143.206 137.914 143.056 137.941 142.92L138.316 140.806C138.316 140.656 138.555 140.587 138.78 140.649L162.077 147.251C162.148 147.265 162.215 147.296 162.272 147.341C162.329 147.386 162.374 147.444 162.405 147.51V147.51Z" fill="#9C33B0"/>
<path opacity="0.4" d="M162.405 147.51L162.855 149.863C162.889 150.047 162.657 150.156 162.391 150.081L138.269 143.261C138.057 143.206 137.914 143.056 137.941 142.92L138.316 140.806C138.316 140.656 138.555 140.587 138.78 140.649L162.077 147.251C162.148 147.265 162.215 147.296 162.272 147.341C162.329 147.386 162.374 147.444 162.405 147.51Z" fill="black"/>
<path d="M158.538 149.228L159.158 149.406C159.281 149.44 159.397 149.406 159.411 149.324L159.874 146.596C159.874 146.514 159.799 146.419 159.677 146.384L159.049 146.207C158.926 146.173 158.817 146.207 158.804 146.289L158.333 149.017C158.32 149.099 158.415 149.194 158.538 149.228Z" fill="#9C33B0"/>
<path d="M139.953 143.963L140.581 144.141C140.703 144.175 140.819 144.141 140.833 144.059L141.297 141.331C141.297 141.256 141.222 141.16 141.092 141.126L140.472 140.949C140.349 140.908 140.233 140.949 140.219 141.031L139.755 143.759C139.742 143.834 139.81 143.902 139.953 143.963Z" fill="#9C33B0"/>
<path d="M149.249 146.63L149.87 146.807C149.992 146.807 150.108 146.807 150.122 146.725L150.586 143.997C150.586 143.916 150.511 143.82 150.388 143.786L149.76 143.609C149.638 143.568 149.522 143.609 149.508 143.691L149.044 146.419C149.031 146.466 149.119 146.562 149.249 146.63Z" fill="#9C33B0"/>
<path d="M162.384 92.0018C162.296 92.4656 161.982 92.7998 161.702 92.7452C161.423 92.6906 161.218 92.261 161.307 91.7972C161.395 91.3335 161.709 90.9924 161.989 91.0538C162.268 91.1152 162.466 91.5312 162.384 92.0018Z" fill="#263238"/>
<path d="M157.106 91.0266C157.017 91.4971 156.703 91.8313 156.424 91.7699C156.144 91.7086 155.939 91.2925 156.028 90.8288C156.117 90.365 156.43 90.024 156.71 90.0786C156.99 90.1331 157.187 90.5628 157.106 91.0266Z" fill="#263238"/>
<path d="M156.86 90.1331L155.803 89.6012C155.803 89.6012 156.178 90.5832 156.86 90.1331Z" fill="#263238"/>
<path d="M158.354 92.07C157.74 93.0576 156.994 93.957 156.137 94.7434C156.345 94.9566 156.596 95.122 156.874 95.228C157.152 95.334 157.45 95.3781 157.747 95.3572L158.354 92.07Z" fill="#FF5652"/>
<path d="M159.874 97.601C159.597 97.5992 159.321 97.5718 159.049 97.5192C159.014 97.5126 158.983 97.4924 158.963 97.4631C158.942 97.4337 158.934 97.3976 158.94 97.3623C158.947 97.3254 158.968 97.2926 158.998 97.2709C159.029 97.2493 159.067 97.2404 159.104 97.2464C159.682 97.3652 160.281 97.3463 160.851 97.1911C161.42 97.0359 161.946 96.7488 162.384 96.353C162.411 96.3307 162.446 96.3191 162.481 96.3205C162.516 96.3219 162.549 96.3362 162.575 96.3607C162.6 96.3851 162.615 96.418 162.618 96.453C162.621 96.4881 162.61 96.5229 162.589 96.5508C161.853 97.2367 160.881 97.6128 159.874 97.601Z" fill="#263238"/>
<path d="M164.362 90.5901C164.311 90.5904 164.261 90.5766 164.218 90.5501C164.174 90.5235 164.139 90.4854 164.117 90.44C163.968 90.1229 163.746 89.8452 163.47 89.6296C163.194 89.4139 162.871 89.2663 162.527 89.1988C162.488 89.1988 162.449 89.1905 162.413 89.1745C162.377 89.1584 162.345 89.135 162.319 89.1057C162.293 89.0764 162.273 89.0419 162.261 89.0044C162.249 88.9669 162.245 88.9274 162.25 88.8883C162.254 88.8492 162.266 88.8115 162.286 88.7776C162.306 88.7437 162.333 88.7143 162.365 88.6915C162.397 88.6687 162.434 88.6529 162.472 88.6451C162.511 88.6373 162.55 88.6377 162.589 88.6464C163.029 88.7195 163.445 88.8979 163.801 89.1662C164.157 89.4346 164.443 89.785 164.635 90.1877C164.668 90.2537 164.674 90.3303 164.651 90.4006C164.628 90.4709 164.578 90.5292 164.512 90.5628C164.465 90.585 164.414 90.5944 164.362 90.5901Z" fill="#263238"/>
<path d="M155.203 88.1621C155.167 88.162 155.132 88.1547 155.099 88.1406C155.066 88.1266 155.036 88.1061 155.012 88.0803C154.985 88.0548 154.964 88.0241 154.949 87.9901C154.934 87.9561 154.927 87.9195 154.927 87.8825C154.927 87.8455 154.934 87.8089 154.949 87.7749C154.964 87.7409 154.985 87.7102 155.012 87.6847C155.313 87.3608 155.688 87.1133 156.104 86.9627C156.52 86.8121 156.966 86.7627 157.406 86.8186C157.477 86.835 157.539 86.878 157.58 86.9389C157.62 86.9998 157.636 87.0738 157.624 87.146C157.617 87.1821 157.604 87.2166 157.583 87.2473C157.563 87.2781 157.537 87.3044 157.507 87.3248C157.476 87.3452 157.442 87.3592 157.406 87.366C157.369 87.3727 157.332 87.3721 157.296 87.3642C156.951 87.3222 156.601 87.3621 156.274 87.4806C155.947 87.5991 155.652 87.7928 155.414 88.0462C155.39 88.0801 155.358 88.1081 155.322 88.1281C155.285 88.1482 155.244 88.1598 155.203 88.1621Z" fill="#263238"/>
<path d="M176.208 122.03C176.672 124.117 176.965 126.081 177.238 128.114C177.511 130.146 177.654 132.206 177.77 134.211C178.011 138.37 177.799 142.544 177.136 146.657C176.865 147.969 176.331 149.212 175.567 150.313C174.95 151.237 174.266 152.114 173.521 152.939C172.102 154.467 170.578 155.893 168.959 157.208C165.813 159.756 162.475 162.056 158.974 164.089L157.29 161.634C158.763 160.393 160.263 159.117 161.695 157.822C163.128 156.526 164.567 155.216 165.903 153.852C167.237 152.541 168.49 151.149 169.654 149.685C170.188 149.013 170.672 148.302 171.1 147.558C171.434 147.011 171.665 146.407 171.782 145.778C171.979 143.943 172.075 142.099 172.069 140.253C172.069 138.371 171.966 136.482 171.823 134.586C171.68 132.69 171.462 130.794 171.209 128.898C170.957 127.002 170.643 125.079 170.316 123.306L176.208 122.03Z" fill="#FF8B7B"/>
<path d="M175.492 115.572C177.593 116.936 178.118 125.645 178.118 125.645L167.363 129.505C167.363 129.505 165.999 121.955 167.792 119.275C169.682 116.431 173.085 114.024 175.492 115.572Z" fill="#263238"/>
<path d="M138.391 278.208C137.994 278.243 137.597 278.135 137.273 277.901C137.175 277.809 137.102 277.692 137.061 277.563C137.02 277.434 137.014 277.297 137.041 277.165C137.048 277.08 137.078 276.998 137.127 276.929C137.176 276.859 137.243 276.804 137.321 276.769C138.003 276.456 139.79 277.615 139.994 277.745C140.017 277.76 140.034 277.782 140.045 277.808C140.056 277.833 140.059 277.861 140.056 277.888C140.049 277.914 140.035 277.938 140.016 277.957C139.997 277.977 139.973 277.99 139.946 277.997C139.438 278.126 138.916 278.197 138.391 278.208ZM137.614 276.994C137.555 276.982 137.495 276.982 137.437 276.994C137.402 277.009 137.372 277.034 137.352 277.065C137.331 277.097 137.32 277.134 137.321 277.172C137.299 277.259 137.3 277.351 137.324 277.438C137.347 277.526 137.393 277.605 137.457 277.67C137.757 277.942 138.528 277.976 139.558 277.772C138.969 277.384 138.308 277.119 137.614 276.994Z" fill="#9C33B0"/>
<path d="M139.919 278.004C139.897 278.01 139.873 278.01 139.851 278.004C139.285 277.683 138.214 276.415 138.351 275.753C138.37 275.643 138.428 275.543 138.514 275.472C138.6 275.401 138.709 275.363 138.821 275.364C138.926 275.35 139.034 275.359 139.135 275.391C139.236 275.423 139.329 275.477 139.408 275.548C140.049 276.115 140.09 277.813 140.09 277.881C140.09 277.905 140.084 277.93 140.072 277.951C140.06 277.973 140.042 277.991 140.021 278.004C140.005 278.011 139.988 278.014 139.97 278.014C139.953 278.014 139.935 278.011 139.919 278.004V278.004ZM138.917 275.617H138.848C138.671 275.617 138.637 275.712 138.623 275.78C138.541 276.183 139.21 277.144 139.769 277.588C139.783 276.928 139.593 276.28 139.224 275.733C139.139 275.657 139.03 275.615 138.917 275.617V275.617Z" fill="#9C33B0"/>
<path d="M99.1151 261.799C98.7859 261.82 98.4581 261.742 98.1739 261.574C98.0713 261.502 97.9879 261.406 97.9308 261.294C97.8738 261.183 97.8448 261.059 97.8466 260.933C97.8414 260.855 97.8563 260.778 97.8897 260.707C97.9231 260.637 97.974 260.576 98.0375 260.531C98.7195 260.053 101.175 260.967 101.448 261.076C101.475 261.087 101.498 261.105 101.514 261.13C101.53 261.154 101.538 261.184 101.536 261.213C101.536 261.242 101.527 261.27 101.51 261.293C101.492 261.316 101.468 261.334 101.441 261.342C100.691 261.603 99.908 261.757 99.1151 261.799V261.799ZM98.6241 260.674C98.4753 260.662 98.3264 260.693 98.1944 260.763C98.1697 260.78 98.1502 260.804 98.1382 260.831C98.1261 260.859 98.122 260.89 98.1262 260.92C98.1231 261.003 98.1408 261.086 98.1777 261.161C98.2146 261.236 98.2696 261.301 98.3376 261.349C98.7264 261.622 99.7016 261.567 100.963 261.199C100.212 260.916 99.4245 260.739 98.6241 260.674V260.674Z" fill="#9C33B0"/>
<path d="M101.407 261.349H101.366C100.629 261.117 99.1015 260.019 99.1356 259.344C99.1356 259.18 99.2242 258.976 99.6062 258.887C99.7424 258.858 99.8833 258.856 100.02 258.881C100.157 258.907 100.288 258.96 100.404 259.037C101.209 259.562 101.529 261.117 101.543 261.186C101.547 261.209 101.546 261.233 101.539 261.256C101.532 261.278 101.519 261.299 101.502 261.315C101.476 261.338 101.442 261.351 101.407 261.349V261.349ZM99.838 259.133C99.7814 259.126 99.7242 259.126 99.6675 259.133C99.4152 259.187 99.4152 259.29 99.4084 259.324C99.4084 259.733 100.445 260.613 101.209 260.961C101.074 260.302 100.738 259.701 100.247 259.242C100.121 259.177 99.9794 259.149 99.838 259.16V259.133Z" fill="#9C33B0"/>
<path opacity="0.6" d="M126.525 88.9873C118.588 87.1409 110.302 87.461 102.531 89.9142C94.7613 92.3675 87.7931 96.8637 82.3558 102.932C76.9185 109.001 73.212 116.42 71.624 124.412C70.0359 132.404 70.6247 140.676 73.3287 148.362L60.0774 162.466L80.1214 160.911C84.5519 166.712 90.3136 171.362 96.9197 174.467C103.526 177.572 110.782 179.041 118.076 178.751C125.369 178.461 132.486 176.42 138.825 172.799C145.163 169.179 150.537 164.087 154.493 157.952C158.448 151.817 160.869 144.821 161.551 137.553C162.233 130.286 161.156 122.961 158.41 116.197C155.665 109.434 151.332 103.431 145.777 98.6946C140.223 93.9586 133.61 90.6291 126.497 88.9873H126.525Z" fill="#9C33B0"/>
<path opacity="0.1" d="M126.525 88.9873C118.588 87.1409 110.302 87.461 102.531 89.9142C94.7613 92.3675 87.7931 96.8637 82.3558 102.932C76.9185 109.001 73.212 116.42 71.624 124.412C70.0359 132.404 70.6247 140.676 73.3287 148.362L60.0774 162.466L80.1214 160.911C84.5519 166.712 90.3136 171.362 96.9197 174.467C103.526 177.572 110.782 179.041 118.076 178.751C125.369 178.461 132.486 176.42 138.825 172.799C145.163 169.179 150.537 164.087 154.493 157.952C158.448 151.817 160.869 144.821 161.551 137.553C162.233 130.286 161.156 122.961 158.41 116.197C155.665 109.434 151.332 103.431 145.777 98.6946C140.223 93.9586 133.61 90.6291 126.497 88.9873H126.525Z" fill="black"/>
<path d="M132.049 125.556C132.155 125.309 132.177 125.034 132.111 124.774C132.044 124.513 131.893 124.282 131.681 124.117C129.327 122.402 126.642 121.197 123.797 120.578C118.923 119.454 113.803 120.311 109.56 122.959C105.318 125.607 102.299 129.83 101.168 134.702C99.5993 141.474 103.316 146.071 107.797 147.107C109.649 147.575 111.584 147.599 113.447 147.178C115.309 146.757 117.047 145.904 118.518 144.686C118.556 146.14 119.089 147.537 120.029 148.645C120.969 149.754 122.26 150.509 123.688 150.783C130.692 152.407 139.251 147.708 142.054 135.595C145.075 122.555 138.01 111.323 124.881 108.315C109.113 104.667 94.3274 114.399 90.4946 130.958C87.3028 144.761 94.7298 157.031 108.152 160.14C113.478 161.375 117.85 161.395 122.324 160.215C122.607 160.14 122.853 159.964 123.016 159.721C123.179 159.477 123.248 159.183 123.21 158.892L122.774 155.482C122.75 155.31 122.689 155.145 122.596 154.998C122.504 154.851 122.38 154.725 122.235 154.63C122.09 154.533 121.926 154.469 121.754 154.443C121.582 154.417 121.406 154.429 121.239 154.48C117.659 155.388 113.908 155.388 110.327 154.48C99.8789 152.059 94.5661 143.036 97.1168 132.015C100.186 118.736 111.077 111.105 123.033 113.867C133.14 116.206 137.921 124.097 135.513 134.552C134.456 139.114 132.281 142.688 129.539 144.366C128.532 145.066 127.289 145.338 126.081 145.123C125.9 145.093 125.729 145.02 125.583 144.91C125.437 144.799 125.32 144.655 125.243 144.489C124.949 143.888 124.738 142.258 126.607 138.146L132.049 125.556ZM121.492 126.572C122.254 126.747 122.999 126.993 123.715 127.309L120.741 134.129C119.064 138.071 114.433 142.04 110.989 141.242C107.845 140.519 108.008 137.689 108.383 136.073C109.87 129.621 115.879 125.277 121.492 126.572Z" fill="white"/>
<path d="M158.565 161.116L153.395 158.183L154.493 164.069C154.493 164.069 158.081 165.255 159.854 163.564L158.565 161.116Z" fill="#FF8B7B"/>
<path d="M148.499 158.913L149.685 163.789L154.493 164.069L153.395 158.183L148.499 158.913Z" fill="#FF8B7B"/>
<path d="M162.118 91.1016L161.054 90.5696C161.054 90.5696 161.47 91.5517 162.118 91.1016Z" fill="#263238"/>
<path d="M169.429 88.4077C166.51 88.2235 164.369 86.9414 164.082 85.2568C164.082 85.2568 157.385 88.0394 154.678 83.8928C154.678 83.8928 151.622 84.3975 150.865 82.2697C150.108 80.1418 153.286 79.5417 154.787 80.4965C154.787 80.4965 150.135 76.4045 154.909 75.2655C159.683 74.1266 160.706 77.9935 160.706 77.9935C160.706 77.9935 162.589 72.3466 166.844 74.8563C171.1 77.3661 168.454 79.794 168.454 79.794C168.454 79.794 178.561 80.5783 174.797 84.568C171.032 88.5577 169.429 88.4077 169.429 88.4077Z" fill="#263238"/>
<path d="M165.774 108.008C166.347 108.063 166.094 110.054 165.835 110.191C165.242 110.511 158.094 109.045 158.333 107.94C158.58 107.409 158.922 106.929 159.343 106.522C159.656 106.29 160.747 107.592 165.774 108.008Z" fill="#263238"/>
<path d="M203.1 123.626C200.207 123.617 197.419 124.707 195.299 126.676C193.18 128.644 191.887 131.344 191.683 134.229C191.478 137.115 192.377 139.97 194.198 142.218C196.019 144.466 198.625 145.938 201.49 146.337C201.547 149.218 200.537 152.019 198.653 154.2C198.653 154.2 214.516 150.251 214.516 135.043C214.516 132.015 213.313 129.111 211.172 126.97C209.031 124.829 206.127 123.626 203.1 123.626Z" fill="#9C33B0"/>
<path d="M228.791 123.626C225.898 123.617 223.11 124.707 220.99 126.675C218.871 128.644 217.578 131.344 217.374 134.229C217.169 137.115 218.068 139.97 219.889 142.218C221.71 144.465 224.316 145.938 227.181 146.337C227.248 149.214 226.249 152.014 224.378 154.2C224.378 154.2 240.241 150.251 240.241 135.043C240.242 133.54 239.946 132.053 239.371 130.665C238.795 129.277 237.951 128.017 236.887 126.956C235.824 125.895 234.561 125.055 233.171 124.484C231.782 123.912 230.293 123.621 228.791 123.626V123.626Z" fill="#9C33B0"/>
<path d="M282.893 254C282.893 254 265.014 233.233 258.294 212.466C251.574 191.699 254.75 194.083 254.75 194.083C254.75 194.083 263.863 214.254 270.777 224.006C277.69 233.757 290 248.04 290 248.04L282.893 254Z" fill="#77B033"/>
<path d="M287.026 197.704C286.937 197.443 286.748 197.228 286.5 197.107C286.252 196.985 285.967 196.967 285.705 197.055C285.444 197.144 285.229 197.333 285.107 197.58C284.985 197.827 284.967 198.113 285.055 198.373C286.159 205.685 288.552 222.84 288.46 233.961C288.336 248.378 288.46 254 288.46 254H296C296 254 294.659 224.138 292.905 215.014C291.806 208.988 289.825 203.155 287.026 197.704V197.704Z" fill="#77B033"/>
<path d="M291 251.368C294.023 244.172 296.022 236.549 296.932 228.744C297.525 223.394 296.458 216.158 294.886 206.495C294.274 202.961 293.966 199.376 293.966 195.784C293.972 195.385 294.104 194.999 294.341 194.686C294.578 194.373 294.907 194.151 295.276 194.054C295.646 193.957 296.036 193.991 296.385 194.15C296.735 194.309 297.024 194.585 297.209 194.934C298.958 198.326 300.312 201.925 301.243 205.655C302.993 215.193 304.98 219.963 303.458 229.014C301.935 238.065 296.349 252 296.349 252L291 251.368Z" fill="#77B033"/>
<path d="M298 251.741C298 251.741 317.624 209.331 318.988 203.005C320.352 196.679 324.973 182.214 325.513 183.033C326.052 183.852 326.877 191.509 323.345 200.261C319.813 209.014 304.708 253 304.708 253H298" fill="#77B033"/>
<path d="M289 250C288.804 249.884 288.615 249.756 288.436 249.615C288.081 249.344 287.539 248.969 286.881 248.427C284.997 246.935 283.192 245.346 281.474 243.667C275.801 238.082 270.888 231.778 266.86 224.917C262.85 218.075 259.515 210.86 256.902 203.375C255.858 200.51 255.148 198.167 254.678 196.531C254.428 195.719 254.261 195.083 254.136 194.656C254.077 194.441 254.032 194.221 254 194C254.106 194.201 254.187 194.414 254.24 194.635L254.856 196.5C255.378 198.104 256.161 200.438 257.205 203.281C259.9 210.712 263.265 217.884 267.257 224.708C271.266 231.538 276.12 237.837 281.704 243.458C283.854 245.542 285.701 247.219 287.006 248.302C287.643 248.865 288.175 249.26 288.509 249.552C288.684 249.689 288.848 249.838 289 250V250Z" fill="#A8FA48"/>
<path d="M290.962 229C290.866 228.6 290.808 228.191 290.791 227.78C290.69 226.913 290.578 225.764 290.427 224.433C290.124 221.6 289.638 217.709 288.951 213.424C288.264 209.14 287.486 205.299 286.93 202.516C286.637 201.176 286.394 200.077 286.212 199.22C286.105 198.82 286.034 198.412 286 198C286.149 198.385 286.273 198.779 286.374 199.179C286.586 199.946 286.879 201.065 287.213 202.446C287.88 205.218 288.698 209.069 289.396 213.364C290.093 217.659 290.518 221.57 290.75 224.403C290.871 225.824 290.942 226.974 290.983 227.77C291.011 228.18 291.004 228.591 290.962 229V229Z" fill="#E0E0E0"/>
<path d="M295.771 195C295.853 195.168 295.92 195.346 295.969 195.53L296.49 197.101C296.724 197.784 296.985 198.62 297.236 199.62C297.488 200.619 297.83 201.731 298.081 203.006L298.504 204.984C298.648 205.678 298.756 206.412 298.891 207.167C299.169 208.666 299.349 210.288 299.556 212.001C299.929 215.724 300.068 219.473 299.969 223.219C299.827 226.956 299.454 230.678 298.855 234.356C298.531 236.039 298.252 237.65 297.875 239.119C297.695 239.863 297.551 240.577 297.362 241.26C297.173 241.944 296.985 242.586 296.805 243.208C296.481 244.453 296.077 245.544 295.753 246.513C295.429 247.482 295.124 248.297 294.854 248.96C294.584 249.623 294.396 250.103 294.234 250.49C294.168 250.667 294.09 250.838 294 251C294.037 250.809 294.094 250.624 294.171 250.449L294.728 248.879C294.98 248.206 295.277 247.39 295.573 246.411C295.87 245.432 296.256 244.371 296.571 243.096C296.733 242.474 296.913 241.821 297.093 241.148C297.272 240.475 297.416 239.751 297.587 239.017C297.956 237.548 298.216 235.957 298.486 234.264C299.711 226.947 299.96 219.463 299.223 212.062C299.025 210.359 298.864 208.737 298.594 207.248C298.468 206.494 298.378 205.77 298.234 205.076C298.09 204.383 297.965 203.73 297.83 203.098C297.596 201.823 297.281 200.701 297.048 199.702C296.814 198.702 296.571 197.866 296.364 197.172L295.915 195.581C295.842 195.397 295.793 195.201 295.771 195V195Z" fill="#A8FA48"/>
<path d="M325 184C325 184 325 184.061 325 184.194C325 184.326 325 184.519 324.909 184.733C324.828 185.222 324.716 185.935 324.523 186.842C324.148 188.655 323.509 191.263 322.495 194.441C321.48 197.619 320.192 201.326 318.609 205.411C317.027 209.496 315.191 213.947 313.456 218.653C311.722 223.359 310.332 228.004 309.064 232.19C307.796 236.376 306.599 240.145 305.433 243.252C304.551 245.714 303.535 248.125 302.39 250.474C301.994 251.309 301.629 251.93 301.375 252.358L301.101 252.837C301.072 252.894 301.038 252.948 301 253C301 253 301 252.939 301.061 252.817C301.122 252.694 301.203 252.521 301.304 252.318C301.507 251.88 301.842 251.299 302.227 250.403C303.008 248.732 304.074 246.267 305.179 243.15C306.285 240.033 307.472 236.275 308.709 232.078C309.947 227.881 311.316 223.247 313.081 218.51C314.846 213.774 316.672 209.343 318.265 205.268C319.857 201.194 321.227 197.496 322.241 194.349C323.255 191.202 323.925 188.604 324.341 186.801C324.564 185.905 324.696 185.192 324.807 184.764C324.858 184.55 324.899 184.367 324.939 184.224C324.98 184.081 325 184 325 184Z" fill="#A8FA48"/>
<path d="M263.875 174.467C263.602 174.208 263.251 174.047 262.877 174.009C262.503 173.97 262.126 174.057 261.807 174.255C261.487 174.452 261.241 174.75 261.109 175.102C260.977 175.453 260.964 175.839 261.075 176.198C261.75 178.381 262.58 180.514 263.557 182.579C266.276 188.346 274.267 209.047 278.001 220.417C281.736 231.787 287.008 253 287.008 253L295 251.699C295 251.699 287.696 216.873 280.556 204.295C274.821 194.215 269.087 179.629 263.875 174.467Z" fill="#77B033"/>
<path d="M280 227C280.177 227.311 280.318 227.641 280.421 227.983C280.663 228.621 281 229.552 281.368 230.713C282.126 233.035 283.053 236.277 283.979 239.875C284.905 243.472 285.674 246.756 286.221 249.141C286.463 250.26 286.674 251.233 286.832 251.954C286.927 252.295 286.983 252.646 287 253C286.858 252.663 286.749 252.312 286.674 251.954C286.474 251.212 286.221 250.281 285.916 249.172C285.295 246.725 284.474 243.504 283.558 239.948C282.642 236.392 281.758 233.097 281.074 230.755C280.758 229.656 280.484 228.726 280.263 227.994C280.15 227.67 280.062 227.337 280 227V227Z" fill="#E0E0E0"/>
<path d="M290.911 252C290.904 251.932 290.904 251.863 290.911 251.795C290.911 251.631 290.911 251.416 290.819 251.16C290.738 250.617 290.666 249.797 290.493 248.752C290.207 246.652 289.686 243.629 288.829 239.951C287.814 235.644 286.574 231.393 285.115 227.216C283.482 222.493 281.441 217.39 279.124 212.104C274.45 201.551 269.786 192.196 266.715 185.27C265.164 181.817 263.97 179 263.174 177.074C262.776 176.049 262.49 175.322 262.286 174.799L262.061 174.205C262.034 174.139 262.013 174.07 262 174C262.043 174.059 262.078 174.125 262.102 174.195L262.357 174.768L263.357 176.961C264.194 178.908 265.398 181.705 267.021 185.158C270.154 192.043 274.858 201.376 279.543 211.95C281.859 217.237 283.9 222.359 285.513 227.103C286.959 231.298 288.172 235.57 289.146 239.9C289.81 242.819 290.324 245.77 290.686 248.742C290.829 249.766 290.88 250.607 290.931 251.17C290.931 251.426 290.931 251.631 290.982 251.795C291.033 251.959 290.962 252 290.911 252Z" fill="#A8FA48"/>
<path d="M295 252C294.883 251.558 294.798 251.106 294.747 250.648C294.607 249.692 294.411 248.444 294.186 246.926C293.681 243.807 292.913 239.471 291.809 234.771C290.705 230.072 289.461 225.881 288.525 222.876C288.057 221.431 287.674 220.235 287.384 219.32C287.219 218.895 287.09 218.453 287 218C287.2 218.406 287.375 218.826 287.524 219.258C287.833 220.08 288.273 221.275 288.778 222.772C290.091 226.669 291.218 230.639 292.156 234.667C293.096 238.691 293.852 242.765 294.42 246.874C294.635 248.454 294.794 249.733 294.869 250.617C294.942 251.074 294.986 251.536 295 252V252Z" fill="#A8FA48"/>
<path d="M312 251H280V289H312V251Z" fill="#E0E0E0"/>
<path d="M302 251H274V289H302V251Z" fill="#EBEBEB"/>
<defs>
<linearGradient id="paint0_linear" x1="128.803" y1="282.416" x2="128.803" y2="285.335" gradientUnits="userSpaceOnUse">
<stop stop-color="#ECBBF4"/>
<stop offset="1" stop-color="#CA63DD"/>
</linearGradient>
</defs>
</svg>
