<svg width="512" height="512" viewBox="0 0 512 512" fill="none" xmlns="http://www.w3.org/2000/svg">
<path d="M403.892 284.897C398.144 280.403 338.154 213.83 321.955 204.424V31.6669C321.955 14.109 307.742 0 290.288 0H127.146C109.588 0 95.4795 14.2135 95.4795 31.6669V334.122C95.4795 351.68 109.693 365.789 127.146 365.789H179.506H198.214L195.288 340.915C194.347 340.079 193.72 339.557 192.779 338.721H182.328H161.426C162.471 334.54 162.785 329.942 161.949 325.239C159.649 312.175 149.303 301.619 136.239 299.215C131.431 298.275 126.728 298.588 122.443 299.633V64.1698C124.325 64.4834 126.31 64.6924 128.296 64.6924C146.063 64.6924 160.381 50.2699 160.381 32.6075C160.381 30.7263 160.172 28.8451 159.858 26.9639H257.263C256.949 28.8451 256.74 30.7263 256.74 32.6075C256.74 50.3744 271.058 64.6924 288.825 64.6924C290.811 64.6924 292.797 64.4834 294.678 64.1698V293.99V360.041C283.6 351.889 271.267 326.388 271.267 326.388C271.267 326.388 265.206 258.561 230.821 258.561C229.881 258.561 229.045 258.561 228.104 258.665C228.104 258.665 202.081 260.86 223.61 335.272L233.225 417.94C233.225 417.94 243.99 462.775 273.671 493.815V503.012C273.671 507.924 277.642 512 282.659 512H379.332C383.93 512 387.693 508.551 388.215 504.057C391.664 471.868 405.041 352.203 412.88 334.018C414.134 331.091 415.179 328.165 415.597 325.03C417.374 314.788 418.001 295.976 403.892 284.897Z" fill="#3C3378"/>
<path d="M212.218 103.152C222.839 103.152 231.448 94.5429 231.448 83.9224C231.448 73.302 222.839 64.6924 212.218 64.6924C201.598 64.6924 192.988 73.302 192.988 83.9224C192.988 94.5429 201.598 103.152 212.218 103.152Z" fill="#3C3378"/>
<path d="M139.27 185.089C139.27 218.219 162.471 245.915 193.511 252.917C194.451 251.14 195.392 249.573 196.542 247.9C206.784 232.955 220.684 230.238 225.387 229.82C227.268 229.611 229.149 229.506 231.03 229.506C237.719 229.506 246.811 230.761 256.217 235.777C269.699 223.131 278.165 205.051 278.165 185.089C278.165 146.734 247.021 115.589 208.665 115.589C170.309 115.589 139.27 146.734 139.27 185.089ZM167.069 178.923C171.25 178.923 171.354 178.923 171.982 174.743C172.504 171.503 173.445 168.472 174.699 165.441C175.43 163.769 176.58 163.142 178.252 163.664C180.865 164.396 183.373 165.128 185.986 165.964C188.39 166.695 188.703 167.531 187.658 169.831C185.359 174.534 184.418 179.341 184.732 184.567C184.836 185.925 184.941 187.284 185.568 188.434C187.554 192.928 192.466 193.555 195.497 189.792C197.064 187.911 198.109 185.716 199.05 183.417C200.722 179.446 202.29 175.474 204.275 171.816C210.86 159.902 225.805 156.662 236.047 165.128C239.705 168.158 242.213 172.13 243.467 176.728C243.99 178.714 245.035 179.655 247.125 179.55C249.215 179.446 251.201 179.55 253.291 179.55C255.172 179.55 256.113 180.491 256.113 182.267C256.217 184.462 256.217 186.657 256.113 188.852C256.113 190.837 254.963 191.673 253.082 191.673C251.619 191.673 250.051 191.673 248.588 191.673C245.244 191.673 245.139 191.778 244.617 195.018C243.99 199.094 243.049 203.065 241.272 206.828C239.809 209.754 239.078 210.067 236.047 209.231C233.748 208.604 231.448 207.977 229.254 207.246C226.641 206.41 226.327 205.678 227.581 203.274C229.776 199.198 230.926 194.809 231.553 190.21C231.971 187.284 231.657 184.358 230.403 181.64C228.208 176.519 222.251 175.683 218.698 180.073C217.444 181.536 216.608 183.208 215.876 184.985C213.89 189.479 212.427 194.182 209.919 198.362C205.843 205.26 200.2 209.545 191.839 209.022C182.433 208.5 176.475 203.065 173.34 194.495C172.086 190.942 172.086 190.942 168.324 190.837C167.069 190.837 165.815 190.837 164.561 190.837C161.739 190.733 161.217 190.315 161.217 187.493C161.217 186.657 161.217 185.716 161.217 184.88C161.112 179.028 161.112 179.028 167.069 178.923Z" fill="#3C3378"/>
</svg>
