<svg width="226" height="259" viewBox="0 0 226 259" fill="none" xmlns="http://www.w3.org/2000/svg">
<path d="M204.142 163.314L192.979 187.924C151.468 123.744 85.6038 98.956 52.4712 84.803C18.7328 70.3601 33.7986 39.6403 61.5098 37.8839C89.2207 36.1275 124.029 54.4797 154.276 87.5281C180.102 115.772 199.14 153.095 204.142 163.314Z" fill="url(#paint0_linear)"/>
<path d="M194.811 166.412L195.051 166.262C195.21 166.158 195.343 166.019 195.444 165.852C195.545 165.686 195.611 165.495 195.639 165.291C195.667 165.087 195.656 164.873 195.607 164.663C195.558 164.453 195.471 164.25 195.352 164.065C142.521 83.6196 93.5925 57.4157 53.626 53.5339C53.2261 53.4997 52.8507 53.6357 52.5822 53.9132C52.3138 54.1902 52.1745 54.5857 52.1948 55.0121C52.2151 55.4385 52.3931 55.8612 52.6902 56.1873C52.9872 56.5134 53.3788 56.7155 53.7787 56.7502C93.2498 60.5191 140.959 86.3247 193.02 165.632C193.22 165.948 193.505 166.196 193.829 166.337C194.154 166.479 194.5 166.505 194.811 166.412Z" fill="#77D509"/>
<path d="M55.7373 153.465C58.941 157.729 64.2317 159.205 69.0755 160.256C73.9197 161.308 79.1145 162.386 82.6853 166.314C89.9334 174.244 85.9341 188.236 93.4249 195.872C95.0941 197.366 96.9869 198.52 98.9891 199.263C100.992 200.007 103.062 200.325 105.075 200.199C108.446 200.201 111.697 199.573 115.009 199.188C116.534 198.859 118.024 198.419 119.47 197.873C123.612 195.879 128.436 195.493 133.202 196.772C140.753 199.44 145.291 207.94 151.171 214.015C158.197 221.345 165.626 223.524 177.929 221.347L197.934 177.949C200.133 162.725 192.508 143.863 177.558 137.165C168.582 133.137 159.32 137.707 150.606 133.514C142.792 129.744 139.495 119.338 132.572 113.635C125.649 107.932 117.7 109.496 110.895 112.068C104.09 114.641 99.4499 121.565 91.9868 122.789C84.5237 124.012 76.5021 123.367 69.3282 125.396C65.7164 126.236 62.4407 127.977 59.7504 130.487C57.0596 132.997 55.0247 136.21 53.7992 139.882C53.0636 141.996 52.8551 144.341 53.1932 146.71C53.5313 149.08 54.4053 151.4 55.7373 153.465Z" fill="url(#paint1_linear)"/>
<path d="M140.677 149.389C140.514 149.265 140.333 149.174 140.146 149.123C108.029 132.995 75.4281 136.159 65.6653 139.246C65.401 139.332 65.1939 139.533 65.0892 139.803C64.9845 140.074 64.991 140.392 65.1072 140.688C65.2235 140.984 65.4398 141.235 65.7087 141.383C65.978 141.532 66.2774 141.567 66.5416 141.48C75.7887 138.54 105.999 135.534 136.463 149.739C128.586 151.238 121.301 154.512 115.06 159.355C108.819 164.2 103.757 170.51 100.19 177.893C100.136 178.027 100.11 178.174 100.112 178.328C100.115 178.48 100.146 178.635 100.204 178.782C100.261 178.93 100.345 179.067 100.45 179.186C100.554 179.306 100.677 179.404 100.812 179.476C100.978 179.563 101.155 179.609 101.33 179.61C101.505 179.611 101.672 179.567 101.817 179.481C102.011 179.395 102.157 179.229 102.224 179.014C105.884 171.463 111.166 165.084 117.698 160.328C124.231 155.571 131.856 152.552 140.037 151.481C158.861 161.11 174.992 176.727 185.945 195.925C186.098 196.186 186.331 196.387 186.597 196.489C186.863 196.59 187.142 196.584 187.378 196.471C187.616 196.332 187.78 196.09 187.837 195.798C187.893 195.506 187.836 195.187 187.679 194.909C176.468 175.246 159.952 159.252 140.677 149.389Z" fill="#77D509"/>
<defs>
<linearGradient id="paint0_linear" x1="118.617" y1="37.7684" x2="118.617" y2="187.924" gradientUnits="userSpaceOnUse">
<stop stop-color="#497D0A"/>
<stop offset="1" stop-color="#79CF11"/>
</linearGradient>
<linearGradient id="paint1_linear" x1="125.671" y1="109.748" x2="125.671" y2="222.151" gradientUnits="userSpaceOnUse">
<stop stop-color="#497D0A"/>
<stop offset="1" stop-color="#79CF11"/>
</linearGradient>
</defs>
</svg>
