<svg width="43" height="51" viewBox="0 0 43 51" fill="none" xmlns="http://www.w3.org/2000/svg">
<path d="M32.1103 17.9001C29.794 19.3322 26.4782 21.2366 23.1121 23.4218C18.074 26.7029 12.9225 30.629 10.8496 34.6203L10.61 35.0038L6.71335 40.6815L6.18728 41.4497L5.49091 39.9101L3.75619 36.1143C6.60809 29.1562 10.6246 22.6748 15.5879 17.0215C21.5067 10.1088 31.3556 4.61593 35.5132 6.61971C39.4168 8.41907 37.8848 14.3252 32.1103 17.9001Z" fill="#77B033"/>
<path d="M5.50369 36.9091C5.56504 36.9138 5.6288 36.897 5.68556 36.8612C5.74233 36.8253 5.78909 36.7723 5.81896 36.71C13.1249 21.6374 26.2837 11.7531 34.3429 10.2304C34.4193 10.2155 34.4911 10.1694 34.5424 10.1022C34.5937 10.0349 34.6202 9.95207 34.6163 9.87181C34.6123 9.79156 34.5781 9.72048 34.5213 9.67423C34.4644 9.62798 34.3895 9.61033 34.313 9.62517C26.1113 11.1655 12.7208 21.2097 5.3359 36.4615C5.31731 36.499 5.30548 36.5392 5.30111 36.5796C5.29674 36.6201 5.29992 36.66 5.31044 36.697C5.32097 36.7341 5.33864 36.7676 5.36243 36.7955C5.38622 36.8234 5.41564 36.8452 5.449 36.8597L5.50369 36.9091Z" fill="#A8FA48"/>
<path d="M30.9881 29.6383C28.8742 32.1261 22.5718 32.6594 16.9489 35.3388C11.8859 37.7435 8.22754 41.102 6.97343 43.3197L6.14916 41.4792L5.45281 39.9395C11.0608 29.5114 17.8919 25.6674 23.1058 23.4636C24.6325 22.8674 26.2206 22.6241 27.7562 22.7512C32.6153 23.327 33.5214 26.6584 30.9881 29.6383Z" fill="#77B033"/>
<path d="M6.74864 40.6883C6.80202 40.6943 6.85798 40.6827 6.90929 40.655C6.9606 40.6273 7.00491 40.5848 7.03651 40.533C14.355 29.1475 23.9487 26.4432 27.9952 26.6026C28.0328 26.6057 28.0716 26.6005 28.1093 26.5873C28.1469 26.5742 28.1827 26.5534 28.2145 26.5262C28.2462 26.4989 28.2733 26.4658 28.2941 26.4288C28.3149 26.3918 28.3291 26.3517 28.3356 26.3108C28.3422 26.2699 28.3411 26.2291 28.3323 26.1908C28.3236 26.1525 28.3074 26.1175 28.2848 26.0878C28.2621 26.0582 28.2335 26.0346 28.2005 26.0184C28.1675 26.0022 28.131 25.9936 28.0929 25.9934C23.6022 25.8077 14.0315 28.6331 6.57953 40.2323C6.5561 40.2669 6.53892 40.3053 6.52903 40.3453C6.51914 40.3853 6.51674 40.4259 6.52198 40.4648C6.52721 40.5036 6.53998 40.5399 6.55949 40.5714C6.57901 40.6029 6.60487 40.629 6.63554 40.6481C6.66888 40.6707 6.70751 40.6844 6.74864 40.6883Z" fill="#A8FA48"/>
</svg>
