<svg width="199" height="236" viewBox="0 0 199 236" fill="none" xmlns="http://www.w3.org/2000/svg">
<path d="M148.604 82.8319C137.884 89.4589 122.539 98.2714 106.961 108.383C83.6449 123.566 59.8043 141.734 50.2111 160.204L49.1022 161.978L31.0689 188.252L28.6343 191.807L25.4115 184.682L17.3834 167.117C30.5818 134.919 49.1698 104.927 72.1395 78.7662C99.5311 46.778 145.111 21.3601 164.352 30.6324C182.417 38.9589 175.327 66.2892 148.604 82.8319Z" fill="url(#paint0_linear)"/>
<path d="M25.4705 170.795C25.7544 170.817 26.0495 170.739 26.3122 170.573C26.5749 170.407 26.7913 170.162 26.9295 169.874C60.7407 100.126 121.638 54.3869 158.936 47.3407C159.289 47.2718 159.622 47.0584 159.859 46.7475C160.096 46.436 160.219 46.0528 160.201 45.6814C160.182 45.31 160.024 44.9811 159.761 44.7671C159.498 44.553 159.151 44.4714 158.797 44.54C120.841 51.6678 58.8706 98.1469 24.694 168.724C24.6079 168.897 24.5532 169.083 24.533 169.27C24.5127 169.458 24.5275 169.642 24.5762 169.814C24.6249 169.985 24.7067 170.14 24.8168 170.269C24.9269 170.399 25.063 170.499 25.2174 170.566L25.4705 170.795Z" fill="#77D409"/>
<path d="M143.41 137.15C133.627 148.662 104.46 151.13 78.4377 163.529C55.0066 174.656 38.0761 190.197 32.2722 200.46L28.4575 191.943L25.2349 184.818C51.1881 136.563 82.8018 118.775 106.931 108.577C113.997 105.818 121.346 104.692 128.453 105.28C150.94 107.944 155.134 123.36 143.41 137.15Z" fill="url(#paint1_linear)"/>
<path d="M31.2321 188.283C31.4792 188.311 31.7381 188.257 31.9756 188.129C32.213 188.001 32.4181 187.804 32.5644 187.565C66.4336 134.879 110.832 122.365 129.559 123.102C129.733 123.117 129.913 123.093 130.087 123.031C130.261 122.971 130.427 122.875 130.574 122.749C130.721 122.622 130.846 122.469 130.942 122.298C131.039 122.127 131.104 121.941 131.135 121.752C131.165 121.563 131.16 121.374 131.119 121.197C131.079 121.019 131.004 120.858 130.899 120.72C130.794 120.583 130.662 120.474 130.509 120.399C130.357 120.324 130.188 120.284 130.011 120.283C109.229 119.424 64.9365 132.498 30.4495 186.173C30.3411 186.333 30.2616 186.511 30.2158 186.696C30.17 186.881 30.1589 187.069 30.1832 187.249C30.2074 187.429 30.2665 187.596 30.3568 187.742C30.4471 187.888 30.5668 188.009 30.7087 188.097C30.863 188.202 31.0418 188.265 31.2321 188.283Z" fill="#77D409"/>
<defs>
<linearGradient id="paint0_linear" x1="95.8689" y1="28.7004" x2="95.8689" y2="191.807" gradientUnits="userSpaceOnUse">
<stop stop-color="#497D0A"/>
<stop offset="0.0001" stop-color="#497E0B"/>
<stop offset="1" stop-color="#88E815"/>
</linearGradient>
<linearGradient id="paint1_linear" x1="87.5035" y1="105.128" x2="87.5035" y2="200.46" gradientUnits="userSpaceOnUse">
<stop stop-color="#497D0A"/>
<stop offset="0.0001" stop-color="#497E0B"/>
<stop offset="1" stop-color="#88E815"/>
</linearGradient>
</defs>
</svg>
