<svg width="49" height="56" viewBox="0 0 49 56" fill="none" xmlns="http://www.w3.org/2000/svg">
<path d="M44.2609 35.3111L41.8406 40.6322C32.8403 26.7554 18.5601 21.3959 11.3765 18.3358C4.06153 15.213 7.328 8.57088 13.3362 8.19112C19.3443 7.81135 26.8913 11.7794 33.4492 18.925C39.0486 25.0318 43.1764 33.1017 44.2609 35.3111Z" fill="#77B033"/>
<path d="M42.2379 35.981L42.2899 35.9485C42.3243 35.926 42.3532 35.8959 42.3751 35.8599C42.397 35.8239 42.4113 35.7826 42.4174 35.7385C42.4235 35.6944 42.4211 35.6483 42.4104 35.6028C42.3997 35.5574 42.3809 35.5135 42.3551 35.4736C30.9006 18.0799 20.2922 12.4142 11.6269 11.5749C11.5402 11.5675 11.4588 11.5969 11.4006 11.6569C11.3424 11.7168 11.3122 11.8023 11.3166 11.8945C11.321 11.9867 11.3596 12.0781 11.424 12.1486C11.4884 12.2191 11.5733 12.2628 11.66 12.2703C20.2179 13.0852 30.562 18.6648 41.8495 35.8124C41.8928 35.8806 41.9546 35.9343 42.025 35.9648C42.0954 35.9954 42.1703 36.0011 42.2379 35.981Z" fill="#A8FA48"/>
<path d="M12.0846 33.1816C12.7792 34.1035 13.9263 34.4227 14.9765 34.65C16.0268 34.8774 17.1531 35.1106 17.9273 35.9598C19.4988 37.6744 18.6317 40.6996 20.2558 42.3508C20.6177 42.6738 21.0281 42.9232 21.4622 43.084C21.8964 43.2447 22.3452 43.3135 22.7817 43.2862C23.5125 43.2867 24.2174 43.1509 24.9355 43.0678C25.2662 42.9965 25.5893 42.9015 25.9028 42.7833C26.8009 42.3523 27.8468 42.2687 28.8801 42.5454C30.5172 43.1221 31.5012 44.9601 32.776 46.2735C34.2994 47.8583 35.9101 48.3296 38.5774 47.8588L42.9148 38.4755C43.3917 35.1839 41.7384 31.1056 38.4971 29.6574C36.551 28.7863 34.5427 29.7746 32.6534 28.868C30.9593 28.0527 30.2444 25.8028 28.7434 24.5697C27.2424 23.3367 25.5189 23.6748 24.0435 24.231C22.5681 24.7873 21.5621 26.2843 19.944 26.5489C18.3259 26.8135 16.5867 26.6739 15.0313 27.1126C14.2482 27.2943 13.538 27.6707 12.9547 28.2134C12.3713 28.7561 11.9301 29.4508 11.6644 30.2448C11.5049 30.7018 11.4597 31.2089 11.533 31.7212C11.6063 32.2335 11.7958 32.7352 12.0846 33.1816Z" fill="#77B033"/>
<path d="M30.5007 32.3003C30.4654 32.2735 30.4263 32.2539 30.3857 32.2427C23.4222 28.7556 16.3539 29.4398 14.2372 30.1073C14.1799 30.1259 14.135 30.1692 14.1123 30.2277C14.0896 30.2862 14.091 30.355 14.1162 30.4191C14.1414 30.4831 14.1883 30.5372 14.2466 30.5693C14.305 30.6014 14.3699 30.609 14.4272 30.5903C16.4321 29.9546 22.9822 29.3047 29.5871 32.376C27.8794 32.7001 26.2997 33.4079 24.9466 34.4552C23.5935 35.5026 22.496 36.867 21.7226 38.4634C21.711 38.4923 21.7053 38.5242 21.7058 38.5573C21.7063 38.5903 21.713 38.6237 21.7256 38.6556C21.7381 38.6875 21.7563 38.7172 21.779 38.743C21.8016 38.7688 21.8283 38.7901 21.8575 38.8057C21.8934 38.8245 21.9319 38.8344 21.9698 38.8346C22.0077 38.8348 22.0439 38.8252 22.0754 38.8067C22.1175 38.7882 22.1491 38.7521 22.1637 38.7058C22.9572 37.073 24.1023 35.6939 25.5187 34.6654C26.935 33.637 28.5882 32.9841 30.3621 32.7526C34.4434 34.8346 37.9408 38.2112 40.3155 42.3621C40.3487 42.4185 40.3992 42.462 40.4569 42.484C40.5145 42.5059 40.5751 42.5046 40.6262 42.4803C40.6778 42.4501 40.7135 42.3979 40.7257 42.3347C40.7379 42.2716 40.7256 42.2026 40.6915 42.1424C38.2608 37.8911 34.6799 34.4328 30.5007 32.3003Z" fill="#A8FA48"/>
</svg>
