<svg width="133" height="371" viewBox="0 0 133 371" fill="none" xmlns="http://www.w3.org/2000/svg">
<path d="M60.5208 340.149L67.2208 264.499L44.0708 265.179L43.3408 341.819L49.5708 345.519L60.5208 340.149Z" fill="#FFBE9D"/>
<path d="M42.9512 339.599V340.719C42.9512 340.719 24.0712 348.719 23.9512 352.289L61.7112 351.459L60.9212 338.899C58.1522 340.301 55.1136 341.089 52.0126 341.209C48.9115 341.33 45.8208 340.781 42.9512 339.599Z" fill="#3C3378"/>
<g opacity="0.6">
<path opacity="0.6" d="M57.1713 343.009C57.5362 343.11 57.8507 343.343 58.0539 343.663C58.2571 343.982 58.3346 344.366 58.2713 344.739C58.1829 345.108 57.9561 345.429 57.6379 345.636C57.3197 345.842 56.9343 345.919 56.5613 345.849C56.1741 345.741 55.841 345.493 55.6266 345.153C55.4122 344.813 55.3319 344.405 55.4013 344.009C55.5255 343.626 55.795 343.306 56.1521 343.119C56.5092 342.932 56.9254 342.893 57.3113 343.009" fill="#53165D"/>
</g>
<g opacity="0.6">
<path opacity="0.6" d="M61.6915 351.429L61.5015 348.429L25.3815 350.329C25.3815 350.329 23.7215 351.099 23.9315 352.279L61.6915 351.429Z" fill="#53165D"/>
</g>
<path d="M42.8311 340.829C42.8311 341.009 43.7711 341.079 44.6911 341.649C45.6111 342.219 46.1111 342.989 46.2811 342.909C46.4511 342.829 46.1511 341.769 45.0211 341.099C43.8911 340.429 42.7911 340.659 42.8311 340.829Z" fill="#3C3378"/>
<path d="M38.9111 342.549C38.9111 342.729 39.6811 343.029 40.3211 343.799C40.9611 344.569 41.1611 345.379 41.3211 345.369C41.4811 345.359 41.5911 344.309 40.7811 343.369C39.9711 342.429 38.9111 342.429 38.9111 342.549Z" fill="#3C3378"/>
<path d="M36.7615 347.339C36.9315 347.339 37.1715 346.449 36.6715 345.449C36.1715 344.449 35.3115 344.069 35.2315 344.229C35.1515 344.389 35.7015 344.909 36.1015 345.739C36.5015 346.569 36.5815 347.329 36.7615 347.339Z" fill="#3C3378"/>
<path d="M113.471 253.879L101.681 349.679L86.5412 348.089L85.7012 254.689L113.471 253.879Z" fill="#FFBE9D"/>
<path d="M86.3116 342.079C86.3116 342.079 96.6616 349.349 102.141 343.629L103.341 346.559L108.341 367.249C108.499 367.923 108.392 368.632 108.042 369.23C107.692 369.827 107.126 370.267 106.461 370.459C105.935 370.629 105.373 370.658 104.833 370.542C104.292 370.426 103.791 370.17 103.381 369.799C99.1716 365.849 83.7716 351.269 84.0316 349.379L84.3516 344.379C84.4006 343.849 84.6109 343.346 84.9541 342.938C85.2973 342.531 85.7571 342.238 86.2716 342.099L86.3116 342.079Z" fill="#3C3378"/>
<g opacity="0.6">
<path opacity="0.6" d="M105.971 370.579L84.1508 347.629V348.729C83.9708 349.919 84.5208 350.409 85.1508 351.189C86.8908 353.519 91.7708 358.779 103.421 369.799C103.774 370.12 104.194 370.357 104.652 370.492C105.109 370.627 105.591 370.657 106.061 370.579H105.971Z" fill="#53165D"/>
</g>
<g opacity="0.6">
<path opacity="0.6" d="M87.6815 344.499C87.8486 344.61 87.9917 344.753 88.1022 344.92C88.2128 345.087 88.2886 345.275 88.325 345.471C88.3614 345.668 88.3577 345.871 88.3141 346.066C88.2706 346.262 88.1881 346.446 88.0715 346.609C87.7888 346.932 87.4028 347.146 86.9796 347.215C86.5564 347.285 86.1223 347.205 85.7515 346.989C85.575 346.871 85.4242 346.719 85.308 346.541C85.1919 346.363 85.1127 346.164 85.0754 345.954C85.0381 345.745 85.0433 345.531 85.0907 345.324C85.1382 345.117 85.2269 344.921 85.3515 344.749C85.6778 344.438 86.1038 344.252 86.5541 344.225C87.0043 344.197 87.4498 344.33 87.8115 344.599" fill="#53165D"/>
</g>
<path d="M99.9308 359.029C100.678 358.237 101.562 357.586 102.541 357.109C103.619 356.762 104.75 356.61 105.881 356.659C105.881 356.589 105.551 356.379 104.881 356.269C104.005 356.149 103.112 356.259 102.291 356.589C101.495 356.899 100.802 357.425 100.291 358.109C99.9208 358.629 99.8608 359.009 99.9308 359.029Z" fill="#3C3378"/>
<path d="M101.821 362.569C102.666 362.191 103.531 361.857 104.411 361.569C105.347 361.445 106.288 361.368 107.231 361.339C106.784 361.072 106.284 360.905 105.766 360.85C105.248 360.795 104.724 360.853 104.231 361.019C102.551 361.429 101.671 362.499 101.821 362.569Z" fill="#3C3378"/>
<path d="M96.3308 354.429C97.5846 353.735 98.8843 353.127 100.221 352.609C101.636 352.265 103.072 352.018 104.521 351.869C103.035 351.451 101.454 351.521 100.011 352.069C97.5608 352.849 96.2008 354.369 96.3308 354.429Z" fill="#3C3378"/>
<path d="M96.1406 348.209C96.2106 348.359 97.8206 347.819 99.8906 347.829C101.961 347.839 103.581 348.339 103.641 348.179C102.522 347.479 101.207 347.157 99.8906 347.259C97.6706 347.259 96.0606 348.079 96.1406 348.209Z" fill="#3C3378"/>
<path d="M101.061 347.819C101.114 347.482 101.076 347.137 100.951 346.819C100.714 345.926 100.287 345.094 99.701 344.379C99.2993 343.799 98.7204 343.364 98.051 343.139C97.8217 343.078 97.5795 343.082 97.3528 343.153C97.1261 343.224 96.9243 343.358 96.771 343.539C96.6443 343.713 96.555 343.911 96.5085 344.121C96.462 344.331 96.4595 344.548 96.501 344.759C96.7446 345.659 97.2897 346.448 98.0451 346.994C98.8004 347.54 99.7203 347.81 100.651 347.759C101.572 347.751 102.47 347.477 103.24 346.972C104.009 346.467 104.617 345.751 104.991 344.909C105.074 344.706 105.107 344.485 105.088 344.266C105.068 344.047 104.998 343.836 104.881 343.649C104.728 343.465 104.524 343.329 104.295 343.26C104.065 343.191 103.821 343.19 103.591 343.259C102.924 343.495 102.328 343.898 101.861 344.429C101.183 345.068 100.63 345.827 100.231 346.669C99.951 347.249 99.891 347.599 99.931 347.609C100.53 346.534 101.288 345.556 102.181 344.709C102.614 344.281 103.142 343.959 103.721 343.769C103.845 343.729 103.979 343.727 104.104 343.765C104.229 343.802 104.34 343.877 104.421 343.979C104.487 344.108 104.521 344.25 104.521 344.394C104.521 344.539 104.487 344.681 104.421 344.809C104.075 345.527 103.536 346.134 102.865 346.563C102.194 346.992 101.417 347.226 100.621 347.239C99.8352 347.28 99.0582 347.059 98.412 346.61C97.7658 346.161 97.2871 345.51 97.051 344.759C96.9887 344.467 97.0425 344.162 97.201 343.909C97.2832 343.805 97.3946 343.727 97.521 343.686C97.6474 343.645 97.7832 343.643 97.911 343.679C98.4689 343.867 98.9593 344.215 99.321 344.679C100.093 345.608 100.683 346.673 101.061 347.819Z" fill="#3C3378"/>
<path d="M104.321 134.999C104.321 134.999 110.021 141.179 112.801 147.089C115.581 152.999 117.281 167.089 117.281 167.089C117.281 167.089 122.791 184.289 121.521 193.319C120.251 202.349 114.061 264.539 114.061 264.539C114.061 264.539 109.971 328.269 104.181 338.939L83.8605 336.769L79.9106 215.509L66.0605 135.259L104.321 134.999Z" fill="#5348A7"/>
<path d="M93.7713 159.039C93.8646 158.734 93.9184 158.418 93.9313 158.099C94.0013 157.499 94.0513 156.609 94.0713 155.519C94.0779 152.68 93.9277 149.842 93.6213 147.019C93.2713 143.799 92.9513 140.899 92.7013 138.569C92.6308 137.398 92.4871 136.233 92.2713 135.079C92.1557 136.253 92.1557 137.436 92.2713 138.609C92.4013 140.779 92.7013 143.779 93.0313 147.069C93.3613 150.359 93.5913 153.359 93.6413 155.519C93.6913 157.679 93.6813 159.029 93.7713 159.039Z" fill="#3C3378"/>
<path d="M89.5908 144.809C90.2387 143.293 90.6404 141.683 90.7808 140.039C91.0997 138.419 91.1537 136.757 90.9408 135.119C90.5979 136.716 90.3575 138.332 90.2208 139.959C89.905 141.561 89.6945 143.181 89.5908 144.809Z" fill="#3C3378"/>
<path d="M74.8013 139.949C74.9013 139.949 74.8713 139.199 75.7013 138.629C75.9323 138.477 76.1971 138.384 76.4726 138.357C76.7481 138.331 77.0258 138.373 77.2813 138.479C77.5918 138.602 77.8569 138.818 78.0409 139.096C78.225 139.375 78.319 139.704 78.3102 140.037C78.3015 140.371 78.1905 140.694 77.9921 140.963C77.7938 141.232 77.5178 141.433 77.2013 141.539C76.9416 141.634 76.6626 141.663 76.3889 141.625C76.1152 141.587 75.8551 141.482 75.6313 141.319C74.8313 140.709 74.9013 139.919 74.8013 139.949C74.7013 139.979 74.7113 140.119 74.7413 140.439C74.7984 140.899 75.027 141.321 75.3813 141.619C75.6508 141.855 75.9767 142.016 76.3272 142.088C76.6778 142.16 77.041 142.14 77.3813 142.029C77.7909 141.885 78.147 141.62 78.4024 141.269C78.6578 140.918 78.8004 140.498 78.8112 140.064C78.8221 139.63 78.7007 139.203 78.4631 138.84C78.2256 138.476 77.8832 138.194 77.4813 138.029C77.1493 137.906 76.791 137.869 76.4408 137.923C76.0906 137.978 75.7603 138.121 75.4813 138.339C75.1168 138.626 74.8682 139.034 74.7813 139.489C74.7113 139.779 74.7713 139.949 74.8013 139.949Z" fill="#3C3378"/>
<path d="M50.8111 150.829C50.8111 150.829 38.9011 228.049 37.5911 241.229C36.2811 254.409 41.1711 334.569 41.1711 334.569L61.0011 334.649L69.5611 255.779L84.4211 186.839L70.8411 135.689L55.2711 136.879L50.8111 150.829Z" fill="#5348A7"/>
<path d="M119.871 79.3394C119.847 79.5454 119.847 79.7534 119.871 79.9594C119.871 80.4094 119.871 80.9594 119.871 81.7294C119.871 82.1194 119.871 82.5494 119.871 83.0094C119.871 83.4694 119.791 84.0094 119.761 84.5294C119.661 85.6194 119.621 86.8594 119.401 88.2194C119.311 88.9094 119.221 89.6194 119.121 90.3594C119.021 91.0994 118.861 91.8694 118.721 92.6694C118.471 94.2694 118.071 95.9494 117.721 97.7294C116.901 101.269 115.871 105.139 114.721 109.199C113.571 113.259 112.621 117.149 111.851 120.719C111.501 122.509 111.131 124.199 110.921 125.819C110.801 126.619 110.661 127.389 110.571 128.139C110.481 128.889 110.431 129.609 110.361 130.299C110.191 131.669 110.191 132.919 110.151 134.019C110.151 134.569 110.151 135.079 110.151 135.549C110.151 136.019 110.151 136.439 110.211 136.829C110.211 137.569 110.281 138.159 110.301 138.609C110.3 138.815 110.323 139.02 110.371 139.219C110.386 139.013 110.386 138.806 110.371 138.599C110.371 138.149 110.371 137.599 110.371 136.829C110.371 136.439 110.371 136.009 110.371 135.549C110.371 135.089 110.421 134.549 110.451 134.029C110.511 132.939 110.531 131.689 110.721 130.329C110.801 129.649 110.881 128.929 110.961 128.179C111.041 127.429 111.201 126.669 111.331 125.869C111.561 124.269 111.941 122.579 112.331 120.799C113.131 117.249 114.131 113.369 115.241 109.319C116.351 105.269 117.361 101.379 118.171 97.8194C118.541 96.0294 118.921 94.3394 119.171 92.7294C119.301 91.9294 119.451 91.1594 119.551 90.4094C119.651 89.6594 119.721 88.9494 119.801 88.2594C120.001 86.8894 120.021 85.6394 120.091 84.5394C120.091 83.9994 120.161 83.4894 120.171 83.0194C120.181 82.5494 120.171 82.1194 120.171 81.7294C120.171 80.9994 120.171 80.3994 120.171 79.9594C120.091 79.7438 119.99 79.5362 119.871 79.3394Z" fill="#3C3378"/>
<path d="M35.181 108.849L26.481 77.8496L15.751 79.8496C15.751 79.8496 18.321 82.7796 18.321 85.4696C18.321 88.1596 20.061 113.479 20.061 113.479C20.061 113.479 30.731 116.599 35.061 109.389" fill="#FFBE9D"/>
<path d="M26.481 77.8495C27.1522 75.9171 27.2357 73.8292 26.721 71.8495C25.781 69.0595 22.561 66.8495 22.721 65.2095C22.881 63.5695 21.221 59.5095 19.721 59.8195C18.221 60.1295 17.041 61.6595 18.351 64.2395C19.1638 65.9337 19.8329 67.6932 20.351 69.4995C20.351 69.4995 4.35099 61.1595 3.03099 60.9795C1.71099 60.7995 0.410991 60.6195 0.0309915 61.6595C-0.349009 62.6995 2.89098 64.0395 2.89098 64.0395L7.191 69.6395C7.91395 71.7664 8.92323 73.7849 10.191 75.6395C11.7061 77.4014 13.5771 78.8226 15.681 79.8095L20.351 85.4295C20.351 85.4295 27.501 82.9995 26.481 77.8495Z" fill="#FFBE9D"/>
<path d="M3.25125 64.2294C3.25125 64.2294 3.39123 64.1394 3.64123 64.0194C3.99714 63.8543 4.39597 63.8053 4.78125 63.8794C6.05922 64.2504 7.1866 65.0171 8.00125 66.0694C8.85749 67.1122 9.58597 68.2536 10.1713 69.4694C10.3837 69.9992 10.6627 70.4998 11.0013 70.9594C10.8954 70.3961 10.7102 69.8507 10.4513 69.3394C9.93479 68.0514 9.2231 66.8507 8.34125 65.7794C7.46395 64.6521 6.21777 63.8697 4.82126 63.5694C4.37883 63.5143 3.93138 63.6208 3.56125 63.8694C3.30125 64.0494 3.23125 64.2194 3.25125 64.2294Z" fill="#EB996E"/>
<path d="M9.12109 66.3291C9.80247 66.9676 10.5783 67.4972 11.4211 67.8992C12.1945 68.4301 13.049 68.832 13.9511 69.0892C13.2675 68.4488 12.4881 67.9191 11.6411 67.5191C10.869 66.9923 10.0185 66.5907 9.12109 66.3291Z" fill="#EB996E"/>
<path d="M17.6112 69.9294C17.1868 69.7384 16.7266 69.6396 16.2612 69.6396C15.7958 69.6396 15.3358 69.7384 14.9113 69.9294C14.4619 70.0431 14.0407 70.2483 13.6742 70.5323C13.3077 70.8162 13.0037 71.1726 12.7812 71.5794C13.4999 71.1029 14.2597 70.6913 15.0513 70.3494C15.8897 70.13 16.7466 69.9894 17.6112 69.9294Z" fill="#EB996E"/>
<path d="M51.0611 110.639C51.1411 111.099 38.9311 127.579 34.9711 130.639C25.2611 138.219 18.1111 127.969 18.8211 119.289C19.5311 110.609 44.8211 69.8394 44.8211 69.8394L52.9911 89.0894L51.0611 110.639Z" fill="#3C3378"/>
<path d="M114.971 65.4993L92.7709 60.2793L90.6709 56.7393L68.4009 57.0993L63.2309 62.6393L48.3809 69.9193L60.8409 122.229L102.641 124.379L114.971 65.4993Z" fill="white"/>
<path d="M89.5615 56.0591L97.8716 61.2191L115.331 65.0091L109.801 135.099C109.801 135.099 125.901 163.169 124.131 196.629L78.1816 194.629C78.1816 194.629 80.4216 159.449 80.8516 145.329C81.2816 131.209 81.0216 106.549 81.0216 106.549L92.3916 64.0791L89.5615 56.0591Z" fill="#3C3378"/>
<path d="M66.8412 61.2394L68.4012 56.4595L62.6012 62.2895L58.4212 63.7595C52.6512 65.9195 44.7812 69.8695 44.7812 69.8695L54.6212 132.169C54.6212 132.169 43.3412 171.169 42.4912 194.629C42.4912 194.629 72.6512 195.139 84.5912 194.629L81.3712 105.179C81.3712 105.179 70.9012 92.8195 69.1612 80.4295C67.4212 68.0395 66.8412 61.2394 66.8412 61.2394Z" fill="#3C3378"/>
<path d="M81.9008 115.009C82.044 114.901 82.1748 114.777 82.2908 114.639L83.3508 113.489L87.2308 109.189L100.361 94.4295L100.441 94.3395V94.2195C99.7808 91.8195 99.0808 89.2895 98.3608 86.6995C98.0408 85.5795 97.7308 84.4695 97.4308 83.3795L97.2208 83.6695L105.931 83.3295H106.231L106.121 83.0495L100.291 67.3395L98.5708 62.8395L98.1008 61.6495C97.9908 61.3795 97.9308 61.2395 97.9108 61.2495C97.9368 61.3931 97.977 61.5338 98.0308 61.6695L98.4408 62.8895L100.041 67.4295L105.721 83.1995L105.911 82.9095L97.2008 83.2195H96.9108L96.9908 83.4995C97.2908 84.5895 97.6008 85.6995 97.9208 86.8195C98.6408 89.4095 99.3408 91.9395 100.011 94.3395V94.1295C94.8208 100.079 90.2808 105.269 87.0108 109.019L83.2308 113.429L82.2308 114.619C82.0608 114.859 81.8908 115.009 81.9008 115.009Z" fill="#3C3378"/>
<path d="M62.6516 62.0591C62.6082 62.2236 62.5748 62.3905 62.5516 62.5591C62.5016 62.9291 62.4316 63.4091 62.3416 64.0091C62.1716 65.3291 61.9316 67.1491 61.6316 69.4191C61.0616 74.0791 60.2616 80.5291 59.3516 87.9091V88.2091L59.6516 88.1591L64.4816 87.3291L64.2316 87.0091C63.9416 87.6591 63.6216 88.3591 63.3116 89.0691L61.5016 93.1191L61.4416 93.2491L61.5316 93.3591L74.9216 108.869L78.9216 113.449C79.3816 113.949 79.7416 114.359 80.0216 114.669C80.3016 114.979 81.9316 116.189 81.9416 116.179C81.9516 116.169 80.3216 114.899 80.0816 114.609L79.0816 113.339L75.1816 108.679L61.9116 93.0591V93.2991C62.4916 92.0091 63.1016 90.6391 63.7316 89.2491C64.0416 88.5491 64.3516 87.8491 64.6516 87.2491L64.8216 86.8491L64.4016 86.9291L59.5716 87.7691L59.8316 88.0091C60.6816 80.6191 61.4216 74.1691 61.9616 69.5091C62.2016 67.2291 62.4016 65.3991 62.5416 64.0791C62.5916 63.4791 62.6416 62.9891 62.6716 62.6191C62.6942 62.4325 62.6875 62.2436 62.6516 62.0591Z" fill="#3C3378"/>
<path d="M85.9307 142.429C86.8107 141.259 88.6106 140.529 89.5206 141.679C89.9796 142.026 90.3214 142.506 90.5002 143.053C90.6789 143.6 90.686 144.188 90.5206 144.739C90.3841 145.077 90.1811 145.384 89.9237 145.642C89.6662 145.9 89.3596 146.104 89.0219 146.241C88.6842 146.378 88.3226 146.446 87.9581 146.441C87.5937 146.435 87.234 146.356 86.9006 146.209C86.5739 146.04 86.2867 145.803 86.0577 145.514C85.8286 145.226 85.663 144.893 85.5715 144.536C85.48 144.179 85.4646 143.807 85.5265 143.444C85.5884 143.081 85.7262 142.736 85.9307 142.429Z" fill="#3C3378"/>
<g opacity="0.3">
<path opacity="0.3" d="M105.881 83.0996C105.731 83.5696 102.611 84.0996 102.061 85.3696C101.628 86.7426 101.667 88.2211 102.171 89.5696C102.671 90.9114 102.942 92.3279 102.971 93.7596C102.791 96.3196 100.781 98.3196 98.8906 100.049C93.6206 104.899 87.1806 110.159 81.8906 115.049C86.5706 109.049 92.6606 102.919 97.8206 97.3896C98.8342 96.5979 99.5383 95.4761 99.8105 94.2192C100.083 92.9622 99.9058 91.6496 99.3106 90.5096L97.7206 85.1596C97.5906 84.6996 97.2906 83.9296 97.2206 83.6696C97.8788 83.5299 98.5481 83.4496 99.2206 83.4296C101.442 83.1812 103.677 83.0844 105.911 83.1396" fill="black"/>
</g>
<path d="M45.6016 80.4292C45.6077 80.6071 45.6278 80.7844 45.6616 80.9592C45.7216 81.3592 45.8016 81.8592 45.8916 82.4792C46.1216 83.8392 46.4416 85.7292 46.8216 88.0292C47.6216 92.7692 48.7016 99.2192 49.8916 106.339C51.0816 113.459 52.2316 119.969 53.1016 124.639C53.5316 126.979 53.9016 128.869 54.1616 130.169C54.2916 130.789 54.4016 131.279 54.4816 131.669C54.5091 131.847 54.556 132.022 54.6216 132.189C54.6232 132.008 54.6065 131.827 54.5716 131.649L54.3316 130.139C54.1016 128.779 53.7916 126.889 53.4016 124.589C52.6116 119.849 51.5316 113.399 50.3316 106.269C49.1316 99.1392 48.0016 92.6492 47.1316 87.9792C46.6916 85.6392 46.3316 83.7492 46.0616 82.4492C45.9316 81.8292 45.8316 81.3392 45.7416 80.9492C45.7201 80.77 45.673 80.5949 45.6016 80.4292Z" fill="#3C3378"/>
<path d="M115.061 64.9395C118.339 66.0444 121.155 68.2124 123.061 71.0995C126.741 76.5595 133.141 129.489 132.891 133.159C132.641 136.829 129.471 146.159 120.891 144.909C112.311 143.659 89.5605 127.779 89.5605 127.779L97.3905 112.599L113.991 120.429L111.731 94.2094L115.061 64.9395Z" fill="#3C3378"/>
<g opacity="0.3">
<path opacity="0.3" d="M64.5411 139.829C65.0811 137.449 68.0311 136.679 70.4511 136.369L109.921 131.369L113.351 142.469C113.128 145.031 112.524 147.545 111.561 149.929C111.066 151.116 110.315 152.179 109.363 153.043C108.411 153.908 107.28 154.551 106.051 154.929C103.841 155.469 101.541 154.819 99.3711 154.179L70.3711 145.579C68.8959 145.247 67.4976 144.636 66.2511 143.779C65.6262 143.346 65.135 142.746 64.8328 142.048C64.5307 141.35 64.4296 140.582 64.5411 139.829Z" fill="black"/>
</g>
<g opacity="0.3">
<path opacity="0.3" d="M113.141 94.0292C113.611 92.1492 114.331 90.0292 116.141 89.3192C117.951 88.6092 120.301 89.9592 121.141 91.8392C121.981 93.7192 121.811 95.8892 121.511 97.9292C120.461 105.019 117.971 112.929 115.651 119.679L107.551 116.679C108.621 109.189 111.271 101.429 113.141 94.0292Z" fill="black"/>
</g>
<path d="M29.491 87.5591L37.491 111.559L27.141 119.079L18.781 122.429C18.781 122.429 17.221 110.429 17.611 114.609L15.751 89.9491L29.491 87.5591Z" fill="#3C3378"/>
<path d="M29.4912 87.5591C29.5288 87.9198 29.5923 88.2774 29.6812 88.6291C29.8212 89.3091 30.0512 90.2891 30.3612 91.4991C30.9912 93.9091 32.0412 97.1791 33.3612 100.749C34.6812 104.319 35.7212 107.579 36.3612 109.969C36.7012 111.159 36.9712 112.129 37.1412 112.799C37.2151 113.142 37.3222 113.477 37.4612 113.799C37.4227 113.439 37.3592 113.081 37.2712 112.729C37.1312 112.049 36.8912 111.069 36.5812 109.869C35.9612 107.459 34.9012 104.179 33.5812 100.609C32.2612 97.0391 31.2212 93.7791 30.5812 91.3991C30.2412 90.1991 29.9712 89.2291 29.8012 88.5591C29.7198 88.2193 29.6163 87.8853 29.4912 87.5591Z" fill="#3C3378"/>
<path d="M32.0605 123.739C32.4404 123.351 32.7758 122.922 33.0605 122.459C33.7931 121.39 34.461 120.278 35.0605 119.129C35.6703 117.985 36.2145 116.806 36.6905 115.599C36.9196 115.112 37.0876 114.598 37.1905 114.069C36.9178 114.529 36.6837 115.011 36.4905 115.509C36.0705 116.409 35.4905 117.649 34.7805 118.979C34.0705 120.309 33.3805 121.489 32.8605 122.339C32.5555 122.783 32.2879 123.251 32.0605 123.739Z" fill="#3C3378"/>
<path d="M115.061 118.869C115.923 118.669 116.766 118.395 117.581 118.049C118.432 117.79 119.259 117.455 120.051 117.049C119.163 117.132 118.292 117.351 117.471 117.699C116.613 117.965 115.8 118.359 115.061 118.869Z" fill="#3C3378"/>
<path d="M112.501 84.8095C112.61 84.646 112.694 84.4674 112.751 84.2795C112.891 83.9295 113.071 83.4194 113.281 82.7694C113.806 81.0923 114.2 79.3772 114.461 77.6395C114.731 75.9024 114.868 74.1473 114.871 72.3895C114.871 71.7095 114.871 71.1695 114.821 70.7895C114.822 70.5933 114.795 70.3981 114.741 70.2095C114.669 70.9304 114.635 71.6548 114.641 72.3794C114.576 74.124 114.412 75.8634 114.151 77.5895C113.882 79.3149 113.518 81.0242 113.061 82.7095C112.711 83.9995 112.461 84.7995 112.501 84.8095Z" fill="#3C3378"/>
<g opacity="0.3">
<path opacity="0.3" d="M61.6417 89.6993L58.7217 89.8993C59.3501 89.0766 60.1971 88.4472 61.1661 88.083C62.1351 87.7187 63.187 87.6343 64.2017 87.8393C64.1417 89.5893 62.3117 90.9693 62.4217 92.7193C62.5829 93.653 63.0261 94.5149 63.6917 95.1893L69.1017 101.869L68.7217 105.229C66.5017 102.049 64.2617 99.0993 62.0417 95.9293C61.2971 95.0044 60.7523 93.9353 60.4417 92.7893C60.3006 92.2133 60.34 91.6079 60.5547 91.0551C60.7693 90.5024 61.1488 90.029 61.6417 89.6993Z" fill="black"/>
</g>
<g opacity="0.3">
<path opacity="0.3" d="M32.7316 98.5995L31.8516 95.9995C33.3316 100.459 38.3716 103.869 40.0316 108.269C40.7094 110.13 40.8979 112.133 40.5792 114.087C40.2606 116.041 39.4453 117.881 38.2116 119.429C37.6416 120.129 36.6516 120.809 35.9016 120.299C35.6179 120.133 35.395 119.88 35.2654 119.578C35.1359 119.275 35.1065 118.94 35.1816 118.619C35.4216 118.019 37.1816 114.419 37.4616 113.849C37.7416 113.279 37.1716 112.179 36.4616 109.849C35.2716 105.769 33.9516 102.679 32.7316 98.5995Z" fill="black"/>
</g>
<path d="M120.361 92.3595L109.981 146.949C109.885 147.47 109.687 147.967 109.397 148.411C109.108 148.855 108.733 149.236 108.295 149.534C107.857 149.832 107.364 150.039 106.845 150.145C106.326 150.251 105.791 150.252 105.271 150.149L65.3914 142.479C64.8682 142.383 64.3696 142.182 63.9248 141.89C63.4799 141.599 63.0978 141.221 62.8007 140.779C62.5037 140.338 62.2976 139.842 62.1947 139.32C62.0918 138.798 62.0941 138.261 62.2014 137.739L73.2013 82.2195C73.3021 81.6926 73.5079 81.1914 73.8063 80.7457C74.1048 80.3 74.4899 79.9188 74.9387 79.6249C75.3874 79.331 75.8907 79.1304 76.4186 79.035C76.9465 78.9396 77.4882 78.9513 78.0114 79.0695L117.281 87.6795C118.305 87.9008 119.201 88.5151 119.777 89.3902C120.353 90.2653 120.563 91.3315 120.361 92.3595Z" fill="#7767ED"/>
<path d="M92.2106 117.209C95.8391 117.209 98.7806 114.268 98.7806 110.639C98.7806 107.011 95.8391 104.069 92.2106 104.069C88.5821 104.069 85.6406 107.011 85.6406 110.639C85.6406 114.268 88.5821 117.209 92.2106 117.209Z" fill="white"/>
<path d="M93.7715 112.539L90.4615 110.889C90.4615 110.889 89.3814 105.199 87.6314 103.189C85.8814 101.179 83.3015 98.8793 83.3215 98.3393C83.3415 97.7993 82.5115 94.0393 82.5115 94.0393C82.5115 94.0393 80.9615 92.6993 80.6615 95.3893C80.4717 96.9569 80.4717 98.5417 80.6615 100.109L70.2715 97.5193C69.2015 97.2493 67.8514 97.3593 67.9914 98.4293C68.0662 98.9026 68.2426 99.3542 68.5085 99.753C68.7743 100.152 69.1233 100.488 69.5315 100.739C69.8303 100.987 70.1683 101.183 70.5315 101.319C70.5315 101.319 68.8114 102.909 68.8114 104.479C68.8114 106.049 67.0315 109.679 68.6515 111.429C70.2715 113.179 77.6515 118.429 81.5815 119.109C85.5115 119.789 86.4515 120.939 88.2615 123.259L93.7715 112.539Z" fill="#FFBE9D"/>
<path d="M79.7905 99.9092C79.7405 99.9892 80.9805 100.709 82.3705 101.779C83.7605 102.849 84.7905 103.839 84.8605 103.779C84.2316 102.9 83.4531 102.139 82.5605 101.529C81.7417 100.828 80.8034 100.279 79.7905 99.9092Z" fill="#EB996E"/>
<path d="M69.9014 101.009C70.6764 101.466 71.5158 101.803 72.3914 102.009C73.2334 102.318 74.0998 102.555 74.9814 102.719C74.2076 102.26 73.3677 101.923 72.4914 101.719C71.6494 101.411 70.783 101.173 69.9014 101.009Z" fill="#EB996E"/>
<path d="M116.911 120.329L94.0417 110.639L85.4717 127.739L116.911 143.769V120.329Z" fill="#3C3378"/>
<path d="M94.4814 111.159C94.4814 111.249 100.631 113.789 108.281 116.849C115.931 119.909 122.171 122.319 122.201 122.239C122.231 122.159 116.061 119.609 108.401 116.549C100.741 113.489 94.5114 111.079 94.4814 111.159Z" fill="#3C3378"/>
<g opacity="0.3">
<path opacity="0.3" d="M115.411 119.269C118.188 119.83 120.907 120.65 123.531 121.719C124.612 122.12 125.624 122.687 126.531 123.399C126.987 123.766 127.366 124.22 127.644 124.736C127.922 125.251 128.095 125.817 128.151 126.399C127.398 126.069 126.689 125.645 126.041 125.139C123.451 122.529 118.971 121.019 115.171 119.569L115.411 119.269Z" fill="black"/>
</g>
<path d="M82.511 195.699C82.371 195.699 82.251 184.699 82.251 171.069C82.251 157.439 82.371 146.449 82.511 146.449C82.651 146.449 82.771 157.449 82.771 171.069C82.771 184.689 82.651 195.699 82.511 195.699Z" fill="#3C3378"/>
<path d="M53.7615 22.9294C54.3715 17.3594 55.2915 11.6094 58.3615 6.92937C61.4315 2.24937 67.2215 -1.07063 72.6416 0.319371L79.4415 3.63937C79.1663 18.9344 77.1365 34.1473 73.3916 48.9794C73.1345 50.4634 72.5353 51.8671 71.6416 53.0794C69.6416 55.3694 66.2115 55.4194 63.1915 55.2794C59.5415 55.1194 55.2715 54.5894 53.4915 51.4094C52.7564 49.8044 52.4366 48.0403 52.5615 46.2794C52.5012 38.4792 52.9019 30.6823 53.7615 22.9294Z" fill="#D9C0DE"/>
<path d="M89.7915 10.5595L69.2115 5.29942C62.6215 4.58942 58.2115 12.6995 57.7815 19.2995C57.3015 26.6495 57.0115 35.6495 57.8715 41.1395C59.5915 52.1395 68.0515 53.5995 68.0515 53.5995C67.5836 56.3783 67.5634 59.2142 67.9915 61.9995C69.0415 69.5295 74.0615 71.1295 78.0715 71.1295C84.4215 71.3495 90.8515 68.8895 91.1315 62.5395L93.2615 14.4795C93.2792 13.5102 92.9325 12.5696 92.2899 11.8437C91.6474 11.1178 90.7558 10.6595 89.7915 10.5595Z" fill="#FFBE9D"/>
<path d="M62.5811 28.4292C62.5782 28.7974 62.7184 29.1523 62.9721 29.419C63.2258 29.6858 63.5733 29.8436 63.9411 29.8592C64.1214 29.8728 64.3026 29.8503 64.4741 29.793C64.6455 29.7357 64.8039 29.6449 64.9398 29.5257C65.0758 29.4065 65.1866 29.2614 65.2658 29.0989C65.345 28.9364 65.391 28.7597 65.4011 28.5792C65.404 28.211 65.2639 27.8561 65.0101 27.5893C64.7564 27.3225 64.409 27.1647 64.0411 27.1492C63.8606 27.1342 63.6788 27.1557 63.5068 27.2125C63.3347 27.2692 63.1758 27.36 63.0396 27.4795C62.9033 27.5989 62.7925 27.7445 62.7138 27.9077C62.635 28.0709 62.5899 28.2482 62.5811 28.4292Z" fill="#3C3378"/>
<path d="M60.3611 24.8894C60.5311 25.0794 61.6011 24.2794 63.1311 24.2894C64.6611 24.2994 65.7611 25.0594 65.9311 24.8794C66.1011 24.6994 65.8311 24.4594 65.3511 24.1094C64.6783 23.6475 63.877 23.4096 63.0611 23.4294C62.2706 23.4236 61.4991 23.6725 60.8611 24.1394C60.4311 24.4294 60.2711 24.8094 60.3611 24.8894Z" fill="#3C3378"/>
<path d="M77.7314 28.4295C77.7357 28.7876 77.8752 29.1308 78.1218 29.3904C78.3684 29.65 78.704 29.8068 79.0614 29.8295C79.2422 29.8431 79.4239 29.8207 79.596 29.7635C79.768 29.7064 79.927 29.6156 80.0638 29.4966C80.2005 29.3775 80.3122 29.2325 80.3925 29.0699C80.4728 28.9073 80.52 28.7304 80.5314 28.5495C80.5318 28.1821 80.3908 27.8286 80.1376 27.5623C79.8844 27.296 79.5384 27.1375 79.1714 27.1195C78.9906 27.1101 78.8098 27.1366 78.6393 27.1975C78.4689 27.2584 78.3122 27.3524 78.1783 27.4743C78.0444 27.5961 77.9359 27.7432 77.8592 27.9072C77.7825 28.0711 77.7391 28.2487 77.7314 28.4295Z" fill="#3C3378"/>
<path d="M75.6007 25.3497C75.7807 25.5297 76.8507 24.7397 78.3807 24.7497C79.9107 24.7597 81.0107 25.5197 81.1807 25.3397C81.3507 25.1597 81.0807 24.9197 80.6007 24.5597C79.9369 24.1093 79.1529 23.8689 78.3507 23.8697C77.5618 23.8645 76.7916 24.1096 76.1507 24.5697C75.6807 24.9297 75.5207 25.2697 75.6007 25.3497Z" fill="#3C3378"/>
<path d="M69.7709 35.5994C68.9684 35.3515 68.1392 35.2004 67.3009 35.1494C66.9109 35.1494 66.5409 35.0294 66.4809 34.7694C66.448 34.3653 66.5387 33.9608 66.7409 33.6094C67.1109 32.6694 67.4909 31.6894 67.9009 30.6094C69.5009 26.3994 70.6709 22.9294 70.5009 22.8694C70.3309 22.8094 68.8909 26.1694 67.2809 30.3794C66.8909 31.3794 66.5209 32.3794 66.1709 33.3794C65.925 33.8459 65.8541 34.3851 65.9709 34.8994C66.0276 35.0348 66.1135 35.1561 66.2224 35.2546C66.3312 35.3531 66.4605 35.4264 66.6009 35.4694C66.8157 35.5298 67.0378 35.5601 67.2609 35.5594C68.0922 35.6832 68.9361 35.6967 69.7709 35.5994Z" fill="#3C3378"/>
<path d="M68.0605 53.6195C73.4565 53.7362 78.783 52.3847 83.4706 49.7095C83.4706 49.7095 79.0605 57.4295 68.0605 56.4295V53.6195Z" fill="#EB996E"/>
<path d="M74.5411 20.7396C74.6911 21.1496 76.2111 20.9596 78.0011 21.1796C79.7911 21.3996 81.2311 21.8896 81.4611 21.5196C81.5711 21.3396 81.3211 20.9496 80.7411 20.5196C79.9644 20.0251 79.0853 19.714 78.1704 19.61C77.2555 19.5061 76.3289 19.612 75.4611 19.9197C74.8111 20.2197 74.4811 20.5396 74.5411 20.7396Z" fill="#D9C0DE"/>
<path d="M59.9508 20.4293C60.2808 20.7793 61.5808 20.4293 63.1508 20.4293C64.7208 20.4293 66.0408 20.6593 66.3408 20.2993C66.4808 20.1293 66.2708 19.7793 65.6908 19.4493C64.8859 19.0437 63.9916 18.8477 63.0908 18.8793C62.1957 18.8864 61.3174 19.1241 60.5408 19.5693C59.9908 19.8493 59.8008 20.2093 59.9508 20.4293Z" fill="#D9C0DE"/>
<path d="M67.3711 8.1495C68.3241 9.46929 69.4625 10.6447 70.7511 11.6395L76.6711 16.7095C78.0621 17.9394 79.5283 19.0816 81.0611 20.1295C82.4486 21.009 83.8841 21.8103 85.3611 22.5295C86.8811 23.3095 87.7911 25.5295 89.3111 26.3095C89.6611 26.4895 90.7111 26.3095 91.0811 26.5095C91.1911 28.9795 91.7011 36.7995 91.9011 39.9195C92.2011 44.8395 91.3711 58.0495 91.3711 58.0495L95.5511 57.7495C98.7911 57.0195 101.991 52.9995 102.451 49.7495C102.871 46.6695 102.451 42.4595 102.451 39.9595C102.521 33.5395 100.811 27.1695 99.9411 20.8095C99.7156 18.2255 99.1125 15.6885 98.1511 13.2795C96.6211 9.94951 93.7811 7.3995 90.7611 5.2795C87.358 2.76622 83.4296 1.05675 79.2711 0.279503C77.1894 -0.0945218 75.0537 -0.0446368 72.9918 0.426171C70.9298 0.896978 68.9841 1.77902 67.2711 3.0195C66.7141 3.37693 66.311 3.92986 66.1411 4.5695C65.7011 6.1395 66.4711 6.7895 67.3711 8.1495ZM91.1411 26.5995C91.3211 26.8895 91.2511 27.6595 91.1411 26.5995V26.5995Z" fill="#D9C0DE"/>
<path d="M90.6206 29.6095C90.6398 29.0656 90.7964 28.5355 91.076 28.0686C91.3556 27.6017 91.7491 27.2133 92.2194 26.9397C92.6898 26.666 93.2219 26.5161 93.766 26.5038C94.3101 26.4915 94.8483 26.6173 95.3306 26.8695C96.4506 27.5195 97.3305 28.8095 97.2005 31.3095C96.9305 37.9495 90.3105 36.3095 90.3105 36.1195C90.3105 35.9295 90.4906 32.3595 90.6206 29.6095Z" fill="#FFBE9D"/>
<path d="M92.4407 33.6791C92.4407 33.6791 92.5507 33.7691 92.7507 33.8691C93.0213 33.9916 93.3277 34.0094 93.6107 33.9191C94.0504 33.6687 94.4162 33.3065 94.6708 32.8692C94.9255 32.4319 95.06 31.9351 95.0607 31.4291C95.099 30.8609 95.0138 30.2911 94.8107 29.7591C94.7549 29.5495 94.6494 29.3565 94.5032 29.1964C94.357 29.0362 94.1743 28.9137 93.9707 28.8391C93.8402 28.7938 93.6975 28.7983 93.5701 28.8519C93.4428 28.9054 93.3397 29.0041 93.2807 29.1291C93.1807 29.3091 93.2207 29.4391 93.1807 29.4491C93.1407 29.4591 93.0407 29.3391 93.1107 29.0591C93.1504 28.8953 93.2504 28.7524 93.3907 28.6591C93.5772 28.5298 93.8073 28.4795 94.0307 28.5191C94.303 28.5813 94.5543 28.7137 94.7596 28.9032C94.9649 29.0927 95.117 29.3326 95.2007 29.5991C95.4585 30.1834 95.5683 30.8222 95.5207 31.4591C95.5326 32.053 95.3679 32.6372 95.0475 33.1374C94.727 33.6377 94.2653 34.0315 93.7207 34.2691C93.5403 34.3119 93.3526 34.3144 93.1711 34.2764C92.9896 34.2384 92.8187 34.1607 92.6707 34.0491C92.4507 33.8391 92.4207 33.6891 92.4407 33.6791Z" fill="#EB996E"/>
<path d="M94.6913 36.5593C94.6933 36.8192 94.6179 37.0739 94.4747 37.2908C94.3315 37.5078 94.127 37.6772 93.8873 37.7776C93.6475 37.878 93.3833 37.9048 93.1282 37.8546C92.8732 37.8043 92.6389 37.6794 92.455 37.4955C92.2712 37.3117 92.1463 37.0774 92.096 36.8224C92.0458 36.5673 92.0726 36.3031 92.173 36.0633C92.2734 35.8235 92.4428 35.6191 92.6598 35.4759C92.8767 35.3327 93.1314 35.2573 93.3913 35.2593C93.7353 35.2619 94.0644 35.3997 94.3076 35.6429C94.5509 35.8862 94.6887 36.2153 94.6913 36.5593Z" fill="#3C3378"/>
<path d="M73.9212 38.4297C74.2237 38.8149 74.4273 39.2683 74.5142 39.7503C74.601 40.2323 74.5686 40.7283 74.4196 41.1948C74.2707 41.6614 74.0098 42.0844 73.6597 42.4269C73.3096 42.7694 72.8809 43.021 72.4112 43.1597C72.0415 43.2847 71.6409 43.2847 71.2712 43.1597C70.9717 42.9924 70.7092 42.7661 70.4995 42.4946C70.2898 42.223 70.1373 41.9118 70.0512 41.5797L69.4212 39.9997C69.3754 39.9165 69.3466 39.8251 69.3363 39.7307C69.326 39.6363 69.3344 39.5408 69.3612 39.4497C69.4202 39.3634 69.4973 39.2909 69.5871 39.2374C69.6769 39.1839 69.7772 39.1505 69.8812 39.1397L73.8012 38.1997" fill="#EB996E"/>
<path d="M71.3512 42.9494C71.9544 43.0311 72.5686 42.9517 73.1312 42.7193C73.7948 42.5069 74.3548 42.0539 74.7012 41.4494C74.8977 41.0781 74.9811 40.6575 74.9412 40.2393C74.9129 39.8065 74.8044 39.3826 74.6212 38.9893C74.4451 38.6118 74.1971 38.2722 73.8912 37.9893L73.7812 37.8994H73.6512C71.0612 38.8194 69.0212 39.2794 69.0412 39.3994C70.6726 39.2904 72.2777 38.9329 73.8012 38.3394H73.5712C73.8328 38.5921 74.0463 38.8902 74.2012 39.2193C74.3629 39.5376 74.4561 39.8862 74.4751 40.2427C74.494 40.5992 74.4382 40.9557 74.3112 41.2894C74.0377 41.8015 73.5963 42.204 73.0612 42.4294C72.0612 42.8094 71.3312 42.8594 71.3512 42.9494Z" fill="#3C3378"/>
<path d="M83.3914 11.0495C87.7465 13.7203 91.5321 17.2238 94.5314 21.3595L91.3914 27.6595C85.3014 27.5195 84.5414 26.9496 79.9614 22.9195C75.3814 18.8895 66.3014 10.8595 65.4014 4.82959C71.2514 6.02959 78.3014 7.92958 83.3914 11.0495Z" fill="#D9C0DE"/>
<path d="M96.3004 57.4295C96.3579 57.2052 96.4384 56.9873 96.5404 56.7795C96.7304 56.3595 96.9804 55.7795 97.3004 54.9395C98.1868 52.6644 98.8956 50.324 99.4204 47.9395C100.19 44.4101 100.526 40.8001 100.421 37.1895C100.39 35.0635 100.125 32.9475 99.6304 30.8795C99.1318 28.6684 97.97 26.6624 96.3004 25.1295C94.486 23.7339 92.4605 22.6368 90.3004 21.8795C88.2923 21.0988 86.3467 20.1661 84.4804 19.0895C81.3306 17.242 78.4417 14.982 75.8904 12.3695C74.1618 10.6231 72.5767 8.74034 71.1504 6.73948C70.6504 6.03948 70.2804 5.46949 70.0404 5.07949C69.8976 4.89591 69.7799 4.69414 69.6904 4.47949C69.8495 4.64904 69.9965 4.82947 70.1304 5.01948C70.3904 5.38948 70.7904 5.93949 71.3204 6.61949C72.7976 8.56218 74.4117 10.3968 76.1504 12.1095C78.7125 14.6591 81.5929 16.8674 84.7204 18.6795C86.5741 19.7299 88.5026 20.6424 90.4904 21.4095C92.6951 22.1787 94.7591 23.3036 96.6004 24.7395C98.3489 26.3364 99.5667 28.4301 100.091 30.7395C100.58 32.8451 100.838 34.9978 100.861 37.1595C100.946 40.8083 100.573 44.4535 99.7504 48.0095C99.1926 50.4051 98.4263 52.7473 97.4604 55.0095C97.1104 55.8095 96.8204 56.4195 96.6104 56.8195C96.5242 57.0311 96.4205 57.2351 96.3004 57.4295Z" fill="white"/>
<path d="M98.5516 22.6895C98.0992 21.0371 97.2671 19.5133 96.1216 18.2395C94.8689 16.8788 93.382 15.7543 91.7316 14.9195C89.6882 13.9072 87.5842 13.0222 85.4316 12.2695C81.4821 10.8384 77.773 8.81539 74.4316 6.26954C73.4239 5.49994 72.4622 4.67186 71.5516 3.78955C71.1964 3.49505 70.8775 3.15936 70.6016 2.78955C70.9847 3.04602 71.3459 3.33366 71.6816 3.64955C72.3716 4.22955 73.3616 5.04955 74.6816 5.97955C78.0355 8.4195 81.7102 10.3846 85.6016 11.8195C87.7778 12.5724 89.8995 13.4746 91.9516 14.5195C93.639 15.4002 95.1452 16.591 96.3916 18.0295C97.2358 18.9959 97.8784 20.1212 98.2816 21.3395C98.3865 21.6663 98.4667 22.0006 98.5216 22.3395C98.5616 22.5595 98.5716 22.6795 98.5516 22.6895Z" fill="white"/>
<path d="M55.0604 53.6395C55.0147 53.4564 54.9945 53.268 55.0004 53.0794C55.0004 52.6594 55.0004 52.0795 54.9304 51.4795C54.8704 50.0795 54.8104 48.0595 54.7704 45.5695C54.6804 40.5695 54.6104 33.6695 55.1204 26.0595C55.2444 22.4725 55.7506 18.909 56.6304 15.4295C57.3804 12.5623 58.7759 9.90467 60.7104 7.65953C62.0223 6.1473 63.6509 4.94216 65.4805 4.12953C65.9747 3.91536 66.4866 3.74471 67.0104 3.61953C67.189 3.56406 67.3737 3.53047 67.5604 3.51953C67.5604 3.51953 66.8104 3.72953 65.5604 4.31953C63.8021 5.17791 62.2448 6.39785 60.9904 7.89953C59.1354 10.13 57.8029 12.7472 57.0904 15.5595C56.2358 19.0193 55.7399 22.558 55.6104 26.1195C55.1004 33.7095 55.1104 40.6095 55.1004 45.5895V51.4295C55.1004 52.0795 55.1004 52.6095 55.1004 53.0395C55.1119 53.2403 55.0984 53.4419 55.0604 53.6395Z" fill="white"/>
</svg>
