<svg width="133" height="371" viewBox="0 0 133 371" fill="none" xmlns="http://www.w3.org/2000/svg">
<path d="M60.521 340.149L67.221 264.499L44.071 265.179L43.341 341.819L49.571 345.519L60.521 340.149Z" fill="#FFBE9D"/>
<path d="M42.951 339.599V340.719C42.951 340.719 24.071 348.719 23.951 352.289L61.711 351.459L60.921 338.899C58.152 340.301 55.1134 341.089 52.0124 341.209C48.9113 341.33 45.8206 340.781 42.951 339.599Z" fill="#9947A0"/>
<g opacity="0.6">
<path opacity="0.6" d="M57.171 343.009C57.5359 343.11 57.8504 343.343 58.0536 343.663C58.2568 343.982 58.3343 344.366 58.271 344.739C58.1826 345.108 57.9558 345.429 57.6376 345.636C57.3194 345.842 56.934 345.919 56.561 345.849C56.1738 345.741 55.8407 345.493 55.6263 345.153C55.4119 344.813 55.3316 344.405 55.401 344.009C55.5252 343.626 55.7947 343.306 56.1518 343.119C56.5089 342.932 56.9251 342.893 57.311 343.009" fill="#53165D"/>
</g>
<g opacity="0.6">
<path opacity="0.6" d="M61.691 351.429L61.501 348.429L25.381 350.329C25.381 350.329 23.721 351.099 23.931 352.279L61.691 351.429Z" fill="#53165D"/>
</g>
<path d="M42.831 340.829C42.831 341.009 43.771 341.079 44.691 341.649C45.611 342.219 46.111 342.989 46.281 342.909C46.451 342.829 46.151 341.769 45.021 341.099C43.891 340.429 42.791 340.659 42.831 340.829Z" fill="#53165E"/>
<path d="M38.911 342.549C38.911 342.729 39.681 343.029 40.321 343.799C40.961 344.569 41.161 345.379 41.321 345.369C41.481 345.359 41.591 344.309 40.781 343.369C39.971 342.429 38.911 342.429 38.911 342.549Z" fill="#53165E"/>
<path d="M36.761 347.339C36.931 347.339 37.171 346.449 36.671 345.449C36.171 344.449 35.311 344.069 35.231 344.229C35.151 344.389 35.701 344.909 36.101 345.739C36.501 346.569 36.581 347.329 36.761 347.339Z" fill="#53165E"/>
<path d="M113.471 253.879L101.681 349.679L86.541 348.089L85.701 254.689L113.471 253.879Z" fill="#FFBE9D"/>
<path d="M86.311 342.079C86.311 342.079 96.661 349.349 102.141 343.629L103.341 346.559L108.341 367.249C108.499 367.923 108.392 368.632 108.042 369.23C107.692 369.827 107.126 370.267 106.461 370.459C105.935 370.629 105.373 370.658 104.833 370.542C104.292 370.426 103.791 370.17 103.381 369.799C99.171 365.849 83.771 351.269 84.031 349.379L84.351 344.379C84.4 343.849 84.6103 343.346 84.9535 342.938C85.2967 342.531 85.7565 342.238 86.271 342.099L86.311 342.079Z" fill="#9947A0"/>
<g opacity="0.6">
<path opacity="0.6" d="M105.971 370.579L84.151 347.629V348.729C83.971 349.919 84.521 350.409 85.151 351.189C86.891 353.519 91.771 358.779 103.421 369.799C103.774 370.12 104.194 370.357 104.652 370.492C105.109 370.627 105.591 370.657 106.061 370.579H105.971Z" fill="#53165D"/>
</g>
<g opacity="0.6">
<path opacity="0.6" d="M87.681 344.499C87.8481 344.61 87.9912 344.753 88.1017 344.92C88.2123 345.087 88.2881 345.275 88.3245 345.471C88.3609 345.668 88.3572 345.871 88.3136 346.066C88.2701 346.262 88.1876 346.446 88.071 346.609C87.7883 346.932 87.4023 347.146 86.9791 347.215C86.5559 347.285 86.1218 347.205 85.751 346.989C85.5745 346.871 85.4237 346.719 85.3075 346.541C85.1914 346.363 85.1122 346.164 85.0749 345.954C85.0376 345.745 85.0428 345.531 85.0902 345.324C85.1377 345.117 85.2264 344.921 85.351 344.749C85.6773 344.438 86.1033 344.252 86.5536 344.225C87.0038 344.197 87.4493 344.33 87.811 344.599" fill="#53165D"/>
</g>
<path d="M99.931 359.029C100.678 358.237 101.562 357.586 102.541 357.109C103.619 356.762 104.75 356.61 105.881 356.659C105.881 356.589 105.551 356.379 104.881 356.269C104.005 356.149 103.112 356.259 102.291 356.589C101.495 356.899 100.802 357.425 100.291 358.109C99.921 358.629 99.861 359.009 99.931 359.029Z" fill="#53165E"/>
<path d="M101.821 362.569C102.666 362.191 103.531 361.857 104.411 361.569C105.347 361.445 106.288 361.368 107.231 361.339C106.784 361.072 106.284 360.905 105.766 360.85C105.248 360.795 104.724 360.853 104.231 361.019C102.551 361.429 101.671 362.499 101.821 362.569Z" fill="#53165E"/>
<path d="M96.331 354.429C97.5848 353.735 98.8845 353.127 100.221 352.609C101.636 352.265 103.072 352.018 104.521 351.869C103.035 351.451 101.454 351.521 100.011 352.069C97.561 352.849 96.201 354.369 96.331 354.429Z" fill="#53165E"/>
<path d="M96.141 348.209C96.211 348.359 97.821 347.819 99.891 347.829C101.961 347.839 103.581 348.339 103.641 348.179C102.522 347.479 101.207 347.157 99.891 347.259C97.671 347.259 96.061 348.079 96.141 348.209Z" fill="#53165E"/>
<path d="M101.061 347.819C101.114 347.482 101.076 347.137 100.951 346.819C100.714 345.926 100.287 345.094 99.701 344.379C99.2993 343.799 98.7204 343.364 98.051 343.139C97.8217 343.078 97.5795 343.082 97.3528 343.153C97.1261 343.224 96.9243 343.358 96.771 343.539C96.6443 343.713 96.555 343.911 96.5085 344.121C96.462 344.331 96.4595 344.548 96.501 344.759C96.7446 345.659 97.2897 346.448 98.0451 346.994C98.8004 347.54 99.7203 347.81 100.651 347.759C101.572 347.751 102.47 347.477 103.24 346.972C104.009 346.467 104.617 345.751 104.991 344.909C105.074 344.706 105.107 344.485 105.088 344.266C105.068 344.047 104.998 343.836 104.881 343.649C104.728 343.465 104.524 343.329 104.295 343.26C104.065 343.191 103.821 343.19 103.591 343.259C102.924 343.495 102.328 343.898 101.861 344.429C101.183 345.068 100.63 345.827 100.231 346.669C99.951 347.249 99.891 347.599 99.931 347.609C100.53 346.534 101.288 345.556 102.181 344.709C102.614 344.281 103.142 343.959 103.721 343.769C103.845 343.729 103.979 343.727 104.104 343.765C104.229 343.802 104.34 343.877 104.421 343.979C104.487 344.108 104.521 344.25 104.521 344.394C104.521 344.539 104.487 344.681 104.421 344.809C104.075 345.527 103.536 346.134 102.865 346.563C102.194 346.992 101.417 347.226 100.621 347.239C99.8352 347.28 99.0582 347.059 98.412 346.61C97.7658 346.161 97.2871 345.51 97.051 344.759C96.9887 344.467 97.0425 344.162 97.201 343.909C97.2832 343.805 97.3946 343.727 97.521 343.686C97.6474 343.645 97.7832 343.643 97.911 343.679C98.4689 343.867 98.9593 344.215 99.321 344.679C100.093 345.608 100.683 346.673 101.061 347.819Z" fill="#53165E"/>
<path d="M104.321 134.999C104.321 134.999 110.021 141.179 112.801 147.089C115.581 152.999 117.281 167.089 117.281 167.089C117.281 167.089 122.791 184.289 121.521 193.319C120.251 202.349 114.061 264.539 114.061 264.539C114.061 264.539 109.971 328.269 104.181 338.939L83.861 336.769L79.911 215.509L66.061 135.259L104.321 134.999Z" fill="#53165E"/>
<path d="M93.771 159.039C93.8643 158.734 93.9181 158.418 93.931 158.099C94.001 157.499 94.051 156.609 94.071 155.519C94.0776 152.68 93.9274 149.842 93.621 147.019C93.271 143.799 92.951 140.899 92.701 138.569C92.6305 137.398 92.4868 136.233 92.271 135.079C92.1554 136.253 92.1554 137.436 92.271 138.609C92.401 140.779 92.701 143.779 93.031 147.069C93.361 150.359 93.591 153.359 93.641 155.519C93.691 157.679 93.681 159.029 93.771 159.039Z" fill="#9947A0"/>
<path d="M89.591 144.809C90.2389 143.293 90.6406 141.683 90.781 140.039C91.0999 138.419 91.1539 136.757 90.941 135.119C90.5981 136.716 90.3577 138.332 90.221 139.959C89.9052 141.561 89.6947 143.181 89.591 144.809Z" fill="#9947A0"/>
<path d="M74.801 139.949C74.901 139.949 74.871 139.199 75.701 138.629C75.932 138.477 76.1968 138.384 76.4723 138.357C76.7478 138.331 77.0255 138.373 77.281 138.479C77.5915 138.602 77.8566 138.818 78.0406 139.096C78.2247 139.375 78.3187 139.704 78.3099 140.037C78.3012 140.371 78.1902 140.694 77.9918 140.963C77.7935 141.232 77.5175 141.433 77.201 141.539C76.9413 141.634 76.6623 141.663 76.3886 141.625C76.1149 141.587 75.8548 141.482 75.631 141.319C74.831 140.709 74.901 139.919 74.801 139.949C74.701 139.979 74.711 140.119 74.741 140.439C74.7981 140.899 75.0267 141.321 75.381 141.619C75.6505 141.855 75.9764 142.016 76.3269 142.088C76.6775 142.16 77.0407 142.14 77.381 142.029C77.7906 141.885 78.1467 141.62 78.4021 141.269C78.6575 140.918 78.8001 140.498 78.8109 140.064C78.8218 139.63 78.7004 139.203 78.4628 138.84C78.2253 138.476 77.8829 138.194 77.481 138.029C77.149 137.906 76.7907 137.869 76.4405 137.923C76.0903 137.978 75.76 138.121 75.481 138.339C75.1165 138.626 74.8679 139.034 74.781 139.489C74.711 139.779 74.771 139.949 74.801 139.949Z" fill="#9947A0"/>
<path d="M50.811 150.829C50.811 150.829 38.901 228.049 37.591 241.229C36.281 254.409 41.171 334.569 41.171 334.569L61.001 334.649L69.561 255.779L84.421 186.839L70.841 135.689L55.271 136.879L50.811 150.829Z" fill="#53165E"/>
<path d="M119.871 79.3394C119.847 79.5454 119.847 79.7534 119.871 79.9594C119.871 80.4094 119.871 80.9594 119.871 81.7294C119.871 82.1194 119.871 82.5494 119.871 83.0094C119.871 83.4694 119.791 84.0094 119.761 84.5294C119.661 85.6194 119.621 86.8594 119.401 88.2194C119.311 88.9094 119.221 89.6194 119.121 90.3594C119.021 91.0994 118.861 91.8694 118.721 92.6694C118.471 94.2694 118.071 95.9494 117.721 97.7294C116.901 101.269 115.871 105.139 114.721 109.199C113.571 113.259 112.621 117.149 111.851 120.719C111.501 122.509 111.131 124.199 110.921 125.819C110.801 126.619 110.661 127.389 110.571 128.139C110.481 128.889 110.431 129.609 110.361 130.299C110.191 131.669 110.191 132.919 110.151 134.019C110.151 134.569 110.151 135.079 110.151 135.549C110.151 136.019 110.151 136.439 110.211 136.829C110.211 137.569 110.281 138.159 110.301 138.609C110.3 138.815 110.323 139.02 110.371 139.219C110.386 139.013 110.386 138.806 110.371 138.599C110.371 138.149 110.371 137.599 110.371 136.829C110.371 136.439 110.371 136.009 110.371 135.549C110.371 135.089 110.421 134.549 110.451 134.029C110.511 132.939 110.531 131.689 110.721 130.329C110.801 129.649 110.881 128.929 110.961 128.179C111.041 127.429 111.201 126.669 111.331 125.869C111.561 124.269 111.941 122.579 112.331 120.799C113.131 117.249 114.131 113.369 115.241 109.319C116.351 105.269 117.361 101.379 118.171 97.8194C118.541 96.0294 118.921 94.3394 119.171 92.7294C119.301 91.9294 119.451 91.1594 119.551 90.4094C119.651 89.6594 119.721 88.9494 119.801 88.2594C120.001 86.8894 120.021 85.6394 120.091 84.5394C120.091 83.9994 120.161 83.4894 120.171 83.0194C120.181 82.5494 120.171 82.1194 120.171 81.7294C120.171 80.9994 120.171 80.3994 120.171 79.9594C120.091 79.7438 119.99 79.5362 119.871 79.3394Z" fill="#53165E"/>
<path d="M35.181 108.849L26.481 77.8494L15.751 79.8494C15.751 79.8494 18.321 82.7794 18.321 85.4694C18.321 88.1594 20.061 113.479 20.061 113.479C20.061 113.479 30.731 116.599 35.061 109.389" fill="#FFBE9D"/>
<path d="M26.481 77.8494C27.1522 75.917 27.2357 73.8291 26.721 71.8494C25.781 69.0594 22.561 66.8494 22.721 65.2094C22.881 63.5694 21.221 59.5094 19.721 59.8194C18.221 60.1294 17.041 61.6594 18.351 64.2394C19.1638 65.9336 19.8329 67.6931 20.351 69.4994C20.351 69.4994 4.35099 61.1594 3.03099 60.9794C1.71099 60.7994 0.410991 60.6194 0.0309915 61.6594C-0.349009 62.6994 2.89098 64.0394 2.89098 64.0394L7.191 69.6394C7.91395 71.7663 8.92323 73.7848 10.191 75.6394C11.7061 77.4013 13.5771 78.8225 15.681 79.8094L20.351 85.4294C20.351 85.4294 27.501 82.9994 26.481 77.8494Z" fill="#FFBE9D"/>
<path d="M3.25101 64.2294C3.25101 64.2294 3.39099 64.1394 3.64099 64.0194C3.9969 63.8543 4.39573 63.8053 4.78101 63.8794C6.05898 64.2504 7.18636 65.0171 8.00101 66.0694C8.85725 67.1122 9.58573 68.2536 10.171 69.4694C10.3834 69.9992 10.6624 70.4998 11.001 70.9594C10.8951 70.3961 10.7099 69.8507 10.451 69.3394C9.93455 68.0514 9.22286 66.8507 8.34101 65.7794C7.46371 64.6521 6.21753 63.8697 4.82102 63.5694C4.37859 63.5143 3.93114 63.6208 3.56101 63.8694C3.30101 64.0494 3.23101 64.2194 3.25101 64.2294Z" fill="#EB996E"/>
<path d="M9.121 66.3293C9.80238 66.9678 10.5782 67.4974 11.421 67.8994C12.1944 68.4303 13.0489 68.8322 13.951 69.0894C13.2674 68.449 12.488 67.9193 11.641 67.5193C10.8689 66.9925 10.0184 66.5909 9.121 66.3293Z" fill="#EB996E"/>
<path d="M17.611 69.9294C17.1866 69.7384 16.7264 69.6396 16.261 69.6396C15.7956 69.6396 15.3355 69.7384 14.911 69.9294C14.4616 70.0431 14.0404 70.2483 13.6739 70.5323C13.3074 70.8162 13.0035 71.1726 12.781 71.5794C13.4997 71.1029 14.2594 70.6913 15.051 70.3494C15.8894 70.13 16.7464 69.9894 17.611 69.9294Z" fill="#EB996E"/>
<path d="M51.061 110.639C51.141 111.099 38.931 127.579 34.971 130.639C25.261 138.219 18.111 127.969 18.821 119.289C19.531 110.609 44.821 69.8394 44.821 69.8394L52.991 89.0894L51.061 110.639Z" fill="#9947A0"/>
<path d="M114.971 65.4994L92.771 60.2794L90.671 56.7394L68.401 57.0994L63.231 62.6394L48.381 69.9194L60.841 122.229L102.641 124.379L114.971 65.4994Z" fill="white"/>
<path d="M89.561 56.0594L97.871 61.2194L115.331 65.0094L109.801 135.099C109.801 135.099 125.901 163.169 124.131 196.629L78.181 194.629C78.181 194.629 80.421 159.449 80.851 145.329C81.281 131.209 81.021 106.549 81.021 106.549L92.391 64.0794L89.561 56.0594Z" fill="#9947A0"/>
<path d="M66.841 61.2393L68.401 56.4594L62.601 62.2894L58.421 63.7594C52.651 65.9194 44.781 69.8694 44.781 69.8694L54.621 132.169C54.621 132.169 43.341 171.169 42.491 194.629C42.491 194.629 72.651 195.139 84.591 194.629L81.371 105.179C81.371 105.179 70.901 92.8194 69.161 80.4294C67.421 68.0394 66.841 61.2393 66.841 61.2393Z" fill="#9947A0"/>
<path d="M81.901 115.009C82.0442 114.901 82.175 114.777 82.291 114.639L83.351 113.489L87.231 109.189L100.361 94.4294L100.441 94.3394V94.2194C99.781 91.8194 99.081 89.2894 98.361 86.6994C98.041 85.5794 97.731 84.4694 97.431 83.3794L97.221 83.6694L105.931 83.3294H106.231L106.121 83.0494L100.291 67.3394L98.571 62.8394L98.101 61.6494C97.991 61.3794 97.931 61.2394 97.911 61.2494C97.937 61.393 97.9772 61.5337 98.031 61.6694L98.441 62.8894L100.041 67.4294L105.721 83.1994L105.911 82.9094L97.201 83.2194H96.911L96.991 83.4994C97.291 84.5894 97.601 85.6994 97.921 86.8194C98.641 89.4094 99.341 91.9394 100.011 94.3394V94.1294C94.821 100.079 90.281 105.269 87.011 109.019L83.231 113.429L82.231 114.619C82.061 114.859 81.891 115.009 81.901 115.009Z" fill="#53165E"/>
<path d="M62.651 62.0594C62.6076 62.2239 62.5742 62.3908 62.551 62.5594C62.501 62.9294 62.431 63.4094 62.341 64.0094C62.171 65.3294 61.931 67.1494 61.631 69.4194C61.061 74.0794 60.261 80.5294 59.351 87.9094V88.2094L59.651 88.1594L64.481 87.3294L64.231 87.0094C63.941 87.6594 63.621 88.3594 63.311 89.0694L61.501 93.1194L61.441 93.2494L61.531 93.3594L74.921 108.869L78.921 113.449C79.381 113.949 79.741 114.359 80.021 114.669C80.301 114.979 81.931 116.189 81.941 116.179C81.951 116.169 80.321 114.899 80.081 114.609L79.081 113.339L75.181 108.679L61.911 93.0594V93.2994C62.491 92.0094 63.101 90.6394 63.731 89.2494C64.041 88.5494 64.351 87.8494 64.651 87.2494L64.821 86.8494L64.401 86.9294L59.571 87.7694L59.831 88.0094C60.681 80.6194 61.421 74.1694 61.961 69.5094C62.201 67.2294 62.401 65.3994 62.541 64.0794C62.591 63.4794 62.641 62.9894 62.671 62.6194C62.6936 62.4328 62.6869 62.2439 62.651 62.0594Z" fill="#53165E"/>
<path d="M85.931 142.429C86.811 141.259 88.611 140.529 89.521 141.679C89.98 142.026 90.3218 142.506 90.5006 143.053C90.6793 143.6 90.6864 144.188 90.521 144.739C90.3845 145.077 90.1815 145.384 89.9241 145.642C89.6666 145.9 89.36 146.104 89.0223 146.241C88.6846 146.378 88.3229 146.446 87.9584 146.441C87.594 146.435 87.2344 146.356 86.901 146.209C86.5743 146.04 86.2871 145.803 86.0581 145.514C85.829 145.226 85.6633 144.893 85.5718 144.536C85.4803 144.179 85.465 143.807 85.5269 143.444C85.5888 143.081 85.7265 142.736 85.931 142.429Z" fill="#53165E"/>
<g opacity="0.3">
<path opacity="0.3" d="M105.881 83.0994C105.731 83.5694 102.611 84.0994 102.061 85.3694C101.628 86.7424 101.667 88.2209 102.171 89.5694C102.671 90.9112 102.942 92.3277 102.971 93.7594C102.791 96.3194 100.781 98.3194 98.891 100.049C93.621 104.899 87.181 110.159 81.891 115.049C86.571 109.049 92.661 102.919 97.821 97.3894C98.8346 96.5977 99.5387 95.4759 99.8109 94.219C100.083 92.962 99.9062 91.6494 99.311 90.5094L97.721 85.1594C97.591 84.6994 97.291 83.9294 97.221 83.6694C97.8792 83.5297 98.5485 83.4494 99.221 83.4294C101.442 83.181 103.677 83.0842 105.911 83.1394" fill="black"/>
</g>
<path d="M45.601 80.4294C45.6071 80.6073 45.6272 80.7846 45.661 80.9594C45.721 81.3594 45.801 81.8594 45.891 82.4794C46.121 83.8394 46.441 85.7294 46.821 88.0294C47.621 92.7694 48.701 99.2194 49.891 106.339C51.081 113.459 52.231 119.969 53.101 124.639C53.531 126.979 53.901 128.869 54.161 130.169C54.291 130.789 54.401 131.279 54.481 131.669C54.5085 131.847 54.5554 132.022 54.621 132.189C54.6226 132.008 54.6059 131.827 54.571 131.649L54.331 130.139C54.101 128.779 53.791 126.889 53.401 124.589C52.611 119.849 51.531 113.399 50.331 106.269C49.131 99.1394 48.001 92.6494 47.131 87.9794C46.691 85.6394 46.331 83.7494 46.061 82.4494C45.931 81.8294 45.831 81.3394 45.741 80.9494C45.7195 80.7702 45.6724 80.5951 45.601 80.4294Z" fill="#53165E"/>
<path d="M115.061 64.9394C118.339 66.0443 121.155 68.2123 123.061 71.0994C126.741 76.5594 133.141 129.489 132.891 133.159C132.641 136.829 129.471 146.159 120.891 144.909C112.311 143.659 89.561 127.779 89.561 127.779L97.391 112.599L113.991 120.429L111.731 94.2094L115.061 64.9394Z" fill="#9947A0"/>
<g opacity="0.3">
<path opacity="0.3" d="M64.541 139.829C65.081 137.449 68.031 136.679 70.451 136.369L109.921 131.369L113.351 142.469C113.128 145.031 112.524 147.545 111.561 149.929C111.066 151.116 110.315 152.179 109.363 153.043C108.411 153.908 107.28 154.551 106.051 154.929C103.841 155.469 101.541 154.819 99.371 154.179L70.371 145.579C68.8958 145.247 67.4975 144.636 66.251 143.779C65.6261 143.346 65.1349 142.746 64.8327 142.048C64.5306 141.35 64.4295 140.582 64.541 139.829Z" fill="black"/>
</g>
<g opacity="0.3">
<path opacity="0.3" d="M113.141 94.0294C113.611 92.1494 114.331 90.0294 116.141 89.3194C117.951 88.6094 120.301 89.9594 121.141 91.8394C121.981 93.7194 121.811 95.8894 121.511 97.9294C120.461 105.019 117.971 112.929 115.651 119.679L107.551 116.679C108.621 109.189 111.271 101.429 113.141 94.0294Z" fill="black"/>
</g>
<path d="M29.491 87.5594L37.491 111.559L27.141 119.079L18.781 122.429C18.781 122.429 17.221 110.429 17.611 114.609L15.751 89.9494L29.491 87.5594Z" fill="#9947A0"/>
<path d="M29.491 87.5594C29.5286 87.9201 29.5921 88.2777 29.681 88.6294C29.821 89.3094 30.051 90.2894 30.361 91.4994C30.991 93.9094 32.041 97.1794 33.361 100.749C34.681 104.319 35.721 107.579 36.361 109.969C36.701 111.159 36.971 112.129 37.141 112.799C37.2149 113.142 37.322 113.477 37.461 113.799C37.4225 113.439 37.359 113.081 37.271 112.729C37.131 112.049 36.891 111.069 36.581 109.869C35.961 107.459 34.901 104.179 33.581 100.609C32.261 97.0394 31.221 93.7794 30.581 91.3994C30.241 90.1994 29.971 89.2294 29.801 88.5594C29.7196 88.2196 29.6161 87.8856 29.491 87.5594Z" fill="#53165E"/>
<path d="M32.061 123.739C32.4409 123.351 32.7763 122.922 33.061 122.459C33.7936 121.39 34.4615 120.278 35.061 119.129C35.6708 117.985 36.215 116.806 36.691 115.599C36.9201 115.112 37.0881 114.598 37.191 114.069C36.9183 114.529 36.6842 115.011 36.491 115.509C36.071 116.409 35.491 117.649 34.781 118.979C34.071 120.309 33.381 121.489 32.861 122.339C32.556 122.783 32.2884 123.251 32.061 123.739Z" fill="#53165E"/>
<path d="M115.061 118.869C115.923 118.669 116.766 118.395 117.581 118.049C118.432 117.79 119.259 117.455 120.051 117.049C119.163 117.132 118.292 117.351 117.471 117.699C116.613 117.965 115.8 118.359 115.061 118.869Z" fill="#53165E"/>
<path d="M112.501 84.8094C112.61 84.6459 112.694 84.4673 112.751 84.2794C112.891 83.9294 113.071 83.4193 113.281 82.7693C113.806 81.0922 114.2 79.3771 114.461 77.6394C114.731 75.9023 114.868 74.1472 114.871 72.3894C114.871 71.7094 114.871 71.1694 114.821 70.7894C114.822 70.5932 114.795 70.398 114.741 70.2094C114.669 70.9303 114.635 71.6547 114.641 72.3793C114.576 74.1239 114.412 75.8633 114.151 77.5894C113.882 79.3148 113.518 81.0241 113.061 82.7094C112.711 83.9994 112.461 84.7994 112.501 84.8094Z" fill="#53165E"/>
<g opacity="0.3">
<path opacity="0.3" d="M61.641 89.6994L58.721 89.8994C59.3494 89.0767 60.1964 88.4473 61.1654 88.0831C62.1344 87.7188 63.1863 87.6344 64.201 87.8394C64.141 89.5894 62.311 90.9694 62.421 92.7194C62.5822 93.6531 63.0254 94.515 63.691 95.1894L69.101 101.869L68.721 105.229C66.501 102.049 64.261 99.0994 62.041 95.9294C61.2964 95.0045 60.7516 93.9354 60.441 92.7894C60.2999 92.2134 60.3393 91.608 60.554 91.0552C60.7686 90.5025 61.1481 90.0291 61.641 89.6994Z" fill="black"/>
</g>
<g opacity="0.3">
<path opacity="0.3" d="M32.731 98.5994L31.851 95.9994C33.331 100.459 38.371 103.869 40.031 108.269C40.7088 110.13 40.8973 112.133 40.5786 114.087C40.26 116.041 39.4447 117.881 38.211 119.429C37.641 120.129 36.651 120.809 35.901 120.299C35.6173 120.133 35.3944 119.88 35.2648 119.578C35.1353 119.275 35.1059 118.94 35.181 118.619C35.421 118.019 37.181 114.419 37.461 113.849C37.741 113.279 37.171 112.179 36.461 109.849C35.271 105.769 33.951 102.679 32.731 98.5994Z" fill="black"/>
</g>
<path d="M120.361 92.3594L109.981 146.949C109.885 147.47 109.687 147.967 109.397 148.411C109.108 148.855 108.733 149.236 108.295 149.534C107.857 149.832 107.364 150.039 106.845 150.145C106.326 150.251 105.791 150.252 105.271 150.149L65.391 142.479C64.8678 142.383 64.3692 142.182 63.9244 141.89C63.4795 141.599 63.0974 141.221 62.8003 140.779C62.5033 140.338 62.2972 139.842 62.1943 139.32C62.0914 138.798 62.0937 138.261 62.201 137.739L73.201 82.2194C73.3018 81.6925 73.5076 81.1913 73.806 80.7456C74.1045 80.2999 74.4895 79.9187 74.9383 79.6248C75.387 79.3309 75.8903 79.1303 76.4182 79.0349C76.9461 78.9395 77.4878 78.9512 78.011 79.0694L117.281 87.6794C118.305 87.9007 119.201 88.515 119.777 89.3901C120.353 90.2652 120.563 91.3314 120.361 92.3594Z" fill="url(#paint0_linear)"/>
<path d="M92.211 117.209C95.8395 117.209 98.781 114.268 98.781 110.639C98.781 107.011 95.8395 104.069 92.211 104.069C88.5825 104.069 85.641 107.011 85.641 110.639C85.641 114.268 88.5825 117.209 92.211 117.209Z" fill="white"/>
<path d="M93.771 112.539L90.461 110.889C90.461 110.889 89.381 105.199 87.631 103.189C85.881 101.179 83.301 98.8794 83.321 98.3394C83.341 97.7994 82.511 94.0394 82.511 94.0394C82.511 94.0394 80.961 92.6994 80.661 95.3894C80.4712 96.957 80.4712 98.5418 80.661 100.109L70.271 97.5194C69.201 97.2494 67.851 97.3594 67.991 98.4294C68.0658 98.9027 68.2421 99.3543 68.508 99.7531C68.7738 100.152 69.1228 100.488 69.531 100.739C69.8298 100.987 70.1678 101.183 70.531 101.319C70.531 101.319 68.811 102.909 68.811 104.479C68.811 106.049 67.031 109.679 68.651 111.429C70.271 113.179 77.651 118.429 81.581 119.109C85.511 119.789 86.451 120.939 88.261 123.259L93.771 112.539Z" fill="#FFBE9D"/>
<path d="M79.791 99.9094C79.741 99.9894 80.981 100.709 82.371 101.779C83.761 102.849 84.791 103.839 84.861 103.779C84.2321 102.9 83.4536 102.139 82.561 101.529C81.7422 100.828 80.8039 100.279 79.791 99.9094Z" fill="#EB996E"/>
<path d="M69.901 101.009C70.676 101.466 71.5154 101.803 72.391 102.009C73.233 102.318 74.0994 102.555 74.981 102.719C74.2072 102.26 73.3673 101.923 72.491 101.719C71.649 101.411 70.7826 101.173 69.901 101.009Z" fill="#EB996E"/>
<path d="M116.911 120.329L94.041 110.639L85.471 127.739L116.911 143.769V120.329Z" fill="#9947A0"/>
<path d="M94.481 111.159C94.481 111.249 100.631 113.789 108.281 116.849C115.931 119.909 122.171 122.319 122.201 122.239C122.231 122.159 116.061 119.609 108.401 116.549C100.741 113.489 94.511 111.079 94.481 111.159Z" fill="#53165E"/>
<g opacity="0.3">
<path opacity="0.3" d="M115.411 119.269C118.188 119.83 120.907 120.65 123.531 121.719C124.612 122.12 125.624 122.687 126.531 123.399C126.987 123.766 127.366 124.22 127.644 124.736C127.922 125.251 128.095 125.817 128.151 126.399C127.398 126.069 126.689 125.645 126.041 125.139C123.451 122.529 118.971 121.019 115.171 119.569L115.411 119.269Z" fill="black"/>
</g>
<path d="M82.511 195.699C82.371 195.699 82.251 184.699 82.251 171.069C82.251 157.439 82.371 146.449 82.511 146.449C82.651 146.449 82.771 157.449 82.771 171.069C82.771 184.689 82.651 195.699 82.511 195.699Z" fill="#53165E"/>
<path d="M53.761 22.9294C54.371 17.3594 55.291 11.6094 58.361 6.92937C61.431 2.24937 67.221 -1.07063 72.641 0.319371L79.441 3.63937C79.1658 18.9344 77.1359 34.1473 73.391 48.9794C73.1339 50.4634 72.5347 51.8671 71.641 53.0794C69.641 55.3694 66.211 55.4194 63.191 55.2794C59.541 55.1194 55.271 54.5894 53.491 51.4094C52.7559 49.8044 52.4361 48.0403 52.561 46.2794C52.5007 38.4792 52.9014 30.6823 53.761 22.9294Z" fill="#D9C0DE"/>
<path d="M89.791 10.5594L69.211 5.29936C62.621 4.58936 58.211 12.6994 57.781 19.2994C57.301 26.6494 57.011 35.6494 57.871 41.1394C59.591 52.1394 68.051 53.5994 68.051 53.5994C67.5831 56.3782 67.5629 59.2141 67.991 61.9994C69.041 69.5294 74.061 71.1294 78.071 71.1294C84.421 71.3494 90.851 68.8894 91.131 62.5394L93.261 14.4794C93.2787 13.5101 92.932 12.5695 92.2894 11.8436C91.6469 11.1177 90.7553 10.6594 89.791 10.5594Z" fill="#FFBE9D"/>
<path d="M62.581 28.4294C62.5781 28.7976 62.7183 29.1525 62.972 29.4192C63.2257 29.686 63.5732 29.8438 63.941 29.8594C64.1213 29.873 64.3025 29.8505 64.474 29.7932C64.6454 29.7359 64.8038 29.6451 64.9397 29.5259C65.0757 29.4067 65.1865 29.2616 65.2657 29.0991C65.3449 28.9366 65.3909 28.7599 65.401 28.5794C65.4039 28.2112 65.2638 27.8563 65.01 27.5895C64.7563 27.3227 64.4089 27.1649 64.041 27.1494C63.8605 27.1344 63.6787 27.1559 63.5067 27.2127C63.3346 27.2694 63.1757 27.3602 63.0395 27.4797C62.9032 27.5991 62.7924 27.7447 62.7137 27.9079C62.6349 28.0711 62.5898 28.2484 62.581 28.4294Z" fill="#53165E"/>
<path d="M60.361 24.8894C60.531 25.0794 61.601 24.2794 63.131 24.2894C64.661 24.2994 65.761 25.0594 65.931 24.8794C66.101 24.6994 65.831 24.4594 65.351 24.1094C64.6782 23.6475 63.8769 23.4096 63.061 23.4294C62.2705 23.4236 61.499 23.6725 60.861 24.1394C60.431 24.4294 60.271 24.8094 60.361 24.8894Z" fill="#53165E"/>
<path d="M77.731 28.4294C77.7353 28.7875 77.8748 29.1307 78.1214 29.3903C78.368 29.6499 78.7036 29.8067 79.061 29.8294C79.2418 29.843 79.4235 29.8206 79.5956 29.7634C79.7676 29.7063 79.9266 29.6155 80.0634 29.4965C80.2001 29.3774 80.3118 29.2324 80.3921 29.0698C80.4724 28.9072 80.5196 28.7303 80.531 28.5494C80.5314 28.182 80.3904 27.8285 80.1372 27.5622C79.884 27.2959 79.538 27.1374 79.171 27.1194C78.9902 27.11 78.8094 27.1365 78.6389 27.1974C78.4685 27.2583 78.3118 27.3523 78.1779 27.4742C78.044 27.596 77.9355 27.7431 77.8588 27.9071C77.7821 28.071 77.7387 28.2486 77.731 28.4294Z" fill="#53165E"/>
<path d="M75.601 25.3494C75.781 25.5294 76.851 24.7394 78.381 24.7494C79.911 24.7594 81.011 25.5194 81.181 25.3394C81.351 25.1594 81.081 24.9194 80.601 24.5594C79.9372 24.109 79.1532 23.8686 78.351 23.8694C77.5621 23.8642 76.7919 24.1093 76.151 24.5694C75.681 24.9294 75.521 25.2694 75.601 25.3494Z" fill="#53165E"/>
<path d="M69.771 35.5994C68.9685 35.3515 68.1393 35.2004 67.301 35.1494C66.911 35.1494 66.541 35.0294 66.481 34.7694C66.4481 34.3653 66.5388 33.9608 66.741 33.6094C67.111 32.6694 67.491 31.6894 67.901 30.6094C69.501 26.3994 70.671 22.9294 70.501 22.8694C70.331 22.8094 68.891 26.1694 67.281 30.3794C66.891 31.3794 66.521 32.3794 66.171 33.3794C65.9251 33.8459 65.8542 34.3851 65.971 34.8994C66.0277 35.0348 66.1136 35.1561 66.2225 35.2546C66.3313 35.3531 66.4606 35.4264 66.601 35.4694C66.8158 35.5298 67.0379 35.5601 67.261 35.5594C68.0923 35.6832 68.9362 35.6967 69.771 35.5994Z" fill="#53165E"/>
<path d="M68.061 53.6194C73.457 53.7361 78.7834 52.3846 83.471 49.7094C83.471 49.7094 79.061 57.4294 68.061 56.4294V53.6194Z" fill="#EB996E"/>
<path d="M74.541 20.7393C74.691 21.1493 76.211 20.9593 78.001 21.1793C79.791 21.3993 81.231 21.8893 81.461 21.5193C81.571 21.3393 81.321 20.9493 80.741 20.5193C79.9643 20.0248 79.0852 19.7137 78.1703 19.6097C77.2554 19.5058 76.3288 19.6117 75.461 19.9194C74.811 20.2194 74.481 20.5393 74.541 20.7393Z" fill="#D9C0DE"/>
<path d="M59.951 20.4294C60.281 20.7794 61.581 20.4294 63.151 20.4294C64.721 20.4294 66.041 20.6594 66.341 20.2994C66.481 20.1294 66.271 19.7794 65.691 19.4494C64.8861 19.0438 63.9918 18.8478 63.091 18.8794C62.1959 18.8865 61.3176 19.1242 60.541 19.5694C59.991 19.8494 59.801 20.2094 59.951 20.4294Z" fill="#D9C0DE"/>
<path d="M67.371 8.14938C68.324 9.46917 69.4624 10.6446 70.751 11.6394L76.671 16.7094C78.062 17.9393 79.5282 19.0815 81.061 20.1294C82.4485 21.0089 83.884 21.8102 85.361 22.5294C86.881 23.3094 87.791 25.5294 89.311 26.3094C89.661 26.4894 90.711 26.3094 91.081 26.5094C91.191 28.9794 91.701 36.7994 91.901 39.9194C92.201 44.8394 91.371 58.0494 91.371 58.0494L95.551 57.7494C98.791 57.0194 101.991 52.9994 102.451 49.7494C102.871 46.6694 102.451 42.4594 102.451 39.9594C102.521 33.5394 100.811 27.1694 99.941 20.8094C99.7155 18.2254 99.1124 15.6884 98.151 13.2794C96.621 9.94939 93.781 7.39938 90.761 5.27938C87.3579 2.7661 83.4295 1.05663 79.271 0.279381C77.1893 -0.0946439 75.0536 -0.0447589 72.9917 0.426049C70.9297 0.896856 68.984 1.7789 67.271 3.01938C66.714 3.37681 66.3109 3.92974 66.141 4.56938C65.701 6.13938 66.471 6.78938 67.371 8.14938ZM91.141 26.5994C91.321 26.8894 91.251 27.6594 91.141 26.5994V26.5994Z" fill="#D9C0DE"/>
<path d="M90.621 29.6094C90.6402 29.0655 90.7969 28.5354 91.0765 28.0685C91.3561 27.6016 91.7495 27.2132 92.2198 26.9396C92.6902 26.6659 93.2223 26.516 93.7664 26.5037C94.3105 26.4914 94.8487 26.6172 95.331 26.8694C96.451 27.5194 97.331 28.8094 97.201 31.3094C96.931 37.9494 90.311 36.3094 90.311 36.1194C90.311 35.9294 90.491 32.3594 90.621 29.6094Z" fill="#FFBE9D"/>
<path d="M92.441 33.6794C92.441 33.6794 92.551 33.7694 92.751 33.8694C93.0216 33.9919 93.328 34.0097 93.611 33.9194C94.0507 33.669 94.4165 33.3068 94.6711 32.8695C94.9258 32.4322 95.0603 31.9354 95.061 31.4294C95.0993 30.8612 95.0141 30.2914 94.811 29.7594C94.7552 29.5498 94.6497 29.3568 94.5035 29.1967C94.3573 29.0365 94.1746 28.914 93.971 28.8394C93.8405 28.7941 93.6978 28.7986 93.5704 28.8522C93.4431 28.9057 93.34 29.0044 93.281 29.1294C93.181 29.3094 93.221 29.4394 93.181 29.4494C93.141 29.4594 93.041 29.3394 93.111 29.0594C93.1507 28.8956 93.2507 28.7527 93.391 28.6594C93.5775 28.5301 93.8076 28.4798 94.031 28.5194C94.3033 28.5816 94.5546 28.714 94.7599 28.9035C94.9652 29.093 95.1173 29.3329 95.201 29.5994C95.4588 30.1837 95.5686 30.8225 95.521 31.4594C95.5329 32.0533 95.3682 32.6375 95.0478 33.1377C94.7273 33.638 94.2656 34.0318 93.721 34.2694C93.5406 34.3122 93.3529 34.3147 93.1714 34.2767C92.9899 34.2387 92.819 34.161 92.671 34.0494C92.451 33.8394 92.421 33.6894 92.441 33.6794Z" fill="#EB996E"/>
<path d="M94.691 36.5594C94.693 36.8193 94.6176 37.074 94.4744 37.2909C94.3312 37.5079 94.1267 37.6773 93.887 37.7777C93.6472 37.8781 93.383 37.9049 93.1279 37.8547C92.8729 37.8044 92.6386 37.6795 92.4547 37.4956C92.2709 37.3118 92.146 37.0775 92.0957 36.8225C92.0455 36.5674 92.0723 36.3032 92.1727 36.0634C92.2731 35.8236 92.4425 35.6192 92.6595 35.476C92.8764 35.3328 93.1311 35.2574 93.391 35.2594C93.735 35.262 94.0641 35.3998 94.3073 35.643C94.5506 35.8863 94.6884 36.2154 94.691 36.5594Z" fill="#53165E"/>
<path d="M73.921 38.4294C74.2235 38.8146 74.4271 39.268 74.514 39.75C74.6008 40.232 74.5684 40.728 74.4194 41.1945C74.2705 41.6611 74.0096 42.0841 73.6595 42.4266C73.3094 42.7691 72.8807 43.0207 72.411 43.1594C72.0413 43.2844 71.6407 43.2844 71.271 43.1594C70.9715 42.9921 70.709 42.7658 70.4993 42.4943C70.2896 42.2227 70.1371 41.9115 70.051 41.5794L69.421 39.9994C69.3752 39.9162 69.3464 39.8248 69.3361 39.7304C69.3258 39.636 69.3342 39.5405 69.361 39.4494C69.42 39.3631 69.4971 39.2906 69.5869 39.2371C69.6767 39.1836 69.777 39.1502 69.881 39.1394L73.801 38.1994" fill="#EB996E"/>
<path d="M71.351 42.9494C71.9542 43.0311 72.5684 42.9517 73.131 42.7193C73.7946 42.5069 74.3546 42.0539 74.701 41.4494C74.8975 41.0781 74.9809 40.6575 74.941 40.2393C74.9127 39.8065 74.8042 39.3826 74.621 38.9893C74.4449 38.6118 74.1969 38.2722 73.891 37.9893L73.781 37.8994H73.651C71.061 38.8194 69.021 39.2794 69.041 39.3994C70.6724 39.2904 72.2775 38.9329 73.801 38.3394H73.571C73.8326 38.5921 74.0461 38.8902 74.201 39.2193C74.3627 39.5376 74.4559 39.8862 74.4749 40.2427C74.4938 40.5992 74.438 40.9557 74.311 41.2894C74.0375 41.8015 73.5961 42.204 73.061 42.4294C72.061 42.8094 71.331 42.8594 71.351 42.9494Z" fill="#53165E"/>
<path d="M83.391 11.0493C87.7461 13.7201 91.5317 17.2236 94.531 21.3593L91.391 27.6593C85.301 27.5193 84.541 26.9494 79.961 22.9193C75.381 18.8893 66.301 10.8593 65.401 4.82935C71.251 6.02935 78.301 7.92934 83.391 11.0493Z" fill="#D9C0DE"/>
<path d="M96.301 57.4294C96.3585 57.2051 96.439 56.9872 96.541 56.7794C96.731 56.3594 96.981 55.7794 97.301 54.9394C98.1874 52.6643 98.8962 50.3239 99.421 47.9394C100.19 44.41 100.526 40.8 100.421 37.1894C100.39 35.0634 100.125 32.9474 99.631 30.8794C99.1324 28.6683 97.9706 26.6623 96.301 25.1294C94.4866 23.7338 92.4611 22.6367 90.301 21.8794C88.2929 21.0987 86.3473 20.166 84.481 19.0894C81.3312 17.2419 78.4423 14.9819 75.891 12.3694C74.1624 10.623 72.5773 8.74022 71.151 6.73936C70.651 6.03936 70.281 5.46937 70.041 5.07937C69.8982 4.89579 69.7805 4.69402 69.691 4.47937C69.8501 4.64892 69.9971 4.82935 70.131 5.01936C70.391 5.38936 70.791 5.93937 71.321 6.61937C72.7982 8.56206 74.4123 10.3967 76.151 12.1094C78.7131 14.659 81.5935 16.8673 84.721 18.6794C86.5747 19.7298 88.5032 20.6423 90.491 21.4094C92.6957 22.1786 94.7597 23.3035 96.601 24.7394C98.3495 26.3363 99.5673 28.43 100.091 30.7394C100.58 32.845 100.838 34.9977 100.861 37.1594C100.946 40.8082 100.573 44.4534 99.751 48.0094C99.1932 50.405 98.4269 52.7472 97.461 55.0094C97.111 55.8094 96.821 56.4194 96.611 56.8194C96.5248 57.031 96.4211 57.235 96.301 57.4294Z" fill="white"/>
<path d="M98.551 22.6894C98.0986 21.037 97.2665 19.5132 96.121 18.2394C94.8683 16.8787 93.3814 15.7542 91.731 14.9194C89.6876 13.9071 87.5836 13.0221 85.431 12.2694C81.4815 10.8383 77.7724 8.81521 74.431 6.26936C73.4233 5.49976 72.4616 4.67168 71.551 3.78937C71.1958 3.49487 70.8769 3.15918 70.601 2.78937C70.9841 3.04584 71.3453 3.33348 71.681 3.64937C72.371 4.22937 73.361 5.04937 74.681 5.97937C78.0349 8.41932 81.7096 10.3845 85.601 11.8194C87.7772 12.5723 89.8989 13.4745 91.951 14.5194C93.6384 15.4001 95.1446 16.5909 96.391 18.0294C97.2352 18.9958 97.8778 20.1211 98.281 21.3394C98.3859 21.6662 98.4661 22.0005 98.521 22.3394C98.561 22.5594 98.571 22.6794 98.551 22.6894Z" fill="white"/>
<path d="M55.061 53.6394C55.0153 53.4563 54.9951 53.2679 55.001 53.0793C55.001 52.6593 55.001 52.0794 54.931 51.4794C54.871 50.0794 54.811 48.0594 54.771 45.5694C54.681 40.5694 54.611 33.6694 55.121 26.0594C55.245 22.4724 55.7512 18.9089 56.631 15.4294C57.381 12.5622 58.7765 9.90449 60.711 7.65935C62.0229 6.14712 63.6514 4.94198 65.481 4.12935C65.9752 3.91518 66.4872 3.74453 67.011 3.61935C67.1896 3.56388 67.3743 3.53029 67.561 3.51935C67.561 3.51935 66.811 3.72935 65.561 4.31935C63.8027 5.17773 62.2454 6.39767 60.991 7.89935C59.136 10.1299 57.8035 12.7471 57.091 15.5594C56.2364 19.0192 55.7405 22.5579 55.611 26.1194C55.101 33.7094 55.111 40.6094 55.101 45.5894V51.4294C55.101 52.0794 55.101 52.6094 55.101 53.0394C55.1125 53.2402 55.099 53.4418 55.061 53.6394Z" fill="white"/>
<defs>
<linearGradient id="paint0_linear" x1="91.2773" y1="78.9711" x2="91.2773" y2="150.225" gradientUnits="userSpaceOnUse">
<stop stop-color="#ECBBF4"/>
<stop offset="1" stop-color="#CA63DD"/>
</linearGradient>
</defs>
</svg>
