<svg width="335" height="335" viewBox="0 0 335 335" fill="none" xmlns="http://www.w3.org/2000/svg">
<path d="M335 256.208H0V256.375H335V256.208Z" fill="#EBEBEB"/>
<path d="M52.5684 262.586H35.1484V262.754H52.5684V262.586Z" fill="#EBEBEB"/>
<path d="M134.288 260.771H98.041V260.938H134.288V260.771Z" fill="#EBEBEB"/>
<path d="M70.8727 268.811H53.2383V268.978H70.8727V268.811Z" fill="#EBEBEB"/>
<path d="M301.433 267.685H288.549V267.853H301.433V267.685Z" fill="#EBEBEB"/>
<path d="M282.579 267.685H262.285V267.853H282.579V267.685Z" fill="#EBEBEB"/>
<path d="M209.569 264.858H173.014V265.025H209.569V264.858Z" fill="#EBEBEB"/>
<path d="M145.524 51.8848H39.0068V151.648H145.524V51.8848Z" fill="#E6E6E6"/>
<path d="M149.35 51.8848H40.7969V151.648H149.35V51.8848Z" fill="#F0F0F0"/>
<path d="M145.524 151.648H39.0068V156.19H145.524V151.648Z" fill="#E6E6E6"/>
<path d="M155.721 151.648H47.168V156.19H155.721V151.648Z" fill="#F0F0F0"/>
<path d="M143.99 146.295V57.2451H46.1436V146.295H143.99Z" fill="#FAFAFA"/>
<path d="M56.3936 146.295L87.83 57.2451H102.664L71.2341 146.295H56.3936Z" fill="white"/>
<path d="M48.629 148.78C48.7303 148.78 48.8274 148.74 48.899 148.668C48.9706 148.597 49.0109 148.5 49.0109 148.398V60.7286C49.0109 60.6273 48.9706 60.5302 48.899 60.4585C48.8274 60.3869 48.7303 60.3467 48.629 60.3467C48.5277 60.3467 48.4306 60.3869 48.3589 60.4585C48.2873 60.5302 48.2471 60.6273 48.2471 60.7286V148.398C48.2471 148.5 48.2873 148.597 48.3589 148.668C48.4306 148.74 48.5277 148.78 48.629 148.78Z" fill="#E0E0E0"/>
<path d="M74.4238 146.295L105.853 57.2451H111.642L80.2059 146.295H74.4238Z" fill="white"/>
<path d="M143.99 146.288V57.2378H143.306V146.288H143.99Z" fill="#E6E6E6"/>
<path opacity="0.5" d="M150.616 68.1859H44.0993L43.6035 59.3218H150.12L150.616 68.1859Z" fill="#E6E6E6"/>
<path opacity="0.5" d="M150.616 77.1772H44.0993L43.6035 68.3198H150.12L150.616 77.1772Z" fill="#E6E6E6"/>
<path opacity="0.5" d="M150.616 86.1689H44.0993L43.6035 77.3115H150.12L150.616 86.1689Z" fill="#E6E6E6"/>
<path opacity="0.5" d="M150.616 95.1601H44.0993L43.6035 86.3027H150.12L150.616 95.1601Z" fill="#E6E6E6"/>
<path opacity="0.5" d="M150.616 104.158H44.0993L43.6035 95.3008H150.12L150.616 104.158Z" fill="#E6E6E6"/>
<path opacity="0.5" d="M150.616 113.15H44.0993L43.6035 104.292H150.12L150.616 113.15Z" fill="#E6E6E6"/>
<path d="M178.052 175.426H147.715V256.208H178.052V175.426Z" fill="#E6E6E6"/>
<path d="M173.45 256.208H178.053V245.207H168.632L173.45 256.208Z" fill="#F0F0F0"/>
<path d="M65.5661 175.426H35.2285V256.208H65.5661V175.426Z" fill="#E6E6E6"/>
<path d="M178.053 175.426H61.5527V249.454H178.053V175.426Z" fill="#F0F0F0"/>
<path d="M174.488 178.709H65.124V199.01H174.488V178.709Z" fill="#E6E6E6"/>
<path d="M134.275 184.022H105.337C92.7684 184.022 80.7553 181.516 72.1123 177.094H167.5C158.857 181.516 146.844 184.022 134.275 184.022Z" fill="#F0F0F0"/>
<path d="M66.1556 256.208H61.5527V245.207H70.9729L66.1556 256.208Z" fill="#F0F0F0"/>
<path d="M174.488 202.286H65.124V222.587H174.488V202.286Z" fill="#E6E6E6"/>
<path d="M134.275 207.606H105.337C92.7684 207.606 80.7553 205.1 72.1123 200.678H167.5C158.857 205.1 146.844 207.606 134.275 207.606Z" fill="#F0F0F0"/>
<path d="M174.488 225.87H65.124V246.171H174.488V225.87Z" fill="#E6E6E6"/>
<path d="M134.275 231.19H105.337C92.7684 231.19 80.7553 228.684 72.1123 224.262H167.5C158.857 228.684 146.844 231.19 134.275 231.19Z" fill="#F0F0F0"/>
<path d="M213.388 143.166H277.239V57.7607H213.388V143.166Z" fill="#E6E6E6"/>
<path d="M209.234 143.166H276.348V57.7607H209.234V143.166Z" fill="#F0F0F0"/>
<path d="M267.062 133.873V67.0469H218.527V133.873H267.062Z" fill="white"/>
<path d="M224.35 115.247H261.226V109.331H224.35V115.247Z" fill="#F0F0F0"/>
<path d="M229.401 123.762H256.175V117.846H229.401V123.762Z" fill="#F0F0F0"/>
<path d="M242.795 102.865C250.469 102.865 256.69 96.6439 256.69 88.9695C256.69 81.2951 250.469 75.0737 242.795 75.0737C235.12 75.0737 228.899 81.2951 228.899 88.9695C228.899 96.6439 235.12 102.865 242.795 102.865Z" fill="#F0F0F0"/>
<path d="M219.251 133.873V67.0469H218.521V133.873H219.251Z" fill="#E6E6E6"/>
<path d="M240.53 197.583C240.502 197.449 240.429 197.33 240.322 197.244C240.216 197.159 240.084 197.113 239.947 197.114H217.583C217.447 197.113 217.315 197.159 217.21 197.245C217.105 197.33 217.033 197.45 217.006 197.583L209.04 256.208H210.246L218.065 198.32H239.505L247.304 256.235H248.51L240.53 197.583Z" fill="#F0F0F0"/>
<path d="M283.912 197.583C283.885 197.449 283.811 197.33 283.705 197.244C283.599 197.159 283.466 197.113 283.33 197.114H260.938C260.803 197.113 260.671 197.159 260.566 197.245C260.461 197.33 260.388 197.45 260.362 197.583L252.416 256.208H253.622L261.421 198.32H282.861L290.646 256.208H291.852L283.912 197.583Z" fill="#F0F0F0"/>
<path d="M284.549 192.638H214.119C210.769 192.638 208.028 194.26 208.028 196.256V196.384C208.028 197.107 209.02 197.724 210.246 197.724H288.422C289.648 197.724 290.639 197.134 290.639 196.384V196.256C290.639 194.26 287.912 192.638 284.549 192.638Z" fill="#E0E0E0"/>
<path d="M288.857 163.621H242.292L235.545 191.118H282.11L288.857 163.621Z" fill="#E6E6E6"/>
<path d="M282.11 191.118L281.923 192.638H235.351L235.538 191.118H282.11Z" fill="#E6E6E6"/>
<path d="M287.43 163.621H240.858L234.111 191.118H280.676L287.43 163.621Z" fill="#F0F0F0"/>
<path d="M279.691 189.858L285.829 164.874H241.843L235.713 189.858H279.691Z" fill="white"/>
<path d="M268.543 191.118L268.355 192.638H217.073L217.261 191.118H268.543Z" fill="#F0F0F0"/>
<path d="M167.5 286.465C239.245 286.465 297.406 283.07 297.406 278.881C297.406 274.692 239.245 271.296 167.5 271.296C95.7548 271.296 37.5938 274.692 37.5938 278.881C37.5938 283.07 95.7548 286.465 167.5 286.465Z" fill="#F5F5F5"/>
<path d="M16.3699 223.71C13.7572 222.076 10.8043 221.062 7.73793 220.746C6.32812 220.602 4.76992 220.642 3.65197 221.497C3.52245 221.572 3.41526 221.68 3.34138 221.81C3.2675 221.941 3.22959 222.088 3.23151 222.238C3.30195 222.445 3.44402 222.62 3.63219 222.732C7.14432 225.409 12.4571 225.745 16.3699 223.695" fill="#77B033"/>
<path d="M16.1615 223.468C14.1623 222.001 12.2967 220.361 10.5866 218.567C8.86957 216.764 7.66272 214.537 7.08925 212.116C6.94085 211.38 6.89633 210.54 7.36626 209.952C11.8183 213.41 15.281 217.9 16.1615 223.468Z" fill="#77B033"/>
<path d="M16.3392 223.68C15.9264 221.257 15.96 218.78 16.4381 216.369C16.9971 213.983 18.2981 211.696 20.3411 210.337C21.1078 212.13 20.7764 214.195 20.2372 216.068C19.4 218.972 18.0933 221.72 16.3689 224.204" fill="#77B033"/>
<path d="M20.6932 231.475C18.0517 231.797 15.7466 233.19 13.7679 234.973C11.7847 236.778 10.4035 239.147 9.81055 241.761C12.4076 241.602 14.6088 239.785 16.2016 237.725C17.7945 235.665 18.9025 233.432 20.6536 231.515" fill="#77B033"/>
<path d="M21.6376 232.72C20.5986 230.08 20.2354 227.222 20.5809 224.405C20.9263 221.589 21.9696 218.903 23.6163 216.591C25.1003 221.946 24.571 227.993 21.6376 232.72Z" fill="#77B033"/>
<path d="M27.3951 239.567C24.979 239.42 22.5728 239.984 20.4748 241.19C18.3767 242.396 16.6791 244.19 15.5924 246.35C15.444 246.646 15.3154 247.017 15.5132 247.279C15.6151 247.377 15.7396 247.449 15.8758 247.489C16.012 247.529 16.1559 247.534 16.2948 247.506C18.6198 247.358 20.6825 245.96 22.3842 244.364C24.0858 242.768 25.5698 240.936 27.4496 239.557" fill="#77B033"/>
<path d="M27.2124 239.192C25.974 235.209 25.8985 230.955 26.9947 226.931C27.4251 225.35 28.1523 223.685 29.6115 222.949C29.6706 222.91 29.737 222.883 29.8067 222.87C29.8765 222.858 29.948 222.859 30.0171 222.875C30.1344 222.94 30.224 223.045 30.2694 223.171C30.7585 224.271 30.9708 225.473 30.8878 226.674C30.7995 227.874 30.6142 229.065 30.3337 230.236C29.8737 232.414 29.6264 234.751 28.4342 236.628C28.1513 237.081 27.8969 237.551 27.6724 238.036C27.4449 238.53 27.4449 238.678 27.2371 239.058" fill="#77B033"/>
<path d="M42.4482 241.459C41.3204 237.171 42.5174 231.974 45.2233 228.457C45.4261 228.2 45.6883 227.924 46.0147 227.963C46.5094 228.008 46.643 228.67 46.6182 229.168C46.4162 233.579 44.9707 237.843 42.4482 241.469" fill="#77B033"/>
<path d="M43.8232 242.398C49.042 243.751 55.0274 242.437 59.3657 239.241C56.766 237.938 53.7947 237.573 50.9563 238.209C48.1466 238.851 45.5793 240.111 43.8282 242.398" fill="#77B033"/>
<path d="M44.9805 239.542C47.904 234.785 53.5036 231.683 59.0835 231.396C58.4453 233.664 56.5755 235.427 54.4732 236.49C52.3708 237.552 50.0212 238.021 47.7012 238.466C46.8009 238.638 45.5642 238.831 44.9805 239.537" fill="#77B033"/>
<path d="M42.7403 225.686C43.5317 222.979 44.3281 220.252 44.5458 217.441C44.7635 214.63 44.3578 211.691 42.8986 209.28C40.168 214.551 39.891 220.716 42.6562 225.972" fill="#77B033"/>
<path d="M51.9258 221.052C55.1214 215.257 61.6312 210.629 68.2202 209.982C65.6776 216.3 58.7473 221.185 51.9258 221.052Z" fill="#77B033"/>
<path d="M49.9229 222.183C54.6816 222.909 58.7377 225.943 63.1847 227.785C64.1169 228.234 65.1503 228.431 66.1825 228.358C66.6639 228.356 67.1329 228.205 67.5258 227.928C67.9187 227.65 68.2164 227.258 68.3784 226.805C68.5405 226.352 68.5592 225.861 68.4318 225.397C68.3044 224.934 68.0369 224.52 67.6662 224.214C67.037 223.632 66.2968 223.183 65.4898 222.895C60.642 220.879 55.4482 220.83 50.3433 222.05" fill="#77B033"/>
<path d="M47.167 225.518C48.2454 225.829 48.6115 226.382 49.4672 227.108C52.3767 229.58 55.8183 231.346 59.5238 232.271C59.9047 232.365 60.4093 232.404 60.6022 232.058C60.7951 231.713 60.5577 231.387 60.34 231.115C58.724 229.223 56.6272 227.802 54.2705 227C51.9455 226.135 49.9372 225.098 47.167 225.32" fill="#77B033"/>
<path d="M44.0703 205.382C46.0243 207.175 48.3316 208.54 50.8444 209.391C53.3573 210.241 56.0202 210.559 58.6629 210.322C58.9065 210.324 59.1429 210.24 59.3307 210.085C59.6968 209.685 59.2565 209.068 58.8361 208.737C54.5473 205.392 49.3533 204.009 44.0801 205.363" fill="#77B033"/>
<path d="M47.7412 204.034C50.3257 202.136 53.3228 200.875 56.488 200.354C59.6533 199.833 62.897 200.066 65.9548 201.035C63.6595 203.293 60.4788 204.493 57.2734 204.839C54.0733 205.132 50.8464 204.86 47.7412 204.034Z" fill="#77B033"/>
<path d="M46.2765 194.781C45.8561 190.508 46.1281 187.129 45.8313 182.831C45.8313 182.49 45.7373 182.075 45.4158 181.952C44.9657 181.779 44.5947 182.332 44.4265 182.787C43.8024 184.778 43.6424 186.886 43.9588 188.948C44.2751 191.011 45.0594 192.974 46.2518 194.687" fill="#77B033"/>
<path d="M45.9697 195.255C48.8734 193.462 51.0499 191.121 53.0632 188.369C54.4631 186.457 55.6454 184.16 55.3288 181.814C53.3501 181.774 51.4902 182.856 50.209 184.348C48.9882 185.897 48.1007 187.682 47.6021 189.589C47.0332 191.471 46.6128 193.408 45.9697 195.255Z" fill="#77B033"/>
<path d="M52.9406 193.324C59.325 190.96 65.2364 187.479 70.3974 183.044C68.3149 182.204 65.9454 182.703 63.8381 183.538C59.0794 185.459 55.1864 188.7 52.8516 193.269" fill="#77B033"/>
<path d="M47.9297 197.597C51.1549 197.948 54.4246 198.175 57.6251 197.641C60.8256 197.108 63.7392 195.873 66.6726 194.638C66.93 194.567 67.1508 194.401 67.2909 194.174C67.3361 194.037 67.339 193.89 67.2993 193.751C67.2596 193.613 67.1791 193.49 67.0683 193.398C66.8421 193.22 66.5781 193.097 66.2966 193.037C63.106 192.148 59.6582 192.543 56.5171 193.62C53.5241 194.644 50.6461 195.977 47.9297 197.597Z" fill="#77B033"/>
<path d="M29.5272 205.531C27.3309 201.085 27.4694 195.922 29.369 191.358C30.7095 193.393 30.853 195.982 30.6254 198.402C30.3979 200.823 29.6361 203.342 29.5965 205.748" fill="#77B033"/>
<path d="M20.7416 201.104C17.9892 201.069 15.2595 201.607 12.7272 202.685C10.1949 203.762 7.91569 205.356 6.03516 207.363C8.77562 207.793 11.5952 207.087 14.0883 205.881C16.5814 204.676 18.7975 202.962 21.0137 201.267" fill="#77B033"/>
<path d="M14.8408 199.133C12.1547 198.916 9.56763 198.585 6.98547 199.375C4.40331 200.166 2.05364 201.974 1 204.444C3.53546 204.65 6.07971 204.17 8.36559 203.056C10.6356 201.943 12.8024 200.632 14.8408 199.138" fill="#77B033"/>
<path d="M23.5812 199.222C21.1672 197.641 18.684 196.031 15.8743 195.379C13.0646 194.727 9.79977 195.206 7.83594 197.325C10.1164 198.659 12.8766 198.807 15.5182 198.807C18.1597 198.807 21.3948 198.778 23.883 199.657" fill="#77B033"/>
<path d="M23.5968 199.351C19.4663 195.3 17.9032 188.023 19.5653 182.485C22.8258 187.471 24.2508 193.432 23.5968 199.351Z" fill="#77B033"/>
<path d="M34.9541 187.875C35.7307 186.067 36.2798 184.165 36.9822 182.327C37.6171 180.459 38.5951 178.725 39.8661 177.214C41.1562 175.695 42.9937 174.743 44.981 174.567C44.3462 177.357 43.1353 179.985 41.4259 182.281C39.7164 184.578 37.5458 186.493 35.053 187.905" fill="#77B033"/>
<path d="M32.9006 190.266C31.6095 188.492 30.1206 186.087 28.3695 184.768C26.6183 183.449 24.3478 182.644 22.2158 183.152C23.3209 185.086 24.862 186.735 26.7166 187.97C28.5713 189.205 30.6886 189.991 32.9006 190.266Z" fill="#77B033"/>
<path d="M33.3116 188.023C32.4657 185.879 31.6149 183.711 31.2736 181.433C30.9322 179.156 31.14 176.72 32.3074 174.73C34.573 179.013 35.3051 183.622 33.4254 188.068" fill="#77B033"/>
<path d="M34.9736 174.73C36.2598 170.486 40.1478 167.364 44.3723 165.932C44.8935 165.718 45.4586 165.633 46.0195 165.685C46.2986 165.716 46.5623 165.829 46.7777 166.009C46.9932 166.189 47.1509 166.428 47.2315 166.697C47.3799 167.418 46.7863 168.066 46.2421 168.545C42.9587 171.344 39.1402 173.448 35.0182 174.73" fill="#77B033"/>
<path d="M35.0233 171.262C35.1866 168.525 35.3547 165.749 36.2451 163.16C37.1355 160.572 38.857 158.136 41.355 157C41.7755 159.761 40.5586 162.513 39.0845 164.904C37.6104 167.295 35.8395 169.528 34.9541 172.181" fill="#77B033"/>
<path d="M34.9543 173.144C33.8908 170.051 33.782 166.124 31.927 163.432C30.631 161.55 28.5583 160.265 27.4404 158.27C26.7665 160.183 26.8605 162.283 27.7025 164.128C28.5461 165.953 29.7068 167.614 31.1306 169.034C32.5057 170.516 33.6781 171.598 34.9543 173.144Z" fill="#77B033"/>
<path d="M34.974 264.218C34.8948 264.218 34.8206 243.593 34.8157 218.152C34.8107 192.711 34.8701 172.082 34.9542 172.082C35.0383 172.082 35.1075 192.706 35.1125 218.152C35.1174 243.598 35.0581 264.218 34.974 264.218Z" fill="#77B033"/>
<path d="M53.0244 202.418C52.7742 202.537 52.5144 202.635 52.2478 202.71L50.1108 203.426C48.3102 204.039 45.8319 204.908 43.1459 206.029C40.4599 207.151 37.9766 208.094 36.5471 209.329C35.977 209.805 35.5236 210.405 35.2213 211.083C35.0185 211.577 34.9839 211.864 34.9542 211.859C34.9424 211.787 34.9424 211.713 34.9542 211.641C34.9866 211.437 35.0363 211.235 35.1026 211.039C35.375 210.32 35.82 209.678 36.3987 209.171C37.2652 208.446 38.2335 207.852 39.2727 207.408C40.4153 206.874 41.6866 206.316 43.0321 205.763C45.7281 204.661 48.2212 203.787 50.0465 203.238C50.9567 202.952 51.6987 202.744 52.2131 202.606C52.4771 202.518 52.7487 202.455 53.0244 202.418Z" fill="#77B033"/>
<path d="M58.9397 187.905C58.8759 187.99 58.8029 188.068 58.7221 188.137L58.0592 188.754C57.4458 189.317 56.6049 190.073 55.5859 191.002L47.3497 198.323C44.1344 201.183 41.3593 203.915 39.435 205.97C38.4754 206.998 37.7136 207.847 37.1942 208.44L36.5956 209.122C36.5304 209.206 36.4557 209.282 36.373 209.349C36.4233 209.255 36.483 209.165 36.5511 209.082C36.6748 208.919 36.8578 208.672 37.1051 208.366C37.5998 207.749 38.3369 206.884 39.2817 205.827C41.7684 203.115 44.3971 200.536 47.1568 198.101C50.382 195.25 53.3203 192.667 55.4523 190.844C56.4961 189.945 57.3568 189.209 57.99 188.67L58.6875 188.092C58.7624 188.018 58.8473 187.955 58.9397 187.905Z" fill="#77B033"/>
<path d="M43.8832 201.233C43.7991 201.193 44.4669 199.642 45.1396 197.686C45.8124 195.73 46.129 194.075 46.218 194.089C46.1451 195.353 45.8764 196.598 45.4216 197.78C45.1381 198.621 44.8078 199.445 44.4323 200.25C44.2937 200.6 44.1091 200.931 43.8832 201.233Z" fill="#77B033"/>
<path d="M34.9934 213.716C34.8103 213.542 34.6446 213.35 34.4987 213.143L33.2274 211.518C32.1639 210.14 30.6898 208.243 29.0376 206.163C27.3854 204.083 25.8668 202.211 24.7686 200.867L23.4677 199.267C23.2981 199.079 23.1489 198.873 23.0225 198.654C23.2185 198.815 23.3975 198.995 23.5567 199.193C23.8881 199.548 24.3581 200.077 24.9269 200.734C26.0696 202.048 27.6179 203.895 29.2701 205.975C30.9223 208.055 32.3766 209.981 33.3956 211.409C33.8903 212.116 34.3157 212.689 34.5927 213.094C34.7464 213.288 34.8806 213.496 34.9934 213.716Z" fill="#77B033"/>
<path d="M31.0362 208.643C30.2392 207.759 29.6704 206.694 29.3791 205.54C29.0671 204.531 28.9397 203.473 29.0032 202.418H29.1318C29.0724 202.655 29.0328 202.784 29.0081 202.779C28.9834 202.774 29.0081 202.641 29.0081 202.394H29.1417C29.2035 203.423 29.381 204.442 29.671 205.432C30.22 207.299 31.1154 208.593 31.0362 208.643Z" fill="#77B033"/>
<path d="M25.9267 202.221C25.5726 201.952 25.1873 201.726 24.7791 201.549C23.7366 201.242 22.6414 201.156 21.5637 201.297C20.4731 201.382 19.3912 201.556 18.3286 201.816C17.8926 201.952 17.4481 202.059 16.998 202.137C17.3943 201.899 17.8247 201.722 18.2742 201.613C19.334 201.283 20.4274 201.073 21.5341 200.986C22.6513 200.835 23.7887 200.957 24.8483 201.341C25.2992 201.501 25.6804 201.811 25.9267 202.221Z" fill="#77B033"/>
<path d="M24.7149 200.67C24.7149 200.714 24.0421 200.398 22.944 200.022C21.5111 199.539 20.0242 199.234 18.5167 199.113C17.0093 199.001 15.4938 199.078 14.0053 199.341C12.8627 199.548 12.1701 199.761 12.1553 199.711C12.3079 199.617 12.475 199.549 12.65 199.509C13.0876 199.358 13.5335 199.233 13.9856 199.133C17.0059 198.476 20.1528 198.717 23.038 199.825C23.4652 199.989 23.8816 200.181 24.2845 200.398C24.5714 200.556 24.7248 200.65 24.7149 200.67Z" fill="#77B033"/>
<path d="M34.954 194.07C34.4378 192.616 34.0132 191.131 33.6827 189.624C33.0445 187.124 32.5944 185.084 32.6933 185.064C32.7923 185.044 33.3512 187.04 33.9844 189.55C34.6176 192.059 35.0331 194.07 34.954 194.07Z" fill="#77B033"/>
<path d="M35.038 194.07C34.9489 194.099 34.573 192.756 33.6034 191.382C32.997 190.569 32.2869 189.839 31.4912 189.209C31.7925 189.283 32.0721 189.427 32.3074 189.629C32.9062 190.065 33.4264 190.599 33.8458 191.209C34.4856 192.043 34.8965 193.029 35.038 194.07Z" fill="#77B033"/>
<path d="M34.9737 253.211C34.9441 253.211 34.8797 252.717 34.6473 251.838C34.3066 250.605 33.8443 249.409 33.2671 248.267C31.8425 245.352 29.2455 241.662 25.9461 237.962C24.3087 236.099 22.7258 234.336 21.3803 232.651C20.171 231.17 19.0778 229.598 18.1105 227.948C17.4618 226.834 16.9107 225.665 16.4633 224.456C16.31 224.026 16.2011 223.69 16.1368 223.468C16.0961 223.352 16.068 223.233 16.0527 223.112C16.0824 223.112 16.2308 223.606 16.5474 224.426C17.0343 225.609 17.6097 226.753 18.2688 227.849C19.2538 229.474 20.3566 231.024 21.5683 232.488C22.9187 234.158 24.5066 235.907 26.1439 237.774C29.4533 241.484 32.0453 245.223 33.4353 248.183C33.9985 249.344 34.4347 250.563 34.7363 251.818C34.8184 252.16 34.8795 252.507 34.9193 252.856C34.9502 252.972 34.9684 253.091 34.9737 253.211Z" fill="#77B033"/>
<path d="M51.288 234.81C51.0149 234.995 50.7289 235.16 50.4322 235.304C49.6578 235.742 48.917 236.238 48.2161 236.786C47.1768 237.591 46.2025 238.476 45.3026 239.434C44.2786 240.516 43.225 241.765 42.1515 243.109C40.0047 245.801 37.9963 248.183 36.7893 250.084C36.1809 251.028 35.7357 251.823 35.4438 252.382C35.2998 252.679 35.1344 252.967 34.9492 253.241C34.9632 253.157 34.9899 253.075 35.0283 252.999C35.0926 252.841 35.1817 252.614 35.3152 252.327C35.6928 251.518 36.1173 250.731 36.5865 249.971C37.7589 248.024 39.7524 245.609 41.8943 242.921C42.9727 241.578 44.0362 240.323 45.08 239.246C45.9926 238.286 46.9855 237.405 48.048 236.613C48.7705 236.083 49.5367 235.616 50.3383 235.215C50.6202 235.077 50.8329 234.988 51.0061 234.924C51.0918 234.868 51.1876 234.829 51.288 234.81Z" fill="#77B033"/>
<path d="M51.6044 240.777C51.0102 240.911 50.4066 240.998 49.7989 241.039C48.3484 241.192 46.9147 241.474 45.5151 241.884C44.1319 242.335 42.8343 243.014 41.6765 243.895C40.791 244.576 40.3755 245.144 40.3359 245.11C40.3979 244.956 40.4886 244.815 40.6031 244.695C40.8825 244.335 41.1973 244.004 41.5429 243.707C42.6864 242.754 44.0032 242.032 45.4211 241.578C46.839 241.153 48.3015 240.894 49.7791 240.807C50.3857 240.746 50.9962 240.736 51.6044 240.777Z" fill="#77B033"/>
<path d="M40.86 244.458C40.766 244.403 41.5822 243.163 42.2105 241.494C42.8387 239.824 42.9426 238.327 43.0514 238.347C43.0981 238.676 43.088 239.01 43.0217 239.335C42.9313 240.111 42.7537 240.875 42.4924 241.612C42.2189 242.346 41.8673 243.048 41.4437 243.707C41.2928 243.988 41.0954 244.242 40.86 244.458Z" fill="#77B033"/>
<path d="M56.5664 218.77C56.4781 218.835 56.3816 218.888 56.2794 218.928L55.4286 219.313C55.0576 219.471 54.6075 219.674 54.098 219.941C53.5885 220.207 52.9899 220.474 52.3716 220.845L51.3822 221.408C51.0409 221.6 50.6996 221.837 50.3434 222.06C49.6163 222.499 48.8891 223.048 48.1076 223.596C46.4568 224.843 44.9009 226.21 43.4527 227.686C42.0179 229.185 40.6952 230.786 39.4954 232.478C38.9661 233.274 38.4517 234.02 38.0114 234.756C37.7987 235.126 37.5761 235.472 37.3931 235.818L36.8638 236.806C36.5126 237.438 36.2603 238.041 36.0179 238.559C35.7755 239.078 35.5776 239.547 35.4342 239.908L35.078 240.773C35.0399 240.874 34.9919 240.972 34.9346 241.064C34.9498 240.957 34.978 240.853 35.0187 240.753C35.0978 240.516 35.2017 240.224 35.3254 239.869C35.4985 239.412 35.6949 238.966 35.914 238.53C36.1465 238.001 36.384 237.389 36.7253 236.746L37.2199 235.729C37.398 235.373 37.6157 235.022 37.8284 234.652C38.234 233.901 38.7485 233.145 39.2728 232.34C41.6293 228.889 44.5567 225.864 47.9295 223.394C48.7209 222.845 49.458 222.307 50.195 221.872C50.5611 221.65 50.9024 221.418 51.2487 221.225L52.238 220.682C52.8663 220.321 53.4697 220.059 53.9941 219.807C54.5184 219.555 54.9834 219.367 55.3495 219.224L56.225 218.888C56.3345 218.837 56.4489 218.798 56.5664 218.77Z" fill="#77B033"/>
<path d="M43.6602 227.425C43.7815 227.008 44.0285 226.639 44.3675 226.367C45.1631 225.68 46.1747 225.292 47.2267 225.271C48.2597 225.269 49.2831 225.468 50.2392 225.859C50.6436 225.986 51.027 226.173 51.377 226.412C50.9656 226.328 50.5619 226.211 50.17 226.061C49.2268 225.733 48.2352 225.566 47.2366 225.567C46.2474 225.588 45.2908 225.924 44.506 226.526C44.2019 226.804 43.9192 227.104 43.6602 227.425Z" fill="#77B033"/>
<path d="M41.7314 229.411C41.6473 229.366 42.3744 228.299 42.5426 226.773C42.7108 225.246 42.2706 224.046 42.3596 224.021C42.4486 223.996 42.5575 224.288 42.696 224.787C42.8681 225.446 42.9167 226.131 42.8394 226.807C42.7617 227.485 42.557 228.142 42.2359 228.744C41.9836 229.198 41.761 229.435 41.7314 229.411Z" fill="#77B033"/>
<path d="M20.707 256.166C21.1522 264.07 23.5316 272.062 27.1921 280.169H43.0808C46.5731 272.146 48.7843 264.139 49.18 256.166H20.707Z" fill="#9B90EF"/>
<path d="M46.6184 268.921C46.6184 269.005 41.3799 269.069 34.9195 269.069C28.4592 269.069 23.2207 269.005 23.2207 268.921C23.2207 268.837 28.4592 268.772 34.9195 268.772C41.3799 268.772 46.6184 268.837 46.6184 268.921Z" fill="#FAFAFA"/>
<path d="M46.2666 271.776C46.2666 271.86 41.3545 271.924 35.2949 271.924C29.2352 271.924 24.3281 271.86 24.3281 271.776C24.3281 271.692 29.2303 271.628 35.2949 271.628C41.3595 271.628 46.2666 271.692 46.2666 271.776Z" fill="#FAFAFA"/>
<path d="M27.4502 261.343C27.6481 263.777 27.6481 266.224 27.4502 268.659C27.3661 268.659 27.2969 267.024 27.2969 264.998C27.2969 262.973 27.3661 261.343 27.4502 261.343Z" fill="#FAFAFA"/>
<path d="M35.9726 261.343C36.0567 261.343 36.121 263.037 36.121 265.132C36.121 267.226 36.0567 268.921 35.9726 268.921C35.8885 268.921 35.8242 267.226 35.8242 265.132C35.8242 263.037 35.8885 261.343 35.9726 261.343Z" fill="#FAFAFA"/>
<path d="M43.9765 261.278C44.1744 263.852 44.1744 266.436 43.9765 269.01C43.8924 269.01 43.8281 267.276 43.8281 265.142C43.8281 263.007 43.8924 261.278 43.9765 261.278Z" fill="#FAFAFA"/>
<path d="M48.6961 261.343C48.6961 261.422 42.5524 261.491 34.9741 261.491C27.3958 261.491 21.252 261.422 21.252 261.343C21.252 261.264 27.3908 261.19 34.9741 261.19C42.5573 261.19 48.6961 261.254 48.6961 261.343Z" fill="#FAFAFA"/>
<path d="M53.4179 222.554L52.7832 222.769L54.1866 226.92L54.8213 226.705L53.4179 222.554Z" fill="#5348A7"/>
<path d="M51.9177 219.144C51.2829 215.422 52.1085 211.599 54.2225 208.47C55.8225 206.275 58.0692 204.635 60.6478 203.78L60.8622 204.41C58.4118 205.217 56.2798 206.779 54.7719 208.872C52.7529 211.859 51.9678 215.511 52.581 219.063L51.9177 219.144Z" fill="#5348A7"/>
<path d="M237.18 248.335H133.029L124.124 222.018C120.995 212.752 110.945 205.268 101.679 205.268H66.1092C56.8498 205.268 51.8784 212.779 55.0073 222.018L63.925 248.376C65.3147 252.495 67.9617 256.074 71.4932 258.609C75.0247 261.144 79.2625 262.507 83.6096 262.506H237.18C238.484 262.506 239.735 261.988 240.657 261.066C241.58 260.143 242.098 258.892 242.098 257.588V253.26C242.099 252.614 241.972 251.973 241.725 251.376C241.479 250.779 241.117 250.236 240.66 249.778C240.203 249.321 239.661 248.958 239.064 248.71C238.466 248.463 237.826 248.335 237.18 248.335Z" fill="#5348A7"/>
<path opacity="0.2" d="M124.124 222.018C120.995 212.752 110.945 205.268 101.679 205.268H77.7202C68.4541 205.268 63.4894 212.779 66.6183 222.018L75.5293 248.376L133.022 248.335L124.124 222.018Z" fill="white"/>
<path opacity="0.2" d="M177.885 262.506H237.167C239.883 262.506 242.084 260.304 242.084 257.588V253.253C242.084 250.537 239.883 248.336 237.167 248.336H177.885C175.169 248.336 172.967 250.537 172.967 253.253V257.588C172.967 260.304 175.169 262.506 177.885 262.506Z" fill="white"/>
<path d="M180.987 275.517H177.878V262.506H182.937L180.987 275.517Z" fill="#263238"/>
<path d="M234.058 275.517H237.167V262.506H232.101L234.058 275.517Z" fill="#263238"/>
<path d="M90.4701 275.517H87.3613V262.506H92.4198L90.4701 275.517Z" fill="#263238"/>
<path d="M143.534 275.517H146.643V262.506H141.584L143.534 275.517Z" fill="#263238"/>
<path d="M99.3744 182.2C99.9238 184.391 102.369 186.595 103.086 187.479C103.803 188.364 100.232 189.375 100.232 189.375L96.6475 185.496L99.3744 182.2Z" fill="#263238"/>
<path d="M101.76 199.66L103.1 199.74L104.56 199.807C105.545 199.807 106.53 199.881 107.515 199.888C109.485 199.888 111.441 199.888 113.344 199.76C114.295 199.7 115.24 199.62 116.158 199.506C117.076 199.392 117.987 199.278 118.838 199.104C120.431 198.822 121.987 198.359 123.474 197.724L121.129 200.256C121.833 198.977 122.556 197.637 123.226 196.236C123.896 194.836 124.566 193.375 125.236 191.895C125.906 190.414 126.523 188.913 127.173 187.399C127.823 185.885 128.459 184.33 129.122 182.87L129.183 182.736C129.484 182.074 130.002 181.534 130.651 181.205C131.3 180.877 132.041 180.779 132.753 180.928C133.465 181.077 134.105 181.464 134.568 182.025C135.031 182.586 135.289 183.288 135.3 184.015C135.3 185.858 135.219 187.573 135.072 189.342C134.925 191.111 134.67 192.839 134.402 194.588C134.134 196.337 133.732 198.092 133.256 199.848C132.78 201.646 132.201 203.416 131.521 205.147C131.15 206.083 130.487 206.875 129.632 207.405L129.176 207.68C126.88 209.078 124.399 210.147 121.806 210.856C119.44 211.526 117.021 211.999 114.577 212.269C112.233 212.545 109.875 212.681 107.515 212.678C106.349 212.678 105.183 212.678 104.018 212.584C103.435 212.584 102.845 212.517 102.262 212.464L101.371 212.377L100.4 212.263C98.7969 212.043 97.3387 211.219 96.3246 209.958C95.3105 208.697 94.8176 207.096 94.9471 205.483C95.0766 203.87 95.8186 202.368 97.0208 201.285C98.223 200.202 99.7942 199.621 101.411 199.66H101.76Z" fill="#263238"/>
<path d="M133.028 180.974C129.591 180.203 128.935 182.28 128.6 183.915C128.265 185.55 129.464 187.834 132.184 188.464C134.904 189.094 135.36 187.218 135.487 186.233C135.615 185.248 137.002 181.865 133.028 180.974Z" fill="#5348A7"/>
<path d="M134.67 185.831L137.189 184.263L132.781 178.984C132.781 178.984 128.566 181.201 129.491 183.573L131.42 185.476C131.843 185.892 132.394 186.153 132.984 186.217C133.573 186.282 134.167 186.146 134.67 185.831Z" fill="#B55B52"/>
<path d="M129.477 183.459C128.7 179.439 132.379 178.287 132.707 176.25C132.714 176.131 132.764 176.019 132.847 175.933C132.931 175.848 133.042 175.796 133.161 175.786C133.28 175.776 133.398 175.81 133.495 175.88C133.591 175.951 133.658 176.054 133.685 176.17C133.895 176.956 133.794 177.794 133.404 178.508C132.921 179.071 135.461 182.093 133.183 183.439C131.955 183.24 130.703 183.247 129.477 183.459Z" fill="#B55B52"/>
<path d="M139.36 179.024L138.656 178.099C138.276 177.598 137.722 177.255 137.104 177.137C136.485 177.02 135.845 177.136 135.306 177.463L132.787 178.984L137.196 184.263L139.112 182.367C139.551 181.935 139.818 181.357 139.864 180.742C139.91 180.127 139.73 179.517 139.36 179.024Z" fill="#B55B52"/>
<path d="M208.678 247.23C207.874 245.89 206.259 246.238 204.43 245.89C204.43 245.89 207.465 238.051 209.12 239.016C212.511 241.026 216.49 238.105 220.061 234.065C220.557 233.502 221.83 235.244 220.959 236.744C218.782 240.523 215.653 242.104 214.025 243.974C212.631 245.562 212.624 246.801 211.298 247.866C210.192 248.737 209.475 248.57 208.678 247.23Z" fill="#263238"/>
<path d="M186.568 246.084C186.963 244.57 187.359 242.446 186.34 240.885C186.34 240.885 194.045 237.535 194.528 239.378C195.506 243.177 196.431 244.932 202.95 246.078C203.687 246.212 205.04 248.382 203.298 248.382C198.26 248.382 195.111 247.84 192.652 247.987C190.541 248.108 189.664 248.55 187.962 248.356C186.575 248.222 186.166 247.612 186.568 246.084Z" fill="#263238"/>
<path d="M104.225 201.167C98.2761 200.678 90.5376 201.992 86.0486 205.422C84.6096 206.485 83.5138 207.946 82.8969 209.625C82.2801 211.304 82.1692 213.127 82.578 214.869C86.1558 229.515 104.821 249.615 127.689 249.615L143.025 221.006C143.025 221.006 144.72 210.32 122.255 211.452C115.823 204.839 110.135 201.67 104.225 201.167Z" fill="#263238"/>
<path d="M140.861 218.896C153.79 214.218 167.17 210.897 180.786 208.986C193.02 207.311 195.245 241.146 195.245 241.146L186.34 242.607C184.699 233.187 179.573 230.634 177.302 223.519C167.748 232.416 146.596 240.101 130.75 233.649C133.176 227.331 134.067 226.333 136.512 222.554C138.583 219.385 140.861 218.896 140.861 218.896Z" fill="#5348A7"/>
<path opacity="0.3" d="M140.861 218.896C153.79 214.218 167.17 210.897 180.786 208.986C193.02 207.311 195.245 241.146 195.245 241.146L186.34 242.607C184.699 233.187 179.573 230.634 177.302 223.519C167.748 232.416 146.596 240.101 130.75 233.649C133.176 227.331 134.067 226.333 136.512 222.554C138.583 219.385 140.861 218.896 140.861 218.896Z" fill="black"/>
<path d="M134.234 226.125C134.234 226.125 158.87 226.487 180.578 231.947C190.983 234.56 210.728 238.996 210.728 238.996L206.903 246.714C206.903 246.714 194.333 247.645 173.932 244.081C160.17 249.146 147.882 249.615 127.702 249.615C127.561 236.932 134.234 226.125 134.234 226.125Z" fill="#5348A7"/>
<path opacity="0.2" d="M134.234 226.125C134.234 226.125 158.87 226.487 180.578 231.947C190.983 234.56 210.728 238.996 210.728 238.996L206.903 246.714C206.903 246.714 194.333 247.645 173.932 244.081C160.17 249.146 147.882 249.615 127.702 249.615C127.561 236.932 134.234 226.125 134.234 226.125Z" fill="black"/>
<path d="M94.7372 214.125L94.1075 220.108C93.8931 222.118 93.7256 224.128 93.5514 226.138C93.4777 227.137 93.3973 228.148 93.3504 229.133C93.3034 230.118 93.2364 231.143 93.1895 232.101C93.1359 234.058 93.1024 235.987 93.1895 237.823L91.7892 234.701C92.6364 235.804 93.6202 236.794 94.7171 237.649C95.3134 238.098 95.9433 238.56 96.6066 238.989C97.2699 239.418 97.9867 239.833 98.717 240.235C100.223 241.05 101.773 241.779 103.361 242.419C104.172 242.748 104.989 243.089 105.826 243.371C106.242 243.525 106.657 243.679 107.079 243.813L108.265 244.228L108.62 244.356C109.311 244.597 109.896 245.071 110.276 245.697C110.656 246.323 110.806 247.061 110.702 247.785C110.597 248.509 110.244 249.175 109.703 249.668C109.162 250.16 108.467 250.45 107.736 250.486C107.113 250.52 106.644 250.547 106.101 250.553C105.558 250.56 105.063 250.553 104.547 250.553C103.508 250.513 102.476 250.446 101.438 250.332C99.3348 250.097 97.2553 249.689 95.2196 249.113C93.0807 248.502 91.0123 247.666 89.049 246.62C88.0137 246.056 87.0136 245.43 86.054 244.744C85.0563 244.008 84.1176 243.195 83.2467 242.312C82.5352 241.621 82.0654 240.719 81.9067 239.739L81.8129 239.17C81.4371 236.876 81.1888 234.563 81.0692 232.242C80.9486 229.978 80.9352 227.74 80.9821 225.542C81.029 223.345 81.1697 221.127 81.3506 218.936C81.4511 217.844 81.5516 216.752 81.6923 215.66C81.833 214.567 81.9737 213.509 82.1613 212.31C82.4183 210.675 83.3043 209.205 84.6302 208.215C85.9561 207.225 87.6167 206.793 89.2571 207.011C90.8975 207.228 92.3876 208.079 93.4091 209.381C94.4307 210.683 94.9025 212.333 94.7239 213.978L94.7372 214.125Z" fill="#263238"/>
<path d="M110.657 250.258C113.377 248.155 111.555 245.87 110.215 244.858C109.25 244.191 108.076 243.896 106.91 244.029C105.744 244.162 104.666 244.714 103.877 245.582C102.289 247.196 102.758 250.185 103.629 250.667C104.5 251.149 107.019 253.066 110.657 250.258Z" fill="#5348A7"/>
<path d="M110.396 246.386L112.701 247.84L108.493 252.818C108.493 252.818 104.473 250.687 105.398 248.449L107.166 246.727C107.587 246.315 108.135 246.056 108.722 245.994C109.308 245.932 109.898 246.07 110.396 246.386Z" fill="#B55B52"/>
<path d="M114.704 252.818L114.034 253.689C113.671 254.161 113.147 254.482 112.561 254.589C111.976 254.697 111.371 254.584 110.865 254.272L108.493 252.818L112.701 247.84L114.503 249.649C114.916 250.062 115.164 250.612 115.201 251.195C115.238 251.779 115.061 252.355 114.704 252.818Z" fill="#B55B52"/>
<path d="M87.0996 191.03C88.7143 194.521 90.8382 200.712 89.1096 204.497C88.8758 205.012 88.8499 205.597 89.0372 206.13C89.2244 206.663 89.6104 207.103 90.1146 207.358C91.8365 208.216 94.9587 208.919 100.352 207.901C106.952 206.655 107.16 205.013 106.302 203.914C105.953 203.533 105.53 203.227 105.059 203.014C104.588 202.801 104.079 202.686 103.562 202.675C101.391 200.953 99.0055 197.281 100.071 194.668L87.0996 191.03Z" fill="#B55B52"/>
<path opacity="0.2" d="M100.018 194.776L92.7079 198.796C92.3661 199.352 94.0479 201.61 96.9289 201.938C98.626 202.104 100.334 201.759 101.833 200.946C100.379 199.111 99.3074 196.685 100.018 194.776Z" fill="black"/>
<path d="M100.085 181.215C99.8634 177.423 97.3643 176.042 97.3643 176.042C97.0053 176.629 96.7655 177.281 96.6586 177.96C96.5516 178.64 96.5797 179.334 96.7412 180.002L91.0127 184.592C93.485 186.769 100.306 185.007 100.085 181.215Z" fill="#263238"/>
<path d="M85.485 190.95C88.232 195.975 89.5854 199.05 93.4379 200.477C99.2401 202.621 104.513 197.261 103.321 191.52C102.249 186.354 97.9604 179.011 91.9304 179.332C90.5995 179.392 89.3061 179.792 88.1735 180.493C87.041 181.195 86.107 182.175 85.4607 183.34C84.8144 184.505 84.4773 185.816 84.4815 187.148C84.4858 188.48 84.8312 189.789 85.485 190.95Z" fill="#B55B52"/>
<path d="M94.0081 188.699C94.2024 189.121 94.5909 189.369 94.8656 189.228C95.1403 189.087 95.2006 188.652 95.0063 188.23C94.812 187.808 94.4234 187.56 94.1487 187.707C93.874 187.855 93.8004 188.27 94.0081 188.699Z" fill="#263238"/>
<path d="M98.7649 186.468C98.9592 186.89 99.3478 187.138 99.6225 186.997C99.8972 186.856 99.9574 186.421 99.7631 185.999C99.5688 185.577 99.1803 185.329 98.9056 185.469C98.6309 185.61 98.5639 186.046 98.7649 186.468Z" fill="#263238"/>
<path d="M97.3506 187.386C98.4547 188.444 99.6992 189.346 101.049 190.066C100.634 191.111 99.2199 191.406 99.2199 191.406L97.3506 187.386Z" fill="#A02724"/>
<path d="M96.4393 193.63C96.1501 193.821 95.8847 194.046 95.6486 194.3C95.6322 194.328 95.6258 194.36 95.6303 194.392C95.6348 194.424 95.6501 194.453 95.6736 194.475C95.6971 194.497 95.7273 194.51 95.7594 194.512C95.7914 194.515 95.8232 194.506 95.8496 194.488C96.2369 194.057 96.7202 193.724 97.2605 193.516C97.8007 193.307 98.3824 193.229 98.9584 193.288C98.993 193.294 99.0286 193.286 99.0574 193.266C99.0862 193.246 99.106 193.216 99.1125 193.181C99.1186 193.146 99.1108 193.109 99.0909 193.079C99.071 193.049 99.0404 193.028 99.0053 193.02C98.1044 192.906 97.1926 193.123 96.4393 193.63Z" fill="#263238"/>
<path d="M91.4744 185.59C91.4333 185.623 91.403 185.667 91.3875 185.717C91.3719 185.767 91.3719 185.821 91.3873 185.871C91.4932 186.198 91.5204 186.544 91.4668 186.883C91.4133 187.222 91.2804 187.543 91.0791 187.821C91.0334 187.878 91.0114 187.95 91.0176 188.022C91.0239 188.095 91.0579 188.162 91.1126 188.21C91.1681 188.255 91.2391 188.277 91.3104 188.271C91.3817 188.264 91.4478 188.23 91.4945 188.176C91.7579 187.831 91.9333 187.426 92.0057 186.998C92.078 186.57 92.0452 186.13 91.9099 185.717C91.9 185.683 91.8833 185.652 91.8611 185.624C91.8388 185.597 91.8113 185.574 91.7801 185.557C91.749 185.54 91.7148 185.53 91.6796 185.526C91.6444 185.523 91.6088 185.526 91.5749 185.536C91.5367 185.543 91.5016 185.562 91.4744 185.59Z" fill="#263238"/>
<path d="M97.8731 182.488C97.8114 182.494 97.754 182.522 97.7123 182.568C97.6868 182.594 97.6666 182.624 97.6527 182.657C97.6389 182.691 97.6318 182.727 97.6318 182.763C97.6318 182.799 97.6389 182.834 97.6527 182.868C97.6666 182.901 97.6868 182.931 97.7123 182.957C98.0209 183.263 98.3993 183.489 98.8148 183.616C99.2303 183.744 99.6705 183.768 100.098 183.687C100.133 183.679 100.166 183.665 100.195 183.644C100.225 183.623 100.249 183.596 100.268 183.566C100.287 183.535 100.299 183.501 100.305 183.465C100.31 183.43 100.308 183.394 100.299 183.359C100.282 183.289 100.237 183.229 100.176 183.191C100.115 183.154 100.041 183.142 99.9702 183.158C99.6311 183.215 99.2833 183.19 98.9558 183.085C98.6283 182.98 98.3306 182.798 98.0875 182.555C98.0588 182.529 98.0247 182.509 97.9877 182.498C97.9507 182.486 97.9116 182.483 97.8731 182.488Z" fill="#263238"/>
<path d="M88.7947 189.563C89.3642 191.747 91.8164 192.109 92.54 192.987C93.2636 193.865 89.7059 194.91 89.7059 194.91L87.4346 193.067L88.7947 189.563Z" fill="#263238"/>
<path d="M84.7882 195.921C85.8956 196.812 87.2967 197.254 88.7144 197.161C90.5569 197 90.7244 195.218 89.5653 193.811C88.5335 192.558 86.3292 191.131 84.7882 191.982C83.2472 192.833 83.4147 194.809 84.7882 195.921Z" fill="#B55B52"/>
<path d="M88.3122 192.685C89.7192 191.077 88.1514 186.468 87.4479 185.503C88.2653 184.833 91.4277 181.322 89.6924 179.178C87.9571 177.034 83.5016 179.178 83.5016 179.178C83.6364 179.47 83.8363 179.728 84.0859 179.931C84.3356 180.135 84.6285 180.278 84.9421 180.351C82.979 180.94 80.2521 182.361 79.9238 184.873C81.773 184.873 81.8333 184.578 81.8333 184.578C81.8333 184.578 79.2471 188.994 80.4933 191.365C80.6548 191.366 80.8148 191.335 80.9638 191.272C81.1128 191.21 81.2476 191.118 81.3603 191.002C81.4729 190.887 81.561 190.749 81.6192 190.599C81.6775 190.448 81.7047 190.287 81.6993 190.126C81.6993 190.126 82.6038 193.503 88.3122 192.685Z" fill="#263238"/>
<path d="M92.3924 177.188C89.8397 174.367 86.3624 175.775 86.3624 175.775C86.3404 176.358 86.4931 176.936 86.801 177.432C87.109 177.929 87.5582 178.322 88.091 178.562L87.421 185.503C90.7308 185.65 94.9451 180.002 92.3924 177.188Z" fill="#263238"/>
<path d="M96.855 178.468C96.1448 174.736 92.4531 174.133 92.4531 174.133C92.1265 174.617 91.952 175.187 91.952 175.771C91.952 176.355 92.1265 176.925 92.4531 177.409L88.2656 182.984C91.0193 184.826 97.5652 182.2 96.855 178.468Z" fill="#263238"/>
<path d="M129.531 249.615C128.191 250.285 126.241 249.615 126.241 249.615C126.241 249.615 125.196 224.309 141.584 216.417C142.61 216.417 143.28 218.018 143.28 218.018C138.375 221.728 134.651 226.781 132.56 232.564C129.089 242.245 129.531 249.615 129.531 249.615Z" fill="#5348A7"/>
<path d="M239.746 99.5957C239.002 103.394 238.259 110.362 240.919 112.895C236.006 114.084 231.503 116.572 227.88 120.098C225.2 115.14 229.107 112.895 229.107 112.895C233.341 111.883 233.234 108.741 232.497 105.786L239.746 99.5957Z" fill="#FFC3BD"/>
<path d="M229.066 116.325C229.937 112.808 227.324 112.265 231.639 110.59C234.989 109.25 241.435 109.21 242.962 110.356C243.813 111.026 242.694 113.156 242.694 113.156L229.066 116.325Z" fill="#263238"/>
<path d="M248.992 116.178C249.133 116.513 249.207 116.701 249.307 116.949L249.575 117.619C249.749 118.081 249.89 118.543 250.037 118.999C250.325 119.923 250.58 120.848 250.808 121.772C251.262 123.639 251.58 125.535 251.759 127.447C252.16 131.353 251.886 135.299 250.949 139.112C250.821 139.588 250.701 140.07 250.54 140.546L250.433 140.901L250.372 141.082L250.279 141.363C250.097 141.88 249.842 142.367 249.521 142.81C249.012 143.511 248.373 144.107 247.639 144.566C247.084 144.916 246.496 145.21 245.883 145.444C243.942 146.128 241.91 146.523 239.853 146.616C236.179 146.818 232.493 146.609 228.865 145.993C228.399 145.915 227.977 145.67 227.676 145.305C227.375 144.94 227.216 144.479 227.229 144.006C227.241 143.534 227.423 143.081 227.743 142.732C228.062 142.383 228.496 142.161 228.966 142.107H229.04C232.391 141.782 235.723 141.283 239.023 140.613C239.787 140.45 240.543 140.249 241.287 140.01C241.935 139.821 242.563 139.569 243.163 139.26C243.659 139.012 243.947 138.636 243.713 138.831C243.641 138.915 243.585 139.01 243.545 139.112V139.152V139.079L243.579 138.945L243.639 138.663C243.733 138.301 243.793 137.926 243.867 137.551C244.366 134.496 244.4 131.383 243.967 128.318C243.764 126.74 243.473 125.174 243.096 123.628C242.909 122.858 242.694 122.087 242.466 121.337L242.105 120.225L241.917 119.689L241.756 119.24L241.682 119.046C241.328 118.084 241.362 117.021 241.779 116.085C242.196 115.148 242.962 114.412 243.914 114.032C244.867 113.652 245.93 113.658 246.877 114.051C247.824 114.443 248.581 115.189 248.985 116.131L248.992 116.178Z" fill="#FFC3BD"/>
<path d="M229.978 146.06L224.041 145.39L226.185 140.164C227.96 140.961 229.663 141.907 231.277 142.991L229.978 146.06Z" fill="#FFC3BD"/>
<path d="M221.77 142.616L223.07 140.466C223.205 140.24 223.406 140.062 223.645 139.954C223.885 139.846 224.152 139.814 224.41 139.863L226.219 140.191L224.075 145.417L222.259 144.392C222.109 144.309 221.977 144.197 221.87 144.062C221.764 143.927 221.686 143.772 221.64 143.607C221.595 143.442 221.583 143.269 221.605 143.099C221.627 142.928 221.683 142.764 221.77 142.616Z" fill="#FFC3BD"/>
<path d="M247.163 113.498C250.098 115.508 252.201 119.468 253.608 126.777C252.268 129.404 242.969 132.225 242.969 132.225C242.969 132.225 236.919 107.87 247.163 113.498Z" fill="#5348A7"/>
<path d="M227.284 146.315L209.985 149.805C209.448 149.891 208.897 149.801 208.415 149.55C207.933 149.299 207.543 148.9 207.305 148.412L195.915 123.447C195.802 123.243 195.741 123.014 195.735 122.78C195.73 122.546 195.781 122.315 195.884 122.105C195.988 121.895 196.14 121.714 196.328 121.575C196.517 121.437 196.736 121.346 196.967 121.31L214.266 117.819C214.803 117.734 215.353 117.824 215.836 118.074C216.318 118.325 216.707 118.724 216.946 119.213L228.336 144.177C228.449 144.382 228.51 144.611 228.516 144.845C228.521 145.079 228.47 145.31 228.366 145.52C228.263 145.73 228.111 145.911 227.923 146.05C227.734 146.188 227.515 146.279 227.284 146.315Z" fill="#263238"/>
<path d="M209.71 148.184C209.512 148.214 209.31 148.18 209.133 148.088C208.956 147.995 208.813 147.848 208.725 147.668L197.335 122.704C197.293 122.629 197.269 122.545 197.267 122.46C197.264 122.374 197.282 122.289 197.32 122.211C197.358 122.134 197.413 122.067 197.483 122.017C197.552 121.966 197.632 121.933 197.717 121.92L215.016 118.429C215.212 118.399 215.413 118.432 215.589 118.523C215.765 118.615 215.907 118.76 215.995 118.938L227.385 143.903C227.427 143.978 227.45 144.062 227.453 144.148C227.455 144.234 227.437 144.32 227.399 144.397C227.362 144.475 227.306 144.542 227.237 144.594C227.168 144.645 227.088 144.679 227.003 144.693L209.71 148.184Z" fill="white"/>
<path d="M205.502 128.674C205.372 128.671 205.245 128.633 205.134 128.564C205.023 128.495 204.933 128.397 204.873 128.281C204.813 128.165 204.786 128.035 204.794 127.905C204.803 127.775 204.846 127.649 204.92 127.541L209.174 121.511C209.289 121.368 209.453 121.274 209.635 121.249C209.816 121.224 210 121.269 210.15 121.376C210.299 121.482 210.402 121.641 210.437 121.821C210.472 122.001 210.438 122.187 210.34 122.342L206.092 128.372C206.024 128.465 205.936 128.541 205.833 128.593C205.731 128.646 205.618 128.673 205.502 128.674Z" fill="#5348A7"/>
<path d="M217.583 121.853C217.69 124.412 213.656 130.328 218.641 133.759C219.224 138.925 219.981 144.01 221.321 152.519H247.337C244.563 143.139 246.5 136.834 249.944 120.359C250.131 119.457 250.127 118.525 249.932 117.625C249.737 116.724 249.355 115.874 248.81 115.131C248.266 114.388 247.571 113.767 246.772 113.309C245.972 112.851 245.085 112.566 244.168 112.473C243.13 112.366 242.031 112.279 240.905 112.225C236.973 111.947 233.026 111.947 229.093 112.225C227.813 112.346 226.494 112.506 225.234 112.681C223.051 112.994 221.06 114.104 219.648 115.798C218.235 117.492 217.499 119.649 217.583 121.853Z" fill="#5348A7"/>
<path d="M220.631 149.008C220.545 149.712 220.712 150.424 221.1 151.018C229.587 149.546 238.243 149.321 246.794 150.348C246.948 149.725 246.904 149.069 246.667 148.472C246.667 148.472 235.666 146.623 220.631 149.008Z" fill="#263238"/>
<path d="M207.318 133.632L207.988 128.151L202.575 129.779C203.2 131.627 203.978 133.42 204.899 135.139L207.318 133.632Z" fill="#FFC3BD"/>
<path d="M205.429 125.612L203.157 126.69C202.924 126.801 202.73 126.98 202.6 127.204C202.471 127.428 202.413 127.686 202.434 127.943L202.575 129.779L207.988 128.151L207.144 126.241C207.074 126.086 206.974 125.947 206.849 125.831C206.725 125.715 206.578 125.625 206.419 125.566C206.259 125.508 206.089 125.482 205.919 125.489C205.749 125.497 205.582 125.539 205.429 125.612Z" fill="#FFC3BD"/>
<path d="M227.324 120.479C227.063 121.491 226.815 122.355 226.527 123.267C226.239 124.178 225.944 125.056 225.636 125.947C224.999 127.709 224.296 129.457 223.546 131.179C222.795 132.901 221.958 134.61 221.06 136.285C220.162 137.96 219.164 139.595 218.105 141.203L217.971 141.41C217.705 141.815 217.351 142.155 216.936 142.406C216.521 142.656 216.055 142.81 215.573 142.857C214.016 142.999 212.447 142.769 210.996 142.187C209.665 141.629 208.464 140.798 207.472 139.749C206.607 138.82 205.878 137.774 205.308 136.64C205.041 136.104 204.804 135.554 204.598 134.992C204.395 134.413 204.227 133.822 204.095 133.223C204.007 132.804 204.059 132.367 204.243 131.981C204.427 131.594 204.733 131.279 205.114 131.084C205.496 130.889 205.93 130.824 206.352 130.901C206.773 130.978 207.157 131.191 207.445 131.508L207.707 131.809C207.941 132.077 208.256 132.479 208.544 132.807C208.832 133.136 209.141 133.477 209.449 133.779C210.014 134.35 210.646 134.852 211.331 135.273C211.861 135.616 212.457 135.844 213.08 135.943C213.581 136.006 214.089 135.967 214.574 135.829L212.042 137.477C212.846 135.997 213.609 134.489 214.32 132.928C215.03 131.367 215.707 129.792 216.33 128.184C216.953 126.576 217.562 124.955 218.125 123.32L218.943 120.861C219.204 120.057 219.479 119.193 219.7 118.463V118.376C219.98 117.371 220.647 116.518 221.556 116.006C222.464 115.493 223.539 115.362 224.544 115.642C225.549 115.922 226.401 116.589 226.914 117.498C227.427 118.406 227.557 119.481 227.277 120.486L227.324 120.479Z" fill="#FFC3BD"/>
<path d="M223.056 113.23C219.827 114.731 216.631 117.706 215.331 124.741C216.189 127.548 224.952 132.218 224.952 132.218C224.952 132.218 234.091 109.438 223.056 113.23Z" fill="#5348A7"/>
<path d="M223.211 96.0913C223.311 96.5938 223.123 97.0628 222.795 97.1231C222.467 97.1834 222.125 96.835 222.011 96.3258C221.897 95.8166 222.098 95.3543 222.427 95.2873C222.755 95.2203 223.11 95.5821 223.211 96.0913Z" fill="#263238"/>
<path d="M222.581 95.2874L221.294 95.1802C221.294 95.1802 222.105 96.0043 222.581 95.2874Z" fill="#263238"/>
<path d="M223.11 96.6543C222.891 97.899 222.501 99.1076 221.951 100.245C222.244 100.381 222.563 100.451 222.886 100.451C223.208 100.451 223.527 100.381 223.82 100.245L223.11 96.6543Z" fill="#ED847E"/>
<path d="M222.983 99.8298C222.331 99.7951 221.713 99.5235 221.247 99.066C220.502 98.3623 219.965 97.4678 219.693 96.4798C219.057 94.2286 219.733 92.0578 221.194 91.6491C221.593 91.5602 222.008 91.5749 222.4 91.6922C222.792 91.8095 223.147 92.0254 223.432 92.3191C224.187 93.0394 224.728 93.9556 224.993 94.9655C225.623 97.2167 224.953 99.3809 223.492 99.7896C223.325 99.8262 223.154 99.8398 222.983 99.8298ZM221.696 91.8635C221.556 91.8644 221.417 91.8823 221.281 91.917C220.001 92.2788 219.432 94.2621 220.015 96.3324C220.259 97.2814 220.765 98.1427 221.475 98.8181C221.716 99.0775 222.019 99.2705 222.356 99.3785C222.693 99.4865 223.052 99.5058 223.398 99.4345C224.685 99.0727 225.254 97.0962 224.671 95.0192C224.42 94.0728 223.915 93.2131 223.211 92.5335C222.802 92.1393 222.263 91.908 221.696 91.8835V91.8635Z" fill="#263238"/>
<path d="M221.495 93.552C221.456 93.5558 221.416 93.5504 221.379 93.5364C221.342 93.5225 221.308 93.5005 221.281 93.4717C221.225 93.4142 221.194 93.3372 221.194 93.2572C221.194 93.1772 221.225 93.1002 221.281 93.0427C221.602 92.6836 222.004 92.4064 222.454 92.2339C222.904 92.0615 223.388 91.9988 223.867 92.0511C223.947 92.0658 224.018 92.1114 224.064 92.1779C224.11 92.2443 224.129 92.3265 224.115 92.4064C224.109 92.4454 224.094 92.4825 224.073 92.5159C224.052 92.5493 224.024 92.5782 223.992 92.6007C223.959 92.6232 223.923 92.6391 223.884 92.6471C223.845 92.6552 223.805 92.6551 223.767 92.6474C223.392 92.6169 223.015 92.6743 222.666 92.815C222.317 92.9558 222.005 93.176 221.757 93.4581C221.724 93.4935 221.683 93.5206 221.637 93.537C221.592 93.5533 221.543 93.5585 221.495 93.552Z" fill="#263238"/>
<path d="M239.632 91.12C240.49 97.418 240.972 100.064 238.54 103.85C234.862 109.572 227.083 109.21 224.39 103.294C221.964 97.9339 220.966 88.5539 226.447 84.8957C231.927 81.2375 238.768 84.8019 239.632 91.12Z" fill="#FFC3BD"/>
<path d="M230.306 104.594C234.239 106.49 242.024 105.304 244.577 99.5955C247.129 93.8871 244.49 85.8471 238.547 84.0783C232.698 82.3497 227.478 84.0113 226.721 90.0078C225.964 96.0043 226.929 102.966 230.306 104.594Z" fill="#263238"/>
<path d="M219.854 96.5671C219.812 96.5672 219.771 96.5514 219.74 96.5229C219.709 96.4943 219.69 96.4551 219.686 96.413C219.683 96.3696 219.696 96.3264 219.723 96.2927C219.751 96.2589 219.79 96.2372 219.834 96.2321C219.914 96.2321 227.874 95.4482 231.974 95.8636C231.996 95.8661 232.018 95.8729 232.037 95.8837C232.056 95.8945 232.073 95.9091 232.087 95.9266C232.101 95.944 232.111 95.964 232.117 95.9854C232.123 96.0068 232.124 96.0292 232.122 96.0512C232.12 96.073 232.114 96.0942 232.104 96.1135C232.094 96.1329 232.08 96.15 232.063 96.1638C232.046 96.1776 232.026 96.1878 232.005 96.1938C231.984 96.1997 231.962 96.2014 231.941 96.1986C227.874 95.7899 219.948 96.5537 219.881 96.5671H219.854Z" fill="#263238"/>
<path d="M221.335 152.485C221.335 152.485 221.288 186.568 223.874 208.209C224.283 228.53 226.601 275.98 226.601 275.98H231.726C231.726 275.98 239.686 235.539 237.18 211.479C247.619 177.108 240.758 152.519 240.758 152.519L221.335 152.485Z" fill="#FFC3BD"/>
<path d="M226.4 271.785C224.906 273.306 223.391 277.862 218.4 279.377C215.164 280.355 216.457 281.387 221.341 281.387C226.989 281.387 228.55 278.928 230.46 278.928C232.369 278.928 233.468 277.695 232.155 273.641C227.901 273.119 226.4 271.785 226.4 271.785Z" fill="#263238"/>
<path d="M232.577 275.437C232.772 277.408 232.742 279.395 232.49 281.36H230.942L229.14 277.434L232.577 275.437Z" fill="#263238"/>
<path d="M228.135 152.485C228.135 152.485 238.781 192.243 244.811 210.775C251.15 230.205 257.086 274.546 257.099 276.013H261.534C261.534 276.013 266.117 240.074 258.084 210.755C255.913 163.185 247.364 152.519 247.364 152.519L228.135 152.485Z" fill="#FFC3BD"/>
<path d="M256.69 272.469C255.551 274.365 254.238 278.499 251.183 279.377C248.128 280.254 249.361 281.387 253.943 281.387C257.052 281.387 257.964 278.928 259.732 278.928C261.501 278.928 263.042 277.688 261.796 273.635C258.077 274.03 256.69 272.469 256.69 272.469Z" fill="#263238"/>
<path d="M262.225 275.618C262.372 277.53 262.352 279.451 262.164 281.36H259.618L258.024 277.434L262.225 275.618Z" fill="#263238"/>
<path d="M229.053 97.277C228.994 97.8529 228.813 98.4096 228.522 98.9099C228.231 99.4102 227.836 99.8426 227.365 100.178C226.145 100.982 225.006 99.7292 224.899 98.1145C224.798 96.6606 225.321 94.4831 226.762 94.3424C228.202 94.2017 229.247 95.7561 229.053 97.277Z" fill="#7F3E3B"/>
<path d="M245.823 101.317C242.54 99.7765 234.259 102.53 228.403 106.986C227.245 105.23 226.4 103.287 225.904 101.244C226.096 103.467 226.627 105.647 227.478 107.709C226.989 108.098 226.527 108.5 226.092 108.902C224.852 105.82 223.371 97.8871 223.673 91.5757C223.15 91.0799 221.924 91.167 221.18 90.5841C221.629 82.122 230.748 79.8641 234.205 79.9579C236.713 79.9379 239.166 80.6887 241.234 82.1086C246.238 85.7601 248.215 94.919 245.823 101.317Z" fill="#263238"/>
<path opacity="0.2" d="M245.823 101.317C242.54 99.7765 234.259 102.53 228.403 106.986C227.245 105.23 226.4 103.287 225.904 101.244C226.096 103.467 226.627 105.647 227.478 107.709C226.989 108.098 226.527 108.5 226.092 108.902C224.852 105.82 223.371 97.8871 223.673 91.5757C223.15 91.0799 221.924 91.167 221.18 90.5841C221.629 82.122 230.748 79.8641 234.205 79.9579C236.713 79.9379 239.166 80.6887 241.234 82.1086C246.238 85.7601 248.215 94.919 245.823 101.317Z" fill="white"/>
<g opacity="0.2">
<path opacity="0.2" d="M224.068 215.673C224.135 217.964 224.209 220.41 224.303 222.956C228.853 222.041 233.314 220.73 237.636 219.036C237.589 216.852 237.475 214.728 237.301 212.718C232.998 214.138 228.566 215.128 224.068 215.673Z" fill="black"/>
<path opacity="0.2" d="M257.676 203.466C253.459 205.954 249.073 208.146 244.551 210.025C244.631 210.266 244.705 210.507 244.786 210.742C245.241 212.135 245.69 213.663 246.126 215.291C250.193 213.302 254.141 211.078 257.951 208.631C257.884 206.858 257.792 205.136 257.676 203.466Z" fill="black"/>
</g>
<path d="M221.334 152.485C221.334 152.485 220.758 179.225 222.755 219.445C241.595 218.011 259.893 206.092 259.893 206.092C259.893 206.092 259.344 163.641 247.351 152.492C240.577 150.676 221.468 151.876 221.334 152.485Z" fill="#263238"/>
<path d="M104.875 168.264C104.814 168.262 104.755 168.246 104.701 168.217C104.644 168.183 104.598 168.133 104.57 168.074C104.541 168.014 104.531 167.947 104.54 167.882C105.17 163.319 103.555 156.378 98.5436 151.132C85.9342 148.117 76.6681 140.258 73.0836 129.558C66.866 110.798 80.5005 89.3576 103.488 81.733C126.476 74.1084 150.241 83.1266 156.465 101.833C159.48 110.919 157.973 120.901 152.217 129.94C146.462 138.978 137.183 145.959 126.087 149.658C122.005 151.016 117.773 151.878 113.485 152.224C114.315 161.122 105.17 168.116 105.076 168.19C105.018 168.233 104.948 168.259 104.875 168.264ZM120.044 79.6694C114.498 79.686 108.99 80.5908 103.729 82.3494C81.07 89.8735 67.67 110.945 73.7469 129.31C77.2376 139.809 86.363 147.514 98.7915 150.462C98.8556 150.475 98.914 150.508 98.959 150.556C103.884 155.688 105.659 162.401 105.291 167.125C107.341 165.369 113.679 159.272 112.781 151.943C112.775 151.897 112.778 151.851 112.791 151.808C112.804 151.764 112.826 151.723 112.855 151.688C112.914 151.619 112.998 151.575 113.089 151.567C117.443 151.25 121.739 150.391 125.88 149.008C136.854 145.363 146.02 138.455 151.681 129.578C157.343 120.7 158.81 110.932 155.855 102.041C151.226 88.1181 136.68 79.6694 120.044 79.6694Z" fill="#263238"/>
<path d="M205.114 81.4048H205.067C204.759 81.3646 197.563 80.2725 195.164 74.946C192.619 76.0833 189.947 76.9111 187.205 77.4116C179.634 78.8052 172.076 77.7198 165.912 74.343C159.748 70.9662 155.695 65.6866 154.522 59.4824C152.17 46.7524 162.991 33.9822 178.642 31.0945C194.293 28.2068 208.953 36.2535 211.305 49.0237C212.645 56.3066 209.811 63.7637 203.519 69.4989C202.327 74.0549 203.58 78.4903 205.355 80.8889C205.392 80.9387 205.415 80.9979 205.421 81.0598C205.426 81.1218 205.414 81.1841 205.387 81.2397C205.359 81.2954 205.316 81.3422 205.263 81.3749C205.21 81.4076 205.149 81.4249 205.087 81.4249L205.114 81.4048ZM195.339 74.1554C195.38 74.1454 195.424 74.1454 195.466 74.1554C195.509 74.1715 195.548 74.1966 195.58 74.2289C195.612 74.2613 195.637 74.3002 195.653 74.343C197.342 78.564 202.427 80.105 204.363 80.5539C203.383 78.8447 202.749 76.9589 202.499 75.0044C202.248 73.0499 202.385 71.0652 202.903 69.1639C202.916 69.1001 202.952 69.0431 203.003 69.0031C209.167 63.422 211.955 56.1592 210.655 49.0773C208.363 36.6689 194.072 28.8701 178.776 31.6573C163.48 34.4445 152.901 46.8663 155.185 59.268C156.291 65.298 160.21 70.3766 166.214 73.6663C172.217 76.956 179.647 78.028 187.064 76.6612C189.864 76.1473 192.59 75.2876 195.178 74.1018C195.235 74.1067 195.29 74.125 195.339 74.1554Z" fill="#263238"/>
<path d="M118.101 141.98C117.558 141.98 117.016 141.98 116.466 141.98C110.644 141.759 104.507 140.445 97.1499 137.832C94.3694 136.848 91.2472 135.588 89.3176 133.062C88.7134 132.254 88.2199 131.368 87.8503 130.429C86.6038 127.308 86.2017 123.913 86.6845 120.587C86.6175 119.87 86.5505 119.153 86.4902 118.443C86.4567 118.014 86.4165 117.578 86.383 117.15L86.2624 115.897C85.8671 111.763 85.4584 107.488 86.9793 103.609C88.5002 99.7295 91.5286 97.2371 93.7999 95.81C96.8085 94.0541 100.063 92.7579 103.455 91.9642C106.041 91.2942 108.5 90.7448 110.865 90.3428C111.271 90.1119 111.695 89.9126 112.131 89.7465C114.436 88.8621 116.996 88.9559 119.186 89.1703C119.816 89.2306 120.466 89.3043 121.129 89.4048C121.92 89.4048 122.697 89.4048 123.468 89.4651C125.095 89.5891 126.68 90.0363 128.132 90.7807C129.584 91.525 130.873 92.5515 131.923 93.8C133.193 95.2624 134.158 96.9643 134.76 98.8055C135.362 100.647 135.588 102.59 135.427 104.52C139.331 108.132 142.096 112.806 143.38 117.967C152.465 116.587 162.355 112.379 169.269 106.631C179.466 98.1617 187.205 89.5388 194.3 72.7821C200.009 59.3017 200.196 49.915 194.89 44.0927C191.886 40.8017 187.698 38.8381 183.247 38.6333C178.796 38.4285 174.445 39.9994 171.152 43.0006C168.018 45.8589 166.148 49.8449 165.954 54.0817C165.759 58.3186 167.255 62.4593 170.113 65.593C172.834 68.5753 176.628 70.355 180.661 70.5409C184.694 70.7268 188.636 69.3038 191.62 66.5846C194.456 63.9944 196.148 60.3845 196.323 56.5478C196.499 52.7111 195.145 48.9616 192.558 46.1228C190.094 43.4263 186.66 41.818 183.011 41.6509C179.361 41.4839 175.795 42.7717 173.095 45.2317C170.53 47.577 169 50.8436 168.841 54.3152C168.681 57.7868 169.905 61.1799 172.244 63.7505C174.473 66.1941 177.582 67.6523 180.886 67.8043C184.191 67.9564 187.42 66.7898 189.865 64.5612C192.187 62.4418 193.574 59.4868 193.718 56.3457C193.862 53.2047 192.754 50.1349 190.635 47.8112C188.616 45.6005 185.802 44.2813 182.811 44.1432C179.82 44.005 176.897 45.0591 174.683 47.0742C172.584 48.9995 171.335 51.6785 171.21 54.5234C171.084 57.3684 172.092 60.147 174.013 62.2497C174.916 63.2421 176.007 64.0467 177.222 64.6175C178.437 65.1882 179.752 65.5141 181.093 65.5763C182.434 65.6385 183.774 65.4359 185.036 64.9801C186.299 64.5243 187.459 63.8241 188.451 62.9197C190.354 61.1822 191.489 58.7601 191.607 56.1859C191.726 53.6117 190.817 51.0959 189.081 49.1914C188.263 48.2939 187.277 47.5663 186.178 47.0502C185.079 46.5342 183.889 46.2397 182.677 46.1837C181.464 46.1277 180.252 46.3113 179.11 46.7239C177.969 47.1365 176.919 47.7701 176.023 48.5884C174.308 50.1539 173.281 52.3334 173.166 54.6523C173.05 56.9713 173.855 59.2419 175.406 60.97C176.904 62.6055 178.988 63.5809 181.203 63.6826C183.419 63.7843 185.584 63.0041 187.225 61.5127C188.78 60.0893 189.708 58.1074 189.805 56.0014C189.901 53.8953 189.159 51.8367 187.741 50.2768C187.071 49.543 186.264 48.9482 185.364 48.5265C184.465 48.1048 183.491 47.8644 182.499 47.819C181.507 47.7735 180.515 47.924 179.581 48.2618C178.647 48.5996 177.788 49.1181 177.054 49.7877C176.356 50.4237 175.79 51.1912 175.389 52.0462C174.988 52.9012 174.759 53.827 174.717 54.7704C174.674 55.7139 174.817 56.6565 175.139 57.5444C175.461 58.4323 175.955 59.2481 176.592 59.9449C177.815 61.2822 179.518 62.0799 181.328 62.1628C183.138 62.2457 184.907 61.6071 186.247 60.3871C187.52 59.2256 188.279 57.6063 188.358 55.885C188.437 54.1637 187.83 52.4815 186.669 51.2081C185.564 50.0042 184.029 49.2862 182.397 49.2109C180.765 49.1356 179.169 49.709 177.959 50.8061C177.385 51.3244 176.919 51.951 176.587 52.6499C176.256 53.3487 176.066 54.1061 176.028 54.8786C175.99 55.6511 176.105 56.4235 176.366 57.1514C176.627 57.8794 177.03 58.5487 177.55 59.1208C178.548 60.2127 179.938 60.8641 181.415 60.932C182.892 60.9998 184.336 60.4785 185.429 59.4826C186.465 58.5331 187.083 57.2117 187.147 55.8079C187.211 54.404 186.716 53.0319 185.771 51.992C184.87 51.0062 183.614 50.4186 182.28 50.3583C180.946 50.298 179.642 50.77 178.656 51.6704C178.192 52.0934 177.815 52.6037 177.549 53.1721C177.282 53.7406 177.13 54.3561 177.101 54.9833C177.073 55.6106 177.168 56.2373 177.382 56.8277C177.596 57.4181 177.924 57.9605 178.347 58.424C178.749 58.8654 179.234 59.2233 179.774 59.4773C180.313 59.7314 180.898 59.8765 181.494 59.9045C182.09 59.9325 182.686 59.8428 183.247 59.6405C183.809 59.4382 184.325 59.1273 184.766 58.7255C185.611 57.9523 186.115 56.8758 186.168 55.7318C186.22 54.5877 185.818 53.4694 185.047 52.6218C184.315 51.8164 183.294 51.3344 182.207 51.2818C181.669 51.2557 181.131 51.337 180.625 51.5211C180.119 51.7051 179.654 51.9882 179.259 52.3538C179.21 52.3985 179.147 52.4234 179.081 52.4234C179.015 52.4234 178.952 52.3985 178.904 52.3538C178.857 52.3063 178.831 52.2426 178.831 52.1762C178.831 52.1099 178.857 52.0462 178.904 51.9987C179.351 51.5857 179.877 51.2663 180.45 51.0592C181.023 50.8521 181.632 50.7615 182.24 50.7927C182.843 50.8127 183.435 50.9528 183.983 51.2048C184.53 51.4567 185.022 51.8155 185.429 52.26C185.856 52.7271 186.187 53.2738 186.402 53.8688C186.618 54.4637 186.714 55.0953 186.685 55.7275C186.657 56.3596 186.504 56.9799 186.236 57.553C185.967 58.126 185.588 58.6405 185.121 59.0672C184.13 59.968 182.823 60.4393 181.486 60.3777C180.148 60.3162 178.889 59.7268 177.986 58.7389C177.042 57.7015 176.549 56.3322 176.615 54.9316C176.68 53.531 177.298 52.2135 178.334 51.2684C179.421 50.2807 180.855 49.7641 182.322 49.8319C183.789 49.8997 185.169 50.5464 186.16 51.6302C187.194 52.7696 187.734 54.2724 187.663 55.8095C187.591 57.3466 186.913 58.7927 185.778 59.831C184.585 60.915 183.011 61.4821 181.401 61.408C179.791 61.334 178.276 60.6247 177.188 59.4357C176.052 58.1852 175.458 56.5353 175.536 54.8475C175.613 53.1596 176.357 51.5715 177.604 50.4309C178.915 49.2432 180.643 48.6225 182.41 48.7041C184.178 48.7857 185.841 49.563 187.037 50.8664C187.657 51.5453 188.138 52.3398 188.45 53.2045C188.763 54.0691 188.902 54.987 188.86 55.9055C188.818 56.824 188.595 57.7251 188.204 58.5573C187.813 59.3896 187.262 60.1366 186.582 60.7556C185.143 62.0633 183.245 62.7492 181.302 62.6639C179.359 62.5785 177.529 61.7289 176.21 60.3C174.837 58.7927 174.119 56.8021 174.214 54.7656C174.308 52.7292 175.207 50.8134 176.713 49.4393C177.493 48.723 178.408 48.1681 179.404 47.8065C180.4 47.4449 181.458 47.2838 182.516 47.3323C183.575 47.3809 184.613 47.6382 185.572 48.0895C186.531 48.5408 187.391 49.1771 188.103 49.9619C189.612 51.6185 190.402 53.8066 190.299 56.0453C190.196 58.284 189.208 60.3903 187.553 61.9013C185.815 63.4837 183.521 64.3119 181.173 64.2038C178.825 64.0958 176.616 63.0604 175.031 61.3251C173.373 59.5036 172.505 57.0985 172.618 54.6377C172.731 52.177 173.816 49.8616 175.634 48.1998C176.579 47.3366 177.685 46.6681 178.889 46.2326C180.092 45.797 181.37 45.6029 182.649 45.6614C183.927 45.7199 185.182 46.0298 186.341 46.5734C187.5 47.117 188.54 47.8837 189.402 48.8296C190.307 49.8214 191.007 50.9818 191.463 52.2443C191.919 53.5068 192.121 54.8468 192.059 56.1877C191.997 57.5285 191.671 58.844 191.1 60.0589C190.529 61.2738 189.725 62.3643 188.732 63.2681C186.635 65.1866 183.862 66.1937 181.023 66.0681C178.183 65.9424 175.51 64.6943 173.59 62.5981C171.583 60.3934 170.533 57.4824 170.67 54.5042C170.807 51.526 172.12 48.7237 174.321 46.7124C175.464 45.6683 176.802 44.8598 178.258 44.3331C179.715 43.8064 181.26 43.5718 182.807 43.6427C184.354 43.7136 185.872 44.0887 187.273 44.7465C188.675 45.4043 189.934 46.3318 190.977 47.4762C192.073 48.6755 192.921 50.0789 193.475 51.6064C194.028 53.1339 194.274 54.7554 194.2 56.3783C194.126 58.0011 193.733 59.5934 193.043 61.0642C192.353 62.535 191.38 63.8553 190.18 64.9498C187.636 67.2694 184.276 68.4843 180.837 68.3272C177.399 68.1702 174.163 66.6541 171.842 64.1123C169.42 61.4402 168.155 57.918 168.324 54.3159C168.492 50.7137 170.08 47.3248 172.74 44.89C175.541 42.3406 179.239 41.0069 183.022 41.1815C186.806 41.3561 190.366 43.0248 192.92 45.8213C195.595 48.7584 196.995 52.6376 196.812 56.6064C196.628 60.5752 194.877 64.3088 191.942 66.9866C188.861 69.7948 184.791 71.2644 180.628 71.0722C176.464 70.8799 172.547 69.0416 169.738 65.9615C166.792 62.7295 165.25 58.46 165.451 54.0916C165.652 49.7232 167.58 45.6134 170.81 42.6656C172.489 41.1334 174.453 39.9471 176.59 39.1744C178.728 38.4017 180.997 38.0578 183.267 38.1623C185.538 38.2668 187.765 38.8178 189.823 39.7836C191.88 40.7494 193.727 42.1112 195.258 43.7912C200.712 49.7676 200.545 59.3285 194.756 73.0099C187.6 89.8336 179.835 98.49 169.584 107.019C162.616 112.815 152.653 117.069 143.454 118.456C143.689 119.499 143.863 120.555 143.976 121.618C144.318 124.254 144.034 126.933 143.146 129.437C141.926 132.553 139.307 135.36 135.575 137.564C130.684 140.466 124.66 141.98 118.101 141.98ZM105.19 139.749C108.879 140.708 112.658 141.276 116.466 141.444C123.568 141.712 130.087 140.218 135.333 137.129C137.866 135.635 141.203 133.055 142.703 129.256C143.563 126.826 143.836 124.228 143.501 121.672C143.393 120.615 143.221 119.566 142.985 118.53C141.081 118.808 139.16 118.951 137.236 118.959C136.839 120.804 136.315 122.619 135.668 124.392C135.521 124.834 135.36 125.27 135.199 125.732C134.848 127.636 134.059 129.432 132.895 130.978C131.066 133.311 128.737 135.204 126.081 136.519C119.669 139.887 112.319 141.023 105.19 139.749ZM87.1736 120.56C87.3407 123.109 87.9058 125.616 88.8486 127.99C91.0462 133.029 96.1449 136.941 102.832 138.71C109.654 140.485 116.87 139.964 123.367 137.229L122.65 137.424C119.039 138.362 115.24 138.449 111.676 138.409C106.698 138.355 101.458 138.007 96.8819 135.849C94.9456 134.938 92.4733 133.303 91.676 130.684C91.1601 128.975 91.4482 127.153 91.7564 125.578C91.9708 124.497 92.212 123.439 92.48 122.402C91.6425 117.572 92.4264 112.104 94.8183 106.671C94.4878 106.878 94.168 107.101 93.8602 107.341C92.4357 108.512 91.2485 109.944 90.3628 111.562C88.7179 114.32 87.6405 117.379 87.1937 120.56H87.1736ZM86.986 123.079C86.9337 125.517 87.3782 127.94 88.2925 130.201C88.6477 131.1 89.1184 131.949 89.6928 132.727C91.542 135.139 94.5838 136.365 97.2973 137.33L98.7847 137.846C93.887 135.722 90.1953 132.332 88.3863 128.191C87.7096 126.553 87.2458 124.835 87.0061 123.079H86.986ZM93.016 122.409C93.3592 124.371 94.0128 126.267 94.9523 128.024C98.0544 133.739 104.534 137.578 111.455 137.799C117.873 138 124.6 135.119 129.431 130.127C130.411 129.134 131.279 128.035 132.017 126.851C132.218 126.516 132.406 126.174 132.58 125.826C131.587 127.325 130.259 128.573 128.7 129.471C127.142 130.368 125.397 130.891 123.602 130.998C123.069 131.016 122.536 130.994 122.007 130.931C117.912 132.583 113.46 133.146 109.083 132.566C102.443 131.802 97.4179 128.647 95.6223 124.131C94.5436 121.411 94.7245 118.443 95.2002 115.957C94.3157 118.056 93.5856 120.217 93.016 122.422V122.409ZM134.623 121.833C134.135 123.682 133.403 125.457 132.446 127.112C131.68 128.325 130.781 129.449 129.766 130.462C126.253 134.114 121.749 136.657 116.808 137.779C118.733 137.668 120.644 137.379 122.516 136.915C125.196 136.245 129.015 134.69 131.628 131.421C132.958 129.64 133.994 127.659 134.697 125.551C134.865 124.582 134.883 123.592 134.751 122.617C134.737 122.375 134.67 122.114 134.623 121.846V121.833ZM92.7346 123.528C92.5693 124.234 92.4152 124.944 92.2723 125.659C91.9708 127.173 91.6894 128.928 92.1785 130.523C92.9222 132.968 95.2739 134.543 97.1164 135.38C100.322 136.781 103.759 137.579 107.254 137.732C104.593 137.117 102.088 135.958 99.8971 134.327C97.7062 132.697 95.8767 130.63 94.5235 128.258C93.7204 126.772 93.1189 125.186 92.7346 123.541V123.528ZM96.2655 113.612V113.672C95.5285 116.392 94.7111 120.372 96.1114 123.943C97.8333 128.285 102.711 131.313 109.157 132.07C113.174 132.593 117.258 132.15 121.069 130.777C120.25 130.603 119.453 130.34 118.691 129.993C117.93 129.874 117.186 129.667 116.473 129.377C114.336 128.463 112.623 126.776 111.676 124.654C111.367 124.785 111.043 124.875 110.711 124.922C110.488 124.944 110.264 124.944 110.041 124.922C108.658 125.293 107.22 125.418 105.793 125.29C101.981 124.901 97.8132 121.799 97.7529 117.451C97.706 115.14 98.8316 112.687 101.103 110.161C103.717 107.25 106.949 104.961 110.564 103.461C108.005 103.435 105.449 103.635 102.926 104.058C100.217 106.877 97.9693 110.106 96.2655 113.625V113.612ZM122.965 130.496C123.173 130.496 123.374 130.496 123.582 130.496C125.757 130.37 127.845 129.602 129.585 128.291C131.325 126.979 132.637 125.182 133.357 123.126C133.705 122.061 133.973 120.54 133.297 119.3C132.344 122.514 130.451 125.37 127.863 127.501C127.278 127.963 126.652 128.371 125.994 128.72C125.181 129.317 124.323 129.85 123.428 130.315L122.965 130.496ZM120.466 130.121C120.947 130.256 121.438 130.354 121.933 130.415C122.362 130.235 122.778 130.034 123.186 129.826L123.448 129.685C122.477 129.963 121.475 130.114 120.466 130.134V130.121ZM118.805 129.504C121.185 129.829 123.606 129.388 125.719 128.245C128.83 126.01 131.066 122.763 132.044 119.059C132.102 118.818 132.155 118.57 132.205 118.315C131.474 118.036 130.77 117.693 130.101 117.29C128.896 117.163 127.68 117.19 126.483 117.371H126.295C124.406 117.572 122.342 117.746 120.205 117.779C119.24 119.074 118.114 120.24 116.855 121.25C115.725 122.194 114.497 123.011 113.19 123.689C113.19 123.736 113.23 123.789 113.257 123.843C114.328 126.364 116.308 128.39 118.805 129.518V129.504ZM112.105 124.426C112.999 126.442 114.625 128.044 116.654 128.908L116.949 129.029C115.109 127.812 113.669 126.081 112.808 124.05L112.768 123.95C112.559 124.132 112.335 124.296 112.098 124.439L112.105 124.426ZM111.823 103.535C107.828 104.973 104.254 107.384 101.425 110.55C99.247 112.975 98.1683 115.314 98.2085 117.498C98.2822 121.565 102.229 124.479 105.82 124.868C106.833 124.965 107.854 124.922 108.855 124.741C107.891 124.359 107.069 123.687 106.503 122.818C105.695 121.43 105.235 119.866 105.163 118.262C104.922 115.582 104.996 110.63 108.212 107.435C110.287 105.502 113.035 104.456 115.87 104.52C117.471 104.52 119.676 104.862 121.016 106.463C121.351 106.868 121.626 107.319 121.833 107.803C122.19 108.599 122.416 109.447 122.503 110.315C124.367 109.574 126.369 109.245 128.372 109.351C127.732 108.401 126.94 107.563 126.027 106.872C124.937 106.168 123.74 105.646 122.483 105.324C119.016 104.286 115.432 103.69 111.816 103.549L111.823 103.535ZM115.877 104.982C113.164 104.911 110.53 105.904 108.54 107.749C105.472 110.798 105.411 115.588 105.646 118.175C105.709 119.698 106.141 121.183 106.905 122.503C107.24 123.028 107.684 123.475 108.208 123.812C108.732 124.148 109.323 124.367 109.94 124.452C110.409 124.325 110.885 124.171 111.361 123.99C111.13 123.341 110.982 122.666 110.919 121.98C110.217 121.92 109.542 121.689 108.951 121.307C108.359 120.925 107.871 120.404 107.528 119.789C107.286 119.285 107.13 118.744 107.066 118.188C106.911 117.04 107.017 115.871 107.376 114.769C107.735 113.668 108.338 112.661 109.139 111.824C109.941 110.987 110.92 110.342 112.006 109.936C113.091 109.529 114.254 109.373 115.408 109.478C115.555 109.357 115.716 109.25 115.87 109.136C117.27 108.172 118.55 107.843 119.629 108.172C120.159 108.356 120.635 108.667 121.017 109.078C121.399 109.489 121.675 109.988 121.82 110.53L121.987 110.47C121.926 109.613 121.722 108.773 121.384 107.984C121.197 107.537 120.946 107.12 120.64 106.744C119.354 105.21 117.103 104.976 115.87 104.976L115.877 104.982ZM132.66 118.49C132.613 118.731 132.56 118.965 132.506 119.193C132.088 120.859 131.395 122.445 130.456 123.883C131.535 122.297 132.36 120.552 132.901 118.711C132.826 118.623 132.746 118.54 132.66 118.463V118.49ZM111.421 122.047C111.483 122.646 111.616 123.235 111.816 123.803C112.051 123.709 112.279 123.602 112.486 123.494H112.527C112.371 123.036 112.252 122.565 112.172 122.087C111.93 122.086 111.688 122.072 111.448 122.047H111.421ZM134.871 120.895C135.043 121.444 135.171 122.007 135.253 122.576C135.308 122.967 135.339 123.361 135.347 123.756C135.893 122.186 136.341 120.584 136.687 118.959C136.231 118.959 135.776 118.958 135.347 118.912C135.287 119.18 135.22 119.448 135.153 119.709C135.092 120.098 134.992 120.493 134.891 120.895H134.871ZM112.701 122.014C112.763 122.367 112.845 122.716 112.949 123.059C113.295 122.668 113.604 122.247 113.873 121.799C113.495 121.9 113.11 121.972 112.721 122.014H112.701ZM114.577 121.578C114.342 122.007 114.08 122.421 113.793 122.818C114.754 122.253 115.668 121.612 116.527 120.901C117.069 120.459 117.565 120.004 118.027 119.562C117.034 120.418 115.901 121.098 114.677 121.572L114.577 121.578ZM111.388 121.531C111.638 121.545 111.888 121.545 112.138 121.531V121.491C112.039 120.001 112.354 118.512 113.049 117.19L112.775 117.103C112.227 117.872 111.825 118.735 111.589 119.649C111.44 120.265 111.379 120.898 111.408 121.531H111.388ZM134.134 120.278C134.197 120.688 134.211 121.105 134.174 121.518C134.235 121.317 134.295 121.109 134.349 120.901C134.302 120.694 134.228 120.486 134.154 120.278H134.134ZM113.538 117.317C112.851 118.584 112.538 120.02 112.634 121.458V121.511C113.179 121.458 113.716 121.343 114.235 121.17L114.295 121.056C114.871 119.953 115.364 118.808 115.769 117.632C115.099 117.565 114.429 117.478 113.759 117.364L113.538 117.317ZM114.751 109.947C113.719 109.94 112.698 110.154 111.756 110.576C110.815 110.997 109.975 111.616 109.293 112.39C108.611 113.165 108.104 114.077 107.805 115.064C107.507 116.052 107.424 117.092 107.562 118.114C107.62 118.614 107.761 119.101 107.977 119.555C108.276 120.079 108.696 120.525 109.202 120.854C109.708 121.184 110.285 121.389 110.885 121.451C110.867 120.801 110.937 120.152 111.093 119.521C111.339 118.577 111.749 117.683 112.306 116.882C112.014 116.724 111.769 116.493 111.595 116.212C111.207 115.541 111.314 114.644 111.904 113.532C112.653 112.17 113.64 110.954 114.818 109.94L114.751 109.947ZM95.5553 106.229C95.4816 106.396 95.4079 106.564 95.3275 106.731C93.2124 111.234 92.3447 116.223 92.815 121.176C93.5826 118.518 94.5848 115.932 95.8099 113.451C96.621 110.518 97.7091 107.669 99.0594 104.942C97.8555 105.254 96.6878 105.692 95.5754 106.249L95.5553 106.229ZM116.279 117.659C115.911 118.762 115.463 119.837 114.939 120.875C116.528 120.18 117.934 119.125 119.046 117.793C118.155 117.799 117.25 117.759 116.299 117.679L116.279 117.659ZM134.094 118.791C134.264 119.184 134.424 119.586 134.576 119.997C134.61 119.856 134.643 119.709 134.684 119.568C134.724 119.428 134.797 119.099 134.851 118.858L134.436 118.825L134.094 118.791ZM109.746 91.053C107.767 91.4282 105.715 91.8927 103.589 92.4466C100.246 93.2298 97.0394 94.5079 94.0746 96.2388C91.8569 97.6257 88.9089 100.051 87.4483 103.756C85.9877 107.461 86.3696 111.743 86.7783 115.816L86.8989 117.069C86.9391 117.505 86.9726 117.933 87.0128 118.369C87.0128 118.469 87.0128 118.57 87.0128 118.67C87.5927 116.074 88.581 113.587 89.9407 111.3C90.8636 109.631 92.0934 108.151 93.5654 106.939C94.0751 106.545 94.6176 106.195 95.1868 105.894C97.4045 101.204 100.286 98.0009 103.763 96.4197C104.098 96.2723 104.446 96.1316 104.808 95.9976C105.364 95.3276 105.941 94.6576 106.537 93.9876C107.498 92.8971 108.574 91.9133 109.746 91.053ZM135.809 105.552C137.267 109.241 137.854 113.217 137.524 117.17C137.471 117.598 137.41 118.034 137.337 118.456C139.191 118.443 141.042 118.304 142.878 118.041C141.695 113.315 139.252 108.998 135.809 105.552ZM135.494 118.416C135.93 118.416 136.379 118.416 136.834 118.456C136.915 118.014 136.982 117.565 137.029 117.116C137.511 112.748 136.452 108.5 134.978 104.755L134.462 104.299C132.274 102.419 129.794 100.91 127.119 99.83C128.566 101.136 129.76 102.696 130.643 104.433C130.798 104.755 130.952 105.103 131.092 105.425C132.568 106.605 133.765 108.097 134.598 109.794C135.431 111.49 135.879 113.35 135.91 115.24C135.875 116.31 135.736 117.373 135.494 118.416ZM133.886 118.268C134.087 118.268 134.288 118.329 134.496 118.349L134.985 118.382C135.232 117.343 135.374 116.281 135.407 115.213C135.382 113.562 135.02 111.932 134.345 110.425C133.67 108.917 132.696 107.562 131.481 106.443C131.835 107.482 132.124 108.543 132.345 109.619C132.473 110.202 132.573 110.771 132.667 111.32C133.223 111.885 133.636 112.574 133.873 113.33C134.196 114.653 134.177 116.037 133.819 117.35C133.779 117.525 133.739 117.706 133.692 117.886C133.759 117.98 133.819 118.128 133.886 118.268ZM132.948 118.054L133.109 118.094C133.131 118.024 133.149 117.952 133.163 117.88C133.069 117.672 132.975 117.458 132.875 117.243C132.875 117.471 132.821 117.692 132.787 117.913L132.948 118.054ZM130.268 116.821C130.98 116.943 131.663 117.2 132.278 117.578C132.332 117.176 132.372 116.768 132.399 116.345C131.385 114.263 130.237 112.249 128.962 110.315L128.7 109.914H128.526C126.47 109.76 124.406 110.085 122.496 110.865C122.516 111.418 122.489 111.971 122.416 112.52C124.486 113.009 126.282 114.235 128.03 115.421C128.801 115.91 129.531 116.386 130.268 116.821ZM116.46 117.19C117.471 117.27 118.47 117.31 119.461 117.31C120.227 116.303 120.809 115.169 121.183 113.96C121.303 113.588 121.392 113.208 121.451 112.821C120.037 112.7 118.616 112.944 117.324 113.532C117.124 114.77 116.835 115.993 116.46 117.19ZM122.369 112.982C122.215 113.798 121.967 114.594 121.632 115.354C121.332 116.034 120.973 116.686 120.56 117.304C122.57 117.257 124.473 117.089 126.242 116.902H126.429C127.331 116.784 128.24 116.73 129.149 116.741C128.687 116.439 128.231 116.131 127.809 115.823C126.087 114.65 124.339 113.458 122.369 112.982ZM113.82 116.855H113.873C114.543 116.969 115.254 117.062 115.95 117.129C116.3 116.033 116.573 114.914 116.768 113.779L116.346 114C116.073 114.224 115.805 114.458 115.542 114.704C114.872 115.339 114.293 116.063 113.82 116.855ZM132.955 116.252C133.089 116.526 133.223 116.808 133.35 117.083C133.669 115.899 133.683 114.654 133.39 113.465C133.257 113.033 133.056 112.626 132.794 112.259C132.971 113.582 133.025 114.919 132.955 116.252ZM113.103 116.694L113.304 116.748C113.496 116.409 113.709 116.082 113.94 115.769C113.642 116.059 113.362 116.368 113.103 116.694ZM115.575 109.994C114.262 111.028 113.171 112.315 112.366 113.779C111.863 114.697 111.756 115.428 112.051 115.944C112.188 116.172 112.388 116.356 112.627 116.473C113.557 115.289 114.717 114.307 116.037 113.585H116.071C116.339 113.371 116.614 113.163 116.895 112.975C116.962 112.486 117.016 111.997 117.049 111.508C117.103 111.21 117.07 110.904 116.955 110.624C116.822 110.447 116.65 110.303 116.453 110.202C116.255 110.101 116.038 110.046 115.816 110.041L115.575 109.994ZM129.451 110.034C130.554 111.728 131.567 113.479 132.486 115.28C132.485 114.028 132.387 112.778 132.191 111.542C131.416 110.825 130.474 110.314 129.451 110.054V110.034ZM116.138 109.579C116.394 109.609 116.64 109.696 116.858 109.834C117.076 109.972 117.261 110.157 117.398 110.376C117.558 110.737 117.611 111.137 117.552 111.528C117.552 111.89 117.491 112.245 117.444 112.6C118.689 111.843 120.004 111.208 121.371 110.704C121.251 110.235 121.019 109.803 120.694 109.445C120.37 109.086 119.963 108.812 119.508 108.647C118.563 108.373 117.444 108.647 116.158 109.552L116.138 109.579ZM121.498 111.2C120.47 111.591 119.47 112.05 118.503 112.573C119.486 112.292 120.514 112.201 121.531 112.305C121.556 111.943 121.538 111.578 121.478 111.22L121.498 111.2ZM121.98 111.019C122.013 111.214 122.035 111.411 122.047 111.609C122.047 111.401 122.047 111.193 122.047 110.992L121.98 111.019ZM99.7093 104.755C98.6621 106.801 97.7663 108.922 97.0293 111.099C98.4303 108.629 100.11 106.327 102.034 104.239C101.463 104.346 100.893 104.466 100.326 104.6C100.118 104.667 99.9036 104.714 99.6892 104.775L99.7093 104.755ZM129.062 109.445C130.16 109.649 131.195 110.108 132.084 110.785C132.024 110.436 131.95 110.074 131.876 109.719C131.601 108.347 131.207 107.002 130.697 105.699C130.583 105.605 130.469 105.512 130.349 105.425C127.21 103.185 123.429 102.025 119.575 102.121C117.401 102.134 115.239 102.456 113.156 103.08C116.363 103.317 119.533 103.908 122.61 104.842C123.92 105.178 125.167 105.726 126.302 106.463C127.385 107.287 128.313 108.296 129.042 109.445H129.062ZM104.205 96.7815L103.998 96.8686C100.775 98.3359 98.0745 101.237 95.9573 105.518C97.0582 105.023 98.2019 104.628 99.3743 104.339C100.734 101.672 102.345 99.1418 104.185 96.7815H104.205ZM119.615 101.659C123.398 101.59 127.112 102.682 130.255 104.788L130.195 104.667C129.125 102.571 127.6 100.74 125.732 99.3074C122.576 98.2234 119.243 97.7482 115.91 97.9071C113.958 97.9656 112.027 98.3319 110.188 98.9925C107.666 100.016 105.384 101.554 103.488 103.508C106.226 103.095 108.996 102.938 111.763 103.039C114.269 102.146 116.908 101.679 119.568 101.659H119.615ZM105.11 96.4197C103.153 98.8318 101.439 101.431 99.9907 104.178L100.212 104.131C101.016 103.944 101.82 103.783 102.624 103.642C104.683 101.41 107.212 99.6617 110.028 98.5235C111.915 97.8447 113.898 97.4671 115.903 97.4046C118.772 97.2758 121.642 97.606 124.406 98.3828C123.318 97.6841 122.159 97.1024 120.949 96.6475C116.976 95.2378 112.706 94.8778 108.554 95.6023C107.383 95.7703 106.231 96.0439 105.11 96.4197ZM125.96 98.8719C129.088 99.9473 131.993 101.587 134.529 103.709C133.933 102.302 133.29 100.976 132.66 99.7563C130.958 96.4063 128.928 93.0898 125.659 91.3344C124.224 90.6054 122.677 90.123 121.083 89.9073H121.049C117.679 89.9256 114.317 90.2304 110.999 90.8185C109.451 91.7693 108.059 92.9536 106.872 94.3293C106.463 94.7782 106.061 95.2405 105.666 95.7028C106.577 95.4443 107.503 95.2451 108.44 95.1065C112.678 94.3706 117.035 94.7398 121.089 96.1785C122.838 96.8277 124.48 97.7356 125.96 98.8719ZM123.702 89.9877C124.461 90.2155 125.195 90.5185 125.893 90.8922C129.283 92.7146 131.367 96.1182 133.109 99.5285C133.725 100.735 134.362 102.041 134.952 103.428C135 100.004 133.784 96.6832 131.535 94.1015C129.557 91.7721 126.755 90.298 123.716 89.9877H123.702ZM116.58 89.5254C115.325 89.5068 114.074 89.6739 112.868 90.0212C114.403 89.8068 115.883 89.646 117.331 89.5455C117.083 89.5321 116.835 89.5254 116.58 89.5254Z" fill="#5348A7"/>
</svg>
