<svg width="36" height="27" viewBox="0 0 36 27" fill="#EBBF58" xmlns="http://www.w3.org/2000/svg">
<path d="M32.804 2.32749C34.8835 4.48717 36 6.90941 36 10.8359C36 17.7453 31.0394 23.9381 23.8257 27L22.0228 24.2797C28.756 20.7184 30.0723 16.097 30.5973 13.1832C29.5131 13.732 28.0938 13.9234 26.7027 13.7971C23.0605 13.4674 20.1896 10.5438 20.1896 6.90941C20.1896 5.07692 20.934 3.31948 22.2592 2.02372C23.5844 0.727951 25.3818 -1.41382e-06 27.2559 -1.24998e-06C28.2923 0.00885536 29.3166 0.219194 30.2691 0.618774C31.2216 1.01835 32.0833 1.5992 32.804 2.32749V2.32749ZM12.6144 2.32748C14.694 4.48717 15.8104 6.90941 15.8104 10.8359C15.8104 17.7453 10.8499 23.9381 3.63614 27L1.83321 24.2797C8.56643 20.7184 9.88279 16.0969 10.4077 13.1832C9.32354 13.732 7.90421 13.9234 6.51315 13.7971C2.87096 13.4674 3.4804e-06 10.5438 3.79813e-06 6.90941C3.95833e-06 5.07692 0.74449 3.31948 2.06969 2.02371C3.39488 0.727949 5.19224 -3.17885e-06 7.06635 -3.01501e-06C8.10276 0.00885359 9.12703 0.219192 10.0795 0.618773C11.032 1.01835 11.8937 1.59919 12.6144 2.32748V2.32748Z" fill="#ecbbf4"/>
</svg>
