<svg width="36" height="27" viewBox="0 0 36 27" fill="none" xmlns="http://www.w3.org/2000/svg">
<path d="M3.19601 24.6725C1.11648 22.5128 0 20.0906 0 16.1641C0 9.25466 4.96057 3.06186 12.1743 0L13.9772 2.72033C7.24401 6.28164 5.92765 10.903 5.40273 13.8168C6.4869 13.268 7.90623 13.0766 9.29729 13.2029C12.9395 13.5326 15.8104 16.4562 15.8104 20.0906C15.8104 21.9231 15.066 23.6805 13.7408 24.9763C12.4156 26.272 10.6182 27 8.7441 27C7.70768 26.9911 6.68342 26.7808 5.73093 26.3812C4.77844 25.9816 3.91675 25.4008 3.19601 24.6725ZM23.3856 24.6725C21.306 22.5128 20.1896 20.0906 20.1896 16.1641C20.1896 9.25466 25.1501 3.06186 32.3639 0L34.1668 2.72033C27.4336 6.28164 26.1172 10.903 25.5923 13.8168C26.6765 13.268 28.0958 13.0766 29.4868 13.2029C33.129 13.5326 36 16.4562 36 20.0906C36 21.9231 35.2555 23.6805 33.9303 24.9763C32.6051 26.272 30.8078 27 28.9337 27C27.8972 26.9911 26.873 26.7808 25.9205 26.3812C24.968 25.9816 24.1063 25.4008 23.3856 24.6725Z" fill="#9B90EF"/>
</svg>
