<svg width="85" height="75" viewBox="0 0 85 75" fill="none" xmlns="http://www.w3.org/2000/svg">
<g clip-path="url(#clip0)">
<g filter="url(#filter0_d)">
<path d="M63.6196 54.1449L55.8896 49.6949L60.1396 48.7949L64.3697 51.7449L63.6196 54.1449Z" fill="#3C3378"/>
<path d="M50.09 14.3149C50.09 2.31487 42.74 -3.25513 33.71 1.95487L20.37 9.65488C11.37 14.8649 4 28.9049 4 40.9449C4 41.4349 4 41.9449 4 42.3749C4 42.6449 4 42.8749 4 43.1349C4 43.3949 4.05001 43.6049 4.07001 43.8349C4.09001 44.0649 4.13001 44.3649 4.17001 44.6249C4.37122 46.0459 4.72665 47.4408 5.23001 48.7849C5.44001 49.2849 5.66002 49.7849 5.90002 50.2049C6.01091 50.4368 6.13786 50.6607 6.28 50.8749L6.41 51.0849C6.63261 51.4431 6.89058 51.7781 7.18002 52.0849C7.34002 52.2649 7.49 52.4549 7.66 52.6249L8.18002 53.1249C8.36002 53.2649 8.53 53.4349 8.72 53.5749C8.89954 53.7195 9.09013 53.8499 9.29001 53.9649L9.88 54.3049C10.6442 54.7174 11.4725 54.998 12.33 55.1349C12.3957 55.1188 12.4643 55.1188 12.53 55.1349C12.76 55.1349 12.97 55.1849 13.2 55.1849C13.4429 55.2049 13.6871 55.2049 13.93 55.1849C14.5728 55.1919 15.2141 55.1214 15.84 54.9749C16.2145 54.9004 16.585 54.807 16.95 54.6949C18.1185 54.3369 19.2399 53.84 20.29 53.2149L33.63 45.5149C34.5442 44.984 35.4197 44.3892 36.25 43.7349C36.25 43.5749 36.25 43.4349 36.25 43.2849C36.25 43.1349 36.25 42.8149 36.25 42.6349C36.25 42.2349 36.25 41.8249 36.25 41.4149C36.22 31.1849 42.38 19.1149 50.09 14.3149Z" fill="#3C3378"/>
<path d="M52.3398 5.6646L44.5898 1.20459C44.6398 1.20459 45.3799 6.5946 45.3799 6.5946L51.1299 7.2746L52.3398 5.6646Z" fill="#3C3378"/>
<path d="M16.5301 58.075L9.37012 54.015L13.6801 52.165L16.5301 58.075Z" fill="#3C3378"/>
<path d="M20.3698 53.3349C20.3189 56.2983 19.3667 59.176 17.6398 61.5849C17.3198 62.0049 17.8098 62.3749 18.1698 62.1849C19.8041 61.3367 21.2525 60.1706 22.4298 58.7549C24.6916 56.0818 26.2732 52.9014 27.0398 49.4849L20.3698 53.3349Z" fill="#3C3378"/>
<path d="M17.7197 62.1646L25.4697 66.6246C25.4697 66.6246 29.8197 62.9546 29.8197 55.5246L21.4097 54.9546C21.4097 54.9546 21.2097 59.7946 17.7197 62.1646Z" fill="#3C3378"/>
<path d="M38.3604 40.3047C38.3604 40.678 38.3604 41.038 38.3604 41.3847C38.3604 41.5847 38.3604 41.7547 38.3604 41.9447C38.3604 42.1347 38.3602 42.2947 38.4202 42.4747C38.4802 42.6547 38.4202 42.8747 38.4902 43.0747C38.606 43.9605 38.814 44.8319 39.1104 45.6747C39.1532 45.8282 39.2066 45.9786 39.2704 46.1247C39.3434 46.3256 39.4268 46.5225 39.5204 46.7147C39.5983 46.9005 39.6884 47.0809 39.7904 47.2547C39.8695 47.4289 39.9632 47.5962 40.0704 47.7547L40.1702 47.9147C40.3464 48.1902 40.5403 48.4541 40.7503 48.7047C40.8596 48.8505 40.9799 48.9876 41.1104 49.1147L41.4902 49.4847C41.6198 49.6063 41.7567 49.7199 41.9002 49.8247C42.0371 49.9306 42.1807 50.0274 42.3302 50.1147C42.4802 50.2047 42.6203 50.2947 42.7803 50.3747L43.2402 50.5947L43.7201 50.7647C44.0128 50.8533 44.3101 50.9267 44.6104 50.9847H44.7603C44.9266 50.9999 45.0939 50.9999 45.2603 50.9847C45.4397 51.005 45.6209 51.005 45.8004 50.9847C46.2303 50.9845 46.659 50.941 47.0802 50.8547C47.4177 50.7975 47.7516 50.7207 48.0802 50.6247C48.9579 50.3557 49.8007 49.9831 50.5903 49.5147L60.5903 43.7347C61.4825 43.2199 62.3229 42.6205 63.1003 41.9447C63.3803 41.7047 63.6603 41.4447 63.9403 41.1847C64.4444 40.7151 64.9218 40.2177 65.3702 39.6947L66.0103 39.1147C66.1803 38.9147 66.3403 38.7047 66.5103 38.4947C66.5517 38.422 66.6021 38.3548 66.6603 38.2947C67.3261 37.4143 67.9404 36.4961 68.5001 35.5447C68.6501 35.2947 68.7903 35.0347 68.9402 34.7747C69.0902 34.5147 69.2302 34.2547 69.3702 33.9847C69.5102 33.7147 69.6401 33.4447 69.7801 33.1847L70.1603 32.3647C70.2903 32.0947 70.4101 31.8047 70.5301 31.5447C70.7401 31.0647 70.9303 30.5447 71.1003 30.0847C71.1003 29.9947 71.1703 29.9047 71.2003 29.8147C71.3103 29.5347 71.4003 29.2547 71.4903 28.9747C71.6703 28.4347 71.8303 27.8947 71.9903 27.3347C72.3421 26.0204 72.6059 24.6841 72.7801 23.3347C72.7801 23.1047 72.8302 22.8847 72.8602 22.6547C72.8902 22.4247 72.8603 22.2647 72.9103 22.0647C72.9603 21.8647 72.9103 21.6647 72.9103 21.4647C72.9103 21.0914 72.9103 20.7214 72.9103 20.3547C72.9103 11.3547 67.4003 7.14467 60.6203 11.0547L50.6203 16.8447C43.8703 20.7347 38.3604 31.2647 38.3604 40.3047Z" fill="#3C3378"/>
<path d="M76.5207 14.8951L68.8307 10.4751L65.9307 12.5251L74.9007 17.955L76.5207 14.8951Z" fill="#3C3378"/>
<path d="M50.1196 54.5647L42.3896 50.1147L48.4496 48.3047L50.1196 54.5647Z" fill="#3C3378"/>
<path d="M59.1395 44.7046C59.1395 46.3046 61.1395 48.4846 63.4295 48.8946C63.7395 48.9546 63.6595 49.6346 63.2895 49.8946C61.9248 50.6359 60.3503 50.8966 58.8195 50.6346C57.8253 50.605 56.8569 50.3116 56.0134 49.7844C55.17 49.2572 54.4818 48.5153 54.0195 47.6346L59.1395 44.7046Z" fill="#3C3378"/>
<path d="M41.4502 6.4048L28.1002 14.1148C19.1002 19.3248 11.7402 33.3648 11.7402 45.3948C11.7402 45.8948 11.7402 46.3948 11.7402 46.8348C11.7402 47.1048 11.7402 47.3348 11.7402 47.5948C11.7402 47.8548 11.7902 48.0548 11.8202 48.2848C11.8502 48.5148 11.8802 48.8348 11.9202 49.0848C12.1008 50.5005 12.4361 51.8922 12.9202 53.2348C13.1302 53.7448 13.3502 54.2348 13.5902 54.6648C13.7005 54.8938 13.8276 55.1144 13.9702 55.3248C14.0122 55.3978 14.059 55.468 14.1102 55.5348C14.3274 55.9127 14.582 56.2678 14.8702 56.5948C15.0302 56.7748 15.1902 56.9748 15.3602 57.1348L15.8702 57.6348C16.0502 57.7748 16.2302 57.9448 16.4102 58.0848C16.5914 58.2272 16.7818 58.3575 16.9802 58.4748L17.5802 58.8148C18.3415 59.2257 19.1663 59.5063 20.0202 59.6448C20.0851 59.6227 20.1554 59.6227 20.2202 59.6448C20.4502 59.6448 20.6702 59.6448 20.8902 59.6448C21.1333 59.6596 21.3771 59.6596 21.6202 59.6448C22.2628 59.6476 22.9036 59.5771 23.5302 59.4348C23.9047 59.3603 24.2752 59.2669 24.6402 59.1548C25.806 58.7938 26.9266 58.3006 27.9802 57.6848C27.9307 60.647 26.9745 63.5228 25.2402 65.9248C24.9202 66.3548 25.4102 66.7248 25.7802 66.5348C27.4168 65.6858 28.8656 64.5158 30.0402 63.0948C32.2959 60.4216 33.8769 57.246 34.6502 53.8348L33.6502 54.3848L41.2802 49.9848C42.0187 49.5593 42.7301 49.0884 43.4102 48.5748C43.3515 48.321 43.3081 48.0638 43.2802 47.8048C43.2802 47.6348 43.2202 47.3848 43.2002 47.1248C43.1639 46.903 43.1405 46.6793 43.1302 46.4548V46.3348C43.1203 46.1683 43.1203 46.0013 43.1302 45.8348C43.1302 45.4548 43.1302 45.0548 43.1302 44.6548C43.1302 34.5348 49.1302 23.1248 56.8502 18.6548L57.7002 18.1548C57.6202 6.58479 50.3502 1.2648 41.4502 6.4048Z" fill="#5348A7"/>
<path d="M68.4002 15.485L58.4002 21.265C51.6302 25.185 46.1104 35.715 46.1104 44.755C46.1104 45.125 46.1104 45.485 46.1104 45.835C46.1104 46.185 46.1104 46.205 46.1104 46.395C46.1104 46.585 46.1104 46.745 46.1604 46.925C46.1765 47.1229 46.203 47.3199 46.2402 47.515C46.3501 48.4051 46.5582 49.2804 46.8604 50.125C46.8987 50.2799 46.9523 50.4306 47.0204 50.575C47.0881 50.7731 47.1682 50.9668 47.2603 51.155C47.3402 51.343 47.4304 51.5266 47.5303 51.705C47.6129 51.8794 47.7099 52.0467 47.8204 52.205C47.8438 52.2617 47.874 52.3155 47.9104 52.365C48.1004 52.645 48.2902 52.905 48.4902 53.155C48.6057 53.2985 48.7294 53.4354 48.8604 53.565L49.2402 53.935C49.3698 54.0566 49.5067 54.1701 49.6502 54.275C49.782 54.3829 49.9227 54.4799 50.0704 54.565C50.2204 54.655 50.3604 54.745 50.5204 54.825L50.9804 55.0449L51.4604 55.215C51.7531 55.3036 52.05 55.377 52.3503 55.435H52.5003C52.6667 55.4502 52.834 55.4502 53.0003 55.435C53.1828 55.4603 53.3679 55.4603 53.5504 55.435C53.98 55.4374 54.4085 55.3972 54.8302 55.315C55.1675 55.2569 55.5014 55.1801 55.8302 55.085C56.7093 54.8197 57.5526 54.4469 58.3403 53.975L61.7201 52.035C62.189 52.9063 62.8799 53.6381 63.7229 54.1562C64.5659 54.6743 65.5311 54.9602 66.5203 54.985C68.0522 55.243 69.6265 54.9789 70.9903 54.235C71.3503 54.005 71.4402 53.325 71.1202 53.235C68.8302 52.825 66.8402 50.645 66.8402 49.045L68.3602 48.165C69.2507 47.6477 70.0911 47.0485 70.8702 46.375C71.1502 46.135 71.4303 45.875 71.7003 45.615C72.2076 45.1455 72.6885 44.6481 73.1404 44.125C73.3204 43.915 73.5002 43.715 73.6802 43.475C73.8602 43.235 74.0102 43.075 74.1802 42.865L74.3302 42.665C74.996 41.7846 75.6105 40.8664 76.1703 39.915L76.6202 39.145C76.7702 38.885 76.9103 38.625 77.0503 38.355C77.1903 38.085 77.3103 37.815 77.4503 37.555L77.8402 36.735C77.9702 36.455 78.0803 36.175 78.2003 35.915C78.4103 35.435 78.6101 34.9149 78.7801 34.455L78.8702 34.185C78.9802 33.905 79.0802 33.625 79.1603 33.345C79.3502 32.795 79.5003 32.2649 79.6703 31.705C80.0221 30.3906 80.2861 29.0543 80.4604 27.705C80.4604 27.475 80.5101 27.255 80.5301 27.025C80.5501 26.795 80.5302 26.625 80.5802 26.435C80.6302 26.245 80.5802 26.035 80.5802 25.835C80.5802 25.465 80.5802 25.085 80.5802 24.715C80.6902 15.745 75.1702 11.575 68.4002 15.485Z" fill="#5348A7"/>
</g>
</g>
<defs>
<filter id="filter0_d" x="0" y="0" width="84.6025" height="74.6246" filterUnits="userSpaceOnUse" color-interpolation-filters="sRGB">
<feFlood flood-opacity="0" result="BackgroundImageFix"/>
<feColorMatrix in="SourceAlpha" type="matrix" values="0 0 0 0 0 0 0 0 0 0 0 0 0 0 0 0 0 0 127 0"/>
<feOffset dy="4"/>
<feGaussianBlur stdDeviation="2"/>
<feColorMatrix type="matrix" values="0 0 0 0 0 0 0 0 0 0 0 0 0 0 0 0 0 0 0.25 0"/>
<feBlend mode="normal" in2="BackgroundImageFix" result="effect1_dropShadow"/>
<feBlend mode="normal" in="SourceGraphic" in2="effect1_dropShadow" result="shape"/>
</filter>
<clipPath id="clip0">
<rect width="85" height="75" fill="white"/>
</clipPath>
</defs>
</svg>
