<svg width="85" height="74" viewBox="0 0 85 74" fill="none" xmlns="http://www.w3.org/2000/svg">
<path d="M16.9298 45.3299V25.5199C16.8698 21.6799 19.3698 17.8299 24.4398 14.9099C34.4398 9.11988 50.6998 9.11988 60.7198 14.9099C65.7898 17.8299 68.2898 21.6799 68.2298 25.5199V45.2599C68.2298 49.0799 65.7698 55.9099 60.7198 58.8199C50.7198 64.6099 34.4598 64.6099 24.4398 58.8199C19.4398 55.9399 16.9398 49.1599 16.9298 45.3699V45.3299Z" fill="#331056"/>
<path d="M42.58 0.939941L84.91 25.3799L42.58 49.8199L0.25 25.3799L42.58 0.939941Z" fill="#3C3378"/>
<path d="M21.3994 37.5898L42.2494 25.6898C42.3354 25.6406 42.4303 25.6088 42.5286 25.5962C42.6269 25.5836 42.7267 25.5905 42.8224 25.6165C42.918 25.6425 43.0076 25.6871 43.086 25.7477C43.1644 25.8084 43.2302 25.8838 43.2794 25.9698C43.3286 26.0559 43.3605 26.1507 43.3731 26.249C43.3856 26.3474 43.3787 26.4472 43.3527 26.5428C43.3267 26.6385 43.2821 26.7281 43.2215 26.8065C43.1609 26.8849 43.0854 26.9506 42.9994 26.9998L22.8894 38.4498L21.3994 37.5898Z" fill="#331056"/>
<path d="M84.9101 25.3799V27.1299L42.5801 51.5599V49.8199L84.9101 25.3799Z" fill="#DDC1FB"/>
<path d="M0.25 25.3799V27.1299L42.58 51.5599V49.8199L0.25 25.3799Z" fill="#FBF3FC"/>
<path d="M20.3506 38.7299L21.6406 39.4699C21.8356 39.1513 22.1072 38.8866 22.4306 38.6999L22.8806 38.4399L21.4106 37.5999C20.9764 37.8916 20.614 38.2779 20.3506 38.7299Z" fill="#331056"/>
<path d="M68.2802 36.73L42.5802 54.18L16.9502 36.77L42.5802 51.56L68.2802 36.73Z" fill="#331056"/>
<path d="M18.6999 59.3101C19.0586 59.4951 19.4563 59.5917 19.8599 59.5917C20.2635 59.5917 20.6612 59.4951 21.0199 59.3101L22.9299 71.6401C22.9299 73.9701 16.8799 73.9701 16.8799 71.6401L18.6999 59.3101Z" fill="#3C3378"/>
<path d="M18.5906 66.3499L18.2106 73.1098C18.0859 73.0721 17.9653 73.0218 17.8506 72.9599L18.5906 66.3499Z" fill="#331056"/>
<path d="M21.4494 73.1599L20.6494 62.1599L21.8394 72.9999C21.7127 73.0609 21.5825 73.1144 21.4494 73.1599Z" fill="#331056"/>
<path d="M20.09 73.3799H19.71L19.91 64.6499L20.09 73.3799Z" fill="#331056"/>
<path d="M19.8505 60.3399C20.2938 60.3288 20.723 60.1823 21.0805 59.9199C21.2325 59.8077 21.3358 59.6416 21.3692 59.4557C21.4027 59.2697 21.3638 59.078 21.2605 58.9199C21.1514 58.7643 20.9858 58.6573 20.7991 58.6218C20.6123 58.5864 20.4191 58.6251 20.2605 58.7299C20.1653 58.8221 20.038 58.8737 19.9055 58.8737C19.773 58.8737 19.6457 58.8221 19.5505 58.7299C19.4727 58.6606 19.3814 58.6084 19.2823 58.5763C19.1832 58.5443 19.0785 58.5333 18.975 58.544C18.8714 58.5546 18.7711 58.5868 18.6807 58.6383C18.5902 58.6898 18.5114 58.7596 18.4494 58.8433C18.3873 58.9269 18.3434 59.0225 18.3204 59.1241C18.2973 59.2256 18.2957 59.3309 18.3155 59.4331C18.3354 59.5353 18.3763 59.6323 18.4357 59.7178C18.4951 59.8033 18.5717 59.8756 18.6605 59.9299C19.0047 60.1873 19.4208 60.3307 19.8505 60.3399Z" fill="#331056"/>
<path d="M19.8999 58.4201C19.9979 58.4214 20.0952 58.4032 20.1861 58.3666C20.2771 58.33 20.3598 58.2757 20.4296 58.2069C20.4994 58.138 20.5548 58.056 20.5926 57.9656C20.6304 57.8751 20.6499 57.7781 20.6499 57.68V40.2001C20.6509 39.807 20.7548 39.4211 20.9513 39.0808C21.1478 38.7404 21.43 38.4574 21.7699 38.2601L42.9999 26.1601C43.1685 26.0635 43.2924 25.9045 43.3447 25.7174C43.3971 25.5303 43.3738 25.3301 43.2799 25.1601C43.233 25.0756 43.1699 25.0013 43.0941 24.9414C43.0183 24.8815 42.9314 24.8373 42.8384 24.8112C42.7453 24.7852 42.6481 24.7778 42.5522 24.7897C42.4564 24.8015 42.3638 24.8322 42.2799 24.8801L20.9999 37.0001C20.4326 37.3276 19.9614 37.7983 19.6332 38.3651C19.305 38.932 19.1314 39.5751 19.1299 40.2301V57.7101C19.1337 57.8073 19.1567 57.9027 19.1975 57.9911C19.2383 58.0794 19.2962 58.1588 19.3677 58.2247C19.4392 58.2907 19.523 58.3419 19.6143 58.3754C19.7056 58.4089 19.8027 58.4241 19.8999 58.4201Z" fill="#DDC1FB"/>
<path d="M21.5397 57.68C21.5417 57.3552 21.4472 57.0372 21.2682 56.7662C21.0892 56.4952 20.8338 56.2834 20.5343 56.1578C20.2348 56.0321 19.9047 55.9982 19.586 56.0603C19.2672 56.1225 18.974 56.2779 18.7437 56.5068C18.5133 56.7358 18.3561 57.028 18.292 57.3464C18.2279 57.6648 18.2598 57.995 18.3836 58.2953C18.5075 58.5956 18.7176 58.8523 18.9876 59.0329C19.2575 59.2136 19.5749 59.31 19.8997 59.31C20.1146 59.3113 20.3277 59.2702 20.5266 59.1888C20.7255 59.1075 20.9064 58.9877 21.0588 58.8362C21.2112 58.6847 21.3322 58.5045 21.4147 58.3061C21.4972 58.1077 21.5397 57.8949 21.5397 57.68Z" fill="#3C3378"/>
<path d="M18.28 57.7701C18.3483 57.9392 18.4523 58.0917 18.5848 58.2171C18.7174 58.3425 18.8754 58.4378 19.0481 58.4967C19.2208 58.5555 19.4041 58.5764 19.5857 58.558C19.7672 58.5396 19.9426 58.4823 20.1 58.3901C20.3008 58.2691 20.467 58.0982 20.5823 57.8941C20.6977 57.69 20.7583 57.4595 20.7583 57.2251C20.7583 56.9906 20.6977 56.7601 20.5823 56.556C20.467 56.3519 20.3008 56.181 20.1 56.0601C20.4059 56.1023 20.6936 56.2305 20.9294 56.4299C21.1653 56.6292 21.3396 56.8915 21.4322 57.1861C21.5248 57.4807 21.5318 57.7955 21.4524 58.094C21.373 58.3924 21.2104 58.6621 20.9836 58.8717C20.7568 59.0814 20.4752 59.2222 20.1714 59.278C19.8677 59.3337 19.5543 59.302 19.2679 59.1866C18.9815 59.0712 18.7337 58.8767 18.5535 58.6259C18.3733 58.3752 18.2681 58.0784 18.25 57.7701H18.28Z" fill="#331056"/>
</svg>
