<svg width="431" height="392" viewBox="0 0 431 392" fill="none" xmlns="http://www.w3.org/2000/svg">
<path d="M63.0638 358.732C147.144 402.662 283.484 402.662 367.564 358.732C451.644 314.802 451.654 243.582 367.564 199.652C283.474 155.722 147.144 155.722 63.0638 199.652C-21.0163 243.582 -21.0262 314.802 63.0638 358.732Z" fill="url(#paint0_linear)"/>
<path d="M281.024 347.622C306.379 347.622 326.934 337.826 326.934 325.742C326.934 313.658 306.379 303.862 281.024 303.862C255.668 303.862 235.114 313.658 235.114 325.742C235.114 337.826 255.668 347.622 281.024 347.622Z" fill="#B6A8D2"/>
<path d="M362.354 297.722C381.916 297.722 397.774 290.165 397.774 280.842C397.774 271.52 381.916 263.962 362.354 263.962C342.792 263.962 326.934 271.52 326.934 280.842C326.934 290.165 342.792 297.722 362.354 297.722Z" fill="#B6A8D2"/>
<path d="M109.904 276.112C107.904 265.552 100.584 250.502 91.6539 242.112C83.0639 234.052 70.3139 231.242 65.2339 234.962C60.1539 238.682 63.4839 246.722 73.3439 256.522C84.4739 267.572 105.844 298.232 109.904 315.602V276.112Z" fill="#776DB4"/>
<g opacity="0.2">
<path opacity="0.2" d="M109.904 276.112C107.904 265.552 100.584 250.502 91.6539 242.112C83.0639 234.052 70.3139 231.242 65.2339 234.962C60.1539 238.682 63.4839 246.722 73.3439 256.522C84.4739 267.572 105.844 298.232 109.904 315.602V276.112Z" fill="black"/>
</g>
<path d="M109.904 301.522C109.779 301.521 109.658 301.473 109.566 301.388C109.474 301.303 109.416 301.187 109.404 301.062C106.884 274.462 88.2838 244.562 70.4038 238.332C70.279 238.287 70.1768 238.195 70.1189 238.075C70.061 237.956 70.052 237.818 70.0938 237.692C70.1391 237.568 70.2314 237.465 70.3509 237.407C70.4704 237.35 70.6078 237.341 70.7338 237.382C89.2738 243.832 107.824 273.552 110.424 300.972C110.435 301.105 110.394 301.236 110.31 301.339C110.226 301.441 110.106 301.507 109.974 301.522H109.904Z" fill="white"/>
<path d="M109.904 328.372C109.904 328.372 106.444 331.132 94.904 330.052C83.364 328.972 77.414 320.722 77.414 317.182C77.414 313.642 88.024 313.032 90.324 304.252C87.9844 306.76 84.872 308.411 81.484 308.942C75.484 310.072 70.664 308.152 69.294 297.222C72.2512 297.655 75.2681 297.405 78.114 296.492C82.864 294.962 83.994 292.352 82.754 291.792C81.514 291.232 74.894 291.792 70.654 290.182C66.414 288.572 69.654 266.492 72.434 264.922C75.214 263.352 88.364 267.052 90.924 269.032C93.204 270.792 96.404 273.842 94.924 280.292C96.6771 278.654 98.0435 276.645 98.924 274.412C100.164 271.412 101.064 272.112 102.924 273.262C104.041 273.892 105.01 274.753 105.767 275.788C106.525 276.823 107.052 278.007 107.314 279.262C107.764 282.062 107.034 291.722 103.094 294.862C103.094 294.862 106.874 295.342 109.964 288.962C109.964 288.962 115.964 291.382 117.324 295.302C118.684 299.222 120.164 318.412 109.904 328.372Z" fill="#776DB4"/>
<path d="M110.924 330.552C110.802 330.551 110.684 330.506 110.592 330.425C110.5 330.344 110.441 330.233 110.424 330.112C107.784 308.502 91.3538 280.112 75.2438 269.452C75.1324 269.378 75.0551 269.263 75.0288 269.131C75.0026 269 75.0296 268.864 75.1038 268.752C75.1781 268.641 75.2936 268.564 75.4248 268.537C75.5561 268.511 75.6924 268.538 75.8038 268.612C92.1138 279.462 108.804 308.142 111.414 329.992C111.431 330.124 111.395 330.256 111.315 330.361C111.234 330.466 111.115 330.535 110.984 330.552H110.924Z" fill="white"/>
<path d="M111.934 333.572C111.337 333.159 110.845 332.612 110.498 331.975C110.151 331.337 109.957 330.628 109.934 329.902V90.9922C109.974 90.2405 110.192 89.5089 110.569 88.8573C110.946 88.2056 111.472 87.6522 112.104 87.2422L262.104 0.622252C262.73 0.229 263.453 0.0140987 264.193 0.000670324C264.932 -0.012758 265.662 0.175793 266.303 0.546039C266.943 0.916284 267.471 1.45422 267.829 2.10196C268.187 2.74971 268.361 3.48276 268.334 4.22225L116.134 333.492C115.489 333.835 114.773 334.021 114.043 334.035C113.313 334.049 112.591 333.89 111.934 333.572Z" fill="#E0E0E0"/>
<path d="M113.964 95.5322L174.894 55.6623L170.834 53.3123L112.074 87.2423C111.442 87.6523 110.917 88.2056 110.54 88.8573C110.162 89.5089 109.945 90.2405 109.904 90.9923V93.1823L113.964 95.5322Z" fill="#37474F"/>
<path opacity="0.2" d="M113.964 95.5322L174.894 55.6623L170.834 53.3123L112.074 87.2423C111.442 87.6523 110.917 88.2056 110.54 88.8573C110.162 89.5089 109.945 90.2405 109.904 90.9923V93.1823L113.964 95.5322Z" fill="#37474F"/>
<path d="M134.314 102.562L110.534 88.8823C110.146 89.5273 109.93 90.2603 109.904 91.0123V329.882C109.878 330.621 110.054 331.353 110.412 331.999C110.771 332.645 111.299 333.182 111.939 333.551C112.58 333.92 113.308 334.107 114.047 334.094C114.786 334.08 115.508 333.865 116.134 333.472L134.314 323.022V102.562Z" fill="#263238"/>
<path opacity="0.4" d="M134.314 102.562L110.534 88.8823C110.146 89.5273 109.93 90.2603 109.904 91.0123V329.882C109.878 330.621 110.054 331.353 110.412 331.999C110.771 332.645 111.299 333.182 111.939 333.551C112.58 333.92 113.308 334.107 114.047 334.094C114.786 334.08 115.508 333.865 116.134 333.472L134.314 323.022V102.562Z" fill="#263238"/>
<path d="M116.134 333.492L266.134 246.872C266.765 246.462 267.291 245.909 267.668 245.257C268.045 244.605 268.263 243.874 268.304 243.122V4.22217C268.304 2.84217 267.304 2.28217 266.134 2.97217L116.134 89.5922C115.502 90.0022 114.977 90.5555 114.6 91.2072C114.223 91.8589 114.005 92.5904 113.964 93.3422V332.242C113.964 333.622 114.934 334.182 116.134 333.492Z" fill="#455A64"/>
<path opacity="0.1" d="M116.134 333.492L266.134 246.872C266.765 246.462 267.291 245.909 267.668 245.257C268.045 244.605 268.263 243.874 268.304 243.122V4.22217C268.304 2.84217 267.304 2.28217 266.134 2.97217L116.134 89.5922C115.502 90.0022 114.977 90.5555 114.6 91.2072C114.223 91.8589 114.005 92.5904 113.964 93.3422V332.242C113.964 333.622 114.934 334.182 116.134 333.492Z" fill="#455A64"/>
<path d="M126.424 148.522L162.424 127.722C164.814 126.342 166.754 127.322 166.754 129.912C166.647 131.367 166.199 132.775 165.447 134.024C164.695 135.273 163.659 136.328 162.424 137.102L126.424 157.902C124.024 159.282 122.094 158.302 122.094 155.712C122.198 154.258 122.645 152.848 123.397 151.599C124.15 150.349 125.187 149.295 126.424 148.522Z" fill="#776DB4"/>
<path d="M126.424 163.282L150.254 149.522C152.644 148.142 154.584 149.122 154.584 151.712C154.477 153.167 154.029 154.575 153.277 155.824C152.525 157.073 151.489 158.128 150.254 158.902L126.424 172.662C124.024 174.042 122.094 173.062 122.094 170.472C122.198 169.018 122.645 167.608 123.397 166.359C124.15 165.109 125.187 164.055 126.424 163.282Z" fill="#776DB4"/>
<path d="M123.824 188.542L128.484 185.852C129.484 185.302 130.214 185.752 130.214 186.852V192.232C130.181 192.833 130.008 193.418 129.707 193.939C129.407 194.46 128.987 194.903 128.484 195.232L123.824 197.882C122.824 198.442 122.094 197.992 122.094 196.882V191.502C122.133 190.908 122.31 190.332 122.61 189.818C122.91 189.305 123.326 188.868 123.824 188.542Z" fill="#776DB4"/>
<path opacity="0.2" d="M123.824 188.542L128.484 185.852C129.484 185.302 130.214 185.752 130.214 186.852V192.232C130.181 192.833 130.008 193.418 129.707 193.939C129.407 194.46 128.987 194.903 128.484 195.232L123.824 197.882C122.824 198.442 122.094 197.992 122.094 196.882V191.502C122.133 190.908 122.31 190.332 122.61 189.818C122.91 189.305 123.326 188.868 123.824 188.542Z" fill="black"/>
<path d="M123.824 207.312L128.484 204.622C129.484 204.062 130.214 204.512 130.214 205.622V211.002C130.179 211.603 130.004 212.186 129.704 212.707C129.404 213.228 128.986 213.672 128.484 214.002L123.824 216.692C122.824 217.242 122.094 216.792 122.094 215.692V210.312C122.125 209.711 122.297 209.126 122.598 208.604C122.899 208.083 123.319 207.64 123.824 207.312Z" fill="#776DB4"/>
<g opacity="0.2">
<path opacity="0.2" d="M123.824 207.312L128.484 204.622C129.484 204.062 130.214 204.512 130.214 205.622V211.002C130.179 211.603 130.004 212.186 129.704 212.707C129.404 213.228 128.986 213.672 128.484 214.002L123.824 216.692C122.824 217.242 122.094 216.792 122.094 215.692V210.312C122.125 209.711 122.297 209.126 122.598 208.604C122.899 208.083 123.319 207.64 123.824 207.312Z" fill="black"/>
</g>
<path d="M136.444 202.372L164.604 186.102C165.804 185.412 166.774 185.902 166.774 187.202C166.72 187.929 166.495 188.633 166.118 189.257C165.741 189.88 165.222 190.406 164.604 190.792L136.444 207.062C135.244 207.752 134.274 207.262 134.274 205.962C134.328 205.236 134.553 204.532 134.93 203.908C135.307 203.284 135.826 202.758 136.444 202.372Z" fill="#776DB4"/>
<path opacity="0.2" d="M136.444 202.372L164.604 186.102C165.804 185.412 166.774 185.902 166.774 187.202C166.72 187.929 166.495 188.633 166.118 189.257C165.741 189.88 165.222 190.406 164.604 190.792L136.444 207.062C135.244 207.752 134.274 207.262 134.274 205.962C134.328 205.236 134.553 204.532 134.93 203.908C135.307 203.284 135.826 202.758 136.444 202.372Z" fill="black"/>
<path d="M123.824 226.072L128.484 223.382C129.484 222.822 130.214 223.272 130.214 224.382V229.762C130.18 230.363 130.006 230.947 129.705 231.468C129.405 231.989 128.986 232.432 128.484 232.762L123.824 235.452C122.824 236.002 122.094 235.552 122.094 234.452V229.072C122.125 228.471 122.297 227.886 122.598 227.364C122.899 226.843 123.319 226.4 123.824 226.072Z" fill="#E0E0E0"/>
<path d="M136.444 221.132L164.604 204.882C165.804 204.192 166.774 204.682 166.774 205.982C166.721 206.709 166.497 207.414 166.12 208.038C165.743 208.662 165.223 209.187 164.604 209.572L136.444 225.842C135.244 226.532 134.274 226.042 134.274 224.742C134.325 224.012 134.549 223.304 134.926 222.677C135.303 222.049 135.823 221.52 136.444 221.132Z" fill="#F0F0F0"/>
<path d="M123.824 244.882L128.484 242.192C129.484 241.632 130.214 242.082 130.214 243.192V248.572C130.18 249.173 130.006 249.757 129.705 250.278C129.405 250.799 128.986 251.242 128.484 251.572L123.824 254.262C122.824 254.812 122.094 254.362 122.094 253.262V247.882C122.125 247.281 122.297 246.696 122.598 246.174C122.899 245.653 123.319 245.21 123.824 244.882Z" fill="#E0E0E0"/>
<path d="M136.444 239.942L164.604 223.682C165.804 222.982 166.774 223.482 166.774 224.772C166.721 225.501 166.497 226.207 166.12 226.832C165.743 227.458 165.223 227.985 164.604 228.372L136.444 244.632C135.244 245.322 134.274 244.832 134.274 243.532C134.328 242.805 134.553 242.102 134.93 241.478C135.307 240.854 135.826 240.328 136.444 239.942Z" fill="#F0F0F0"/>
<path d="M123.824 263.642L128.484 260.952C129.484 260.392 130.214 260.842 130.214 261.952V267.332C130.18 267.933 130.006 268.517 129.705 269.038C129.405 269.559 128.986 270.002 128.484 270.332L123.824 273.022C122.824 273.572 122.094 273.122 122.094 272.022V266.642C122.125 266.041 122.297 265.456 122.598 264.934C122.899 264.413 123.319 263.97 123.824 263.642Z" fill="#E0E0E0"/>
<path d="M136.444 258.702L164.604 242.442C165.804 241.742 166.774 242.242 166.774 243.532C166.721 244.261 166.497 244.967 166.12 245.592C165.743 246.218 165.223 246.745 164.604 247.132L136.444 263.392C135.244 264.082 134.274 263.592 134.274 262.292C134.328 261.566 134.553 260.862 134.93 260.238C135.307 259.614 135.826 259.088 136.444 258.702Z" fill="#F0F0F0"/>
<path d="M124.254 282.102L144.254 270.532C145.454 269.842 146.424 270.332 146.424 271.632C146.369 272.359 146.145 273.063 145.768 273.687C145.391 274.31 144.872 274.836 144.254 275.222L124.254 286.792C123.064 287.482 122.094 286.992 122.094 285.702C122.146 284.975 122.369 284.27 122.744 283.645C123.12 283.019 123.637 282.491 124.254 282.102Z" fill="#776DB4"/>
<path d="M124.254 291.482L164.604 268.192C165.804 267.502 166.774 267.992 166.774 269.282C166.721 270.011 166.497 270.716 166.12 271.342C165.743 271.968 165.223 272.495 164.604 272.882L124.254 296.172C123.064 296.862 122.094 296.372 122.094 295.082C122.146 294.355 122.369 293.65 122.744 293.025C123.12 292.399 123.637 291.871 124.254 291.482Z" fill="#776DB4"/>
<path opacity="0.8" d="M124.254 291.482L164.604 268.192C165.804 267.502 166.774 267.992 166.774 269.282C166.721 270.011 166.497 270.716 166.12 271.342C165.743 271.968 165.223 272.495 164.604 272.882L124.254 296.172C123.064 296.862 122.094 296.372 122.094 295.082C122.146 294.355 122.369 293.65 122.744 293.025C123.12 292.399 123.637 291.871 124.254 291.482Z" fill="white"/>
<path d="M124.254 291.482L152.424 275.222C153.614 274.532 154.584 275.022 154.584 276.322C154.53 277.048 154.306 277.751 153.931 278.374C153.556 278.998 153.04 279.525 152.424 279.912L124.254 296.172C123.064 296.862 122.094 296.372 122.094 295.082C122.146 294.355 122.369 293.65 122.744 293.025C123.12 292.399 123.637 291.871 124.254 291.482Z" fill="#776DB4"/>
<path d="M124.254 300.882L144.254 289.312C145.454 288.622 146.424 289.112 146.424 290.412C146.369 291.139 146.145 291.843 145.768 292.467C145.391 293.09 144.872 293.616 144.254 294.002L124.254 305.572C123.064 306.262 122.094 305.772 122.094 304.482C122.146 303.755 122.369 303.05 122.744 302.425C123.12 301.799 123.637 301.271 124.254 300.882Z" fill="#776DB4"/>
<path d="M136.444 183.602L164.604 167.342C165.804 166.652 166.774 167.142 166.774 168.442C166.72 169.169 166.495 169.873 166.118 170.497C165.741 171.12 165.222 171.646 164.604 172.032L136.444 188.292C135.244 188.982 134.274 188.492 134.274 187.202C134.327 186.474 134.551 185.768 134.928 185.143C135.305 184.517 135.824 183.989 136.444 183.602Z" fill="#776DB4"/>
<path opacity="0.2" d="M136.444 183.602L164.604 167.342C165.804 166.652 166.774 167.142 166.774 168.442C166.72 169.169 166.495 169.873 166.118 170.497C165.741 171.12 165.222 171.646 164.604 172.032L136.444 188.292C135.244 188.982 134.274 188.492 134.274 187.202C134.327 186.474 134.551 185.768 134.928 185.143C135.305 184.517 135.824 183.989 136.444 183.602Z" fill="black"/>
<path d="M124.254 300.882L144.254 289.312C145.454 288.622 146.424 289.112 146.424 290.412C146.369 291.139 146.145 291.843 145.768 292.467C145.391 293.09 144.872 293.616 144.254 294.002L124.254 305.572C123.064 306.262 122.094 305.772 122.094 304.482C122.146 303.755 122.369 303.05 122.744 302.425C123.12 301.799 123.637 301.271 124.254 300.882Z" fill="#776DB4"/>
<path d="M124.254 310.232L164.604 286.942C165.804 286.252 166.774 286.742 166.774 288.032C166.721 288.761 166.497 289.466 166.12 290.092C165.743 290.718 165.223 291.245 164.604 291.632L124.254 314.882C123.064 315.582 122.094 315.082 122.094 313.792C122.152 313.072 122.378 312.375 122.753 311.757C123.128 311.139 123.642 310.617 124.254 310.232Z" fill="#776DB4"/>
<path opacity="0.8" d="M124.254 310.232L164.604 286.942C165.804 286.252 166.774 286.742 166.774 288.032C166.721 288.761 166.497 289.466 166.12 290.092C165.743 290.718 165.223 291.245 164.604 291.632L124.254 314.882C123.064 315.582 122.094 315.082 122.094 313.792C122.152 313.072 122.378 312.375 122.753 311.757C123.128 311.139 123.642 310.617 124.254 310.232Z" fill="white"/>
<path d="M124.254 310.232L160.544 289.232C161.744 288.542 162.714 289.032 162.714 290.332C162.659 291.059 162.435 291.763 162.058 292.386C161.681 293.01 161.162 293.536 160.544 293.922L124.254 314.922C123.064 315.622 122.094 315.122 122.094 313.832C122.146 313.105 122.369 312.4 122.744 311.775C123.12 311.149 123.637 310.621 124.254 310.232Z" fill="#776DB4"/>
<path d="M266.154 2.97218L174.894 55.6622V299.562L266.154 246.882C266.786 246.472 267.311 245.919 267.688 245.267C268.065 244.616 268.283 243.884 268.324 243.132V4.22218C268.314 2.88218 267.314 2.28218 266.154 2.97218Z" fill="#EBEBEB"/>
<path opacity="0.6" d="M266.154 2.97218L174.894 55.6622V299.562L266.154 246.882C266.786 246.472 267.311 245.919 267.688 245.267C268.065 244.616 268.283 243.884 268.324 243.132V4.22218C268.314 2.88218 267.314 2.28218 266.154 2.97218Z" fill="#FAFAFA"/>
<path d="M174.894 65.0422V83.8022L166.774 93.1822H174.894V111.942L260.194 62.6922V15.7922L174.894 65.0422Z" fill="#776DB4"/>
<g opacity="0.6">
<path opacity="0.6" d="M186.054 65.6923L220.614 45.6923C222.284 44.6923 223.614 45.5123 223.614 47.4423C223.559 48.4909 223.259 49.5121 222.738 50.4238C222.217 51.3355 221.489 52.1125 220.614 52.6923L186.054 72.6423C184.374 73.6423 183.054 72.8223 183.054 70.8923C183.114 69.8518 183.417 68.8397 183.938 67.9369C184.459 67.0341 185.183 66.2654 186.054 65.6923Z" fill="white"/>
</g>
<path d="M184.104 80.8822L250.994 42.2622C251.594 41.9222 252.074 42.1622 252.074 42.8122C252.048 43.176 251.937 43.5286 251.749 43.8414C251.561 44.1541 251.303 44.4182 250.994 44.6122L184.104 83.1822C183.504 83.5222 183.024 83.2822 183.024 82.6322C183.057 82.2771 183.172 81.9345 183.359 81.631C183.547 81.3275 183.801 81.0713 184.104 80.8822Z" fill="#776DB4"/>
<path d="M184.104 80.8822L250.994 42.2622C251.594 41.9222 252.074 42.1622 252.074 42.8122C252.048 43.176 251.937 43.5286 251.749 43.8414C251.561 44.1541 251.303 44.4182 250.994 44.6122L184.104 83.1822C183.504 83.5222 183.024 83.2822 183.024 82.6322C183.057 82.2771 183.172 81.9345 183.359 81.631C183.547 81.3275 183.801 81.0713 184.104 80.8822Z" fill="#776DB4"/>
<path opacity="0.6" d="M184.104 80.8822L250.994 42.2622C251.594 41.9222 252.074 42.1622 252.074 42.8122C252.048 43.176 251.937 43.5286 251.749 43.8414C251.561 44.1541 251.303 44.4182 250.994 44.6122L184.104 83.1822C183.504 83.5222 183.024 83.2822 183.024 82.6322C183.057 82.2771 183.172 81.9345 183.359 81.631C183.547 81.3275 183.801 81.0713 184.104 80.8822Z" fill="white"/>
<path d="M184.104 87.8823L250.994 49.2622C251.594 48.9122 252.074 49.1623 252.074 49.8123C252.048 50.1747 251.937 50.5259 251.749 50.837C251.561 51.1482 251.303 51.4104 250.994 51.6023L184.104 90.2222C183.504 90.5722 183.024 90.3222 183.024 89.6722C183.05 89.3098 183.161 88.9586 183.349 88.6474C183.537 88.3363 183.795 88.0741 184.104 87.8823Z" fill="#776DB4"/>
<path opacity="0.6" d="M184.104 87.8823L250.994 49.2622C251.594 48.9122 252.074 49.1623 252.074 49.8123C252.048 50.1747 251.937 50.5259 251.749 50.837C251.561 51.1482 251.303 51.4104 250.994 51.6023L184.104 90.2222C183.504 90.5722 183.024 90.3222 183.024 89.6722C183.05 89.3098 183.161 88.9586 183.349 88.6474C183.537 88.3363 183.795 88.0741 184.104 87.8823Z" fill="white"/>
<path opacity="0.6" d="M184.104 94.8822L250.994 56.2622C251.594 55.9222 252.074 56.1622 252.074 56.8122C252.048 57.176 251.937 57.5286 251.749 57.8414C251.561 58.1541 251.303 58.4182 250.994 58.6122L184.104 97.2322C183.504 97.5722 183.024 97.3322 183.024 96.6822C183.05 96.3184 183.161 95.9658 183.349 95.6531C183.536 95.3403 183.795 95.0762 184.104 94.8822Z" fill="white"/>
<path d="M186.624 114.582L191.314 111.882C192.314 111.322 193.044 111.772 193.044 112.882V118.262C193.011 118.863 192.837 119.447 192.536 119.968C192.236 120.489 191.817 120.933 191.314 121.262L186.654 123.952C185.654 124.502 184.924 124.052 184.924 122.952V117.582C184.951 116.984 185.12 116.4 185.415 115.879C185.71 115.358 186.125 114.913 186.624 114.582Z" fill="#776DB4"/>
<path opacity="0.2" d="M186.624 114.582L191.314 111.882C192.314 111.322 193.044 111.772 193.044 112.882V118.262C193.011 118.863 192.837 119.447 192.536 119.968C192.236 120.489 191.817 120.933 191.314 121.262L186.654 123.952C185.654 124.502 184.924 124.052 184.924 122.952V117.582C184.951 116.984 185.12 116.4 185.415 115.879C185.71 115.358 186.125 114.913 186.624 114.582Z" fill="white"/>
<path d="M199.244 109.642L227.404 93.3721C228.604 92.6821 229.574 93.1721 229.574 94.4721C229.519 95.1989 229.295 95.9026 228.918 96.5263C228.541 97.1501 228.022 97.6762 227.404 98.0621L199.244 114.332C198.044 115.022 197.074 114.532 197.074 113.232C197.128 112.505 197.353 111.802 197.73 111.178C198.107 110.554 198.626 110.028 199.244 109.642Z" fill="#776DB4"/>
<path opacity="0.8" d="M199.244 109.642L227.404 93.3721C228.604 92.6821 229.574 93.1721 229.574 94.4721C229.519 95.1989 229.295 95.9026 228.918 96.5263C228.541 97.1501 228.022 97.6762 227.404 98.0621L199.244 114.332C198.044 115.022 197.074 114.532 197.074 113.232C197.128 112.505 197.353 111.802 197.73 111.178C198.107 110.554 198.626 110.028 199.244 109.642Z" fill="white"/>
<path d="M185.974 131.382L256.974 90.3822C257.574 90.0322 258.054 90.2822 258.054 90.9222C258.029 91.2862 257.918 91.6391 257.73 91.9519C257.543 92.2648 257.283 92.5288 256.974 92.7222L185.974 133.722C185.374 134.072 184.894 133.822 184.894 133.172C184.92 132.81 185.031 132.459 185.219 132.147C185.407 131.836 185.665 131.574 185.974 131.382Z" fill="#776DB4"/>
<path d="M185.974 138.412L256.974 97.4124C257.574 97.0724 258.054 97.3124 258.054 97.9624C258.028 98.3262 257.917 98.6788 257.729 98.9915C257.542 99.3042 257.283 99.5684 256.974 99.7624L185.974 140.762C185.374 141.102 184.894 140.862 184.894 140.212C184.92 139.849 185.031 139.496 185.219 139.183C185.406 138.87 185.665 138.606 185.974 138.412Z" fill="#776DB4"/>
<path d="M185.974 145.452L256.974 104.452C257.574 104.102 258.054 104.352 258.054 104.992C258.029 105.356 257.918 105.709 257.73 106.022C257.543 106.335 257.283 106.599 256.974 106.792L185.974 147.792C185.374 148.142 184.894 147.892 184.894 147.252C184.919 146.888 185.03 146.535 185.218 146.222C185.405 145.91 185.665 145.646 185.974 145.452Z" fill="#776DB4"/>
<path d="M185.974 152.502L256.974 111.502C257.574 111.162 258.054 111.402 258.054 112.052C258.028 112.416 257.917 112.769 257.729 113.081C257.542 113.394 257.283 113.658 256.974 113.852L185.974 154.852C185.374 155.192 184.894 154.952 184.894 154.302C184.92 153.938 185.031 153.586 185.219 153.273C185.406 152.96 185.665 152.696 185.974 152.502Z" fill="#776DB4"/>
<path d="M185.974 131.382L256.974 90.3822C257.574 90.0322 258.054 90.2822 258.054 90.9222C258.029 91.2862 257.918 91.6391 257.73 91.9519C257.543 92.2648 257.283 92.5288 256.974 92.7222L185.974 133.722C185.374 134.072 184.894 133.822 184.894 133.172C184.92 132.81 185.031 132.459 185.219 132.147C185.407 131.836 185.665 131.574 185.974 131.382Z" fill="#E0E0E0"/>
<path d="M185.974 138.412L256.974 97.4124C257.574 97.0724 258.054 97.3124 258.054 97.9624C258.028 98.3262 257.917 98.6788 257.729 98.9915C257.542 99.3042 257.283 99.5684 256.974 99.7624L185.974 140.762C185.374 141.102 184.894 140.862 184.894 140.212C184.92 139.849 185.031 139.496 185.219 139.183C185.406 138.87 185.665 138.606 185.974 138.412Z" fill="#E0E0E0"/>
<path d="M185.974 145.452L256.974 104.452C257.574 104.102 258.054 104.352 258.054 104.992C258.029 105.356 257.918 105.709 257.73 106.022C257.543 106.335 257.283 106.599 256.974 106.792L185.974 147.792C185.374 148.142 184.894 147.892 184.894 147.252C184.919 146.888 185.03 146.535 185.218 146.222C185.405 145.91 185.665 145.646 185.974 145.452Z" fill="#E0E0E0"/>
<path d="M185.974 152.502L256.974 111.502C257.574 111.162 258.054 111.402 258.054 112.052C258.028 112.416 257.917 112.769 257.729 113.081C257.542 113.394 257.283 113.658 256.974 113.852L185.974 154.852C185.374 155.192 184.894 154.952 184.894 154.302C184.92 153.938 185.031 153.586 185.219 153.273C185.406 152.96 185.665 152.696 185.974 152.502Z" fill="#E0E0E0"/>
<path opacity="0.8" d="M185.974 131.382L256.974 90.3822C257.574 90.0322 258.054 90.2822 258.054 90.9222C258.029 91.2862 257.918 91.6391 257.73 91.9519C257.543 92.2648 257.283 92.5288 256.974 92.7222L185.974 133.722C185.374 134.072 184.894 133.822 184.894 133.172C184.92 132.81 185.031 132.459 185.219 132.147C185.407 131.836 185.665 131.574 185.974 131.382Z" fill="#E0E0E0"/>
<path opacity="0.8" d="M185.974 138.412L256.974 97.4124C257.574 97.0724 258.054 97.3124 258.054 97.9624C258.028 98.3262 257.917 98.6788 257.729 98.9915C257.542 99.3042 257.283 99.5684 256.974 99.7624L185.974 140.762C185.374 141.102 184.894 140.862 184.894 140.212C184.92 139.849 185.031 139.496 185.219 139.183C185.406 138.87 185.665 138.606 185.974 138.412Z" fill="#E0E0E0"/>
<path opacity="0.8" d="M185.974 145.452L256.974 104.452C257.574 104.102 258.054 104.352 258.054 104.992C258.029 105.356 257.918 105.709 257.73 106.022C257.543 106.335 257.283 106.599 256.974 106.792L185.974 147.792C185.374 148.142 184.894 147.892 184.894 147.252C184.919 146.888 185.03 146.535 185.218 146.222C185.405 145.91 185.665 145.646 185.974 145.452Z" fill="#E0E0E0"/>
<path opacity="0.8" d="M185.974 152.502L256.974 111.502C257.574 111.162 258.054 111.402 258.054 112.052C258.028 112.416 257.917 112.769 257.729 113.081C257.542 113.394 257.283 113.658 256.974 113.852L185.974 154.852C185.374 155.192 184.894 154.952 184.894 154.302C184.92 153.938 185.031 153.586 185.219 153.273C185.406 152.96 185.665 152.696 185.974 152.502Z" fill="#E0E0E0"/>
<path d="M185.974 182.382L256.974 141.382C257.574 141.032 258.054 141.282 258.054 141.922C258.029 142.286 257.918 142.639 257.73 142.952C257.543 143.265 257.283 143.529 256.974 143.722L185.974 184.722C185.374 185.072 184.894 184.822 184.894 184.172C184.92 183.81 185.031 183.459 185.219 183.147C185.407 182.836 185.665 182.574 185.974 182.382Z" fill="#E0E0E0"/>
<path d="M185.974 189.412L256.974 148.412C257.574 148.072 258.054 148.312 258.054 148.962C258.028 149.326 257.917 149.679 257.729 149.991C257.542 150.304 257.283 150.568 256.974 150.762L185.974 191.762C185.374 192.102 184.894 191.862 184.894 191.212C184.92 190.849 185.031 190.496 185.219 190.183C185.406 189.87 185.665 189.606 185.974 189.412Z" fill="#E0E0E0"/>
<path d="M185.974 196.452L256.974 155.452C257.574 155.102 258.054 155.352 258.054 155.992C258.029 156.356 257.918 156.709 257.73 157.022C257.543 157.335 257.283 157.599 256.974 157.792L185.974 198.792C185.374 199.142 184.894 198.892 184.894 198.252C184.919 197.888 185.03 197.535 185.218 197.222C185.405 196.91 185.665 196.646 185.974 196.452Z" fill="#E0E0E0"/>
<path d="M185.974 203.502L256.974 162.502C257.574 162.162 258.054 162.402 258.054 163.052C258.028 163.416 257.917 163.769 257.729 164.081C257.542 164.394 257.283 164.658 256.974 164.852L185.974 205.852C185.374 206.192 184.894 205.952 184.894 205.302C184.92 204.938 185.031 204.586 185.219 204.273C185.406 203.96 185.665 203.696 185.974 203.502Z" fill="#E0E0E0"/>
<path opacity="0.8" d="M185.974 182.382L256.974 141.382C257.574 141.032 258.054 141.282 258.054 141.922C258.029 142.286 257.918 142.639 257.73 142.952C257.543 143.265 257.283 143.529 256.974 143.722L185.974 184.722C185.374 185.072 184.894 184.822 184.894 184.172C184.92 183.81 185.031 183.459 185.219 183.147C185.407 182.836 185.665 182.574 185.974 182.382Z" fill="#E0E0E0"/>
<path opacity="0.8" d="M185.974 189.412L256.974 148.412C257.574 148.072 258.054 148.312 258.054 148.962C258.028 149.326 257.917 149.679 257.729 149.991C257.542 150.304 257.283 150.568 256.974 150.762L185.974 191.762C185.374 192.102 184.894 191.862 184.894 191.212C184.92 190.849 185.031 190.496 185.219 190.183C185.406 189.87 185.665 189.606 185.974 189.412Z" fill="#E0E0E0"/>
<path opacity="0.8" d="M185.974 196.452L256.974 155.452C257.574 155.102 258.054 155.352 258.054 155.992C258.029 156.356 257.918 156.709 257.73 157.022C257.543 157.335 257.283 157.599 256.974 157.792L185.974 198.792C185.374 199.142 184.894 198.892 184.894 198.252C184.919 197.888 185.03 197.535 185.218 197.222C185.405 196.91 185.665 196.646 185.974 196.452Z" fill="#E0E0E0"/>
<path opacity="0.8" d="M185.974 203.502L256.974 162.502C257.574 162.162 258.054 162.402 258.054 163.052C258.028 163.416 257.917 163.769 257.729 164.081C257.542 164.394 257.283 164.658 256.974 164.852L185.974 205.852C185.374 206.192 184.894 205.952 184.894 205.302C184.92 204.938 185.031 204.586 185.219 204.273C185.406 203.96 185.665 203.696 185.974 203.502Z" fill="#E0E0E0"/>
<path d="M185.974 234.382L256.974 193.382C257.574 193.032 258.054 193.282 258.054 193.922C258.029 194.286 257.918 194.639 257.73 194.952C257.543 195.265 257.283 195.529 256.974 195.722L185.974 236.722C185.374 237.072 184.894 236.822 184.894 236.172C184.92 235.81 185.031 235.459 185.219 235.147C185.407 234.836 185.665 234.574 185.974 234.382Z" fill="#E0E0E0"/>
<path d="M185.974 241.412L256.974 200.412C257.574 200.072 258.054 200.312 258.054 200.962C258.028 201.326 257.917 201.679 257.729 201.991C257.542 202.304 257.283 202.568 256.974 202.762L185.974 243.762C185.374 244.102 184.894 243.862 184.894 243.212C184.92 242.849 185.031 242.496 185.219 242.183C185.406 241.87 185.665 241.606 185.974 241.412Z" fill="#E0E0E0"/>
<path d="M185.974 248.452L256.974 207.452C257.574 207.102 258.054 207.352 258.054 207.992C258.029 208.356 257.918 208.709 257.73 209.022C257.543 209.335 257.283 209.599 256.974 209.792L185.974 250.792C185.374 251.142 184.894 250.892 184.894 250.252C184.919 249.888 185.03 249.535 185.218 249.222C185.405 248.91 185.665 248.646 185.974 248.452Z" fill="#E0E0E0"/>
<path d="M185.974 255.502L256.974 214.502C257.574 214.162 258.054 214.402 258.054 215.052C258.028 215.416 257.917 215.769 257.729 216.081C257.542 216.394 257.283 216.658 256.974 216.852L185.974 257.852C185.374 258.192 184.894 257.952 184.894 257.302C184.92 256.938 185.031 256.586 185.219 256.273C185.406 255.96 185.665 255.696 185.974 255.502Z" fill="#E0E0E0"/>
<path opacity="0.8" d="M185.974 234.382L256.974 193.382C257.574 193.032 258.054 193.282 258.054 193.922C258.029 194.286 257.918 194.639 257.73 194.952C257.543 195.265 257.283 195.529 256.974 195.722L185.974 236.722C185.374 237.072 184.894 236.822 184.894 236.172C184.92 235.81 185.031 235.459 185.219 235.147C185.407 234.836 185.665 234.574 185.974 234.382Z" fill="#E0E0E0"/>
<path opacity="0.8" d="M185.974 241.412L256.974 200.412C257.574 200.072 258.054 200.312 258.054 200.962C258.028 201.326 257.917 201.679 257.729 201.991C257.542 202.304 257.283 202.568 256.974 202.762L185.974 243.762C185.374 244.102 184.894 243.862 184.894 243.212C184.92 242.849 185.031 242.496 185.219 242.183C185.406 241.87 185.665 241.606 185.974 241.412Z" fill="#E0E0E0"/>
<path opacity="0.8" d="M185.974 248.452L256.974 207.452C257.574 207.102 258.054 207.352 258.054 207.992C258.029 208.356 257.918 208.709 257.73 209.022C257.543 209.335 257.283 209.599 256.974 209.792L185.974 250.792C185.374 251.142 184.894 250.892 184.894 250.252C184.919 249.888 185.03 249.535 185.218 249.222C185.405 248.91 185.665 248.646 185.974 248.452Z" fill="#E0E0E0"/>
<path opacity="0.8" d="M185.974 255.502L256.974 214.502C257.574 214.162 258.054 214.402 258.054 215.052C258.028 215.416 257.917 215.769 257.729 216.081C257.542 216.394 257.283 216.658 256.974 216.852L185.974 257.852C185.374 258.192 184.894 257.952 184.894 257.302C184.92 256.938 185.031 256.586 185.219 256.273C185.406 255.96 185.665 255.696 185.974 255.502Z" fill="#E0E0E0"/>
<path d="M186.624 166.172L191.314 163.482C192.314 162.932 193.044 163.382 193.044 164.482V169.882C193.013 170.483 192.84 171.069 192.539 171.59C192.239 172.112 191.819 172.554 191.314 172.882L186.654 175.572C185.654 176.122 184.924 175.682 184.924 174.572V169.192C184.949 168.591 185.116 168.003 185.412 167.478C185.707 166.954 186.122 166.506 186.624 166.172Z" fill="#776DB4"/>
<path opacity="0.2" d="M186.624 166.172L191.314 163.482C192.314 162.932 193.044 163.382 193.044 164.482V169.882C193.013 170.483 192.84 171.069 192.539 171.59C192.239 172.112 191.819 172.554 191.314 172.882L186.654 175.572C185.654 176.122 184.924 175.682 184.924 174.572V169.192C184.949 168.591 185.116 168.003 185.412 167.478C185.707 166.954 186.122 166.506 186.624 166.172Z" fill="white"/>
<path d="M199.244 161.232L227.404 144.972C228.604 144.282 229.574 144.772 229.574 146.062C229.521 146.791 229.297 147.497 228.92 148.122C228.543 148.748 228.023 149.275 227.404 149.662L199.244 165.882C198.044 166.572 197.074 166.082 197.074 164.792C197.133 164.071 197.36 163.373 197.736 162.755C198.113 162.137 198.629 161.615 199.244 161.232Z" fill="#776DB4"/>
<path opacity="0.8" d="M199.244 161.232L227.404 144.972C228.604 144.282 229.574 144.772 229.574 146.062C229.521 146.791 229.297 147.497 228.92 148.122C228.543 148.748 228.023 149.275 227.404 149.662L199.244 165.882C198.044 166.572 197.074 166.082 197.074 164.792C197.133 164.071 197.36 163.373 197.736 162.755C198.113 162.137 198.629 161.615 199.244 161.232Z" fill="white"/>
<path d="M186.624 217.772L191.314 215.082C192.314 214.522 193.044 214.972 193.044 216.082V221.462C193.012 222.063 192.839 222.648 192.538 223.17C192.238 223.691 191.818 224.134 191.314 224.462L186.654 227.152C185.654 227.702 184.924 227.252 184.924 226.152V220.772C184.951 220.174 185.12 219.59 185.415 219.069C185.71 218.548 186.125 218.103 186.624 217.772Z" fill="#776DB4"/>
<path opacity="0.2" d="M186.624 217.772L191.314 215.082C192.314 214.522 193.044 214.972 193.044 216.082V221.462C193.012 222.063 192.839 222.648 192.538 223.17C192.238 223.691 191.818 224.134 191.314 224.462L186.654 227.152C185.654 227.702 184.924 227.252 184.924 226.152V220.772C184.951 220.174 185.12 219.59 185.415 219.069C185.71 218.548 186.125 218.103 186.624 217.772Z" fill="white"/>
<path d="M199.244 212.882L227.404 196.612C228.604 195.922 229.574 196.412 229.574 197.712C229.52 198.441 229.296 199.146 228.919 199.772C228.542 200.397 228.023 200.925 227.404 201.312L199.244 217.572C198.044 218.262 197.074 217.772 197.074 216.472C197.128 215.746 197.353 215.042 197.73 214.418C198.107 213.794 198.626 213.268 199.244 212.882Z" fill="#776DB4"/>
<path opacity="0.8" d="M199.244 212.882L227.404 196.612C228.604 195.922 229.574 196.412 229.574 197.712C229.52 198.441 229.296 199.146 228.919 199.772C228.542 200.397 228.023 200.925 227.404 201.312L199.244 217.572C198.044 218.262 197.074 217.772 197.074 216.472C197.128 215.746 197.353 215.042 197.73 214.418C198.107 213.794 198.626 213.268 199.244 212.882Z" fill="white"/>
<path d="M193.254 263.192L197.914 260.502C198.914 259.952 199.654 260.402 199.654 261.502V266.882C199.621 267.484 199.446 268.07 199.144 268.591C198.842 269.113 198.42 269.555 197.914 269.882L193.254 272.572C192.304 273.132 191.524 272.682 191.524 271.572V266.192C191.559 265.592 191.733 265.008 192.034 264.487C192.334 263.967 192.752 263.523 193.254 263.192Z" fill="#776DB4"/>
<path d="M185.974 281.472L205.204 270.372C205.804 270.032 206.284 270.272 206.284 270.922C206.258 271.286 206.147 271.639 205.959 271.951C205.772 272.264 205.513 272.528 205.204 272.722L185.974 283.822C185.374 284.162 184.894 283.922 184.894 283.272C184.92 282.909 185.031 282.556 185.219 282.243C185.406 281.93 185.665 281.666 185.974 281.472Z" fill="#E0E0E0"/>
<path d="M219.124 248.252L223.784 245.562C224.734 245.012 225.514 245.462 225.514 246.562V251.942C225.481 252.543 225.308 253.128 225.007 253.649C224.707 254.17 224.288 254.613 223.784 254.942L219.124 257.632C218.124 258.182 217.384 257.742 217.384 256.632V251.252C217.417 250.65 217.592 250.065 217.895 249.544C218.197 249.023 218.618 248.58 219.124 248.252Z" fill="#776DB4"/>
<path d="M211.834 266.532L231.064 255.432C231.664 255.082 232.144 255.332 232.144 255.982C232.118 256.345 232.007 256.696 231.819 257.007C231.631 257.318 231.373 257.58 231.064 257.772L211.834 268.882C211.234 269.232 210.754 268.982 210.754 268.342C210.777 267.976 210.888 267.622 211.075 267.307C211.263 266.992 211.523 266.727 211.834 266.532Z" fill="#E0E0E0"/>
<path d="M244.984 233.312L249.644 230.622C250.594 230.062 251.374 230.512 251.374 231.622V237.002C251.34 237.603 251.166 238.187 250.865 238.708C250.565 239.229 250.147 239.672 249.644 240.002L244.984 242.692C243.984 243.242 243.254 242.792 243.254 241.692V236.312C243.285 235.711 243.458 235.126 243.758 234.604C244.059 234.083 244.479 233.64 244.984 233.312Z" fill="#776DB4"/>
<path opacity="0.2" d="M193.254 263.192L197.914 260.502C198.914 259.952 199.654 260.402 199.654 261.502V266.882C199.621 267.484 199.446 268.07 199.144 268.591C198.842 269.113 198.42 269.555 197.914 269.882L193.254 272.572C192.304 273.132 191.524 272.682 191.524 271.572V266.192C191.559 265.592 191.733 265.008 192.034 264.487C192.334 263.967 192.752 263.523 193.254 263.192Z" fill="white"/>
<path opacity="0.2" d="M219.124 248.252L223.784 245.562C224.734 245.012 225.514 245.462 225.514 246.562V251.942C225.481 252.543 225.308 253.128 225.007 253.649C224.707 254.17 224.288 254.613 223.784 254.942L219.124 257.632C218.124 258.182 217.384 257.742 217.384 256.632V251.252C217.417 250.65 217.592 250.065 217.895 249.544C218.197 249.023 218.618 248.58 219.124 248.252Z" fill="white"/>
<path opacity="0.2" d="M244.984 233.312L249.644 230.622C250.594 230.062 251.374 230.512 251.374 231.622V237.002C251.34 237.603 251.166 238.187 250.865 238.708C250.565 239.229 250.147 239.672 249.644 240.002L244.984 242.692C243.984 243.242 243.254 242.792 243.254 241.692V236.312C243.285 235.711 243.458 235.126 243.758 234.604C244.059 234.083 244.479 233.64 244.984 233.312Z" fill="white"/>
<path d="M237.694 251.592L256.924 240.492C257.524 240.142 258.004 240.392 258.004 241.032C257.979 241.396 257.868 241.749 257.68 242.062C257.492 242.375 257.233 242.639 256.924 242.832L237.694 253.932C237.104 254.282 236.614 254.032 236.614 253.382C236.642 253.02 236.754 252.67 236.942 252.359C237.129 252.049 237.387 251.786 237.694 251.592Z" fill="#E0E0E0"/>
<path d="M142.404 84.7423C131.184 91.0623 122.094 106.812 122.094 119.912C122.094 133.012 131.184 138.392 142.404 131.912C153.624 125.432 162.714 109.692 162.714 96.7323C162.714 83.7723 153.614 78.4123 142.404 84.7423Z" fill="#FAFAFA"/>
<path d="M152.244 125.112L135.984 129.472C135.704 129.564 135.406 129.584 135.116 129.531C134.826 129.477 134.554 129.353 134.325 129.168C134.096 128.983 133.916 128.744 133.802 128.473C133.689 128.201 133.644 127.905 133.674 127.612V99.9323C133.731 97.6412 134.497 95.424 135.865 93.5851C137.232 91.7463 139.136 90.376 141.314 89.6623L146.874 88.1723C151.104 87.0423 154.534 89.8023 154.534 94.3323V122.022C154.516 122.71 154.286 123.376 153.877 123.929C153.467 124.482 152.897 124.895 152.244 125.112Z" fill="#37474F"/>
<path d="M153.024 132.272L151.314 124.722C151.314 124.722 151.314 114.532 149.864 113.592C148.414 112.652 147.994 112.472 147.994 112.472C149.854 111.832 153.774 111.352 154.994 114.932C156.164 118.312 157.914 126.642 158.744 130.742L153.024 132.272Z" fill="#F28F8F"/>
<path d="M152.884 132.312L147.084 112.562C149.654 111.562 152.954 110.732 154.554 113.382C155.994 115.762 158.294 128.232 158.744 130.742L152.884 132.312Z" fill="#776DB4"/>
<g opacity="0.4">
<path opacity="0.4" d="M152.884 132.312L147.084 112.562C149.654 111.562 152.954 110.732 154.554 113.382C155.994 115.762 158.294 128.232 158.744 130.742L152.884 132.312Z" fill="black"/>
</g>
<path d="M153.664 132.102L147.964 133.632C148.193 131.995 148.733 130.417 149.554 128.982C150.695 127.338 152.336 126.107 154.234 125.472C153.823 127.658 153.632 129.879 153.664 132.102Z" fill="#776DB4"/>
<path d="M153.664 132.102L147.964 133.632C148.193 131.995 148.733 130.417 149.554 128.982C150.695 127.338 152.336 126.107 154.234 125.472C153.823 127.658 153.632 129.879 153.664 132.102Z" fill="#776DB4"/>
<g opacity="0.7">
<path opacity="0.7" d="M153.664 132.102L147.964 133.632C148.193 131.995 148.733 130.417 149.554 128.982C150.695 127.338 152.336 126.107 154.234 125.472C153.823 127.658 153.632 129.879 153.664 132.102Z" fill="black"/>
</g>
<path d="M152.444 132.432L136.444 136.702L134.684 131.252C134.684 131.252 139.354 120.322 133.584 117.512C134.314 116.962 140.464 114.562 140.464 114.562L147.074 112.562C148.334 112.222 153.424 114.482 154.714 119.492C155.174 121.262 155.014 122.852 152.424 132.072C152.454 132.192 152.444 132.312 152.444 132.432Z" fill="#776DB4"/>
<path d="M151.124 91.5723C152.224 91.9723 153.584 94.5723 153.454 100.842C153.344 106.162 151.744 107.842 150.944 108.482C149.746 109.082 148.424 109.394 147.084 109.392V112.562C147.084 112.562 149.164 114.562 149.034 116.082C148.904 117.602 146.034 118.682 144.094 117.782C142.677 116.983 141.451 115.884 140.504 114.562V107.262C140.358 107.431 140.18 107.568 139.98 107.667C139.78 107.766 139.563 107.824 139.34 107.838C139.118 107.852 138.895 107.821 138.684 107.748C138.474 107.675 138.28 107.561 138.114 107.412C137.801 107.198 137.535 106.924 137.331 106.606C137.126 106.287 136.988 105.931 136.924 105.558C136.859 105.185 136.87 104.803 136.956 104.434C137.042 104.066 137.201 103.718 137.424 103.412C138.424 102.102 140.174 101.912 140.854 103.222C141.7 101.168 143.215 99.4588 145.154 98.3723C148.314 96.4523 150.034 94.7423 151.124 91.5723Z" fill="#FFA8A7"/>
<path d="M147.954 100.992C147.958 101.182 147.904 101.368 147.798 101.526C147.692 101.683 147.541 101.804 147.364 101.872C147.289 101.898 147.208 101.906 147.129 101.894C147.051 101.882 146.976 101.851 146.912 101.803C146.848 101.756 146.797 101.694 146.762 101.622C146.728 101.551 146.711 101.472 146.714 101.392C146.709 101.203 146.764 101.016 146.869 100.859C146.975 100.701 147.127 100.58 147.304 100.512C147.379 100.486 147.459 100.479 147.538 100.491C147.617 100.503 147.691 100.534 147.755 100.581C147.819 100.628 147.871 100.691 147.905 100.762C147.94 100.834 147.956 100.913 147.954 100.992Z" fill="#37474F"/>
<path d="M148.114 105.432L149.554 105.532C149.512 105.752 149.397 105.951 149.229 106.098C149.06 106.244 148.847 106.33 148.624 106.342C148.224 106.312 147.994 105.882 148.114 105.432Z" fill="#F28F8F"/>
<path d="M153.034 97.5921L151.784 97.0021C151.858 96.8087 152.001 96.6497 152.186 96.5556C152.371 96.4614 152.583 96.4388 152.784 96.4921C152.873 96.5472 152.951 96.6196 153.012 96.705C153.073 96.7905 153.116 96.8872 153.14 96.9896C153.163 97.0921 153.166 97.1981 153.147 97.3016C153.129 97.405 153.091 97.5038 153.034 97.5921Z" fill="#37474F"/>
<path d="M146.154 99.9322L147.404 98.6622C147.338 98.5947 147.258 98.5421 147.17 98.5077C147.081 98.4734 146.987 98.458 146.893 98.4627C146.798 98.4675 146.706 98.4921 146.622 98.5351C146.537 98.5781 146.463 98.6385 146.404 98.7122C146.23 98.8573 146.111 99.0569 146.066 99.2785C146.02 99.5001 146.051 99.7305 146.154 99.9322Z" fill="#37474F"/>
<path d="M152.744 99.2322C152.75 99.4221 152.696 99.6091 152.59 99.7669C152.484 99.9247 152.332 100.045 152.154 100.112C152.078 100.139 151.996 100.146 151.917 100.133C151.837 100.121 151.762 100.089 151.698 100.041C151.634 99.9922 151.582 99.9287 151.549 99.8557C151.515 99.7827 151.499 99.7025 151.504 99.6222C151.501 99.4329 151.556 99.2472 151.661 99.09C151.767 98.9327 151.917 98.8114 152.094 98.7422C152.17 98.7158 152.251 98.7085 152.33 98.721C152.41 98.7335 152.485 98.7654 152.549 98.8138C152.614 98.8622 152.665 98.9258 152.699 98.9987C152.733 99.0717 152.748 99.1519 152.744 99.2322Z" fill="#37474F"/>
<path d="M149.824 99.6323L149.914 103.602L151.884 102.422L149.824 99.6323Z" fill="#F28F8F"/>
<path d="M147.084 109.392C145.504 109.592 142.244 109.462 141.734 108.222C141.919 108.831 142.326 109.349 142.874 109.672C143.874 110.312 147.084 110.452 147.084 110.452V109.392Z" fill="#F28F8F"/>
<path d="M136.534 136.692L135.864 134.312L137.624 136.402L136.534 136.692Z" fill="#776DB4"/>
<path d="M135.224 137.042C134.506 133.621 133.533 130.258 132.314 126.982C130.634 122.372 132.514 118.392 133.644 117.512C134.774 116.632 140.524 114.562 140.524 114.562C142.604 120.482 143.174 128.412 143.224 134.902L135.224 137.042Z" fill="#776DB4"/>
<path opacity="0.4" d="M135.224 137.042C134.506 133.621 133.533 130.258 132.314 126.982C130.634 122.372 132.514 118.392 133.644 117.512C134.774 116.632 140.524 114.562 140.524 114.562C142.604 120.482 143.174 128.412 143.224 134.902L135.224 137.042Z" fill="black"/>
<path d="M132.384 137.802L126.674 139.332C126.514 139.225 126.364 139.104 126.224 138.972C126.224 138.972 128.924 128.552 129.784 125.092C130.644 121.632 131.304 119.252 133.624 117.512C137.794 120.222 135.864 127.752 135.864 127.752L132.384 137.802Z" fill="#776DB4"/>
<path opacity="0.4" d="M132.384 137.802L126.674 139.332C126.514 139.225 126.364 139.104 126.224 138.972C126.224 138.972 128.924 128.552 129.784 125.092C130.644 121.632 131.304 119.252 133.624 117.512C137.794 120.222 135.864 127.752 135.864 127.752L132.384 137.802Z" fill="black"/>
<path d="M266.364 167.532C262.584 166.352 258.704 169.412 256.164 175.592C253.624 181.772 248.294 197.492 247.504 201.682C246.714 205.872 264.594 214.992 264.094 214.752C263.594 214.512 266.364 167.532 266.364 167.532Z" fill="#263238"/>
<path d="M258.054 312.992C257.514 313.192 257.384 314.212 257.304 316.232C257.244 317.762 256.914 320.432 258.704 320.962C260.494 321.492 263.124 321.222 264.274 319.782C265.704 317.982 266.674 316.402 268.714 314.202C270.494 312.302 272.404 310.522 273.124 307.852C273.774 305.432 273.234 304.392 271.584 303.692C269.324 302.692 265.764 305.872 263.994 306.372C262.464 306.802 258.584 312.792 258.054 312.992Z" fill="#263238"/>
<path d="M258.054 311.122V313.602C258.985 314.198 260.06 314.528 261.165 314.558C262.27 314.588 263.362 314.317 264.324 313.772C264.434 313.532 264.974 310.222 264.974 310.222L258.054 311.122Z" fill="#FFA8A7"/>
<path d="M278.144 327.292C278.144 327.292 277.434 329.452 277.054 331.292C276.744 332.792 276.314 335.292 276.834 336.432C277.354 337.572 279.414 338.292 282.584 338.262C284.644 338.262 287.854 339.652 290.044 340.872C292.234 342.092 297.044 342.642 299.434 342.362C302.254 342.032 305.184 340.362 305.644 339.222C306.104 338.082 305.494 336.832 298.834 333.992C298.774 333.992 289.574 330.992 286.344 327.422L278.144 327.292Z" fill="#263238"/>
<path d="M278.144 324.612C278.144 324.612 278.144 326.452 278.144 327.502C278.144 328.552 279.384 330.122 282.604 330.012C284.864 329.932 286.434 329.322 286.344 327.462V324.772L278.144 324.612Z" fill="#FFA8A7"/>
<path d="M256.434 278.192C256.987 273.797 257.968 269.467 259.364 265.262C259.364 265.262 258.484 254.112 258.054 243.542C257.594 232.122 258.054 217.762 257.864 214.922C257.864 214.922 294.714 207.462 295.374 220.662C296.034 233.862 293.914 267.462 293.484 273.262C293.054 279.062 292.044 284.192 290.844 293.592C289.644 302.992 286.344 324.772 286.344 324.772C285.069 325.422 283.654 325.747 282.224 325.719C280.794 325.691 279.392 325.311 278.144 324.612C278.144 324.612 275.554 298.212 275.824 291.522C276.035 286.553 276.888 281.632 278.364 276.882L277.054 256.532C276.434 247.062 275.784 242.532 275.634 238.402L274.844 238.002C274.844 238.002 274.034 254.342 273.604 260.142C273.174 265.942 272.244 271.502 270.604 282.272C269.144 291.612 264.814 311.382 264.814 311.382C260.604 313.662 258.094 311.092 258.094 311.092C258.094 311.092 255.314 286.292 256.434 278.192Z" fill="#455A64"/>
<path d="M275.634 238.432C275.634 238.432 266.694 234.022 262.224 230.052C262.224 230.052 266.374 235.902 271.834 238.502C271.834 238.502 273.774 258.792 273.764 258.392L274.884 238.392L275.634 238.432Z" fill="#37474F"/>
<path d="M283.594 163.352L281.414 175.352L270.574 174.562L272.844 160.952L283.594 163.352Z" fill="#FFA8A7"/>
<path d="M259.124 173.682C260.194 170.422 264.334 166.872 268.474 167.682C274.631 168.724 280.699 170.238 286.624 172.212C290.414 173.562 293.864 176.842 294.184 189.322L296.104 226.482L291.514 227.482L289.914 219.062L289.174 227.482C284.374 228.682 276.044 227.692 270.574 226.482C259.174 223.992 257.804 219.262 257.804 219.262C257.804 219.262 257.654 198.352 257.994 189.322C258.314 181.602 258.384 175.882 259.124 173.682Z" fill="#37474F"/>
<path d="M291.614 149.132C291.614 149.132 294.244 153.022 293.904 153.432C293.296 153.842 292.618 154.137 291.904 154.302L291.614 149.132Z" fill="#FFA8A7"/>
<path d="M283.594 136.812C286.124 138.092 290.494 140.452 291.694 149.702C292.934 159.202 291.304 162.262 290.024 163.522C289.154 164.372 284.434 164.422 282.074 163.712C279.074 162.822 272.454 160.292 269.414 155.412C265.834 149.672 265.034 141.982 269.074 138.922C274.744 134.622 281.454 135.732 283.594 136.812Z" fill="#FFA8A7"/>
<path d="M292.224 139.992C291.394 142.272 289.994 147.852 284.174 150.182C284.174 150.182 283.344 146.622 280.354 147.002C277.364 147.382 276.854 151.192 278.694 153.562C280.534 155.932 282.314 155.072 282.314 155.072C282.314 155.072 282.714 160.172 279.314 162.482C279.314 162.482 275.204 165.082 270.854 163.082C268.854 162.182 266.124 157.492 264.504 153.642C261.064 145.502 260.574 138.972 265.764 136.912C266.404 133.212 268.074 131.822 271.424 131.132C278.634 129.642 284.084 134.382 290.144 133.552C293.314 133.112 293.174 137.392 292.224 139.992Z" fill="#37474F"/>
<path d="M265.644 138.152L262.244 136.052C262.376 135.817 262.554 135.61 262.768 135.446C262.981 135.281 263.226 135.161 263.488 135.093C263.749 135.025 264.021 135.011 264.288 135.051C264.555 135.091 264.811 135.185 265.041 135.327C265.27 135.469 265.469 135.656 265.624 135.877C265.78 136.097 265.889 136.347 265.946 136.611C266.002 136.875 266.004 137.148 265.952 137.413C265.901 137.678 265.796 137.929 265.644 138.152Z" fill="#37474F"/>
<path d="M282.794 167.722L284.034 171.312C284.034 171.312 283.124 172.912 279.254 172.992C275.384 173.072 271.254 171.842 269.974 170.192C269.683 169.869 269.467 169.485 269.342 169.069C269.218 168.652 269.188 168.212 269.254 167.782C269.254 167.782 270.794 164.382 272.254 164.532L272.014 166.012C272.014 166.012 272.344 167.222 275.854 168.152C281.314 169.602 282.794 167.722 282.794 167.722Z" fill="#455A64"/>
<path d="M313.894 191.582C315.454 189.792 316.054 185.822 318.134 183.102C320.214 180.382 320.984 178.392 321.804 179.582C322.894 181.152 320.434 184.302 320.984 184.582C321.534 184.862 323.564 189.042 323.774 191.342C323.984 193.642 317.884 199.442 317.884 199.442L313.894 191.582Z" fill="#FFA8A7"/>
<path d="M282.794 167.722C283.046 167.717 283.294 167.781 283.512 167.906C283.731 168.031 283.911 168.213 284.034 168.432C284.646 169.537 285.193 170.675 285.674 171.842L284.034 171.312L282.794 167.722Z" fill="#455A64"/>
<path d="M320.814 184.262C320.814 184.262 328.184 183.622 329.254 184.262C330.324 184.902 330.004 188.092 329.254 190.052C328.504 192.012 324.744 193.282 321.254 195.642C321.254 195.282 320.814 184.262 320.814 184.262Z" fill="#FFA8A7"/>
<path d="M285.674 171.882C288.844 172.992 291.614 174.262 294.574 179.822C298.374 186.962 305.574 198.382 305.574 198.382L313.864 191.072C313.864 191.072 315.114 189.862 317.444 193.712C318.127 194.749 318.559 195.93 318.706 197.162C318.854 198.394 318.713 199.644 318.294 200.812C318.294 200.812 308.724 212.042 306.894 213.752C305.064 215.462 302.034 214.132 300.064 211.442C298.094 208.752 285.644 193.202 285.644 193.202C285.644 193.202 278.884 184.222 285.674 171.882Z" fill="#37474F"/>
<path d="M371.184 153.212H347.574C346.683 153.212 345.828 152.858 345.198 152.228C344.568 151.598 344.214 150.744 344.214 149.852V112.342C344.214 109.391 345.387 106.56 347.474 104.472C349.561 102.385 352.392 101.212 355.344 101.212H363.444C366.391 101.22 369.214 102.396 371.295 104.483C373.375 106.569 374.544 109.396 374.544 112.342V149.852C374.544 150.744 374.19 151.598 373.56 152.228C372.93 152.858 372.075 153.212 371.184 153.212Z" fill="#37474F"/>
<path d="M343.594 140.412C341.304 147.162 337.464 166.582 337.464 166.582C337.464 166.582 329.464 176.362 326.854 178.732C325.424 180.052 322.204 182.422 322.204 182.422L328.054 186.722C333.336 182.66 338.297 178.197 342.894 173.372C343.916 172.285 344.634 170.946 344.974 169.492L348.974 152.332C348.974 152.332 348.974 138.532 351.084 136.722C353.194 134.912 353.804 134.532 353.804 134.532C351.094 134.332 345.394 135.102 343.594 140.412Z" fill="#F28F8F"/>
<path d="M355.054 134.332C351.324 133.902 346.544 133.982 344.214 138.152C341.884 142.322 338.004 163.882 338.004 163.882C338.004 163.882 341.674 166.732 345.634 166.682L355.054 134.332Z" fill="#776DB4"/>
<path d="M344.684 154.422C345.356 157.636 345.614 160.923 345.454 164.202C345.164 168.522 342.184 176.062 342.184 176.062C342.184 176.062 344.514 178.622 351.084 177.592C356.434 176.762 354.544 160.592 351.474 157.492C349.684 155.643 347.256 154.545 344.684 154.422Z" fill="#776DB4"/>
<path opacity="0.3" d="M344.684 154.422C345.356 157.636 345.614 160.923 345.454 164.202C345.164 168.522 342.184 176.062 342.184 176.062C342.184 176.062 344.514 178.622 351.084 177.592C356.434 176.762 354.544 160.592 351.474 157.492C349.684 155.643 347.256 154.545 344.684 154.422Z" fill="black"/>
<path d="M357.044 268.622C357.087 269.36 356.902 270.093 356.514 270.722C355.525 272.357 354.362 273.879 353.044 275.262C351.194 277.262 348.424 279.612 346.434 281.342C345.334 282.342 345.294 283.762 346.874 284.272C349.819 284.99 352.927 284.557 355.564 283.062C357.564 282.002 360.344 277.062 361.984 276.362C363.874 275.512 364.924 275.092 365.564 274.222C366.048 273.728 366.35 273.084 366.421 272.396C366.492 271.707 366.327 271.015 365.954 270.432C365.064 268.772 363.724 266.222 363.174 266.512L363.344 267.032C362.914 268.382 359.234 269.952 357.344 269.582L357.044 268.622Z" fill="#37474F"/>
<path d="M376.314 212.202C377.164 203.202 379.604 188.722 377.104 178.002L343.904 179.762C342.984 190.332 341.904 223.332 343.064 227.112C344.404 231.572 356.374 262.442 357.064 268.652C357.112 269.381 356.926 270.106 356.534 270.722C355.546 272.361 354.383 273.886 353.064 275.272C352.164 276.272 351.064 277.272 349.904 278.272C349.807 278.415 349.748 278.58 349.734 278.752C349.734 279.752 352.254 280.062 353.734 279.632C355.58 278.981 357.17 277.759 358.274 276.142C359.124 275.012 361.034 272.842 362.274 271.212C362.688 270.709 363.04 270.159 363.324 269.572C363.655 268.84 363.712 268.013 363.484 267.242L363.404 266.992C362.755 264.968 362.352 262.873 362.204 260.752C361.744 253.942 360.574 238.212 359.494 234.022C358.744 230.969 357.605 228.025 356.104 225.262L359.894 195.772C359.894 195.772 360.294 221.772 361.474 228.402C362.404 233.712 362.764 240.352 363.854 249.462C364.854 258.182 366.014 273.542 366.014 273.542C366.044 273.548 366.074 273.548 366.104 273.542V280.882H372.314V276.622C372.314 274.699 372.475 272.779 372.794 270.882C373.794 265.082 375.874 251.812 376.304 247.322C376.984 240.202 374.414 231.252 374.414 231.252C374.414 231.252 375.484 220.982 376.314 212.202Z" fill="#FFA8A7"/>
<path d="M364.614 134.642C364.614 134.642 373.544 135.642 374.614 136.152C366.234 142.042 373.024 155.152 373.024 155.152L369.814 165.222C373.384 169.792 376.464 172.512 378.374 177.522C380.494 183.122 382.374 191.452 381.874 208.522C373.874 214.522 349.534 213.872 340.054 208.522C340.054 208.522 341.654 193.452 343.544 181.742C344.794 174.012 347.744 165.592 347.244 162.742C343.484 151.182 343.244 149.102 343.924 146.522C345.794 139.262 353.194 134.352 355.014 134.352L364.614 134.642Z" fill="#776DB4"/>
<path opacity="0.6" d="M364.614 134.642C364.614 134.642 373.544 135.642 374.614 136.152C366.234 142.042 373.024 155.152 373.024 155.152L369.814 165.222C373.384 169.792 376.464 172.512 378.374 177.522C380.494 183.122 382.374 191.452 381.874 208.522C373.874 214.522 349.534 213.872 340.054 208.522C340.054 208.522 341.654 193.452 343.544 181.742C344.794 174.012 347.744 165.592 347.244 162.742C343.484 151.182 343.244 149.102 343.924 146.522C345.794 139.262 353.194 134.352 355.014 134.352L364.614 134.642Z" fill="white"/>
<path d="M366.044 277.772V276.882C365.264 279.873 363.704 282.602 361.524 284.792C359.524 286.602 356.824 288.702 356.124 290.732C355.424 292.762 359.334 293.672 361.914 293.412C364.414 293.107 366.717 291.902 368.394 290.022C370.034 288.142 370.004 286.862 370.764 285.822C371.524 284.782 373.294 283.642 373.704 282.442C373.832 281.323 373.709 280.189 373.344 279.122C373.054 278.012 372.734 276.782 372.344 276.882V277.572C371.444 278.28 370.329 278.658 369.184 278.642C368.314 278.662 366.034 278.472 366.044 277.772Z" fill="#37474F"/>
<path d="M372.314 277.552C371.414 278.26 370.299 278.638 369.154 278.622C368.234 278.622 365.994 278.472 366.004 277.772V276.882C365.224 279.873 363.664 282.602 361.484 284.792L359.974 286.142C358.914 287.322 359.214 288.352 361.704 288.562C364.194 288.772 366.384 287.272 368.264 284.962C369.867 282.639 371.224 280.156 372.314 277.552Z" fill="#FFA8A7"/>
<path d="M349.194 107.342C347.594 108.292 345.614 112.342 345.804 120.762C345.974 127.922 348.294 129.692 349.464 130.202C350.634 130.712 352.874 130.402 355.054 130.042V134.332C355.054 134.332 352.054 137.842 352.224 139.812C352.394 141.782 356.584 142.242 359.414 140.322C361.457 138.738 363.215 136.817 364.614 134.642L364.564 124.772C364.564 124.772 365.854 126.012 368.034 124.112C369.834 122.542 370.434 119.882 369.034 118.462C368.67 118.121 368.23 117.871 367.751 117.733C367.271 117.596 366.765 117.576 366.276 117.674C365.787 117.771 365.328 117.985 364.938 118.296C364.548 118.607 364.238 119.007 364.034 119.462C364.034 119.462 362.824 116.092 357.794 114.462C353.254 112.952 350.784 111.242 349.194 107.342Z" fill="#FFA8A7"/>
<path d="M353.804 118.972C353.804 119.149 353.856 119.321 353.953 119.468C354.05 119.615 354.189 119.73 354.351 119.799C354.513 119.869 354.692 119.889 354.865 119.857C355.039 119.825 355.199 119.744 355.326 119.622C355.453 119.5 355.542 119.343 355.581 119.171C355.62 118.999 355.608 118.82 355.546 118.655C355.484 118.49 355.375 118.347 355.232 118.243C355.09 118.14 354.92 118.08 354.744 118.072C354.623 118.07 354.503 118.091 354.39 118.135C354.277 118.179 354.175 118.244 354.087 118.328C354 118.411 353.93 118.511 353.881 118.622C353.833 118.733 353.806 118.852 353.804 118.972Z" fill="#37474F"/>
<path d="M353.564 125.032L351.474 125.702C351.511 125.842 351.575 125.973 351.664 126.087C351.752 126.2 351.863 126.295 351.989 126.365C352.115 126.435 352.254 126.479 352.398 126.494C352.541 126.509 352.686 126.495 352.824 126.452C353.106 126.356 353.341 126.155 353.478 125.891C353.616 125.626 353.647 125.319 353.564 125.032Z" fill="#F28F8F"/>
<path d="M346.424 116.203L348.244 114.942C348.167 114.819 348.066 114.713 347.947 114.631C347.828 114.548 347.693 114.49 347.551 114.461C347.408 114.432 347.262 114.433 347.12 114.462C346.978 114.491 346.843 114.549 346.724 114.632C346.48 114.804 346.313 115.064 346.257 115.357C346.201 115.65 346.261 115.953 346.424 116.203Z" fill="#37474F"/>
<path d="M356.424 116.882L354.594 115.622C354.671 115.5 354.772 115.394 354.891 115.311C355.01 115.228 355.144 115.17 355.286 115.14C355.428 115.11 355.574 115.109 355.716 115.137C355.859 115.165 355.994 115.221 356.114 115.302C356.356 115.477 356.523 115.738 356.58 116.031C356.638 116.325 356.582 116.629 356.424 116.882Z" fill="#37474F"/>
<path d="M346.844 118.312C346.842 118.489 346.892 118.662 346.988 118.811C347.084 118.959 347.222 119.076 347.384 119.146C347.546 119.217 347.725 119.238 347.899 119.208C348.073 119.178 348.234 119.096 348.363 118.975C348.491 118.854 348.581 118.697 348.62 118.525C348.66 118.353 348.649 118.173 348.587 118.007C348.525 117.842 348.416 117.698 348.273 117.594C348.131 117.49 347.96 117.43 347.784 117.422C347.541 117.417 347.307 117.507 347.131 117.674C346.955 117.841 346.852 118.07 346.844 118.312Z" fill="#37474F"/>
<path d="M351.084 117.802L350.944 123.222L348.094 122.342L351.084 117.802Z" fill="#F28F8F"/>
<path d="M355.054 130.042C357.354 129.732 362.054 128.372 362.834 126.502C362.537 127.45 361.958 128.284 361.174 128.892C359.754 130.102 355.054 131.472 355.054 131.472V130.042Z" fill="#F28F8F"/>
<path d="M371.364 159.732L365.054 168.272L369.814 165.222L371.364 159.732Z" fill="#776DB4"/>
<path d="M321.654 182.422C320.304 184.162 319.474 187.542 318.764 188.682C318.054 189.822 317.204 190.812 318.764 191.022C320.324 191.232 322.604 188.182 323.454 186.332C323.885 185.289 324.696 184.449 325.724 183.982C324.994 183.732 325.374 180.802 324.864 180.392C324.864 180.392 322.204 181.482 321.654 182.422Z" fill="#F28F8F"/>
<path d="M321.254 195.622C322.664 194.572 322.714 193.282 322.984 191.232C323.254 189.182 328.904 186.962 329.084 188.492C329.264 190.022 329.774 191.302 328.084 193.162C326.394 195.022 323.834 197.002 321.254 195.622Z" fill="#F28F8F"/>
<path d="M364.614 134.642C364.614 134.642 372.974 135.372 374.614 136.152C376.254 136.932 378.984 141.652 376.544 148.502C374.104 155.352 371.884 163.412 372.134 165.032C372.384 166.652 378.214 175.032 378.214 175.032C376.606 176.22 374.787 177.092 372.854 177.602L369.854 171.082L370.554 178.012C367.541 178.745 364.444 179.081 361.344 179.012C361.344 179.012 358.514 152.392 364.614 134.642Z" fill="#776DB4"/>
<path d="M385.214 167.292C385.884 163.352 385.214 162.062 383.834 158.202L376.834 162.732C377.408 164.189 377.745 165.729 377.834 167.292C377.774 168.432 376.224 179.732 374.774 183.672C374.512 184.373 373.999 184.951 373.334 185.292C371.892 186.173 370.585 187.257 369.454 188.512C368.384 189.512 367.524 189.692 367.634 190.032C367.799 190.401 368.094 190.696 368.464 190.86C368.833 191.024 369.249 191.046 369.634 190.922C370.505 190.639 371.34 190.257 372.124 189.782C371.429 191.253 370.504 192.603 369.384 193.782C366.814 196.522 366.584 198.302 371.384 198.672C374.384 198.902 376.894 197.222 379.604 190.772C380.444 188.408 381.135 185.993 381.674 183.542C383.134 177.952 384.554 171.262 385.214 167.292Z" fill="#FFA8A7"/>
<path d="M374.614 136.152C377.984 137.662 378.944 140.642 380.194 145.022C381.444 149.402 385.364 162.542 385.364 162.542C385.364 162.542 382.004 166.542 377.364 165.422L371.364 150.852C371.364 150.852 368.564 141.342 374.614 136.152Z" fill="#776DB4"/>
<defs>
<linearGradient id="paint0_linear" x1="215.314" y1="166.705" x2="215.314" y2="391.68" gradientUnits="userSpaceOnUse">
<stop stop-color="#CDACF1"/>
<stop offset="1" stop-color="#DCD3EE"/>
</linearGradient>
</defs>
</svg>
