<svg width="85" height="75" viewBox="0 0 85 75" fill="none" xmlns="http://www.w3.org/2000/svg">
<g clip-path="url(#clip0)">
<g filter="url(#filter0_d)">
<path d="M63.6196 54.1449L55.8896 49.6949L60.1396 48.7949L64.3697 51.7449L63.6196 54.1449Z" fill="#8962D9"/>
<path d="M50.09 14.3149C50.09 2.31487 42.74 -3.25513 33.71 1.95487L20.37 9.65488C11.37 14.8649 4 28.9049 4 40.9449C4 41.4349 4 41.9449 4 42.3749C4 42.6449 4 42.8749 4 43.1349C4 43.3949 4.05001 43.6049 4.07001 43.8349C4.09001 44.0649 4.13001 44.3649 4.17001 44.6249C4.37122 46.0459 4.72665 47.4408 5.23001 48.7849C5.44001 49.2849 5.66002 49.7849 5.90002 50.2049C6.01091 50.4368 6.13786 50.6607 6.28 50.8749L6.41 51.0849C6.63261 51.4431 6.89058 51.7781 7.18002 52.0849C7.34002 52.2649 7.49 52.4549 7.66 52.6249L8.18002 53.1249C8.36002 53.2649 8.53 53.4349 8.72 53.5749C8.89954 53.7195 9.09013 53.8499 9.29001 53.9649L9.88 54.3049C10.6442 54.7174 11.4725 54.998 12.33 55.1349C12.3957 55.1188 12.4643 55.1188 12.53 55.1349C12.76 55.1349 12.97 55.1849 13.2 55.1849C13.4429 55.2049 13.6871 55.2049 13.93 55.1849C14.5728 55.1919 15.2141 55.1214 15.84 54.9749C16.2145 54.9004 16.585 54.807 16.95 54.6949C18.1185 54.3369 19.2399 53.84 20.29 53.2149L33.63 45.5149C34.5442 44.984 35.4197 44.3892 36.25 43.7349C36.25 43.5749 36.25 43.4349 36.25 43.2849C36.25 43.1349 36.25 42.8149 36.25 42.6349C36.25 42.2349 36.25 41.8249 36.25 41.4149C36.22 31.1849 42.38 19.1149 50.09 14.3149Z" fill="#8962D9"/>
<path d="M52.3398 5.66484L44.5898 1.20483C44.6398 1.20483 45.3799 6.59484 45.3799 6.59484L51.1299 7.27484L52.3398 5.66484Z" fill="#8962D9"/>
<path d="M16.5301 58.0748L9.37012 54.0148L13.6801 52.1648L16.5301 58.0748Z" fill="#8962D9"/>
<path d="M20.3698 53.3349C20.3189 56.2983 19.3667 59.176 17.6398 61.5849C17.3198 62.0049 17.8098 62.3749 18.1698 62.1849C19.8041 61.3367 21.2525 60.1706 22.4298 58.7549C24.6916 56.0818 26.2732 52.9014 27.0398 49.4849L20.3698 53.3349Z" fill="#8962D9"/>
<path d="M17.7197 62.1648L25.4697 66.6248C25.4697 66.6248 29.8197 62.9548 29.8197 55.5248L21.4097 54.9548C21.4097 54.9548 21.2097 59.7948 17.7197 62.1648Z" fill="#8962D9"/>
<path d="M38.3604 40.3049C38.3604 40.6782 38.3604 41.0382 38.3604 41.3849C38.3604 41.5849 38.3604 41.7549 38.3604 41.9449C38.3604 42.1349 38.3603 42.2949 38.4203 42.4749C38.4803 42.6549 38.4203 42.8749 38.4903 43.0749C38.6061 43.9607 38.814 44.8321 39.1104 45.6749C39.1532 45.8284 39.2066 45.9788 39.2704 46.1249C39.3434 46.3258 39.4268 46.5227 39.5204 46.7149C39.5983 46.9007 39.6884 47.0811 39.7904 47.2549C39.8695 47.4291 39.9632 47.5964 40.0704 47.7549L40.1703 47.9149C40.3465 48.1904 40.5403 48.4543 40.7503 48.7049C40.8596 48.8507 40.9799 48.9878 41.1104 49.1149L41.4903 49.4849C41.6199 49.6065 41.7568 49.7201 41.9003 49.8249C42.0372 49.9308 42.1808 50.0276 42.3303 50.1149C42.4803 50.2049 42.6203 50.2949 42.7803 50.3749L43.2403 50.5949L43.7202 50.7649C44.0129 50.8535 44.3101 50.9269 44.6104 50.9849H44.7603C44.9266 51.0001 45.0939 51.0001 45.2603 50.9849C45.4397 51.0052 45.6209 51.0052 45.8004 50.9849C46.2303 50.9847 46.6591 50.9412 47.0803 50.8549C47.4178 50.7977 47.7517 50.7209 48.0803 50.6249C48.958 50.3559 49.8007 49.9833 50.5903 49.5149L60.5903 43.7349C61.4825 43.2201 62.3229 42.6207 63.1003 41.9449C63.3803 41.7049 63.6603 41.4449 63.9403 41.1849C64.4444 40.7153 64.9218 40.2179 65.3702 39.6949L66.0104 39.1149C66.1804 38.9149 66.3404 38.7049 66.5104 38.4949C66.5518 38.4222 66.6021 38.355 66.6603 38.2949C67.3261 37.4145 67.9406 36.4963 68.5003 35.5449C68.6503 35.2949 68.7903 35.0349 68.9402 34.7749C69.0902 34.5149 69.2302 34.2549 69.3702 33.9849C69.5102 33.7149 69.6403 33.4449 69.7803 33.1849L70.1603 32.3649C70.2903 32.0949 70.4103 31.8049 70.5303 31.5449C70.7403 31.0649 70.9303 30.5449 71.1003 30.0849C71.1003 29.9949 71.1703 29.9049 71.2003 29.8149C71.3103 29.5349 71.4003 29.2549 71.4903 28.9749C71.6703 28.4349 71.8303 27.8949 71.9903 27.3349C72.3421 26.0206 72.6061 24.6843 72.7803 23.3349C72.7803 23.1049 72.8304 22.8849 72.8604 22.6549C72.8904 22.4249 72.8603 22.2649 72.9103 22.0649C72.9603 21.8649 72.9103 21.6649 72.9103 21.4649C72.9103 21.0916 72.9103 20.7216 72.9103 20.3549C72.9103 11.3549 67.4003 7.14491 60.6203 11.0549L50.6203 16.8449C43.8703 20.7349 38.3604 31.2649 38.3604 40.3049Z" fill="#8962D9"/>
<path d="M76.5207 14.8949L68.8307 10.4749L65.9307 12.5249L74.9007 17.9548L76.5207 14.8949Z" fill="#8962D9"/>
<path d="M50.1196 54.5649L42.3896 50.1149L48.4496 48.3049L50.1196 54.5649Z" fill="#8962D9"/>
<path d="M59.1395 44.7048C59.1395 46.3048 61.1395 48.4848 63.4295 48.8948C63.7395 48.9548 63.6595 49.6348 63.2895 49.8948C61.9248 50.6361 60.3503 50.8968 58.8195 50.6348C57.8253 50.6052 56.8569 50.3118 56.0134 49.7846C55.17 49.2574 54.4818 48.5155 54.0195 47.6348L59.1395 44.7048Z" fill="#8962D9"/>
<path d="M41.4502 6.4048L28.1002 14.1148C19.1002 19.3248 11.7402 33.3648 11.7402 45.3948C11.7402 45.8948 11.7402 46.3948 11.7402 46.8348C11.7402 47.1048 11.7402 47.3348 11.7402 47.5948C11.7402 47.8548 11.7902 48.0548 11.8202 48.2848C11.8502 48.5148 11.8802 48.8348 11.9202 49.0848C12.1008 50.5005 12.4361 51.8922 12.9202 53.2348C13.1302 53.7448 13.3502 54.2348 13.5902 54.6648C13.7005 54.8938 13.8276 55.1144 13.9702 55.3248C14.0122 55.3978 14.059 55.468 14.1102 55.5348C14.3274 55.9127 14.582 56.2678 14.8702 56.5948C15.0302 56.7748 15.1902 56.9748 15.3602 57.1348L15.8702 57.6348C16.0502 57.7748 16.2302 57.9448 16.4102 58.0848C16.5914 58.2272 16.7818 58.3575 16.9802 58.4748L17.5802 58.8148C18.3415 59.2257 19.1663 59.5063 20.0202 59.6448C20.0851 59.6227 20.1554 59.6227 20.2202 59.6448C20.4502 59.6448 20.6702 59.6448 20.8902 59.6448C21.1333 59.6596 21.3771 59.6596 21.6202 59.6448C22.2628 59.6476 22.9036 59.5771 23.5302 59.4348C23.9047 59.3603 24.2752 59.2669 24.6402 59.1548C25.806 58.7938 26.9266 58.3006 27.9802 57.6848C27.9307 60.647 26.9745 63.5228 25.2402 65.9248C24.9202 66.3548 25.4102 66.7248 25.7802 66.5348C27.4168 65.6858 28.8656 64.5158 30.0402 63.0948C32.2959 60.4216 33.8769 57.246 34.6502 53.8348L33.6502 54.3848L41.2802 49.9848C42.0187 49.5593 42.7301 49.0884 43.4102 48.5748C43.3515 48.321 43.3081 48.0638 43.2802 47.8048C43.2802 47.6348 43.2202 47.3848 43.2002 47.1248C43.1639 46.903 43.1405 46.6793 43.1302 46.4548V46.3348C43.1203 46.1683 43.1203 46.0013 43.1302 45.8348C43.1302 45.4548 43.1302 45.0548 43.1302 44.6548C43.1302 34.5348 49.1302 23.1248 56.8502 18.6548L57.7002 18.1548C57.6202 6.58479 50.3502 1.2648 41.4502 6.4048Z" fill="#A478FF"/>
<path d="M68.4004 15.485L58.4003 21.265C51.6303 25.185 46.1104 35.715 46.1104 44.755C46.1104 45.125 46.1104 45.485 46.1104 45.835C46.1104 46.185 46.1104 46.205 46.1104 46.395C46.1104 46.585 46.1104 46.745 46.1604 46.925C46.1765 47.1229 46.2031 47.3199 46.2403 47.515C46.3502 48.4051 46.5582 49.2804 46.8604 50.125C46.8987 50.2799 46.9523 50.4306 47.0204 50.575C47.0881 50.7731 47.1682 50.9668 47.2603 51.155C47.3402 51.343 47.4304 51.5266 47.5303 51.705C47.6129 51.8794 47.7099 52.0467 47.8204 52.205C47.8438 52.2617 47.874 52.3155 47.9104 52.365C48.1004 52.645 48.2903 52.905 48.4903 53.155C48.6058 53.2985 48.7294 53.4354 48.8604 53.565L49.2403 53.935C49.3699 54.0566 49.5068 54.1701 49.6503 54.275C49.7821 54.3829 49.9227 54.4799 50.0704 54.565C50.2204 54.655 50.3604 54.745 50.5204 54.825L50.9804 55.0449L51.4604 55.215C51.7531 55.3036 52.05 55.377 52.3503 55.435H52.5003C52.6667 55.4502 52.834 55.4502 53.0003 55.435C53.1828 55.4603 53.3679 55.4603 53.5504 55.435C53.98 55.4374 54.4086 55.3972 54.8303 55.315C55.1676 55.2569 55.5015 55.1801 55.8303 55.085C56.7094 54.8197 57.5526 54.4469 58.3403 53.975L61.7202 52.035C62.1891 52.9063 62.8801 53.6381 63.7231 54.1562C64.5661 54.6743 65.5311 54.9602 66.5203 54.985C68.0522 55.243 69.6265 54.9789 70.9903 54.235C71.3503 54.005 71.4402 53.325 71.1202 53.235C68.8302 52.825 66.8402 50.645 66.8402 49.045L68.3604 48.165C69.2509 47.6477 70.0911 47.0485 70.8702 46.375C71.1502 46.135 71.4303 45.875 71.7003 45.615C72.2076 45.1455 72.6885 44.6481 73.1404 44.125C73.3204 43.915 73.5004 43.715 73.6804 43.475C73.8604 43.235 74.0104 43.075 74.1804 42.865L74.3304 42.665C74.9962 41.7846 75.6105 40.8664 76.1703 39.915L76.6202 39.145C76.7702 38.885 76.9103 38.625 77.0503 38.355C77.1903 38.085 77.3103 37.815 77.4503 37.555L77.8402 36.735C77.9702 36.455 78.0803 36.175 78.2003 35.915C78.4103 35.435 78.6103 34.9149 78.7803 34.455L78.8702 34.185C78.9802 33.905 79.0802 33.625 79.1603 33.345C79.3502 32.795 79.5003 32.2649 79.6703 31.705C80.0221 30.3906 80.2861 29.0543 80.4604 27.705C80.4604 27.475 80.5103 27.255 80.5303 27.025C80.5503 26.795 80.5304 26.625 80.5804 26.435C80.6304 26.245 80.5804 26.035 80.5804 25.835C80.5804 25.465 80.5804 25.085 80.5804 24.715C80.6904 15.745 75.1704 11.575 68.4004 15.485Z" fill="#A478FF"/>
</g>
</g>
<defs>
<filter id="filter0_d" x="0" y="0" width="84.6026" height="74.6248" filterUnits="userSpaceOnUse" color-interpolation-filters="sRGB">
<feFlood flood-opacity="0" result="BackgroundImageFix"/>
<feColorMatrix in="SourceAlpha" type="matrix" values="0 0 0 0 0 0 0 0 0 0 0 0 0 0 0 0 0 0 127 0"/>
<feOffset dy="4"/>
<feGaussianBlur stdDeviation="2"/>
<feColorMatrix type="matrix" values="0 0 0 0 0 0 0 0 0 0 0 0 0 0 0 0 0 0 0.25 0"/>
<feBlend mode="normal" in2="BackgroundImageFix" result="effect1_dropShadow"/>
<feBlend mode="normal" in="SourceGraphic" in2="effect1_dropShadow" result="shape"/>
</filter>
<clipPath id="clip0">
<rect width="85" height="75" fill="white"/>
</clipPath>
</defs>
</svg>
