<svg width="85" height="75" viewBox="0 0 85 75" fill="none" xmlns="http://www.w3.org/2000/svg">
<g clip-path="url(#clip0)">
<g filter="url(#filter0_d)">
<path d="M63.6201 54.1449L55.8901 49.6949L60.1401 48.7949L64.3701 51.7449L63.6201 54.1449Z" fill="#5A0F68"/>
<path d="M50.09 14.3149C50.09 2.31487 42.74 -3.25513 33.71 1.95487L20.37 9.65488C11.37 14.8649 4 28.9049 4 40.9449C4 41.4349 4 41.9449 4 42.3749C4 42.6449 4 42.8749 4 43.1349C4 43.3949 4.05001 43.6049 4.07001 43.8349C4.09001 44.0649 4.13001 44.3649 4.17001 44.6249C4.37122 46.0459 4.72665 47.4408 5.23001 48.7849C5.44001 49.2849 5.66002 49.7849 5.90002 50.2049C6.01091 50.4368 6.13786 50.6607 6.28 50.8749L6.41 51.0849C6.63261 51.4431 6.89058 51.7781 7.18002 52.0849C7.34002 52.2649 7.49 52.4549 7.66 52.6249L8.18002 53.1249C8.36002 53.2649 8.53 53.4349 8.72 53.5749C8.89954 53.7195 9.09013 53.8499 9.29001 53.9649L9.88 54.3049C10.6442 54.7174 11.4725 54.998 12.33 55.1349C12.3957 55.1188 12.4643 55.1188 12.53 55.1349C12.76 55.1349 12.97 55.1849 13.2 55.1849C13.4429 55.2049 13.6871 55.2049 13.93 55.1849C14.5728 55.1919 15.2141 55.1214 15.84 54.9749C16.2145 54.9004 16.585 54.807 16.95 54.6949C18.1185 54.3369 19.2399 53.84 20.29 53.2149L33.63 45.5149C34.5442 44.984 35.4197 44.3892 36.25 43.7349C36.25 43.5749 36.25 43.4349 36.25 43.2849C36.25 43.1349 36.25 42.8149 36.25 42.6349C36.25 42.2349 36.25 41.8249 36.25 41.4149C36.22 31.1849 42.38 19.1149 50.09 14.3149Z" fill="#5A0F68"/>
<path d="M52.3398 5.66484L44.5898 1.20483C44.6398 1.20483 45.3799 6.59484 45.3799 6.59484L51.1299 7.27484L52.3398 5.66484Z" fill="#5A0F68"/>
<path d="M16.5301 58.0748L9.37012 54.0148L13.6801 52.1648L16.5301 58.0748Z" fill="#5A0F68"/>
<path d="M20.3698 53.3349C20.3189 56.2983 19.3667 59.176 17.6398 61.5849C17.3198 62.0049 17.8098 62.3749 18.1698 62.1849C19.8041 61.3367 21.2525 60.1706 22.4298 58.7549C24.6916 56.0818 26.2732 52.9014 27.0398 49.4849L20.3698 53.3349Z" fill="#5A0F68"/>
<path d="M17.7202 62.1648L25.4702 66.6248C25.4702 66.6248 29.8202 62.9548 29.8202 55.5248L21.4102 54.9548C21.4102 54.9548 21.2102 59.7948 17.7202 62.1648Z" fill="#5A0F68"/>
<path d="M38.3599 40.3049C38.3599 40.6782 38.3599 41.0382 38.3599 41.3849C38.3599 41.5849 38.3599 41.7549 38.3599 41.9449C38.3599 42.1349 38.3599 42.2949 38.4199 42.4749C38.4799 42.6549 38.4199 42.8749 38.4899 43.0749C38.6057 43.9607 38.8135 44.8321 39.1099 45.6749C39.1527 45.8284 39.2061 45.9788 39.2699 46.1249C39.3429 46.3258 39.4263 46.5227 39.5199 46.7149C39.5978 46.9007 39.6879 47.0811 39.7899 47.2549C39.869 47.4291 39.9627 47.5964 40.0699 47.7549L40.1699 47.9149C40.3461 48.1904 40.5398 48.4543 40.7498 48.7049C40.8591 48.8507 40.9794 48.9878 41.1099 49.1149L41.4899 49.4849C41.6195 49.6065 41.7564 49.7201 41.8999 49.8249C42.0368 49.9308 42.1804 50.0276 42.3299 50.1149C42.4799 50.2049 42.6198 50.2949 42.7798 50.3749L43.2399 50.5949L43.7198 50.7649C44.0125 50.8535 44.3096 50.9269 44.6099 50.9849H44.7599C44.9262 51.0001 45.0935 51.0001 45.2599 50.9849C45.4393 51.0052 45.6204 51.0052 45.7999 50.9849C46.2298 50.9847 46.6587 50.9412 47.0799 50.8549C47.4174 50.7977 47.7513 50.7209 48.0799 50.6249C48.9576 50.3559 49.8002 49.9833 50.5898 49.5149L60.5898 43.7349C61.482 43.2201 62.3225 42.6207 63.0999 41.9449C63.3799 41.7049 63.6598 41.4449 63.9398 41.1849C64.4439 40.7153 64.9214 40.2179 65.3698 39.6949L66.0099 39.1149C66.1799 38.9149 66.3399 38.7049 66.5099 38.4949C66.5513 38.4222 66.6017 38.355 66.6599 38.2949C67.3257 37.4145 67.9401 36.4963 68.4998 35.5449C68.6498 35.2949 68.7899 35.0349 68.9398 34.7749C69.0898 34.5149 69.2298 34.2549 69.3698 33.9849C69.5098 33.7149 69.6398 33.4449 69.7798 33.1849L70.1599 32.3649C70.2899 32.0949 70.4098 31.8049 70.5298 31.5449C70.7398 31.0649 70.9299 30.5449 71.0999 30.0849C71.0999 29.9949 71.1699 29.9049 71.1999 29.8149C71.3099 29.5349 71.3999 29.2549 71.4899 28.9749C71.6699 28.4349 71.8299 27.8949 71.9899 27.3349C72.3417 26.0206 72.6056 24.6843 72.7798 23.3349C72.7798 23.1049 72.8299 22.8849 72.8599 22.6549C72.8899 22.4249 72.8599 22.2649 72.9099 22.0649C72.9599 21.8649 72.9099 21.6649 72.9099 21.4649C72.9099 21.0916 72.9099 20.7216 72.9099 20.3549C72.9099 11.3549 67.3998 7.14491 60.6198 11.0549L50.6198 16.8449C43.8698 20.7349 38.3599 31.2649 38.3599 40.3049Z" fill="#5A0F68"/>
<path d="M76.5202 14.8949L68.8302 10.4749L65.9302 12.5249L74.9002 17.9548L76.5202 14.8949Z" fill="#5A0F68"/>
<path d="M50.1201 54.5649L42.3901 50.1149L48.4501 48.3049L50.1201 54.5649Z" fill="#5A0F68"/>
<path d="M59.14 44.7048C59.14 46.3048 61.14 48.4848 63.43 48.8948C63.74 48.9548 63.66 49.6348 63.29 49.8948C61.9253 50.6361 60.3508 50.8968 58.82 50.6348C57.8258 50.6052 56.8574 50.3118 56.0139 49.7846C55.1705 49.2574 54.4823 48.5155 54.02 47.6348L59.14 44.7048Z" fill="#5A0F68"/>
<path d="M41.4502 6.4048L28.1002 14.1148C19.1002 19.3248 11.7402 33.3648 11.7402 45.3948C11.7402 45.8948 11.7402 46.3948 11.7402 46.8348C11.7402 47.1048 11.7402 47.3348 11.7402 47.5948C11.7402 47.8548 11.7902 48.0548 11.8202 48.2848C11.8502 48.5148 11.8802 48.8348 11.9202 49.0848C12.1008 50.5005 12.4361 51.8922 12.9202 53.2348C13.1302 53.7448 13.3502 54.2348 13.5902 54.6648C13.7005 54.8938 13.8276 55.1144 13.9702 55.3248C14.0122 55.3978 14.059 55.468 14.1102 55.5348C14.3274 55.9127 14.582 56.2678 14.8702 56.5948C15.0302 56.7748 15.1902 56.9748 15.3602 57.1348L15.8702 57.6348C16.0502 57.7748 16.2302 57.9448 16.4102 58.0848C16.5914 58.2272 16.7818 58.3575 16.9802 58.4748L17.5802 58.8148C18.3415 59.2257 19.1663 59.5063 20.0202 59.6448C20.0851 59.6227 20.1554 59.6227 20.2202 59.6448C20.4502 59.6448 20.6702 59.6448 20.8902 59.6448C21.1333 59.6596 21.3771 59.6596 21.6202 59.6448C22.2628 59.6476 22.9036 59.5771 23.5302 59.4348C23.9047 59.3603 24.2752 59.2669 24.6402 59.1548C25.806 58.7938 26.9266 58.3006 27.9802 57.6848C27.9307 60.647 26.9745 63.5228 25.2402 65.9248C24.9202 66.3548 25.4102 66.7248 25.7802 66.5348C27.4168 65.6858 28.8656 64.5158 30.0402 63.0948C32.2959 60.4216 33.8769 57.246 34.6502 53.8348L33.6502 54.3848L41.2802 49.9848C42.0187 49.5593 42.7301 49.0884 43.4102 48.5748C43.3515 48.321 43.3081 48.0638 43.2802 47.8048C43.2802 47.6348 43.2202 47.3848 43.2002 47.1248C43.1639 46.903 43.1405 46.6793 43.1302 46.4548V46.3348C43.1203 46.1683 43.1203 46.0013 43.1302 45.8348C43.1302 45.4548 43.1302 45.0548 43.1302 44.6548C43.1302 34.5348 49.1302 23.1248 56.8502 18.6548L57.7002 18.1548C57.6202 6.58479 50.3502 1.2648 41.4502 6.4048Z" fill="#9C33B0"/>
<path d="M68.3999 15.485L58.3999 21.265C51.6299 25.185 46.1099 35.715 46.1099 44.755C46.1099 45.125 46.1099 45.485 46.1099 45.835C46.1099 46.185 46.1099 46.205 46.1099 46.395C46.1099 46.585 46.1099 46.745 46.1599 46.925C46.176 47.1229 46.2027 47.3199 46.2399 47.515C46.3498 48.4051 46.5577 49.2804 46.8599 50.125C46.8982 50.2799 46.9518 50.4306 47.0199 50.575C47.0876 50.7731 47.1678 50.9668 47.2599 51.155C47.3398 51.343 47.4299 51.5266 47.5298 51.705C47.6124 51.8794 47.7094 52.0467 47.8199 52.205C47.8433 52.2617 47.8735 52.3155 47.9099 52.365C48.0999 52.645 48.2899 52.905 48.4899 53.155C48.6054 53.2985 48.7289 53.4354 48.8599 53.565L49.2399 53.935C49.3695 54.0566 49.5064 54.1701 49.6499 54.275C49.7817 54.3829 49.9222 54.4799 50.0699 54.565C50.2199 54.655 50.3599 54.745 50.5199 54.825L50.9799 55.0449L51.4599 55.215C51.7526 55.3036 52.0496 55.377 52.3499 55.435H52.4998C52.6662 55.4502 52.8335 55.4502 52.9998 55.435C53.1823 55.4603 53.3674 55.4603 53.5499 55.435C53.9795 55.4374 54.4082 55.3972 54.8299 55.315C55.1672 55.2569 55.5011 55.1801 55.8299 55.085C56.709 54.8197 57.5521 54.4469 58.3398 53.975L61.7198 52.035C62.1887 52.9063 62.8797 53.6381 63.7227 54.1562C64.5657 54.6743 65.5307 54.9602 66.5199 54.985C68.0518 55.243 69.6261 54.9789 70.9899 54.235C71.3499 54.005 71.4398 53.325 71.1198 53.235C68.8298 52.825 66.8398 50.645 66.8398 49.045L68.3599 48.165C69.2504 47.6477 70.0907 47.0485 70.8698 46.375C71.1498 46.135 71.4299 45.875 71.6999 45.615C72.2072 45.1455 72.688 44.6481 73.1399 44.125C73.3199 43.915 73.4999 43.715 73.6799 43.475C73.8599 43.235 74.0099 43.075 74.1799 42.865L74.3299 42.665C74.9957 41.7846 75.6101 40.8664 76.1699 39.915L76.6198 39.145C76.7698 38.885 76.9099 38.625 77.0499 38.355C77.1899 38.085 77.3099 37.815 77.4499 37.555L77.8398 36.735C77.9698 36.455 78.0799 36.175 78.1999 35.915C78.4099 35.435 78.6098 34.9149 78.7798 34.455L78.8698 34.185C78.9798 33.905 79.0798 33.625 79.1599 33.345C79.3498 32.795 79.4999 32.2649 79.6699 31.705C80.0217 30.3906 80.2856 29.0543 80.4599 27.705C80.4599 27.475 80.5098 27.255 80.5298 27.025C80.5498 26.795 80.5299 26.625 80.5799 26.435C80.6299 26.245 80.5799 26.035 80.5799 25.835C80.5799 25.465 80.5799 25.085 80.5799 24.715C80.6899 15.745 75.1699 11.575 68.3999 15.485Z" fill="#9C33B0"/>
</g>
</g>
<defs>
<filter id="filter0_d" x="0" y="0" width="84.6021" height="74.6248" filterUnits="userSpaceOnUse" color-interpolation-filters="sRGB">
<feFlood flood-opacity="0" result="BackgroundImageFix"/>
<feColorMatrix in="SourceAlpha" type="matrix" values="0 0 0 0 0 0 0 0 0 0 0 0 0 0 0 0 0 0 127 0"/>
<feOffset dy="4"/>
<feGaussianBlur stdDeviation="2"/>
<feColorMatrix type="matrix" values="0 0 0 0 0 0 0 0 0 0 0 0 0 0 0 0 0 0 0.25 0"/>
<feBlend mode="normal" in2="BackgroundImageFix" result="effect1_dropShadow"/>
<feBlend mode="normal" in="SourceGraphic" in2="effect1_dropShadow" result="shape"/>
</filter>
<clipPath id="clip0">
<rect width="85" height="75" fill="white"/>
</clipPath>
</defs>
</svg>
