<svg width="430" height="398" viewBox="0 0 430 398" fill="none" xmlns="http://www.w3.org/2000/svg">
<path d="M280.71 353.74C306.065 353.74 326.62 343.944 326.62 331.86C326.62 319.776 306.065 309.98 280.71 309.98C255.355 309.98 234.8 319.776 234.8 331.86C234.8 343.944 255.355 353.74 280.71 353.74Z" fill="#EBEBEB"/>
<path d="M362.04 303.84C381.602 303.84 397.46 296.283 397.46 286.96C397.46 277.637 381.602 270.08 362.04 270.08C342.478 270.08 326.62 277.637 326.62 286.96C326.62 296.283 342.478 303.84 362.04 303.84Z" fill="#EBEBEB"/>
<path d="M109.59 282.23C107.59 271.67 100.27 256.62 91.3405 248.23C82.7505 240.17 70.0005 237.36 64.9205 241.08C59.8405 244.8 63.1705 252.84 73.0305 262.64C84.1605 273.69 105.53 304.35 109.59 321.72V282.23Z" fill="#77B033"/>
<g opacity="0.2">
<path opacity="0.2" d="M109.59 282.23C107.59 271.67 100.27 256.62 91.3405 248.23C82.7505 240.17 70.0005 237.36 64.9205 241.08C59.8405 244.8 63.1705 252.84 73.0305 262.64C84.1605 273.69 105.53 304.35 109.59 321.72V282.23Z" fill="black"/>
</g>
<path d="M109.59 307.64C109.465 307.638 109.344 307.59 109.252 307.505C109.16 307.421 109.102 307.305 109.09 307.18C106.57 280.58 87.9699 250.68 70.0899 244.45C69.9651 244.405 69.8628 244.312 69.8049 244.193C69.747 244.073 69.7381 243.936 69.7799 243.81C69.8252 243.685 69.9174 243.583 70.0369 243.525C70.1565 243.467 70.2938 243.458 70.4199 243.5C88.9599 249.95 107.51 279.67 110.11 307.09C110.121 307.222 110.081 307.354 109.997 307.456C109.913 307.559 109.792 307.625 109.66 307.64H109.59Z" fill="#A8FA48"/>
<path d="M109.59 334.49C109.59 334.49 106.13 337.25 94.5905 336.17C83.0505 335.09 77.1005 326.84 77.1005 323.3C77.1005 319.76 87.7105 319.15 90.0105 310.37C87.6709 312.878 84.5586 314.529 81.1705 315.06C75.1705 316.19 70.3505 314.27 68.9805 303.34C71.9377 303.772 74.9546 303.523 77.8005 302.61C82.5505 301.08 83.6805 298.47 82.4405 297.91C81.2005 297.35 74.5805 297.91 70.3405 296.3C66.1005 294.69 69.3405 272.61 72.1205 271.04C74.9005 269.47 88.0505 273.17 90.6105 275.15C92.8905 276.91 96.0905 279.96 94.6105 286.41C96.3637 284.771 97.73 282.763 98.6105 280.53C99.8505 277.53 100.75 278.23 102.61 279.38C103.727 280.01 104.696 280.871 105.453 281.906C106.211 282.94 106.738 284.125 107 285.38C107.45 288.18 106.72 297.84 102.78 300.98C102.78 300.98 106.56 301.46 109.65 295.08C109.65 295.08 115.65 297.5 117.01 301.42C118.37 305.34 119.85 324.53 109.59 334.49Z" fill="#77B033"/>
<path d="M110.61 336.67C110.488 336.669 110.37 336.624 110.278 336.543C110.186 336.462 110.127 336.351 110.11 336.23C107.47 314.62 91.0399 286.23 74.9299 275.57C74.8185 275.496 74.7412 275.38 74.7149 275.249C74.6886 275.118 74.7156 274.981 74.7899 274.87C74.8641 274.759 74.9796 274.681 75.1109 274.655C75.2422 274.629 75.3785 274.656 75.4899 274.73C91.7999 285.58 108.49 314.26 111.1 336.11C111.117 336.241 111.081 336.374 111.001 336.479C110.92 336.584 110.801 336.653 110.67 336.67H110.61Z" fill="#A8FA48"/>
<path d="M111.62 339.69C111.023 339.277 110.532 338.73 110.184 338.092C109.837 337.455 109.644 336.745 109.62 336.02V97.1101C109.661 96.3583 109.879 95.6268 110.256 94.9751C110.633 94.3234 111.159 93.7701 111.79 93.3601L261.79 6.74005C262.417 6.3468 263.139 6.1319 263.879 6.11847C264.619 6.10504 265.348 6.29359 265.989 6.66384C266.63 7.03408 267.158 7.57201 267.515 8.21976C267.873 8.86751 268.048 9.60055 268.02 10.3401L115.82 339.61C115.176 339.953 114.459 340.139 113.73 340.153C113 340.166 112.277 340.008 111.62 339.69Z" fill="#E0E0E0"/>
<path d="M113.65 101.65L174.58 61.7801L170.52 59.4301L111.76 93.3601C111.129 93.7701 110.603 94.3235 110.226 94.9751C109.849 95.6268 109.631 96.3583 109.59 97.1101V99.3001L113.65 101.65Z" fill="#37474F"/>
<path opacity="0.2" d="M113.65 101.65L174.58 61.7801L170.52 59.4301L111.76 93.3601C111.129 93.7701 110.603 94.3235 110.226 94.9751C109.849 95.6268 109.631 96.3583 109.59 97.1101V99.3001L113.65 101.65Z" fill="#37474F"/>
<path d="M134 108.68L110.22 95C109.833 95.645 109.616 96.378 109.59 97.13V336C109.564 336.739 109.74 337.47 110.099 338.117C110.457 338.763 110.985 339.299 111.625 339.668C112.266 340.037 112.995 340.225 113.734 340.211C114.473 340.197 115.194 339.983 115.82 339.59L134 329.14V108.68Z" fill="#263238"/>
<path opacity="0.4" d="M134 108.68L110.22 95C109.833 95.645 109.616 96.378 109.59 97.13V336C109.564 336.739 109.74 337.47 110.099 338.117C110.457 338.763 110.985 339.299 111.625 339.668C112.266 340.037 112.995 340.225 113.734 340.211C114.473 340.197 115.194 339.983 115.82 339.59L134 329.14V108.68Z" fill="#263238"/>
<path d="M115.82 339.61L265.82 252.99C266.451 252.58 266.977 252.027 267.354 251.375C267.731 250.723 267.949 249.992 267.99 249.24V10.34C267.99 8.95997 266.99 8.39997 265.82 9.08997L115.82 95.71C115.189 96.12 114.663 96.6733 114.286 97.325C113.909 97.9767 113.691 98.7082 113.65 99.46V338.36C113.65 339.74 114.62 340.3 115.82 339.61Z" fill="#574A73"/>
<path opacity="0.1" d="M115.82 339.61L265.82 252.99C266.451 252.58 266.977 252.027 267.354 251.375C267.731 250.723 267.949 249.992 267.99 249.24V10.34C267.99 8.95997 266.99 8.39997 265.82 9.08997L115.82 95.71C115.189 96.12 114.663 96.6733 114.286 97.325C113.909 97.9767 113.691 98.7082 113.65 99.46V338.36C113.65 339.74 114.62 340.3 115.82 339.61Z" fill="#574A73"/>
<path d="M126.11 154.64L162.11 133.84C164.5 132.46 166.44 133.44 166.44 136.03C166.333 137.484 165.885 138.893 165.133 140.142C164.381 141.391 163.345 142.445 162.11 143.22L126.11 164.02C123.71 165.4 121.78 164.42 121.78 161.83C121.884 160.375 122.331 158.966 123.084 157.716C123.836 156.467 124.873 155.413 126.11 154.64Z" fill="#522E9F"/>
<path d="M126.11 169.4L149.94 155.64C152.33 154.26 154.27 155.24 154.27 157.83C154.163 159.284 153.716 160.693 152.963 161.942C152.211 163.191 151.175 164.245 149.94 165.02L126.11 178.78C123.71 180.16 121.78 179.18 121.78 176.59C121.884 175.135 122.331 173.726 123.084 172.476C123.836 171.227 124.873 170.173 126.11 169.4Z" fill="#522E9F"/>
<path d="M123.51 194.66L128.17 191.97C129.17 191.42 129.9 191.87 129.9 192.97V198.35C129.868 198.951 129.694 199.535 129.393 200.057C129.093 200.578 128.674 201.021 128.17 201.35L123.51 204C122.51 204.56 121.78 204.11 121.78 203V197.62C121.819 197.026 121.996 196.45 122.296 195.936C122.597 195.422 123.012 194.986 123.51 194.66Z" fill="#522E9F"/>
<path opacity="0.2" d="M123.51 194.66L128.17 191.97C129.17 191.42 129.9 191.87 129.9 192.97V198.35C129.868 198.951 129.694 199.535 129.393 200.057C129.093 200.578 128.674 201.021 128.17 201.35L123.51 204C122.51 204.56 121.78 204.11 121.78 203V197.62C121.819 197.026 121.996 196.45 122.296 195.936C122.597 195.422 123.012 194.986 123.51 194.66Z" fill="black"/>
<path d="M123.51 213.43L128.17 210.74C129.17 210.18 129.9 210.63 129.9 211.74V217.12C129.865 217.72 129.691 218.304 129.39 218.825C129.09 219.346 128.672 219.789 128.17 220.12L123.51 222.81C122.51 223.36 121.78 222.91 121.78 221.81V216.43C121.811 215.829 121.984 215.243 122.284 214.722C122.585 214.201 123.005 213.758 123.51 213.43Z" fill="#522E9F"/>
<g opacity="0.2">
<path opacity="0.2" d="M123.51 213.43L128.17 210.74C129.17 210.18 129.9 210.63 129.9 211.74V217.12C129.865 217.72 129.691 218.304 129.39 218.825C129.09 219.346 128.672 219.789 128.17 220.12L123.51 222.81C122.51 223.36 121.78 222.91 121.78 221.81V216.43C121.811 215.829 121.984 215.243 122.284 214.722C122.585 214.201 123.005 213.758 123.51 213.43Z" fill="black"/>
</g>
<path d="M136.13 208.49L164.29 192.22C165.49 191.53 166.46 192.02 166.46 193.32C166.406 194.047 166.181 194.751 165.804 195.374C165.427 195.998 164.908 196.524 164.29 196.91L136.13 213.18C134.93 213.87 133.96 213.38 133.96 212.08C134.014 211.353 134.239 210.65 134.616 210.026C134.993 209.402 135.512 208.876 136.13 208.49Z" fill="#522E9F"/>
<path opacity="0.2" d="M136.13 208.49L164.29 192.22C165.49 191.53 166.46 192.02 166.46 193.32C166.406 194.047 166.181 194.751 165.804 195.374C165.427 195.998 164.908 196.524 164.29 196.91L136.13 213.18C134.93 213.87 133.96 213.38 133.96 212.08C134.014 211.353 134.239 210.65 134.616 210.026C134.993 209.402 135.512 208.876 136.13 208.49Z" fill="black"/>
<path d="M123.51 232.19L128.17 229.5C129.17 228.94 129.9 229.39 129.9 230.5V235.88C129.866 236.48 129.692 237.064 129.391 237.585C129.091 238.106 128.673 238.55 128.17 238.88L123.51 241.57C122.51 242.12 121.78 241.67 121.78 240.57V235.19C121.811 234.589 121.984 234.004 122.284 233.482C122.585 232.961 123.005 232.518 123.51 232.19Z" fill="#E0E0E0"/>
<path d="M136.13 227.25L164.29 211C165.49 210.31 166.46 210.8 166.46 212.1C166.407 212.827 166.183 213.532 165.806 214.155C165.429 214.779 164.909 215.305 164.29 215.69L136.13 231.96C134.93 232.65 133.96 232.16 133.96 230.86C134.011 230.13 134.235 229.422 134.612 228.795C134.989 228.167 135.509 227.638 136.13 227.25Z" fill="#F0F0F0"/>
<path d="M123.51 251L128.17 248.31C129.17 247.75 129.9 248.2 129.9 249.31V254.69C129.866 255.29 129.692 255.874 129.391 256.395C129.091 256.916 128.673 257.36 128.17 257.69L123.51 260.38C122.51 260.93 121.78 260.48 121.78 259.38V254C121.811 253.399 121.984 252.814 122.284 252.292C122.585 251.771 123.005 251.328 123.51 251Z" fill="#E0E0E0"/>
<path d="M136.13 246.06L164.29 229.8C165.49 229.1 166.46 229.6 166.46 230.89C166.407 231.619 166.183 232.324 165.806 232.95C165.429 233.575 164.91 234.103 164.29 234.49L136.13 250.75C134.93 251.44 133.96 250.95 133.96 249.65C134.014 248.923 134.239 248.219 134.616 247.596C134.993 246.972 135.512 246.446 136.13 246.06Z" fill="#F0F0F0"/>
<path d="M123.51 269.76L128.17 267.07C129.17 266.51 129.9 266.96 129.9 268.07V273.45C129.866 274.05 129.692 274.635 129.391 275.155C129.091 275.676 128.673 276.12 128.17 276.45L123.51 279.14C122.51 279.69 121.78 279.24 121.78 278.14V272.76C121.811 272.159 121.984 271.574 122.284 271.052C122.585 270.531 123.005 270.088 123.51 269.76Z" fill="#E0E0E0"/>
<path d="M136.13 264.82L164.29 248.56C165.49 247.86 166.46 248.36 166.46 249.65C166.407 250.379 166.183 251.084 165.806 251.71C165.429 252.335 164.91 252.863 164.29 253.25L136.13 269.51C134.93 270.2 133.96 269.71 133.96 268.41C134.014 267.683 134.239 266.979 134.616 266.356C134.993 265.732 135.512 265.206 136.13 264.82Z" fill="#F0F0F0"/>
<path d="M123.94 288.22L143.94 276.65C145.14 275.96 146.11 276.45 146.11 277.75C146.056 278.477 145.831 279.181 145.454 279.804C145.077 280.428 144.558 280.954 143.94 281.34L123.94 292.91C122.75 293.6 121.78 293.11 121.78 291.82C121.833 291.093 122.055 290.388 122.431 289.762C122.806 289.137 123.323 288.609 123.94 288.22Z" fill="#522E9F"/>
<path d="M123.94 297.6L164.29 274.31C165.49 273.62 166.46 274.11 166.46 275.4C166.407 276.129 166.183 276.834 165.806 277.46C165.429 278.085 164.91 278.613 164.29 279L123.94 302.29C122.75 302.98 121.78 302.49 121.78 301.2C121.833 300.473 122.055 299.768 122.431 299.142C122.806 298.517 123.323 297.989 123.94 297.6Z" fill="#522E9F"/>
<path opacity="0.8" d="M123.94 297.6L164.29 274.31C165.49 273.62 166.46 274.11 166.46 275.4C166.407 276.129 166.183 276.834 165.806 277.46C165.429 278.085 164.91 278.613 164.29 279L123.94 302.29C122.75 302.98 121.78 302.49 121.78 301.2C121.833 300.473 122.055 299.768 122.431 299.142C122.806 298.517 123.323 297.989 123.94 297.6Z" fill="white"/>
<path d="M123.94 297.6L152.11 281.34C153.3 280.65 154.27 281.14 154.27 282.44C154.216 283.166 153.992 283.869 153.617 284.492C153.242 285.116 152.726 285.642 152.11 286.03L123.94 302.29C122.75 302.98 121.78 302.49 121.78 301.2C121.833 300.473 122.055 299.768 122.431 299.142C122.806 298.517 123.323 297.989 123.94 297.6Z" fill="#522E9F"/>
<path d="M123.94 307L143.94 295.43C145.14 294.74 146.11 295.23 146.11 296.53C146.056 297.257 145.831 297.961 145.454 298.584C145.077 299.208 144.558 299.734 143.94 300.12L123.94 311.69C122.75 312.38 121.78 311.89 121.78 310.6C121.833 309.873 122.055 309.168 122.431 308.542C122.806 307.917 123.323 307.389 123.94 307Z" fill="#522E9F"/>
<path d="M136.13 189.72L164.29 173.46C165.49 172.77 166.46 173.26 166.46 174.56C166.406 175.287 166.181 175.991 165.804 176.614C165.427 177.238 164.908 177.764 164.29 178.15L136.13 194.41C134.93 195.1 133.96 194.61 133.96 193.32C134.013 192.592 134.237 191.886 134.614 191.26C134.991 190.635 135.51 190.107 136.13 189.72Z" fill="#522E9F"/>
<path opacity="0.2" d="M136.13 189.72L164.29 173.46C165.49 172.77 166.46 173.26 166.46 174.56C166.406 175.287 166.181 175.991 165.804 176.614C165.427 177.238 164.908 177.764 164.29 178.15L136.13 194.41C134.93 195.1 133.96 194.61 133.96 193.32C134.013 192.592 134.237 191.886 134.614 191.26C134.991 190.635 135.51 190.107 136.13 189.72Z" fill="black"/>
<path d="M123.94 307L143.94 295.43C145.14 294.74 146.11 295.23 146.11 296.53C146.056 297.257 145.831 297.961 145.454 298.584C145.077 299.208 144.558 299.734 143.94 300.12L123.94 311.69C122.75 312.38 121.78 311.89 121.78 310.6C121.833 309.873 122.055 309.168 122.431 308.542C122.806 307.917 123.323 307.389 123.94 307Z" fill="#522E9F"/>
<path d="M123.94 316.35L164.29 293.06C165.49 292.37 166.46 292.86 166.46 294.15C166.407 294.879 166.183 295.584 165.806 296.21C165.429 296.835 164.91 297.363 164.29 297.75L123.94 321C122.75 321.7 121.78 321.2 121.78 319.91C121.839 319.19 122.064 318.493 122.439 317.875C122.814 317.257 123.328 316.735 123.94 316.35Z" fill="#522E9F"/>
<path opacity="0.8" d="M123.94 316.35L164.29 293.06C165.49 292.37 166.46 292.86 166.46 294.15C166.407 294.879 166.183 295.584 165.806 296.21C165.429 296.835 164.91 297.363 164.29 297.75L123.94 321C122.75 321.7 121.78 321.2 121.78 319.91C121.839 319.19 122.064 318.493 122.439 317.875C122.814 317.257 123.328 316.735 123.94 316.35Z" fill="white"/>
<path d="M123.94 316.35L160.23 295.35C161.43 294.66 162.4 295.15 162.4 296.45C162.346 297.177 162.121 297.881 161.744 298.504C161.367 299.128 160.848 299.654 160.23 300.04L123.94 321.04C122.75 321.74 121.78 321.24 121.78 319.95C121.833 319.223 122.055 318.518 122.431 317.892C122.806 317.267 123.323 316.739 123.94 316.35Z" fill="#522E9F"/>
<path d="M265.84 9.08998L174.58 61.78V305.68L265.84 253C266.471 252.59 266.997 252.037 267.374 251.385C267.751 250.733 267.969 250.002 268.01 249.25V10.34C268 8.99998 267 8.39998 265.84 9.08998Z" fill="#EBEBEB"/>
<path opacity="0.6" d="M265.84 9.08998L174.58 61.78V305.68L265.84 253C266.471 252.59 266.997 252.037 267.374 251.385C267.751 250.733 267.969 250.002 268.01 249.25V10.34C268 8.99998 267 8.39998 265.84 9.08998Z" fill="#FAFAFA"/>
<path d="M174.58 71.16V89.92L166.46 99.3H174.58V118.06L259.88 68.81V21.91L174.58 71.16Z" fill="#522E9F"/>
<g opacity="0.6">
<path opacity="0.6" d="M185.74 71.81L220.3 51.81C221.97 50.81 223.3 51.63 223.3 53.56C223.245 54.6086 222.945 55.6297 222.424 56.5415C221.903 57.4532 221.175 58.2301 220.3 58.81L185.74 78.76C184.06 79.76 182.74 78.94 182.74 77.01C182.8 75.9694 183.103 74.9574 183.624 74.0546C184.145 73.1518 184.869 72.3831 185.74 71.81Z" fill="white"/>
</g>
<path d="M183.79 87L250.68 48.38C251.28 48.04 251.76 48.28 251.76 48.93C251.734 49.2938 251.623 49.6463 251.435 49.9591C251.248 50.2718 250.989 50.5359 250.68 50.73L183.79 89.3C183.19 89.64 182.71 89.4 182.71 88.75C182.743 88.3949 182.858 88.0523 183.046 87.7488C183.233 87.4452 183.488 87.189 183.79 87Z" fill="#522E9F"/>
<path d="M183.79 87L250.68 48.38C251.28 48.04 251.76 48.28 251.76 48.93C251.734 49.2938 251.623 49.6463 251.435 49.9591C251.248 50.2718 250.989 50.5359 250.68 50.73L183.79 89.3C183.19 89.64 182.71 89.4 182.71 88.75C182.743 88.3949 182.858 88.0523 183.046 87.7488C183.233 87.4452 183.488 87.189 183.79 87Z" fill="#522E9F"/>
<path opacity="0.6" d="M183.79 87L250.68 48.38C251.28 48.04 251.76 48.28 251.76 48.93C251.734 49.2938 251.623 49.6463 251.435 49.9591C251.248 50.2718 250.989 50.5359 250.68 50.73L183.79 89.3C183.19 89.64 182.71 89.4 182.71 88.75C182.743 88.3949 182.858 88.0523 183.046 87.7488C183.233 87.4452 183.488 87.189 183.79 87Z" fill="white"/>
<path d="M183.79 94L250.68 55.38C251.28 55.03 251.76 55.28 251.76 55.93C251.734 56.2925 251.623 56.6436 251.435 56.9548C251.247 57.2659 250.989 57.5282 250.68 57.72L183.79 96.34C183.19 96.69 182.71 96.44 182.71 95.79C182.736 95.4275 182.847 95.0763 183.035 94.7652C183.223 94.454 183.481 94.1918 183.79 94Z" fill="#522E9F"/>
<path opacity="0.6" d="M183.79 94L250.68 55.38C251.28 55.03 251.76 55.28 251.76 55.93C251.734 56.2925 251.623 56.6436 251.435 56.9548C251.247 57.2659 250.989 57.5282 250.68 57.72L183.79 96.34C183.19 96.69 182.71 96.44 182.71 95.79C182.736 95.4275 182.847 95.0763 183.035 94.7652C183.223 94.454 183.481 94.1918 183.79 94Z" fill="white"/>
<path opacity="0.6" d="M183.79 101L250.68 62.38C251.28 62.04 251.76 62.28 251.76 62.93C251.734 63.2938 251.623 63.6463 251.435 63.9591C251.248 64.2718 250.989 64.5359 250.68 64.73L183.79 103.35C183.19 103.69 182.71 103.45 182.71 102.8C182.736 102.436 182.847 102.084 183.035 101.771C183.222 101.458 183.481 101.194 183.79 101Z" fill="white"/>
<path d="M186.31 120.7L191 118C192 117.44 192.73 117.89 192.73 119V124.38C192.697 124.981 192.523 125.565 192.222 126.086C191.922 126.607 191.503 127.05 191 127.38L186.34 130.07C185.34 130.62 184.61 130.17 184.61 129.07V123.7C184.638 123.101 184.806 122.518 185.101 121.997C185.397 121.475 185.811 121.031 186.31 120.7Z" fill="#522E9F"/>
<path opacity="0.2" d="M186.31 120.7L191 118C192 117.44 192.73 117.89 192.73 119V124.38C192.697 124.981 192.523 125.565 192.222 126.086C191.922 126.607 191.503 127.05 191 127.38L186.34 130.07C185.34 130.62 184.61 130.17 184.61 129.07V123.7C184.638 123.101 184.806 122.518 185.101 121.997C185.397 121.475 185.811 121.031 186.31 120.7Z" fill="white"/>
<path d="M198.93 115.76L227.09 99.49C228.29 98.8 229.26 99.29 229.26 100.59C229.206 101.317 228.981 102.02 228.604 102.644C228.227 103.268 227.708 103.794 227.09 104.18L198.93 120.45C197.73 121.14 196.76 120.65 196.76 119.35C196.814 118.623 197.039 117.919 197.416 117.296C197.793 116.672 198.312 116.146 198.93 115.76Z" fill="#522E9F"/>
<path opacity="0.8" d="M198.93 115.76L227.09 99.49C228.29 98.8 229.26 99.29 229.26 100.59C229.206 101.317 228.981 102.02 228.604 102.644C228.227 103.268 227.708 103.794 227.09 104.18L198.93 120.45C197.73 121.14 196.76 120.65 196.76 119.35C196.814 118.623 197.039 117.919 197.416 117.296C197.793 116.672 198.312 116.146 198.93 115.76Z" fill="white"/>
<path d="M185.66 137.5L256.66 96.5C257.26 96.15 257.74 96.4 257.74 97.04C257.715 97.404 257.604 97.7569 257.416 98.0697C257.229 98.3826 256.969 98.6465 256.66 98.84L185.66 139.84C185.06 140.19 184.58 139.94 184.58 139.29C184.606 138.927 184.717 138.576 184.905 138.265C185.093 137.954 185.351 137.692 185.66 137.5Z" fill="#522E9F"/>
<path d="M185.66 144.53L256.66 103.53C257.26 103.19 257.74 103.43 257.74 104.08C257.714 104.444 257.603 104.796 257.415 105.109C257.228 105.422 256.969 105.686 256.66 105.88L185.66 146.88C185.06 147.22 184.58 146.98 184.58 146.33C184.606 145.966 184.717 145.614 184.905 145.301C185.092 144.988 185.351 144.724 185.66 144.53Z" fill="#522E9F"/>
<path d="M185.66 151.57L256.66 110.57C257.26 110.22 257.74 110.47 257.74 111.11C257.715 111.474 257.604 111.827 257.416 112.14C257.229 112.453 256.969 112.717 256.66 112.91L185.66 153.91C185.06 154.26 184.58 154.01 184.58 153.37C184.605 153.006 184.716 152.653 184.904 152.34C185.091 152.027 185.351 151.763 185.66 151.57Z" fill="#522E9F"/>
<path d="M185.66 158.62L256.66 117.62C257.26 117.28 257.74 117.52 257.74 118.17C257.714 118.534 257.603 118.886 257.415 119.199C257.228 119.512 256.969 119.776 256.66 119.97L185.66 160.97C185.06 161.31 184.58 161.07 184.58 160.42C184.606 160.056 184.717 159.704 184.905 159.391C185.092 159.078 185.351 158.814 185.66 158.62Z" fill="#522E9F"/>
<path d="M185.66 137.5L256.66 96.5C257.26 96.15 257.74 96.4 257.74 97.04C257.715 97.404 257.604 97.7569 257.416 98.0697C257.229 98.3826 256.969 98.6465 256.66 98.84L185.66 139.84C185.06 140.19 184.58 139.94 184.58 139.29C184.606 138.927 184.717 138.576 184.905 138.265C185.093 137.954 185.351 137.692 185.66 137.5Z" fill="#E0E0E0"/>
<path d="M185.66 144.53L256.66 103.53C257.26 103.19 257.74 103.43 257.74 104.08C257.714 104.444 257.603 104.796 257.415 105.109C257.228 105.422 256.969 105.686 256.66 105.88L185.66 146.88C185.06 147.22 184.58 146.98 184.58 146.33C184.606 145.966 184.717 145.614 184.905 145.301C185.092 144.988 185.351 144.724 185.66 144.53Z" fill="#E0E0E0"/>
<path d="M185.66 151.57L256.66 110.57C257.26 110.22 257.74 110.47 257.74 111.11C257.715 111.474 257.604 111.827 257.416 112.14C257.229 112.453 256.969 112.717 256.66 112.91L185.66 153.91C185.06 154.26 184.58 154.01 184.58 153.37C184.605 153.006 184.716 152.653 184.904 152.34C185.091 152.027 185.351 151.763 185.66 151.57Z" fill="#E0E0E0"/>
<path d="M185.66 158.62L256.66 117.62C257.26 117.28 257.74 117.52 257.74 118.17C257.714 118.534 257.603 118.886 257.415 119.199C257.228 119.512 256.969 119.776 256.66 119.97L185.66 160.97C185.06 161.31 184.58 161.07 184.58 160.42C184.606 160.056 184.717 159.704 184.905 159.391C185.092 159.078 185.351 158.814 185.66 158.62Z" fill="#E0E0E0"/>
<path opacity="0.8" d="M185.66 137.5L256.66 96.5C257.26 96.15 257.74 96.4 257.74 97.04C257.715 97.404 257.604 97.7569 257.416 98.0697C257.229 98.3826 256.969 98.6465 256.66 98.84L185.66 139.84C185.06 140.19 184.58 139.94 184.58 139.29C184.606 138.927 184.717 138.576 184.905 138.265C185.093 137.954 185.351 137.692 185.66 137.5Z" fill="#E0E0E0"/>
<path opacity="0.8" d="M185.66 144.53L256.66 103.53C257.26 103.19 257.74 103.43 257.74 104.08C257.714 104.444 257.603 104.796 257.415 105.109C257.228 105.422 256.969 105.686 256.66 105.88L185.66 146.88C185.06 147.22 184.58 146.98 184.58 146.33C184.606 145.966 184.717 145.614 184.905 145.301C185.092 144.988 185.351 144.724 185.66 144.53Z" fill="#E0E0E0"/>
<path opacity="0.8" d="M185.66 151.57L256.66 110.57C257.26 110.22 257.74 110.47 257.74 111.11C257.715 111.474 257.604 111.827 257.416 112.14C257.229 112.453 256.969 112.717 256.66 112.91L185.66 153.91C185.06 154.26 184.58 154.01 184.58 153.37C184.605 153.006 184.716 152.653 184.904 152.34C185.091 152.027 185.351 151.763 185.66 151.57Z" fill="#E0E0E0"/>
<path opacity="0.8" d="M185.66 158.62L256.66 117.62C257.26 117.28 257.74 117.52 257.74 118.17C257.714 118.534 257.603 118.886 257.415 119.199C257.228 119.512 256.969 119.776 256.66 119.97L185.66 160.97C185.06 161.31 184.58 161.07 184.58 160.42C184.606 160.056 184.717 159.704 184.905 159.391C185.092 159.078 185.351 158.814 185.66 158.62Z" fill="#E0E0E0"/>
<path d="M185.66 188.5L256.66 147.5C257.26 147.15 257.74 147.4 257.74 148.04C257.715 148.404 257.604 148.757 257.416 149.07C257.229 149.383 256.969 149.647 256.66 149.84L185.66 190.84C185.06 191.19 184.58 190.94 184.58 190.29C184.606 189.927 184.717 189.576 184.905 189.265C185.093 188.954 185.351 188.692 185.66 188.5Z" fill="#E0E0E0"/>
<path d="M185.66 195.53L256.66 154.53C257.26 154.19 257.74 154.43 257.74 155.08C257.714 155.444 257.603 155.796 257.415 156.109C257.228 156.422 256.969 156.686 256.66 156.88L185.66 197.88C185.06 198.22 184.58 197.98 184.58 197.33C184.606 196.966 184.717 196.614 184.905 196.301C185.092 195.988 185.351 195.724 185.66 195.53Z" fill="#E0E0E0"/>
<path d="M185.66 202.57L256.66 161.57C257.26 161.22 257.74 161.47 257.74 162.11C257.715 162.474 257.604 162.827 257.416 163.14C257.229 163.453 256.969 163.717 256.66 163.91L185.66 204.91C185.06 205.26 184.58 205.01 184.58 204.37C184.605 204.006 184.716 203.653 184.904 203.34C185.091 203.027 185.351 202.763 185.66 202.57Z" fill="#E0E0E0"/>
<path d="M185.66 209.62L256.66 168.62C257.26 168.28 257.74 168.52 257.74 169.17C257.714 169.534 257.603 169.886 257.415 170.199C257.228 170.512 256.969 170.776 256.66 170.97L185.66 211.97C185.06 212.31 184.58 212.07 184.58 211.42C184.606 211.056 184.717 210.704 184.905 210.391C185.092 210.078 185.351 209.814 185.66 209.62Z" fill="#E0E0E0"/>
<path opacity="0.8" d="M185.66 188.5L256.66 147.5C257.26 147.15 257.74 147.4 257.74 148.04C257.715 148.404 257.604 148.757 257.416 149.07C257.229 149.383 256.969 149.647 256.66 149.84L185.66 190.84C185.06 191.19 184.58 190.94 184.58 190.29C184.606 189.927 184.717 189.576 184.905 189.265C185.093 188.954 185.351 188.692 185.66 188.5Z" fill="#E0E0E0"/>
<path opacity="0.8" d="M185.66 195.53L256.66 154.53C257.26 154.19 257.74 154.43 257.74 155.08C257.714 155.444 257.603 155.796 257.415 156.109C257.228 156.422 256.969 156.686 256.66 156.88L185.66 197.88C185.06 198.22 184.58 197.98 184.58 197.33C184.606 196.966 184.717 196.614 184.905 196.301C185.092 195.988 185.351 195.724 185.66 195.53Z" fill="#E0E0E0"/>
<path opacity="0.8" d="M185.66 202.57L256.66 161.57C257.26 161.22 257.74 161.47 257.74 162.11C257.715 162.474 257.604 162.827 257.416 163.14C257.229 163.453 256.969 163.717 256.66 163.91L185.66 204.91C185.06 205.26 184.58 205.01 184.58 204.37C184.605 204.006 184.716 203.653 184.904 203.34C185.091 203.027 185.351 202.763 185.66 202.57Z" fill="#E0E0E0"/>
<path opacity="0.8" d="M185.66 209.62L256.66 168.62C257.26 168.28 257.74 168.52 257.74 169.17C257.714 169.534 257.603 169.886 257.415 170.199C257.228 170.512 256.969 170.776 256.66 170.97L185.66 211.97C185.06 212.31 184.58 212.07 184.58 211.42C184.606 211.056 184.717 210.704 184.905 210.391C185.092 210.078 185.351 209.814 185.66 209.62Z" fill="#E0E0E0"/>
<path d="M185.66 240.5L256.66 199.5C257.26 199.15 257.74 199.4 257.74 200.04C257.715 200.404 257.604 200.757 257.416 201.07C257.229 201.383 256.969 201.647 256.66 201.84L185.66 242.84C185.06 243.19 184.58 242.94 184.58 242.29C184.606 241.928 184.717 241.576 184.905 241.265C185.093 240.954 185.351 240.692 185.66 240.5Z" fill="#E0E0E0"/>
<path d="M185.66 247.53L256.66 206.53C257.26 206.19 257.74 206.43 257.74 207.08C257.714 207.444 257.603 207.796 257.415 208.109C257.228 208.422 256.969 208.686 256.66 208.88L185.66 249.88C185.06 250.22 184.58 249.98 184.58 249.33C184.606 248.966 184.717 248.614 184.905 248.301C185.092 247.988 185.351 247.724 185.66 247.53Z" fill="#E0E0E0"/>
<path d="M185.66 254.57L256.66 213.57C257.26 213.22 257.74 213.47 257.74 214.11C257.715 214.474 257.604 214.827 257.416 215.14C257.229 215.453 256.969 215.717 256.66 215.91L185.66 256.91C185.06 257.26 184.58 257.01 184.58 256.37C184.605 256.006 184.716 255.653 184.904 255.34C185.091 255.027 185.351 254.763 185.66 254.57Z" fill="#E0E0E0"/>
<path d="M185.66 261.62L256.66 220.62C257.26 220.28 257.74 220.52 257.74 221.17C257.714 221.534 257.603 221.886 257.415 222.199C257.228 222.512 256.969 222.776 256.66 222.97L185.66 263.97C185.06 264.31 184.58 264.07 184.58 263.42C184.606 263.056 184.717 262.704 184.905 262.391C185.092 262.078 185.351 261.814 185.66 261.62Z" fill="#E0E0E0"/>
<path opacity="0.8" d="M185.66 240.5L256.66 199.5C257.26 199.15 257.74 199.4 257.74 200.04C257.715 200.404 257.604 200.757 257.416 201.07C257.229 201.383 256.969 201.647 256.66 201.84L185.66 242.84C185.06 243.19 184.58 242.94 184.58 242.29C184.606 241.928 184.717 241.576 184.905 241.265C185.093 240.954 185.351 240.692 185.66 240.5Z" fill="#E0E0E0"/>
<path opacity="0.8" d="M185.66 247.53L256.66 206.53C257.26 206.19 257.74 206.43 257.74 207.08C257.714 207.444 257.603 207.796 257.415 208.109C257.228 208.422 256.969 208.686 256.66 208.88L185.66 249.88C185.06 250.22 184.58 249.98 184.58 249.33C184.606 248.966 184.717 248.614 184.905 248.301C185.092 247.988 185.351 247.724 185.66 247.53Z" fill="#E0E0E0"/>
<path opacity="0.8" d="M185.66 254.57L256.66 213.57C257.26 213.22 257.74 213.47 257.74 214.11C257.715 214.474 257.604 214.827 257.416 215.14C257.229 215.453 256.969 215.717 256.66 215.91L185.66 256.91C185.06 257.26 184.58 257.01 184.58 256.37C184.605 256.006 184.716 255.653 184.904 255.34C185.091 255.027 185.351 254.763 185.66 254.57Z" fill="#E0E0E0"/>
<path opacity="0.8" d="M185.66 261.62L256.66 220.62C257.26 220.28 257.74 220.52 257.74 221.17C257.714 221.534 257.603 221.886 257.415 222.199C257.228 222.512 256.969 222.776 256.66 222.97L185.66 263.97C185.06 264.31 184.58 264.07 184.58 263.42C184.606 263.056 184.717 262.704 184.905 262.391C185.092 262.078 185.351 261.814 185.66 261.62Z" fill="#E0E0E0"/>
<path d="M186.31 172.29L191 169.6C192 169.05 192.73 169.5 192.73 170.6V176C192.699 176.601 192.526 177.186 192.226 177.708C191.925 178.229 191.505 178.672 191 179L186.34 181.69C185.34 182.24 184.61 181.8 184.61 180.69V175.31C184.635 174.708 184.802 174.121 185.098 173.596C185.393 173.071 185.809 172.624 186.31 172.29Z" fill="#522E9F"/>
<path opacity="0.2" d="M186.31 172.29L191 169.6C192 169.05 192.73 169.5 192.73 170.6V176C192.699 176.601 192.526 177.186 192.226 177.708C191.925 178.229 191.505 178.672 191 179L186.34 181.69C185.34 182.24 184.61 181.8 184.61 180.69V175.31C184.635 174.708 184.802 174.121 185.098 173.596C185.393 173.071 185.809 172.624 186.31 172.29Z" fill="white"/>
<path d="M198.93 167.35L227.09 151.09C228.29 150.4 229.26 150.89 229.26 152.18C229.207 152.908 228.983 153.614 228.606 154.24C228.229 154.865 227.71 155.393 227.09 155.78L198.93 172C197.73 172.69 196.76 172.2 196.76 170.91C196.819 170.188 197.046 169.491 197.423 168.872C197.799 168.254 198.316 167.733 198.93 167.35Z" fill="#522E9F"/>
<path opacity="0.8" d="M198.93 167.35L227.09 151.09C228.29 150.4 229.26 150.89 229.26 152.18C229.207 152.908 228.983 153.614 228.606 154.24C228.229 154.865 227.71 155.393 227.09 155.78L198.93 172C197.73 172.69 196.76 172.2 196.76 170.91C196.819 170.188 197.046 169.491 197.423 168.872C197.799 168.254 198.316 167.733 198.93 167.35Z" fill="white"/>
<path d="M186.31 223.89L191 221.2C192 220.64 192.73 221.09 192.73 222.2V227.58C192.698 228.181 192.525 228.766 192.224 229.287C191.924 229.809 191.504 230.252 191 230.58L186.34 233.27C185.34 233.82 184.61 233.37 184.61 232.27V226.89C184.638 226.291 184.806 225.708 185.101 225.187C185.397 224.665 185.811 224.221 186.31 223.89Z" fill="#522E9F"/>
<path opacity="0.2" d="M186.31 223.89L191 221.2C192 220.64 192.73 221.09 192.73 222.2V227.58C192.698 228.181 192.525 228.766 192.224 229.287C191.924 229.809 191.504 230.252 191 230.58L186.34 233.27C185.34 233.82 184.61 233.37 184.61 232.27V226.89C184.638 226.291 184.806 225.708 185.101 225.187C185.397 224.665 185.811 224.221 186.31 223.89Z" fill="white"/>
<path d="M198.93 219L227.09 202.73C228.29 202.04 229.26 202.53 229.26 203.83C229.206 204.558 228.982 205.264 228.605 205.889C228.228 206.515 227.709 207.042 227.09 207.43L198.93 223.69C197.73 224.38 196.76 223.89 196.76 222.59C196.814 221.863 197.039 221.159 197.416 220.536C197.793 219.912 198.312 219.386 198.93 219Z" fill="#522E9F"/>
<path opacity="0.8" d="M198.93 219L227.09 202.73C228.29 202.04 229.26 202.53 229.26 203.83C229.206 204.558 228.982 205.264 228.605 205.889C228.228 206.515 227.709 207.042 227.09 207.43L198.93 223.69C197.73 224.38 196.76 223.89 196.76 222.59C196.814 221.863 197.039 221.159 197.416 220.536C197.793 219.912 198.312 219.386 198.93 219Z" fill="white"/>
<path d="M192.94 269.31L197.6 266.62C198.6 266.07 199.34 266.52 199.34 267.62V273C199.307 273.602 199.133 274.187 198.83 274.709C198.528 275.23 198.106 275.673 197.6 276L192.94 278.69C191.99 279.25 191.21 278.8 191.21 277.69V272.31C191.245 271.71 191.419 271.126 191.72 270.605C192.02 270.084 192.438 269.641 192.94 269.31Z" fill="#522E9F"/>
<path d="M185.66 287.59L204.89 276.49C205.49 276.15 205.97 276.39 205.97 277.04C205.944 277.404 205.833 277.756 205.645 278.069C205.458 278.382 205.199 278.646 204.89 278.84L185.66 289.94C185.06 290.28 184.58 290.04 184.58 289.39C184.606 289.026 184.717 288.674 184.905 288.361C185.092 288.048 185.351 287.784 185.66 287.59Z" fill="#E0E0E0"/>
<path d="M218.81 254.37L223.47 251.68C224.42 251.13 225.2 251.58 225.2 252.68V258.06C225.168 258.661 224.994 259.245 224.693 259.767C224.393 260.288 223.974 260.731 223.47 261.06L218.81 263.75C217.81 264.3 217.07 263.86 217.07 262.75V257.37C217.104 256.768 217.279 256.183 217.581 255.662C217.883 255.14 218.304 254.698 218.81 254.37Z" fill="#522E9F"/>
<path d="M211.52 272.65L230.75 261.55C231.35 261.2 231.83 261.45 231.83 262.1C231.804 262.462 231.693 262.814 231.505 263.125C231.317 263.436 231.059 263.698 230.75 263.89L211.52 275C210.92 275.35 210.44 275.1 210.44 274.46C210.464 274.094 210.574 273.739 210.762 273.425C210.949 273.11 211.209 272.844 211.52 272.65Z" fill="#E0E0E0"/>
<path d="M244.67 239.43L249.33 236.74C250.28 236.18 251.06 236.63 251.06 237.74V243.12C251.026 243.72 250.852 244.304 250.551 244.825C250.251 245.346 249.833 245.79 249.33 246.12L244.67 248.81C243.67 249.36 242.94 248.91 242.94 247.81V242.43C242.971 241.829 243.144 241.243 243.444 240.722C243.745 240.201 244.165 239.758 244.67 239.43Z" fill="#522E9F"/>
<path opacity="0.2" d="M192.94 269.31L197.6 266.62C198.6 266.07 199.34 266.52 199.34 267.62V273C199.307 273.602 199.133 274.187 198.83 274.709C198.528 275.23 198.106 275.673 197.6 276L192.94 278.69C191.99 279.25 191.21 278.8 191.21 277.69V272.31C191.245 271.71 191.419 271.126 191.72 270.605C192.02 270.084 192.438 269.641 192.94 269.31Z" fill="white"/>
<path opacity="0.2" d="M218.81 254.37L223.47 251.68C224.42 251.13 225.2 251.58 225.2 252.68V258.06C225.168 258.661 224.994 259.245 224.693 259.767C224.393 260.288 223.974 260.731 223.47 261.06L218.81 263.75C217.81 264.3 217.07 263.86 217.07 262.75V257.37C217.104 256.768 217.279 256.183 217.581 255.662C217.883 255.14 218.304 254.698 218.81 254.37Z" fill="white"/>
<path opacity="0.2" d="M244.67 239.43L249.33 236.74C250.28 236.18 251.06 236.63 251.06 237.74V243.12C251.026 243.72 250.852 244.304 250.551 244.825C250.251 245.346 249.833 245.79 249.33 246.12L244.67 248.81C243.67 249.36 242.94 248.91 242.94 247.81V242.43C242.971 241.829 243.144 241.243 243.444 240.722C243.745 240.201 244.165 239.758 244.67 239.43Z" fill="white"/>
<path d="M237.38 257.71L256.61 246.61C257.21 246.26 257.69 246.51 257.69 247.15C257.665 247.514 257.554 247.867 257.366 248.18C257.179 248.493 256.919 248.757 256.61 248.95L237.38 260.05C236.79 260.4 236.3 260.15 236.3 259.5C236.328 259.138 236.44 258.788 236.628 258.477C236.815 258.166 237.073 257.904 237.38 257.71Z" fill="#E0E0E0"/>
<path d="M142.09 90.8601C130.87 97.1801 121.78 112.93 121.78 126.03C121.78 139.13 130.87 144.51 142.09 138.03C153.31 131.55 162.4 115.81 162.4 102.85C162.4 89.89 153.3 84.5301 142.09 90.8601Z" fill="#FAFAFA"/>
<path d="M151.93 131.23L135.67 135.59C135.39 135.681 135.092 135.701 134.802 135.648C134.512 135.595 134.24 135.471 134.011 135.286C133.782 135.101 133.602 134.862 133.488 134.59C133.375 134.319 133.331 134.023 133.36 133.73V106.05C133.417 103.759 134.183 101.542 135.551 99.7028C136.919 97.864 138.822 96.4937 141 95.78L146.56 94.29C150.79 93.16 154.22 95.92 154.22 100.45V128.14C154.202 128.828 153.972 129.493 153.563 130.046C153.153 130.599 152.583 131.012 151.93 131.23Z" fill="#37474F"/>
<path d="M152.71 138.39L151 130.84C151 130.84 151 120.65 149.55 119.71C148.1 118.77 147.68 118.59 147.68 118.59C149.54 117.95 153.46 117.47 154.68 121.05C155.85 124.43 157.6 132.76 158.43 136.86L152.71 138.39Z" fill="#F28F8F"/>
<path d="M152.57 138.43L146.77 118.68C149.34 117.68 152.64 116.85 154.24 119.5C155.68 121.88 157.98 134.35 158.43 136.86L152.57 138.43Z" fill="#522E9F"/>
<g opacity="0.4">
<path opacity="0.4" d="M152.57 138.43L146.77 118.68C149.34 117.68 152.64 116.85 154.24 119.5C155.68 121.88 157.98 134.35 158.43 136.86L152.57 138.43Z" fill="black"/>
</g>
<path d="M153.35 138.22L147.65 139.75C147.88 138.113 148.419 136.535 149.24 135.1C150.381 133.456 152.022 132.225 153.92 131.59C153.509 133.775 153.318 135.996 153.35 138.22Z" fill="#522E9F"/>
<path d="M153.35 138.22L147.65 139.75C147.88 138.113 148.419 136.535 149.24 135.1C150.381 133.456 152.022 132.225 153.92 131.59C153.509 133.775 153.318 135.996 153.35 138.22Z" fill="#522E9F"/>
<g opacity="0.7">
<path opacity="0.7" d="M153.35 138.22L147.65 139.75C147.88 138.113 148.419 136.535 149.24 135.1C150.381 133.456 152.022 132.225 153.92 131.59C153.509 133.775 153.318 135.996 153.35 138.22Z" fill="black"/>
</g>
<path d="M152.13 138.55L136.13 142.82L134.37 137.37C134.37 137.37 139.04 126.44 133.27 123.63C134 123.08 140.15 120.68 140.15 120.68L146.76 118.68C148.02 118.34 153.11 120.6 154.4 125.61C154.86 127.38 154.7 128.97 152.11 138.19C152.14 138.31 152.13 138.43 152.13 138.55Z" fill="#522E9F"/>
<path d="M150.81 97.6899C151.91 98.0899 153.27 100.69 153.14 106.96C153.03 112.28 151.43 113.96 150.63 114.6C149.432 115.2 148.11 115.512 146.77 115.51V118.68C146.77 118.68 148.85 120.68 148.72 122.2C148.59 123.72 145.72 124.8 143.78 123.9C142.363 123.101 141.138 122.002 140.19 120.68V113.38C140.044 113.548 139.866 113.686 139.666 113.785C139.466 113.884 139.249 113.942 139.026 113.956C138.804 113.97 138.581 113.939 138.37 113.866C138.16 113.793 137.966 113.679 137.8 113.53C137.488 113.316 137.221 113.042 137.017 112.723C136.813 112.405 136.674 112.049 136.61 111.676C136.545 111.303 136.557 110.921 136.642 110.552C136.728 110.184 136.887 109.836 137.11 109.53C138.11 108.22 139.86 108.03 140.54 109.34C141.386 107.285 142.902 105.577 144.84 104.49C148 102.57 149.72 100.86 150.81 97.6899Z" fill="#FFA8A7"/>
<path d="M147.64 107.11C147.644 107.3 147.59 107.486 147.484 107.643C147.379 107.801 147.227 107.922 147.05 107.99C146.975 108.016 146.894 108.023 146.816 108.011C146.737 107.999 146.663 107.968 146.599 107.921C146.535 107.874 146.483 107.812 146.449 107.74C146.414 107.668 146.397 107.589 146.4 107.51C146.396 107.32 146.45 107.134 146.556 106.977C146.661 106.819 146.813 106.698 146.99 106.63C147.065 106.604 147.146 106.597 147.224 106.609C147.303 106.621 147.377 106.652 147.441 106.699C147.505 106.746 147.557 106.808 147.592 106.88C147.626 106.952 147.643 107.03 147.64 107.11Z" fill="#37474F"/>
<path d="M147.8 111.55L149.24 111.65C149.198 111.87 149.083 112.069 148.915 112.215C148.746 112.362 148.533 112.448 148.31 112.46C147.91 112.43 147.68 112 147.8 111.55Z" fill="#F28F8F"/>
<path d="M152.72 103.71L151.47 103.12C151.544 102.927 151.688 102.768 151.872 102.673C152.057 102.579 152.27 102.557 152.47 102.61C152.559 102.665 152.637 102.737 152.698 102.823C152.759 102.908 152.803 103.005 152.826 103.108C152.849 103.21 152.852 103.316 152.834 103.419C152.815 103.523 152.777 103.622 152.72 103.71Z" fill="#37474F"/>
<path d="M145.84 106.05L147.09 104.78C147.024 104.713 146.944 104.66 146.856 104.626C146.768 104.591 146.673 104.576 146.579 104.581C146.484 104.585 146.392 104.61 146.308 104.653C146.223 104.696 146.149 104.756 146.09 104.83C145.917 104.975 145.797 105.175 145.752 105.396C145.707 105.618 145.738 105.848 145.84 106.05Z" fill="#37474F"/>
<path d="M152.43 105.35C152.436 105.54 152.382 105.727 152.276 105.885C152.17 106.043 152.018 106.163 151.84 106.23C151.764 106.256 151.683 106.264 151.603 106.251C151.524 106.239 151.449 106.207 151.384 106.158C151.32 106.11 151.269 106.046 151.235 105.973C151.201 105.901 151.186 105.82 151.19 105.74C151.187 105.551 151.242 105.365 151.347 105.208C151.453 105.051 151.604 104.929 151.78 104.86C151.856 104.834 151.937 104.826 152.017 104.839C152.096 104.851 152.171 104.883 152.236 104.932C152.3 104.98 152.351 105.044 152.385 105.117C152.419 105.189 152.434 105.27 152.43 105.35Z" fill="#37474F"/>
<path d="M149.51 105.75L149.6 109.72L151.57 108.54L149.51 105.75Z" fill="#F28F8F"/>
<path d="M146.77 115.51C145.19 115.71 141.93 115.58 141.42 114.34C141.605 114.949 142.012 115.467 142.56 115.79C143.56 116.43 146.77 116.57 146.77 116.57V115.51Z" fill="#F28F8F"/>
<path d="M136.22 142.81L135.55 140.43L137.31 142.52L136.22 142.81Z" fill="#522E9F"/>
<path d="M134.91 143.16C134.192 139.739 133.219 136.376 132 133.1C130.32 128.49 132.2 124.51 133.33 123.63C134.46 122.75 140.21 120.68 140.21 120.68C142.29 126.6 142.86 134.53 142.91 141.02L134.91 143.16Z" fill="#522E9F"/>
<path opacity="0.4" d="M134.91 143.16C134.192 139.739 133.219 136.376 132 133.1C130.32 128.49 132.2 124.51 133.33 123.63C134.46 122.75 140.21 120.68 140.21 120.68C142.29 126.6 142.86 134.53 142.91 141.02L134.91 143.16Z" fill="black"/>
<path d="M132.07 143.92L126.36 145.45C126.2 145.343 126.05 145.222 125.91 145.09C125.91 145.09 128.61 134.67 129.47 131.21C130.33 127.75 130.99 125.37 133.31 123.63C137.48 126.34 135.55 133.87 135.55 133.87L132.07 143.92Z" fill="#522E9F"/>
<path opacity="0.4" d="M132.07 143.92L126.36 145.45C126.2 145.343 126.05 145.222 125.91 145.09C125.91 145.09 128.61 134.67 129.47 131.21C130.33 127.75 130.99 125.37 133.31 123.63C137.48 126.34 135.55 133.87 135.55 133.87L132.07 143.92Z" fill="black"/>
<path d="M266.05 173.65C262.27 172.47 258.39 175.53 255.85 181.71C253.31 187.89 247.98 203.61 247.19 207.8C246.4 211.99 264.28 221.11 263.78 220.87C263.28 220.63 266.05 173.65 266.05 173.65Z" fill="#263238"/>
<path d="M257.74 319.11C257.2 319.31 257.07 320.33 256.99 322.35C256.93 323.88 256.6 326.55 258.39 327.08C260.18 327.61 262.81 327.34 263.96 325.9C265.39 324.1 266.36 322.52 268.4 320.32C270.18 318.42 272.09 316.64 272.81 313.97C273.46 311.55 272.92 310.51 271.27 309.81C269.01 308.81 265.45 311.99 263.68 312.49C262.15 312.92 258.27 318.91 257.74 319.11Z" fill="#263238"/>
<path d="M257.74 317.24V319.72C258.671 320.316 259.747 320.646 260.851 320.676C261.956 320.706 263.048 320.434 264.01 319.89C264.12 319.65 264.66 316.34 264.66 316.34L257.74 317.24Z" fill="#FFA8A7"/>
<path d="M277.83 333.41C277.83 333.41 277.12 335.57 276.74 337.41C276.43 338.91 276 341.41 276.52 342.55C277.04 343.69 279.1 344.41 282.27 344.38C284.33 344.38 287.54 345.77 289.73 346.99C291.92 348.21 296.73 348.76 299.12 348.48C301.94 348.15 304.87 346.48 305.33 345.34C305.79 344.2 305.18 342.95 298.52 340.11C298.46 340.11 289.26 337.11 286.03 333.54L277.83 333.41Z" fill="#263238"/>
<path d="M277.83 330.73C277.83 330.73 277.83 332.57 277.83 333.62C277.83 334.67 279.07 336.24 282.29 336.13C284.55 336.05 286.12 335.44 286.03 333.58V330.89L277.83 330.73Z" fill="#FFA8A7"/>
<path d="M256.12 284.31C256.673 279.915 257.654 275.584 259.05 271.38C259.05 271.38 258.17 260.23 257.74 249.66C257.28 238.24 257.74 223.88 257.55 221.04C257.55 221.04 294.4 213.58 295.06 226.78C295.72 239.98 293.6 273.58 293.17 279.38C292.74 285.18 291.73 290.31 290.53 299.71C289.33 309.11 286.03 330.89 286.03 330.89C284.755 331.54 283.34 331.865 281.91 331.837C280.48 331.809 279.078 331.429 277.83 330.73C277.83 330.73 275.24 304.33 275.51 297.64C275.721 292.671 276.574 287.75 278.05 283L276.74 262.65C276.12 253.18 275.47 248.65 275.32 244.52L274.53 244.12C274.53 244.12 273.72 260.46 273.29 266.26C272.86 272.06 271.93 277.62 270.29 288.39C268.83 297.73 264.5 317.5 264.5 317.5C260.29 319.78 257.78 317.21 257.78 317.21C257.78 317.21 255 292.41 256.12 284.31Z" fill="#574A73"/>
<path d="M275.32 244.55C275.32 244.55 266.38 240.14 261.91 236.17C261.91 236.17 266.06 242.02 271.52 244.62C271.52 244.62 273.46 264.91 273.45 264.51L274.57 244.51L275.32 244.55Z" fill="#37474F"/>
<path d="M283.28 169.47L281.1 181.47L270.26 180.68L272.53 167.07L283.28 169.47Z" fill="#FFA8A7"/>
<path d="M258.81 179.8C259.88 176.54 264.02 172.99 268.16 173.8C274.317 174.842 280.385 176.356 286.31 178.33C290.1 179.68 293.55 182.96 293.87 195.44L295.79 232.6L291.2 233.6L289.6 225.18L288.86 233.6C284.06 234.8 275.73 233.81 270.26 232.6C258.86 230.11 257.49 225.38 257.49 225.38C257.49 225.38 257.34 204.47 257.68 195.44C258 187.72 258.07 182 258.81 179.8Z" fill="#37474F"/>
<path d="M291.3 155.25C291.3 155.25 293.93 159.14 293.59 159.55C292.982 159.96 292.304 160.255 291.59 160.42L291.3 155.25Z" fill="#FFA8A7"/>
<path d="M283.28 142.93C285.81 144.21 290.18 146.57 291.38 155.82C292.62 165.32 290.99 168.38 289.71 169.64C288.84 170.49 284.12 170.54 281.76 169.83C278.76 168.94 272.14 166.41 269.1 161.53C265.52 155.79 264.72 148.1 268.76 145.04C274.43 140.74 281.14 141.85 283.28 142.93Z" fill="#FFA8A7"/>
<path d="M291.91 146.11C291.08 148.39 289.68 153.97 283.86 156.3C283.86 156.3 283.03 152.74 280.04 153.12C277.05 153.5 276.54 157.31 278.38 159.68C280.22 162.05 282 161.19 282 161.19C282 161.19 282.4 166.29 279 168.6C279 168.6 274.89 171.2 270.54 169.2C268.54 168.3 265.81 163.61 264.19 159.76C260.75 151.62 260.26 145.09 265.45 143.03C266.09 139.33 267.76 137.94 271.11 137.25C278.32 135.76 283.77 140.5 289.83 139.67C293 139.23 292.86 143.51 291.91 146.11Z" fill="#37474F"/>
<path d="M265.33 144.27L261.93 142.17C262.062 141.934 262.24 141.728 262.454 141.563C262.667 141.398 262.912 141.278 263.173 141.21C263.435 141.143 263.707 141.128 263.974 141.169C264.241 141.209 264.497 141.303 264.727 141.445C264.956 141.587 265.155 141.773 265.31 141.994C265.466 142.215 265.575 142.465 265.631 142.729C265.688 142.993 265.69 143.265 265.638 143.53C265.587 143.795 265.482 144.047 265.33 144.27Z" fill="#37474F"/>
<path d="M282.48 173.84L283.72 177.43C283.72 177.43 282.81 179.03 278.94 179.11C275.07 179.19 270.94 177.96 269.66 176.31C269.369 175.987 269.153 175.603 269.028 175.186C268.904 174.769 268.874 174.33 268.94 173.9C268.94 173.9 270.48 170.5 271.94 170.65L271.7 172.13C271.7 172.13 272.03 173.34 275.54 174.27C281 175.72 282.48 173.84 282.48 173.84Z" fill="#574A73"/>
<path d="M313.58 197.7C315.14 195.91 315.74 191.94 317.82 189.22C319.9 186.5 320.67 184.51 321.49 185.7C322.58 187.27 320.12 190.42 320.67 190.7C321.22 190.98 323.25 195.16 323.46 197.46C323.67 199.76 317.57 205.56 317.57 205.56L313.58 197.7Z" fill="#FFA8A7"/>
<path d="M282.48 173.84C282.732 173.835 282.98 173.898 283.198 174.023C283.417 174.149 283.597 174.33 283.72 174.55C284.332 175.654 284.879 176.793 285.36 177.96L283.72 177.43L282.48 173.84Z" fill="#574A73"/>
<path d="M320.5 190.38C320.5 190.38 327.87 189.74 328.94 190.38C330.01 191.02 329.69 194.21 328.94 196.17C328.19 198.13 324.43 199.4 320.94 201.76C320.94 201.4 320.5 190.38 320.5 190.38Z" fill="#FFA8A7"/>
<path d="M285.36 178C288.53 179.11 291.3 180.38 294.26 185.94C298.06 193.08 305.26 204.5 305.26 204.5L313.55 197.19C313.55 197.19 314.8 195.98 317.13 199.83C317.813 200.866 318.245 202.047 318.392 203.28C318.54 204.512 318.399 205.762 317.98 206.93C317.98 206.93 308.41 218.16 306.58 219.87C304.75 221.58 301.72 220.25 299.75 217.56C297.78 214.87 285.33 199.32 285.33 199.32C285.33 199.32 278.57 190.34 285.36 178Z" fill="#37474F"/>
<path d="M370.87 159.33H347.26C346.369 159.33 345.514 158.976 344.884 158.346C344.254 157.716 343.9 156.861 343.9 155.97V118.46C343.9 115.508 345.073 112.677 347.16 110.59C349.247 108.503 352.078 107.33 355.03 107.33H363.13C366.077 107.338 368.9 108.514 370.981 110.601C373.062 112.687 374.23 115.513 374.23 118.46V155.97C374.23 156.861 373.876 157.716 373.246 158.346C372.616 158.976 371.761 159.33 370.87 159.33Z" fill="#37474F"/>
<path d="M343.28 146.53C340.99 153.28 337.15 172.7 337.15 172.7C337.15 172.7 329.15 182.48 326.54 184.85C325.11 186.17 321.89 188.54 321.89 188.54L327.74 192.84C333.022 188.777 337.983 184.314 342.58 179.49C343.602 178.402 344.32 177.064 344.66 175.61L348.66 158.45C348.66 158.45 348.66 144.65 350.77 142.84C352.88 141.03 353.49 140.65 353.49 140.65C350.78 140.45 345.08 141.22 343.28 146.53Z" fill="#F28F8F"/>
<path d="M354.74 140.45C351.01 140.02 346.23 140.1 343.9 144.27C341.57 148.44 337.69 170 337.69 170C337.69 170 341.36 172.85 345.32 172.8L354.74 140.45Z" fill="#522E9F"/>
<path d="M344.37 160.54C345.042 163.754 345.3 167.041 345.14 170.32C344.85 174.64 341.87 182.18 341.87 182.18C341.87 182.18 344.2 184.74 350.77 183.71C356.12 182.88 354.23 166.71 351.16 163.61C349.37 161.76 346.941 160.662 344.37 160.54Z" fill="#522E9F"/>
<path opacity="0.3" d="M344.37 160.54C345.042 163.754 345.3 167.041 345.14 170.32C344.85 174.64 341.87 182.18 341.87 182.18C341.87 182.18 344.2 184.74 350.77 183.71C356.12 182.88 354.23 166.71 351.16 163.61C349.37 161.76 346.941 160.662 344.37 160.54Z" fill="black"/>
<path d="M356.73 274.74C356.772 275.478 356.587 276.211 356.2 276.84C355.211 278.474 354.047 279.997 352.73 281.38C350.88 283.38 348.11 285.73 346.12 287.46C345.02 288.46 344.98 289.88 346.56 290.39C349.505 291.107 352.613 290.674 355.25 289.18C357.25 288.12 360.03 283.18 361.67 282.48C363.56 281.63 364.61 281.21 365.25 280.34C365.734 279.845 366.036 279.201 366.107 278.513C366.178 277.825 366.013 277.133 365.64 276.55C364.75 274.89 363.41 272.34 362.86 272.63L363.03 273.15C362.6 274.5 358.92 276.07 357.03 275.7L356.73 274.74Z" fill="#37474F"/>
<path d="M376 218.32C376.85 209.32 379.29 194.84 376.79 184.12L343.59 185.88C342.67 196.45 341.59 229.45 342.75 233.23C344.09 237.69 356.06 268.56 356.75 274.77C356.798 275.499 356.612 276.224 356.22 276.84C355.232 278.478 354.069 280.004 352.75 281.39C351.85 282.39 350.75 283.39 349.59 284.39C349.493 284.533 349.434 284.698 349.42 284.87C349.42 285.87 351.94 286.18 353.42 285.75C355.266 285.099 356.856 283.876 357.96 282.26C358.81 281.13 360.72 278.96 361.96 277.33C362.374 276.827 362.726 276.276 363.01 275.69C363.341 274.958 363.398 274.131 363.17 273.36L363.09 273.11C362.441 271.086 362.038 268.991 361.89 266.87C361.43 260.06 360.26 244.33 359.18 240.14C358.43 237.087 357.291 234.143 355.79 231.38L359.58 201.89C359.58 201.89 359.98 227.89 361.16 234.52C362.09 239.83 362.45 246.47 363.54 255.58C364.54 264.3 365.7 279.66 365.7 279.66C365.73 279.665 365.76 279.665 365.79 279.66V287H372V282.74C372 280.817 372.161 278.897 372.48 277C373.48 271.2 375.56 257.93 375.99 253.44C376.67 246.32 374.1 237.37 374.1 237.37C374.1 237.37 375.17 227.1 376 218.32Z" fill="#FFA8A7"/>
<path d="M364.3 140.76C364.3 140.76 373.23 141.76 374.3 142.27C365.92 148.16 372.71 161.27 372.71 161.27L369.5 171.34C373.07 175.91 376.15 178.63 378.06 183.64C380.18 189.24 382.06 197.57 381.56 214.64C373.56 220.64 349.22 219.99 339.74 214.64C339.74 214.64 341.34 199.57 343.23 187.86C344.48 180.13 347.43 171.71 346.93 168.86C343.17 157.3 342.93 155.22 343.61 152.64C345.48 145.38 352.88 140.47 354.7 140.47L364.3 140.76Z" fill="#522E9F"/>
<path opacity="0.6" d="M364.3 140.76C364.3 140.76 373.23 141.76 374.3 142.27C365.92 148.16 372.71 161.27 372.71 161.27L369.5 171.34C373.07 175.91 376.15 178.63 378.06 183.64C380.18 189.24 382.06 197.57 381.56 214.64C373.56 220.64 349.22 219.99 339.74 214.64C339.74 214.64 341.34 199.57 343.23 187.86C344.48 180.13 347.43 171.71 346.93 168.86C343.17 157.3 342.93 155.22 343.61 152.64C345.48 145.38 352.88 140.47 354.7 140.47L364.3 140.76Z" fill="white"/>
<path d="M365.73 283.89V283C364.95 285.99 363.39 288.72 361.21 290.91C359.21 292.72 356.51 294.82 355.81 296.85C355.11 298.88 359.02 299.79 361.6 299.53C364.1 299.224 366.403 298.019 368.08 296.14C369.72 294.26 369.69 292.98 370.45 291.94C371.21 290.9 372.98 289.76 373.39 288.56C373.518 287.44 373.395 286.306 373.03 285.24C372.74 284.13 372.42 282.9 372.03 283V283.69C371.13 284.398 370.015 284.776 368.87 284.76C368 284.78 365.72 284.59 365.73 283.89Z" fill="#37474F"/>
<path d="M372 283.67C371.1 284.378 369.985 284.756 368.84 284.74C367.92 284.74 365.68 284.59 365.69 283.89V283C364.91 285.99 363.35 288.72 361.17 290.91L359.66 292.26C358.6 293.44 358.9 294.47 361.39 294.68C363.88 294.89 366.07 293.39 367.95 291.08C369.553 288.757 370.91 286.274 372 283.67Z" fill="#FFA8A7"/>
<path d="M348.88 113.46C347.28 114.41 345.3 118.46 345.49 126.88C345.66 134.04 347.98 135.81 349.15 136.32C350.32 136.83 352.56 136.52 354.74 136.16V140.45C354.74 140.45 351.74 143.96 351.91 145.93C352.08 147.9 356.27 148.36 359.1 146.44C361.143 144.856 362.902 142.935 364.3 140.76L364.25 130.89C364.25 130.89 365.54 132.13 367.72 130.23C369.52 128.66 370.12 126 368.72 124.58C368.356 124.238 367.917 123.988 367.437 123.851C366.957 123.714 366.452 123.693 365.962 123.791C365.473 123.889 365.014 124.103 364.624 124.414C364.234 124.725 363.924 125.125 363.72 125.58C363.72 125.58 362.51 122.21 357.48 120.58C352.94 119.07 350.47 117.36 348.88 113.46Z" fill="#FFA8A7"/>
<path d="M353.49 125.09C353.49 125.266 353.542 125.439 353.639 125.586C353.737 125.733 353.875 125.848 354.037 125.917C354.199 125.986 354.378 126.006 354.551 125.975C354.725 125.943 354.885 125.861 355.012 125.739C355.14 125.617 355.228 125.461 355.268 125.289C355.307 125.117 355.294 124.937 355.232 124.772C355.17 124.607 355.061 124.464 354.919 124.361C354.776 124.257 354.606 124.198 354.43 124.19C354.309 124.187 354.189 124.209 354.076 124.252C353.964 124.296 353.861 124.362 353.774 124.445C353.686 124.529 353.616 124.629 353.568 124.739C353.519 124.85 353.493 124.969 353.49 125.09Z" fill="#37474F"/>
<path d="M353.25 131.15L351.16 131.82C351.197 131.96 351.261 132.09 351.35 132.204C351.438 132.318 351.549 132.413 351.675 132.483C351.801 132.553 351.94 132.597 352.084 132.612C352.227 132.627 352.372 132.613 352.51 132.57C352.792 132.474 353.027 132.273 353.164 132.008C353.302 131.744 353.333 131.436 353.25 131.15Z" fill="#F28F8F"/>
<path d="M346.11 122.32L347.93 121.06C347.853 120.937 347.752 120.831 347.633 120.748C347.514 120.665 347.379 120.608 347.237 120.579C347.094 120.55 346.948 120.55 346.806 120.579C346.664 120.609 346.529 120.667 346.41 120.75C346.166 120.922 345.999 121.181 345.943 121.474C345.887 121.767 345.947 122.071 346.11 122.32Z" fill="#37474F"/>
<path d="M356.11 123L354.28 121.74C354.357 121.617 354.458 121.511 354.577 121.428C354.696 121.346 354.83 121.287 354.972 121.258C355.114 121.228 355.26 121.227 355.403 121.255C355.545 121.282 355.68 121.339 355.8 121.42C356.042 121.595 356.209 121.856 356.266 122.149C356.324 122.442 356.268 122.746 356.11 123Z" fill="#37474F"/>
<path d="M346.53 124.43C346.528 124.607 346.578 124.78 346.674 124.928C346.771 125.077 346.908 125.193 347.07 125.264C347.232 125.335 347.411 125.356 347.585 125.326C347.759 125.295 347.92 125.214 348.049 125.093C348.177 124.971 348.267 124.815 348.307 124.643C348.347 124.47 348.335 124.29 348.273 124.125C348.212 123.959 348.102 123.816 347.96 123.712C347.817 123.608 347.646 123.548 347.47 123.54C347.228 123.535 346.993 123.625 346.817 123.792C346.641 123.958 346.538 124.188 346.53 124.43Z" fill="#37474F"/>
<path d="M350.77 123.92L350.63 129.34L347.78 128.46L350.77 123.92Z" fill="#F28F8F"/>
<path d="M354.74 136.16C357.04 135.85 361.74 134.49 362.52 132.62C362.223 133.567 361.644 134.401 360.86 135.01C359.44 136.22 354.74 137.59 354.74 137.59V136.16Z" fill="#F28F8F"/>
<path d="M371.05 165.85L364.74 174.39L369.5 171.34L371.05 165.85Z" fill="#522E9F"/>
<path d="M321.34 188.54C319.99 190.28 319.16 193.66 318.45 194.8C317.74 195.94 316.89 196.93 318.45 197.14C320.01 197.35 322.29 194.3 323.14 192.45C323.57 191.407 324.382 190.566 325.41 190.1C324.68 189.85 325.06 186.92 324.55 186.51C324.55 186.51 321.89 187.6 321.34 188.54Z" fill="#F28F8F"/>
<path d="M320.94 201.74C322.35 200.69 322.4 199.4 322.67 197.35C322.94 195.3 328.59 193.08 328.77 194.61C328.95 196.14 329.46 197.42 327.77 199.28C326.08 201.14 323.52 203.12 320.94 201.74Z" fill="#F28F8F"/>
<path d="M364.3 140.76C364.3 140.76 372.66 141.49 374.3 142.27C375.94 143.05 378.67 147.77 376.23 154.62C373.79 161.47 371.57 169.53 371.82 171.15C372.07 172.77 377.9 181.15 377.9 181.15C376.292 182.337 374.473 183.209 372.54 183.72L369.54 177.2L370.24 184.13C367.227 184.863 364.13 185.199 361.03 185.13C361.03 185.13 358.2 158.51 364.3 140.76Z" fill="#522E9F"/>
<path d="M384.9 173.41C385.57 169.47 384.9 168.18 383.52 164.32L376.52 168.85C377.094 170.307 377.432 171.846 377.52 173.41C377.46 174.55 375.91 185.85 374.46 189.79C374.199 190.491 373.685 191.068 373.02 191.41C371.578 192.291 370.271 193.375 369.14 194.63C368.07 195.63 367.21 195.81 367.32 196.15C367.485 196.519 367.781 196.813 368.15 196.978C368.519 197.142 368.936 197.164 369.32 197.04C370.191 196.757 371.027 196.375 371.81 195.9C371.116 197.371 370.191 198.721 369.07 199.9C366.5 202.64 366.27 204.42 371.07 204.79C374.07 205.02 376.58 203.34 379.29 196.89C380.13 194.525 380.821 192.111 381.36 189.66C382.82 184.07 384.24 177.38 384.9 173.41Z" fill="#FFA8A7"/>
<path d="M374.3 142.27C377.67 143.78 378.63 146.76 379.88 151.14C381.13 155.52 385.05 168.66 385.05 168.66C385.05 168.66 381.69 172.66 377.05 171.54L371.05 156.97C371.05 156.97 368.25 147.46 374.3 142.27Z" fill="#522E9F"/>
</svg>
