<svg width="646" height="500" viewBox="0 0 646 500" fill="none" xmlns="http://www.w3.org/2000/svg">
<path d="M646 382.4H146V382.65H646V382.4Z" fill="#E0E0E0"/>
<path d="M523.66 392.99H489.26V393.24H523.66V392.99Z" fill="#E0E0E0"/>
<path d="M257.04 393.11H237.68V393.36H257.04V393.11Z" fill="#E0E0E0"/>
<path d="M397 392.53H357.76V392.78H397V392.53Z" fill="#E0E0E0"/>
<path d="M356.76 388.97H339.22V389.22H356.76V388.97Z" fill="#E0E0E0"/>
<path d="M570.56 389.1H517.57V389.35H570.56V389.1Z" fill="#E0E0E0"/>
<path d="M585.31 257.23C573.01 238.5 584.24 218.37 582.37 197.53C580.5 176.69 560.7 172.15 564.45 154.53C568.79 134.05 557.22 114.4 544.11 114.4C531 114.4 519.44 134 523.78 154.5C527.53 172.15 507.78 176.7 505.86 197.5C503.94 218.3 515.22 238.5 502.91 257.2C490.6 275.9 493.84 300.73 500.77 313.04C502.613 316.306 504.835 319.344 507.39 322.09C512.087 327.132 517.771 331.153 524.089 333.902C530.408 336.651 537.224 338.07 544.115 338.07C551.006 338.07 557.822 336.651 564.141 333.902C570.459 331.153 576.143 327.132 580.84 322.09C583.388 319.341 585.607 316.304 587.45 313.04C594.39 300.76 597.62 276 585.31 257.23Z" fill="url(#paint0_linear)"/>
<path d="M544.11 271.44C544.927 271.44 545.736 271.601 546.49 271.913C547.245 272.226 547.931 272.684 548.508 273.262C549.086 273.839 549.544 274.525 549.857 275.28C550.169 276.034 550.33 276.843 550.33 277.66V382.4H537.89V277.66C537.89 276.843 538.051 276.034 538.364 275.28C538.676 274.525 539.134 273.839 539.712 273.262C540.289 272.684 540.975 272.226 541.73 271.913C542.484 271.601 543.293 271.44 544.11 271.44Z" fill="#F0F0F0"/>
<path d="M465.91 382.4H449V277.67C449.005 275.425 449.899 273.274 451.487 271.687C453.074 270.099 455.225 269.205 457.47 269.2C459.715 269.205 461.866 270.099 463.453 271.687C465.041 273.274 465.935 275.425 465.94 277.67L465.91 382.4Z" fill="#E0E0E0"/>
<path d="M457.44 354.15C486.253 354.15 509.61 330.793 509.61 301.98C509.61 273.167 486.253 249.81 457.44 249.81C428.627 249.81 405.27 273.167 405.27 301.98C405.27 330.793 428.627 354.15 457.44 354.15Z" fill="url(#paint1_linear)"/>
<path d="M350 319.89C341.888 321.098 334.135 324.057 327.28 328.56C327.22 320.64 325.77 313.13 322.05 307.06C316.39 312.57 311.8 319.71 308.05 327.39C306.68 313 302.89 299 294.5 290.13C281.93 298.04 275.45 311.22 272.37 325.18C267.282 315.767 259.896 307.793 250.9 302C243.21 310.1 240.75 321.3 240.96 332.78C232.22 322.6 222.52 314.66 213.06 313.73C210.73 329.82 215.69 345 222 357C226.097 364.699 232.217 371.134 239.701 375.612C247.185 380.09 255.749 382.44 264.47 382.41H305.56C323.07 382.41 339.49 373.07 347.7 357.6C352.89 347.8 355.37 335.19 350 319.89Z" fill="url(#paint2_linear)"/>
<path d="M338.26 112.14C343.33 97.2702 339.26 86.6802 326.89 86.6802C319.11 86.6802 309.46 90.8502 300.06 97.6302C299 93.7602 296.01 91.4502 291.2 91.4502C282.73 91.4502 271.06 98.6102 261.91 108.71C259.334 106.262 255.924 104.886 252.37 104.86C244.26 104.4 234.45 108.52 225.92 115.21C225.493 114.612 224.929 114.124 224.274 113.789C223.62 113.453 222.895 113.279 222.16 113.28C217.49 113.02 211.16 117.18 208.03 122.56C207.84 122.89 207.67 123.22 207.49 123.56H340.72C341.12 118.86 340.29 114.94 338.26 112.14Z" fill="#F0F0F0"/>
<path d="M338.67 202.43C341.15 195.17 339.18 190 333.12 190C329.31 190 324.6 192 320.01 195.35C319.763 194.417 319.191 193.602 318.398 193.052C317.604 192.503 316.641 192.254 315.68 192.35C311.55 192.35 305.85 195.85 301.37 200.79C300.114 199.59 298.447 198.918 296.71 198.91C292.71 198.68 287.96 200.69 283.79 203.96C283.588 203.671 283.321 203.433 283.01 203.267C282.699 203.1 282.353 203.008 282 203C279.72 202.87 276.63 204.9 275.1 207.53L274.83 208.01H339.91C340.182 206.061 339.742 204.08 338.67 202.43Z" fill="#F0F0F0"/>
<path d="M488.77 147.49C488.257 147.418 487.739 147.381 487.22 147.38C487.7 140.13 484.93 135.49 479 135.49C474.73 135.49 469.48 137.91 464.14 142C465.67 127.92 460.77 118.77 449.67 118.77C440.73 118.77 429.4 124.77 418.21 134.43C417.21 128.91 413.93 125.59 408.39 125.59C398.66 125.59 384.83 135.83 373.74 150.27C372.476 148.605 370.856 147.244 368.997 146.287C367.139 145.33 365.09 144.802 363 144.74C353.74 144.09 342.23 149.97 332 159.55C331.628 158.742 331.036 158.056 330.291 157.569C329.546 157.083 328.679 156.816 327.79 156.8C322.72 156.44 315.79 161.73 311.68 168.8H496.92C501.27 158.08 497.81 148.7 488.77 147.49Z" fill="#F0F0F0"/>
<path d="M323.5 433.56C493.88 433.56 632 428.492 632 422.24C632 415.988 493.88 410.92 323.5 410.92C153.12 410.92 15 415.988 15 422.24C15 428.492 153.12 433.56 323.5 433.56Z" fill="#9B90EF"/>
<path d="M429.562 157.626L201.593 190.446L171.003 221.316L429.562 157.626Z" fill="#5348A7"/>
<path opacity="0.6" d="M429.562 157.626L201.593 190.446L171.003 221.316L429.562 157.626Z" fill="white"/>
<path d="M429.562 157.626L201.593 190.446L212.173 235.086L429.562 157.626Z" fill="#5348A7"/>
<path opacity="0.2" d="M429.562 157.626L201.593 190.446L212.173 235.086L429.562 157.626Z" fill="black"/>
<path d="M174.852 105.946L161.622 167.946C161.278 169.565 161.59 171.255 162.49 172.644C163.39 174.033 164.804 175.009 166.422 175.356L284.502 200.556C286.121 200.898 287.809 200.585 289.198 199.685C290.586 198.786 291.562 197.373 291.912 195.756L305.152 133.756C305.493 132.136 305.179 130.447 304.277 129.058C303.376 127.67 301.961 126.694 300.342 126.346L182.262 101.146C180.642 100.805 178.953 101.12 177.564 102.021C176.175 102.923 175.2 104.338 174.852 105.956V105.946Z" fill="#5348A7"/>
<path opacity="0.4" d="M174.852 105.946L161.622 167.946C161.278 169.565 161.59 171.255 162.49 172.644C163.39 174.033 164.804 175.009 166.422 175.356L284.502 200.556C286.121 200.898 287.809 200.585 289.198 199.685C290.586 198.786 291.562 197.373 291.912 195.756L305.152 133.756C305.493 132.136 305.179 130.447 304.277 129.058C303.376 127.67 301.961 126.694 300.342 126.346L182.262 101.146C180.642 100.805 178.953 101.12 177.564 102.021C176.175 102.923 175.2 104.338 174.852 105.956V105.946Z" fill="black"/>
<path d="M179.762 101.887L219.212 150.317C222.871 154.807 227.953 157.913 233.617 159.123C239.282 160.332 245.189 159.571 250.362 156.966L306.152 128.867C305.25 127.57 303.888 126.665 302.342 126.337L184.262 101.137C182.721 100.809 181.114 101.077 179.762 101.887Z" fill="#5348A7"/>
<path d="M429.562 157.626L241.533 202.316L212.173 235.086L429.562 157.626Z" fill="#5348A7"/>
<path opacity="0.6" d="M429.562 157.626L241.533 202.316L212.173 235.086L429.562 157.626Z" fill="white"/>
<path d="M360.974 200.702L361.479 201.565L340.554 213.821L340.049 212.958L360.974 200.702Z" fill="#5348A7"/>
<path d="M330.811 218.362L331.316 219.225L323.792 223.632L323.287 222.769L330.811 218.362Z" fill="#5348A7"/>
<path d="M429.562 157.626L241.533 202.316L278.083 246.366L429.562 157.626Z" fill="#5348A7"/>
<path d="M178.063 262.327C178.316 262.327 178.567 262.28 178.803 262.187L209.423 250.067C209.912 249.869 210.304 249.486 210.513 249.001C210.721 248.516 210.729 247.968 210.535 247.476C210.341 246.985 209.961 246.591 209.477 246.379C208.993 246.167 208.445 246.156 207.953 246.347L177.323 258.467C176.889 258.638 176.529 258.955 176.305 259.363C176.081 259.772 176.006 260.246 176.093 260.703C176.181 261.161 176.426 261.573 176.785 261.87C177.145 262.166 177.597 262.328 178.063 262.327Z" fill="#5348A7"/>
<path opacity="0.3" d="M178.063 262.327C178.316 262.327 178.567 262.28 178.803 262.187L209.423 250.067C209.912 249.869 210.304 249.486 210.513 249.001C210.721 248.516 210.729 247.968 210.535 247.476C210.341 246.985 209.961 246.591 209.477 246.379C208.993 246.167 208.445 246.156 207.953 246.347L177.323 258.467C176.889 258.638 176.529 258.955 176.305 259.363C176.081 259.772 176.006 260.246 176.093 260.703C176.181 261.161 176.426 261.573 176.785 261.87C177.145 262.166 177.597 262.328 178.063 262.327Z" fill="black"/>
<path d="M179.872 244.767C180.123 244.765 180.371 244.714 180.602 244.617L197.052 238.067C197.298 237.971 197.523 237.828 197.713 237.646C197.904 237.463 198.056 237.245 198.162 237.003C198.268 236.762 198.325 236.501 198.329 236.238C198.334 235.974 198.287 235.712 198.19 235.467C198.093 235.221 197.948 234.998 197.764 234.808C197.581 234.619 197.361 234.468 197.119 234.364C196.877 234.26 196.616 234.205 196.352 234.202C196.089 234.199 195.827 234.248 195.582 234.347L179.132 240.867C178.639 241.061 178.243 241.442 178.032 241.928C177.82 242.413 177.809 242.963 178.002 243.457C178.143 243.84 178.398 244.17 178.732 244.405C179.066 244.639 179.464 244.765 179.872 244.767Z" fill="#5348A7"/>
<path opacity="0.5" d="M179.872 244.767C180.123 244.765 180.371 244.714 180.602 244.617L197.052 238.067C197.298 237.971 197.523 237.828 197.713 237.646C197.904 237.463 198.056 237.245 198.162 237.003C198.268 236.762 198.325 236.501 198.329 236.238C198.334 235.974 198.287 235.712 198.19 235.467C198.093 235.221 197.948 234.998 197.764 234.808C197.581 234.619 197.361 234.468 197.119 234.364C196.877 234.26 196.616 234.205 196.352 234.202C196.089 234.199 195.827 234.248 195.582 234.347L179.132 240.867C178.639 241.061 178.243 241.442 178.032 241.928C177.82 242.413 177.809 242.963 178.002 243.457C178.143 243.84 178.398 244.17 178.732 244.405C179.066 244.639 179.464 244.765 179.872 244.767Z" fill="white"/>
<path d="M214.262 262.067C214.512 262.064 214.759 262.016 214.992 261.927L244.862 250.067C245.108 249.971 245.333 249.828 245.523 249.646C245.714 249.463 245.866 249.245 245.972 249.003C246.078 248.762 246.135 248.501 246.139 248.238C246.144 247.974 246.097 247.712 246 247.467C245.903 247.221 245.758 246.998 245.575 246.808C245.391 246.619 245.171 246.468 244.929 246.364C244.687 246.26 244.426 246.205 244.162 246.202C243.899 246.199 243.637 246.248 243.392 246.347L213.522 258.167C213.089 258.338 212.729 258.655 212.505 259.063C212.28 259.472 212.205 259.945 212.293 260.403C212.381 260.861 212.626 261.273 212.985 261.57C213.345 261.866 213.796 262.028 214.262 262.027V262.067Z" fill="#5348A7"/>
<path opacity="0.3" d="M214.262 262.067C214.512 262.064 214.759 262.016 214.992 261.927L244.862 250.067C245.108 249.971 245.333 249.828 245.523 249.646C245.714 249.463 245.866 249.245 245.972 249.003C246.078 248.762 246.135 248.501 246.139 248.238C246.144 247.974 246.097 247.712 246 247.467C245.903 247.221 245.758 246.998 245.575 246.808C245.391 246.619 245.171 246.468 244.929 246.364C244.687 246.26 244.426 246.205 244.162 246.202C243.899 246.199 243.637 246.248 243.392 246.347L213.522 258.167C213.089 258.338 212.729 258.655 212.505 259.063C212.28 259.472 212.205 259.945 212.293 260.403C212.381 260.861 212.626 261.273 212.985 261.57C213.345 261.866 213.796 262.028 214.262 262.027V262.067Z" fill="black"/>
<path d="M64.1225 171.887C61.4725 177.057 59.0425 182.237 56.7325 187.537C54.4225 192.837 52.2725 198.207 50.3925 203.837L49.7125 205.967C49.5925 206.347 49.4225 206.967 49.3225 207.407C49.2225 207.847 49.1325 208.347 49.0825 208.767C48.8536 210.38 48.7367 212.007 48.7325 213.637C48.7175 216.642 48.8577 219.646 49.1525 222.637C49.711 228.426 50.6193 234.177 51.8725 239.857L57.3625 239.247C57.4325 233.617 57.4825 227.927 57.6825 222.377C57.7725 219.617 57.9325 216.847 58.2125 214.247C58.3393 213.026 58.5397 211.813 58.8125 210.617C58.8625 210.337 58.9425 210.127 59.0025 209.897C59.0625 209.667 59.1225 209.587 59.2225 209.287L59.9825 207.397C62.0725 202.337 64.4225 197.237 66.8225 192.157L74.0825 176.917L64.1225 171.887Z" fill="#E4897B"/>
<path d="M57.2824 237.487L59.8424 242.277L51.6624 244.557C51.6624 244.557 50.1024 240.707 51.9624 237.667L57.2824 237.487Z" fill="#E4897B"/>
<path d="M62.9726 249.177L55.4526 249.777L51.6626 244.557L59.8426 242.277L62.9726 249.177Z" fill="#E4897B"/>
<path d="M98.5522 137.327C98.6622 137.917 99.0722 138.327 99.4522 138.247C99.8322 138.167 100.042 137.637 99.9222 137.057C99.8022 136.477 99.4022 136.057 99.0222 136.137C98.6422 136.217 98.4222 136.747 98.5522 137.327Z" fill="#263238"/>
<path d="M99.0122 138.327C100.068 139.963 101.344 141.446 102.802 142.737C102.462 143.099 102.047 143.383 101.586 143.569C101.125 143.756 100.629 143.84 100.132 143.817L99.0122 138.327Z" fill="#DE5753"/>
<path d="M95.7726 134.537C95.8672 134.534 95.957 134.495 96.0226 134.427C96.3099 134.098 96.6706 133.842 97.0754 133.678C97.4802 133.515 97.9177 133.449 98.3526 133.487C98.4355 133.487 98.516 133.459 98.5797 133.406C98.6434 133.353 98.6863 133.279 98.7007 133.197C98.7151 133.116 98.7001 133.032 98.6583 132.96C98.6166 132.889 98.5507 132.834 98.4726 132.807C97.9165 132.736 97.3516 132.804 96.8282 133.005C96.3048 133.205 95.8391 133.532 95.4726 133.957C95.4085 134.022 95.3726 134.11 95.3726 134.202C95.3726 134.293 95.4085 134.381 95.4726 134.447C95.5126 134.483 95.5604 134.51 95.6123 134.526C95.6643 134.541 95.7191 134.545 95.7726 134.537Z" fill="#263238"/>
<path d="M82.0123 145.497C83.0623 150.877 84.1123 160.717 80.3523 164.307C80.3523 164.307 81.8223 169.757 91.8123 169.757C102.812 169.757 97.0523 164.307 97.0523 164.307C91.0523 162.877 91.2223 158.427 92.2623 154.257L82.0123 145.497Z" fill="#E4897B"/>
<path d="M78.8425 167.697C78.0525 165.067 77.1825 162.057 78.9825 161.107C80.9825 160.107 91.8525 159.007 95.6025 160.957C99.3525 162.907 98.2825 168.257 98.2825 168.257L78.8425 167.697Z" fill="#263238"/>
<path d="M55.7824 417.067C56.093 417.108 56.4087 417.087 56.7109 417.004C57.0132 416.922 57.2959 416.78 57.5425 416.587C57.6295 416.466 57.6764 416.321 57.6764 416.172C57.6764 416.023 57.6295 415.877 57.5425 415.757C57.4853 415.653 57.4067 415.563 57.3118 415.492C57.2169 415.421 57.1081 415.372 56.9925 415.347C55.9125 415.107 53.8925 416.487 53.8025 416.547C53.7766 416.568 53.7565 416.596 53.7443 416.628C53.7321 416.659 53.728 416.693 53.7325 416.727C53.7381 416.759 53.7537 416.789 53.7769 416.812C53.8002 416.835 53.8301 416.851 53.8625 416.857C54.4935 416.993 55.1369 417.063 55.7824 417.067ZM56.7025 415.667H56.9125C56.9802 415.681 57.044 415.709 57.0993 415.751C57.1546 415.792 57.2001 415.846 57.2325 415.907C57.3925 416.187 57.2925 416.307 57.2325 416.347C56.9225 416.767 55.4225 416.767 54.3225 416.587C55.0391 416.114 55.8521 415.806 56.7025 415.687V415.667Z" fill="#5348A7"/>
<path d="M53.9026 416.887H53.9826C54.7426 416.467 56.2126 414.887 56.0626 414.047C56.0371 413.917 55.9672 413.8 55.8651 413.716C55.7629 413.632 55.6348 413.586 55.5026 413.587C55.3708 413.572 55.2375 413.585 55.1105 413.622C54.9835 413.66 54.8652 413.723 54.7626 413.807C53.9126 414.507 53.7626 416.627 53.7626 416.717C53.7584 416.748 53.7639 416.78 53.7781 416.809C53.7924 416.837 53.8148 416.861 53.8426 416.877C53.8616 416.884 53.8821 416.888 53.9026 416.887ZM55.3826 413.887H55.4226C55.6526 413.887 55.6726 414.027 55.6826 414.067C55.7726 414.557 54.8326 415.767 54.0826 416.337C54.1331 415.501 54.4326 414.7 54.9426 414.037C55.0098 413.984 55.087 413.945 55.1694 413.923C55.2519 413.901 55.3379 413.895 55.4226 413.907L55.3826 413.887Z" fill="#5348A7"/>
<path d="M99.8926 417.067C100.832 417.067 101.742 416.937 102.052 416.517C102.131 416.405 102.173 416.273 102.173 416.137C102.173 416.001 102.131 415.868 102.052 415.757C101.992 415.654 101.911 415.565 101.815 415.494C101.718 415.424 101.609 415.373 101.492 415.347C100.282 415.017 97.7026 416.477 97.5926 416.537C97.5632 416.556 97.54 416.583 97.5258 416.615C97.5116 416.647 97.507 416.682 97.5126 416.717C97.5184 416.752 97.535 416.784 97.5601 416.809C97.5852 416.834 97.6176 416.851 97.6526 416.857C98.3912 416.996 99.141 417.066 99.8926 417.067ZM101.062 415.647C101.172 415.631 101.283 415.631 101.392 415.647C101.463 415.66 101.529 415.689 101.588 415.73C101.647 415.772 101.696 415.825 101.732 415.887C101.862 416.107 101.812 416.207 101.732 416.267C101.402 416.727 99.5426 416.757 98.1626 416.567C99.0617 416.081 100.047 415.776 101.062 415.667V415.647Z" fill="#5348A7"/>
<path d="M97.6723 416.887H97.7423C98.6323 416.497 100.382 414.887 100.252 414.077C100.252 413.877 100.082 413.637 99.6023 413.587C99.4238 413.559 99.2416 413.572 99.0686 413.624C98.8957 413.676 98.7364 413.766 98.6023 413.887C97.6623 414.647 97.4723 416.627 97.4623 416.717C97.4584 416.747 97.4629 416.778 97.4752 416.806C97.4875 416.834 97.5073 416.859 97.5323 416.877C97.5536 416.888 97.5771 416.895 97.6013 416.897C97.6254 416.898 97.6496 416.895 97.6723 416.887ZM99.4623 413.887H99.5723C99.8823 413.887 99.9023 414.047 99.9123 414.087C99.9923 414.587 98.7923 415.837 97.9123 416.377C97.9987 415.537 98.3488 414.745 98.9123 414.117C99.055 413.993 99.2341 413.919 99.4223 413.907L99.4623 413.887Z" fill="#5348A7"/>
<path d="M89.5923 416.707H96.9423L97.6723 399.697H90.3223L89.5923 416.707Z" fill="#E4897B"/>
<path d="M45.4824 416.707H52.8324L56.5224 399.697H49.1824L45.4824 416.707Z" fill="#E4897B"/>
<path d="M53.3525 415.857H45.1025C44.9552 415.858 44.8127 415.909 44.6983 416.001C44.5838 416.094 44.5042 416.223 44.4725 416.367L43.0225 422.897C42.9894 423.056 42.9925 423.22 43.0318 423.378C43.071 423.535 43.1453 423.682 43.2491 423.807C43.3529 423.932 43.4835 424.032 43.6313 424.099C43.779 424.167 43.9401 424.2 44.1025 424.197C46.9825 424.147 48.3825 423.977 52.0125 423.977C54.2425 423.977 58.8425 424.217 61.9325 424.217C65.0225 424.217 65.4125 421.217 64.1525 420.887C58.4925 419.647 56.3625 417.937 54.5525 416.317C54.2237 416.019 53.7958 415.855 53.3525 415.857Z" fill="#263238"/>
<path d="M96.8924 415.857H88.8924C88.7451 415.858 88.6026 415.909 88.4882 416.001C88.3737 416.094 88.2941 416.223 88.2624 416.367L86.8124 422.897C86.7777 423.054 86.7791 423.217 86.8164 423.374C86.8538 423.531 86.9261 423.678 87.0281 423.803C87.13 423.928 87.259 424.028 87.4052 424.096C87.5514 424.165 87.7111 424.199 87.8724 424.197C90.7624 424.147 94.9424 423.977 98.5824 423.977C102.833 423.977 106.512 424.217 111.502 424.217C114.502 424.217 115.353 421.217 114.093 420.887C108.343 419.627 103.653 419.497 98.6824 416.437C98.1532 416.077 97.5321 415.875 96.8924 415.857Z" fill="#263238"/>
<path d="M100.422 177.207C106.565 176.731 112.678 175.919 118.732 174.777C121.732 174.197 124.792 173.547 127.832 172.727C130.948 171.929 134.008 170.927 136.992 169.727C137.762 169.407 138.542 169.057 139.312 168.727C140.179 168.3 141.015 167.812 141.812 167.267C143.252 166.317 144.492 165.327 145.722 164.347C148.172 162.347 150.442 160.347 152.722 158.297C157.192 154.157 161.432 149.877 165.522 145.377L161.842 141.267L147.332 151.697C144.942 153.417 142.522 155.107 140.142 156.697C138.962 157.487 137.752 158.227 136.642 158.857C136.178 159.121 135.697 159.355 135.202 159.557C134.612 159.787 134.012 160.017 133.382 160.237C127.978 161.901 122.451 163.138 116.852 163.937C111.142 164.837 105.242 165.577 99.5425 166.177L100.422 177.207Z" fill="#E4897B"/>
<path d="M67.2023 165.967C60.3123 167.547 53.3523 187.677 53.3523 187.677L67.5223 197.847C67.5223 197.847 71.5223 188.467 75.3823 180.267C79.4223 171.677 74.2423 164.357 67.2023 165.967Z" fill="#5348A7"/>
<path opacity="0.4" d="M67.2023 165.967C60.3123 167.547 53.3523 187.677 53.3523 187.677L67.5223 197.847C67.5223 197.847 71.5223 188.467 75.3823 180.267C79.4223 171.677 74.2423 164.357 67.2023 165.967Z" fill="black"/>
<path d="M71.1724 176.967L73.9824 183.257C71.0724 189.537 68.4124 195.757 67.7024 197.417C67.8024 189.987 69.2124 180.767 71.1724 176.967Z" fill="#5348A7"/>
<path opacity="0.6" d="M71.1724 176.967L73.9824 183.257C71.0724 189.537 68.4124 195.757 67.7024 197.417C67.8024 189.987 69.2124 180.767 71.1724 176.967Z" fill="black"/>
<path d="M108.352 166.347C108.352 166.347 116.172 175.177 108.792 229.847H69.5021C69.2221 223.847 73.0121 194.387 67.2021 165.967C71.5451 165.13 75.9376 164.576 80.3521 164.307C85.9142 163.986 91.4901 163.986 97.0521 164.307C100.866 164.691 104.645 165.373 108.352 166.347Z" fill="#5348A7"/>
<path opacity="0.4" d="M108.352 166.347C108.352 166.347 116.172 175.177 108.792 229.847H69.5021C69.2221 223.847 73.0121 194.387 67.2021 165.967C71.5451 165.13 75.9376 164.576 80.3521 164.307C85.9142 163.986 91.4901 163.986 97.0521 164.307C100.866 164.691 104.645 165.373 108.352 166.347Z" fill="black"/>
<path d="M111.263 176.967C111.523 179.037 111.723 181.487 111.853 184.377C107.972 183.212 104.286 181.48 100.913 179.237L111.263 176.967Z" fill="#5348A7"/>
<path opacity="0.6" d="M111.263 176.967C111.523 179.037 111.723 181.487 111.853 184.377C107.972 183.212 104.286 181.48 100.913 179.237L111.263 176.967Z" fill="black"/>
<path d="M94.4223 178.067C99.6823 182.727 119.762 182.257 119.762 182.257L120.422 162.817C113.641 163.782 106.802 164.277 99.9523 164.297C88.7623 164.067 88.6823 172.927 94.4223 178.067Z" fill="#5348A7"/>
<path opacity="0.4" d="M94.4223 178.067C99.6823 182.727 119.762 182.257 119.762 182.257L120.422 162.817C113.641 163.782 106.802 164.277 99.9523 164.297C88.7623 164.067 88.6823 172.927 94.4223 178.067Z" fill="black"/>
<path d="M161.652 141.307L166.652 135.417L172.042 141.417C172.042 141.417 168.722 146.997 163.452 146.117L161.652 141.307Z" fill="#E4897B"/>
<path d="M173.812 128.547L175.752 136.237L172.082 141.377L166.692 135.417L173.812 128.547Z" fill="#E4897B"/>
<path d="M97.6724 399.707L97.2924 408.467H89.9424L90.3224 399.707H97.6724Z" fill="#CE6F64"/>
<path d="M49.1725 399.707H56.5225L54.6225 408.467H47.2725L49.1725 399.707Z" fill="#CE6F64"/>
<path d="M93.2523 130.067C99.8423 127.067 101.922 113.737 82.9623 117.067C82.9623 117.067 85.8223 120.227 80.0223 122.227C74.2223 124.227 79.0723 136.577 93.2523 130.067Z" fill="#263238"/>
<path d="M78.9324 140.067C80.8224 147.067 81.5624 151.327 85.9324 154.257C92.4724 158.657 100.602 153.607 100.862 146.137C101.092 139.427 97.9623 129.037 90.4123 127.617C88.7459 127.29 87.0235 127.395 85.4094 127.923C83.7954 128.451 82.3435 129.384 81.1923 130.633C80.0411 131.881 79.229 133.404 78.8333 135.055C78.4377 136.707 78.4718 138.432 78.9324 140.067Z" fill="#E4897B"/>
<path d="M83.2224 120.567C78.7324 123.067 72.6524 124.567 73.2224 128.127C73.9724 132.477 69.5525 129.757 70.5825 136.227C71.2525 140.457 79.0525 153.277 84.5825 152.657C92.8425 151.657 91.7925 139.097 91.8225 132.477C91.8425 128.567 92.0224 115.637 83.2224 120.567Z" fill="#263238"/>
<path d="M92.8127 126.177C94.8127 126.647 97.4627 138.177 89.7127 139.237C80.8027 140.447 92.8127 126.177 92.8127 126.177Z" fill="#263238"/>
<path d="M92.6125 130.267C95.0625 130.487 100.612 127.537 99.9325 123.097C99.9325 123.067 96.4225 128.287 92.6125 130.267Z" fill="#263238"/>
<path d="M88.9724 140.157C89.7243 141.805 91.0007 143.159 92.6024 144.007C94.7124 145.107 95.9024 143.507 95.4224 141.387C94.9924 139.487 93.3724 136.617 91.2024 136.387C89.0324 136.157 88.1024 138.157 88.9724 140.157Z" fill="#E4897B"/>
<path d="M77.9726 132.067C76.4781 131.418 75.1678 130.409 74.1591 129.13C73.1504 127.851 72.4747 126.341 72.1926 124.737C72.1926 124.737 68.8926 133.907 77.9726 132.067Z" fill="#263238"/>
<path d="M69.6326 131.917C70.3284 131.449 71.1292 131.162 71.9634 131.08C72.7976 130.998 73.6391 131.124 74.4126 131.447C74.4126 131.447 71.3326 127.457 69.6326 131.917Z" fill="#263238"/>
<path d="M94.8524 229.847C94.8524 229.847 86.5124 285.987 81.9424 307.017C76.9424 330.017 58.0424 406.777 58.0424 406.777H44.5925C44.5925 406.777 57.0425 331.907 59.9025 309.067C63.0025 284.317 69.5024 229.807 69.5024 229.807L94.8524 229.847Z" fill="#5348A7"/>
<path opacity="0.5" d="M94.8524 229.847C94.8524 229.847 86.5124 285.987 81.9424 307.017C76.9424 330.017 58.0424 406.777 58.0424 406.777H44.5925C44.5925 406.777 57.0425 331.907 59.9025 309.067C63.0025 284.317 69.5024 229.807 69.5024 229.807L94.8524 229.847Z" fill="#5348A7"/>
<path d="M60.1926 401.817C60.2526 401.817 58.8026 406.987 58.8026 406.987H43.6626L43.9426 402.377L60.1926 401.817Z" fill="#5348A7"/>
<path opacity="0.1" d="M60.1926 401.817C60.2526 401.817 58.8026 406.987 58.8026 406.987H43.6626L43.9426 402.377L60.1926 401.817Z" fill="black"/>
<path d="M89.5826 249.847C79.9426 251.737 80.9626 287.687 82.1226 306.177C84.9026 293.107 88.9725 267.957 91.7525 250.107C91.08 249.775 90.3144 249.683 89.5826 249.847Z" fill="#5348A7"/>
<path opacity="0.4" d="M89.5826 249.847C79.9426 251.737 80.9626 287.687 82.1226 306.177C84.9026 293.107 88.9725 267.957 91.7525 250.107C91.08 249.775 90.3144 249.683 89.5826 249.847Z" fill="#7767ED"/>
<path d="M108.792 229.847C108.792 229.847 109.792 284.767 109.002 307.177C108.172 330.477 100.002 406.777 100.002 406.777H87.5624C87.5624 406.777 87.1024 331.837 86.5624 308.957C85.9524 284.007 82.9424 229.847 82.9424 229.847H108.792Z" fill="#5348A7"/>
<path opacity="0.5" d="M108.792 229.847C108.792 229.847 109.792 284.767 109.002 307.177C108.172 330.477 100.002 406.777 100.002 406.777H87.5624C87.5624 406.777 87.1024 331.837 86.5624 308.957C85.9524 284.007 82.9424 229.847 82.9424 229.847H108.792Z" fill="#5348A7"/>
<path d="M97.4227 397.837C97.4529 397.837 97.482 397.825 97.5042 397.805C97.5264 397.785 97.5402 397.757 97.5427 397.727C99.7427 376.607 104.913 325.507 105.543 307.177C106.213 288.467 105.603 246.487 105.403 234.067C105.403 234.035 105.39 234.004 105.368 233.982C105.345 233.959 105.314 233.947 105.283 233.947C105.25 233.946 105.218 233.959 105.194 233.981C105.17 234.003 105.155 234.034 105.153 234.067C105.353 246.487 105.963 288.467 105.293 307.167C104.643 325.497 99.4727 376.577 97.2927 397.697C97.2923 397.73 97.3043 397.763 97.3264 397.789C97.3484 397.815 97.3791 397.832 97.4127 397.837H97.4227Z" fill="#5348A7"/>
<path opacity="0.4" d="M97.4227 397.837C97.4529 397.837 97.482 397.825 97.5042 397.805C97.5264 397.785 97.5402 397.757 97.5427 397.727C99.7427 376.607 104.913 325.507 105.543 307.177C106.213 288.467 105.603 246.487 105.403 234.067C105.403 234.035 105.39 234.004 105.368 233.982C105.345 233.959 105.314 233.947 105.283 233.947C105.25 233.946 105.218 233.959 105.194 233.981C105.17 234.003 105.155 234.034 105.153 234.067C105.353 246.487 105.963 288.467 105.293 307.167C104.643 325.497 99.4727 376.577 97.2927 397.697C97.2923 397.73 97.3043 397.763 97.3264 397.789C97.3484 397.815 97.3791 397.832 97.4127 397.837H97.4227Z" fill="white"/>
<path d="M102.422 401.817C102.472 401.817 101.712 406.987 101.712 406.987H86.5824L86.1724 402.377L102.422 401.817Z" fill="#5348A7"/>
<path opacity="0.1" d="M102.422 401.817C102.472 401.817 101.712 406.987 101.712 406.987H86.5824L86.1724 402.377L102.422 401.817Z" fill="black"/>
<defs>
<linearGradient id="paint0_linear" x1="544.112" y1="114.4" x2="544.112" y2="338.07" gradientUnits="userSpaceOnUse">
<stop stop-color="#497D0A"/>
<stop offset="1" stop-color="#79CF11"/>
</linearGradient>
<linearGradient id="paint1_linear" x1="457.44" y1="249.81" x2="457.44" y2="354.15" gradientUnits="userSpaceOnUse">
<stop stop-color="#497D0A"/>
<stop offset="1" stop-color="#79CF11"/>
</linearGradient>
<linearGradient id="paint2_linear" x1="282.74" y1="290.13" x2="282.74" y2="382.41" gradientUnits="userSpaceOnUse">
<stop stop-color="#497D0A"/>
<stop offset="1" stop-color="#79CF11"/>
</linearGradient>
</defs>
</svg>
