<svg width="1099" height="116" viewBox="0 0 1099 116" fill="none" xmlns="http://www.w3.org/2000/svg">
<path d="M3.03687 101.589L6.09159 103.123L82.282 64.7372L79.2451 63.1875L3.03687 101.589Z" fill="#776DB4"/>
<path d="M79.2452 63.1875L6.0918 100.039V44.7152L79.2452 7.86377V63.1875Z" fill="#FAFAFA"/>
<path d="M85.3722 1.75781L3.03687 43.1809V107.725L85.3722 66.2712V1.75781ZM82.282 64.7215L6.09159 103.123V44.7151L82.282 6.40687V64.7215Z" fill="#C4A8C8"/>
<path d="M82.2821 64.7372L79.2451 63.1875V7.86377L82.2821 6.32959V64.7372Z" fill="#455A64"/>
<path d="M85.3368 1.72681L82.2821 0.192627L0 41.6468L3.03696 43.181L85.3368 1.72681Z" fill="#F5F5F5"/>
<path d="M0 41.6467L3.03696 43.1809V107.725L0 106.191V41.6467Z" fill="#455A64"/>
<path d="M64.8951 53.8891C67.7367 52.4634 70.0455 53.6257 70.0455 56.4771C69.9438 58.0307 69.4246 59.5416 68.5299 60.8876C67.6351 62.2337 66.39 63.3772 64.8951 64.2256C62.0534 65.6668 59.7446 64.5046 59.7446 61.6376C59.8491 60.0846 60.3695 58.5747 61.2639 57.229C62.1584 55.8833 63.4021 54.7394 64.8951 53.8891V53.8891Z" fill="#455A64"/>
<path d="M23.3188 42.2046L62.0534 22.6786C63.1368 22.1362 64.007 22.5701 64.007 23.6549V23.7479C63.969 24.3401 63.7724 24.9163 63.4332 25.4303C63.0939 25.9443 62.6214 26.3818 62.0534 26.7078L23.3188 46.2493C22.2355 46.7917 21.3652 46.3578 21.3652 45.273V45.149C21.4018 44.5586 21.5978 43.9841 21.9374 43.4724C22.2769 42.9607 22.7502 42.5263 23.3188 42.2046V42.2046Z" fill="#455A64"/>
<path d="M17.1916 57.5465L68.1628 31.8682C69.2462 31.3258 70.1165 31.5738 70.1165 32.4261C70.0351 32.9478 69.8163 33.4459 69.4774 33.8815C69.1385 34.317 68.6885 34.6782 68.1628 34.9366L17.1561 60.6458C16.0727 61.1882 15.2025 60.9403 15.2202 60.0725C15.3023 59.547 15.523 59.0453 15.8651 58.607C16.2072 58.1686 16.6613 57.8056 17.1916 57.5465V57.5465Z" fill="#776DB4"/>
<path d="M17.1916 63.7451L68.1628 38.067C69.2462 37.5246 70.1165 37.7725 70.1165 38.6248C70.0351 39.1465 69.8163 39.6446 69.4774 40.0802C69.1385 40.5158 68.6885 40.8769 68.1628 41.1353L17.1561 66.8445C16.0727 67.3869 15.2025 67.1234 15.2202 66.2711C15.3023 65.7456 15.523 65.244 15.8651 64.8056C16.2072 64.3673 16.6613 64.0043 17.1916 63.7451Z" fill="#776DB4"/>
<path d="M17.1916 69.8509L68.1628 44.1727C69.2462 43.6303 70.1165 43.8782 70.1165 44.715C70.039 45.2398 69.822 45.7415 69.4828 46.1801C69.1436 46.6187 68.6916 46.982 68.1628 47.241L17.1561 72.9503C16.0727 73.4927 15.2025 73.2292 15.2202 72.3769C15.3023 71.8514 15.523 71.3497 15.8651 70.9114C16.2072 70.4731 16.6613 70.11 17.1916 69.8509Z" fill="#776DB4"/>
<path d="M55.7487 67.0305C55.3509 67.2058 54.9152 67.3061 54.47 67.325C53.3689 67.325 53.4754 66.3487 53.511 65.6823C53.511 65.3879 53.0492 64.923 52.8006 65.3104C52.1435 66.3487 51.291 67.325 50.5806 68.3323C50.1543 68.9521 49.3196 70.3469 48.2718 70.1454C47.8455 70.1454 47.7034 69.665 47.6857 69.1536C48.2234 68.3083 48.4643 67.3436 48.3783 66.3797C48.3783 66.0852 47.7745 65.7443 47.5969 66.1317C47.2392 66.9523 47.0179 67.8134 46.9398 68.6887C46.4556 69.4389 45.9032 70.1541 45.2881 70.8273C44.9329 71.2302 44.631 71.6951 44.2402 72.0825C44.2402 72.16 43.9561 72.408 43.814 72.4235C43.6719 72.4389 43.4943 72.2995 43.441 72.0825C43.4307 71.7705 43.4911 71.4598 43.6186 71.1682C43.6186 71.1682 43.6186 71.1682 43.6186 71.0907C43.6186 70.7808 43.1746 70.3469 42.997 70.7188C42.326 72.3169 41.3136 73.7893 40.0134 75.0579L39.8002 75.2129C39.8002 75.0269 39.8002 74.8565 39.8002 74.6705C39.7847 74.2605 39.7071 73.854 39.5694 73.4617C39.5694 73.2758 39.0898 72.9658 38.8767 73.2293C37.9505 74.7136 36.8106 76.0885 35.4846 77.3205C35.2648 77.4852 35.0268 77.6306 34.7742 77.7544C34.5433 77.6459 34.8985 76.5611 34.9518 76.4062C35.0939 75.9103 35.2714 75.4453 35.449 74.9649C35.6489 74.5914 35.7864 74.1948 35.8575 73.7872C35.8575 73.4308 35.2004 72.8574 35.0761 73.3533C35.0761 73.5547 34.8274 74.0506 34.6143 74.6395C33.7871 76.1117 32.8312 77.5261 31.755 78.8702C30.7656 80.2606 29.3914 81.4116 27.759 82.2175C27.315 82.4344 26.4625 82.7444 25.983 82.4344C25.5035 82.1245 25.539 81.5666 25.5212 81.1792C25.5005 80.1309 25.6622 79.0858 26.0007 78.0798C27.5598 77.3315 29.0089 76.4209 30.3164 75.3679C31.6269 74.4627 32.7553 73.3733 33.6553 72.1445C34.0993 71.4317 34.3834 70.2539 33.2823 69.851C32.5186 69.572 31.5063 70.0369 30.9025 70.3469C30.0285 70.7922 29.2329 71.3455 28.5404 71.9895C27.1123 73.38 26.0729 75.0403 25.5035 76.8401C25.3969 77.119 25.2726 77.4909 25.1483 77.9094C23.4168 78.6746 21.4573 78.9559 19.5361 78.7152C19.4295 78.7152 19.394 78.9167 19.5361 78.9322C21.3756 79.2664 23.2878 79.1098 25.0239 78.4827C24.5267 80.3424 24.2603 82.7909 26.2494 83.2713C28.2385 83.7517 30.6183 81.5821 31.6839 80.3424C32.4954 79.3975 33.2086 78.3914 33.8151 77.336C33.8703 77.2572 33.9359 77.1844 34.0105 77.119C34.0105 77.9713 34.2059 78.6687 35.1649 78.4672C36.1239 78.2658 37.0474 77.1035 37.5802 76.4526C38.113 75.8018 38.5571 75.1819 39.0366 74.531C39.0366 75.3059 39.2852 76.1892 40.1199 76.0807C40.9546 75.9722 41.6828 74.6395 42.0735 74.1126C42.4326 73.6662 42.7588 73.2003 43.0503 72.7179C43.0987 72.8097 43.1648 72.8935 43.2457 72.9658C43.9383 73.6322 44.7908 72.9658 45.2348 72.408C45.6788 71.8501 46.6201 70.8583 47.2239 70.0369C47.2957 70.2186 47.408 70.3861 47.5543 70.5297C47.7007 70.6733 47.8781 70.7902 48.0764 70.8738C49.1598 71.3077 50.1898 70.5328 50.8114 69.8355C51.5888 68.9263 52.2779 67.9622 52.8716 66.9531C52.9123 67.1436 53.0001 67.3242 53.1289 67.4821C53.2577 67.64 53.4245 67.7715 53.6175 67.8674C54.0203 68.045 54.4705 68.1244 54.9207 68.0971C55.3709 68.0698 55.8042 67.9369 56.175 67.7124C56.4236 67.5109 56.1039 66.8446 55.7487 67.0305ZM31.8793 70.7498C32.3943 70.5173 33.4422 70.1454 33.4955 70.8893C33.4137 71.3725 33.1731 71.8246 32.8028 72.191C31.9363 73.2003 30.9413 74.1205 29.8369 74.934C28.7007 75.8652 27.4567 76.6909 26.1251 77.398C26.5111 76.005 27.2211 74.6961 28.2109 73.5524C29.2008 72.4088 30.4494 71.4549 31.8793 70.7498V70.7498Z" fill="#455A64"/>
<path d="M123.148 101.589L126.202 103.123L202.393 64.7372L199.356 63.1875L123.148 101.589Z" fill="#776DB4"/>
<path d="M199.356 63.1875L126.202 100.039V44.7152L199.356 7.86377V63.1875Z" fill="#FAFAFA"/>
<path d="M205.448 1.75781L123.148 43.1809V107.725L205.448 66.2712V1.75781ZM202.393 64.7525L126.22 103.123V44.7151L202.393 6.40687V64.7525Z" fill="#C4A8C8"/>
<path d="M202.393 64.7372L199.356 63.1875V7.86377L202.393 6.32959V64.7372Z" fill="#455A64"/>
<path d="M205.448 1.72681L202.393 0.192627L120.093 41.6468L123.148 43.181L205.448 1.72681Z" fill="#F5F5F5"/>
<path d="M120.093 41.6467L123.148 43.1809V107.725L120.111 106.191L120.093 41.6467Z" fill="#455A64"/>
<path d="M185.006 53.8891C187.848 52.4634 190.139 53.6257 190.139 56.4771C190.04 58.0296 189.524 59.54 188.633 60.8862C187.741 62.2323 186.498 63.3763 185.006 64.2256C182.164 65.6668 179.855 64.5046 179.855 61.6376C179.96 60.0846 180.48 58.5747 181.375 57.229C182.269 55.8833 183.513 54.7394 185.006 53.8891V53.8891Z" fill="#455A64"/>
<path d="M143.43 42.2046L182.164 22.6786C183.248 22.1362 184.118 22.5701 184.118 23.6549V23.7479C184.08 24.3401 183.883 24.9163 183.544 25.4303C183.205 25.9443 182.732 26.3818 182.164 26.7078L143.43 46.2493C142.346 46.7917 141.476 46.3578 141.476 45.273V45.149C141.513 44.5586 141.709 43.9841 142.048 43.4724C142.388 42.9607 142.861 42.5263 143.43 42.2046Z" fill="#455A64"/>
<path d="M137.302 57.5465L188.274 31.8682C189.357 31.3258 190.227 31.5738 190.227 32.4261C190.146 32.9478 189.927 33.4459 189.588 33.8815C189.249 34.317 188.799 34.6782 188.274 34.9366L137.249 60.6458C136.184 61.1882 135.313 60.9403 135.331 60.0725C135.413 59.547 135.634 59.0453 135.976 58.607C136.318 58.1686 136.772 57.8056 137.302 57.5465V57.5465Z" fill="#776DB4"/>
<path d="M137.302 63.7451L188.274 38.067C189.357 37.5246 190.227 37.7725 190.227 38.6248C190.146 39.1465 189.927 39.6446 189.588 40.0802C189.249 40.5158 188.799 40.8769 188.274 41.1353L137.249 66.8445C136.184 67.3869 135.313 67.1234 135.331 66.2711C135.413 65.7456 135.634 65.244 135.976 64.8056C136.318 64.3673 136.772 64.0043 137.302 63.7451V63.7451Z" fill="#776DB4"/>
<path d="M137.302 69.8509L188.274 44.1727C189.357 43.6303 190.227 43.8782 190.227 44.715C190.15 45.2398 189.933 45.7415 189.594 46.1801C189.254 46.6187 188.802 46.982 188.274 47.241L137.249 72.9503C136.184 73.4927 135.313 73.2292 135.331 72.3769C135.413 71.8514 135.634 71.3497 135.976 70.9114C136.318 70.4731 136.772 70.11 137.302 69.8509V69.8509Z" fill="#776DB4"/>
<path d="M175.842 67.0305C175.45 67.2055 175.02 67.3058 174.581 67.325C173.48 67.325 173.586 66.3487 173.622 65.6823C173.622 65.3879 173.16 64.923 172.893 65.3104C172.236 66.3487 171.402 67.325 170.691 68.3323C170.265 68.9521 169.43 70.3469 168.382 70.1454C167.956 70.1454 167.796 69.665 167.796 69.1536C168.325 68.3054 168.566 67.343 168.489 66.3797C168.489 66.0852 167.885 65.7443 167.708 66.1317C167.341 66.9501 167.12 67.8123 167.05 68.6887C166.566 69.4389 166.014 70.1541 165.399 70.8273C165.044 71.2302 164.742 71.6951 164.351 72.0825C164.244 72.16 164.067 72.408 163.925 72.4235C163.783 72.4389 163.605 72.2995 163.552 72.0825C163.532 71.77 163.593 71.4577 163.729 71.1682V71.1682C163.729 71.1682 163.729 71.1682 163.729 71.0907C163.729 70.7808 163.285 70.3469 163.108 70.7188C162.437 72.3169 161.424 73.7893 160.124 75.0579L159.911 75.2129C159.911 75.0269 159.911 74.8565 159.911 74.6705C159.895 74.2605 159.818 73.854 159.68 73.4617C159.591 73.2758 159.201 72.9658 158.987 73.2293C158.061 74.7136 156.921 76.0885 155.595 77.3205C155.372 77.4817 155.135 77.6268 154.885 77.7544C154.654 77.6459 155.009 76.5611 155.062 76.4062C155.205 75.9103 155.382 75.4453 155.56 74.9649C155.752 74.5887 155.889 74.1931 155.968 73.7872C155.968 73.4308 155.311 72.8574 155.187 73.3533C155.187 73.5547 154.938 74.0506 154.725 74.6395C153.898 76.1152 152.936 77.53 151.848 78.8702C150.87 80.2633 149.501 81.4155 147.87 82.2175C147.426 82.4344 146.573 82.7444 146.094 82.4344C145.614 82.1245 145.65 81.5666 145.632 81.1792C145.611 80.1309 145.773 79.0858 146.111 78.0798C147.709 77.3331 149.194 76.417 150.534 75.3524C151.844 74.4472 152.973 73.3579 153.873 72.129C154.317 71.4162 154.601 70.2384 153.5 69.8355C152.736 69.5565 151.724 70.0214 151.12 70.3314C150.218 70.7678 149.397 71.3217 148.687 71.974C147.259 73.3645 146.219 75.0248 145.65 76.8246C145.543 77.1035 145.419 77.4754 145.294 77.8939C143.563 78.6591 141.604 78.9404 139.682 78.6997C139.576 78.6997 139.54 78.9012 139.682 78.9167C141.522 79.2509 143.434 79.0943 145.17 78.4672C144.673 80.3269 144.406 82.7754 146.396 83.2558C148.385 83.7362 150.765 81.5666 151.83 80.3269C152.642 79.382 153.355 78.3759 153.961 77.3205C154.016 77.2417 154.082 77.1689 154.157 77.1035C154.157 77.9558 154.334 78.6532 155.311 78.4517C156.288 78.2503 157.194 77.088 157.726 76.4372C158.259 75.7863 158.703 75.1664 159.165 74.5155C159.254 75.2904 159.431 76.1737 160.266 76.0652C161.101 75.9567 161.829 74.624 162.22 74.0971C162.579 73.6507 162.905 73.1848 163.197 72.7024C163.239 72.7935 163.299 72.8774 163.374 72.9504C164.085 73.6167 164.919 72.9504 165.381 72.3925C165.843 71.8346 166.766 70.8428 167.37 70.0214C167.442 70.2031 167.554 70.3706 167.701 70.5142C167.847 70.6578 168.024 70.7747 168.223 70.8583C169.306 71.2922 170.336 70.5173 170.958 69.82C171.729 68.9105 172.413 67.9463 173 66.9376C173.045 67.1288 173.136 67.3093 173.268 67.4671C173.4 67.6248 173.569 67.756 173.764 67.8519C174.166 68.0295 174.617 68.1089 175.067 68.0816C175.517 68.0543 175.95 67.9214 176.321 67.6969C176.534 67.5109 176.215 66.8446 175.842 67.0305ZM151.99 70.7498C152.505 70.5173 153.553 70.1454 153.606 70.8893C153.524 71.3725 153.284 71.8246 152.914 72.191C152.047 73.2003 151.052 74.1205 149.948 74.934C148.808 75.8616 147.564 76.6871 146.236 77.398C146.622 76.005 147.332 74.6961 148.322 73.5524C149.311 72.4088 150.56 71.4549 151.99 70.7498V70.7498Z" fill="#455A64"/>
<path d="M914.053 48.4521V41.9434C914.112 41.5673 914.28 41.2105 914.541 40.9067C914.802 40.603 915.148 40.3624 915.545 40.2078L960.602 17.6444C961.678 17.1775 962.864 16.9346 964.065 16.9346C965.267 16.9346 966.453 17.1775 967.529 17.6444L1096.98 82.4986C1097.38 82.6495 1097.73 82.8891 1097.99 83.1935C1098.25 83.4979 1098.42 83.8567 1098.47 84.2343V84.2343V90.8049C1098.42 91.1816 1098.25 91.539 1097.99 91.843C1097.73 92.1469 1097.38 92.3871 1096.98 92.5406L1051.94 115.088C1050.87 115.562 1049.68 115.809 1048.48 115.809C1047.28 115.809 1046.09 115.562 1045.02 115.088L915.492 50.1877C915.095 50.0318 914.751 49.7909 914.49 49.4874C914.229 49.1839 914.061 48.8277 914 48.4521H914.053Z" fill="#9E63A8"/>
<path d="M1096.98 85.9699L1051.94 108.518C1050.87 108.992 1049.68 109.239 1048.48 109.239C1047.27 109.239 1046.09 108.992 1045.01 108.518L915.491 43.679C915.073 43.5581 914.71 43.3253 914.452 43.0137C914.194 42.7022 914.055 42.3277 914.055 41.9434C914.055 41.5591 914.194 41.1846 914.452 40.8731C914.71 40.5615 915.073 40.3287 915.491 40.2078L960.548 17.6444C961.624 17.1775 962.81 16.9346 964.012 16.9346C965.213 16.9346 966.399 17.1775 967.475 17.6444L1096.98 82.4986C1097.4 82.6196 1097.76 82.8524 1098.02 83.1639C1098.28 83.4755 1098.42 83.85 1098.42 84.2343C1098.42 84.6185 1098.28 84.993 1098.02 85.3046C1097.76 85.6161 1097.4 85.8489 1096.98 85.9699V85.9699Z" fill="#E6C5EB"/>
<path d="M1048.46 109.246V115.755C1049.67 115.773 1050.86 115.522 1051.92 115.027L1096.98 92.4788C1097.38 92.3253 1097.73 92.0851 1097.99 91.7811C1098.25 91.4772 1098.42 91.1197 1098.47 90.7431V90.7431V84.2345C1098.45 83.9747 1098.35 83.7242 1098.19 83.5061C1098.72 84.3429 1098.33 85.3037 1096.98 85.9701L1051.94 108.518C1050.88 109.024 1049.67 109.275 1048.46 109.246V109.246Z" fill="#E0E0E0"/>
<path d="M1024.27 54.2322L986.106 73.2159L923.04 41.6488L961.206 22.6497L1024.27 54.2322Z" fill="#E0E0E0"/>
<path d="M985.662 71.7746L1022.48 53.3334C1021.52 50.607 1021.59 47.6862 1022.67 44.9961L986.106 63.2513C986.106 63.2513 985.395 65.2504 985.662 71.7746Z" fill="white"/>
<path d="M987.97 60.6479C986.938 61.2253 986.078 62.0083 985.461 62.9324C984.843 63.8564 984.486 64.8953 984.418 65.9633V72.1621C984.418 74.1146 985.999 74.9205 987.97 73.9287L1024.25 55.7665V54.2168L988.468 72.0381C987.296 72.627 986.337 72.1466 986.337 70.9843V65.2195C986.395 64.5947 986.617 63.9899 986.987 63.4524C987.356 62.9148 987.863 62.4589 988.468 62.1201L1024.22 44.2988V42.4702L987.97 60.6479Z" fill="#714778"/>
<path d="M1024.25 42.4702L961.206 10.9031L924.922 29.0654C923.891 29.6437 923.032 30.4269 922.415 31.3508C921.797 32.2747 921.439 33.313 921.37 34.3808V40.5796C921.325 40.9602 921.396 41.3447 921.577 41.6933C921.758 42.0419 922.042 42.3422 922.401 42.5632L985.466 74.1302C985.101 73.9147 984.81 73.6158 984.625 73.2661C984.44 72.9164 984.369 72.5293 984.418 72.1467V66.0099C984.49 64.9427 984.849 63.9053 985.466 62.9818C986.084 62.0582 986.941 61.2746 987.97 60.6945L1024.25 42.4702Z" fill="#776DB4"/>
<path d="M985.466 62.9105C984.83 63.8235 984.475 64.8645 984.436 65.9324V72.1311C984.387 72.5137 984.458 72.9009 984.643 73.2506C984.827 73.6003 985.118 73.8992 985.484 74.1147L922.418 42.5786C922.06 42.3576 921.776 42.0574 921.595 41.7088C921.414 41.3601 921.342 40.9757 921.388 40.595V34.3962C921.412 33.3019 921.767 32.2325 922.418 31.2969L985.466 62.9105Z" fill="#455A64"/>
<path d="M1063.06 6.98242L1063.43 11.1821L1020.81 31.1265L1019.85 28.678L1063.06 6.98242Z" fill="#714778"/>
<path d="M1020.42 29.6542L1061.69 8.85742L1068.87 12.4837L1026.79 33.9623L1020.42 29.6542Z" fill="white"/>
<path d="M1034.54 31.731L1038.62 73.4794C1038.59 73.9414 1038.44 74.3907 1038.17 74.7916C1037.91 75.1924 1037.54 75.5337 1037.09 75.7884L1013.15 87.876C1012.77 88.0529 1012.35 88.1584 1011.91 88.1859L1026.79 35.3262C1027.23 35.2987 1027.65 35.1932 1028.04 35.0163L1029.81 34.1485L1034.54 31.731Z" fill="#595092"/>
<path d="M1024.96 35.0163L1020.7 31.8239L1017.56 29.4839C1017.24 29.0345 1016.87 28.7091 1017.06 28.3372L1002.39 80.825C1002.18 81.1814 1002.13 82.0182 1002.69 82.3747L1010.1 87.907C1010.65 88.1527 1011.26 88.2601 1011.88 88.217L1026.76 35.3572C1026.14 35.3955 1025.51 35.2772 1024.96 35.0163V35.0163Z" fill="#455A64"/>
<path d="M1017.56 27.9498C1016.72 28.3682 1016.92 28.8486 1017.56 29.4995L1024.96 35.0164C1025.44 35.2297 1025.96 35.341 1026.49 35.341C1027.02 35.341 1027.55 35.2297 1028.02 35.0164L1034.54 31.731C1035.39 31.3126 1035.53 30.6927 1034.87 30.3673C1034.44 30.2053 1033.96 30.1364 1033.48 30.166C1033.01 30.1956 1032.55 30.323 1032.14 30.5378L1027.01 33.1257C1026.85 33.194 1026.68 33.2295 1026.5 33.2295C1026.33 33.2295 1026.15 33.194 1025.99 33.1257L1020.67 29.0191C1020.6 29.0049 1020.54 28.972 1020.5 28.9257C1020.46 28.8793 1020.44 28.8222 1020.44 28.7634C1020.44 28.7045 1020.46 28.6474 1020.5 28.6011C1020.54 28.5547 1020.6 28.5218 1020.67 28.5077L1063.06 6.98251L1061.03 5.95972L1017.56 27.9498Z" fill="#E6C5EB"/>
<path d="M1075.37 8.99707L1034.77 29.4684V96.8643L1075.37 76.3929V8.99707Z" fill="#455A64"/>
<path d="M1036.06 30.5843L1075.37 10.9033C1077.77 13.1292 1080.91 14.6324 1084.35 15.1959L1045.48 34.7839C1045.48 34.7839 1042.87 34.2725 1036.06 30.5843Z" fill="white"/>
<path d="M1049.17 34.6599C1048 35.1796 1046.71 35.4506 1045.4 35.4506C1044.09 35.4506 1042.79 35.1796 1041.62 34.6599L1035 31.3591C1034.54 31.2272 1034.14 30.9728 1033.86 30.632C1033.58 30.2911 1033.43 29.8813 1033.43 29.4607C1033.43 29.0401 1033.58 28.6302 1033.86 28.2894C1034.14 27.9486 1034.54 27.6942 1035 27.5623L1073.73 8.17578L1075.37 8.99711L1037.27 28.1822C1037 28.2658 1036.77 28.4201 1036.6 28.6241C1036.44 28.828 1036.35 29.0716 1036.35 29.3212C1036.35 29.5709 1036.44 29.8144 1036.6 30.0184C1036.77 30.2223 1037 30.3767 1037.27 30.4602L1043.43 33.5596C1044.14 33.8653 1044.91 34.0244 1045.7 34.0244C1046.49 34.0244 1047.26 33.8653 1047.96 33.5596L1086.04 14.4055L1087.82 15.3353L1049.17 34.6599Z" fill="#CDACF1"/>
<path d="M1087.89 15.2732V82.669L1049.17 102.056C1048 102.575 1046.71 102.846 1045.4 102.846C1044.09 102.846 1042.79 102.575 1041.62 102.056L1035 98.7547C1034.57 98.589 1034.19 98.3245 1033.92 97.989C1033.64 97.6536 1033.48 97.2596 1033.44 96.8486V29.4528C1033.48 29.8621 1033.64 30.2542 1033.92 30.5873C1034.19 30.9203 1034.57 31.1817 1035 31.3434L1041.62 34.6753C1042.79 35.1879 1044.09 35.4548 1045.4 35.4548C1046.71 35.4548 1048 35.1879 1049.17 34.6753L1087.89 15.2732Z" fill="#776DB4"/>
<path d="M1045.48 35.4504C1044.17 35.4715 1042.87 35.2051 1041.71 34.6756L1035.09 31.3437C1034.65 31.182 1034.28 30.9206 1034.01 30.5876C1033.73 30.2545 1033.56 29.8624 1033.52 29.4531V96.8489C1033.56 97.2599 1033.73 97.6538 1034.01 97.9893C1034.28 98.3247 1034.65 98.5892 1035.09 98.755L1041.71 102.056C1042.87 102.598 1044.17 102.87 1045.48 102.846V35.4504Z" fill="#455A64"/>
</svg>
