<svg width="1099" height="116" viewBox="0 0 1099 116" fill="none" xmlns="http://www.w3.org/2000/svg">
<path d="M3.03711 101.589L6.09183 103.123L82.2822 64.7372L79.2453 63.1875L3.03711 101.589Z" fill="#5348A7"/>
<path d="M79.2452 63.1875L6.0918 100.039V44.7152L79.2452 7.86377V63.1875Z" fill="#FAFAFA"/>
<path d="M85.3724 1.75781L3.03711 43.1809V107.725L85.3724 66.2712V1.75781ZM82.2822 64.7215L6.09183 103.123V44.7151L82.2822 6.40687V64.7215Z" fill="#9085A7"/>
<path d="M82.2821 64.7372L79.2451 63.1875V7.86377L82.2821 6.32959V64.7372Z" fill="#3C3378"/>
<path d="M85.3368 1.72705L82.2821 0.192871L0 41.647L3.03696 43.1812L85.3368 1.72705Z" fill="#F5F5F5"/>
<path d="M0 41.6465L3.03696 43.1807V107.725L0 106.191V41.6465Z" fill="#3C3378"/>
<path d="M64.8946 53.8891C67.7362 52.4634 70.045 53.6257 70.045 56.4771C69.9433 58.0307 69.4241 59.5416 68.5294 60.8876C67.6346 62.2337 66.3895 63.3772 64.8946 64.2256C62.0529 65.6668 59.7441 64.5046 59.7441 61.6376C59.8486 60.0846 60.369 58.5747 61.2634 57.229C62.1579 55.8833 63.4016 54.7394 64.8946 53.8891Z" fill="#3C3378"/>
<path d="M23.3188 42.2048L62.0534 22.6788C63.1368 22.1364 64.007 22.5703 64.007 23.6551V23.7481C63.969 24.3403 63.7724 24.9165 63.4332 25.4305C63.0939 25.9445 62.6214 26.382 62.0534 26.708L23.3188 46.2495C22.2355 46.7919 21.3652 46.358 21.3652 45.2732V45.1492C21.4018 44.5588 21.5978 43.9843 21.9374 43.4726C22.2769 42.9609 22.7502 42.5265 23.3188 42.2048Z" fill="#3C3378"/>
<path d="M17.1914 57.5465L68.1626 31.8682C69.246 31.3258 70.1163 31.5738 70.1163 32.4261C70.0349 32.9478 69.8161 33.4459 69.4772 33.8815C69.1383 34.317 68.6883 34.6782 68.1626 34.9366L17.1559 60.6458C16.0725 61.1882 15.2023 60.9403 15.22 60.0725C15.3021 59.547 15.5228 59.0453 15.8649 58.607C16.207 58.1686 16.6611 57.8056 17.1914 57.5465Z" fill="#5348A7"/>
<path d="M17.1914 63.7451L68.1626 38.067C69.246 37.5246 70.1163 37.7725 70.1163 38.6248C70.0349 39.1465 69.8161 39.6446 69.4772 40.0802C69.1383 40.5158 68.6883 40.8769 68.1626 41.1353L17.1559 66.8445C16.0725 67.3869 15.2023 67.1234 15.22 66.2711C15.3021 65.7456 15.5228 65.244 15.8649 64.8056C16.207 64.3673 16.6611 64.0043 17.1914 63.7451Z" fill="#5348A7"/>
<path d="M17.1914 69.8509L68.1626 44.1727C69.246 43.6303 70.1163 43.8782 70.1163 44.715C70.0388 45.2398 69.8218 45.7415 69.4826 46.1801C69.1434 46.6187 68.6914 46.982 68.1626 47.241L17.1559 72.9503C16.0725 73.4927 15.2023 73.2292 15.22 72.3769C15.3021 71.8514 15.5228 71.3497 15.8649 70.9114C16.207 70.4731 16.6611 70.11 17.1914 69.8509Z" fill="#5348A7"/>
<path d="M55.7487 67.0307C55.3509 67.206 54.9152 67.3063 54.47 67.3252C53.3689 67.3252 53.4754 66.3489 53.511 65.6825C53.511 65.3881 53.0492 64.9232 52.8006 65.3106C52.1435 66.3489 51.291 67.3252 50.5806 68.3325C50.1543 68.9523 49.3196 70.3471 48.2718 70.1456C47.8455 70.1456 47.7034 69.6652 47.6857 69.1538C48.2234 68.3085 48.4643 67.3438 48.3783 66.3799C48.3783 66.0854 47.7745 65.7445 47.5969 66.1319C47.2392 66.9525 47.0179 67.8136 46.9398 68.6889C46.4556 69.4391 45.9032 70.1543 45.2881 70.8275C44.9329 71.2304 44.631 71.6953 44.2402 72.0827C44.2402 72.1602 43.9561 72.4082 43.814 72.4237C43.6719 72.4391 43.4943 72.2997 43.441 72.0827C43.4307 71.7707 43.4911 71.46 43.6186 71.1684C43.6186 71.1684 43.6186 71.1684 43.6186 71.0909C43.6186 70.781 43.1746 70.3471 42.997 70.719C42.326 72.3171 41.3136 73.7895 40.0134 75.0581L39.8002 75.2131C39.8002 75.0271 39.8002 74.8567 39.8002 74.6707C39.7847 74.2607 39.7071 73.8542 39.5694 73.4619C39.5694 73.276 39.0898 72.966 38.8767 73.2295C37.9505 74.7138 36.8106 76.0887 35.4846 77.3207C35.2648 77.4854 35.0268 77.6308 34.7742 77.7546C34.5433 77.6461 34.8985 76.5613 34.9518 76.4064C35.0939 75.9105 35.2714 75.4455 35.449 74.9651C35.6489 74.5916 35.7864 74.195 35.8575 73.7874C35.8575 73.431 35.2004 72.8576 35.0761 73.3535C35.0761 73.5549 34.8274 74.0508 34.6143 74.6397C33.7871 76.1119 32.8312 77.5263 31.755 78.8704C30.7656 80.2608 29.3914 81.4118 27.759 82.2177C27.315 82.4346 26.4625 82.7446 25.983 82.4346C25.5035 82.1247 25.539 81.5668 25.5212 81.1794C25.5005 80.1311 25.6622 79.086 26.0007 78.08C27.5598 77.3317 29.0089 76.4211 30.3164 75.3681C31.6269 74.4629 32.7553 73.3735 33.6553 72.1447C34.0993 71.4319 34.3834 70.2541 33.2823 69.8512C32.5186 69.5722 31.5063 70.0371 30.9025 70.3471C30.0285 70.7924 29.2329 71.3457 28.5404 71.9897C27.1123 73.3802 26.0729 75.0405 25.5035 76.8403C25.3969 77.1192 25.2726 77.4911 25.1483 77.9096C23.4168 78.6748 21.4573 78.9561 19.5361 78.7154C19.4295 78.7154 19.394 78.9169 19.5361 78.9324C21.3756 79.2666 23.2878 79.11 25.0239 78.4829C24.5267 80.3426 24.2603 82.7911 26.2494 83.2715C28.2385 83.7519 30.6183 81.5823 31.6839 80.3426C32.4954 79.3977 33.2086 78.3916 33.8151 77.3362C33.8703 77.2574 33.9359 77.1846 34.0105 77.1192C34.0105 77.9715 34.2059 78.6689 35.1649 78.4674C36.1239 78.266 37.0474 77.1037 37.5802 76.4528C38.113 75.802 38.5571 75.1821 39.0366 74.5312C39.0366 75.3061 39.2852 76.1894 40.1199 76.0809C40.9546 75.9724 41.6828 74.6397 42.0735 74.1128C42.4326 73.6664 42.7588 73.2005 43.0503 72.7181C43.0987 72.8099 43.1648 72.8937 43.2457 72.966C43.9383 73.6324 44.7908 72.966 45.2348 72.4082C45.6788 71.8503 46.6201 70.8585 47.2239 70.0371C47.2957 70.2188 47.408 70.3863 47.5543 70.5299C47.7007 70.6735 47.8781 70.7904 48.0764 70.874C49.1598 71.3079 50.1898 70.533 50.8114 69.8357C51.5888 68.9265 52.2779 67.9624 52.8716 66.9533C52.9123 67.1438 53.0001 67.3244 53.1289 67.4823C53.2577 67.6402 53.4245 67.7717 53.6175 67.8676C54.0203 68.0452 54.4705 68.1246 54.9207 68.0973C55.3709 68.07 55.8042 67.9371 56.175 67.7126C56.4236 67.5111 56.1039 66.8448 55.7487 67.0307ZM31.8793 70.75C32.3943 70.5175 33.4422 70.1456 33.4955 70.8895C33.4137 71.3727 33.1731 71.8248 32.8028 72.1912C31.9363 73.2005 30.9413 74.1207 29.8369 74.9342C28.7007 75.8654 27.4567 76.6911 26.1251 77.3982C26.5111 76.0052 27.2211 74.6963 28.2109 73.5526C29.2008 72.409 30.4494 71.4551 31.8793 70.75Z" fill="#3C3378"/>
<path d="M123.148 101.589L126.202 103.123L202.393 64.7372L199.356 63.1875L123.148 101.589Z" fill="#5348A7"/>
<path d="M199.356 63.1875L126.202 100.039V44.7152L199.356 7.86377V63.1875Z" fill="#FAFAFA"/>
<path d="M205.448 1.75781L123.148 43.1809V107.725L205.448 66.2712V1.75781ZM202.393 64.7525L126.22 103.123V44.7151L202.393 6.40687V64.7525Z" fill="#9085A7"/>
<path d="M202.393 64.7372L199.356 63.1875V7.86377L202.393 6.32959V64.7372Z" fill="#3C3378"/>
<path d="M205.448 1.72705L202.393 0.192871L120.093 41.647L123.148 43.1812L205.448 1.72705Z" fill="#F5F5F5"/>
<path d="M120.093 41.6465L123.148 43.1807V107.725L120.111 106.191L120.093 41.6465Z" fill="#3C3378"/>
<path d="M185.006 53.8891C187.848 52.4634 190.139 53.6257 190.139 56.4771C190.04 58.0296 189.524 59.54 188.633 60.8862C187.741 62.2323 186.498 63.3763 185.006 64.2256C182.164 65.6668 179.855 64.5046 179.855 61.6376C179.96 60.0846 180.48 58.5747 181.375 57.229C182.269 55.8833 183.513 54.7394 185.006 53.8891Z" fill="#3C3378"/>
<path d="M143.43 42.2048L182.164 22.6788C183.248 22.1364 184.118 22.5703 184.118 23.6551V23.7481C184.08 24.3403 183.883 24.9165 183.544 25.4305C183.205 25.9445 182.732 26.382 182.164 26.708L143.43 46.2495C142.346 46.7919 141.476 46.358 141.476 45.2732V45.1492C141.513 44.5588 141.709 43.9843 142.048 43.4726C142.388 42.9609 142.861 42.5265 143.43 42.2048Z" fill="#3C3378"/>
<path d="M137.302 57.5465L188.274 31.8682C189.357 31.3258 190.227 31.5738 190.227 32.4261C190.146 32.9478 189.927 33.4459 189.588 33.8815C189.249 34.317 188.799 34.6782 188.274 34.9366L137.249 60.6458C136.184 61.1882 135.313 60.9403 135.331 60.0725C135.413 59.547 135.634 59.0453 135.976 58.607C136.318 58.1686 136.772 57.8056 137.302 57.5465Z" fill="#5348A7"/>
<path d="M137.302 63.7451L188.274 38.067C189.357 37.5246 190.227 37.7725 190.227 38.6248C190.146 39.1465 189.927 39.6446 189.588 40.0802C189.249 40.5158 188.799 40.8769 188.274 41.1353L137.249 66.8445C136.184 67.3869 135.313 67.1234 135.331 66.2711C135.413 65.7456 135.634 65.244 135.976 64.8056C136.318 64.3673 136.772 64.0043 137.302 63.7451Z" fill="#5348A7"/>
<path d="M137.302 69.8509L188.274 44.1727C189.357 43.6303 190.227 43.8782 190.227 44.715C190.15 45.2398 189.933 45.7415 189.594 46.1801C189.254 46.6187 188.802 46.982 188.274 47.241L137.249 72.9503C136.184 73.4927 135.313 73.2292 135.331 72.3769C135.413 71.8514 135.634 71.3497 135.976 70.9114C136.318 70.4731 136.772 70.11 137.302 69.8509Z" fill="#5348A7"/>
<path d="M175.842 67.0307C175.45 67.2057 175.02 67.306 174.581 67.3252C173.48 67.3252 173.586 66.3489 173.622 65.6825C173.622 65.3881 173.16 64.9232 172.893 65.3106C172.236 66.3489 171.402 67.3252 170.691 68.3325C170.265 68.9523 169.43 70.3471 168.382 70.1456C167.956 70.1456 167.796 69.6652 167.796 69.1538C168.325 68.3056 168.566 67.3432 168.489 66.3799C168.489 66.0854 167.885 65.7445 167.708 66.1319C167.341 66.9503 167.12 67.8125 167.05 68.6889C166.566 69.4391 166.014 70.1543 165.399 70.8275C165.044 71.2304 164.742 71.6953 164.351 72.0827C164.244 72.1602 164.067 72.4082 163.925 72.4237C163.783 72.4391 163.605 72.2997 163.552 72.0827C163.532 71.7702 163.593 71.4579 163.729 71.1684C163.729 71.1684 163.729 71.1684 163.729 71.0909C163.729 70.781 163.285 70.3471 163.108 70.719C162.437 72.3171 161.424 73.7895 160.124 75.0581L159.911 75.2131C159.911 75.0271 159.911 74.8567 159.911 74.6707C159.895 74.2607 159.818 73.8542 159.68 73.4619C159.591 73.276 159.201 72.966 158.987 73.2295C158.061 74.7138 156.921 76.0887 155.595 77.3207C155.372 77.4819 155.135 77.627 154.885 77.7546C154.654 77.6461 155.009 76.5613 155.062 76.4064C155.205 75.9105 155.382 75.4455 155.56 74.9651C155.752 74.5889 155.889 74.1933 155.968 73.7874C155.968 73.431 155.311 72.8576 155.187 73.3535C155.187 73.5549 154.938 74.0508 154.725 74.6397C153.898 76.1154 152.936 77.5302 151.848 78.8704C150.87 80.2635 149.501 81.4157 147.87 82.2177C147.426 82.4346 146.573 82.7446 146.094 82.4346C145.614 82.1247 145.65 81.5668 145.632 81.1794C145.611 80.1311 145.773 79.086 146.111 78.08C147.709 77.3333 149.194 76.4172 150.534 75.3526C151.844 74.4474 152.973 73.3581 153.873 72.1292C154.317 71.4164 154.601 70.2386 153.5 69.8357C152.736 69.5567 151.724 70.0216 151.12 70.3316C150.218 70.768 149.397 71.3219 148.687 71.9742C147.259 73.3647 146.219 75.025 145.65 76.8248C145.543 77.1037 145.419 77.4756 145.294 77.8941C143.563 78.6593 141.604 78.9406 139.682 78.6999C139.576 78.6999 139.54 78.9014 139.682 78.9169C141.522 79.2511 143.434 79.0945 145.17 78.4674C144.673 80.3271 144.406 82.7756 146.396 83.256C148.385 83.7364 150.765 81.5668 151.83 80.3271C152.642 79.3822 153.355 78.3761 153.961 77.3207C154.016 77.2419 154.082 77.1691 154.157 77.1037C154.157 77.956 154.334 78.6534 155.311 78.4519C156.288 78.2505 157.194 77.0882 157.726 76.4374C158.259 75.7865 158.703 75.1666 159.165 74.5157C159.254 75.2906 159.431 76.1739 160.266 76.0654C161.101 75.9569 161.829 74.6242 162.22 74.0973C162.579 73.6509 162.905 73.185 163.197 72.7026C163.239 72.7937 163.299 72.8776 163.374 72.9506C164.085 73.6169 164.919 72.9506 165.381 72.3927C165.843 71.8348 166.766 70.843 167.37 70.0216C167.442 70.2033 167.554 70.3708 167.701 70.5144C167.847 70.658 168.024 70.7749 168.223 70.8585C169.306 71.2924 170.336 70.5175 170.958 69.8202C171.729 68.9107 172.413 67.9465 173 66.9378C173.045 67.129 173.136 67.3095 173.268 67.4673C173.4 67.625 173.569 67.7562 173.764 67.8521C174.166 68.0297 174.617 68.1091 175.067 68.0818C175.517 68.0545 175.95 67.9216 176.321 67.6971C176.534 67.5111 176.215 66.8448 175.842 67.0307ZM151.99 70.75C152.505 70.5175 153.553 70.1456 153.606 70.8895C153.524 71.3727 153.284 71.8248 152.914 72.1912C152.047 73.2005 151.052 74.1207 149.948 74.9342C148.808 75.8618 147.564 76.6873 146.236 77.3982C146.622 76.0052 147.332 74.6963 148.322 73.5526C149.311 72.409 150.56 71.4551 151.99 70.75Z" fill="#3C3378"/>
<path d="M914.053 48.4521V41.9434C914.112 41.5673 914.28 41.2105 914.541 40.9067C914.802 40.603 915.148 40.3624 915.545 40.2078L960.602 17.6444C961.678 17.1775 962.864 16.9346 964.065 16.9346C965.267 16.9346 966.453 17.1775 967.529 17.6444L1096.98 82.4986C1097.38 82.6495 1097.73 82.8891 1097.99 83.1935C1098.25 83.4979 1098.42 83.8567 1098.47 84.2343V90.8049C1098.42 91.1816 1098.25 91.539 1097.99 91.843C1097.73 92.1469 1097.38 92.3871 1096.98 92.5406L1051.94 115.088C1050.87 115.562 1049.68 115.809 1048.48 115.809C1047.28 115.809 1046.09 115.562 1045.02 115.088L915.492 50.1877C915.095 50.0318 914.751 49.7909 914.49 49.4874C914.229 49.1839 914.061 48.8277 914 48.4521H914.053Z" fill="#5348A7"/>
<path d="M1096.98 85.9699L1051.94 108.518C1050.87 108.992 1049.68 109.239 1048.48 109.239C1047.27 109.239 1046.09 108.992 1045.01 108.518L915.491 43.679C915.073 43.5581 914.71 43.3253 914.452 43.0137C914.194 42.7022 914.055 42.3277 914.055 41.9434C914.055 41.5591 914.194 41.1846 914.452 40.8731C914.71 40.5615 915.073 40.3287 915.491 40.2078L960.548 17.6444C961.624 17.1775 962.81 16.9346 964.012 16.9346C965.213 16.9346 966.399 17.1775 967.475 17.6444L1096.98 82.4986C1097.4 82.6196 1097.76 82.8524 1098.02 83.1639C1098.28 83.4755 1098.42 83.85 1098.42 84.2343C1098.42 84.6185 1098.28 84.993 1098.02 85.3046C1097.76 85.6161 1097.4 85.8489 1096.98 85.9699Z" fill="#9B90EF"/>
<path d="M1048.46 109.246V115.755C1049.67 115.773 1050.86 115.522 1051.92 115.027L1096.98 92.4786C1097.38 92.3251 1097.73 92.0849 1097.99 91.7809C1098.25 91.477 1098.42 91.1195 1098.47 90.7429V84.2343C1098.45 83.9745 1098.35 83.724 1098.19 83.5059C1098.72 84.3427 1098.33 85.3035 1096.98 85.9699L1051.94 108.518C1050.88 109.024 1049.67 109.275 1048.46 109.246Z" fill="#F1DEF4"/>
<path d="M1024.27 54.2324L986.106 73.2161L923.04 41.649L961.206 22.6499L1024.27 54.2324Z" fill="#F1DEF4"/>
<path d="M985.662 71.7746L1022.48 53.3334C1021.52 50.607 1021.59 47.6862 1022.67 44.9961L986.106 63.2513C986.106 63.2513 985.395 65.2504 985.662 71.7746Z" fill="white"/>
<path d="M987.97 60.6479C986.938 61.2253 986.078 62.0083 985.461 62.9324C984.843 63.8564 984.486 64.8953 984.418 65.9633V72.1621C984.418 74.1146 985.999 74.9205 987.97 73.9287L1024.25 55.7665V54.2168L988.468 72.0381C987.296 72.627 986.337 72.1466 986.337 70.9843V65.2195C986.395 64.5947 986.617 63.9899 986.987 63.4524C987.356 62.9148 987.863 62.4589 988.468 62.1201L1024.22 44.2988V42.4702L987.97 60.6479Z" fill="#7767ED"/>
<path d="M1024.25 42.4704L961.206 10.9033L924.922 29.0656C923.891 29.6439 923.032 30.4271 922.415 31.351C921.797 32.2749 921.439 33.3132 921.37 34.381V40.5798C921.325 40.9604 921.396 41.3449 921.577 41.6935C921.758 42.0421 922.042 42.3424 922.401 42.5634L985.466 74.1304C985.101 73.9149 984.81 73.616 984.625 73.2663C984.44 72.9166 984.369 72.5295 984.418 72.1469V66.0101C984.49 64.9429 984.849 63.9055 985.466 62.982C986.084 62.0584 986.941 61.2748 987.97 60.6947L1024.25 42.4704Z" fill="#5348A7"/>
<path d="M985.466 62.9105C984.83 63.8235 984.475 64.8645 984.436 65.9324V72.1311C984.387 72.5137 984.458 72.9009 984.643 73.2506C984.827 73.6003 985.118 73.8992 985.484 74.1147L922.418 42.5786C922.06 42.3576 921.776 42.0574 921.595 41.7088C921.414 41.3601 921.342 40.9757 921.388 40.595V34.3962C921.412 33.3019 921.767 32.2325 922.418 31.2969L985.466 62.9105Z" fill="#3C3378"/>
<path d="M1063.06 6.98242L1063.43 11.1821L1020.81 31.1265L1019.85 28.678L1063.06 6.98242Z" fill="#7767ED"/>
<path d="M1020.42 29.6542L1061.69 8.85742L1068.87 12.4837L1026.79 33.9623L1020.42 29.6542Z" fill="white"/>
<path d="M1034.54 31.731L1038.62 73.4794C1038.59 73.9414 1038.44 74.3907 1038.17 74.7916C1037.91 75.1924 1037.54 75.5337 1037.09 75.7884L1013.15 87.876C1012.77 88.0529 1012.35 88.1584 1011.91 88.1859L1026.79 35.3262C1027.23 35.2987 1027.65 35.1932 1028.04 35.0163L1029.81 34.1485L1034.54 31.731Z" fill="#3C3378"/>
<path d="M1024.96 35.0165L1020.7 31.8241L1017.56 29.4841C1017.24 29.0347 1016.87 28.7093 1017.06 28.3374L1002.39 80.8252C1002.18 81.1816 1002.13 82.0184 1002.69 82.3749L1010.1 87.9072C1010.65 88.1529 1011.26 88.2603 1011.88 88.2172L1026.76 35.3574C1026.14 35.3957 1025.51 35.2774 1024.96 35.0165Z" fill="#3C3378"/>
<path d="M1017.56 27.95C1016.72 28.3684 1016.92 28.8488 1017.56 29.4997L1024.96 35.0166C1025.44 35.2299 1025.96 35.3412 1026.49 35.3412C1027.02 35.3412 1027.55 35.2299 1028.02 35.0166L1034.54 31.7312C1035.39 31.3128 1035.53 30.6929 1034.87 30.3675C1034.44 30.2055 1033.96 30.1366 1033.48 30.1662C1033.01 30.1958 1032.55 30.3232 1032.14 30.538L1027.01 33.1259C1026.85 33.1942 1026.68 33.2297 1026.5 33.2297C1026.33 33.2297 1026.15 33.1942 1025.99 33.1259L1020.67 29.0193C1020.6 29.0051 1020.54 28.9722 1020.5 28.9259C1020.46 28.8795 1020.44 28.8224 1020.44 28.7636C1020.44 28.7047 1020.46 28.6476 1020.5 28.6013C1020.54 28.5549 1020.6 28.522 1020.67 28.5079L1063.06 6.98275L1061.03 5.95996L1017.56 27.95Z" fill="#9B90EF"/>
<path d="M1075.37 8.99707L1034.77 29.4684V96.8643L1075.37 76.3929V8.99707Z" fill="#3C3378"/>
<path d="M1036.06 30.5843L1075.37 10.9033C1077.77 13.1292 1080.91 14.6324 1084.35 15.1959L1045.48 34.7839C1045.48 34.7839 1042.87 34.2725 1036.06 30.5843Z" fill="white"/>
<path d="M1049.17 34.6599C1048 35.1796 1046.71 35.4506 1045.4 35.4506C1044.09 35.4506 1042.79 35.1796 1041.62 34.6599L1035 31.3591C1034.54 31.2272 1034.14 30.9728 1033.86 30.632C1033.58 30.2911 1033.43 29.8813 1033.43 29.4607C1033.43 29.0401 1033.58 28.6302 1033.86 28.2894C1034.14 27.9486 1034.54 27.6942 1035 27.5623L1073.73 8.17578L1075.37 8.99711L1037.27 28.1822C1037 28.2658 1036.77 28.4201 1036.6 28.6241C1036.44 28.828 1036.35 29.0716 1036.35 29.3212C1036.35 29.5709 1036.44 29.8144 1036.6 30.0184C1036.77 30.2223 1037 30.3767 1037.27 30.4602L1043.43 33.5596C1044.14 33.8653 1044.91 34.0244 1045.7 34.0244C1046.49 34.0244 1047.26 33.8653 1047.96 33.5596L1086.04 14.4055L1087.82 15.3353L1049.17 34.6599Z" fill="#7767ED"/>
<path d="M1087.89 15.2734V82.6692L1049.17 102.056C1048 102.575 1046.71 102.846 1045.4 102.846C1044.09 102.846 1042.79 102.575 1041.62 102.056L1035 98.7549C1034.57 98.5892 1034.19 98.3247 1033.92 97.9892C1033.64 97.6538 1033.48 97.2598 1033.44 96.8488V29.453C1033.48 29.8623 1033.64 30.2544 1033.92 30.5875C1034.19 30.9205 1034.57 31.1819 1035 31.3436L1041.62 34.6755C1042.79 35.1881 1044.09 35.455 1045.4 35.455C1046.71 35.455 1048 35.1881 1049.17 34.6755L1087.89 15.2734Z" fill="#5348A7"/>
<path d="M1045.48 35.4504C1044.17 35.4715 1042.87 35.2051 1041.71 34.6756L1035.09 31.3437C1034.65 31.182 1034.28 30.9206 1034.01 30.5876C1033.73 30.2545 1033.56 29.8624 1033.52 29.4531V96.8489C1033.56 97.2599 1033.73 97.6538 1034.01 97.9893C1034.28 98.3247 1034.65 98.5892 1035.09 98.755L1041.71 102.056C1042.87 102.598 1044.17 102.87 1045.48 102.846V35.4504Z" fill="#3C3378"/>
</svg>
