<svg width="261" height="261" viewBox="0 0 261 261" fill="none" xmlns="http://www.w3.org/2000/svg">
<path d="M261 199.613H0V199.743H261V199.613Z" fill="#EBEBEB"/>
<path d="M234.848 208.012H217.559V208.142H234.848V208.012Z" fill="#EBEBEB"/>
<path d="M157.352 208.08H152.816V208.21H157.352V208.08Z" fill="#EBEBEB"/>
<path d="M217.032 203.168H184.96V203.298H217.032V203.168Z" fill="#EBEBEB"/>
<path d="M117.523 206.247H110.899V206.378H117.523V206.247Z" fill="#EBEBEB"/>
<path d="M106.253 206.247H87.0278V206.378H106.253V206.247Z" fill="#EBEBEB"/>
<path d="M40.6586 204.045H27.3842V204.175H40.6586V204.045Z" fill="#EBEBEB"/>
<path d="M82.8831 204.045H43.7905V204.175H82.8831V204.045Z" fill="#EBEBEB"/>
<path d="M123.714 176.332H22.921C22.1314 176.33 21.3746 176.016 20.8167 175.457C20.2589 174.898 19.9456 174.141 19.9456 173.351V31.6645C19.9524 30.8795 20.2688 30.1288 20.8259 29.5756C21.383 29.0224 22.1359 28.7114 22.921 28.71H123.714C124.504 28.71 125.263 29.0241 125.822 29.583C126.381 30.142 126.695 30.9001 126.695 31.6906V173.351C126.695 174.142 126.381 174.9 125.822 175.459C125.263 176.018 124.504 176.332 123.714 176.332ZM22.921 28.8144C22.166 28.8158 21.4424 29.1167 20.909 29.651C20.3756 30.1854 20.0761 30.9095 20.0761 31.6645V173.351C20.0761 174.106 20.3756 174.83 20.909 175.365C21.4424 175.899 22.166 176.2 22.921 176.201H123.714C124.469 176.2 125.194 175.899 125.728 175.365C126.262 174.831 126.563 174.106 126.564 173.351V31.6645C126.563 30.9091 126.262 30.1849 125.728 29.6507C125.194 29.1165 124.469 28.8158 123.714 28.8144H22.921Z" fill="#EBEBEB"/>
<path d="M236.628 176.332H135.83C135.04 176.33 134.282 176.016 133.724 175.457C133.165 174.898 132.85 174.141 132.849 173.351V31.6645C132.857 30.879 133.175 30.1283 133.733 29.5753C134.291 29.0222 135.044 28.7114 135.83 28.71H236.628C237.412 28.7127 238.164 29.0244 238.72 29.5774C239.276 30.1305 239.591 30.8804 239.598 31.6645V173.351C239.598 174.14 239.285 174.896 238.729 175.455C238.172 176.014 237.417 176.329 236.628 176.332ZM135.83 28.8144C135.074 28.8158 134.35 29.1165 133.816 29.6507C133.282 30.1849 132.981 30.9091 132.979 31.6645V173.351C132.981 174.106 133.282 174.831 133.816 175.365C134.35 175.899 135.074 176.2 135.83 176.201H236.628C237.383 176.2 238.107 175.899 238.642 175.365C239.176 174.831 239.477 174.106 239.478 173.351V31.6645C239.477 30.9091 239.176 30.1849 238.642 29.6507C238.107 29.1165 237.383 28.8158 236.628 28.8144H135.83Z" fill="#EBEBEB"/>
<path d="M195.129 89.2151C207.517 89.2151 217.559 79.1726 217.559 66.7847C217.559 54.3968 207.517 44.3544 195.129 44.3544C182.741 44.3544 172.698 54.3968 172.698 66.7847C172.698 79.1726 182.741 89.2151 195.129 89.2151Z" fill="#E0E0E0"/>
<path d="M193.913 89.2151C206.3 89.2151 216.343 79.1726 216.343 66.7847C216.343 54.3968 206.3 44.3544 193.913 44.3544C181.525 44.3544 171.482 54.3968 171.482 66.7847C171.482 79.1726 181.525 89.2151 193.913 89.2151Z" fill="#F0F0F0"/>
<path d="M193.918 85.0547C189.6 85.059 185.421 83.5342 182.121 80.7507C178.821 77.9673 176.613 74.105 175.889 69.8489C175.165 65.5927 175.971 61.2176 178.165 57.4994C180.359 53.7813 183.799 50.9602 187.875 49.5366C191.951 48.1129 196.399 48.1787 200.431 49.7222C204.463 51.2656 207.819 54.1871 209.902 57.9685C211.985 61.7499 212.662 66.1469 211.813 70.3798C210.963 74.6127 208.642 78.408 205.261 81.0927L205.198 81.1449C201.986 83.6826 198.011 85.0604 193.918 85.0547Z" fill="#FAFAFA"/>
<path d="M194.643 68.6013C194.407 68.72 194.141 68.7688 193.877 68.742C193.614 68.7152 193.364 68.6139 193.156 68.4499L183.927 61.1419C183.772 61.0327 183.641 60.893 183.542 60.7314C183.443 60.5698 183.378 60.3897 183.351 60.2021C183.324 60.0146 183.335 59.8234 183.384 59.6405C183.434 59.4575 183.52 59.2865 183.638 59.1379C183.755 58.9893 183.902 58.8663 184.069 58.7763C184.236 58.6864 184.419 58.6314 184.608 58.6148C184.796 58.5981 184.987 58.6201 185.167 58.6795C185.347 58.7388 185.513 58.8343 185.654 58.96L193.85 65.4536L198.417 60.2806C198.661 60.0037 199.005 59.835 199.373 59.8115C199.741 59.788 200.103 59.9117 200.38 60.1553C200.657 60.399 200.826 60.7427 200.849 61.1107C200.873 61.4788 200.749 61.8412 200.505 62.1181L195.066 68.2777C194.946 68.4103 194.803 68.52 194.643 68.6013Z" fill="#E0E0E0"/>
<path d="M34.7339 120.848H102.536L96.3403 199.613H28.5377L34.7339 120.848Z" fill="#F0F0F0"/>
<path d="M31.8003 120.848H99.5976L93.4015 199.613H25.6041L31.8003 120.848Z" fill="#F5F5F5"/>
<path d="M83.2642 188.62L87.7325 131.836H41.9374L37.4691 188.62H83.2642Z" fill="white"/>
<path d="M29.8741 103.455L144.406 103.455V46.1448L29.8741 46.1448V103.455Z" fill="#E6E6E6"/>
<path d="M27.854 103.455L142.386 103.455V46.1448L27.854 46.1448V103.455Z" fill="#F5F5F5"/>
<path d="M138.768 99.3888V50.2164L31.4766 50.2164V99.3888H138.768Z" fill="#FAFAFA"/>
<path d="M58.6101 99.3888L50.848 50.2164H42.235L49.9971 99.3888H58.6101Z" fill="white"/>
<path d="M78.869 99.3888L71.1068 50.2164H54.7317L62.4938 99.3888H78.869Z" fill="white"/>
<path d="M105.945 99.3888L98.1829 50.2164H89.5699L97.3321 99.3888H105.945Z" fill="white"/>
<path d="M33.0009 99.3888V50.2164H31.4766L31.4766 99.3888H33.0009Z" fill="#E6E6E6"/>
<path d="M29.3521 90.1285L140.888 90.1285V84.6684L29.3521 84.6684V90.1285Z" fill="#F5F5F5"/>
<path d="M122.962 199.613H146.536V123.192H122.962L122.962 199.613Z" fill="#E6E6E6"/>
<path d="M129.258 199.613H122.962V189.063H135.856L129.258 199.613Z" fill="#F5F5F5"/>
<path d="M214.182 199.613H237.755V123.192H214.182V199.613Z" fill="#E6E6E6"/>
<path d="M122.962 195.98H219.673V123.192L122.962 123.192L122.962 195.98Z" fill="#F5F5F5"/>
<path d="M213.378 199.613H219.673V189.063H206.78L213.378 199.613Z" fill="#F5F5F5"/>
<path d="M127.843 168.533H214.787V150.315H127.843V168.533Z" fill="#F0F0F0"/>
<path d="M127.843 190.64H214.787V172.422H127.843V190.64Z" fill="#F0F0F0"/>
<path d="M140.799 152.262H201.837C202.771 152.262 203.668 151.891 204.33 151.231C204.991 150.57 205.364 149.674 205.365 148.739H137.286C137.286 149.671 137.656 150.566 138.314 151.227C138.973 151.887 139.866 152.259 140.799 152.262Z" fill="#F5F5F5"/>
<path d="M127.843 146.421H214.787V128.203H127.843V146.421Z" fill="#F0F0F0"/>
<path d="M140.799 130.156H201.837C202.771 130.156 203.668 129.784 204.33 129.124C204.991 128.463 205.364 127.567 205.365 126.632H137.286C137.286 127.565 137.656 128.459 138.314 129.12C138.973 129.78 139.866 130.153 140.799 130.156Z" fill="#F5F5F5"/>
<path d="M140.799 174.374H201.837C202.772 174.374 203.67 174.002 204.332 173.341C204.993 172.679 205.365 171.781 205.365 170.845H137.286C137.286 171.779 137.656 172.674 138.314 173.335C138.972 173.996 139.866 174.37 140.799 174.374Z" fill="#F5F5F5"/>
<path d="M130.5 223.186C186.397 223.186 231.711 220.541 231.711 217.277C231.711 214.014 186.397 211.368 130.5 211.368C74.603 211.368 29.2894 214.014 29.2894 217.277C29.2894 220.541 74.603 223.186 130.5 223.186Z" fill="#F5F5F5"/>
<path d="M74.8218 61.8229C88.9512 59.4102 99.0344 49.4259 97.3434 39.5222C95.6523 29.6186 82.8272 23.5459 68.6978 25.9585C54.5684 28.3712 44.4852 38.3555 46.1762 48.2592C47.8673 58.1628 60.6924 64.2355 74.8218 61.8229Z" fill="#9C33B0"/>
<path opacity="0.3" d="M74.8218 61.8229C88.9512 59.4102 99.0344 49.4259 97.3434 39.5222C95.6523 29.6186 82.8272 23.5459 68.6978 25.9585C54.5684 28.3712 44.4852 38.3555 46.1762 48.2592C47.8673 58.1628 60.6924 64.2355 74.8218 61.8229Z" fill="white"/>
<path d="M117.972 44.4483C119.538 47.6795 117.032 52.0852 112.418 54.2932C107.803 56.5013 102.818 55.6609 101.273 52.4297C99.7281 49.1985 102.218 44.7876 106.827 42.5848C111.437 40.3819 116.406 41.238 117.972 44.4483Z" fill="#9C33B0"/>
<path opacity="0.5" d="M117.972 44.4483C119.538 47.6795 117.032 52.0852 112.418 54.2932C107.803 56.5013 102.818 55.6609 101.273 52.4297C99.7281 49.1985 102.218 44.7876 106.827 42.5848C111.437 40.3819 116.406 41.238 117.972 44.4483Z" fill="white"/>
<path d="M126.225 57.2321C126.674 59.1687 124.789 61.2567 122.023 61.8935C119.256 62.5304 116.651 61.4759 116.208 59.5341C115.764 57.5922 117.643 55.5095 120.384 54.8726C123.124 54.2358 125.802 55.2902 126.225 57.2321Z" fill="#9C33B0"/>
<path opacity="0.6" d="M126.225 57.2321C126.674 59.1687 124.789 61.2567 122.023 61.8935C119.256 62.5304 116.651 61.4759 116.208 59.5341C115.764 57.5922 117.643 55.5095 120.384 54.8726C123.124 54.2358 125.802 55.2902 126.225 57.2321Z" fill="white"/>
<path d="M66.8578 58.9286C66.5342 58.9286 66.2105 58.9286 65.8921 58.8816C64.9612 58.8552 64.0624 58.5355 63.3238 57.9681C62.8963 57.5902 62.6093 57.0787 62.5095 56.5169C61.9197 56.5169 61.3298 56.4752 60.7347 56.4438C59.4297 56.3655 58.0778 56.2194 57.1277 55.3424C56.8429 55.0728 56.6141 54.7495 56.4547 54.3912C56.2952 54.0329 56.2082 53.6465 56.1986 53.2544C55.6676 53.1182 55.1737 52.8652 54.7529 52.5139C54.3321 52.1626 53.995 51.7219 53.766 51.2238C53.6022 50.7894 53.5324 50.3252 53.5612 49.8618C53.59 49.3984 53.7167 48.9464 53.9331 48.5355C53.3611 48.0994 52.8502 47.5885 52.414 47.0165C51.4892 45.7705 51.0078 44.2509 51.0464 42.6996C50.7852 42.5777 50.5761 42.3667 50.4565 42.1045C50.2477 41.5825 50.514 40.9979 51.2082 40.4289C51.3492 40.3088 51.5005 40.1888 51.6467 40.0739C52.0619 39.1703 52.6656 38.366 53.4174 37.715C54.1692 37.064 55.0517 36.5815 56.0054 36.2999C57.5714 35.851 59.2053 35.9762 60.7921 36.1015H60.8705C62.0281 35.8858 63.1978 35.7411 64.3731 35.6683C65.0313 35.5154 65.7093 35.4661 66.3828 35.5221C67.0616 35.2102 67.6427 34.7194 68.0636 34.1023C68.2756 33.7696 68.4606 33.4204 68.6169 33.0583C68.7787 32.6705 68.9725 32.2968 69.1963 31.9412C70.1673 30.4848 72.0517 29.6548 74.8078 29.4721C78.0756 29.2633 80.7221 29.8271 82.6744 31.1477C83.4121 31.6411 84.0424 32.2785 84.5275 33.0217C85.5057 33.077 86.4735 33.2523 87.4089 33.5437C88.7296 33.9248 91.8042 35.0836 91.7885 37.6049C91.7296 38.4056 91.4885 39.1822 91.0838 39.8756L89.9928 42.1202C90.0487 42.4054 90.0715 42.6962 90.0607 42.9867C90.269 43.0721 90.4713 43.1715 90.6662 43.2842C91.5536 43.8062 92.4723 44.7406 92.3993 45.8942C92.3523 46.6459 91.8773 47.3715 91.016 48.0971C89.9264 48.979 88.6893 49.6612 87.362 50.112C86.9422 50.9202 86.4532 51.6904 85.9004 52.414C84.8303 53.813 83.045 55.6191 80.6177 56.2716C79.0827 56.6979 77.4441 56.5398 76.0189 55.8279C75.5543 56.1359 75.0897 56.4073 74.6669 56.637C71.8481 58.1612 69.2433 58.9286 66.8578 58.9286ZM62.9741 56.5169C63.0709 56.9433 63.2991 57.3286 63.6266 57.6183C64.2918 58.1233 65.099 58.4063 65.9338 58.4274C68.4812 58.6571 71.3313 57.9054 74.4111 56.2403C74.7661 56.0471 75.1524 55.8279 75.5387 55.5773C75.1119 55.3013 74.7299 54.9615 74.4059 54.5699C74.2274 54.3687 74.0971 54.1295 74.0248 53.8704C73.341 53.9748 72.652 54.0531 71.9629 54.1105C70.8892 54.6038 69.7555 54.9548 68.5908 55.1545C68.0464 55.5025 67.4607 55.7813 66.8473 55.9845C65.5926 56.366 64.2852 56.5457 62.9741 56.5169ZM63.7884 54.9092C63.4998 55.0447 63.2594 55.265 63.0994 55.5408C63.0113 55.7019 62.958 55.8798 62.9428 56.0628C64.2169 56.0858 65.4867 55.9097 66.7064 55.5408C66.9204 55.4677 67.1397 55.3842 67.3641 55.285C66.1593 55.3776 64.9477 55.2502 63.7884 54.9092ZM56.6631 53.3954C56.7124 54.0111 56.9898 54.5863 57.4409 55.0083C58.2761 55.7809 59.5289 55.9114 60.7608 55.9845C61.3403 56.0158 61.9144 56.0471 62.4834 56.0576C62.4988 55.7993 62.5719 55.5478 62.6975 55.3215C62.8243 55.0834 63.0026 54.8766 63.2194 54.716C63.0159 54.6377 62.8175 54.5542 62.6244 54.4602V54.5281C62.5735 54.6968 62.4808 54.8499 62.3548 54.9731C62.2289 55.0963 62.0738 55.1857 61.904 55.2328C61.6722 55.3079 61.4258 55.3267 61.1852 55.2877C60.9447 55.2487 60.7169 55.1529 60.5207 55.0083C60.0279 54.5664 59.6956 53.9734 59.5759 53.3223C58.9592 53.4814 58.3227 53.55 57.6862 53.5259C57.3421 53.5119 56.9998 53.4683 56.6631 53.3954ZM76.4104 55.5356C77.6852 56.102 79.1173 56.2072 80.4611 55.8331C82.7631 55.2171 84.4701 53.4841 85.4984 52.1426C85.937 51.5674 86.3347 50.9621 86.6886 50.3312C86.0831 50.5191 85.4671 50.681 84.8407 50.8167C83.9623 51.5497 82.9231 52.0649 81.8079 52.32C80.817 52.5875 79.8089 52.7863 78.7907 52.9151C78.6259 53.2115 78.4428 53.4975 78.2426 53.7712C77.7255 54.4494 77.1076 55.0444 76.4104 55.5356ZM74.479 53.7921C74.5383 53.9733 74.6342 54.1403 74.7609 54.2828C75.0968 54.6879 75.5014 55.0307 75.9562 55.2954C76.6871 54.8036 77.3339 54.1973 77.872 53.4998C77.9973 53.3327 78.1121 53.1605 78.2217 52.9778L77.2352 53.0717C76.3381 53.3881 75.4161 53.629 74.479 53.7921ZM60.03 53.1918C60.1277 53.7499 60.4044 54.2611 60.8183 54.6482C60.9559 54.7456 61.1142 54.8099 61.2808 54.8362C61.4474 54.8624 61.6178 54.8499 61.7787 54.7995C61.8754 54.7725 61.964 54.7222 62.0368 54.653C62.1095 54.5839 62.1643 54.498 62.1963 54.4028C62.2123 54.3501 62.2227 54.2959 62.2276 54.241C61.7542 53.9844 61.3081 53.68 60.8966 53.3327C60.7661 53.2231 60.6408 53.1083 60.5207 52.9934C60.3432 53.0665 60.1762 53.1291 60.03 53.1918ZM64.6654 54.6325C65.9273 54.8788 67.2229 54.8982 68.4917 54.6899C68.6725 54.5688 68.8468 54.4381 69.0137 54.2984H68.8518C67.7139 54.3558 66.5394 54.4133 65.4066 54.5229C65.1506 54.5438 64.8961 54.5804 64.6445 54.6325H64.6654ZM69.7288 54.2619L69.4939 54.4863C69.8019 54.408 70.1151 54.3245 70.4178 54.2253L69.7288 54.2619ZM62.6975 53.9591C63.0561 54.1369 63.4278 54.2869 63.8093 54.408C64.3124 54.2208 64.8398 54.1065 65.3753 54.0687C66.5133 53.9591 67.6982 53.9017 68.8414 53.8495L69.5461 53.813C69.7368 53.602 69.9113 53.3769 70.0681 53.1396C67.8621 53.0585 65.6531 53.116 63.4543 53.3118C63.331 53.3062 63.2078 53.3255 63.0922 53.3686C62.9765 53.4116 62.8706 53.4775 62.781 53.5624C62.7103 53.6825 62.6742 53.8198 62.6766 53.9591H62.6975ZM70.6057 53.15C70.4716 53.3687 70.3252 53.5796 70.1673 53.7816C70.731 53.7503 71.2948 53.7138 71.8533 53.6616C72.177 53.5154 72.485 53.3588 72.7877 53.1866C72.1196 53.1866 71.4566 53.1866 70.7937 53.1552L70.6057 53.15ZM60.9488 52.769L61.1889 52.9778C61.5141 53.2569 61.8635 53.5067 62.2329 53.7242C62.2486 53.5748 62.3006 53.4314 62.3843 53.3066C62.5062 53.1615 62.659 53.0454 62.8314 52.9669C63.0039 52.8883 63.1918 52.8492 63.3813 52.8525C65.6863 52.6535 68.0015 52.5977 70.3134 52.6854C70.423 52.48 70.5138 52.2651 70.5849 52.0434C70.097 52.197 69.5921 52.2899 69.0815 52.32C66.7257 52.531 64.3517 52.3973 62.0345 51.9233C61.6989 52.2462 61.3276 52.5299 60.9279 52.769H60.9488ZM73.6595 53.1918L73.5812 53.244L73.1009 53.5363C73.4193 53.4998 73.7325 53.4528 74.0457 53.4006C74.0631 53.3287 74.0875 53.2588 74.1188 53.1918H73.6595ZM74.7035 53.1918C74.6648 53.2288 74.6314 53.271 74.6043 53.3171L75.2724 53.1813L74.7035 53.1918ZM56.6997 52.9308C57.0423 53.0115 57.3919 53.0587 57.7437 53.0717C58.3395 53.0956 58.9357 53.0323 59.5133 52.8838C59.4036 52.3983 59.294 51.8398 59.2001 51.2813L59.1061 51.1194C58.5841 50.942 58.0986 50.754 57.6027 50.5452C57.0942 51.2116 56.7831 52.0075 56.7049 52.842C56.7049 52.842 56.6527 52.8942 56.6527 52.9256L56.6997 52.9308ZM54.288 48.807C54.1142 49.1526 54.0138 49.5304 53.9932 49.9167C53.9725 50.303 54.032 50.6894 54.168 51.0516C54.3613 51.4729 54.644 51.847 54.9965 52.1481C55.3489 52.4492 55.7627 52.6699 56.209 52.7951C56.2858 51.9136 56.6037 51.0703 57.1277 50.3573C56.898 50.2581 56.6788 50.1537 56.4543 50.0441C55.6986 49.6936 54.9739 49.2798 54.288 48.807ZM59.7899 52.2C59.8265 52.3827 59.8682 52.5602 59.9048 52.722L60.1553 52.6228C60.03 52.5027 59.9047 52.3618 59.7899 52.2ZM70.8198 52.6854C71.7072 52.6854 72.605 52.722 73.5028 52.722C74.4246 52.1065 75.2878 51.4076 76.0815 50.634C75.6794 50.5601 75.282 50.4625 74.8914 50.3417C74.0637 50.0936 73.2773 49.7242 72.558 49.2455C72.5491 49.7148 72.4363 50.1763 72.2279 50.5969C72.0194 51.0175 71.7203 51.3867 71.3522 51.678L71.133 51.8241C71.0569 52.1326 70.9521 52.4332 70.8198 52.722V52.6854ZM76.6557 50.7175C75.9297 51.4476 75.1459 52.118 74.312 52.722H74.4686C74.7792 52.4816 75.1338 52.3042 75.5126 52.2C76.6592 51.848 77.8274 51.5707 79.01 51.37C79.1405 51.0516 79.2605 50.7175 79.3806 50.373C78.521 50.735 77.5794 50.8577 76.6557 50.7279V50.7175ZM78.7907 51.8607C77.7232 52.0487 76.6684 52.3033 75.6326 52.6228L75.4186 52.7011C75.9928 52.7011 76.5618 52.6541 77.136 52.6124C77.7034 52.4044 78.2547 52.1549 78.7855 51.8659L78.7907 51.8607ZM59.7377 51.3387C59.9856 51.7305 60.2705 52.0975 60.5886 52.4349C60.9082 52.257 61.2091 52.0471 61.4864 51.8085C60.8966 51.678 60.3119 51.5109 59.7377 51.3335V51.3387ZM79.1457 52.2L79.0413 52.4192C79.9317 52.3005 80.8139 52.1261 81.6826 51.8972C82.4125 51.7102 83.1146 51.4276 83.7706 51.0568C82.9249 51.2134 82.0793 51.3491 81.2337 51.4848L79.9861 51.6832L79.7094 51.8711C79.5267 51.9755 79.344 52.0904 79.1457 52.2ZM62.4156 51.5318C64.5973 51.9512 66.8269 52.0636 69.0397 51.8659C69.6196 51.8413 70.1904 51.7141 70.7258 51.4901C70.8343 50.7556 70.8536 50.0107 70.7832 49.2716C70.7832 49.021 70.7832 48.7496 70.7467 48.5199C70.3545 48.8801 69.909 49.1777 69.426 49.4021C68.6582 49.7292 67.8301 49.8912 66.9956 49.8777C66.1611 49.8642 65.3388 49.6755 64.5819 49.3238C64.3938 49.2978 64.2073 49.2612 64.0233 49.2141L63.8406 49.5326C63.439 50.2483 62.9612 50.9186 62.4156 51.5318ZM59.5446 50.7906C60.3146 51.0408 61.0969 51.2516 61.8883 51.4222C62.4972 50.7842 63.0233 50.0722 63.4543 49.3029L63.5796 49.0836C63.058 48.8996 62.5657 48.6411 62.118 48.3163C61.1734 48.4559 60.2527 48.7265 59.3828 49.1202C59.4036 49.6996 59.4663 50.2581 59.5446 50.7906ZM79.9026 50.2112C79.8765 50.2738 79.8556 50.3417 79.8295 50.4095C79.7251 50.7071 79.6259 50.9942 79.5163 51.276L79.8034 51.2291C80.1561 50.9685 80.4767 50.6671 80.7587 50.3312L79.9026 50.2112ZM71.2008 48.0657V48.2276C71.2008 48.5669 71.2008 48.9062 71.2374 49.2716C71.2896 49.9091 71.2896 50.5498 71.2374 51.1873C71.534 50.8928 71.7662 50.5397 71.9189 50.1506C72.0717 49.7614 72.1418 49.3448 72.1248 48.927C71.8021 48.659 71.5176 48.3482 71.2791 48.0031L71.2008 48.0657ZM81.3015 50.3834C81.1201 50.635 80.9156 50.8692 80.6908 51.0829L81.1658 51.0098C82.3455 50.8219 83.4992 50.6392 84.6162 50.3991C84.6476 50.3991 84.6737 50.3417 84.705 50.3103C84.1489 50.413 83.5843 50.4619 83.0189 50.4565C82.4447 50.4565 81.8705 50.4356 81.3015 50.3834ZM57.8637 50.1746L58.7668 50.5244C58.6415 50.2425 58.5319 49.9554 58.4327 49.6683C58.2284 49.8199 58.038 49.9893 57.8637 50.1746ZM77.0733 50.3051C77.7204 50.3483 78.3694 50.2559 78.9786 50.0337L78.4566 49.9188C78.1643 49.851 77.8877 49.7727 77.6162 49.6944C77.4457 49.8997 77.2647 50.1033 77.0733 50.3051ZM72.558 48.6869C73.2953 49.2383 74.1241 49.6553 75.0062 49.9188C75.4831 50.0701 75.9721 50.1801 76.4678 50.2477C76.6975 50.018 76.9167 49.7779 77.136 49.5378C75.8228 49.1286 74.6258 48.4129 73.6438 47.4498C73.1819 46.9719 72.7931 46.4284 72.4902 45.8368C72.3872 46.1189 72.2669 46.3943 72.13 46.6616C72.2865 47.0999 72.407 47.5503 72.4902 48.0083C72.5296 48.2325 72.5522 48.4594 72.558 48.6869ZM85.4462 50.112L85.3679 50.2164C85.9282 50.0807 86.4711 49.9241 86.9966 49.7466C87.6549 48.4533 88.1343 47.0766 88.4216 45.6541C88.2156 45.7968 87.9972 45.9208 87.7691 46.0247C87.8931 46.4946 87.9163 46.9855 87.8371 47.465C87.758 47.9445 87.5782 48.4019 87.3098 48.807C86.8461 49.4322 86.1922 49.8901 85.4462 50.112ZM81.5782 49.9345C82.0532 49.971 82.5335 49.9919 83.0137 49.9919C83.7345 50.0012 84.4531 49.9098 85.1487 49.7205C85.1904 49.6474 85.2322 49.5743 85.2687 49.496C85.479 49.0255 85.5851 48.515 85.5797 47.9997C85.5743 47.4843 85.4575 46.9762 85.2374 46.5102C84.3903 46.483 83.5478 46.3746 82.7214 46.1866L82.2725 47.0061C82.1315 47.2619 81.9906 47.5281 81.8444 47.7786C81.9016 47.976 81.9366 48.1791 81.9488 48.3842C81.9741 48.9289 81.8456 49.4697 81.5782 49.9449V49.9345ZM54.5021 48.3685C55.1798 48.8411 55.8977 49.2533 56.6475 49.6004C56.9032 49.7257 57.1695 49.8405 57.4148 49.9502C57.6646 49.6657 57.9487 49.4132 58.2604 49.1985H58.297C58.0393 48.2202 57.9598 47.2035 58.0621 46.197C57.2215 46.3522 56.4198 46.6715 55.7026 47.1366C55.2172 47.4676 54.8079 47.8982 54.5021 48.3998V48.3685ZM80.268 49.7727L81.0771 49.8719C81.3641 49.432 81.5081 48.9142 81.4895 48.3894V48.3476C81.1587 48.8924 80.7468 49.3835 80.268 49.804V49.7727ZM58.866 49.3655C58.8973 49.4699 58.9338 49.5795 58.9704 49.6839C58.9704 49.5639 58.9704 49.4438 58.9704 49.3185L58.866 49.3655ZM77.9868 49.282L78.5976 49.4438C78.9369 49.5221 79.2762 49.5952 79.6416 49.6578C79.9896 48.6556 80.3271 47.6447 80.6542 46.625C80.5394 46.5102 80.4246 46.4006 80.3097 46.3066C79.5424 47.361 78.7855 48.3685 77.9712 49.3133L77.9868 49.282ZM88.9802 45.1947C88.7295 46.6832 88.2763 48.1304 87.6334 49.496C88.7509 49.0728 89.7927 48.4717 90.7184 47.716C91.4962 47.0739 91.8929 46.458 91.9295 45.8368C91.9921 44.892 91.1934 44.0881 90.4313 43.6496C90.2895 43.5683 90.1431 43.4951 89.9928 43.4304C89.9928 43.4982 89.9615 43.5713 89.9406 43.6392C89.7669 44.2476 89.4292 44.7966 88.9645 45.2261L88.9802 45.1947ZM85.7438 46.4789C86.1391 47.4318 86.1559 48.4998 85.7907 49.4647C86.2523 49.2578 86.6518 48.9339 86.9496 48.5251C87.1747 48.1833 87.3271 47.7988 87.3971 47.3956C87.4672 46.9924 87.4534 46.579 87.3567 46.1813C87.1636 46.244 86.9652 46.3014 86.7669 46.3484C86.4258 46.4313 86.0783 46.4855 85.7281 46.5102L85.7438 46.4789ZM65.9861 49.2611C67.0763 49.5178 68.2206 49.4096 69.2433 48.9531C69.8153 48.6863 70.331 48.3125 70.7623 47.8517C70.7714 47.5876 70.7975 47.3243 70.8407 47.0635C70.8146 46.98 70.7832 46.8965 70.7623 46.8129C70.7306 46.7122 70.7062 46.6093 70.6893 46.505C70.2142 46.6668 69.734 46.8182 69.2538 46.9539C68.5919 48.0109 67.5734 48.7961 66.3828 49.1672C66.2479 49.217 66.1102 49.2588 65.9704 49.2924L65.9861 49.2611ZM80.9779 47.027C80.7482 47.7473 80.5133 48.4572 80.268 49.1672C80.6948 48.7324 81.0617 48.2426 81.359 47.7108C81.2568 47.4764 81.1234 47.2569 80.9622 47.0583L80.9779 47.027ZM72.96 45.6384C73.2305 46.1781 73.5826 46.6729 74.004 47.1053C74.9858 48.0584 76.1868 48.7557 77.5014 49.1358C78.3603 48.1354 79.1653 47.0899 79.913 46.0038C79.7564 45.8994 79.6155 45.8055 79.4902 45.7324C78.778 45.5513 78.0983 45.2608 77.4753 44.8711C76.7685 44.6634 76.0395 44.5408 75.3037 44.5057L75.0427 44.6414C74.3433 45.0434 73.649 45.3722 72.9443 45.6698L72.96 45.6384ZM58.558 46.0821C58.4515 47.0269 58.5134 47.983 58.7407 48.9062L58.9129 48.8122C58.8613 47.8808 58.8875 46.9466 58.9913 46.0195C58.8294 46.0665 58.6885 46.0874 58.5423 46.1135L58.558 46.0821ZM64.6915 48.8435C65.216 48.908 65.748 48.869 66.2575 48.7287C67.1613 48.4576 67.9573 47.9099 68.5334 47.1627C67.3305 47.479 66.1105 47.7265 64.8794 47.9039H64.6863L64.3052 48.6504L64.6915 48.8435ZM59.4715 45.9621C59.3672 46.8279 59.3341 47.7008 59.3723 48.5721C60.1072 48.2553 60.8761 48.0241 61.6639 47.883L61.4499 47.6742C60.9354 47.1664 60.5055 46.5796 60.1762 45.936L59.4715 45.9621ZM63.35 48.0971C63.5379 48.2223 63.7258 48.3424 63.9137 48.4468C63.9972 48.2954 64.0755 48.144 64.1538 47.9927L63.8928 48.0292L63.35 48.0971ZM71.608 47.5751C71.7576 47.8078 71.9327 48.0231 72.13 48.2171C72.13 48.1701 72.13 48.1232 72.13 48.0762C72.0741 47.7769 72.0027 47.4807 71.916 47.1888L71.608 47.5751ZM51.5058 42.8771C51.508 44.2627 51.9544 45.611 52.7794 46.7242C53.1755 47.2476 53.6409 47.7147 54.1627 48.1127C54.4986 47.5716 54.9429 47.1059 55.4677 46.7451C56.2813 46.2174 57.1945 45.862 58.1508 45.7011C58.2203 45.2868 58.3215 44.8784 58.4536 44.4796C56.0762 44.2174 53.7364 43.685 51.4797 42.8927L51.5058 42.8771ZM61.0271 45.8577C61.5347 46.562 62.1392 47.1911 62.8227 47.7264C63.1568 47.6742 63.4961 47.6325 63.8354 47.5907L64.3992 47.5124C64.5506 47.2097 64.6967 46.9069 64.8429 46.6094L64.9943 46.3014C64.4003 46.1878 63.8367 45.9514 63.3395 45.6071C62.5654 45.738 61.7847 45.8269 61.0009 45.8733L61.0271 45.8577ZM65.4849 46.3431C65.4066 46.4945 65.3336 46.6511 65.2553 46.8077C65.177 46.9643 65.0517 47.2253 64.9473 47.4393C66.3073 47.2372 67.6533 46.9495 68.9771 46.578C69.6152 45.5455 70.1038 44.4277 70.4283 43.2581L70.611 42.6422C70.8886 41.6316 71.225 40.6381 71.6184 39.6668C71.561 39.5571 71.4984 39.4475 71.4305 39.3431C71.072 39.5397 70.7236 39.7539 70.3865 39.9852C70.3447 40.0374 70.303 40.0948 70.256 40.147C70.256 41.0049 70.0875 41.8544 69.7601 42.6474C68.9928 44.5422 67.4007 46.3431 65.4901 46.3431H65.4849ZM81.1449 46.5154C81.3473 46.7317 81.5226 46.9719 81.6669 47.2305C81.7452 47.0792 81.8288 46.933 81.9123 46.7816C81.9958 46.6302 82.1472 46.3431 82.2725 46.1239C82.0845 46.1239 81.8966 46.1239 81.7087 46.1239H81.312L81.1449 46.5154ZM71.3157 47.0374C71.3264 47.0717 71.3404 47.1049 71.3574 47.1366C71.467 46.9748 71.5715 46.8025 71.6706 46.6146C71.6289 46.4893 71.5819 46.3692 71.5401 46.244C71.4301 46.502 71.3495 46.7717 71.3 47.0478L71.3157 47.0374ZM70.7937 43.6183C70.5049 44.5817 70.1128 45.511 69.6244 46.3901C69.9637 46.2857 70.2978 46.1761 70.6318 46.0613C70.5992 45.4986 70.6901 44.9356 70.8981 44.4117C70.8151 44.159 70.7728 43.8947 70.7728 43.6288L70.7937 43.6183ZM80.6282 46.0091L80.79 46.15L80.8265 46.0352L80.6282 46.0091ZM85.3262 45.6489C85.4097 45.7788 85.4864 45.9129 85.5558 46.0508C85.9239 46.0448 86.2907 46.0064 86.652 45.936C86.8473 45.8945 87.0392 45.8387 87.2262 45.7689C87.1222 45.4253 86.9877 45.0916 86.8243 44.7719C86.3718 45.157 85.8537 45.4575 85.2948 45.6593L85.3262 45.6489ZM84.1725 45.9673C84.4563 46.0082 84.7421 46.0344 85.0286 46.0456C84.9816 45.9621 84.9294 45.8786 84.8772 45.8003C84.6353 45.8727 84.3896 45.932 84.1412 45.9778L84.1725 45.9673ZM71.1643 45.2104C71.1173 45.4387 71.0963 45.6716 71.1017 45.9047L71.2322 45.8525C71.2635 45.7898 71.2948 45.7272 71.3313 45.6646L71.1643 45.2104ZM66.6177 44.1664C66.2993 44.7197 66.0069 45.2887 65.7198 45.8629C67.3172 45.722 68.6587 44.1299 69.3321 42.4647C69.5591 41.9048 69.7084 41.3164 69.7758 40.716C69.1422 41.5036 68.4226 42.2179 67.6303 42.8458C67.599 42.9136 67.5677 42.9762 67.5312 43.0389C67.2905 43.4787 66.9701 43.8699 66.5863 44.1925L66.6177 44.1664ZM64.0077 45.4557C64.3626 45.6569 64.7522 45.7897 65.1561 45.8472H65.2239C65.4014 45.4818 65.5841 45.1217 65.7459 44.7615C65.5329 44.8849 65.3113 44.993 65.083 45.0851C64.7216 45.2465 64.3481 45.3791 63.9659 45.4818L64.0077 45.4557ZM81.479 45.414C81.8288 45.5184 82.1733 45.6019 82.4969 45.675C82.7475 45.2485 83.0376 44.8465 83.3634 44.4744L83.4365 44.3909C83.018 44.0907 82.5723 43.8304 82.1054 43.6131L81.954 43.848C81.7974 44.37 81.6408 44.892 81.479 45.414ZM83.8019 44.6728L83.7027 44.7771C83.4667 45.0534 83.2487 45.3445 83.0502 45.6489C83.5613 45.6206 84.0684 45.5419 84.564 45.414C84.3326 45.1463 84.0775 44.8999 83.8019 44.678V44.6728ZM58.8973 44.5475C58.773 44.903 58.677 45.2678 58.6102 45.6384C58.7511 45.6384 58.8973 45.5967 59.0382 45.5758C59.0904 45.2417 59.1531 44.9129 59.2261 44.5788L58.8973 44.5475ZM72.2292 45.2469C72.1061 45.3517 71.9941 45.4689 71.8951 45.5967L72.1509 45.4975L72.2292 45.2469ZM87.174 44.4326C87.3696 44.8014 87.5303 45.1876 87.6543 45.5863C87.9764 45.4297 88.2766 45.2314 88.5469 44.9964C88.5939 44.6884 88.6356 44.3752 88.667 44.0672C88.5619 44.1188 88.449 44.1523 88.3329 44.1664C88.2254 44.1756 88.1175 44.1551 88.0209 44.1073C87.9243 44.0594 87.8426 43.986 87.7848 43.895L87.7221 43.8062L87.8579 43.3834C87.7038 43.7297 87.4998 44.0515 87.2523 44.3387L87.174 44.4326ZM59.6855 44.6414C59.6176 44.9337 59.5602 45.2313 59.5133 45.5288L59.9831 45.4871C59.8717 45.2156 59.7708 44.9337 59.6803 44.6414H59.6855ZM79.6677 45.3618C79.8765 45.414 80.0853 45.461 80.2941 45.5027C79.2509 45.103 78.3958 44.3262 77.8981 43.326C77.8056 43.1173 77.7323 42.9006 77.6789 42.6787C77.3931 43.0417 77.0635 43.3678 76.6975 43.6496C76.9703 43.9806 77.2925 44.2676 77.6527 44.5005C78.3143 44.7007 78.953 44.9702 79.5581 45.3044L79.6677 45.3618ZM60.2597 44.6571C60.3961 44.9238 60.546 45.1834 60.7086 45.4349H60.7504C61.4238 45.3931 62.1024 45.3461 62.7758 45.2469L62.3843 44.9598L61.9928 44.6675C61.4394 44.6832 60.86 44.6832 60.2545 44.6571H60.2597ZM81.0144 45.2626H81.051L81.0875 45.1426C81.0562 45.1895 81.0301 45.2261 81.0092 45.2626H81.0144ZM84.1464 44.3596C84.4717 44.6323 84.7674 44.9384 85.0286 45.2731C85.6077 45.0765 86.1405 44.7639 86.5946 44.3543C86.4123 44.0395 86.2082 43.7377 85.9839 43.4513L85.8951 43.3364C85.2477 43.5646 84.6504 43.9155 84.136 44.37L84.1464 44.3596ZM72.7303 45.1895L72.7616 45.2574C73.2836 45.0381 73.7795 44.8085 74.2754 44.5631C73.7687 44.5859 73.2702 44.699 72.8034 44.8972C72.7668 44.9964 72.7459 45.0903 72.7198 45.1895H72.7303ZM71.3783 44.4692C71.4514 44.7197 71.5401 44.9912 71.6289 45.2156C71.7265 45.0962 71.8368 44.9877 71.9577 44.892L72.0882 44.7824C71.9726 44.4094 71.8905 44.0268 71.8429 43.6392C71.6535 43.8969 71.4941 44.1753 71.3679 44.4692H71.3783ZM62.6975 44.6101C62.9376 44.7928 63.1777 44.9755 63.4178 45.1321C63.9256 45.0369 64.4224 44.89 64.9003 44.6936C65.3862 44.4964 65.8387 44.2252 66.2418 43.8898L66.3984 43.6183C65.2349 44.1799 63.9756 44.5164 62.687 44.6101H62.6975ZM78.1069 42.4125C78.1496 42.6625 78.2232 42.9063 78.3261 43.1381C78.8021 44.052 79.6085 44.7501 80.5812 45.0903C80.9048 44.6153 81.2232 44.1351 81.5417 43.6548L81.62 43.3938L81.3537 43.2842C80.3062 42.8661 79.2128 42.5735 78.0965 42.4125H78.1069ZM89.1629 43.6548C89.1629 43.9002 89.1263 44.1455 89.095 44.3909C89.276 44.1364 89.4103 43.8519 89.4917 43.5504C89.5164 43.4648 89.5356 43.3776 89.5491 43.2894L89.4291 43.2529C89.3548 43.3984 89.2618 43.5335 89.1524 43.6548H89.1629ZM72.9339 42.543C72.9339 42.6944 72.96 42.8405 72.9652 42.9919C72.9812 43.451 72.955 43.9105 72.8869 44.3648C73.4003 44.1922 73.9374 44.1007 74.479 44.0933C74.7121 44.0933 74.9471 44.0933 75.1837 44.0933C75.4866 43.9348 75.7811 43.7605 76.0659 43.5713C75.8639 43.2489 75.7142 42.8965 75.6222 42.5273C75.6222 42.4438 75.5804 42.3603 75.5647 42.282C74.6816 42.2881 73.801 42.3755 72.9339 42.543ZM72.2501 43.1172C72.2719 43.5224 72.3331 43.9245 72.4327 44.3178C72.4965 43.8841 72.521 43.4456 72.5058 43.0076C72.5058 42.9606 72.5058 42.9084 72.5058 42.8562C72.4119 42.9397 72.3284 43.0284 72.2501 43.1172ZM75.9823 44.1612C76.1964 44.1612 76.4104 44.2186 76.6244 44.2551C76.5201 44.1518 76.4225 44.042 76.3321 43.9263L75.9823 44.1612ZM60.03 44.1873C60.4789 44.2116 60.9122 44.2221 61.3298 44.2186C60.9218 43.9608 60.4682 43.7836 59.9935 43.6966H59.9465C59.9465 43.6966 59.9465 43.7436 59.9465 43.7697C59.9465 43.9002 60.0039 44.0307 60.0353 44.156C60.03 44.1455 60.03 44.1664 60.03 44.1873ZM60.1031 43.2268C60.8387 43.3935 61.5273 43.7235 62.118 44.1925C63.8102 44.1628 65.4641 43.6836 66.91 42.804C67.0509 42.5952 67.2023 42.3916 67.3589 42.1933C67.5536 41.4046 67.6431 40.5937 67.6251 39.7816C67.6323 39.0432 67.711 38.3072 67.86 37.584C67.3523 37.4886 66.8331 37.471 66.3201 37.5318C65.758 37.7322 65.2103 37.9712 64.6811 38.2469C63.6656 38.76 62.7443 39.4412 61.9562 40.2618C61.1517 41.1184 60.5254 42.1262 60.1136 43.2268H60.1031ZM59.0591 44.109H59.3201L59.4141 43.7853C59.4117 43.7523 59.4117 43.7192 59.4141 43.6862C59.3836 43.6967 59.3553 43.7126 59.3306 43.7331C59.2128 43.8329 59.1244 43.9628 59.0748 44.109H59.0591ZM82.3455 43.232C82.8403 43.468 83.3121 43.7494 83.7549 44.0724C84.281 43.5972 84.892 43.2253 85.5558 42.9763C85.0338 42.4543 84.1986 41.8279 83.3791 42.1724C82.9469 42.4229 82.5941 42.7901 82.3612 43.232H82.3455ZM51.4953 42.4073L51.6154 42.4543C53.872 43.2574 56.214 43.7969 58.5945 44.062C58.6796 43.8121 58.8312 43.5901 59.033 43.4199C59.1135 43.3618 59.2013 43.3145 59.294 43.279C59.2731 43.1259 59.2575 42.9745 59.247 42.8249C59.2385 42.5755 59.2507 42.3258 59.2836 42.0784C59.2631 41.2546 59.3849 40.4335 59.6438 39.6511C60.092 38.4206 60.9344 37.3728 62.0397 36.6705C61.6639 36.6705 61.2828 36.6235 60.9122 36.5974C57.6872 37.1504 54.6339 38.4421 51.9912 40.3715C51.9251 40.5281 51.8625 40.6899 51.8033 40.8569C51.6363 41.3588 51.5328 41.8797 51.4953 42.4073ZM86.3702 43.1955C86.5724 43.4556 86.7589 43.7275 86.9287 44.0098C87.1771 43.7138 87.3747 43.3787 87.5133 43.018C87.1272 43.038 86.7442 43.0975 86.3702 43.1955ZM88.2337 43.7175C88.2525 43.7226 88.2723 43.7226 88.2911 43.7175C88.4539 43.6848 88.6009 43.5984 88.7087 43.4721V43.0963L88.4321 43.0598L88.2337 43.7175ZM71.7802 42.9084C71.5696 43.0032 71.3995 43.1697 71.3 43.3782C71.2543 43.4856 71.2295 43.6008 71.2269 43.7175C71.3895 43.4482 71.5746 43.1933 71.7802 42.9554V42.9084ZM76.0346 42.2611C76.04 42.3074 76.0505 42.3529 76.0659 42.3968C76.1421 42.7094 76.2653 43.0086 76.4313 43.2842C76.7823 43.0091 77.0964 42.6898 77.3657 42.3342C76.922 42.282 76.4783 42.2507 76.0346 42.2455V42.2611ZM71.8586 40.2514C71.5297 41.071 71.2739 41.9427 71.0181 42.804L70.9451 43.0546C71.1454 42.749 71.4408 42.5179 71.7855 42.3968C71.7855 42.2768 71.7855 42.1619 71.822 42.0419C71.8685 41.6318 71.9577 41.2276 72.0882 40.8361C72.036 40.622 71.9473 40.4237 71.8638 40.2358L71.8586 40.2514ZM78.1226 41.9688C79.285 42.136 80.4238 42.4391 81.5156 42.8718L81.7348 42.9658L81.8287 42.6526C81.9198 42.4289 81.9363 42.1817 81.8757 41.9479C81.7505 41.6765 81.3537 41.5877 80.9831 41.5355C80.5029 41.4729 80.007 41.3998 79.5006 41.3424L79.3597 41.3998L79.3336 41.3267C79.0099 41.2902 78.6811 41.2641 78.3522 41.2432C78.3039 41.4881 78.2269 41.7264 78.1226 41.9531V41.9688ZM83.8646 41.6295C84.7624 41.6295 85.5663 42.329 86.0256 42.8301C86.5498 42.6748 87.0921 42.5888 87.6386 42.5743C87.7761 41.9086 87.7804 41.2222 87.6514 40.5547C87.5224 39.8873 87.2626 39.252 86.8869 38.6854C86.2526 38.2435 85.5759 37.8657 84.8668 37.5579L84.6945 37.5266C84.3299 38.2123 83.8373 38.8218 83.2434 39.3223C82.3816 40.0163 81.4187 40.5743 80.388 40.977L81.0457 41.0657C81.2949 41.0655 81.54 41.1292 81.7575 41.2508C81.975 41.3723 82.1577 41.5477 82.2881 41.76C82.3833 41.9899 82.4016 42.2444 82.3403 42.4856C82.566 42.1729 82.8678 41.9231 83.2173 41.76C83.4272 41.6647 83.6549 41.6149 83.8854 41.6138L83.8646 41.6295ZM59.7325 42.0993C59.7325 42.329 59.7325 42.5586 59.7743 42.7988C60.1974 41.7571 60.8078 40.8017 61.5751 39.98C62.398 39.1297 63.3579 38.4239 64.4148 37.892C63.442 38.1078 62.5201 38.5102 61.7004 39.0769C60.6839 39.7867 59.9852 40.8657 59.7534 42.0836L59.7325 42.0993ZM89.1054 41.0971C89.1054 41.1858 89.1054 41.2745 89.1054 41.3581C89.142 41.8018 89.1524 42.2402 89.1524 42.6787L89.4447 42.0732C89.3811 41.7304 89.2741 41.3971 89.1263 41.0814L89.1054 41.0971ZM88.5834 42.6213H88.7244C88.7244 42.4751 88.7244 42.3238 88.7244 42.1776L88.5834 42.6213ZM87.7743 39.3901C88.2049 40.3877 88.3249 41.4918 88.1189 42.5586L88.6409 40.9926C88.611 40.7122 88.5586 40.4347 88.4843 40.1627C88.4112 40.0687 88.3277 39.9748 88.2441 39.8808C88.1606 39.7868 87.9466 39.5258 87.7848 39.3745L87.7743 39.3901ZM72.3283 41.7182C72.3283 41.8435 72.2866 41.9688 72.2709 42.0993V42.2402L72.4171 42.2037C72.4 42.0354 72.3739 41.8681 72.3388 41.7026L72.3283 41.7182ZM51.297 40.9352C51.0203 41.2014 50.7175 41.5877 50.8585 41.9323C50.8999 42.0312 50.9687 42.1164 51.0568 42.1776C51.098 41.7569 51.1784 41.341 51.297 40.9352ZM75.523 41.3581C75.1126 41.4364 74.7093 41.5481 74.3172 41.6921C74.1397 41.76 73.9622 41.8435 73.7952 41.9323C74.3699 41.854 74.9484 41.8069 75.5282 41.7913C75.516 41.6472 75.5143 41.5024 75.523 41.3581ZM75.9719 41.7861C76.4939 41.7861 77.0472 41.8226 77.5797 41.8801C77.5764 41.6515 77.5886 41.4231 77.6162 41.1962C77.0719 41.1865 76.5276 41.2161 75.9876 41.285C75.9719 41.4515 75.9667 41.6189 75.9719 41.7861ZM72.558 40.8256C72.6606 41.133 72.7425 41.4469 72.8034 41.7652L72.9287 41.5982C73.1444 41.2799 73.2872 40.9178 73.3468 40.5379C73.4063 40.158 73.3812 39.7696 73.2732 39.4006C72.9783 39.845 72.7382 40.3235 72.558 40.8256ZM89.262 40.4602C89.4628 40.7711 89.6274 41.1038 89.7527 41.452L90.6192 39.6772C90.9867 39.0369 91.2111 38.3245 91.277 37.5892C91.277 35.3812 88.4425 34.3215 87.221 33.9665C86.4126 33.7159 85.5796 33.5531 84.7363 33.4811C85.0312 34.0574 85.1935 34.6923 85.2113 35.3394C85.2228 35.6908 85.186 36.0421 85.1017 36.3834C85.3784 36.5381 85.6435 36.7126 85.8951 36.9054L86.8608 36.968C87.8109 37.0307 89.1211 37.2395 89.5178 38.2783C89.6871 38.8906 89.6353 39.5429 89.3717 40.1209L89.262 40.4602ZM68.2776 37.7249C68.1551 38.4 68.0974 39.0852 68.1054 39.7712C68.0994 40.3259 68.0645 40.88 68.001 41.4311C68.533 40.853 69.1204 40.3285 69.7549 39.8651C69.7416 39.5118 69.6526 39.1655 69.4942 38.8494C69.3357 38.5334 69.1113 38.2549 68.8362 38.0329C68.6649 37.9052 68.477 37.8016 68.2776 37.7249ZM73.602 38.9464C73.8863 39.6982 73.8863 40.5279 73.602 41.2798C74.3686 40.9913 75.1048 40.6276 75.7997 40.194C76.0456 39.6107 76.3999 39.0794 76.8437 38.628C76.4711 38.3072 76.0567 38.0385 75.6117 37.8293C75.2359 37.9129 74.8444 38.0173 74.4529 38.1321C74.1438 38.3756 73.8589 38.6483 73.602 38.9464ZM75.5752 40.8465L75.4865 40.8987H75.57L75.5752 40.8465ZM78.3731 40.7682C78.7281 40.7682 79.0778 40.8256 79.4171 40.8621C80.6912 40.4316 81.8827 39.7873 82.9406 38.9568C83.448 38.5249 83.8756 38.0072 84.2039 37.4274C82.5582 37.0838 80.8542 37.1393 79.2344 37.5892C79.1039 37.8868 78.9786 38.1947 78.8533 38.5027C78.6498 39.0247 78.4462 39.5467 78.2948 40.0687C78.3381 40.2519 78.3626 40.4391 78.3679 40.6273L78.3731 40.7682ZM76.1546 40.4811C76.1129 40.5907 76.0815 40.7003 76.0502 40.8099C76.5856 40.7492 77.1245 40.7247 77.6632 40.7369C77.705 40.5124 77.7624 40.2827 77.825 40.0531C77.7427 39.7735 77.6158 39.5091 77.4492 39.2701C77.0871 39.7348 76.6578 40.1429 76.1755 40.4811H76.1546ZM62.8906 36.6705C61.5782 37.3081 60.5654 38.4313 60.0666 39.8025C60.0035 39.9731 59.9512 40.1474 59.91 40.3245C60.3023 39.6794 60.8207 39.1202 61.4342 38.6802C62.7612 37.7921 64.291 37.2535 65.8816 37.1142L66.174 37.0829C66.8242 36.8579 67.4909 36.6834 68.168 36.5609L68.1993 36.5035C67.9395 36.3835 67.6707 36.284 67.3955 36.2059C67.2388 36.1589 67.077 36.1224 66.9152 36.0911H66.294C65.2132 36.496 64.0655 36.6927 62.9115 36.6705H62.8906ZM72.0987 39.672C72.1822 39.839 72.2605 40.0061 72.3336 40.194C72.5388 39.7236 72.798 39.2786 73.1061 38.8681C73.0696 38.7846 73.0278 38.7063 72.9861 38.6228L72.5632 38.8003C72.3924 39.082 72.2373 39.3731 72.0987 39.672ZM88.9123 39.9121C88.9302 39.9375 88.9493 39.9618 88.9697 39.9852C89.1879 39.508 89.2411 38.9718 89.1211 38.461C88.8183 37.6623 87.6856 37.4953 86.8608 37.417H86.4954L86.652 37.584C87.4088 37.8597 88.0616 38.363 88.5208 39.0247C88.6905 39.3016 88.8222 39.6001 88.9123 39.9121ZM68.3925 37.3021C68.8667 37.4696 69.2844 37.7668 69.5982 38.1599C69.9119 38.553 70.1091 39.0263 70.1673 39.5258C70.4074 39.2335 70.6527 38.936 70.9033 38.6437C70.3823 37.9589 69.7422 37.3736 69.0137 36.9158C68.8466 36.9158 68.6744 36.9628 68.4917 36.9941C68.4656 37.062 68.429 37.1768 68.382 37.2812L68.3925 37.3021ZM58.5319 36.4669C57.7148 36.4508 56.8996 36.5491 56.1098 36.7592C54.6178 37.1984 53.3326 38.1577 52.4871 39.4632C54.5438 38.0799 56.8288 37.0708 59.2366 36.4826C59.0034 36.4582 58.7685 36.446 58.5319 36.446V36.4669ZM77.1725 38.9203C77.021 39.0841 76.8815 39.2585 76.7549 39.4423C76.9078 39.2797 77.0475 39.1052 77.1725 38.9203ZM77.7415 38.889C77.862 39.0538 77.9685 39.2284 78.0599 39.411C78.1852 39.0613 78.3157 38.7167 78.4566 38.367L78.6602 37.845C78.4531 37.9432 78.2525 38.0548 78.0599 38.1791C77.9772 38.4189 77.8705 38.6497 77.7415 38.8681V38.889ZM71.8116 39.15V39.1813L71.8377 39.1239L71.8116 39.15ZM71.514 38.628C71.5401 38.6645 71.5662 38.7011 71.5871 38.7376C71.8168 38.6228 72.0413 38.5131 72.2657 38.414C72.3701 38.2469 72.4745 38.0903 72.5893 37.939C72.5267 37.8607 72.4588 37.7823 72.391 37.7093C72.0621 38.012 71.7698 38.3252 71.514 38.628ZM73.435 38.4244L73.4663 38.3879L73.435 38.4244ZM69.7497 36.8114C70.3073 37.2237 70.8061 37.7102 71.2322 38.2574C71.4984 37.9598 71.7541 37.6727 72.0569 37.3961C72.007 37.3532 71.9547 37.3131 71.9003 37.276C71.6385 37.0741 71.3569 36.8992 71.0599 36.754C70.6134 36.7538 70.1673 36.7782 69.7236 36.8271L69.7497 36.8114ZM76.3269 37.6205C76.6361 37.8041 76.9279 38.0155 77.1986 38.2521C77.3557 38.1115 77.5213 37.9808 77.6945 37.8607C77.7363 37.7041 77.7728 37.5474 77.7989 37.3908C77.4805 37.4326 77.1673 37.4744 76.8541 37.5266L76.3269 37.6205ZM73.1583 37.9494L73.2053 38.0225C73.5603 37.892 73.9048 37.7719 74.2493 37.6675C74.3746 37.5631 74.5051 37.4639 74.6408 37.37H74.5938C74.3798 37.3021 74.1606 37.2395 73.9413 37.1821C73.6456 37.4148 73.3745 37.6771 73.1322 37.9651L73.1583 37.9494ZM72.7303 37.4274L72.8765 37.5997C73.037 37.4127 73.2115 37.2382 73.3985 37.0777L73.2262 37.0411C73.0348 37.156 72.8608 37.2812 72.7042 37.417L72.7303 37.4274ZM78.2687 37.3648C78.2687 37.4274 78.2687 37.4848 78.2687 37.5475C78.3804 37.4855 78.4954 37.4297 78.6132 37.3804L78.7385 37.323L78.2687 37.3648ZM74.4216 36.8428L74.7296 36.9367C75.0572 37.0379 75.378 37.1599 75.69 37.3021C76.0659 37.2186 76.4313 37.1507 76.781 37.0933C77.1307 37.0359 77.4857 36.9837 77.825 36.9419C77.8323 36.6927 77.8077 36.4437 77.7519 36.2007C77.736 36.1172 77.7133 36.0352 77.6841 35.9553C76.5266 35.939 75.3876 36.2463 74.3955 36.8428H74.4216ZM67.7974 37.1194L67.9801 37.156C67.9801 37.1246 67.9801 37.0985 67.9801 37.0724L67.7974 37.1194ZM72.0882 36.8584L72.1717 36.9211L72.3962 37.0985L72.605 36.9211C72.4066 36.9002 72.2344 36.8741 72.0621 36.8584H72.0882ZM78.1747 35.9553C78.19 36.0033 78.2022 36.0521 78.2113 36.1015C78.268 36.3604 78.296 36.6247 78.2948 36.8897L79.13 36.8219C79.2553 36.5609 79.3806 36.2999 79.5163 36.065C79.0628 36.0035 78.6062 35.9669 78.1487 35.9553H78.1747ZM85.0234 36.8636H85.0756L85.0286 36.8323L85.0234 36.8636ZM84.3657 36.8271H84.5379C84.5693 36.7488 84.5954 36.6705 84.6215 36.5974C83.3004 35.9449 81.8596 35.5701 80.388 35.496L80.2523 35.6996C80.7326 35.7831 81.1867 35.8875 81.6095 35.9867C82.5355 36.2121 83.4472 36.4927 84.3396 36.8271H84.3657ZM80.0017 36.1381C79.8817 36.3469 79.7669 36.5661 79.6572 36.7906C80.6699 36.7384 81.6878 36.7331 82.7005 36.7592C82.2933 36.6444 81.8966 36.54 81.5156 36.4513C80.9622 36.3208 80.4559 36.2164 79.9757 36.1381H80.0017ZM73.7377 36.6601H73.8317C74.0489 36.4993 74.2774 36.3544 74.5155 36.2268C74.3485 36.3068 74.1745 36.3903 73.9935 36.4773C73.9048 36.54 73.8108 36.6079 73.7117 36.6705L73.7377 36.6601ZM71.1643 36.326C71.8072 36.3514 72.4474 36.4229 73.08 36.54C73.3059 36.3782 73.5412 36.23 73.7847 36.0963C74.8405 35.5482 75.993 35.2113 77.1777 35.1045C77.0422 34.9614 76.8855 34.84 76.7132 34.7443C76.1425 34.4823 75.5191 34.3555 74.8914 34.3737C73.0174 34.2954 70.6788 34.5094 69.3164 35.7988C69.9437 35.9012 70.5557 36.0819 71.1382 36.3364L71.1643 36.326ZM68.904 36.2947L69.1337 36.4252C69.353 36.4008 69.5722 36.3799 69.7914 36.3625C69.52 36.2999 69.2694 36.2477 68.9667 36.2059L68.904 36.2947ZM80.7273 35.0836C82.1177 35.1831 83.4765 35.5463 84.7311 36.1537C84.7833 35.8943 84.8078 35.6301 84.8042 35.3655C84.7776 34.7004 84.5895 34.0519 84.2561 33.4758C83.5226 33.4649 82.7968 33.6258 82.1367 33.9457C81.5882 34.2225 81.103 34.6099 80.7117 35.0836H80.7273ZM67.1553 35.6056C67.6979 35.6125 68.2398 35.6473 68.7787 35.71C70.2142 34.0866 72.8451 33.8204 74.9331 33.9039C75.6304 33.8905 76.3214 34.0369 76.9533 34.3319C77.2674 34.5064 77.5386 34.7489 77.7467 35.0418C78.1487 35.0157 78.5193 35.0053 78.8586 35.0001C79.3145 35.0001 79.7529 35.0105 80.174 35.0314C80.6384 34.4016 81.2399 33.8857 81.9332 33.5228C82.5674 33.2073 83.2612 33.0294 83.969 33.0008C83.5406 32.4119 83.0102 31.9045 82.403 31.5027C80.5342 30.2342 77.9868 29.6966 74.8183 29.9054C72.2083 30.0724 70.4491 30.8345 69.5617 32.1709C69.3535 32.5048 69.1703 32.8538 69.0137 33.2149C68.8519 33.6026 68.658 33.9763 68.4342 34.3319C68.0973 34.8476 67.6542 35.2854 67.1344 35.6161L67.1553 35.6056ZM78.1173 35.4803C78.675 35.4916 79.2314 35.5404 79.7825 35.6265C79.8138 35.5743 79.8451 35.5221 79.8817 35.4699C79.5528 35.4699 79.2188 35.4699 78.8795 35.4699C78.608 35.496 78.3522 35.496 78.0808 35.496L78.1173 35.4803Z" fill="white"/>
<path d="M50.3835 128.877L51.8242 131.669C52.1338 132.274 52.5065 132.844 52.9361 133.371L45.8264 215.586H47.6012L61.7265 137.004H83.8019L75.9093 215.586H77.6841L93.6103 133.371C94.1755 132.845 94.6991 132.276 95.1763 131.669L97.3948 128.877H50.3835Z" fill="#263238"/>
<path opacity="0.5" d="M50.3835 128.877L51.8242 131.669C52.1338 132.274 52.5065 132.844 52.9361 133.371L45.8264 215.586H47.6012L61.7265 137.004H83.8019L75.9093 215.586H77.6841L93.6103 133.371C94.1755 132.845 94.6991 132.276 95.1763 131.669L97.3948 128.877H50.3835Z" fill="white"/>
<path d="M152.069 214.004H148.927L133.402 161.554H138.805L152.069 214.004Z" fill="#9C33B0"/>
<path d="M95.9958 214.004H99.1383L114.663 161.554H109.26L95.9958 214.004Z" fill="#9C33B0"/>
<path d="M180.356 214.004H177.214L161.69 161.554H167.097L180.356 214.004Z" fill="#9C33B0"/>
<path d="M148.065 97.1964C128.36 101.435 128.026 127.243 130.02 144.082C130.219 145.738 130.065 147.416 129.568 149.008C129.071 150.599 128.242 152.067 127.136 153.314C126.03 154.562 124.672 155.561 123.152 156.245C121.632 156.929 119.984 157.283 118.317 157.284H98.9243C98.258 157.286 97.6123 157.515 97.094 157.934C96.5757 158.353 96.2156 158.936 96.0732 159.587C95.9309 160.238 96.0148 160.918 96.311 161.514C96.6073 162.111 97.0982 162.589 97.7028 162.869C104.076 165.798 116.871 168.789 142.537 168.789C181.578 168.789 179.991 147.679 184.125 127.243C190.593 95.3068 183.139 89.6535 148.065 97.1964Z" fill="#9C33B0"/>
<path opacity="0.3" d="M148.065 97.1964C128.36 101.435 128.026 127.243 130.02 144.082C130.219 145.738 130.065 147.416 129.568 149.008C129.071 150.599 128.242 152.067 127.136 153.314C126.03 154.562 124.672 155.561 123.152 156.245C121.632 156.929 119.984 157.283 118.317 157.284H98.9243C98.258 157.286 97.6123 157.515 97.094 157.934C96.5757 158.353 96.2156 158.936 96.0732 159.587C95.9309 160.238 96.0148 160.918 96.311 161.514C96.6073 162.111 97.0982 162.589 97.7028 162.869C104.076 165.798 116.871 168.789 142.537 168.789C181.578 168.789 179.991 147.679 184.125 127.243C190.593 95.3068 183.139 89.6535 148.065 97.1964Z" fill="black"/>
<path d="M124.132 98.2456C123.353 97.8725 122.508 97.6566 121.645 97.6103C120.783 97.5639 119.92 97.688 119.105 97.9755C118.291 98.263 117.541 98.7082 116.899 99.2857C116.256 99.8632 115.734 100.562 115.362 101.341L115.19 101.706L114.944 102.228L114.647 102.829L114.021 104.055C113.587 104.87 113.159 105.689 112.695 106.472C113.055 105.267 113.446 104.055 113.848 102.85C114.25 101.644 114.683 100.318 115.127 99.0547C115.988 96.5335 116.923 93.9704 117.795 91.4805L117.826 91.397C118.089 90.6509 118.075 89.8347 117.784 89.0985C117.494 88.3624 116.948 87.7559 116.246 87.3907C115.544 87.0254 114.733 86.9259 113.964 87.1105C113.194 87.2952 112.518 87.7515 112.058 88.3955C110.382 90.734 108.926 93.0935 107.469 95.5051C106.013 97.9168 104.708 100.417 103.45 102.98C102.171 105.593 101.043 108.277 100.073 111.019C99.5924 112.439 99.1383 113.9 98.7624 115.456C98.3478 117.136 98.1029 118.853 98.0316 120.582C97.9778 121.944 98.4169 123.28 99.2683 124.344C100.12 125.408 101.326 126.13 102.667 126.376L103.095 126.455C104.903 126.78 106.756 126.756 108.555 126.387C110.202 126.034 111.786 125.434 113.253 124.607C115.707 123.198 117.903 121.381 119.747 119.235C120.592 118.291 121.384 117.299 122.117 116.265C122.832 115.258 123.516 114.25 124.126 113.211C124.737 112.173 125.332 111.123 125.859 110.079C126.126 109.557 126.381 109.009 126.637 108.456L126.997 107.616L127.389 106.665C128.02 105.111 128.035 103.375 127.429 101.81C126.824 100.245 125.645 98.9705 124.132 98.2456Z" fill="#263238"/>
<path d="M111.917 81.7608L111.776 84.3708C111.731 85.4109 111.909 86.4484 112.298 87.4141L113.342 90.092C113.583 90.7016 113.992 91.2303 114.521 91.6165C115.051 92.0028 115.679 92.2308 116.333 92.2739C117.222 92.3342 118.099 92.0474 118.78 91.474C119.462 90.9005 119.894 90.0852 119.987 89.1993C120.066 87.8595 119.944 86.5153 119.627 85.2113L119.334 81.8966C119.285 81.3532 119.045 80.845 118.655 80.4626C118.266 80.0802 117.754 79.8484 117.21 79.8086L114.386 79.5945C114.081 79.5733 113.775 79.6126 113.486 79.7102C113.197 79.8078 112.929 79.9617 112.7 80.1631C112.47 80.3645 112.283 80.6094 112.149 80.8837C112.014 81.1579 111.935 81.456 111.917 81.7608Z" fill="#FFB573"/>
<path opacity="0.2" d="M119.632 85.2061L119.34 81.8966C119.29 81.3544 119.049 80.8475 118.662 80.4654C118.274 80.0833 117.763 79.8506 117.22 79.8086L114.485 79.5998C114.177 83.8698 116.364 88.6199 118.76 91.5014C119.109 91.2196 119.397 90.8705 119.608 90.475C119.818 90.0796 119.947 89.6457 119.987 89.1994C120.07 87.858 119.95 86.5118 119.632 85.2061Z" fill="black"/>
<path d="M143.127 92.4671C135.59 93.0308 126.152 93.6468 119.381 96.8675C116.041 98.4596 115.143 101.806 115.639 105.475C116.427 111.301 117.105 115.952 118.557 120.869C121.918 132.212 115.179 140.334 122.733 149.12C126.047 152.889 146.369 156.428 160.76 151.698C162.848 143.112 160.15 121.756 157.263 102.317C156.255 95.4529 150.054 91.9503 143.127 92.4671Z" fill="#9C33B0"/>
<path d="M133.773 83.3373C134.138 86.5319 135.72 91.2195 138.424 92.6811C138.718 92.8421 138.968 93.0712 139.154 93.3493C139.341 93.6273 139.457 93.9461 139.495 94.2787C139.532 94.6113 139.489 94.9481 139.369 95.2605C139.249 95.573 139.056 95.852 138.805 96.0741C137.213 97.4678 134.754 98.6841 131.455 99.3679C127.154 100.245 126.235 98.9451 126.298 97.6088C126.362 96.9638 126.625 96.3547 127.05 95.8653C128.438 94.1531 127.05 92.822 126.188 91.8198L133.773 83.3373Z" fill="#FFB573"/>
<path opacity="0.2" d="M131.842 88.1554C131.758 87.9762 131.663 87.8019 131.56 87.6334L126.194 91.8355C126.716 92.488 127.53 93.2866 127.629 94.2314C130.401 92.5663 132.656 89.8884 131.842 88.1554Z" fill="black"/>
<path d="M98.4022 198.313C99.4462 197.243 106.086 195.181 106.086 195.181C107.825 200.178 109.262 205.275 110.387 210.444L101.79 211.321C101.79 211.321 100.365 202.609 98.4022 198.313Z" fill="#FFB573"/>
<path d="M136.425 144.918C111.562 145.273 78.8429 143.941 86.5476 166.601C89.8466 176.3 89.5804 179.865 93.438 191.616C95.098 196.674 95.6617 198.162 96.8675 201.664C98.1882 204.796 106.102 204.222 109.025 202.995C112.538 201.127 109.547 196.079 109.155 193.239C107.156 179.375 111.306 174.077 106.942 164.989C114.877 166.137 137.182 165.333 140.502 151.698C140.502 151.698 145.074 146.264 136.425 144.918Z" fill="#263238"/>
<path d="M98.8929 203.335L99.9369 205.423C99.9998 205.548 100.101 205.649 100.226 205.712C100.351 205.775 100.493 205.796 100.631 205.772C102.041 205.527 106.237 204.854 108.68 205.151C108.768 205.161 108.858 205.152 108.942 205.126C109.027 205.1 109.105 205.057 109.173 205C109.241 204.943 109.297 204.873 109.337 204.794C109.377 204.715 109.4 204.629 109.406 204.54C109.453 203.716 109.443 202.646 109.432 201.972C109.427 201.801 109.355 201.638 109.233 201.519C109.11 201.399 108.946 201.331 108.774 201.33C105.595 201.363 102.426 201.712 99.3157 202.374C99.2168 202.398 99.1246 202.444 99.0464 202.509C98.9683 202.574 98.9063 202.656 98.8653 202.749C98.8243 202.842 98.8055 202.944 98.8103 203.045C98.8151 203.147 98.8434 203.246 98.8929 203.335Z" fill="#9C33B0"/>
<path d="M112.23 215.904L111.332 209.844C111.299 209.703 111.217 209.579 111.1 209.494C110.983 209.409 110.84 209.368 110.695 209.379L101.879 209.416C101.172 209.367 100.468 209.55 99.8743 209.938C97.8907 211.577 94.8161 213.148 90.3478 214.015C88.9332 214.291 89.5335 217.1 92.8482 217.084C98.3292 217.058 98.0995 216.886 102.766 216.87C106.765 216.87 107.767 217.053 110.941 217.084C111.104 217.096 111.268 217.075 111.423 217.021C111.577 216.968 111.719 216.883 111.84 216.773C111.961 216.662 112.058 216.528 112.125 216.379C112.192 216.23 112.228 216.068 112.23 215.904Z" fill="#263238"/>
<path d="M130.709 74.9539C133.042 80.2992 134.681 83.306 133.434 87.482C131.565 93.7929 123.985 95.2128 120.107 90.7967C116.62 86.819 113.389 78.7385 117.382 73.6855C121.318 68.716 128.375 69.6034 130.709 74.9539Z" fill="#FFB573"/>
<path d="M126.418 87.8056C126.706 87.7989 126.994 87.8146 127.279 87.8526C127.299 87.8551 127.318 87.8616 127.335 87.8718C127.353 87.8819 127.367 87.8955 127.379 87.9116C127.391 87.9278 127.399 87.9461 127.404 87.9656C127.408 87.9851 127.408 88.0052 127.405 88.0248C127.403 88.0444 127.397 88.0634 127.387 88.0806C127.378 88.0977 127.365 88.1127 127.349 88.1245C127.333 88.1363 127.315 88.1447 127.296 88.1491C127.277 88.1535 127.257 88.1538 127.238 88.1501C126.604 88.0428 125.954 88.0876 125.342 88.2809C124.729 88.4742 124.171 88.8105 123.714 89.262C123.686 89.2903 123.647 89.3063 123.607 89.3063C123.567 89.3063 123.528 89.2903 123.5 89.262C123.486 89.2484 123.475 89.2321 123.468 89.2142C123.46 89.1963 123.456 89.177 123.456 89.1576C123.456 89.1381 123.46 89.1189 123.468 89.101C123.475 89.083 123.486 89.0668 123.5 89.0532C124.273 88.2733 125.32 87.8257 126.418 87.8056Z" fill="#263238"/>
<path d="M124.012 81.432C123.745 81.5834 123.724 82.0375 123.959 82.4447L124.92 81.8861C124.685 81.479 124.278 81.2754 124.012 81.432Z" fill="#263238"/>
<path d="M119.016 84.2664C118.75 84.4178 118.724 84.8719 118.964 85.2791L119.924 84.7206C119.658 84.3134 119.256 84.1098 119.016 84.2664Z" fill="#263238"/>
<path d="M122.707 78.8951C122.74 78.8523 122.784 78.8202 122.835 78.8026C122.886 78.7849 122.941 78.7826 122.994 78.7959C123.327 78.8906 123.678 78.9046 124.017 78.8365C124.357 78.7684 124.675 78.6202 124.946 78.4044C124.972 78.3787 125.002 78.3583 125.036 78.3443C125.069 78.3304 125.105 78.3232 125.142 78.3232C125.178 78.3232 125.214 78.3304 125.248 78.3443C125.281 78.3583 125.312 78.3787 125.337 78.4044C125.363 78.4301 125.384 78.4606 125.397 78.4942C125.411 78.5278 125.419 78.5638 125.419 78.6001C125.419 78.6365 125.411 78.6725 125.397 78.7061C125.384 78.7397 125.363 78.7702 125.337 78.7959C124.999 79.0739 124.598 79.2665 124.169 79.3573C123.74 79.4482 123.296 79.4347 122.874 79.3179C122.803 79.2995 122.743 79.2541 122.706 79.1915C122.669 79.129 122.658 79.0544 122.675 78.9838C122.681 78.9527 122.691 78.9228 122.707 78.8951Z" fill="#263238"/>
<path d="M118.364 81.3485C118.416 81.3096 118.482 81.2928 118.546 81.3015C118.619 81.3082 118.686 81.3431 118.733 81.3988C118.78 81.4545 118.803 81.5265 118.797 81.5991C118.77 82.0368 118.639 82.4617 118.414 82.8378C118.188 83.214 117.876 83.5304 117.502 83.7601C117.438 83.7934 117.363 83.8001 117.293 83.7786C117.224 83.7571 117.166 83.7092 117.132 83.6453C117.114 83.6138 117.103 83.5792 117.099 83.5435C117.095 83.5077 117.099 83.4715 117.109 83.4371C117.119 83.4026 117.136 83.3705 117.159 83.3426C117.182 83.3147 117.21 83.2916 117.241 83.2747C117.533 83.0878 117.776 82.834 117.951 82.5345C118.125 82.2349 118.225 81.8982 118.243 81.5521C118.248 81.5115 118.26 81.4722 118.281 81.4371C118.302 81.4019 118.33 81.3717 118.364 81.3485Z" fill="#263238"/>
<path opacity="0.2" d="M120.107 84.564C120.128 84.9685 120.046 85.3718 119.87 85.7366C119.694 86.1015 119.429 86.4162 119.1 86.652C121.532 86.2552 120.107 84.564 120.107 84.564Z" fill="black"/>
<path opacity="0.2" d="M123.354 82.7579C123.702 82.956 124.093 83.0645 124.493 83.0736C124.893 83.0827 125.289 82.9922 125.645 82.8101C124.32 84.4857 123.354 82.7579 123.354 82.7579Z" fill="black"/>
<path d="M135.12 75.1314C134.859 72.7198 134.222 70.9189 133.376 69.6974C133.745 69.8153 134.124 69.8992 134.509 69.948C132.358 66.6855 128.85 67.2962 127.723 68.6169C126.35 65.6154 124.408 67.6199 122.2 68.0009C119.992 68.382 115.884 66.7847 115.884 66.7847C115.884 66.7847 116.787 68.3507 118.259 68.5908C115.404 69.8801 114.349 72.0986 113.592 73.8108C112.835 75.5229 110.539 77.5744 110.539 77.5744C111.497 77.5845 112.426 77.2427 113.149 76.6139C112.862 78.3574 111.656 81.6095 111.061 82.3559C112.627 81.8339 114.094 79.9182 114.094 79.9182C114.094 79.9182 114.375 83.0502 115.847 85.1695C115.545 82.4603 119.882 77.0367 119.882 77.0367C119.69 78.1998 119.69 79.3867 119.882 80.5498C121.84 78.8951 125.029 73.4767 125.029 73.4767C125.07 75.0509 125.292 76.6151 125.692 78.1382C125.878 77.2267 126.259 76.3664 126.809 75.6169C126.235 77.5587 127.697 82.0479 127.697 82.0479C127.623 80.8756 127.699 79.6987 127.921 78.5453C128.334 79.8816 130.865 81.3537 131.904 81.5051C131.894 81.5155 135.856 81.8235 135.12 75.1314Z" fill="#263238"/>
<path d="M135.068 79.9965C134.985 81.4191 134.343 82.7514 133.282 83.7027C131.862 84.9503 130.338 83.8802 130.051 82.1367C129.79 80.5446 130.213 77.9607 131.962 77.4126C133.71 76.8645 135.151 78.253 135.068 79.9965Z" fill="#FFB573"/>
<path d="M121.49 83.9846C121.49 83.9846 122.279 86.7981 122.127 88.5521C123.27 88.6721 124.215 87.5394 124.215 87.5394L121.49 83.9846Z" fill="#ED893E"/>
<path opacity="0.2" d="M118.619 165.062C118.317 161.611 117.878 158.161 117.293 154.747C117.032 153.187 116.528 151.678 115.8 150.273C99.0965 148.05 97.6192 161.935 108.66 188.332C108.075 177.965 110.748 172.918 106.947 164.989C110.822 165.46 114.739 165.484 118.619 165.062Z" fill="black"/>
<path opacity="0.2" d="M133.11 79.1665L134.222 81.479C134.655 82.3568 134.877 83.324 134.869 84.303L134.812 86.913C134.785 87.5183 134.557 88.0974 134.164 88.5581C133.77 89.0187 133.234 89.3345 132.64 89.4551C131.725 89.6741 130.764 89.5941 129.898 89.2268C129.032 88.8594 128.306 88.2241 127.827 87.4141C127.255 86.2653 126.872 85.0313 126.695 83.7601L125.75 80.7325C125.671 80.494 125.644 80.2415 125.67 79.9917C125.696 79.7419 125.775 79.5004 125.901 79.2833C126.027 79.0662 126.198 78.8784 126.403 78.7323C126.607 78.5862 126.84 78.4851 127.086 78.4357L129.827 77.6945C130.46 77.5422 131.125 77.6041 131.719 77.8705C132.313 78.1368 132.803 78.5926 133.11 79.1665Z" fill="black"/>
<path d="M133.747 79.4745L134.603 81.9436C134.947 82.9224 135.074 83.9645 134.974 84.9973L134.697 87.8683C134.636 88.5203 134.39 89.1414 133.989 89.659C133.588 90.1767 133.048 90.5694 132.431 90.7915C131.593 91.1009 130.667 91.0718 129.849 90.7103C129.032 90.3488 128.387 89.6834 128.052 88.8548C127.602 87.5903 127.345 86.2652 127.29 84.9242L126.653 81.6565C126.546 81.1193 126.635 80.5619 126.901 80.0838C127.168 79.6056 127.596 79.2379 128.109 79.0465L130.766 78.0599C131.055 77.9535 131.361 77.9058 131.668 77.9196C131.975 77.9333 132.277 78.0083 132.554 78.1401C132.832 78.2719 133.08 78.4578 133.285 78.6869C133.49 78.9161 133.647 79.1838 133.747 79.4745Z" fill="#FFB573"/>
<path d="M151.343 95.4581C149.656 95.0347 147.869 95.299 146.376 96.1927C144.884 97.0864 143.807 98.5365 143.383 100.224L143.252 100.746L143.012 101.727L142.715 102.834C142.501 103.591 142.292 104.353 142.047 105.105C141.582 106.608 141.029 108.059 140.449 109.432L140.418 109.505C139.839 107.756 139.301 105.935 138.821 104.082C138.466 102.771 138.126 101.44 137.813 100.104C137.5 98.7676 137.166 97.4208 136.868 96.0636C136.252 93.3701 135.678 90.6035 135.094 87.9204V87.8421C134.922 87.0685 134.476 86.3831 133.838 85.9123C133.201 85.4416 132.415 85.2173 131.625 85.281C130.835 85.3446 130.095 85.6917 129.54 86.2584C128.986 86.825 128.656 87.573 128.61 88.3641C128.433 91.3291 128.438 94.1897 128.511 97.1129C128.584 100.036 128.788 102.938 129.106 105.877C129.263 107.349 129.477 108.827 129.717 110.314C129.957 111.802 130.239 113.311 130.63 114.835C131.016 116.431 131.504 118 132.092 119.533C132.426 120.403 132.816 121.251 133.261 122.07C133.8 123.066 134.446 124.001 135.188 124.857C136.087 125.881 137.321 126.553 138.669 126.751C140.017 126.948 141.392 126.66 142.548 125.938L142.903 125.713C143.984 125.032 145.007 124.262 145.962 123.411C146.858 122.604 147.694 121.731 148.462 120.801C149.193 119.91 149.878 118.981 150.513 118.019C151.124 117.064 151.667 116.103 152.179 115.132C152.685 114.178 153.143 113.199 153.551 112.199C153.959 111.212 154.35 110.226 154.674 109.223C154.997 108.221 155.311 107.224 155.561 106.201C155.686 105.679 155.817 105.157 155.921 104.635L156.078 103.878L156.235 102.959C156.516 101.323 156.168 99.6399 155.261 98.2488C154.354 96.8577 152.955 95.8608 151.343 95.4581Z" fill="#263238"/>
<path d="M123.234 197.838C124.147 196.669 130.542 193.96 130.542 193.96C132.777 198.755 134.72 203.682 136.362 208.711L127.895 210.439C127.895 210.439 125.625 201.925 123.234 197.838Z" fill="#FFB573"/>
<path d="M139.614 143.252C115.179 144.918 96.2881 144.97 107.062 166.341C111.677 175.486 112.59 180.388 117.617 191.684C119.778 196.549 120.493 197.974 122.044 201.341C123.677 204.332 131.492 202.948 134.274 201.435C137.578 199.216 134.112 194.497 133.418 191.715C130.03 178.143 133.486 173.294 128.308 164.644C136.31 165.056 157.451 165.333 160.771 151.698C160.776 151.698 156.793 143.252 139.614 143.252Z" fill="#263238"/>
<path d="M124.236 202.792L125.505 204.775C125.581 204.894 125.693 204.984 125.824 205.034C125.956 205.084 126.1 205.09 126.235 205.052C127.608 204.666 131.716 203.575 134.18 203.617C134.269 203.617 134.356 203.6 134.438 203.566C134.519 203.532 134.593 203.482 134.654 203.418C134.716 203.355 134.764 203.279 134.795 203.197C134.827 203.114 134.841 203.026 134.838 202.938C134.801 202.113 134.687 201.048 134.603 200.385C134.583 200.214 134.496 200.057 134.361 199.949C134.226 199.842 134.054 199.792 133.883 199.811C130.722 200.165 127.606 200.836 124.581 201.816C124.485 201.847 124.399 201.899 124.327 201.969C124.256 202.039 124.201 202.124 124.168 202.219C124.134 202.313 124.123 202.414 124.135 202.513C124.147 202.613 124.181 202.708 124.236 202.792Z" fill="#9C33B0"/>
<path d="M138.789 213.561L137.03 207.438C136.978 207.302 136.879 207.19 136.75 207.122C136.621 207.055 136.472 207.037 136.331 207.072L127.613 208.388C126.905 208.445 126.235 208.735 125.708 209.212C123.493 211.779 120.45 213.491 117.105 214.051C115.696 214.328 116.296 217.136 119.606 217.121C125.092 217.095 124.852 216.395 129.477 215.722C132.974 215.2 134.457 215.2 137.62 214.897C137.787 214.894 137.952 214.857 138.104 214.787C138.256 214.716 138.392 214.615 138.502 214.489C138.612 214.363 138.695 214.215 138.744 214.055C138.794 213.895 138.809 213.727 138.789 213.561Z" fill="#263238"/>
<path d="M42.9919 128.877L218.013 128.877V125.64L42.9919 125.64V128.877Z" fill="#9C33B0"/>
<path opacity="0.5" d="M42.9919 128.877L218.013 128.877V125.64L42.9919 125.64V128.877Z" fill="white"/>
<path opacity="0.3" d="M170.532 128.877H218.008V125.64H170.532V128.877Z" fill="#9C33B0"/>
<path d="M213.399 215.586H215.174L208.064 133.371C208.495 132.845 208.867 132.275 209.176 131.669L210.617 128.877H163.579L165.798 131.669C166.282 132.278 166.814 132.847 167.39 133.371L183.316 215.586H185.091L177.198 137.004H199.273L213.399 215.586Z" fill="#263238"/>
<path opacity="0.6" d="M213.399 215.586H215.174L208.064 133.371C208.495 132.845 208.867 132.275 209.176 131.669L210.617 128.877H163.579L165.798 131.669C166.282 132.278 166.814 132.847 167.39 133.371L183.316 215.586H185.091L177.198 137.004H199.273L213.399 215.586Z" fill="white"/>
<path d="M87.9831 111.87H46.4215V125.64H87.9831V111.87Z" fill="#9C33B0"/>
<path opacity="0.8" d="M87.9831 111.87H46.4215V125.64H87.9831V111.87Z" fill="white"/>
<path opacity="0.3" d="M87.9831 111.87H67.2023V125.64H87.9831V111.87Z" fill="#9C33B0"/>
<path opacity="0.3" d="M53.4946 117.027L67.1554 118.176L84.1621 117.027H53.4946Z" fill="#9C33B0"/>
<path opacity="0.3" d="M47.4446 120.274L55.3894 120.822L65.2761 120.274H47.4446Z" fill="#9C33B0"/>
<path d="M67.2023 109.432C61.6169 112.105 45.8264 110.053 45.8264 110.053C45.8264 110.053 47.9144 111.87 49.9607 111.87H86.3127C86.3127 111.87 87.696 111.405 87.696 110.915C78.4305 112.298 69.0189 110.528 67.2023 109.432Z" fill="#9C33B0"/>
<path opacity="0.4" d="M67.2023 109.432C61.6169 112.105 45.8264 110.053 45.8264 110.053C45.8264 110.053 47.9144 111.87 49.9607 111.87H86.3127C86.3127 111.87 87.696 111.405 87.696 110.915C78.4305 112.298 69.0189 110.528 67.2023 109.432Z" fill="white"/>
<path d="M214.171 118.275H170.021V125.635H214.171V118.275Z" fill="#9C33B0"/>
<path opacity="0.8" d="M214.171 118.275H170.021V125.635H214.171V118.275Z" fill="white"/>
<path opacity="0.3" d="M214.166 118.275H192.091V125.635H214.166V118.275Z" fill="#9C33B0"/>
<path opacity="0.3" d="M203.679 122.555L189.168 121.939L171.101 122.555H203.679Z" fill="#9C33B0"/>
<path opacity="0.3" d="M210.105 120.812L201.664 120.519L191.162 120.812H210.105Z" fill="#9C33B0"/>
<path d="M188.04 114.099C186.756 118.619 169.384 116.458 169.384 116.458C169.384 116.458 171.592 118.275 173.774 118.275H212.402C212.402 118.275 216.975 117.231 216.975 116.74C207.119 118.129 192.096 117.152 188.04 114.099Z" fill="#9C33B0"/>
<g opacity="0.4">
<path opacity="0.4" d="M188.04 114.099C186.756 118.619 169.384 116.458 169.384 116.458C169.384 116.458 171.592 118.275 173.774 118.275H212.402C212.402 118.275 216.975 117.231 216.975 116.74C207.119 118.129 192.096 117.152 188.04 114.099Z" fill="white"/>
</g>
<path d="M44.9077 191.812C44.9077 191.812 31.3509 176.079 26.2555 160.346C21.1602 144.612 23.5689 146.419 23.5689 146.419C23.5689 146.419 30.4785 161.7 35.7206 169.088C40.9626 176.476 50.2964 187.297 50.2964 187.297L44.9077 191.812Z" fill="#77B033"/>
<path d="M47.6098 148.871C47.5433 148.674 47.4018 148.511 47.2165 148.419C47.0312 148.327 46.8172 148.313 46.6216 148.38C46.4261 148.447 46.265 148.59 46.1738 148.777C46.0826 148.964 46.0687 149.18 46.1353 149.377C46.9613 154.904 48.7524 167.874 48.683 176.281C48.5903 187.18 48.683 191.43 48.683 191.43H54.3265C54.3265 191.43 53.3228 168.854 52.0104 161.957C51.1874 157.401 49.7047 152.992 47.6098 148.871V148.871Z" fill="#77B033"/>
<path d="M50.6825 189.578C53.0429 184.175 54.6036 178.451 55.3147 172.591C55.7779 168.574 54.9441 163.14 53.7166 155.885C53.2391 153.231 52.9988 150.54 52.9986 147.843C53.0035 147.543 53.1065 147.253 53.2915 147.019C53.4765 146.784 53.7332 146.617 54.0218 146.544C54.3103 146.471 54.6147 146.497 54.8875 146.616C55.1604 146.736 55.3865 146.943 55.5308 147.205C56.8962 149.751 57.9537 152.454 58.6807 155.254C60.0472 162.416 61.599 165.997 60.41 172.794C59.2211 179.59 54.8592 190.052 54.8592 190.052L50.6825 189.578Z" fill="#77B033"/>
<path d="M55.7625 190.052C55.7625 190.052 70.6471 157.8 71.6816 152.989C72.7162 148.178 76.2212 137.178 76.6303 137.801C77.0395 138.424 77.6648 144.247 74.9859 150.903C72.307 157.559 60.8501 191.01 60.8501 191.01H55.7625" fill="#77B033"/>
<path d="M49.0535 188.612C48.9083 188.526 48.769 188.43 48.6366 188.324C48.3741 188.122 47.9727 187.842 47.4863 187.437C46.0928 186.322 44.758 185.134 43.4872 183.879C39.2914 179.706 35.6575 174.995 32.6788 169.866C29.7128 164.753 27.2462 159.362 25.3137 153.767C24.5417 151.627 24.0167 149.875 23.6693 148.653C23.484 148.046 23.3605 147.571 23.2678 147.252C23.2243 147.09 23.1908 146.927 23.1675 146.761C23.2461 146.911 23.3058 147.071 23.345 147.236L23.8005 148.629C24.1866 149.828 24.7656 151.572 25.5376 153.697C27.5312 159.251 30.0195 164.61 32.9722 169.711C35.9375 174.815 39.5272 179.522 43.6571 183.723C45.2474 185.28 46.6139 186.534 47.579 187.343C48.0499 187.764 48.4436 188.06 48.6907 188.278C48.8199 188.38 48.9412 188.492 49.0535 188.612V188.612Z" fill="#A8FA48"/>
<path d="M50.6825 173.136C50.6087 172.827 50.5647 172.512 50.5512 172.194C50.474 171.525 50.3891 170.637 50.2733 169.61C50.0417 167.422 49.6711 164.417 49.1462 161.109C48.6212 157.8 48.0267 154.834 47.6021 152.685C47.3782 151.65 47.1929 150.801 47.054 150.14C46.9719 149.831 46.9176 149.516 46.8918 149.198C47.0054 149.495 47.1007 149.799 47.1775 150.109C47.3396 150.7 47.5635 151.564 47.8183 152.631C48.3278 154.772 48.9531 157.745 49.4858 161.062C50.0185 164.378 50.3428 167.399 50.5204 169.586C50.613 170.684 50.6671 171.571 50.6979 172.186C50.7198 172.503 50.7147 172.821 50.6825 173.136V173.136Z" fill="#E0E0E0"/>
<path d="M54.1721 146.971C54.2427 147.1 54.2997 147.235 54.342 147.376L54.7898 148.575C54.9905 149.096 55.2144 149.735 55.4305 150.498C55.6467 151.261 55.9401 152.109 56.1563 153.082L56.5191 154.593C56.6426 155.122 56.7353 155.682 56.8511 156.259C57.0904 157.403 57.2448 158.641 57.4224 159.949C57.7432 162.791 57.8619 165.653 57.7775 168.512C57.6552 171.365 57.3353 174.205 56.8202 177.013C56.5423 178.297 56.3029 179.527 55.9787 180.648C55.8243 181.217 55.7008 181.762 55.5386 182.283C55.3765 182.805 55.2144 183.295 55.06 183.77C54.782 184.72 54.4346 185.553 54.1567 186.292C53.8788 187.032 53.6163 187.655 53.3847 188.161C53.1531 188.667 52.9909 189.033 52.852 189.328C52.7959 189.464 52.7288 189.594 52.6512 189.718C52.683 189.572 52.7323 189.431 52.7979 189.297L53.2766 188.098C53.4928 187.585 53.7475 186.962 54.0023 186.215C54.2571 185.467 54.589 184.658 54.8592 183.684C54.9982 183.21 55.1526 182.711 55.307 182.198C55.4614 181.684 55.5849 181.131 55.7316 180.571C56.0482 179.45 56.2721 178.235 56.5037 176.943C57.5559 171.358 57.7693 165.644 57.1367 159.995C56.9669 158.695 56.8279 157.457 56.5963 156.321C56.4882 155.745 56.411 155.192 56.2875 154.663C56.164 154.133 56.0559 153.635 55.9401 153.152C55.7394 152.179 55.4691 151.323 55.2684 150.56C55.0677 149.797 54.8592 149.159 54.6817 148.629L54.2957 147.415C54.2329 147.274 54.1913 147.124 54.1721 146.971V146.971Z" fill="#A8FA48"/>
<path d="M76.4372 138.478C76.4372 138.478 76.4372 138.525 76.4372 138.626C76.4372 138.727 76.4372 138.875 76.3677 139.039C76.3059 139.412 76.221 139.957 76.0743 140.65C75.7887 142.036 75.3023 144.029 74.5303 146.457C73.7582 148.886 72.7778 151.72 71.5734 154.842C70.369 157.963 68.9717 161.365 67.6515 164.962C66.3313 168.559 65.2737 172.108 64.3086 175.308C63.3436 178.508 62.4326 181.388 61.5448 183.762C60.8739 185.644 60.1007 187.486 59.2287 189.282C58.9276 189.92 58.6497 190.395 58.4567 190.722L58.2482 191.088C58.2257 191.131 58.1999 191.173 58.171 191.212C58.171 191.212 58.171 191.166 58.2173 191.072C58.2637 190.979 58.3254 190.846 58.4026 190.691C58.557 190.356 58.8118 189.912 59.1052 189.227C59.6996 187.951 60.5103 186.067 61.3518 183.684C62.1933 181.302 63.0966 178.43 64.0384 175.222C64.9803 172.015 66.0225 168.473 67.3659 164.853C68.7092 161.233 70.0988 157.847 71.3109 154.733C72.523 151.619 73.5652 148.793 74.3373 146.387C75.1093 143.982 75.6188 141.997 75.9354 140.619C76.1052 139.934 76.2056 139.389 76.2905 139.062C76.3291 138.898 76.36 138.758 76.3909 138.649C76.4217 138.54 76.4372 138.478 76.4372 138.478Z" fill="#A8FA48"/>
<path d="M30.5634 131.355C30.3581 131.158 30.094 131.036 29.8123 131.007C29.5307 130.978 29.2474 131.043 29.0067 131.193C28.7659 131.344 28.5813 131.57 28.4817 131.837C28.382 132.105 28.3729 132.398 28.4558 132.671C28.9642 134.33 29.5886 135.95 30.3241 137.521C32.37 141.903 38.3841 157.637 41.1942 166.278C44.0044 174.919 47.9726 191.041 47.9726 191.041L53.9867 190.052C53.9867 190.052 48.4899 163.584 43.1166 154.024C38.8009 146.364 34.4853 135.278 30.5634 131.355Z" fill="#77B033"/>
<path d="M50.9603 190.543C50.9551 190.491 50.9551 190.439 50.9603 190.387C50.9603 190.263 50.9603 190.099 50.8908 189.905C50.829 189.492 50.775 188.869 50.6437 188.075C50.4276 186.479 50.0338 184.183 49.3853 181.388C48.6176 178.115 47.6796 174.885 46.5751 171.711C45.3399 168.123 43.7958 164.246 42.0433 160.229C38.5075 152.21 34.9793 145.103 32.6555 139.84C31.482 137.217 30.5788 135.076 29.9766 133.613C29.6755 132.834 29.4593 132.281 29.3049 131.884L29.1351 131.433C29.1143 131.383 29.0988 131.33 29.0887 131.277C29.1216 131.322 29.1476 131.372 29.1659 131.425L29.359 131.861L30.1155 133.527C30.7486 135.006 31.6596 137.131 32.8871 139.755C35.2572 144.986 38.8163 152.078 42.3599 160.112C44.1124 164.129 45.6564 168.021 46.8762 171.626C47.9708 174.813 48.8883 178.059 49.6246 181.349C50.1271 183.567 50.5162 185.809 50.7904 188.067C50.8985 188.846 50.9371 189.484 50.9757 189.912C50.9757 190.107 50.9757 190.263 51.0143 190.387C51.0529 190.512 50.9989 190.543 50.9603 190.543Z" fill="#A8FA48"/>
<path d="M53.9867 190.052C53.89 189.721 53.8203 189.383 53.7782 189.04C53.6624 188.324 53.5003 187.39 53.315 186.253C52.8981 183.918 52.2651 180.672 51.3541 177.153C50.4431 173.634 49.4163 170.497 48.6443 168.247C48.2583 167.165 47.9417 166.27 47.7024 165.585C47.5665 165.266 47.4605 164.935 47.3859 164.596C47.5506 164.9 47.695 165.215 47.8182 165.538C48.073 166.153 48.4358 167.048 48.8527 168.169C49.9361 171.087 50.8664 174.059 51.6397 177.075C52.4158 180.088 53.0393 183.138 53.508 186.215C53.6856 187.398 53.8168 188.355 53.8786 189.017C53.9392 189.359 53.9753 189.705 53.9867 190.052V190.052Z" fill="#A8FA48"/>
<path d="M66.316 189.188H42.8618V218H66.316V189.188Z" fill="#E0E0E0"/>
<path d="M58.835 189.188H38.0289V218H58.835V189.188Z" fill="#EBEBEB"/>
<path d="M206.103 108.873C206.103 108.873 210.371 103.99 211.975 99.1073C213.579 94.2246 212.821 94.7851 212.821 94.7851C212.821 94.7851 210.646 99.5276 208.995 101.82C207.345 104.113 204.407 107.471 204.407 107.471L206.103 108.873Z" fill="#77B033"/>
<path d="M205.252 95.5461C205.273 95.4849 205.318 95.4345 205.376 95.406C205.435 95.3774 205.502 95.3731 205.564 95.3939C205.625 95.4147 205.676 95.459 205.705 95.517C205.733 95.575 205.738 95.642 205.717 95.7032C205.457 97.4185 204.893 101.444 204.915 104.053C204.944 107.435 204.915 108.754 204.915 108.754H203.138C203.138 108.754 203.454 101.748 203.867 99.6074C204.126 98.1935 204.593 96.8251 205.252 95.5461V95.5461Z" fill="#77B033"/>
<path d="M204.285 108.179C203.542 106.502 203.051 104.726 202.827 102.908C202.681 101.661 202.944 99.9746 203.33 97.7229C203.48 96.8994 203.556 96.0641 203.556 95.2272C203.554 95.1341 203.522 95.0441 203.464 94.9712C203.406 94.8984 203.325 94.8466 203.234 94.824C203.143 94.8014 203.047 94.8093 202.961 94.8464C202.875 94.8835 202.804 94.9477 202.759 95.0291C202.329 95.8194 201.996 96.6581 201.767 97.5272C201.337 99.7499 200.848 100.861 201.223 102.97C201.597 105.08 202.97 108.327 202.97 108.327L204.285 108.179Z" fill="#77B033"/>
<path d="M202.686 108.327C202.686 108.327 198 98.3172 197.674 96.8241C197.349 95.3311 196.245 91.9173 196.116 92.1106C195.988 92.3038 195.791 94.111 196.634 96.1767C197.477 98.2423 201.084 108.624 201.084 108.624H202.686" fill="#77B033"/>
<path d="M204.798 107.88C204.844 107.853 204.888 107.823 204.929 107.79C205.012 107.727 205.138 107.641 205.291 107.515C205.73 107.169 206.15 106.8 206.55 106.411C207.871 105.116 209.015 103.653 209.953 102.062C210.887 100.475 211.663 98.8019 212.272 97.0658C212.515 96.4014 212.68 95.8578 212.789 95.4785C212.848 95.29 212.887 95.1427 212.916 95.0436C212.929 94.9936 212.94 94.9427 212.947 94.8914C212.923 94.938 212.904 94.9875 212.891 95.0388L212.748 95.4712C212.626 95.8433 212.444 96.3845 212.201 97.044C211.574 98.7674 210.79 100.431 209.861 102.014C208.927 103.598 207.797 105.059 206.497 106.362C205.996 106.846 205.566 107.235 205.262 107.486C205.114 107.616 204.99 107.708 204.912 107.776C204.872 107.807 204.833 107.842 204.798 107.88V107.88Z" fill="#A8FA48"/>
<path d="M204.285 103.077C204.308 102.981 204.322 102.883 204.326 102.784C204.351 102.577 204.378 102.301 204.414 101.982C204.487 101.303 204.604 100.371 204.769 99.344C204.934 98.3172 205.121 97.3967 205.255 96.7299C205.325 96.4086 205.384 96.1453 205.427 95.9399C205.453 95.8442 205.47 95.7464 205.479 95.6476C205.443 95.7399 205.413 95.8343 205.389 95.9302C205.338 96.1139 205.267 96.382 205.187 96.713C205.026 97.3774 204.83 98.3003 204.662 99.3295C204.494 100.359 204.392 101.296 204.336 101.975C204.307 102.316 204.29 102.591 204.28 102.782C204.273 102.88 204.275 102.979 204.285 103.077V103.077Z" fill="#E0E0E0"/>
<path d="M203.187 94.9566C203.164 94.9965 203.146 95.0386 203.133 95.0822L202.992 95.4543C202.929 95.6161 202.858 95.8142 202.79 96.051C202.722 96.2878 202.63 96.5511 202.562 96.8531L202.448 97.3218C202.409 97.4861 202.38 97.6601 202.343 97.8388C202.268 98.194 202.219 98.5781 202.163 98.984C202.062 99.8661 202.025 100.754 202.052 101.642C202.09 102.527 202.191 103.408 202.353 104.28C202.44 104.678 202.516 105.06 202.618 105.408C202.666 105.584 202.705 105.754 202.756 105.915C202.807 106.077 202.858 106.23 202.907 106.377C202.995 106.672 203.104 106.93 203.191 107.16C203.279 107.389 203.362 107.582 203.435 107.74C203.507 107.897 203.558 108.01 203.602 108.102C203.62 108.144 203.641 108.184 203.665 108.223C203.655 108.178 203.64 108.134 203.619 108.092L203.469 107.72C203.4 107.561 203.32 107.367 203.24 107.136C203.16 106.904 203.055 106.652 202.97 106.35C202.927 106.203 202.878 106.048 202.829 105.889C202.781 105.729 202.742 105.558 202.696 105.384C202.596 105.036 202.526 104.659 202.453 104.258C202.121 102.525 202.054 100.752 202.253 98.9985C202.307 98.595 202.351 98.2109 202.423 97.8582C202.457 97.6794 202.482 97.5078 202.521 97.3436C202.56 97.1793 202.594 97.0247 202.63 96.8749C202.693 96.5729 202.778 96.3071 202.841 96.0703C202.905 95.8336 202.97 95.6355 203.026 95.4712L203.148 95.0943C203.167 95.0506 203.181 95.0041 203.187 94.9566V94.9566Z" fill="#A8FA48"/>
<path d="M196.177 92.3208C196.177 92.3208 196.177 92.3353 196.177 92.3667C196.177 92.3981 196.177 92.444 196.199 92.4947C196.218 92.6107 196.245 92.7798 196.291 92.9948C196.381 93.4249 196.534 94.0434 196.777 94.7971C197.021 95.5509 197.329 96.4304 197.708 97.3992C198.087 98.368 198.527 99.4238 198.943 100.54C199.359 101.656 199.692 102.758 199.995 103.751C200.299 104.744 200.586 105.638 200.866 106.375C201.077 106.958 201.32 107.53 201.595 108.087C201.689 108.286 201.777 108.433 201.838 108.534L201.903 108.648C201.91 108.661 201.919 108.674 201.928 108.687C201.928 108.687 201.928 108.672 201.913 108.643C201.898 108.614 201.879 108.573 201.855 108.525C201.806 108.421 201.726 108.283 201.634 108.071C201.446 107.674 201.191 107.09 200.926 106.35C200.661 105.611 200.377 104.72 200.08 103.724C199.784 102.729 199.456 101.63 199.033 100.506C198.61 99.3827 198.173 98.3317 197.791 97.3653C197.409 96.3989 197.081 95.5219 196.838 94.7754C196.595 94.0289 196.435 93.4128 196.335 92.9852C196.282 92.7726 196.25 92.6034 196.223 92.502C196.211 92.4512 196.201 92.4077 196.192 92.3739C196.182 92.3401 196.177 92.3208 196.177 92.3208Z" fill="#A8FA48"/>
<path d="M210.619 90.1101C210.684 90.0492 210.767 90.0112 210.855 90.0021C210.944 89.993 211.033 90.0134 211.109 90.06C211.185 90.1067 211.243 90.177 211.274 90.2599C211.306 90.3428 211.309 90.4337 211.282 90.5184C211.122 91.0333 210.926 91.5363 210.694 92.0236C210.05 93.3838 208.157 98.2665 207.272 100.948C206.388 103.63 205.138 108.633 205.138 108.633L203.245 108.327C203.245 108.327 204.975 100.112 206.667 97.1455C208.026 94.7682 209.384 91.3278 210.619 90.1101Z" fill="#77B033"/>
<path d="M204.198 108.479C204.199 108.463 204.199 108.447 204.198 108.431C204.198 108.392 204.198 108.341 204.22 108.281C204.239 108.153 204.256 107.959 204.297 107.713C204.365 107.218 204.489 106.505 204.693 105.638C204.935 104.622 205.23 103.619 205.578 102.635C205.967 101.521 206.453 100.318 207.005 99.071C208.118 96.5826 209.229 94.3768 209.96 92.7436C210.33 91.9294 210.614 91.265 210.804 90.8108C210.898 90.5692 210.966 90.3977 211.015 90.2745L211.069 90.1343C211.075 90.1188 211.08 90.1026 211.083 90.086C211.073 90.1 211.065 90.1155 211.059 90.1319L210.998 90.2672L210.76 90.7842C210.561 91.2433 210.274 91.9028 209.887 92.717C209.141 94.3405 208.021 96.5415 206.905 99.0348C206.353 100.281 205.867 101.489 205.483 102.608C205.139 103.597 204.85 104.605 204.618 105.626C204.46 106.314 204.337 107.01 204.251 107.711C204.217 107.952 204.205 108.15 204.193 108.283C204.193 108.344 204.193 108.392 204.181 108.431C204.168 108.469 204.186 108.479 204.198 108.479Z" fill="#A8FA48"/>
<path d="M203.245 108.327C203.275 108.224 203.297 108.119 203.311 108.013C203.347 107.79 203.398 107.5 203.456 107.148C203.588 106.423 203.787 105.415 204.074 104.323C204.361 103.231 204.684 102.258 204.927 101.559C205.048 101.224 205.148 100.946 205.223 100.733C205.266 100.634 205.3 100.532 205.323 100.426C205.271 100.521 205.226 100.618 205.187 100.719C205.107 100.91 204.992 101.187 204.861 101.535C204.52 102.441 204.227 103.363 203.984 104.299C203.74 105.234 203.543 106.181 203.396 107.136C203.34 107.503 203.298 107.8 203.279 108.005C203.26 108.111 203.249 108.219 203.245 108.327V108.327Z" fill="#A8FA48"/>
<path d="M199.363 108.058H206.747V117H199.363V108.058Z" fill="#E0E0E0"/>
<path d="M201.719 108.058H208.269V117H201.719V108.058Z" fill="#EBEBEB"/>
</svg>
