<svg width="261" height="261" viewBox="0 0 261 261" fill="none" xmlns="http://www.w3.org/2000/svg">
<path d="M261 199.613H0V199.743H261V199.613Z" fill="#EBEBEB"/>
<path d="M234.848 208.012H217.559V208.142H234.848V208.012Z" fill="#EBEBEB"/>
<path d="M157.352 208.08H152.816V208.21H157.352V208.08Z" fill="#EBEBEB"/>
<path d="M217.032 203.168H184.96V203.298H217.032V203.168Z" fill="#EBEBEB"/>
<path d="M117.523 206.247H110.899V206.378H117.523V206.247Z" fill="#EBEBEB"/>
<path d="M106.253 206.247H87.0278V206.378H106.253V206.247Z" fill="#EBEBEB"/>
<path d="M40.6587 204.045H27.3843V204.175H40.6587V204.045Z" fill="#EBEBEB"/>
<path d="M82.8831 204.045H43.7905V204.175H82.8831V204.045Z" fill="#EBEBEB"/>
<path d="M123.714 176.332H22.9212C22.1316 176.33 21.3748 176.016 20.8169 175.457C20.2591 174.898 19.9458 174.141 19.9458 173.351V31.6645C19.9526 30.8795 20.269 30.1288 20.8261 29.5756C21.3832 29.0224 22.1361 28.7114 22.9212 28.71H123.714C124.504 28.71 125.263 29.0241 125.822 29.583C126.381 30.142 126.695 30.9001 126.695 31.6906V173.351C126.695 174.142 126.381 174.9 125.822 175.459C125.263 176.018 124.504 176.332 123.714 176.332ZM22.9212 28.8144C22.1662 28.8158 21.4426 29.1167 20.9092 29.651C20.3758 30.1854 20.0763 30.9095 20.0763 31.6645V173.351C20.0763 174.106 20.3758 174.83 20.9092 175.365C21.4426 175.899 22.1662 176.2 22.9212 176.201H123.714C124.469 176.2 125.194 175.899 125.728 175.365C126.262 174.831 126.563 174.106 126.564 173.351V31.6645C126.563 30.9091 126.262 30.1849 125.728 29.6507C125.194 29.1165 124.469 28.8158 123.714 28.8144H22.9212Z" fill="#EBEBEB"/>
<path d="M236.628 176.332H135.83C135.04 176.33 134.282 176.016 133.724 175.457C133.165 174.898 132.85 174.141 132.849 173.351V31.6645C132.857 30.879 133.175 30.1283 133.733 29.5753C134.291 29.0222 135.044 28.7114 135.83 28.71H236.628C237.412 28.7127 238.164 29.0244 238.72 29.5774C239.276 30.1305 239.591 30.8804 239.598 31.6645V173.351C239.598 174.14 239.285 174.896 238.729 175.455C238.172 176.014 237.417 176.329 236.628 176.332ZM135.83 28.8144C135.074 28.8158 134.35 29.1165 133.816 29.6507C133.282 30.1849 132.981 30.9091 132.979 31.6645V173.351C132.981 174.106 133.282 174.831 133.816 175.365C134.35 175.899 135.074 176.2 135.83 176.201H236.628C237.383 176.2 238.107 175.899 238.642 175.365C239.176 174.831 239.477 174.106 239.478 173.351V31.6645C239.477 30.9091 239.176 30.1849 238.642 29.6507C238.107 29.1165 237.383 28.8158 236.628 28.8144H135.83Z" fill="#EBEBEB"/>
<path d="M195.129 89.2152C207.517 89.2152 217.559 79.1727 217.559 66.7848C217.559 54.3969 207.517 44.3545 195.129 44.3545C182.741 44.3545 172.698 54.3969 172.698 66.7848C172.698 79.1727 182.741 89.2152 195.129 89.2152Z" fill="#E0E0E0"/>
<path d="M193.913 89.2152C206.3 89.2152 216.343 79.1727 216.343 66.7848C216.343 54.3969 206.3 44.3545 193.913 44.3545C181.525 44.3545 171.482 54.3969 171.482 66.7848C171.482 79.1727 181.525 89.2152 193.913 89.2152Z" fill="#F0F0F0"/>
<path d="M193.918 85.0546C189.6 85.0589 185.421 83.5341 182.121 80.7506C178.821 77.9672 176.613 74.1049 175.889 69.8488C175.165 65.5926 175.971 61.2175 178.165 57.4993C180.359 53.7812 183.799 50.9601 187.875 49.5365C191.951 48.1128 196.399 48.1786 200.431 49.7221C204.463 51.2655 207.819 54.187 209.902 57.9684C211.985 61.7498 212.662 66.1468 211.813 70.3797C210.963 74.6126 208.642 78.4079 205.261 81.0926L205.198 81.1448C201.986 83.6825 198.011 85.0603 193.918 85.0546Z" fill="#FAFAFA"/>
<path d="M194.643 68.6013C194.407 68.72 194.141 68.7688 193.877 68.742C193.614 68.7152 193.364 68.6139 193.156 68.4499L183.927 61.1419C183.772 61.0327 183.641 60.893 183.542 60.7314C183.443 60.5698 183.378 60.3897 183.351 60.2021C183.324 60.0146 183.335 59.8234 183.384 59.6405C183.434 59.4575 183.52 59.2865 183.638 59.1379C183.755 58.9893 183.902 58.8663 184.069 58.7763C184.236 58.6864 184.419 58.6314 184.608 58.6148C184.796 58.5981 184.987 58.6201 185.167 58.6795C185.347 58.7388 185.513 58.8343 185.654 58.96L193.85 65.4536L198.417 60.2806C198.661 60.0037 199.005 59.835 199.373 59.8115C199.741 59.788 200.103 59.9117 200.38 60.1553C200.657 60.399 200.826 60.7427 200.849 61.1107C200.873 61.4788 200.749 61.8412 200.505 62.1181L195.066 68.2777C194.946 68.4103 194.803 68.52 194.643 68.6013Z" fill="#E0E0E0"/>
<path d="M34.7338 120.848H102.536L96.3402 199.613H28.5376L34.7338 120.848Z" fill="#F0F0F0"/>
<path d="M31.8002 120.848H99.5975L93.4014 199.613H25.604L31.8002 120.848Z" fill="#F5F5F5"/>
<path d="M83.2643 188.62L87.7326 131.836H41.9375L37.4692 188.62H83.2643Z" fill="white"/>
<path d="M29.874 103.455H144.406V46.1448H29.874V103.455Z" fill="#E6E6E6"/>
<path d="M27.854 103.455H142.386V46.1448H27.854V103.455Z" fill="#F5F5F5"/>
<path d="M138.768 99.3887V50.2163H31.4766V99.3887H138.768Z" fill="#FAFAFA"/>
<path d="M58.61 99.3887L50.8479 50.2163H42.2349L49.997 99.3887H58.61Z" fill="white"/>
<path d="M78.8692 99.3887L71.107 50.2163H54.7319L62.494 99.3887H78.8692Z" fill="white"/>
<path d="M105.945 99.3887L98.1828 50.2163H89.5698L97.332 99.3887H105.945Z" fill="white"/>
<path d="M33.0009 99.3887V50.2163H31.4766V99.3887H33.0009Z" fill="#E6E6E6"/>
<path d="M29.3521 90.1286H140.888V84.6685H29.3521V90.1286Z" fill="#F5F5F5"/>
<path d="M122.962 199.613H146.536V123.192H122.962V199.613Z" fill="#E6E6E6"/>
<path d="M129.258 199.613H122.962V189.063H135.856L129.258 199.613Z" fill="#F5F5F5"/>
<path d="M214.182 199.613H237.755V123.192H214.182V199.613Z" fill="#E6E6E6"/>
<path d="M122.962 195.98H219.673V123.192H122.962V195.98Z" fill="#F5F5F5"/>
<path d="M213.378 199.613H219.673V189.063H206.78L213.378 199.613Z" fill="#F5F5F5"/>
<path d="M127.843 168.533H214.787V150.315H127.843V168.533Z" fill="#F0F0F0"/>
<path d="M127.843 190.64H214.787V172.422H127.843V190.64Z" fill="#F0F0F0"/>
<path d="M140.799 152.262H201.837C202.771 152.262 203.668 151.891 204.33 151.231C204.991 150.57 205.364 149.674 205.365 148.739H137.286C137.286 149.671 137.656 150.566 138.314 151.227C138.973 151.887 139.866 152.259 140.799 152.262Z" fill="#F5F5F5"/>
<path d="M127.843 146.421H214.787V128.203H127.843V146.421Z" fill="#F0F0F0"/>
<path d="M140.799 130.156H201.837C202.771 130.156 203.668 129.784 204.33 129.124C204.991 128.463 205.364 127.567 205.365 126.632H137.286C137.286 127.565 137.656 128.459 138.314 129.12C138.973 129.78 139.866 130.153 140.799 130.156Z" fill="#F5F5F5"/>
<path d="M140.799 174.374H201.837C202.772 174.374 203.67 174.002 204.332 173.341C204.993 172.679 205.365 171.781 205.365 170.845H137.286C137.286 171.779 137.656 172.674 138.314 173.335C138.972 173.996 139.866 174.37 140.799 174.374Z" fill="#F5F5F5"/>
<path d="M130.5 223.186C186.397 223.186 231.711 220.541 231.711 217.277C231.711 214.014 186.397 211.368 130.5 211.368C74.6032 211.368 29.2896 214.014 29.2896 217.277C29.2896 220.541 74.6032 223.186 130.5 223.186Z" fill="#F5F5F5"/>
<path d="M74.8219 61.8228C88.9513 59.4101 99.0345 49.4258 97.3435 39.5221C95.6524 29.6185 82.8273 23.5458 68.6979 25.9584C54.5685 28.3711 44.4853 38.3554 46.1763 48.2591C47.8674 58.1627 60.6925 64.2354 74.8219 61.8228Z" fill="#5348A7"/>
<path opacity="0.3" d="M74.8219 61.8228C88.9513 59.4101 99.0345 49.4258 97.3435 39.5221C95.6524 29.6185 82.8273 23.5458 68.6979 25.9584C54.5685 28.3711 44.4853 38.3554 46.1763 48.2591C47.8674 58.1627 60.6925 64.2354 74.8219 61.8228Z" fill="#7767ED"/>
<path d="M117.972 44.4483C119.538 47.6795 117.032 52.0852 112.418 54.2932C107.803 56.5013 102.818 55.6609 101.273 52.4297C99.7281 49.1985 102.218 44.7876 106.827 42.5848C111.437 40.3819 116.406 41.238 117.972 44.4483Z" fill="#5348A7"/>
<path opacity="0.5" d="M117.972 44.4483C119.538 47.6795 117.032 52.0852 112.418 54.2932C107.803 56.5013 102.818 55.6609 101.273 52.4297C99.7281 49.1985 102.218 44.7876 106.827 42.5848C111.437 40.3819 116.406 41.238 117.972 44.4483Z" fill="#9B90EF"/>
<path d="M126.225 57.2321C126.674 59.1687 124.789 61.2567 122.023 61.8935C119.256 62.5304 116.651 61.4759 116.208 59.5341C115.764 57.5922 117.643 55.5095 120.384 54.8726C123.124 54.2358 125.802 55.2902 126.225 57.2321Z" fill="#5348A7"/>
<path opacity="0.6" d="M126.225 57.2321C126.674 59.1687 124.789 61.2567 122.023 61.8935C119.256 62.5304 116.651 61.4759 116.208 59.5341C115.764 57.5922 117.643 55.5095 120.384 54.8726C123.124 54.2358 125.802 55.2902 126.225 57.2321Z" fill="#9B90EF"/>
<path d="M66.8578 58.9285C66.5342 58.9285 66.2105 58.9285 65.8921 58.8815C64.9612 58.8551 64.0624 58.5354 63.3238 57.9681C62.8963 57.5901 62.6093 57.0786 62.5095 56.5168C61.9197 56.5168 61.3298 56.4752 60.7347 56.4438C59.4297 56.3655 58.0778 56.2193 57.1277 55.3423C56.8429 55.0727 56.6141 54.7494 56.4547 54.3911C56.2952 54.0328 56.2082 53.6464 56.1986 53.2543C55.6676 53.1181 55.1737 52.8651 54.7529 52.5138C54.3321 52.1625 53.995 51.7218 53.766 51.2237C53.6022 50.7893 53.5324 50.3251 53.5612 49.8617C53.59 49.3983 53.7167 48.9463 53.9331 48.5354C53.3611 48.0993 52.8502 47.5884 52.414 47.0164C51.4892 45.7704 51.0078 44.2508 51.0464 42.6995C50.7852 42.5776 50.5761 42.3666 50.4565 42.1044C50.2477 41.5824 50.514 40.998 51.2082 40.429C51.3492 40.3089 51.5005 40.1887 51.6467 40.0738C52.0619 39.1702 52.6656 38.3659 53.4174 37.7149C54.1692 37.0639 55.0517 36.5814 56.0054 36.2998C57.5714 35.8509 59.2053 35.9763 60.7921 36.1016H60.8705C62.0281 35.8859 63.1978 35.7411 64.3731 35.6683C65.0313 35.5154 65.7093 35.466 66.3828 35.522C67.0616 35.2101 67.6427 34.7193 68.0636 34.1022C68.2756 33.7695 68.4606 33.4203 68.6169 33.0582C68.7787 32.6704 68.9725 32.2967 69.1963 31.9411C70.1673 30.4847 72.0517 29.6547 74.8078 29.472C78.0756 29.2632 80.7221 29.827 82.6744 31.1476C83.4121 31.641 84.0424 32.2786 84.5275 33.0218C85.5057 33.0771 86.4735 33.2523 87.4089 33.5437C88.7296 33.9248 91.8042 35.0835 91.7885 37.6048C91.7296 38.4055 91.4885 39.1821 91.0838 39.8755L89.9928 42.1202C90.0487 42.4054 90.0715 42.6961 90.0607 42.9866C90.269 43.072 90.4713 43.1714 90.6662 43.2841C91.5536 43.8061 92.4723 44.7405 92.3993 45.8941C92.3523 46.6458 91.8773 47.3714 91.016 48.097C89.9264 48.9789 88.6893 49.6611 87.362 50.1119C86.9422 50.9201 86.4532 51.6903 85.9004 52.4139C84.8303 53.813 83.045 55.619 80.6177 56.2715C79.0827 56.6978 77.4441 56.5397 76.0189 55.8278C75.5543 56.1358 75.0897 56.4072 74.6669 56.6369C71.8481 58.1611 69.2433 58.9285 66.8578 58.9285ZM62.9741 56.5168C63.0709 56.9432 63.2991 57.3285 63.6266 57.6182C64.2918 58.1232 65.099 58.4062 65.9338 58.4273C68.4812 58.657 71.3313 57.9053 74.4111 56.2402C74.7661 56.047 75.1524 55.8278 75.5387 55.5772C75.1119 55.3012 74.7299 54.9614 74.4059 54.5698C74.2274 54.3686 74.0971 54.1294 74.0248 53.8703C73.341 53.9747 72.652 54.053 71.9629 54.1104C70.8892 54.6037 69.7555 54.9547 68.5908 55.1544C68.0464 55.5024 67.4607 55.7812 66.8473 55.9844C65.5926 56.3659 64.2852 56.5456 62.9741 56.5168ZM63.7884 54.9091C63.4998 55.0446 63.2594 55.2649 63.0994 55.5407C63.0113 55.7018 62.958 55.8797 62.9428 56.0627C64.2169 56.0857 65.4867 55.9096 66.7064 55.5407C66.9204 55.4676 67.1397 55.3841 67.3641 55.2849C66.1593 55.3775 64.9477 55.2501 63.7884 54.9091ZM56.6631 53.3953C56.7124 54.011 56.9898 54.5862 57.4409 55.0082C58.2761 55.7808 59.5289 55.9113 60.7608 55.9844C61.3403 56.0157 61.9144 56.047 62.4834 56.0575C62.4988 55.7992 62.5719 55.5477 62.6975 55.3214C62.8243 55.0833 63.0026 54.8765 63.2194 54.7159C63.0159 54.6376 62.8175 54.5541 62.6244 54.4601V54.528C62.5735 54.6967 62.4808 54.8498 62.3548 54.973C62.2289 55.0962 62.0738 55.1856 61.904 55.2327C61.6722 55.3078 61.4258 55.3266 61.1852 55.2876C60.9447 55.2486 60.7169 55.1528 60.5207 55.0082C60.0279 54.5663 59.6956 53.9733 59.5759 53.3222C58.9592 53.4813 58.3227 53.55 57.6862 53.5259C57.3421 53.5119 56.9998 53.4682 56.6631 53.3953ZM76.4104 55.5355C77.6852 56.1019 79.1173 56.2071 80.4611 55.833C82.7631 55.217 84.4701 53.484 85.4984 52.1425C85.937 51.5673 86.3347 50.962 86.6886 50.3311C86.0831 50.519 85.4671 50.6809 84.8407 50.8166C83.9623 51.5496 82.9231 52.0648 81.8079 52.3199C80.817 52.5874 79.8089 52.7862 78.7907 52.915C78.6259 53.2114 78.4428 53.4974 78.2426 53.7711C77.7255 54.4493 77.1076 55.0443 76.4104 55.5355ZM74.479 53.792C74.5383 53.9732 74.6342 54.1402 74.7609 54.2827C75.0968 54.6878 75.5014 55.0306 75.9562 55.2953C76.6871 54.8035 77.3339 54.1973 77.872 53.4998C77.9973 53.3327 78.1121 53.1604 78.2217 52.9777L77.2352 53.0716C76.3381 53.388 75.4161 53.6289 74.479 53.792ZM60.03 53.1917C60.1277 53.7498 60.4044 54.261 60.8183 54.6481C60.9559 54.7455 61.1142 54.8098 61.2808 54.8361C61.4474 54.8623 61.6178 54.8498 61.7787 54.7994C61.8754 54.7724 61.964 54.7221 62.0368 54.6529C62.1095 54.5838 62.1643 54.498 62.1963 54.4028C62.2123 54.3501 62.2227 54.2958 62.2276 54.2409C61.7542 53.9843 61.3081 53.6799 60.8966 53.3326C60.7661 53.223 60.6408 53.1082 60.5207 52.9933C60.3432 53.0664 60.1762 53.129 60.03 53.1917ZM64.6654 54.6324C65.9273 54.8787 67.2229 54.8981 68.4917 54.6898C68.6725 54.5687 68.8468 54.438 69.0137 54.2983H68.8518C67.7139 54.3557 66.5394 54.4132 65.4066 54.5228C65.1506 54.5437 64.8961 54.5803 64.6445 54.6324H64.6654ZM69.7288 54.2619L69.4939 54.4862C69.8019 54.4079 70.1151 54.3244 70.4178 54.2252L69.7288 54.2619ZM62.6975 53.959C63.0561 54.1368 63.4278 54.2868 63.8093 54.4079C64.3124 54.2207 64.8398 54.1064 65.3753 54.0686C66.5133 53.959 67.6982 53.9016 68.8414 53.8494L69.5461 53.8129C69.7368 53.6019 69.9113 53.3768 70.0681 53.1395C67.8621 53.0584 65.6531 53.1159 63.4543 53.3117C63.331 53.3061 63.2078 53.3254 63.0922 53.3685C62.9765 53.4115 62.8706 53.4774 62.781 53.5623C62.7103 53.6824 62.6742 53.8197 62.6766 53.959H62.6975ZM70.6057 53.15C70.4716 53.3687 70.3252 53.5795 70.1673 53.7815C70.731 53.7502 71.2948 53.7137 71.8533 53.6615C72.177 53.5153 72.485 53.3587 72.7877 53.1865C72.1196 53.1865 71.4566 53.1865 70.7937 53.1551L70.6057 53.15ZM60.9488 52.7689L61.1889 52.9777C61.5141 53.2568 61.8635 53.5066 62.2329 53.7241C62.2486 53.5747 62.3006 53.4313 62.3843 53.3065C62.5062 53.1614 62.659 53.0453 62.8314 52.9668C63.0039 52.8882 63.1918 52.8491 63.3813 52.8524C65.6863 52.6534 68.0015 52.5976 70.3134 52.6853C70.423 52.4799 70.5138 52.265 70.5849 52.0433C70.097 52.1969 69.5921 52.2898 69.0815 52.3199C66.7257 52.5309 64.3517 52.3973 62.0345 51.9233C61.6989 52.2462 61.3276 52.5298 60.9279 52.7689H60.9488ZM73.6595 53.1917L73.5812 53.2439L73.1009 53.5362C73.4193 53.4997 73.7325 53.4527 74.0457 53.4005C74.0631 53.3286 74.0875 53.2587 74.1188 53.1917H73.6595ZM74.7035 53.1917C74.6648 53.2287 74.6314 53.2709 74.6043 53.317L75.2724 53.1812L74.7035 53.1917ZM56.6997 52.9307C57.0423 53.0114 57.3919 53.0586 57.7437 53.0716C58.3395 53.0955 58.9357 53.0322 59.5133 52.8837C59.4036 52.3982 59.294 51.8397 59.2001 51.2812L59.1061 51.1193C58.5841 50.9419 58.0986 50.7539 57.6027 50.5451C57.0942 51.2115 56.7831 52.0074 56.7049 52.8419C56.7049 52.8419 56.6527 52.8941 56.6527 52.9255L56.6997 52.9307ZM54.288 48.8069C54.1142 49.1525 54.0138 49.5303 53.9932 49.9166C53.9725 50.3029 54.032 50.6893 54.168 51.0515C54.3613 51.4728 54.644 51.847 54.9965 52.1481C55.3489 52.4492 55.7627 52.6698 56.209 52.795C56.2858 51.9135 56.6037 51.0702 57.1277 50.3572C56.898 50.258 56.6788 50.1537 56.4543 50.0441C55.6986 49.6936 54.9739 49.2797 54.288 48.8069ZM59.7899 52.1999C59.8265 52.3826 59.8682 52.5601 59.9048 52.7219L60.1553 52.6227C60.03 52.5026 59.9047 52.3617 59.7899 52.1999ZM70.8198 52.6853C71.7072 52.6853 72.605 52.7219 73.5028 52.7219C74.4246 52.1064 75.2878 51.4075 76.0815 50.6339C75.6794 50.56 75.282 50.4625 74.8914 50.3417C74.0637 50.0936 73.2773 49.7241 72.558 49.2454C72.5491 49.7147 72.4363 50.1762 72.2279 50.5968C72.0194 51.0174 71.7203 51.3866 71.3522 51.6779L71.133 51.824C71.0569 52.1325 70.9521 52.4331 70.8198 52.7219V52.6853ZM76.6557 50.7174C75.9297 51.4475 75.1459 52.1179 74.312 52.7219H74.4686C74.7792 52.4815 75.1338 52.3041 75.5126 52.1999C76.6592 51.8479 77.8274 51.5706 79.01 51.3699C79.1405 51.0515 79.2605 50.7174 79.3806 50.3729C78.521 50.7349 77.5794 50.8576 76.6557 50.7278V50.7174ZM78.7907 51.8606C77.7232 52.0486 76.6684 52.3032 75.6326 52.6227L75.4186 52.701C75.9928 52.701 76.5618 52.654 77.136 52.6123C77.7034 52.4043 78.2547 52.1548 78.7855 51.8658L78.7907 51.8606ZM59.7377 51.3386C59.9856 51.7304 60.2705 52.0974 60.5886 52.4348C60.9082 52.2569 61.2091 52.047 61.4864 51.8084C60.8966 51.6779 60.3119 51.5108 59.7377 51.3334V51.3386ZM79.1457 52.1999L79.0413 52.4191C79.9317 52.3004 80.8139 52.1261 81.6826 51.8972C82.4125 51.7102 83.1146 51.4275 83.7706 51.0567C82.9249 51.2133 82.0793 51.349 81.2337 51.4847L79.9861 51.6831L79.7094 51.871C79.5267 51.9754 79.344 52.0903 79.1457 52.1999ZM62.4156 51.5317C64.5973 51.9511 66.8269 52.0635 69.0397 51.8658C69.6196 51.8412 70.1904 51.714 70.7258 51.49C70.8343 50.7555 70.8536 50.0106 70.7832 49.2715C70.7832 49.0209 70.7832 48.7495 70.7467 48.5198C70.3545 48.88 69.909 49.1776 69.426 49.402C68.6582 49.7291 67.8301 49.8911 66.9956 49.8776C66.1611 49.8641 65.3388 49.6754 64.5819 49.3237C64.3938 49.2977 64.2073 49.2611 64.0233 49.214L63.8406 49.5325C63.439 50.2482 62.9612 50.9185 62.4156 51.5317ZM59.5446 50.7905C60.3146 51.0407 61.0969 51.2515 61.8883 51.4221C62.4972 50.7841 63.0233 50.0721 63.4543 49.3028L63.5796 49.0835C63.058 48.8995 62.5657 48.641 62.118 48.3162C61.1734 48.4558 60.2527 48.7264 59.3828 49.1201C59.4036 49.6995 59.4663 50.258 59.5446 50.7905ZM79.9026 50.2111C79.8765 50.2737 79.8556 50.3416 79.8295 50.4094C79.7251 50.707 79.6259 50.9941 79.5163 51.2759L79.8034 51.229C80.1561 50.9684 80.4767 50.667 80.7587 50.3311L79.9026 50.2111ZM71.2008 48.0656V48.2275C71.2008 48.5668 71.2008 48.9061 71.2374 49.2715C71.2896 49.909 71.2896 50.5498 71.2374 51.1873C71.534 50.8928 71.7662 50.5396 71.9189 50.1505C72.0717 49.7613 72.1418 49.3447 72.1248 48.9269C71.8021 48.6589 71.5176 48.3481 71.2791 48.003L71.2008 48.0656ZM81.3015 50.3833C81.1201 50.6349 80.9156 50.8691 80.6908 51.0828L81.1658 51.0097C82.3455 50.8218 83.4992 50.6391 84.6162 50.399C84.6476 50.399 84.6737 50.3416 84.705 50.3102C84.1489 50.4129 83.5843 50.4618 83.0189 50.4564C82.4447 50.4564 81.8705 50.4355 81.3015 50.3833ZM57.8637 50.1745L58.7668 50.5243C58.6415 50.2424 58.5319 49.9553 58.4327 49.6682C58.2284 49.8198 58.038 49.9892 57.8637 50.1745ZM77.0733 50.305C77.7204 50.3482 78.3694 50.2558 78.9786 50.0336L78.4566 49.9187C78.1643 49.8509 77.8877 49.7726 77.6162 49.6943C77.4457 49.8996 77.2647 50.1032 77.0733 50.305ZM72.558 48.6868C73.2953 49.2382 74.1241 49.6552 75.0062 49.9187C75.4831 50.07 75.9721 50.18 76.4678 50.2476C76.6975 50.0179 76.9167 49.7778 77.136 49.5377C75.8228 49.1285 74.6258 48.4128 73.6438 47.4497C73.1819 46.9718 72.7931 46.4283 72.4902 45.8367C72.3872 46.1188 72.2669 46.3942 72.13 46.6615C72.2865 47.0998 72.407 47.5502 72.4902 48.0082C72.5296 48.2324 72.5522 48.4593 72.558 48.6868ZM85.4462 50.1119L85.3679 50.2163C85.9282 50.0806 86.4711 49.924 86.9966 49.7465C87.6549 48.4532 88.1343 47.0765 88.4216 45.654C88.2156 45.7967 87.9972 45.9207 87.7691 46.0246C87.8931 46.4945 87.9163 46.9854 87.8371 47.4649C87.758 47.9444 87.5782 48.4018 87.3098 48.8069C86.8461 49.4321 86.1922 49.89 85.4462 50.1119ZM81.5782 49.9345C82.0532 49.971 82.5335 49.9918 83.0137 49.9918C83.7345 50.0011 84.4531 49.9097 85.1487 49.7204C85.1904 49.6473 85.2322 49.5742 85.2687 49.4959C85.479 49.0254 85.5851 48.5149 85.5797 47.9996C85.5743 47.4842 85.4575 46.9761 85.2374 46.5101C84.3903 46.4829 83.5478 46.3745 82.7214 46.1865L82.2725 47.006C82.1315 47.2618 81.9906 47.528 81.8444 47.7785C81.9016 47.9759 81.9366 48.179 81.9488 48.3841C81.9741 48.9288 81.8456 49.4696 81.5782 49.9448V49.9345ZM54.5021 48.3684C55.1798 48.841 55.8977 49.2532 56.6475 49.6003C56.9032 49.7256 57.1695 49.8404 57.4148 49.9501C57.6646 49.6656 57.9487 49.4132 58.2604 49.1985H58.297C58.0393 48.2202 57.9598 47.2034 58.0621 46.1969C57.2215 46.3521 56.4198 46.6714 55.7026 47.1365C55.2172 47.4675 54.8079 47.8981 54.5021 48.3997V48.3684ZM80.268 49.7726L81.0771 49.8718C81.3641 49.4319 81.5081 48.9141 81.4895 48.3893V48.3475C81.1587 48.8923 80.7468 49.3834 80.268 49.8039V49.7726ZM58.866 49.3654C58.8973 49.4698 58.9338 49.5794 58.9704 49.6838C58.9704 49.5638 58.9704 49.4437 58.9704 49.3184L58.866 49.3654ZM77.9868 49.2819L78.5976 49.4438C78.9369 49.5221 79.2762 49.5951 79.6416 49.6577C79.9896 48.6555 80.3271 47.6446 80.6542 46.6249C80.5394 46.5101 80.4246 46.4005 80.3097 46.3065C79.5424 47.3609 78.7855 48.3684 77.9712 49.3132L77.9868 49.2819ZM88.9802 45.1946C88.7295 46.6831 88.2763 48.1303 87.6334 49.4959C88.7509 49.0727 89.7927 48.4716 90.7184 47.7159C91.4962 47.0738 91.8929 46.4579 91.9295 45.8367C91.9921 44.8919 91.1934 44.0881 90.4313 43.6496C90.2895 43.5683 90.1431 43.4951 89.9928 43.4304C89.9928 43.4982 89.9615 43.5712 89.9406 43.6391C89.7669 44.2475 89.4292 44.7966 88.9645 45.2261L88.9802 45.1946ZM85.7438 46.4788C86.1391 47.4317 86.1559 48.4997 85.7907 49.4646C86.2523 49.2577 86.6518 48.9338 86.9496 48.525C87.1747 48.1832 87.3271 47.7987 87.3971 47.3955C87.4672 46.9923 87.4534 46.5789 87.3567 46.1812C87.1636 46.2439 86.9652 46.3013 86.7669 46.3483C86.4258 46.4312 86.0783 46.4854 85.7281 46.5101L85.7438 46.4788ZM65.9861 49.261C67.0763 49.5177 68.2206 49.4095 69.2433 48.953C69.8153 48.6862 70.331 48.3124 70.7623 47.8516C70.7714 47.5875 70.7975 47.3242 70.8407 47.0634C70.8146 46.9799 70.7832 46.8964 70.7623 46.8128C70.7306 46.7121 70.7062 46.6092 70.6893 46.5049C70.2142 46.6667 69.734 46.8181 69.2538 46.9538C68.5919 48.0108 67.5734 48.796 66.3828 49.1671C66.2479 49.2169 66.1102 49.2587 65.9704 49.2923L65.9861 49.261ZM80.9779 47.0269C80.7482 47.7472 80.5133 48.4571 80.268 49.1671C80.6948 48.7323 81.0617 48.2425 81.359 47.7107C81.2568 47.4763 81.1234 47.2568 80.9622 47.0582L80.9779 47.0269ZM72.96 45.6383C73.2305 46.178 73.5826 46.6728 74.004 47.1052C74.9858 48.0583 76.1868 48.7556 77.5014 49.1357C78.3603 48.1353 79.1653 47.0898 79.913 46.0037C79.7564 45.8993 79.6155 45.8054 79.4902 45.7323C78.778 45.5512 78.0983 45.2609 77.4753 44.8712C76.7685 44.6635 76.0395 44.5407 75.3037 44.5056L75.0427 44.6413C74.3433 45.0433 73.649 45.3721 72.9443 45.6697L72.96 45.6383ZM58.558 46.082C58.4515 47.0268 58.5134 47.9829 58.7407 48.9061L58.9129 48.8121C58.8613 47.8807 58.8875 46.9465 58.9913 46.0194C58.8294 46.0664 58.6885 46.0873 58.5423 46.1134L58.558 46.082ZM64.6915 48.8434C65.216 48.9079 65.748 48.8689 66.2575 48.7286C67.1613 48.4575 67.9573 47.9098 68.5334 47.1626C67.3305 47.4789 66.1105 47.7264 64.8794 47.9038H64.6863L64.3052 48.6503L64.6915 48.8434ZM59.4715 45.962C59.3672 46.8278 59.3341 47.7008 59.3723 48.5721C60.1072 48.2553 60.8761 48.024 61.6639 47.8829L61.4499 47.6741C60.9354 47.1663 60.5055 46.5795 60.1762 45.9359L59.4715 45.962ZM63.35 48.097C63.5379 48.2222 63.7258 48.3423 63.9137 48.4467C63.9972 48.2953 64.0755 48.1439 64.1538 47.9926L63.8928 48.0292L63.35 48.097ZM71.608 47.575C71.7576 47.8077 71.9327 48.023 72.13 48.217C72.13 48.17 72.13 48.1231 72.13 48.0761C72.0741 47.7768 72.0027 47.4806 71.916 47.1887L71.608 47.575ZM51.5058 42.8772C51.508 44.2628 51.9544 45.6109 52.7794 46.7241C53.1755 47.2475 53.6409 47.7146 54.1627 48.1126C54.4986 47.5715 54.9429 47.1058 55.4677 46.745C56.2813 46.2173 57.1945 45.8619 58.1508 45.701C58.2203 45.2867 58.3215 44.8783 58.4536 44.4795C56.0762 44.2173 53.7364 43.6849 51.4797 42.8926L51.5058 42.8772ZM61.0271 45.8576C61.5347 46.5619 62.1392 47.191 62.8227 47.7263C63.1568 47.6741 63.4961 47.6324 63.8354 47.5906L64.3992 47.5124C64.5506 47.2097 64.6967 46.9069 64.8429 46.6094L64.9943 46.3013C64.4003 46.1877 63.8367 45.9513 63.3395 45.607C62.5654 45.7379 61.7847 45.8268 61.0009 45.8732L61.0271 45.8576ZM65.4849 46.3431C65.4066 46.4945 65.3336 46.651 65.2553 46.8076C65.177 46.9642 65.0517 47.2252 64.9473 47.4392C66.3073 47.2371 67.6533 46.9494 68.9771 46.5779C69.6152 45.5454 70.1038 44.4276 70.4283 43.258L70.611 42.6421C70.8886 41.6315 71.225 40.6382 71.6184 39.6669C71.561 39.5572 71.4984 39.4476 71.4305 39.3432C71.072 39.5398 70.7236 39.7538 70.3865 39.9851C70.3447 40.0373 70.303 40.0947 70.256 40.1469C70.256 41.0048 70.0875 41.8543 69.7601 42.6473C68.9928 44.5421 67.4007 46.3431 65.4901 46.3431H65.4849ZM81.1449 46.5153C81.3473 46.7316 81.5226 46.9718 81.6669 47.2304C81.7452 47.0791 81.8288 46.9329 81.9123 46.7815C81.9958 46.6301 82.1472 46.343 82.2725 46.1238C82.0845 46.1238 81.8966 46.1238 81.7087 46.1238H81.312L81.1449 46.5153ZM71.3157 47.0373C71.3264 47.0716 71.3404 47.1048 71.3574 47.1365C71.467 46.9747 71.5715 46.8024 71.6706 46.6145C71.6289 46.4892 71.5819 46.3691 71.5401 46.2439C71.4301 46.5019 71.3495 46.7716 71.3 47.0477L71.3157 47.0373ZM70.7937 43.6184C70.5049 44.5818 70.1128 45.5109 69.6244 46.39C69.9637 46.2856 70.2978 46.176 70.6318 46.0612C70.5992 45.4985 70.6901 44.9356 70.8981 44.4117C70.8151 44.159 70.7728 43.8946 70.7728 43.6287L70.7937 43.6184ZM80.6282 46.0091L80.79 46.15L80.8265 46.0351L80.6282 46.0091ZM85.3262 45.6488C85.4097 45.7787 85.4864 45.9128 85.5558 46.0507C85.9239 46.0447 86.2907 46.0063 86.652 45.9359C86.8473 45.8944 87.0392 45.8387 87.2262 45.7689C87.1222 45.4253 86.9877 45.0915 86.8243 44.7718C86.3718 45.1569 85.8537 45.4575 85.2948 45.6593L85.3262 45.6488ZM84.1725 45.9672C84.4563 46.0081 84.7421 46.0343 85.0286 46.0455C84.9816 45.962 84.9294 45.8785 84.8772 45.8002C84.6353 45.8726 84.3896 45.9319 84.1412 45.9777L84.1725 45.9672ZM71.1643 45.2103C71.1173 45.4386 71.0963 45.6715 71.1017 45.9046L71.2322 45.8524C71.2635 45.7897 71.2948 45.7271 71.3313 45.6645L71.1643 45.2103ZM66.6177 44.1664C66.2993 44.7197 66.0069 45.2886 65.7198 45.8628C67.3172 45.7219 68.6587 44.1298 69.3321 42.4646C69.5591 41.9047 69.7084 41.3163 69.7758 40.7159C69.1422 41.5035 68.4226 42.2178 67.6303 42.8457C67.599 42.9135 67.5677 42.9761 67.5312 43.0388C67.2905 43.4786 66.9701 43.8699 66.5863 44.1925L66.6177 44.1664ZM64.0077 45.4556C64.3626 45.6568 64.7522 45.7896 65.1561 45.8471H65.2239C65.4014 45.4817 65.5841 45.1217 65.7459 44.7615C65.5329 44.8849 65.3113 44.9929 65.083 45.085C64.7216 45.2464 64.3481 45.379 63.9659 45.4817L64.0077 45.4556ZM81.479 45.4141C81.8288 45.5185 82.1733 45.6018 82.4969 45.6749C82.7475 45.2484 83.0376 44.8464 83.3634 44.4743L83.4365 44.3908C83.018 44.0906 82.5723 43.8303 82.1054 43.613L81.954 43.8479C81.7974 44.3699 81.6408 44.8921 81.479 45.4141ZM83.8019 44.6727L83.7027 44.777C83.4667 45.0533 83.2487 45.3444 83.0502 45.6488C83.5613 45.6205 84.0684 45.542 84.564 45.4141C84.3326 45.1464 84.0775 44.9 83.8019 44.6781V44.6727ZM58.8973 44.5475C58.773 44.903 58.677 45.2677 58.6102 45.6383C58.7511 45.6383 58.8973 45.5967 59.0382 45.5758C59.0904 45.2417 59.1531 44.9128 59.2261 44.5787L58.8973 44.5475ZM72.2292 45.2468C72.1061 45.3516 71.9941 45.4688 71.8951 45.5966L72.1509 45.4974L72.2292 45.2468ZM87.174 44.4325C87.3696 44.8013 87.5303 45.1875 87.6543 45.5862C87.9764 45.4296 88.2766 45.2313 88.5469 44.9963C88.5939 44.6883 88.6356 44.3751 88.667 44.0671C88.5619 44.1187 88.449 44.1523 88.3329 44.1664C88.2254 44.1756 88.1175 44.155 88.0209 44.1072C87.9243 44.0593 87.8426 43.9859 87.7848 43.8949L87.7221 43.8061L87.8579 43.3833C87.7038 43.7296 87.4998 44.0514 87.2523 44.3386L87.174 44.4325ZM59.6855 44.6413C59.6176 44.9336 59.5602 45.2312 59.5133 45.5287L59.9831 45.487C59.8717 45.2155 59.7708 44.9336 59.6803 44.6413H59.6855ZM79.6677 45.3618C79.8765 45.414 80.0853 45.4609 80.2941 45.5026C79.2509 45.1029 78.3958 44.3261 77.8981 43.3259C77.8056 43.1172 77.7323 42.9005 77.6789 42.6786C77.3931 43.0416 77.0635 43.3678 76.6975 43.6496C76.9703 43.9806 77.2925 44.2675 77.6527 44.5004C78.3143 44.7006 78.953 44.9703 79.5581 45.3045L79.6677 45.3618ZM60.2597 44.6571C60.3961 44.9238 60.546 45.1833 60.7086 45.4348H60.7504C61.4238 45.393 62.1024 45.346 62.7758 45.2468L62.3843 44.9598L61.9928 44.6674C61.4394 44.6831 60.86 44.6832 60.2545 44.6571H60.2597ZM81.0144 45.2625H81.051L81.0875 45.1426C81.0562 45.1895 81.0301 45.226 81.0092 45.2625H81.0144ZM84.1464 44.3595C84.4717 44.6322 84.7674 44.9385 85.0286 45.2732C85.6077 45.0766 86.1405 44.764 86.5946 44.3544C86.4123 44.0396 86.2082 43.7378 85.9839 43.4514L85.8951 43.3363C85.2477 43.5645 84.6504 43.9154 84.136 44.3699L84.1464 44.3595ZM72.7303 45.1894L72.7616 45.2573C73.2836 45.038 73.7795 44.8084 74.2754 44.563C73.7687 44.5858 73.2702 44.6991 72.8034 44.8973C72.7668 44.9965 72.7459 45.0902 72.7198 45.1894H72.7303ZM71.3783 44.4691C71.4514 44.7196 71.5401 44.9911 71.6289 45.2155C71.7265 45.0961 71.8368 44.9876 71.9577 44.8919L72.0882 44.7823C71.9726 44.4093 71.8905 44.0267 71.8429 43.6391C71.6535 43.8968 71.4941 44.1752 71.3679 44.4691H71.3783ZM62.6975 44.61C62.9376 44.7927 63.1777 44.9754 63.4178 45.132C63.9256 45.0368 64.4224 44.8899 64.9003 44.6935C65.3862 44.4963 65.8387 44.2252 66.2418 43.8898L66.3984 43.6184C65.2349 44.18 63.9756 44.5163 62.687 44.61H62.6975ZM78.1069 42.4124C78.1496 42.6624 78.2232 42.9062 78.3261 43.138C78.8021 44.0519 79.6085 44.7502 80.5812 45.0904C80.9048 44.6154 81.2232 44.135 81.5417 43.6547L81.62 43.3937L81.3537 43.2841C80.3062 42.866 79.2128 42.5734 78.0965 42.4124H78.1069ZM89.1629 43.6547C89.1629 43.9001 89.1263 44.1454 89.095 44.3908C89.276 44.1363 89.4103 43.8518 89.4917 43.5503C89.5164 43.4647 89.5356 43.3775 89.5491 43.2893L89.4291 43.2528C89.3548 43.3983 89.2618 43.5334 89.1524 43.6547H89.1629ZM72.9339 42.5429C72.9339 42.6943 72.96 42.8406 72.9652 42.992C72.9812 43.4511 72.955 43.9104 72.8869 44.3647C73.4003 44.1921 73.9374 44.1006 74.479 44.0932C74.7121 44.0932 74.9471 44.0932 75.1837 44.0932C75.4866 43.9347 75.7811 43.7604 76.0659 43.5712C75.8639 43.2488 75.7142 42.8966 75.6222 42.5274C75.6222 42.4439 75.5804 42.3604 75.5647 42.2821C74.6816 42.2882 73.801 42.3754 72.9339 42.5429ZM72.2501 43.1171C72.2719 43.5223 72.3331 43.9244 72.4327 44.3177C72.4965 43.884 72.521 43.4455 72.5058 43.0075C72.5058 42.9605 72.5058 42.9084 72.5058 42.8562C72.4119 42.9397 72.3284 43.0283 72.2501 43.1171ZM75.9823 44.1613C76.1964 44.1613 76.4104 44.2185 76.6244 44.255C76.5201 44.1517 76.4225 44.0419 76.3321 43.9262L75.9823 44.1613ZM60.03 44.1874C60.4789 44.2117 60.9122 44.2221 61.3298 44.2186C60.9218 43.9608 60.4682 43.7837 59.9935 43.6967H59.9465C59.9465 43.6967 59.9465 43.7435 59.9465 43.7696C59.9465 43.9001 60.0039 44.0306 60.0353 44.1559C60.03 44.1454 60.03 44.1665 60.03 44.1874ZM60.1031 43.2267C60.8387 43.3934 61.5273 43.7235 62.118 44.1925C63.8102 44.1628 65.4641 43.6836 66.91 42.804C67.0509 42.5952 67.2023 42.3915 67.3589 42.1932C67.5536 41.4045 67.6431 40.5937 67.6251 39.7816C67.6323 39.0432 67.711 38.3071 67.86 37.5839C67.3523 37.4885 66.8331 37.4709 66.3201 37.5317C65.758 37.7321 65.2103 37.9711 64.6811 38.2468C63.6656 38.7599 62.7443 39.4411 61.9562 40.2617C61.1517 41.1183 60.5254 42.1261 60.1136 43.2267H60.1031ZM59.0591 44.109H59.3201L59.4141 43.7853C59.4117 43.7523 59.4117 43.7191 59.4141 43.6861C59.3836 43.6966 59.3553 43.7126 59.3306 43.7331C59.2128 43.8329 59.1244 43.9628 59.0748 44.109H59.0591ZM82.3455 43.2319C82.8403 43.4679 83.3121 43.7493 83.7549 44.0723C84.281 43.5971 84.892 43.2252 85.5558 42.9762C85.0338 42.4542 84.1986 41.828 83.3791 42.1725C82.9469 42.423 82.5941 42.79 82.3612 43.2319H82.3455ZM51.4953 42.4072L51.6154 42.4542C53.872 43.2573 56.214 43.7968 58.5945 44.0619C58.6796 43.812 58.8312 43.59 59.033 43.4198C59.1135 43.3617 59.2013 43.3144 59.294 43.2789C59.2731 43.1258 59.2575 42.9746 59.247 42.825C59.2385 42.5756 59.2507 42.3257 59.2836 42.0783C59.2631 41.2545 59.3849 40.4334 59.6438 39.651C60.092 38.4205 60.9344 37.3729 62.0397 36.6706C61.6639 36.6706 61.2828 36.6235 60.9122 36.5974C57.6872 37.1504 54.6339 38.442 51.9912 40.3714C51.9251 40.528 51.8625 40.6898 51.8033 40.8568C51.6363 41.3587 51.5328 41.8796 51.4953 42.4072ZM86.3702 43.1954C86.5724 43.4555 86.7589 43.7274 86.9287 44.0097C87.1771 43.7137 87.3747 43.3788 87.5133 43.0181C87.1272 43.0381 86.7442 43.0974 86.3702 43.1954ZM88.2337 43.7174C88.2525 43.7225 88.2723 43.7225 88.2911 43.7174C88.4539 43.6847 88.6009 43.5983 88.7087 43.472V43.0962L88.4321 43.0597L88.2337 43.7174ZM71.7802 42.9085C71.5696 43.0033 71.3995 43.1696 71.3 43.3781C71.2543 43.4855 71.2295 43.6007 71.2269 43.7174C71.3895 43.4481 71.5746 43.1932 71.7802 42.9553V42.9085ZM76.0346 42.2611C76.04 42.3074 76.0505 42.3529 76.0659 42.3968C76.1421 42.7094 76.2653 43.0085 76.4313 43.2841C76.7823 43.009 77.0964 42.6899 77.3657 42.3343C76.922 42.2821 76.4783 42.2506 76.0346 42.2454V42.2611ZM71.8586 40.2513C71.5297 41.0709 71.2739 41.9427 71.0181 42.804L70.9451 43.0545C71.1454 42.7489 71.4408 42.5179 71.7855 42.3968C71.7855 42.2768 71.7855 42.1619 71.822 42.0419C71.8685 41.6318 71.9577 41.2277 72.0882 40.8362C72.036 40.6221 71.9473 40.4238 71.8638 40.2359L71.8586 40.2513ZM78.1226 41.9687C79.285 42.1359 80.4238 42.439 81.5156 42.8717L81.7348 42.9658L81.8287 42.6525C81.9198 42.4288 81.9363 42.1816 81.8757 41.9478C81.7505 41.6764 81.3537 41.5876 80.9831 41.5354C80.5029 41.4728 80.007 41.3997 79.5006 41.3423L79.3597 41.3997L79.3336 41.3266C79.0099 41.2901 78.6811 41.264 78.3522 41.2431C78.3039 41.488 78.2269 41.7263 78.1226 41.953V41.9687ZM83.8646 41.6295C84.7624 41.6295 85.5663 42.329 86.0256 42.8301C86.5498 42.6748 87.0921 42.5887 87.6386 42.5742C87.7761 41.9085 87.7804 41.2221 87.6514 40.5546C87.5224 39.8872 87.2626 39.2519 86.8869 38.6853C86.2526 38.2434 85.5759 37.8656 84.8668 37.5578L84.6945 37.5265C84.3299 38.2122 83.8373 38.8217 83.2434 39.3222C82.3816 40.0162 81.4187 40.5743 80.388 40.977L81.0457 41.0656C81.2949 41.0654 81.54 41.1292 81.7575 41.2508C81.975 41.3723 82.1577 41.5476 82.2881 41.7599C82.3833 41.9898 82.4016 42.2443 82.3403 42.4855C82.566 42.1728 82.8678 41.923 83.2173 41.7599C83.4272 41.6646 83.6549 41.6148 83.8854 41.6137L83.8646 41.6295ZM59.7325 42.0992C59.7325 42.3289 59.7325 42.5587 59.7743 42.7989C60.1974 41.7572 60.8078 40.8016 61.5751 39.9799C62.398 39.1296 63.3579 38.4238 64.4148 37.8919C63.442 38.1077 62.5201 38.5101 61.7004 39.0768C60.6839 39.7866 59.9852 40.8656 59.7534 42.0835L59.7325 42.0992ZM89.1054 41.097C89.1054 41.1857 89.1054 41.2745 89.1054 41.3581C89.142 41.8018 89.1524 42.2401 89.1524 42.6786L89.4447 42.0731C89.3811 41.7303 89.2741 41.3972 89.1263 41.0815L89.1054 41.097ZM88.5834 42.6212H88.7244C88.7244 42.475 88.7244 42.3238 88.7244 42.1776L88.5834 42.6212ZM87.7743 39.39C88.2049 40.3876 88.3249 41.4919 88.1189 42.5587L88.6409 40.9925C88.611 40.7121 88.5586 40.4347 88.4843 40.1627C88.4112 40.0687 88.3277 39.9747 88.2441 39.8807C88.1606 39.7867 87.9466 39.5257 87.7848 39.3744L87.7743 39.39ZM72.3283 41.7182C72.3283 41.8435 72.2866 41.9687 72.2709 42.0992V42.2401L72.4171 42.2037C72.4 42.0354 72.3739 41.868 72.3388 41.7025L72.3283 41.7182ZM51.297 40.9351C51.0203 41.2013 50.7175 41.5877 50.8585 41.9323C50.8999 42.0312 50.9687 42.1164 51.0568 42.1776C51.098 41.7569 51.1784 41.3409 51.297 40.9351ZM75.523 41.3581C75.1126 41.4364 74.7093 41.548 74.3172 41.692C74.1397 41.7599 73.9622 41.8435 73.7952 41.9323C74.3699 41.854 74.9484 41.807 75.5282 41.7914C75.516 41.6473 75.5143 41.5024 75.523 41.3581ZM75.9719 41.786C76.4939 41.786 77.0472 41.8225 77.5797 41.88C77.5764 41.6514 77.5886 41.4231 77.6162 41.1962C77.0719 41.1865 76.5276 41.216 75.9876 41.2849C75.9719 41.4514 75.9667 41.6188 75.9719 41.786ZM72.558 40.8255C72.6606 41.1329 72.7425 41.447 72.8034 41.7653L72.9287 41.5983C73.1444 41.28 73.2872 40.9177 73.3468 40.5378C73.4063 40.1579 73.3812 39.7695 73.2732 39.4005C72.9783 39.8449 72.7382 40.3234 72.558 40.8255ZM89.262 40.4602C89.4628 40.7711 89.6274 41.1037 89.7527 41.4519L90.6192 39.6771C90.9867 39.0368 91.2111 38.3244 91.277 37.5891C91.277 35.3811 88.4425 34.3214 87.221 33.9664C86.4126 33.7158 85.5796 33.553 84.7363 33.481C85.0312 34.0573 85.1935 34.6923 85.2113 35.3394C85.2228 35.6908 85.186 36.042 85.1017 36.3833C85.3784 36.538 85.6435 36.7125 85.8951 36.9053L86.8608 36.9679C87.8109 37.0306 89.1211 37.2395 89.5178 38.2783C89.6871 38.8906 89.6353 39.5428 89.3717 40.1208L89.262 40.4602ZM68.2776 37.7248C68.1551 38.3999 68.0974 39.0851 68.1054 39.7711C68.0994 40.3258 68.0645 40.8799 68.001 41.431C68.533 40.8529 69.1204 40.3285 69.7549 39.8651C69.7416 39.5118 69.6526 39.1654 69.4942 38.8493C69.3357 38.5333 69.1113 38.255 68.8362 38.033C68.6649 37.9053 68.477 37.8015 68.2776 37.7248ZM73.602 38.9463C73.8863 39.6981 73.8863 40.5278 73.602 41.2797C74.3686 40.9912 75.1048 40.6275 75.7997 40.1939C76.0456 39.6106 76.3999 39.0793 76.8437 38.6279C76.4711 38.3071 76.0567 38.0384 75.6117 37.8292C75.2359 37.9128 74.8444 38.0172 74.4529 38.132C74.1438 38.3755 73.8589 38.6482 73.602 38.9463ZM75.5752 40.8464L75.4865 40.8987H75.57L75.5752 40.8464ZM78.3731 40.7681C78.7281 40.7681 79.0778 40.8255 79.4171 40.862C80.6912 40.4315 81.8827 39.7872 82.9406 38.9567C83.448 38.5248 83.8756 38.0071 84.2039 37.4273C82.5582 37.0837 80.8542 37.1392 79.2344 37.5891C79.1039 37.8867 78.9786 38.1947 78.8533 38.5027C78.6498 39.0247 78.4462 39.5466 78.2948 40.0686C78.3381 40.2518 78.3626 40.439 78.3679 40.6272L78.3731 40.7681ZM76.1546 40.481C76.1129 40.5906 76.0815 40.7002 76.0502 40.8098C76.5856 40.7491 77.1245 40.7246 77.6632 40.7368C77.705 40.5123 77.7624 40.2827 77.825 40.0531C77.7427 39.7735 77.6158 39.509 77.4492 39.27C77.0871 39.7347 76.6578 40.1428 76.1755 40.481H76.1546ZM62.8906 36.6706C61.5782 37.3082 60.5654 38.4314 60.0666 39.8026C60.0035 39.9732 59.9512 40.1474 59.91 40.3245C60.3023 39.6794 60.8207 39.1201 61.4342 38.6801C62.7612 37.792 64.291 37.2535 65.8816 37.1142L66.174 37.0829C66.8242 36.8579 67.4909 36.6835 68.168 36.561L68.1993 36.5036C67.9395 36.3836 67.6707 36.2839 67.3955 36.2058C67.2388 36.1588 67.077 36.1223 66.9152 36.091H66.294C65.2132 36.4959 64.0655 36.6928 62.9115 36.6706H62.8906ZM72.0987 39.672C72.1822 39.839 72.2605 40.006 72.3336 40.1939C72.5388 39.7235 72.798 39.2785 73.1061 38.868C73.0696 38.7845 73.0278 38.7062 72.9861 38.6227L72.5632 38.8003C72.3924 39.082 72.2373 39.3731 72.0987 39.672ZM88.9123 39.9122C88.9302 39.9376 88.9493 39.9617 88.9697 39.9851C89.1879 39.5079 89.2411 38.9717 89.1211 38.4609C88.8183 37.6622 87.6856 37.4952 86.8608 37.4169H86.4954L86.652 37.5839C87.4088 37.8596 88.0616 38.3629 88.5208 39.0246C88.6905 39.3015 88.8222 39.6002 88.9123 39.9122ZM68.3925 37.3021C68.8667 37.4696 69.2844 37.7668 69.5982 38.1599C69.9119 38.553 70.1091 39.0262 70.1673 39.5257C70.4074 39.2334 70.6527 38.9359 70.9033 38.6436C70.3823 37.9588 69.7422 37.3735 69.0137 36.9157C68.8466 36.9157 68.6744 36.9627 68.4917 36.994C68.4656 37.0619 68.429 37.1767 68.382 37.2811L68.3925 37.3021ZM58.5319 36.4668C57.7148 36.4507 56.8996 36.5491 56.1098 36.7592C54.6178 37.1984 53.3326 38.1576 52.4871 39.4631C54.5438 38.0798 56.8288 37.0708 59.2366 36.4826C59.0034 36.4582 58.7685 36.4459 58.5319 36.4459V36.4668ZM77.1725 38.9202C77.021 39.084 76.8815 39.2584 76.7549 39.4422C76.9078 39.2796 77.0475 39.1051 77.1725 38.9202ZM77.7415 38.8889C77.862 39.0537 77.9685 39.2283 78.0599 39.4109C78.1852 39.0612 78.3157 38.7167 78.4566 38.367L78.6602 37.845C78.4531 37.9432 78.2525 38.0547 78.0599 38.179C77.9772 38.4188 77.8705 38.6496 77.7415 38.868V38.8889ZM71.8116 39.1501V39.1813L71.8377 39.124L71.8116 39.1501ZM71.514 38.6279C71.5401 38.6644 71.5662 38.701 71.5871 38.7375C71.8168 38.6227 72.0413 38.5132 72.2657 38.4141C72.3701 38.247 72.4745 38.0902 72.5893 37.9389C72.5267 37.8606 72.4588 37.7823 72.391 37.7093C72.0621 38.012 71.7698 38.3251 71.514 38.6279ZM73.435 38.4243L73.4663 38.3879L73.435 38.4243ZM69.7497 36.8115C70.3073 37.2237 70.8061 37.7101 71.2322 38.2573C71.4984 37.9597 71.7541 37.6726 72.0569 37.396C72.007 37.3531 71.9547 37.3131 71.9003 37.276C71.6385 37.0741 71.3569 36.8993 71.0599 36.7541C70.6134 36.7539 70.1673 36.7781 69.7236 36.827L69.7497 36.8115ZM76.3269 37.6204C76.6361 37.804 76.9279 38.0156 77.1986 38.2522C77.3557 38.1116 77.5213 37.9807 77.6945 37.8606C77.7363 37.704 77.7728 37.5473 77.7989 37.3907C77.4805 37.4325 77.1673 37.4743 76.8541 37.5265L76.3269 37.6204ZM73.1583 37.9495L73.2053 38.0224C73.5603 37.8919 73.9048 37.7718 74.2493 37.6674C74.3746 37.563 74.5051 37.4638 74.6408 37.3699H74.5938C74.3798 37.302 74.1606 37.2394 73.9413 37.182C73.6456 37.4147 73.3745 37.677 73.1322 37.965L73.1583 37.9495ZM72.7303 37.4273L72.8765 37.5997C73.037 37.4127 73.2115 37.2383 73.3985 37.0778L73.2262 37.041C73.0348 37.1559 72.8608 37.2811 72.7042 37.4169L72.7303 37.4273ZM78.2687 37.3647C78.2687 37.4273 78.2687 37.4848 78.2687 37.5475C78.3804 37.4855 78.4954 37.4298 78.6132 37.3805L78.7385 37.3231L78.2687 37.3647ZM74.4216 36.8427L74.7296 36.9366C75.0572 37.0378 75.378 37.1599 75.69 37.3021C76.0659 37.2186 76.4313 37.1506 76.781 37.0932C77.1307 37.0358 77.4857 36.9836 77.825 36.9418C77.8323 36.6926 77.8077 36.4436 77.7519 36.2006C77.736 36.1171 77.7133 36.0351 77.6841 35.9552C76.5266 35.9389 75.3876 36.2462 74.3955 36.8427H74.4216ZM67.7974 37.1193L67.9801 37.1559C67.9801 37.1245 67.9801 37.0984 67.9801 37.0723L67.7974 37.1193ZM72.0882 36.8583L72.1717 36.9211L72.3962 37.0984L72.605 36.9211C72.4066 36.9002 72.2344 36.874 72.0621 36.8583H72.0882ZM78.1747 35.9552C78.19 36.0032 78.2022 36.0522 78.2113 36.1016C78.268 36.3605 78.296 36.6248 78.2948 36.8898L79.13 36.8218C79.2553 36.5608 79.3806 36.2998 79.5163 36.0649C79.0628 36.0034 78.6062 35.9668 78.1487 35.9552H78.1747ZM85.0234 36.8637H85.0756L85.0286 36.8322L85.0234 36.8637ZM84.3657 36.827H84.5379C84.5693 36.7487 84.5954 36.6705 84.6215 36.5974C83.3004 35.9449 81.8596 35.57 80.388 35.4959L80.2523 35.6995C80.7326 35.783 81.1867 35.8874 81.6095 35.9866C82.5355 36.212 83.4472 36.4926 84.3396 36.827H84.3657ZM80.0017 36.138C79.8817 36.3468 79.7669 36.566 79.6572 36.7905C80.6699 36.7383 81.6878 36.7331 82.7005 36.7592C82.2933 36.6444 81.8966 36.5401 81.5156 36.4514C80.9622 36.3209 80.4559 36.2163 79.9757 36.138H80.0017ZM73.7377 36.66H73.8317C74.0489 36.4992 74.2774 36.3543 74.5155 36.2267C74.3485 36.3067 74.1745 36.3902 73.9935 36.4772C73.9048 36.5399 73.8108 36.608 73.7117 36.6706L73.7377 36.66ZM71.1643 36.3259C71.8072 36.3513 72.4474 36.4229 73.08 36.54C73.3059 36.3782 73.5412 36.2299 73.7847 36.0962C74.8405 35.5481 75.993 35.2112 77.1777 35.1044C77.0422 34.9613 76.8855 34.84 76.7132 34.7443C76.1425 34.4823 75.5191 34.3554 74.8914 34.3736C73.0174 34.2953 70.6788 34.5095 69.3164 35.7989C69.9437 35.9013 70.5557 36.0818 71.1382 36.3363L71.1643 36.3259ZM68.904 36.2947L69.1337 36.4253C69.353 36.4009 69.5722 36.3798 69.7914 36.3624C69.52 36.2998 69.2694 36.2476 68.9667 36.2058L68.904 36.2947ZM80.7273 35.0835C82.1177 35.183 83.4765 35.5464 84.7311 36.1538C84.7833 35.8944 84.8078 35.6302 84.8042 35.3656C84.7776 34.7005 84.5895 34.0518 84.2561 33.4757C83.5226 33.4648 82.7968 33.6259 82.1367 33.9458C81.5882 34.2226 81.103 34.6098 80.7117 35.0835H80.7273ZM67.1553 35.6055C67.6979 35.6124 68.2398 35.6472 68.7787 35.7099C70.2142 34.0865 72.8451 33.8203 74.9331 33.9038C75.6304 33.8904 76.3214 34.037 76.9533 34.332C77.2674 34.5065 77.5386 34.749 77.7467 35.0419C78.1487 35.0158 78.5193 35.0052 78.8586 35C79.3145 35 79.7529 35.0104 80.174 35.0313C80.6384 34.4015 81.2399 33.8856 81.9332 33.5227C82.5674 33.2072 83.2612 33.0294 83.969 33.0008C83.5406 32.4119 83.0102 31.9045 82.403 31.5027C80.5342 30.2342 77.9868 29.6965 74.8183 29.9053C72.2083 30.0723 70.4491 30.8344 69.5617 32.1708C69.3535 32.5047 69.1703 32.8538 69.0137 33.2149C68.8519 33.6026 68.658 33.9764 68.4342 34.332C68.0973 34.8477 67.6542 35.2853 67.1344 35.616L67.1553 35.6055ZM78.1173 35.4803C78.675 35.4916 79.2314 35.5403 79.7825 35.6264C79.8138 35.5742 79.8451 35.522 79.8817 35.4698C79.5528 35.4698 79.2188 35.4698 78.8795 35.4698C78.608 35.4959 78.3522 35.4959 78.0808 35.4959L78.1173 35.4803Z" fill="white"/>
<path d="M50.3833 128.877L51.824 131.669C52.1336 132.274 52.5063 132.844 52.9359 133.371L45.8262 215.586H47.601L61.7263 137.004H83.8017L75.9091 215.586H77.6839L93.6101 133.371C94.1753 132.845 94.6989 132.276 95.1761 131.669L97.3946 128.877H50.3833Z" fill="#263238"/>
<path opacity="0.5" d="M50.3833 128.877L51.824 131.669C52.1336 132.274 52.5063 132.844 52.9359 133.371L45.8262 215.586H47.601L61.7263 137.004H83.8017L75.9091 215.586H77.6839L93.6101 133.371C94.1753 132.845 94.6989 132.276 95.1761 131.669L97.3946 128.877H50.3833Z" fill="white"/>
<path d="M152.069 214.004H148.927L133.402 161.554H138.805L152.069 214.004Z" fill="#5348A7"/>
<path d="M95.9956 214.004H99.1381L114.663 161.554H109.26L95.9956 214.004Z" fill="#5348A7"/>
<path d="M180.356 214.004H177.214L161.69 161.554H167.097L180.356 214.004Z" fill="#5348A7"/>
<path d="M148.065 97.1964C128.36 101.435 128.026 127.243 130.02 144.082C130.219 145.738 130.065 147.416 129.568 149.008C129.071 150.599 128.242 152.067 127.136 153.314C126.03 154.562 124.672 155.561 123.152 156.245C121.632 156.929 119.984 157.283 118.317 157.284H98.9245C98.2582 157.286 97.6125 157.515 97.0942 157.934C96.5759 158.353 96.2158 158.936 96.0734 159.587C95.9311 160.238 96.015 160.918 96.3112 161.514C96.6075 162.111 97.0984 162.589 97.703 162.869C104.076 165.798 116.871 168.789 142.537 168.789C181.578 168.789 179.991 147.679 184.125 127.243C190.593 95.3068 183.139 89.6535 148.065 97.1964Z" fill="#5348A7"/>
<path opacity="0.3" d="M148.065 97.1964C128.36 101.435 128.026 127.243 130.02 144.082C130.219 145.738 130.065 147.416 129.568 149.008C129.071 150.599 128.242 152.067 127.136 153.314C126.03 154.562 124.672 155.561 123.152 156.245C121.632 156.929 119.984 157.283 118.317 157.284H98.9245C98.2582 157.286 97.6125 157.515 97.0942 157.934C96.5759 158.353 96.2158 158.936 96.0734 159.587C95.9311 160.238 96.015 160.918 96.3112 161.514C96.6075 162.111 97.0984 162.589 97.703 162.869C104.076 165.798 116.871 168.789 142.537 168.789C181.578 168.789 179.991 147.679 184.125 127.243C190.593 95.3068 183.139 89.6535 148.065 97.1964Z" fill="black"/>
<path d="M124.132 98.2457C123.353 97.8726 122.508 97.6567 121.645 97.6104C120.783 97.564 119.92 97.6881 119.105 97.9756C118.291 98.2631 117.541 98.7083 116.899 99.2858C116.256 99.8633 115.734 100.562 115.362 101.341L115.19 101.706L114.944 102.228L114.647 102.829L114.021 104.055C113.587 104.87 113.159 105.689 112.695 106.472C113.055 105.267 113.446 104.055 113.848 102.85C114.25 101.644 114.683 100.318 115.127 99.0548C115.988 96.5336 116.923 93.9705 117.795 91.4806L117.826 91.3971C118.089 90.651 118.075 89.8348 117.784 89.0986C117.494 88.3625 116.948 87.756 116.246 87.3908C115.544 87.0255 114.733 86.926 113.964 87.1106C113.194 87.2953 112.518 87.7516 112.058 88.3956C110.382 90.7341 108.926 93.0936 107.469 95.5052C106.013 97.9169 104.708 100.417 103.45 102.98C102.171 105.593 101.043 108.277 100.073 111.019C99.5926 112.439 99.1385 113.9 98.7626 115.456C98.348 117.136 98.1031 118.853 98.0318 120.582C97.978 121.944 98.4171 123.28 99.2685 124.344C100.12 125.408 101.326 126.13 102.667 126.376L103.095 126.455C104.903 126.78 106.756 126.756 108.555 126.387C110.202 126.034 111.786 125.434 113.253 124.607C115.707 123.198 117.903 121.381 119.747 119.235C120.592 118.291 121.384 117.299 122.117 116.265C122.832 115.258 123.516 114.25 124.126 113.211C124.737 112.173 125.332 111.123 125.859 110.079C126.126 109.557 126.381 109.009 126.637 108.456L126.997 107.616L127.389 106.665C128.02 105.111 128.035 103.375 127.429 101.81C126.824 100.245 125.645 98.9706 124.132 98.2457Z" fill="#263238"/>
<path d="M111.917 81.7608L111.776 84.3706C111.731 85.4107 111.909 86.4484 112.298 87.4141L113.342 90.092C113.583 90.7016 113.992 91.2303 114.521 91.6165C115.051 92.0028 115.679 92.2308 116.333 92.2739C117.222 92.3342 118.099 92.0474 118.78 91.474C119.462 90.9005 119.894 90.0852 119.987 89.1993C120.066 87.8595 119.944 86.5153 119.627 85.2113L119.334 81.8966C119.285 81.3532 119.045 80.845 118.655 80.4626C118.266 80.0802 117.754 79.8484 117.21 79.8086L114.386 79.5945C114.081 79.5733 113.775 79.6126 113.486 79.7102C113.197 79.8078 112.929 79.9617 112.7 80.1631C112.47 80.3645 112.283 80.6094 112.149 80.8837C112.014 81.1579 111.935 81.456 111.917 81.7608Z" fill="#FFB573"/>
<path opacity="0.2" d="M119.632 85.2062L119.34 81.8967C119.29 81.3545 119.049 80.8476 118.662 80.4655C118.274 80.0834 117.763 79.8507 117.22 79.8087L114.485 79.5999C114.177 83.8699 116.364 88.62 118.76 91.5015C119.109 91.2197 119.397 90.8706 119.608 90.4751C119.818 90.0797 119.947 89.6458 119.987 89.1995C120.07 87.8581 119.95 86.5119 119.632 85.2062Z" fill="black"/>
<path d="M143.127 92.467C135.59 93.0307 126.152 93.6467 119.381 96.8674C116.041 98.4595 115.143 101.806 115.639 105.475C116.427 111.301 117.105 115.952 118.557 120.869C121.918 132.212 115.179 140.334 122.733 149.12C126.047 152.889 146.369 156.428 160.76 151.698C162.848 143.112 160.15 121.756 157.263 102.317C156.255 95.4528 150.054 91.9502 143.127 92.467Z" fill="#5348A7"/>
<path d="M133.773 83.3374C134.138 86.532 135.72 91.2196 138.424 92.6812C138.718 92.8422 138.968 93.0713 139.154 93.3494C139.341 93.6274 139.457 93.9462 139.495 94.2788C139.532 94.6114 139.489 94.9482 139.369 95.2606C139.249 95.5731 139.056 95.8521 138.805 96.0742C137.213 97.4679 134.754 98.6842 131.455 99.368C127.154 100.245 126.235 98.9452 126.298 97.6089C126.362 96.9639 126.625 96.3548 127.05 95.8654C128.438 94.1532 127.05 92.8221 126.188 91.8199L133.773 83.3374Z" fill="#FFB573"/>
<path opacity="0.2" d="M131.842 88.1553C131.758 87.9761 131.663 87.8018 131.56 87.6333L126.194 91.8354C126.716 92.4879 127.53 93.2865 127.629 94.2313C130.401 92.5662 132.656 89.8883 131.842 88.1553Z" fill="black"/>
<path d="M98.4023 198.313C99.4463 197.243 106.086 195.181 106.086 195.181C107.825 200.178 109.262 205.275 110.387 210.444L101.79 211.321C101.79 211.321 100.365 202.609 98.4023 198.313Z" fill="#FFB573"/>
<path d="M136.425 144.918C111.562 145.273 78.8429 143.941 86.5476 166.601C89.8466 176.3 89.5804 179.865 93.438 191.616C95.098 196.674 95.6617 198.162 96.8675 201.664C98.1882 204.796 106.102 204.222 109.025 202.995C112.538 201.127 109.547 196.079 109.155 193.239C107.156 179.375 111.306 174.077 106.942 164.989C114.877 166.137 137.182 165.333 140.502 151.698C140.502 151.698 145.074 146.264 136.425 144.918Z" fill="#263238"/>
<path d="M98.8929 203.335L99.9369 205.423C99.9998 205.548 100.101 205.649 100.226 205.712C100.351 205.775 100.493 205.796 100.631 205.772C102.041 205.527 106.237 204.854 108.68 205.151C108.768 205.161 108.858 205.152 108.942 205.126C109.027 205.1 109.105 205.057 109.173 205C109.241 204.943 109.297 204.873 109.337 204.794C109.377 204.715 109.4 204.629 109.406 204.54C109.453 203.716 109.443 202.646 109.432 201.972C109.427 201.801 109.355 201.638 109.233 201.519C109.11 201.399 108.946 201.331 108.774 201.33C105.595 201.363 102.426 201.712 99.3157 202.374C99.2168 202.398 99.1246 202.444 99.0464 202.509C98.9683 202.574 98.9063 202.656 98.8653 202.749C98.8243 202.842 98.8055 202.944 98.8103 203.045C98.8151 203.147 98.8434 203.246 98.8929 203.335Z" fill="#5348A7"/>
<path d="M112.23 215.904L111.332 209.844C111.299 209.703 111.217 209.579 111.1 209.494C110.983 209.409 110.84 209.368 110.695 209.379L101.879 209.416C101.172 209.367 100.468 209.55 99.8744 209.938C97.8908 211.577 94.8162 213.148 90.3479 214.015C88.9333 214.291 89.5336 217.1 92.8483 217.084C98.3293 217.058 98.0996 216.886 102.766 216.87C106.765 216.87 107.767 217.053 110.941 217.084C111.104 217.096 111.268 217.075 111.423 217.021C111.577 216.968 111.719 216.883 111.84 216.773C111.961 216.662 112.058 216.528 112.125 216.379C112.192 216.23 112.228 216.068 112.23 215.904Z" fill="#263238"/>
<path d="M130.709 74.9539C133.042 80.2992 134.681 83.306 133.434 87.482C131.565 93.7929 123.985 95.2128 120.107 90.7967C116.62 86.819 113.389 78.7385 117.382 73.6855C121.318 68.716 128.375 69.6034 130.709 74.9539Z" fill="#FFB573"/>
<path d="M126.418 87.8057C126.706 87.799 126.994 87.8147 127.279 87.8527C127.299 87.8552 127.318 87.8617 127.335 87.8719C127.353 87.882 127.367 87.8956 127.379 87.9117C127.391 87.9279 127.399 87.9462 127.404 87.9657C127.408 87.9852 127.408 88.0053 127.405 88.0249C127.403 88.0445 127.397 88.0635 127.387 88.0807C127.378 88.0978 127.365 88.1128 127.349 88.1246C127.333 88.1364 127.315 88.1448 127.296 88.1492C127.277 88.1536 127.257 88.1539 127.238 88.1502C126.604 88.0429 125.954 88.0877 125.342 88.281C124.729 88.4743 124.171 88.8106 123.714 89.2621C123.686 89.2904 123.647 89.3064 123.607 89.3064C123.567 89.3064 123.528 89.2904 123.5 89.2621C123.486 89.2485 123.475 89.2322 123.468 89.2143C123.46 89.1964 123.456 89.1771 123.456 89.1577C123.456 89.1382 123.46 89.119 123.468 89.1011C123.475 89.0831 123.486 89.0669 123.5 89.0533C124.273 88.2734 125.32 87.8258 126.418 87.8057Z" fill="#263238"/>
<path d="M124.012 81.4319C123.745 81.5833 123.724 82.0375 123.959 82.4447L124.92 81.8861C124.685 81.479 124.278 81.2753 124.012 81.4319Z" fill="#263238"/>
<path d="M119.016 84.2664C118.75 84.4178 118.724 84.8719 118.964 85.2791L119.924 84.7206C119.658 84.3134 119.256 84.1098 119.016 84.2664Z" fill="#263238"/>
<path d="M122.707 78.8951C122.74 78.8523 122.784 78.8202 122.835 78.8026C122.886 78.7849 122.941 78.7826 122.994 78.7959C123.327 78.8906 123.678 78.9046 124.017 78.8365C124.357 78.7684 124.675 78.6202 124.946 78.4044C124.972 78.3787 125.002 78.3583 125.036 78.3443C125.069 78.3304 125.105 78.3232 125.142 78.3232C125.178 78.3232 125.214 78.3304 125.248 78.3443C125.281 78.3583 125.312 78.3787 125.337 78.4044C125.363 78.4301 125.384 78.4606 125.397 78.4942C125.411 78.5278 125.419 78.5638 125.419 78.6001C125.419 78.6365 125.411 78.6725 125.397 78.7061C125.384 78.7397 125.363 78.7702 125.337 78.7959C124.999 79.0739 124.598 79.2665 124.169 79.3573C123.74 79.4482 123.296 79.4347 122.874 79.3179C122.803 79.2995 122.743 79.2541 122.706 79.1915C122.669 79.129 122.658 79.0544 122.675 78.9838C122.681 78.9527 122.691 78.9228 122.707 78.8951Z" fill="#263238"/>
<path d="M118.364 81.3486C118.416 81.3097 118.482 81.2929 118.546 81.3016C118.619 81.3083 118.686 81.3432 118.733 81.3989C118.78 81.4546 118.803 81.5266 118.797 81.5992C118.77 82.0369 118.639 82.4618 118.414 82.8379C118.188 83.2141 117.876 83.5305 117.502 83.7602C117.438 83.7935 117.363 83.8002 117.293 83.7787C117.224 83.7572 117.166 83.7093 117.132 83.6454C117.114 83.6139 117.103 83.5793 117.099 83.5436C117.095 83.5078 117.099 83.4716 117.109 83.4372C117.119 83.4027 117.136 83.3706 117.159 83.3427C117.182 83.3148 117.21 83.2917 117.241 83.2748C117.533 83.0879 117.776 82.8341 117.951 82.5346C118.125 82.235 118.225 81.8983 118.243 81.5522C118.248 81.5116 118.26 81.4723 118.281 81.4372C118.302 81.402 118.33 81.3718 118.364 81.3486Z" fill="#263238"/>
<path opacity="0.2" d="M120.107 84.564C120.128 84.9685 120.046 85.3718 119.87 85.7366C119.694 86.1015 119.429 86.4162 119.1 86.652C121.532 86.2552 120.107 84.564 120.107 84.564Z" fill="black"/>
<path opacity="0.2" d="M123.354 82.7578C123.702 82.9559 124.093 83.0644 124.493 83.0735C124.893 83.0826 125.289 82.9921 125.645 82.81C124.32 84.4856 123.354 82.7578 123.354 82.7578Z" fill="black"/>
<path d="M135.12 75.1314C134.859 72.7198 134.222 70.9189 133.376 69.6974C133.745 69.8153 134.124 69.8992 134.509 69.948C132.358 66.6855 128.85 67.2962 127.723 68.6169C126.35 65.6154 124.408 67.6199 122.2 68.0009C119.992 68.382 115.884 66.7847 115.884 66.7847C115.884 66.7847 116.787 68.3507 118.259 68.5908C115.404 69.8801 114.349 72.0986 113.592 73.8108C112.835 75.5229 110.539 77.5744 110.539 77.5744C111.497 77.5845 112.426 77.2427 113.149 76.6139C112.862 78.3574 111.656 81.6095 111.061 82.3559C112.627 81.8339 114.094 79.9182 114.094 79.9182C114.094 79.9182 114.375 83.0502 115.847 85.1695C115.545 82.4603 119.882 77.0367 119.882 77.0367C119.69 78.1998 119.69 79.3867 119.882 80.5498C121.84 78.8951 125.029 73.4767 125.029 73.4767C125.07 75.0509 125.292 76.6151 125.692 78.1382C125.878 77.2267 126.259 76.3664 126.809 75.6169C126.235 77.5587 127.697 82.0479 127.697 82.0479C127.623 80.8756 127.699 79.6987 127.921 78.5453C128.334 79.8816 130.865 81.3537 131.904 81.5051C131.894 81.5155 135.856 81.8235 135.12 75.1314Z" fill="#263238"/>
<path d="M135.068 79.9964C134.985 81.419 134.343 82.7513 133.282 83.7026C131.862 84.9502 130.338 83.8803 130.051 82.1368C129.79 80.5447 130.213 77.9606 131.962 77.4125C133.71 76.8644 135.151 78.2529 135.068 79.9964Z" fill="#FFB573"/>
<path d="M121.49 83.9846C121.49 83.9846 122.279 86.7981 122.127 88.5521C123.27 88.6721 124.215 87.5394 124.215 87.5394L121.49 83.9846Z" fill="#ED893E"/>
<path opacity="0.2" d="M118.619 165.062C118.317 161.611 117.878 158.161 117.293 154.747C117.032 153.187 116.528 151.678 115.8 150.273C99.0965 148.05 97.6192 161.935 108.66 188.332C108.075 177.965 110.748 172.918 106.947 164.989C110.822 165.46 114.739 165.484 118.619 165.062Z" fill="black"/>
<path opacity="0.2" d="M133.11 79.1664L134.222 81.4789C134.655 82.3567 134.877 83.3239 134.869 84.3029L134.812 86.9129C134.785 87.5182 134.557 88.0973 134.164 88.558C133.77 89.0186 133.234 89.3344 132.64 89.455C131.725 89.674 130.764 89.594 129.898 89.2267C129.032 88.8593 128.306 88.224 127.827 87.414C127.255 86.2652 126.872 85.0312 126.695 83.76L125.75 80.7324C125.671 80.4939 125.644 80.2414 125.67 79.9916C125.696 79.7418 125.775 79.5004 125.901 79.2833C126.027 79.0662 126.198 78.8783 126.403 78.7322C126.607 78.5861 126.84 78.485 127.086 78.4356L129.827 77.6945C130.46 77.5422 131.125 77.604 131.719 77.8704C132.313 78.1367 132.803 78.5925 133.11 79.1664Z" fill="black"/>
<path d="M133.747 79.4745L134.603 81.9436C134.947 82.9224 135.074 83.9645 134.974 84.9973L134.697 87.8683C134.636 88.5203 134.39 89.1414 133.989 89.659C133.588 90.1767 133.048 90.5694 132.431 90.7915C131.593 91.1009 130.667 91.0718 129.849 90.7103C129.032 90.3488 128.387 89.6834 128.052 88.8548C127.602 87.5903 127.345 86.2652 127.29 84.9242L126.653 81.6565C126.546 81.1193 126.635 80.5619 126.901 80.0838C127.168 79.6056 127.596 79.2379 128.109 79.0465L130.766 78.0599C131.055 77.9535 131.361 77.9058 131.668 77.9196C131.975 77.9333 132.277 78.0083 132.554 78.1401C132.832 78.2719 133.08 78.4578 133.285 78.6869C133.49 78.9161 133.647 79.1838 133.747 79.4745Z" fill="#FFB573"/>
<path d="M151.343 95.458C149.656 95.0346 147.869 95.2989 146.376 96.1926C144.884 97.0863 143.807 98.5364 143.383 100.224L143.252 100.746L143.012 101.727L142.715 102.834C142.501 103.591 142.292 104.353 142.047 105.105C141.582 106.608 141.029 108.059 140.449 109.432L140.418 109.505C139.839 107.756 139.301 105.935 138.821 104.082C138.466 102.771 138.126 101.44 137.813 100.104C137.5 98.7675 137.166 97.4207 136.868 96.0635C136.252 93.37 135.678 90.6034 135.094 87.9203V87.842C134.922 87.0684 134.476 86.383 133.838 85.9122C133.201 85.4415 132.415 85.2172 131.625 85.2809C130.835 85.3445 130.095 85.6916 129.54 86.2583C128.986 86.8249 128.656 87.5729 128.61 88.364C128.433 91.329 128.438 94.1896 128.511 97.1128C128.584 100.036 128.788 102.938 129.106 105.877C129.263 107.349 129.477 108.827 129.717 110.314C129.957 111.802 130.239 113.311 130.63 114.835C131.016 116.431 131.504 118 132.092 119.533C132.426 120.403 132.816 121.251 133.261 122.07C133.8 123.066 134.446 124.001 135.188 124.857C136.087 125.881 137.321 126.553 138.669 126.751C140.017 126.948 141.392 126.66 142.548 125.938L142.903 125.713C143.984 125.032 145.007 124.262 145.962 123.411C146.858 122.604 147.694 121.731 148.462 120.801C149.193 119.91 149.878 118.981 150.513 118.019C151.124 117.064 151.667 116.103 152.179 115.132C152.685 114.178 153.143 113.199 153.551 112.199C153.959 111.212 154.35 110.226 154.674 109.223C154.997 108.221 155.311 107.224 155.561 106.201C155.686 105.679 155.817 105.157 155.921 104.635L156.078 103.878L156.235 102.959C156.516 101.323 156.168 99.6398 155.261 98.2487C154.354 96.8576 152.955 95.8607 151.343 95.458Z" fill="#263238"/>
<path d="M123.234 197.838C124.147 196.669 130.542 193.96 130.542 193.96C132.777 198.755 134.72 203.682 136.362 208.711L127.895 210.439C127.895 210.439 125.625 201.925 123.234 197.838Z" fill="#FFB573"/>
<path d="M139.614 143.252C115.179 144.918 96.2879 144.97 107.062 166.341C111.677 175.486 112.59 180.388 117.617 191.684C119.778 196.549 120.493 197.974 122.044 201.341C123.677 204.332 131.492 202.948 134.274 201.435C137.578 199.216 134.112 194.497 133.418 191.715C130.03 178.143 133.486 173.294 128.308 164.644C136.31 165.056 157.451 165.333 160.771 151.698C160.776 151.698 156.793 143.252 139.614 143.252Z" fill="#263238"/>
<path d="M124.236 202.792L125.505 204.775C125.581 204.894 125.693 204.984 125.824 205.034C125.956 205.084 126.1 205.09 126.235 205.052C127.608 204.666 131.716 203.575 134.18 203.617C134.269 203.617 134.356 203.6 134.438 203.566C134.519 203.532 134.593 203.482 134.654 203.418C134.716 203.355 134.764 203.279 134.795 203.197C134.827 203.114 134.841 203.026 134.838 202.938C134.801 202.113 134.687 201.048 134.603 200.385C134.583 200.214 134.496 200.057 134.361 199.949C134.226 199.842 134.054 199.792 133.883 199.811C130.722 200.165 127.606 200.836 124.581 201.816C124.485 201.847 124.399 201.899 124.327 201.969C124.256 202.039 124.201 202.124 124.168 202.219C124.134 202.313 124.123 202.414 124.135 202.513C124.147 202.613 124.181 202.708 124.236 202.792Z" fill="#5348A7"/>
<path d="M138.789 213.561L137.03 207.438C136.978 207.302 136.879 207.19 136.75 207.122C136.621 207.055 136.472 207.037 136.331 207.072L127.613 208.388C126.905 208.445 126.235 208.735 125.708 209.212C123.493 211.779 120.45 213.491 117.105 214.051C115.696 214.328 116.296 217.136 119.606 217.121C125.092 217.095 124.852 216.395 129.477 215.722C132.974 215.2 134.457 215.2 137.62 214.897C137.787 214.894 137.952 214.857 138.104 214.787C138.256 214.716 138.392 214.615 138.502 214.489C138.612 214.363 138.695 214.215 138.744 214.055C138.794 213.895 138.809 213.727 138.789 213.561Z" fill="#263238"/>
<path d="M42.9917 128.877H218.013V125.64H42.9917V128.877Z" fill="#5348A7"/>
<path opacity="0.5" d="M42.9917 128.877H218.013V125.64H42.9917V128.877Z" fill="white"/>
<path opacity="0.3" d="M170.532 128.877H218.008V125.64H170.532V128.877Z" fill="#5348A7"/>
<path d="M213.399 215.586H215.174L208.064 133.371C208.495 132.845 208.867 132.275 209.176 131.669L210.617 128.877H163.579L165.798 131.669C166.282 132.278 166.814 132.847 167.39 133.371L183.316 215.586H185.091L177.198 137.004H199.273L213.399 215.586Z" fill="#263238"/>
<path opacity="0.6" d="M213.399 215.586H215.174L208.064 133.371C208.495 132.845 208.867 132.275 209.176 131.669L210.617 128.877H163.579L165.798 131.669C166.282 132.278 166.814 132.847 167.39 133.371L183.316 215.586H185.091L177.198 137.004H199.273L213.399 215.586Z" fill="white"/>
<path d="M87.983 111.87H46.4214V125.64H87.983V111.87Z" fill="#5348A7"/>
<path opacity="0.8" d="M87.983 111.87H46.4214V125.64H87.983V111.87Z" fill="white"/>
<path opacity="0.3" d="M87.9829 111.87H67.2021V125.64H87.9829V111.87Z" fill="#5348A7"/>
<path opacity="0.3" d="M53.4946 117.027L67.1554 118.176L84.1621 117.027H53.4946Z" fill="#5348A7"/>
<path opacity="0.3" d="M47.4448 120.274L55.3896 120.822L65.2763 120.274H47.4448Z" fill="#5348A7"/>
<path d="M67.2021 109.432C61.6167 112.105 45.8262 110.053 45.8262 110.053C45.8262 110.053 47.9142 111.87 49.9605 111.87H86.3125C86.3125 111.87 87.6958 111.405 87.6958 110.915C78.4303 112.298 69.0187 110.528 67.2021 109.432Z" fill="#5348A7"/>
<path opacity="0.4" d="M67.2021 109.432C61.6167 112.105 45.8262 110.053 45.8262 110.053C45.8262 110.053 47.9142 111.87 49.9605 111.87H86.3125C86.3125 111.87 87.6958 111.405 87.6958 110.915C78.4303 112.298 69.0187 110.528 67.2021 109.432Z" fill="white"/>
<path d="M214.171 118.275H170.021V125.635H214.171V118.275Z" fill="#5348A7"/>
<path opacity="0.8" d="M214.171 118.275H170.021V125.635H214.171V118.275Z" fill="white"/>
<path opacity="0.3" d="M214.166 118.275H192.091V125.635H214.166V118.275Z" fill="#5348A7"/>
<path opacity="0.3" d="M203.679 122.555L189.168 121.939L171.101 122.555H203.679Z" fill="#5348A7"/>
<path opacity="0.3" d="M210.105 120.812L201.664 120.519L191.162 120.812H210.105Z" fill="#5348A7"/>
<path d="M188.04 114.099C186.756 118.619 169.384 116.458 169.384 116.458C169.384 116.458 171.592 118.275 173.774 118.275H212.402C212.402 118.275 216.975 117.231 216.975 116.74C207.119 118.129 192.096 117.152 188.04 114.099Z" fill="#5348A7"/>
<g opacity="0.4">
<path opacity="0.4" d="M188.04 114.099C186.756 118.619 169.384 116.458 169.384 116.458C169.384 116.458 171.592 118.275 173.774 118.275H212.402C212.402 118.275 216.975 117.231 216.975 116.74C207.119 118.129 192.096 117.152 188.04 114.099Z" fill="white"/>
</g>
<path d="M44.9077 191.812C44.9077 191.812 31.3509 176.079 26.2555 160.346C21.1602 144.612 23.5689 146.419 23.5689 146.419C23.5689 146.419 30.4785 161.7 35.7206 169.088C40.9626 176.476 50.2964 187.297 50.2964 187.297L44.9077 191.812Z" fill="#77B033"/>
<path d="M47.6098 148.871C47.5433 148.674 47.4018 148.511 47.2165 148.419C47.0312 148.327 46.8172 148.313 46.6216 148.38C46.4261 148.447 46.265 148.59 46.1738 148.777C46.0826 148.964 46.0687 149.18 46.1353 149.377C46.9613 154.904 48.7524 167.874 48.683 176.281C48.5903 187.18 48.683 191.43 48.683 191.43H54.3265C54.3265 191.43 53.3228 168.854 52.0104 161.957C51.1874 157.401 49.7047 152.992 47.6098 148.871Z" fill="#77B033"/>
<path d="M50.6826 189.578C53.043 184.175 54.6037 178.451 55.3148 172.591C55.778 168.574 54.9442 163.14 53.7167 155.885C53.2392 153.231 52.9989 150.54 52.9987 147.843C53.0036 147.543 53.1066 147.253 53.2916 147.019C53.4766 146.784 53.7333 146.617 54.0219 146.544C54.3104 146.471 54.6148 146.497 54.8876 146.616C55.1605 146.736 55.3866 146.943 55.5309 147.205C56.8963 149.751 57.9538 152.454 58.6808 155.254C60.0473 162.416 61.5991 165.997 60.4101 172.794C59.2212 179.59 54.8593 190.052 54.8593 190.052L50.6826 189.578Z" fill="#77B033"/>
<path d="M55.7627 190.052C55.7627 190.052 70.6473 157.8 71.6818 152.989C72.7164 148.178 76.2214 137.178 76.6305 137.801C77.0397 138.424 77.665 144.247 74.9861 150.903C72.3072 157.559 60.8503 191.01 60.8503 191.01H55.7627" fill="#77B033"/>
<path d="M49.0535 188.612C48.9083 188.526 48.769 188.43 48.6366 188.324C48.3741 188.122 47.9727 187.842 47.4863 187.437C46.0928 186.322 44.758 185.134 43.4872 183.879C39.2914 179.706 35.6575 174.995 32.6788 169.866C29.7128 164.753 27.2462 159.362 25.3137 153.767C24.5417 151.627 24.0167 149.875 23.6693 148.653C23.484 148.046 23.3605 147.571 23.2678 147.252C23.2243 147.09 23.1908 146.927 23.1675 146.761C23.2461 146.911 23.3058 147.071 23.345 147.236L23.8005 148.629C24.1866 149.828 24.7656 151.572 25.5376 153.697C27.5312 159.251 30.0195 164.61 32.9722 169.711C35.9375 174.815 39.5272 179.522 43.6571 183.723C45.2474 185.28 46.6139 186.534 47.579 187.343C48.0499 187.764 48.4436 188.06 48.6907 188.278C48.8199 188.38 48.9412 188.492 49.0535 188.612Z" fill="#A8FA48"/>
<path d="M50.6823 173.136C50.6085 172.827 50.5645 172.512 50.551 172.194C50.4738 171.525 50.3889 170.637 50.2731 169.61C50.0415 167.422 49.6709 164.417 49.146 161.109C48.621 157.8 48.0265 154.834 47.6019 152.685C47.378 151.65 47.1927 150.801 47.0538 150.14C46.9717 149.831 46.9174 149.516 46.8916 149.198C47.0052 149.495 47.1005 149.799 47.1773 150.109C47.3394 150.7 47.5633 151.564 47.8181 152.631C48.3276 154.772 48.9529 157.745 49.4856 161.062C50.0183 164.378 50.3426 167.399 50.5202 169.586C50.6128 170.684 50.6669 171.571 50.6977 172.186C50.7196 172.503 50.7145 172.821 50.6823 173.136Z" fill="#E0E0E0"/>
<path d="M54.1723 146.971C54.2429 147.1 54.2999 147.235 54.3422 147.376L54.79 148.575C54.9907 149.096 55.2146 149.735 55.4307 150.498C55.6469 151.261 55.9403 152.109 56.1565 153.082L56.5193 154.593C56.6428 155.122 56.7355 155.682 56.8513 156.259C57.0906 157.403 57.245 158.641 57.4226 159.949C57.7434 162.791 57.8621 165.653 57.7777 168.512C57.6554 171.365 57.3355 174.205 56.8204 177.013C56.5425 178.297 56.3031 179.527 55.9789 180.648C55.8245 181.217 55.701 181.762 55.5388 182.283C55.3767 182.805 55.2146 183.295 55.0602 183.77C54.7822 184.72 54.4348 185.553 54.1569 186.292C53.879 187.032 53.6165 187.655 53.3849 188.161C53.1533 188.667 52.9911 189.033 52.8522 189.328C52.7961 189.464 52.729 189.594 52.6514 189.718C52.6832 189.572 52.7325 189.431 52.7981 189.297L53.2768 188.098C53.493 187.585 53.7477 186.962 54.0025 186.215C54.2573 185.467 54.5892 184.658 54.8594 183.684C54.9984 183.21 55.1528 182.711 55.3072 182.198C55.4616 181.684 55.5851 181.131 55.7318 180.571C56.0484 179.45 56.2723 178.235 56.5039 176.943C57.5561 171.358 57.7695 165.644 57.1369 159.995C56.9671 158.695 56.8281 157.457 56.5965 156.321C56.4884 155.745 56.4112 155.192 56.2877 154.663C56.1642 154.133 56.0561 153.635 55.9403 153.152C55.7396 152.179 55.4693 151.323 55.2686 150.56C55.0679 149.797 54.8594 149.159 54.6819 148.629L54.2959 147.415C54.2331 147.274 54.1915 147.124 54.1723 146.971Z" fill="#A8FA48"/>
<path d="M76.4371 138.478C76.4371 138.478 76.4371 138.525 76.4371 138.626C76.4371 138.727 76.4371 138.875 76.3676 139.039C76.3058 139.412 76.2209 139.957 76.0742 140.65C75.7886 142.036 75.3022 144.029 74.5302 146.457C73.7581 148.886 72.7777 151.72 71.5733 154.842C70.3689 157.963 68.9716 161.365 67.6514 164.962C66.3312 168.559 65.2736 172.108 64.3085 175.308C63.3435 178.508 62.4325 181.388 61.5447 183.762C60.8738 185.644 60.1006 187.486 59.2286 189.282C58.9275 189.92 58.6496 190.395 58.4566 190.722L58.2481 191.088C58.2256 191.131 58.1998 191.173 58.1709 191.212C58.1709 191.212 58.1709 191.166 58.2172 191.072C58.2636 190.979 58.3253 190.846 58.4025 190.691C58.5569 190.356 58.8117 189.912 59.1051 189.227C59.6995 187.951 60.5102 186.067 61.3517 183.684C62.1932 181.302 63.0965 178.43 64.0383 175.222C64.9802 172.015 66.0224 168.473 67.3658 164.853C68.7091 161.233 70.0987 157.847 71.3108 154.733C72.5229 151.619 73.5651 148.793 74.3372 146.387C75.1092 143.982 75.6187 141.997 75.9353 140.619C76.1051 139.934 76.2055 139.389 76.2904 139.062C76.329 138.898 76.3599 138.758 76.3908 138.649C76.4216 138.54 76.4371 138.478 76.4371 138.478Z" fill="#A8FA48"/>
<path d="M30.5632 131.355C30.3579 131.158 30.0938 131.036 29.8121 131.007C29.5305 130.978 29.2472 131.043 29.0065 131.193C28.7657 131.344 28.5811 131.57 28.4815 131.837C28.3818 132.105 28.3727 132.398 28.4556 132.671C28.964 134.33 29.5884 135.95 30.3239 137.521C32.3698 141.903 38.3839 157.637 41.194 166.278C44.0042 174.919 47.9724 191.041 47.9724 191.041L53.9865 190.052C53.9865 190.052 48.4897 163.584 43.1164 154.024C38.8007 146.364 34.4851 135.278 30.5632 131.355Z" fill="#77B033"/>
<path d="M50.9605 190.543C50.9553 190.491 50.9553 190.439 50.9605 190.387C50.9605 190.263 50.9605 190.099 50.891 189.905C50.8292 189.492 50.7752 188.869 50.6439 188.075C50.4278 186.479 50.034 184.183 49.3855 181.388C48.6178 178.115 47.6798 174.885 46.5753 171.711C45.3401 168.123 43.796 164.246 42.0435 160.229C38.5077 152.21 34.9795 145.103 32.6557 139.84C31.4822 137.217 30.579 135.076 29.9768 133.613C29.6757 132.834 29.4595 132.281 29.3051 131.884L29.1353 131.433C29.1145 131.383 29.099 131.33 29.0889 131.277C29.1218 131.322 29.1478 131.372 29.1661 131.425L29.3592 131.861L30.1157 133.527C30.7488 135.006 31.6598 137.131 32.8873 139.755C35.2574 144.986 38.8165 152.078 42.3601 160.112C44.1126 164.129 45.6566 168.021 46.8764 171.626C47.971 174.813 48.8885 178.059 49.6248 181.349C50.1273 183.567 50.5164 185.809 50.7906 188.067C50.8987 188.846 50.9373 189.484 50.9759 189.912C50.9759 190.107 50.9759 190.263 51.0145 190.387C51.0531 190.512 50.9991 190.543 50.9605 190.543Z" fill="#A8FA48"/>
<path d="M53.9865 190.052C53.8898 189.721 53.8201 189.383 53.778 189.04C53.6622 188.324 53.5001 187.39 53.3148 186.253C52.8979 183.918 52.2649 180.672 51.3539 177.153C50.4429 173.634 49.4161 170.497 48.6441 168.247C48.2581 167.165 47.9415 166.27 47.7022 165.585C47.5663 165.266 47.4603 164.935 47.3857 164.596C47.5504 164.9 47.6948 165.215 47.818 165.538C48.0728 166.153 48.4356 167.048 48.8525 168.169C49.9359 171.087 50.8662 174.059 51.6395 177.075C52.4156 180.088 53.0391 183.138 53.5078 186.215C53.6854 187.398 53.8166 188.355 53.8784 189.017C53.939 189.359 53.9751 189.705 53.9865 190.052Z" fill="#A8FA48"/>
<path d="M66.316 189.188H42.8618V218H66.316V189.188Z" fill="#E0E0E0"/>
<path d="M58.8349 189.188H38.0288V218H58.8349V189.188Z" fill="#EBEBEB"/>
<path d="M206.103 108.873C206.103 108.873 210.371 103.99 211.975 99.1074C213.579 94.2247 212.821 94.7852 212.821 94.7852C212.821 94.7852 210.646 99.5277 208.995 101.82C207.345 104.113 204.407 107.471 204.407 107.471L206.103 108.873Z" fill="#77B033"/>
<path d="M205.252 95.546C205.273 95.4848 205.318 95.4344 205.376 95.4059C205.435 95.3773 205.502 95.373 205.564 95.3938C205.625 95.4146 205.676 95.4589 205.705 95.5169C205.733 95.5749 205.738 95.6419 205.717 95.7031C205.457 97.4184 204.893 101.444 204.915 104.053C204.944 107.435 204.915 108.754 204.915 108.754H203.138C203.138 108.754 203.454 101.748 203.867 99.6073C204.126 98.1934 204.593 96.825 205.252 95.546Z" fill="#77B033"/>
<path d="M204.285 108.179C203.542 106.502 203.051 104.726 202.827 102.908C202.681 101.661 202.944 99.9745 203.33 97.7228C203.48 96.8993 203.556 96.064 203.556 95.2271C203.554 95.134 203.522 95.044 203.464 94.9711C203.406 94.8983 203.325 94.8465 203.234 94.8239C203.143 94.8013 203.047 94.8092 202.961 94.8463C202.875 94.8834 202.804 94.9476 202.759 95.029C202.329 95.8193 201.996 96.658 201.767 97.5271C201.337 99.7498 200.848 100.861 201.223 102.97C201.597 105.08 202.97 108.327 202.97 108.327L204.285 108.179Z" fill="#77B033"/>
<path d="M202.686 108.327C202.686 108.327 198 98.3173 197.674 96.8242C197.349 95.3312 196.245 91.9174 196.116 92.1107C195.988 92.3039 195.791 94.1111 196.634 96.1768C197.477 98.2424 201.084 108.624 201.084 108.624H202.686" fill="#77B033"/>
<path d="M204.798 107.88C204.844 107.853 204.888 107.823 204.929 107.79C205.012 107.727 205.138 107.641 205.291 107.515C205.73 107.169 206.15 106.8 206.55 106.411C207.871 105.116 209.015 103.653 209.953 102.062C210.887 100.475 211.663 98.8019 212.272 97.0658C212.515 96.4014 212.68 95.8578 212.789 95.4785C212.848 95.29 212.887 95.1427 212.916 95.0436C212.929 94.9936 212.94 94.9427 212.947 94.8914C212.923 94.938 212.904 94.9875 212.891 95.0388L212.748 95.4712C212.626 95.8433 212.444 96.3845 212.201 97.044C211.574 98.7674 210.79 100.431 209.861 102.014C208.927 103.598 207.797 105.059 206.497 106.362C205.996 106.846 205.566 107.235 205.262 107.486C205.114 107.616 204.99 107.708 204.912 107.776C204.872 107.807 204.833 107.842 204.798 107.88Z" fill="#A8FA48"/>
<path d="M204.285 103.077C204.308 102.981 204.322 102.883 204.326 102.784C204.351 102.577 204.378 102.301 204.414 101.982C204.487 101.303 204.604 100.371 204.769 99.3441C204.934 98.3173 205.121 97.3968 205.255 96.73C205.325 96.4087 205.384 96.1454 205.427 95.94C205.453 95.8443 205.47 95.7465 205.479 95.6477C205.443 95.74 205.413 95.8344 205.389 95.9303C205.338 96.114 205.267 96.3821 205.187 96.7131C205.026 97.3775 204.83 98.3004 204.662 99.3296C204.494 100.359 204.392 101.296 204.336 101.975C204.307 102.316 204.29 102.591 204.28 102.782C204.273 102.88 204.275 102.979 204.285 103.077Z" fill="#E0E0E0"/>
<path d="M203.187 94.9565C203.164 94.9964 203.146 95.0385 203.133 95.0821L202.992 95.4542C202.929 95.616 202.858 95.8141 202.79 96.0509C202.722 96.2877 202.63 96.5511 202.562 96.8531L202.448 97.3217C202.409 97.486 202.38 97.66 202.343 97.8387C202.268 98.1939 202.219 98.578 202.163 98.9839C202.062 99.866 202.025 100.754 202.052 101.642C202.09 102.527 202.191 103.408 202.353 104.28C202.44 104.678 202.516 105.06 202.618 105.408C202.666 105.584 202.705 105.754 202.756 105.915C202.807 106.077 202.858 106.23 202.907 106.377C202.995 106.672 203.104 106.93 203.191 107.16C203.279 107.389 203.362 107.582 203.435 107.74C203.507 107.897 203.558 108.01 203.602 108.102C203.62 108.144 203.641 108.184 203.665 108.223C203.655 108.178 203.64 108.134 203.619 108.092L203.469 107.72C203.4 107.561 203.32 107.367 203.24 107.136C203.16 106.904 203.055 106.652 202.97 106.35C202.927 106.203 202.878 106.048 202.829 105.889C202.781 105.729 202.742 105.558 202.696 105.384C202.596 105.036 202.526 104.659 202.453 104.258C202.121 102.525 202.054 100.752 202.253 98.9984C202.307 98.5949 202.351 98.2108 202.423 97.8581C202.457 97.6793 202.482 97.5077 202.521 97.3435C202.56 97.1792 202.594 97.0246 202.63 96.8748C202.693 96.5728 202.778 96.307 202.841 96.0702C202.905 95.8335 202.97 95.6354 203.026 95.4711L203.148 95.0942C203.167 95.0505 203.181 95.004 203.187 94.9565Z" fill="#A8FA48"/>
<path d="M196.177 92.3208C196.177 92.3208 196.177 92.3353 196.177 92.3667C196.177 92.3981 196.177 92.444 196.199 92.4947C196.218 92.6107 196.245 92.7798 196.291 92.9948C196.381 93.4249 196.534 94.0434 196.777 94.7971C197.021 95.5509 197.329 96.4304 197.708 97.3992C198.087 98.368 198.527 99.4238 198.943 100.54C199.359 101.656 199.692 102.758 199.995 103.751C200.299 104.744 200.586 105.638 200.866 106.375C201.077 106.958 201.32 107.53 201.595 108.087C201.689 108.286 201.777 108.433 201.838 108.534L201.903 108.648C201.91 108.661 201.919 108.674 201.928 108.687C201.928 108.687 201.928 108.672 201.913 108.643C201.898 108.614 201.879 108.573 201.855 108.525C201.806 108.421 201.726 108.283 201.634 108.071C201.446 107.674 201.191 107.09 200.926 106.35C200.661 105.611 200.377 104.72 200.08 103.724C199.784 102.729 199.456 101.63 199.033 100.506C198.61 99.3827 198.173 98.3317 197.791 97.3653C197.409 96.3989 197.081 95.5219 196.838 94.7754C196.595 94.0289 196.435 93.4128 196.335 92.9852C196.282 92.7726 196.25 92.6034 196.223 92.502C196.211 92.4512 196.201 92.4077 196.192 92.3739C196.182 92.3401 196.177 92.3208 196.177 92.3208Z" fill="#A8FA48"/>
<path d="M210.619 90.1101C210.684 90.0492 210.767 90.0112 210.855 90.0021C210.944 89.993 211.033 90.0134 211.109 90.06C211.185 90.1067 211.243 90.177 211.274 90.2599C211.306 90.3428 211.309 90.4337 211.282 90.5184C211.122 91.0333 210.926 91.5363 210.694 92.0236C210.05 93.3838 208.157 98.2665 207.272 100.948C206.388 103.63 205.138 108.633 205.138 108.633L203.245 108.327C203.245 108.327 204.975 100.112 206.667 97.1455C208.026 94.7682 209.384 91.3278 210.619 90.1101Z" fill="#77B033"/>
<path d="M204.198 108.479C204.199 108.463 204.199 108.447 204.198 108.431C204.198 108.392 204.198 108.341 204.22 108.281C204.239 108.153 204.256 107.959 204.297 107.713C204.365 107.218 204.489 106.505 204.693 105.638C204.935 104.622 205.23 103.619 205.578 102.635C205.967 101.521 206.453 100.318 207.005 99.0709C208.118 96.5825 209.229 94.3767 209.96 92.7435C210.33 91.9293 210.614 91.2649 210.804 90.8107C210.898 90.5691 210.966 90.3976 211.015 90.2744L211.069 90.1342C211.075 90.1187 211.08 90.1025 211.083 90.0859C211.073 90.0999 211.065 90.1154 211.059 90.1318L210.998 90.2671L210.76 90.7841C210.561 91.2432 210.274 91.9027 209.887 92.7169C209.141 94.3404 208.021 96.5414 206.905 99.0347C206.353 100.281 205.867 101.489 205.483 102.608C205.139 103.597 204.85 104.605 204.618 105.626C204.46 106.314 204.337 107.01 204.251 107.711C204.217 107.952 204.205 108.15 204.193 108.283C204.193 108.344 204.193 108.392 204.181 108.431C204.168 108.469 204.186 108.479 204.198 108.479Z" fill="#A8FA48"/>
<path d="M203.245 108.327C203.275 108.224 203.297 108.119 203.311 108.013C203.347 107.79 203.398 107.5 203.456 107.148C203.588 106.423 203.787 105.415 204.074 104.323C204.361 103.231 204.684 102.258 204.927 101.559C205.048 101.224 205.148 100.946 205.223 100.733C205.266 100.634 205.3 100.532 205.323 100.426C205.271 100.521 205.226 100.618 205.187 100.719C205.107 100.91 204.992 101.187 204.861 101.535C204.52 102.441 204.227 103.363 203.984 104.299C203.74 105.234 203.543 106.181 203.396 107.136C203.34 107.503 203.298 107.8 203.279 108.005C203.26 108.111 203.249 108.219 203.245 108.327Z" fill="#A8FA48"/>
<path d="M199.363 108.058H206.747V117H199.363V108.058Z" fill="#E0E0E0"/>
<path d="M201.719 108.058H208.269V117H201.719V108.058Z" fill="#EBEBEB"/>
</svg>
